<svg id="Layer_1" enable-background="new 0 0 511.884 511.884" height="512" viewBox="0 0 511.884 511.884" width="512" xmlns="http://www.w3.org/2000/svg"><g><g><path d="m98.205 405.501h55.864v53.43h-55.864z" fill="#ffeb66" transform="matrix(.707 .707 -.707 .707 342.465 37.345)"/><path d="m139.778 408.08-37.79 37.771 25.006 24.992 37.797-37.763z" fill="#ffe017"/><g fill="#ffc103"><path d="m303.306 226.288-30.064-29.788-248.037 249.226c-8.131 8.176-8.082 21.382.11 29.497 8.192 8.115 21.424 8.066 29.555-.11z"/><path d="m303.306 226.288-30.064-29.788-248.037 249.226c-8.131 8.176-8.082 21.382.11 29.497 8.192 8.115 21.424 8.066 29.555-.11z"/><path d="m111.369 475.016c-6.768 6.742-6.768 17.673 0 24.415 6.768 6.742 17.741 6.742 24.509 0l57.708-57.486c6.768-6.742 6.768-17.673 0-24.415-6.768-6.742-17.741-6.742-24.509 0z"/></g><path d="m448.275 52.726c-50.108-49.914-121.145-60.078-158.666-22.7-37.522 37.377-27.319 108.141 22.788 158.056 50.107 49.914 121.144 60.077 158.666 22.7 37.521-37.378 27.319-108.142-22.788-158.056zm-1.708 133.654c-21.394 21.311-56.079 21.311-77.473 0-10.751-10.71-16.095-24.763-16.04-38.8-14.091.054-28.199-5.269-38.949-15.979-21.394-21.311-21.394-55.863 0-77.175 21.394-21.311 56.079-21.311 77.473 0 10.751 10.71 16.095 24.763 16.04 38.8 14.091-.054 28.198 5.269 38.95 15.979 21.392 21.311 21.392 55.864-.001 77.175z" fill="#ffeb66"/><g><path d="m448.275 52.726c-35.725-35.587-82.086-50.96-119.357-43.312 27.295 5.004 55.665 19.711 79.357 43.312 16.673 16.609 28.921 35.526 36.469 54.754.616.561 1.227 1.132 1.823 1.726 20.979 20.898 21.371 54.52 1.205 75.912-3.748 9.579-9.292 18.276-16.71 25.665-10.77 10.729-24.304 17.532-39.309 20.612 30.433 5.579 59.528-.907 79.309-20.612 37.522-37.379 27.32-108.143-22.787-158.057z" fill="#ffe017"/></g><g><path d="m284.593 254.947-39.303-39.151c-6.557-6.532-6.557-17.126 0-23.658 6.55-6.525 17.164-6.525 23.714 0l39.303 39.151c6.557 6.532 6.557 17.126 0 23.658-6.55 6.524-17.164 6.524-23.714 0z" fill="#ffeb66"/><path d="m308.307 231.288-18.223-18.153c4.817 6.544 4.275 15.782-1.662 21.697-6.55 6.524-17.164 6.524-23.714 0l19.886 20.114c6.55 6.525 17.164 6.525 23.714 0 6.556-6.531 6.556-17.126-.001-23.658z" fill="#ffe017"/><path d="m308.325 231.306-39.303-39.151c-6.557-6.532-6.557-17.126 0-23.658 6.55-6.525 17.164-6.525 23.714 0l39.303 39.151c6.557 6.532 6.557 17.126 0 23.658-6.55 6.525-17.164 6.525-23.714 0z" fill="#ffc103"/><path d="m332.039 207.648-18.223-18.153c4.817 6.544 4.275 15.782-1.662 21.697-6.55 6.524-17.47 6.524-24.02 0l20.192 20.114c6.55 6.525 17.164 6.525 23.714 0 6.556-6.532 6.556-17.126-.001-23.658z" fill="#ffb300"/></g></g><g><path d="m493.641 144.492c4.103-.569 6.967-4.357 6.397-8.46-4.398-31.676-20.901-63.149-46.471-88.62-43.556-45.257-123.175-68.109-169.253-22.7-34.197 33.504-29.857 90.677-5.779 131.518-11.671.801-21.982 11.636-21.917 23.553-20.568.359-31.423 25.006-17.498 40.403l-146.937 148.535c-6.894 6.969 3.915 17.372 10.664 10.549l146.875-148.473 19.293 19.219-219.463 219.807c-5.208 5.237-13.713 5.268-18.959.071-5.138-5.089-5.245-13.676-.126-18.824l45.583-44.874c6.688-6.584-3.53-17.574-10.523-10.689l-45.639 44.93c-10.874 10.935-10.811 29.258.149 40.114 10.928 10.826 29.286 10.774 40.141-.139l32.855-32.906 17.636 17.623-4.592 4.574c-9.583 9.547-9.583 25.495 0 35.042 9.556 9.519 25.539 9.519 35.095 0l57.708-57.486c9.583-9.546 9.583-25.495 0-35.042-9.675-9.639-25.419-9.639-35.096 0l-4.635 4.617-17.767-17.754 138.279-138.495c15.127 14.511 40.625 4.051 41.051-16.925 11.668.11 22.854-9.998 23.635-21.881 53.684 31.935 134.711 26.17 153.455-43.184 2.446-9.06-11.923-13.383-14.481-3.909-21.379 69.796-108.997 64.333-165.629 8.084l-.003-.003c-40.053-40.002-62.001-105.495-22.787-147.428 61.118-58.965 181.312 18.535 190.278 102.757.57 4.101 4.357 6.96 8.461 6.396zm-305.347 278.352c3.777 3.763 3.777 10.025 0 13.788l-57.708 57.486c-3.839 3.824-10.084 3.824-13.923 0-3.777-3.763-3.777-10.025 0-13.788l57.708-57.486c3.837-3.824 10.083-3.825 13.923 0zm-39.772 4.576-27.227 27.122-17.665-17.652 27.153-27.196zm154.492-177.787c-3.619 3.605-9.509 3.605-13.128 0l-39.303-39.151c-3.568-3.555-3.568-9.476 0-13.031 3.619-3.605 9.508-3.605 13.128 0 .004-.006 39.293 39.15 39.302 39.151 3.57 3.555 3.57 9.476.001 13.031zm23.732-36.671c3.569 3.555 3.569 9.476 0 13.031-3.62 3.605-9.508 3.605-13.128 0l-39.308-39.157c-8.281-9.048 4.114-21.267 13.133-13.025 0-.001 39.303 39.151 39.303 39.151z"/><path d="m396.87 49.114c-24.278-24.185-63.782-24.185-88.059 0-36.455 36.056-14.045 100.614 37.121 105.593 5.083 51.142 69.888 73.149 105.928 36.985 36.451-36.051 14.048-100.614-37.121-105.592-1.54-13.971-7.746-26.902-17.869-36.986zm58.242 98.679c.31 41.576-51.527 62.773-80.725 33.273-8.969-8.934-13.882-20.816-13.833-33.456.016-4.161-3.635-7.556-7.717-7.529-41.538.469-62.841-51.145-33.439-80.34 18.441-18.37 48.446-18.37 66.886 0 8.97 8.935 13.882 20.817 13.833 33.457-.016 4.15 3.422 7.482 7.529 7.529 25.449-.655 47.974 21.641 47.466 47.066z"/></g></g></svg>