<svg id="Layer_1" enable-background="new 0 0 511.706 511.706" height="512" viewBox="0 0 511.706 511.706" width="512" xmlns="http://www.w3.org/2000/svg"><g><g><g fill="#ffeb66"><path d="m374.569 68.183c-8.335-5.16-17.164-8.358-25.961-10.179-.236-5.075-1.684-10.184-4.453-14.856-12.027-20.291-38.609-20.732-56.981-9.203-14.859 9.324-24.786 22.824-31.415 36.359-6.629-13.535-16.556-27.035-31.415-36.359-18.373-11.529-44.954-11.087-56.981 9.203-2.769 4.671-4.217 9.781-4.453 14.856-8.798 1.821-17.626 5.019-25.961 10.179-18.443 11.417-29.754 35.476-16.835 55.21 10.444 15.954 32.889 19.717 47.026 6.143l35.544-34.126 40.904 14.915c-.854 5.715-1.021 9.249-1.021 9.249l13.193-4.81 13.193 4.81s-.166-3.533-1.021-9.249l40.904-14.915 35.544 34.126c14.137 13.573 36.582 9.811 47.026-6.143 12.917-19.735 1.606-43.794-16.837-55.21z"/><path d="m391.404 388.313c-10.444-15.954-32.889-19.717-47.026-6.143l-35.544 34.126-40.904-14.915c.854-5.715 1.021-9.249 1.021-9.249l-13.193 4.81-13.193-4.81s.166 3.533 1.021 9.249l-40.904 14.915-35.544-34.126c-14.137-13.573-36.582-9.811-47.026 6.143-12.919 19.735-1.608 43.793 16.835 55.21 8.335 5.16 17.164 8.358 25.961 10.179.236 5.075 1.684 10.184 4.453 14.856 12.027 20.291 38.609 20.732 56.981 9.203 14.859-9.324 24.786-22.824 31.415-36.359 6.629 13.534 16.556 27.035 31.415 36.359 18.373 11.529 44.954 11.087 56.981-9.203 2.769-4.671 4.217-9.781 4.453-14.856 8.798-1.821 17.626-5.019 25.961-10.179 18.445-11.416 29.756-35.475 16.837-55.21z"/></g><g><path d="m385.339 198.353c-3.498 0-6.917.33-10.242.928v-14.872c0-65.903-53.425-119.327-119.327-119.327h-.022c-65.903 0-119.327 53.425-119.327 119.327v14.872c-3.326-.598-6.745-.928-10.242-.928-31.756 0-57.5 25.744-57.5 57.5s25.744 57.5 57.5 57.5c3.498 0 6.917-.33 10.242-.928v14.872c0 65.903 53.425 119.327 119.327 119.327h.022c65.903 0 119.327-53.425 119.327-119.327v-14.872c3.326.598 6.745.928 10.242.928 31.756 0 57.5-25.744 57.5-57.5s-25.744-57.5-57.5-57.5z" fill="#ffeb66"/><path d="m375.096 312.425c3.326.598 6.745.928 10.242.928 31.756 0 57.5-25.744 57.5-57.5s-25.744-57.5-57.5-57.5c-3.498 0-6.917.33-10.242.928l.754 7.826c16.211 10.168 26.989 28.199 26.989 48.746 0 20.624-10.858 38.711-27.169 48.859z" fill="#ffe017"/><g><path d="m390.28 165.376c-8.899-58.69-57.244-97.897-95.415-107.527.821-3.214 1.258-6.582 1.258-10.053 0-22.335-18.072-40.442-40.366-40.442s-40.366 18.107-40.366 40.442c0 3.471.438 6.839 1.258 10.053-38.171 9.63-86.515 48.837-95.415 107.527-16.156 0-29.253 13.122-29.253 29.309 0 16.186 13.097 29.309 29.253 29.309 15.179 0 27.656-11.584 29.11-26.409l.144.159v-8.127c0-40.556 22.867-75.76 56.387-93.379 4.438 10.527 14.838 17.915 26.96 17.915 8.73 0 16.562-3.836 21.922-9.912 5.36 6.076 13.192 9.912 21.922 9.912 12.122 0 22.523-7.388 26.96-17.915 33.52 17.619 56.387 52.823 56.387 93.379v8.127l.144-.159c1.453 14.825 13.93 26.409 29.11 26.409 16.156 0 29.253-13.122 29.253-29.309s-13.097-29.309-29.253-29.309z" fill="#ffc103"/><g><path d="m390.28 165.376c-8.899-58.69-57.244-97.897-95.415-107.527.821-3.214 1.258-6.583 1.258-10.053 0-22.335-18.072-40.442-40.366-40.442-7.28 0-14.103 1.94-20 5.319 12.163 6.967 20.366 20.081 20.366 35.123v.104c-.015 5.839 3.46 11.103 8.932 13.139 24.127 8.973 50.425 28.619 67.649 56.642 17.567 18.833 28.322 44.125 28.322 71.935v8.127l.144-.159c1.453 14.825 13.93 26.409 29.11 26.409 16.156 0 29.253-13.122 29.253-29.309 0-16.186-13.097-29.308-29.253-29.308z" fill="#ffb300"/></g><path d="m121.236 346.331c8.899 58.69 57.244 97.897 95.415 107.527-.821 3.214-1.258 6.582-1.258 10.053 0 22.335 18.072 40.442 40.366 40.442s40.366-18.107 40.366-40.442c0-3.471-.438-6.839-1.258-10.053 38.171-9.63 86.515-48.837 95.415-107.527 16.156 0 29.253-13.122 29.253-29.309 0-16.186-13.097-29.309-29.253-29.309-15.179 0-27.656 11.584-29.11 26.409l-.144-.159v8.127c0 40.556-22.867 75.76-56.387 93.379-4.438-10.527-14.838-17.915-26.96-17.915-8.73 0-16.562 3.836-21.922 9.912-5.36-6.076-13.192-9.912-21.922-9.912-12.122 0-22.522 7.388-26.96 17.915-33.52-17.619-56.387-52.823-56.387-93.379v-8.127l-.144.159c-1.453-14.825-13.93-26.409-29.11-26.409-16.156 0-29.253 13.122-29.253 29.309s13.097 29.309 29.253 29.309z" fill="#ffc103"/><g><path d="m390.28 287.713c-15.179 0-27.656 11.584-29.11 26.409l-.144-.159v8.127c0 27.811-10.755 53.103-28.322 71.935-17.224 28.024-43.522 47.669-67.649 56.642-5.522 2.054-8.932 7.438-8.932 13.243 0 15.042-8.203 28.156-20.366 35.123 5.897 3.378 12.72 5.319 20 5.319 22.293 0 40.366-18.106 40.366-40.442 0-3.471-.438-6.839-1.258-10.053 38.171-9.63 86.515-48.837 95.415-107.527 16.156 0 29.253-13.122 29.253-29.309 0-16.186-13.097-29.308-29.253-29.308z" fill="#ffb300"/></g></g></g><path d="m293.079 217.21c0-20.612-16.709-37.321-37.321-37.321s-37.321 16.709-37.321 37.321c0 14.103 7.825 26.376 19.368 32.723v67.931c0 9.915 8.038 17.953 17.953 17.953 9.915 0 17.953-8.038 17.953-17.953v-67.931c11.543-6.347 19.368-18.62 19.368-32.723z" fill="#fff"/></g><g><g><path d="m256.013 54.853c9.992 0 10.008-15 0-15-9.992 0-10.008 15 0 15z"/></g><g><path d="m256.013 472.353c9.992 0 10.008-15 0-15-9.992 0-10.008 15 0 15z"/></g><g><path d="m450.339 255.853c0-20.084-9.144-38.747-24.734-51.033 6.288-20.593-8.134-43.121-28.925-46.386-1.512-7.658-3.711-15.145-6.53-22.417 24.791-21.169 14.72-58.429-11.634-74.212-7.025-4.349-14.779-7.668-23.112-9.897-5.368-27.974-35.947-38.754-59.539-30.232-18.28-28.909-61.945-28.895-80.215 0-23.595-8.524-54.173 2.265-59.539 30.232-8.333 2.229-16.087 5.548-23.113 9.897-26.39 15.896-36.426 52.909-11.651 74.198-2.825 7.278-5.004 14.765-6.514 22.431-20.79 3.263-35.211 25.796-28.923 46.385-32.738 24.785-32.712 77.223.003 102.056-6.295 20.594 8.128 43.13 28.922 46.396 1.512 7.658 3.711 15.145 6.53 22.417-24.602 21.285-14.765 58.443 11.635 74.212 7.025 4.349 14.78 7.668 23.112 9.897 5.369 27.323 34.993 38.17 59.537 30.229 18.281 28.914 61.954 28.899 80.221-.004 24.295 8.501 53.897-2.246 59.534-30.225 8.332-2.229 16.086-5.548 23.113-9.897 26.406-15.765 36.215-52.923 11.633-74.212 2.819-7.271 5.019-14.758 6.53-22.417 20.79-3.264 35.212-25.796 28.925-46.386 15.59-12.285 24.734-30.947 24.734-51.032zm-112.636-208.881c2.047 3.454 3.228 7.389 3.413 11.38.159 3.422 2.617 6.302 5.972 6.996 8.625 1.785 16.543 4.885 23.534 9.212 16.17 9.748 25.496 31.411 12.893 46.919-15.954-30.981-48.098-58.742-80.121-68.965.55-5.621.069-11.588-1.38-17.04 13.111-3.741 28.159-1.204 35.689 11.498zm-216.467 125.904c3.708 0 6.859-2.709 7.415-6.375 2.605-17.182 8.916-33.453 18.755-48.359 5.205-8.431-6.8-16.374-12.519-8.263-2.5 3.787-4.796 7.655-6.889 11.597-12.608-15.519-3.27-37.158 12.896-46.915 6.99-4.327 14.908-7.427 23.533-9.212 3.355-.694 5.813-3.574 5.972-6.996 1.005-19.756 22.114-28.417 39.102-22.877-1.449 5.452-1.93 11.419-1.38 17.04-15.604 5.09-31.575 14.244-45.626 26.229-3.151 2.688-3.527 7.422-.839 10.573s7.422 3.527 10.573.839c14.349-12.239 30.776-21.131 46.254-25.036 3.972-1.002 6.445-5.157 5.433-9.126-5.22-20.459 10.649-41.141 31.84-41.141 21.168 0 37.066 20.658 31.84 41.141-1.013 3.969 1.461 8.125 5.433 9.126 43.621 11.186 83.591 55.056 89.833 101.38.556 3.666 3.708 6.375 7.416 6.375 11.995 0 21.753 9.783 21.753 21.809s-9.759 21.809-21.753 21.809c-13.995 0-23.152-13.855-21.753-26.877 0-42.11-23.143-80.435-60.397-100.018-3.837-2.016-8.717-.268-10.401 3.726-3.413 8.096-11.283 13.328-20.049 13.328-6.224 0-12.164-2.688-16.298-7.373-2.943-3.338-8.305-3.338-11.248 0-10.326 11.998-30.39 8.707-36.347-5.955-1.684-3.993-6.565-5.743-10.401-3.725-20.938 11.006-38.143 28.54-48.654 49.736-9.41 18.976-9.822 37.024-11.851 57.518-3.381 27.277-42.621 25.367-43.399-2.168.002-12.027 9.761-21.81 21.756-21.81zm52.577 291.858c-2.047-3.454-3.228-7.389-3.413-11.379-.159-3.422-2.617-6.302-5.972-6.996-8.625-1.785-16.542-4.884-23.534-9.212-16.143-9.75-25.561-31.437-12.893-46.919 15.954 30.981 48.098 58.742 80.121 68.965-.552 5.641-.065 11.631 1.397 17.101-16.759 5.069-30.009-1.948-35.706-11.56zm214.952-51.968c-3.954 18.558-23.39 30.068-41.677 33.592-3.355.695-5.813 3.574-5.971 6.996-1.008 19.759-22.112 28.416-39.102 22.878 1.449-5.452 1.93-11.419 1.38-17.04 32.027-10.225 64.165-37.982 80.122-68.965 5.189 6.315 7.014 14.582 5.248 22.539zm1.515-73.935c-3.708 0-6.859 2.709-7.415 6.375-6.246 46.31-46.214 90.208-89.834 101.38-4.336 1.539-6.147 4.581-5.433 9.126 5.484 20.393-10.7 41.435-31.841 41.14-21.136.295-37.329-20.749-31.84-41.14.714-4.545-1.096-7.587-5.433-9.126-43.637-11.196-83.578-55.048-89.833-101.38-.556-3.666-3.708-6.375-7.416-6.375-11.995 0-21.753-9.784-21.753-21.809 2.137-31.316 46.105-28.194 43.507 5.069 0 42.111 23.143 80.435 60.397 100.018 4.558 1.804 8.025.563 10.401-3.726 5.956-14.669 26.03-17.946 36.346-5.955 3.75 3.385 7.499 3.385 11.249 0 10.319-11.994 30.392-8.71 36.346 5.955 2.376 4.288 5.843 5.53 10.401 3.726 37.254-19.583 60.397-57.907 60.397-100.018-2.596-33.266 41.372-36.382 43.507-5.069 0 12.025-9.759 21.809-21.753 21.809zm28.114-45.483c-24.43-28.151-67.855-7.74-64.867 28.742 0 34.092-17.491 65.323-46.096 83.141-11.238-16.284-35.93-20.156-51.672-7.903-15.744-12.255-40.435-8.379-51.672 7.903-28.605-17.818-46.096-49.049-46.096-83.141 2.95-36.501-40.445-56.89-64.874-28.735-22.409-19.009-22.418-56.036.006-74.998 25.147 28.231 67.242 7.938 64.867-28.742 0-34.092 17.491-65.323 46.096-83.141 11.238 16.284 35.93 20.156 51.673 7.903 15.744 12.255 40.435 8.379 51.673-7.903 28.605 17.818 46.096 49.049 46.096 83.141-2.12 36.857 39.469 56.951 64.867 28.742 22.423 18.953 22.42 56.042-.001 74.991z"/><path d="m257.144 172.41c-44.693-.966-63.259 56.017-26.839 81.692v63.762c0 14.035 11.418 25.454 25.454 25.454s25.454-11.418 25.454-25.453c0-4.142-3.358-7.5-7.5-7.5s-7.5 3.358-7.5 7.5c0 5.764-4.689 10.453-10.454 10.453s-10.454-4.689-10.454-10.454v-67.354c0-3.04-1.644-5.866-4.289-7.374-17.058-9.359-20.272-34.032-6.02-47.332 17.955-17.802 49.404-5.399 50.543 19.836.578 11.341-5.185 21.876-15.038 27.495-2.646 1.508-4.289 4.334-4.289 7.375v27.577c0 4.142 3.358 7.5 7.5 7.5s7.5-3.358 7.5-7.5v-23.981c35.38-24.333 18.876-80.226-24.068-81.696z"/></g></g></g></svg>