<svg id="Layer_1" enable-background="new 0 0 511.753 511.753" height="512" viewBox="0 0 511.753 511.753" width="512" xmlns="http://www.w3.org/2000/svg"><g><g><g><path d="m491.941 7.646-25.523 4.008c-6.663 1.046-12.825 4.178-17.605 8.947l-186.477 186.074 42.393 42.317 186.395-185.993c4.816-4.805 7.979-11.024 9.029-17.752l3.965-25.4c1.117-7.153-5.041-13.322-12.177-12.201z" fill="#ecf4fa"/><path d="m491.941 7.646-12.615 1.981-2.672 17.12c-1.05 6.729-4.213 12.947-9.029 17.752l-183.912 183.515 21.016 20.979 186.395-185.994c4.816-4.805 7.979-11.024 9.029-17.752l3.965-25.4c1.117-7.153-5.041-13.322-12.177-12.201z" fill="#e4eff7"/></g><g><path d="m98.101 491.303-77.602-77.464c-17.665-17.633-17.665-46.237 0-63.87l170.631-170.327c17.645-17.614 46.238-17.614 63.883 0l77.602 77.464c17.665 17.633 17.665 46.237 0 63.87l-170.631 170.327c-17.645 17.614-46.238 17.614-63.883 0z" fill="#70e2ed"/><ellipse cx="223.074" cy="217.271" fill="#ecf4fa" rx="20.108" ry="20.072"/><g><path d="m109.356 448.031-45.529-45.448c-10.608-10.589-10.608-27.766 0-38.355l87.131-86.976c10.596-10.577 27.767-10.577 38.363 0l45.529 45.448c10.608 10.589 10.608 27.766 0 38.355l-87.131 86.976c-10.596 10.577-27.767 10.577-38.363 0z" fill="#ecf4fa"/><path d="m234.85 322.7-16.564-16.534c7.331 10.569 6.29 25.18-3.138 34.592l-87.131 86.976c-10.596 10.577-28.165 10.81-38.761.233l20.101 20.065c10.596 10.577 27.767 10.577 38.363 0l87.131-86.976c10.607-10.59 10.607-27.767-.001-38.356z" fill="#e4eff7"/><path d="m147.886 383.517-19.45-19.399c-6.181-6.17-6.181-16.18 0-22.35 6.175-6.164 16.18-6.164 22.355 0l19.45 19.399c6.181 6.17 6.181 16.18 0 22.35-6.174 6.163-16.18 6.163-22.355 0z" fill="#9fb7c7"/></g></g></g><g><path d="m506.414 5.327c-4.148-4.144-9.85-6-15.636-5.09l-25.523 4.008c-8.282 1.301-15.8 5.12-21.738 11.046l-13.756 13.724c-6.865 6.849 3.728 17.468 10.594 10.619l13.755-13.724c3.682-3.673 8.34-6.041 13.471-6.846l25.523-4.008c2.428-.015 3.629 1.197 3.604 3.635l-3.964 25.399c-.811 5.191-3.202 9.895-6.916 13.6l-9.938 9.915-51.278 10.68c-1.426.297-2.733 1.002-3.765 2.03l-79.715 79.441-28.013 6.824 98.205-97.981c6.865-6.849-3.729-17.469-10.594-10.619l-128.522 128.229-11.897-11.875c-20.535-20.499-53.947-20.499-74.48 0l-170.631 170.327c-20.264 20.228-20.269 54.254 0 74.486l77.603 77.465c20.209 20.173 54.267 20.176 74.48 0l8.508-8.493c6.862-6.852-3.734-17.466-10.598-10.616l-8.507 8.493c-14.691 14.665-38.595 14.665-53.287 0l-77.603-77.465c-14.538-14.512-14.538-38.742 0-53.254l170.632-170.327c14.691-14.666 38.595-14.666 53.286 0l77.602 77.463c14.537 14.512 14.539 38.743 0 53.255l-134.033 133.795c-6.863 6.851 3.734 17.466 10.598 10.616l134.034-133.795c20.263-20.228 20.268-54.254 0-74.487l-12.697-12.674 171.205-170.815c5.983-5.971 9.836-13.545 11.142-21.905l3.964-25.4c.906-5.809-.958-11.523-5.115-15.676zm-223.59 191.479 9.823-9.801 54.072-13.171c1.331-.325 2.548-1.007 3.519-1.975l79.618-79.345 26.626-5.546-141.881 141.558z"/><path d="m242.591 236.772c10.558-10.539 10.583-28.439 0-39.002-27.05-24.781-63.545 11.971-39.034 39.002 10.54 10.521 28.47 10.545 39.034 0zm-32.124-19.501c-.168-11.056 13.822-16.699 21.527-8.885 4.856 4.848 4.856 12.921 0 17.769-7.942 7.683-21.543 2.347-21.527-8.884z"/><path d="m145.659 271.944-87.13 86.976c-13.367 13.344-13.367 35.628 0 48.971l45.529 45.448c13.329 13.305 35.631 13.304 48.96 0l87.13-86.976c13.368-13.344 13.368-35.627 0-48.971l-45.528-45.448c-13.499-13.473-35.462-13.474-48.961 0zm-3.238 170.779c-7.695 7.682-20.002 7.136-27.766 0l-45.529-45.448c-7.579-7.565-7.579-20.174 0-27.739l38.252-38.184 11.315 11.295c-4.312 8.732-2.445 19.9 4.447 26.78l19.45 19.399c6.908 6.895 18.031 8.683 26.767 4.395l11.327 11.306zm22.522-64.514c-4.135 4.128-7.767 1.995-11.76-.002l-19.448-19.397c-7.61-7.598 4.169-19.309 11.76-11.732l19.448 19.396c3.246 3.911 3.246 7.823 0 11.735zm70.363-36.332c0 5.24-2.044 10.166-5.754 13.87l-38.252 38.184-11.315-11.295c4.312-8.733 2.445-19.9-4.447-26.78l-19.448-19.397c-7.232-7.218-18.066-8.67-26.77-4.397l-11.326-11.306 38.263-38.195c7.655-7.642 20.111-7.642 27.766 0l45.529 45.448c3.71 3.703 5.754 8.629 5.754 13.868z"/></g></g></svg>