<svg id="Layer_1" enable-background="new 0 0 512 512" height="512" viewBox="0 0 512 512" width="512" xmlns="http://www.w3.org/2000/svg"><g><g><path d="m269.151 504.5h-207.178c-11.046 0-20-8.954-20-20v-457c0-11.046 8.954-20 20-20h207.178c11.046 0 20 8.954 20 20v457c0 11.046-8.955 20-20 20z" fill="#9fb7c7"/><path d="m269.151 7.5h-40c11.046 0 20 8.954 20 20v457c0 11.046-8.954 20-20 20h40c11.046 0 20-8.954 20-20v-457c0-11.046-8.955-20-20-20z" fill="#95afc2"/><path d="m470.027 89.54c0-10.52-8.529-19.049-19.049-19.049h-283.974l-.001.027c-15.021-.382-30.163 5.148-41.627 16.613-22.196 22.196-22.196 58.184 0 80.38 22.196 22.196 58.184 22.196 80.38 0 9.106-9.106 14.473-20.533 16.104-32.375 2.112-15.331 15.588-26.546 31.065-26.546h198.054c10.52-.001 19.048-8.53 19.048-19.05z" fill="#ecf4fa"/><g><circle cx="165.562" cy="369.833" fill="#ecf4fa" r="79.5"/><g><path d="m165.562 371.631c-9.977 0-18.065-8.088-18.065-18.065 0-9.977 8.088-18.065 18.065-18.065 9.977 0 18.065 8.088 18.065 18.065 0 9.977-8.088 18.065-18.065 18.065z" fill="#9fb7c7"/></g></g></g><g><path d="m450.979 62.991h-28.024c-9.968.336-9.865 14.705 0 15h28.024c15.225.547 15.366 22.493 0 23.098h-198.054c-19.353 0-35.901 14.197-38.495 33.023-1.476 10.711-6.309 20.426-13.978 28.095-19.236 19.237-50.536 19.236-69.772 0-19.237-19.237-19.237-50.537 0-69.773 10.486-10.485 22.783-13.253 36.961-14.443h215.352c4.143 0 7.5-3.358 7.5-7.5s-3.357-7.5-7.5-7.5h-86.343v-35.491c0-15.164-12.337-27.5-27.5-27.5h-207.177c-15.163 0-27.5 12.336-27.5 27.5v457c0 15.164 12.337 27.5 27.5 27.5h207.177c15.163 0 27.5-12.336 27.5-27.5v-368.411h154.328c14.639 0 26.549-11.91 26.549-26.549s-11.91-26.549-26.548-26.549zm-169.329 421.509c0 6.893-5.607 12.5-12.5 12.5h-207.177c-6.893 0-12.5-5.607-12.5-12.5v-457c0-6.893 5.607-12.5 12.5-12.5h207.177c6.893 0 12.5 5.607 12.5 12.5v35.491h-114.646c-86.324 2.906-87.504 124.16-1.437 128.637 31.65 0 59.401-24.091 63.722-55.47 1.576-11.441 11.737-20.07 23.636-20.07h28.726v368.412z"/><path d="m146.229 127.321c0-9.697-15-9.697-15 0 0 18.612 15.725 34.337 34.337 34.337 9.697 0 9.697-15 0-15-10.301 0-19.337-9.036-19.337-19.337z"/><path d="m165.562 282.833c-47.972 0-87 39.028-87 87 0 17.871 5.397 35.056 15.607 49.699 5.546 7.955 17.851-.625 12.305-8.58-33.303-46.82 1.597-113.617 59.089-113.119 39.7-.001 71.999 32.299 71.999 71.999s-32.299 72-72 72c-11.591 0-22.68-2.689-32.956-7.992-8.619-4.443-15.497 8.883-6.879 13.33 56.596 30.144 127.635-13.182 126.834-77.339.001-47.97-39.028-86.998-86.999-86.998z"/><path d="m165.562 411.667c4.143 0 7.5-3.358 7.5-7.5v-26.16c27.651-8.995 21.921-49.394-7.5-50.006-29.426.615-35.146 41.017-7.5 50.006v26.16c0 4.142 3.357 7.5 7.5 7.5zm-10.566-58.102c0-5.826 4.739-10.565 10.565-10.565 13.997.531 13.993 20.602 0 21.131-5.826 0-10.565-4.74-10.565-10.566z"/></g></g></svg>