<svg id="Layer_1" enable-background="new 0 0 511.319 511.319" height="512" viewBox="0 0 511.319 511.319" width="512" xmlns="http://www.w3.org/2000/svg"><g><g><path d="m455.189 456.088-86.925-201.872c21.358-19.884 34.715-48.205 34.715-79.641 0-60.165-48.91-108.94-109.243-108.94s-109.242 48.774-109.242 108.94 48.909 108.94 109.242 108.94c2.438 0 4.855-.088 7.253-.245l17.665 41.025c1.103 2.561 3.242 4.539 5.885 5.441l11.411 3.895c5.518 1.883 8.215 8.105 5.804 13.392l-5.046 11.063c-1.148 2.517-1.177 5.403-.081 7.95l6.342 14.728c1.103 2.561 3.242 4.539 5.885 5.441l11.411 3.895c5.518 1.883 8.215 8.105 5.804 13.391l-5.046 11.063c-1.148 2.517-1.177 5.404-.081 7.95l6.342 14.728c1.103 2.561 3.242 4.539 5.885 5.441l11.411 3.895c5.518 1.884 8.215 8.105 5.804 13.392l-5.046 11.063c-1.148 2.517-1.177 5.404-.081 7.95l2.633 6.115c1.17 2.718 3.502 4.769 6.349 5.587l33.265 9.556c4.512 1.296 9.304-.762 11.452-4.918l15.941-30.844c1.348-2.605 1.455-5.68.292-8.381z" fill="#ecf4fa"/><path d="m455.189 456.088-86.925-201.872c21.358-19.884 34.715-48.205 34.715-79.641 0-60.165-48.91-108.939-109.243-108.939-18.304 0-35.552 4.496-50.707 12.431 6.288-1.122 12.762-1.708 19.374-1.708 60.333 0 109.243 48.774 109.243 108.939 0 31.436-13.358 59.757-34.715 79.641l86.925 201.872c1.163 2.701 1.056 5.776-.291 8.382l-10.758 20.817 14.699 4.223c4.512 1.296 9.304-.761 11.452-4.917l15.941-30.844c1.346-2.608 1.453-5.683.29-8.384z" fill="#e4eff7"/><g><path d="m313.683 112.734-109.872-47.734c-20.366-8.848-44.022.394-52.941 20.684l-32.875 74.791c-4.384 9.974-4.502 21.29-.327 31.34l27.122 65.275-18.414 41.89c-1.119 2.546-1.106 5.45.038 7.991l4.952 11.004c2.385 5.3-.315 11.49-5.817 13.341l-11.597 3.9c-2.619.881-4.743 2.822-5.854 5.35l-6.468 14.715c-1.119 2.546-1.106 5.45.038 7.991l4.952 11.004c2.385 5.3-.314 11.491-5.817 13.341l-11.597 3.9c-2.619.881-4.743 2.822-5.855 5.35l-6.468 14.714c-1.119 2.547-1.106 5.45.038 7.991l4.952 11.004c2.385 5.3-.314 11.491-5.817 13.341l-11.597 3.9c-2.618.88-4.743 2.822-5.854 5.35l-2.693 6.127c-1.188 2.702-1.097 5.796.248 8.429l15.699 30.74c2.139 4.188 6.938 6.285 11.458 5.008l33.458-9.457c2.82-.797 5.135-2.811 6.314-5.492l88.896-202.237 66.608-24.554c10.255-3.78 18.528-11.553 22.912-21.528l32.875-74.791c8.888-20.228-.396-43.858-20.697-52.678zm-94.664 66.633c-17.052-7.463-24.852-27.317-17.422-44.345s27.276-24.782 44.328-17.319 24.852 27.317 17.422 44.345-27.276 24.782-44.328 17.319z" fill="#ffeb66"/><g><path d="m313.683 112.734-28.676-12.458c17.962 9.844 25.759 31.954 17.37 51.038l-32.875 74.791c-4.384 9.974-12.657 17.747-22.912 21.528l-66.607 24.554-88.896 202.236c-1.179 2.681-3.494 4.695-6.314 5.492l-19.563 5.53 6.647 13.015c2.139 4.188 6.938 6.285 11.458 5.008l33.458-9.457c2.82-.797 5.135-2.811 6.314-5.492l88.896-202.237 66.607-24.554c10.255-3.78 18.528-11.553 22.912-21.527l32.875-74.791c8.891-20.226-.393-43.856-20.694-52.676z" fill="#ffe017"/></g></g><g><path d="m290.726 19.855c-33.451-14.532-72.585.75-87.231 34.07-7.079 16.104-7.448 33.98-1.04 50.337.851 2.172 1.815 4.279 2.873 6.323 19.858-27.237 52.058-44.949 88.41-44.949 12.645 0 24.785 2.15 36.082 6.091-2.966-22.903-17.678-42.568-39.094-51.872z" fill="none"/></g></g><g><path d="m462.077 453.122s-14.031-32.586-14.031-32.586c-3.835-8.907-17.611-2.974-13.777 5.933l14.031 32.587c.276.64.252 1.359-.064 1.972 0 0-15.939 30.843-15.939 30.843-.506.976-1.649 1.461-2.719 1.153 0 0-33.266-9.556-33.266-9.556-2.074-.596-5.026-7.403-4.148-9.332 0 0 5.047-11.062 5.047-11.062 4.198-9.208-.641-20.336-10.205-23.603 0 0-11.412-3.895-11.412-3.895-2.424-.827-8.802-15.582-7.745-17.909l5.046-11.063c4.202-9.207-.64-20.338-10.204-23.602l-11.411-3.895c-2.422-.825-8.805-15.586-7.745-17.909 0 0 5.045-11.063 5.045-11.063 4.202-9.207-.64-20.338-10.204-23.602 0 0-11.41-3.894-11.41-3.894-.638-.218-1.155-.695-1.42-1.31 0 0-17.665-41.025-17.665-41.025-2.638-6.083-8.95-4.187-14.142-4.288-8.305 0-16.436-.979-24.328-2.911l11.775-4.341c12.1-4.46 22.008-13.771 27.185-25.546l32.875-74.791c10.401-23.662-.974-52.319-24.572-62.572l-59.623-25.903c104.598-38.502 186.567 91.494 106.105 168.777-2.319 2.159-3.03 5.544-1.777 8.455l57.21 132.864c3.75 8.71 17.604 2.958 13.777-5.933 0 0-55.172-128.129-55.172-128.129 56.167-56.023 37.681-153.422-32.496-186.155-11.5-84.615-128.697-95.328-157.375-15.648-18.215.192-35.547 10.808-43.316 28.483l-3.618 8.23c-3.903 8.877 9.83 14.914 13.732 6.036l3.618-8.23c4.786-10.89 14.869-17.873 25.931-19.273-2.855 19.61 2.318 40.888 13.881 57.221-13.317 20.957-4.422 49.8 18.463 59.588 50.9 19.452 82.121-51.4 32.919-75.405-13.247-5.799-29.227-4.023-40.883 4.51-8.27-13.016-11.731-29.269-9.451-44.325.746.262 1.489.542 2.226.862l109.872 47.734c16.18 7.03 23.98 26.486 16.816 42.778l-32.875 74.791c-3.546 8.068-10.341 14.449-18.64 17.509l-66.607 24.554c-1.911.704-3.453 2.155-4.272 4.019l-88.899 202.235c-.278.634-.82 1.105-1.487 1.293l-33.459 9.457c-1.074.306-2.227-.201-2.737-1.202l-15.699-30.74c-.979-1.915 2.012-8.714 4.011-9.386l11.598-3.9c9.573-3.219 14.408-14.32 10.266-23.527l-4.952-11.004c-1.046-2.322 5.425-17.057 7.836-17.869l11.598-3.899c9.573-3.22 14.407-14.321 10.266-23.527l-4.952-11.005c-1.045-2.319 5.428-17.06 7.836-17.868l11.598-3.899c9.573-3.219 14.408-14.321 10.266-23.527l-4.952-11.005c-.271-.602-.275-1.292-.01-1.894l18.413-41.89c.824-1.875.846-4.005.06-5.896l-27.122-65.275c-3.371-8.114-3.274-17.388.267-25.444l13.193-30.014c3.902-8.877-9.829-14.914-13.732-6.036l-13.193 30.015c-5.18 11.787-5.32 25.358-.386 37.235l25.892 62.314-17.122 38.953c-1.972 4.483-1.949 9.619.062 14.088l4.951 11.004c.479 1.459.023 2.51-1.367 3.154l-11.599 3.9c-11.123 3.742-21.568 27.496-16.732 38.242l4.951 11.004c.478 1.459.023 2.51-1.367 3.154l-11.599 3.9c-11.124 3.742-21.568 27.496-16.732 38.242l4.951 11.003c.479 1.459.023 2.511-1.367 3.155l-11.598 3.9c-10.585 3.559-17.61 20.595-12.589 30.426l15.699 30.739c3.718 7.281 12.343 11.03 20.178 8.814l33.458-9.457c4.992-1.412 9.052-4.944 11.14-9.691l87.614-199.32 29.506-10.877c15.371 6.701 32.313 10.022 49.076 9.65l15.619 36.274c1.938 4.499 5.71 7.988 10.35 9.572l11.412 3.895c1.41.652 1.877 1.713 1.402 3.181l-5.047 11.064c-4.874 10.691 5.395 34.522 16.548 38.329l11.412 3.895c1.41.652 1.877 1.713 1.401 3.181l-5.046 11.064c-4.873 10.691 5.394 34.523 16.548 38.329l11.411 3.894c1.41.653 1.878 1.713 1.403 3.182l-5.046 11.062c-4.642 10.172 3.042 26.927 13.653 29.974l33.266 9.556c7.805 2.243 16.438-1.434 20.186-8.683l15.94-30.845c2.384-4.62 2.571-10.011.512-14.792zm-239.217-328.949c16.013-6.415 34.145 4.956 35.638 21.722-15.171-1.167-30.311-8.135-41.023-18.822 1.662-1.153 3.453-2.143 5.385-2.9zm-14.75 14.738c12.645 12.071 30.045 20.078 47.538 21.803-16.384 28.469-58.576 9.195-47.538-21.803zm-1.311-80.79c-1.438-.625-2.891-1.168-4.354-1.641 23.446-58.658 109.474-54.466 125.721 6.827-29.521-9.106-62.347-5.953-89.585 8.622z"/><path d="m98.935 468.108c3.552 1.551 8.308-.289 9.873-3.875l68.127-156.138c3.877-8.888-9.868-14.887-13.748-5.999l-68.127 156.139c-1.656 3.796.078 8.217 3.875 9.873z"/><path d="m353.983 298.222c-3.797 1.656-5.531 6.077-3.875 9.874l68.127 156.138c3.791 8.689 17.618 2.872 13.748-5.999l-68.127-156.138c-1.657-3.797-6.079-5.534-9.873-3.875z"/></g></g></svg>