<svg id="Layer_1" enable-background="new 0 0 512.047 512.047" height="512" viewBox="0 0 512.047 512.047" width="512" xmlns="http://www.w3.org/2000/svg"><g><g><ellipse cx="256.215" cy="256.044" fill="#ffeb66" rx="164.804" ry="248.5"/><path d="m256.215 7.544c-6.771 0-13.443.63-20 1.826 81.585 14.884 144.804 119.641 144.804 246.674s-63.219 231.79-144.804 246.674c6.557 1.196 13.229 1.826 20 1.826 91.019 0 164.804-111.257 164.804-248.5s-73.785-248.5-164.804-248.5z" fill="#ffe017"/><circle cx="256.215" cy="256.044" fill="#ffc103" r="126.896"/><g><circle cx="256.215" cy="222.199" fill="#9fb7c7" r="57.281"/></g></g><g><path d="m378.999 76.183c-49.413-75.795-131.047-100.593-200.357-48.917-3.317 2.48-3.997 7.18-1.518 10.497 2.48 3.318 7.18 3.999 10.498 1.518 119.49-82.07 226.26 57.971 225.897 216.761 0 132.89-70.566 241.002-157.304 241.002-163.812-5.728-204.442-312.993-95.9-431.79 2.67-3.164 2.274-7.896-.889-10.571-3.164-2.674-7.896-2.277-10.57.885-41.273 48.819-64.944 121.889-64.944 200.475-1.587 111.375 56.986 252.579 172.305 256.002 46.616-.002 90.221-27.042 122.783-76.141 65.552-94.653 65.559-265.068-.001-359.721z"/><path d="m336.352 363.94c102.976-77.012 48.719-241.945-80.138-242.29-178.046 6.761-178.004 262.054.003 268.79 14.91 0 29.57-2.432 43.571-7.228 3.918-1.342 6.007-5.607 4.665-9.526-1.342-3.917-5.605-6.006-9.526-4.665-12.433 4.259-25.457 6.418-38.711 6.418-65.835 0-119.396-53.561-119.396-119.396 5.997-158.158 232.803-158.153 238.791.002 0 38.128-17.572 73.067-48.212 95.859-7.776 6.137.823 17.718 8.953 12.036z"/><path d="m256.215 360.44c33.006 0 63.385-15.162 83.349-41.597 2.497-3.306 1.84-8.009-1.465-10.505-3.306-2.496-8.009-1.84-10.505 1.465-17.103 22.648-43.12 35.637-71.379 35.637-9.886.29-9.933 14.692 0 15z"/><path d="m320.997 222.199c0-35.721-29.061-64.781-64.781-64.781-85.823 3.257-85.8 126.318.001 129.562 35.719 0 64.78-29.061 64.78-64.781zm-114.563 0c0-27.45 22.332-49.781 49.781-49.781 65.951 2.502 65.933 97.07-.001 99.562-27.448 0-49.78-22.332-49.78-49.781z"/><path d="m263.715 248.256v-52.114c-.3-9.899-14.692-9.924-15 0v52.114c0 4.142 3.358 7.5 7.5 7.5s7.5-3.358 7.5-7.5z"/></g></g></svg>