<svg id="Layer_1" enable-background="new 0 0 512 512" height="512" viewBox="0 0 512 512" width="512" xmlns="http://www.w3.org/2000/svg"><g><g><g><g fill="#ffc103"><circle cx="26.625" cy="442.065" r="19.125"/><circle cx="26.625" cy="280.061" r="19.125"/></g><circle cx="89.526" cy="361.063" fill="#ffeb66" r="19.125"/></g><path d="m373.044 121.154c-1.53-62.288-52.798-112.771-115.368-113.642-65.429-.911-118.755 51.625-118.755 116.563 0 50.642 32.435 93.734 77.746 109.824l.1 231.512c.009 21.603 17.609 39.106 39.306 39.089 21.686-.017 39.254-17.53 39.244-39.123l-.1-231.438c46.241-16.364 79.103-60.841 77.827-112.785zm-117.044-6.251c-20.128 0-36.446-16.247-36.446-36.288s16.318-36.289 36.446-36.289 36.446 16.247 36.446 36.288-16.317 36.289-36.446 36.289z" fill="#ecf4fa"/><g><path d="m373.044 121.154c-1.53-62.287-52.798-112.771-115.368-113.642-7.419-.104-14.681.487-21.729 1.699 53.991 9.326 95.719 55.843 97.097 111.944 1.218 49.612-28.703 92.412-71.681 110.413-3.72 1.558-6.145 5.19-6.143 9.223l.097 224.587c.006 14.329-7.733 26.855-19.276 33.67 5.868 3.465 12.714 5.458 20.031 5.452 21.686-.017 39.254-17.531 39.244-39.123l-.1-231.438c46.242-16.364 79.104-60.841 77.828-112.785z" fill="#e4eff7"/></g><g><g fill="#ffc103"><circle cx="485.375" cy="280.061" r="19.125"/><circle cx="485.375" cy="442.065" r="19.125"/></g><circle cx="422.474" cy="361.063" fill="#ffeb66" r="19.125"/></g></g><g><path d="m295.317 457.878c-4.143 0-7.502 3.36-7.5 7.503-1.669 41.844-61.531 41.887-63.55.026-.018-40.874-.081-188.055-.1-231.512-.001-3.173-2-6.002-4.99-7.064-67.921-22.652-95.224-110.917-51.347-167.519 5.643-7.967-5.772-16.807-12.044-8.943-48.637 62.739-20.503 160.513 53.384 188.705l.031 72.361h-59.094l-37.303-37.303c-1.406-1.407-3.314-2.197-5.303-2.197h-55.523c-9.643-28.504-51.361-22.328-51.978 8.126.706 31.196 43.829 36.525 52.345 6.875h52.048l37.303 37.303c1.406 1.407 3.314 2.197 5.303 2.197h62.207l.012 27.127h-94.15c-9.09-29.086-51.508-23.322-52.167 7.5.663 30.827 43.083 36.581 52.167 7.5h94.157l.012 27.127h-62.237c-1.989 0-3.897.79-5.303 2.197l-37.303 37.303h-52.049c-8.522-29.655-51.642-24.316-52.345 6.875.619 30.459 42.34 36.625 51.978 8.125h55.522c1.989 0 3.897-.79 5.303-2.197l37.303-37.303h59.137l.024 54.725c.011 25.431 21.465 46.585 46.812 46.585 25.783-.021 46.75-20.937 46.738-46.626-.002-4.141-3.359-7.496-7.5-7.496zm-268.692-166.192c-6.41 0-11.625-5.215-11.625-11.625.584-15.401 22.668-15.397 23.25 0 0 6.41-5.215 11.625-11.625 11.625zm62.901 81.002c-6.41 0-11.625-5.215-11.625-11.625.584-15.401 22.668-15.397 23.25 0 0 6.41-5.215 11.625-11.625 11.625zm-62.901 81.002c-6.41 0-11.625-5.215-11.625-11.625.584-15.401 22.668-15.397 23.25 0 0 6.41-5.215 11.625-11.625 11.625z"/><path d="m256 34.826c-24.232 0-43.946 19.644-43.946 43.789 2.207 58.01 85.693 57.995 87.891-.001 0-24.145-19.713-43.788-43.945-43.788zm0 72.577c-15.961 0-28.946-12.914-28.946-28.788 1.453-38.139 56.444-38.129 57.891 0 0 15.874-12.984 28.788-28.945 28.788z"/><path d="m166.421 124.075c0 37.562 23.891 71.283 59.448 83.91 3.618 1.283 8.279-.903 9.578-4.558 1.386-3.903-.655-8.191-4.558-9.578-29.588-10.506-49.468-38.546-49.468-69.774-.288-9.885-14.694-9.934-15 0z"/><path d="m281.038 193.875c-3.905 1.382-5.95 5.668-4.568 9.573 1.294 3.655 5.955 5.849 9.573 4.568 36.543-12.933 60.458-47.569 59.509-86.187-.565-9.897-14.925-9.557-14.995.368.788 32.112-19.112 60.917-49.519 71.678z"/><path d="m485.375 415.44c-12.304 0-22.681 8.391-25.72 19.75h-52.048l-37.303-37.303c-1.406-1.407-3.314-2.197-5.303-2.197h-62.212l-.012-27.127h94.156c9.09 29.086 51.508 23.322 52.167-7.5-.663-30.827-43.083-36.581-52.167-7.5h-94.163l-.012-27.127h62.242c1.989 0 3.897-.79 5.303-2.197l37.303-37.303h52.048c8.522 29.655 51.642 24.316 52.345-6.875-.619-30.459-42.34-36.625-51.978-8.125h-55.521c-1.989 0-3.897.79-5.303 2.197l-37.303 37.303h-59.142l-.032-72.314c125.2-53.013 90.526-234.674-44.941-239.109-25.66-.36-50.415 7.004-71.58 21.287-3.433 2.317-4.338 6.979-2.021 10.412 2.318 3.434 6.98 4.339 10.412 2.021 18.615-12.562 40.396-19.038 62.98-18.722 56.83-.359 107.708 49.464 107.974 106.328 1.162 47.292-28.106 89.702-72.83 105.53-2.997 1.061-4.999 3.895-4.998 7.074 0 0 .034 77.492.034 77.492h-31.75c-4.142 0-7.5 3.358-7.5 7.5s3.358 7.5 7.5 7.5h31.758l.012 27.127h-31.77c-4.142 0-7.5 3.358-7.5 7.5s3.358 7.5 7.5 7.5h31.776l.012 27.127h-31.788c-4.142 0-7.5 3.358-7.5 7.5s3.358 7.5 7.5 7.5h31.795l.008 18.315c.002 4.142 3.362 7.499 7.503 7.497 4.142-.002 7.499-3.361 7.497-7.503l-.008-18.308h59.099l37.303 37.303c1.406 1.407 3.314 2.197 5.303 2.197h55.522c9.647 28.509 51.361 22.325 51.978-8.125 0-14.681-11.944-26.625-26.625-26.625zm-62.901-66.002c6.41 0 11.625 5.215 11.625 11.625-.584 15.401-22.668 15.397-23.25 0 0-6.41 5.215-11.625 11.625-11.625zm62.901-81.002c6.41 0 11.625 5.215 11.625 11.625-.584 15.401-22.668 15.397-23.25 0 0-6.41 5.215-11.625 11.625-11.625zm0 185.254c-6.41 0-11.625-5.215-11.625-11.625.584-15.401 22.668-15.397 23.25 0 0 6.41-5.215 11.625-11.625 11.625z"/></g></g></svg>