<svg id="Layer_1" enable-background="new 0 0 512 512" height="512" viewBox="0 0 512 512" width="512" xmlns="http://www.w3.org/2000/svg"><g><g><path d="m450.976 239.659h-79.015v-170.93h79.015c5.523 0 10 4.477 10 10v150.931c0 5.522-4.477 9.999-10 9.999z" fill="#ecf4fa"/><g fill="#ecf4fa"><path d="m450.976 347.343h-79.015v-56.815h79.015c5.523 0 10 4.477 10 10v36.815c0 5.523-4.477 10-10 10z"/><path d="m450.976 439.711h-79.015v-56.815h79.015c5.523 0 10 4.477 10 10v36.815c0 5.523-4.477 10-10 10z"/></g><path d="m361.961 504.5h-280.937c-16.569 0-30-13.431-30-30v-437c0-16.569 13.431-30 30-30h280.937c16.569 0 30 13.431 30 30v437c0 16.569-13.432 30-30 30z" fill="#ade888"/><path d="m361.961 7.5h-40c16.568 0 30 13.431 30 30v437c0 16.569-13.432 30-30 30h40c16.568 0 30-13.431 30-30v-437c0-16.569-13.432-30-30-30z" fill="#a3de7e"/><g><g><circle cx="221.492" cy="154.194" fill="#ecf4fa" r="85.678"/><path d="m221.492 68.516c-6.887 0-13.579.839-20 2.381 37.624 9.035 65.678 42.941 65.678 83.297s-28.054 74.262-65.678 83.297c6.421 1.542 13.113 2.381 20 2.381 47.243 0 85.678-38.435 85.678-85.678s-38.434-85.678-85.678-85.678z" fill="#e4eff7"/><circle cx="221.493" cy="154.194" fill="#9fb7c7" r="45.678"/></g><path d="m240.391 146.694h-36.525c-4.142 0-7.5 3.358-7.5 7.5s3.358 7.5 7.5 7.5h36.525c4.143 0 7.5-3.358 7.5-7.5s-3.358-7.5-7.5-7.5z" fill="#728b9b"/></g></g><g><path d="m453.476 98.226c0 4.055 2.835 7.358 6.856 7.496 3.977.269 8.144-3.448 8.144-7.476v-19.517c0-9.649-7.851-17.5-17.5-17.5h-51.515v-23.729c0-20.678-16.822-37.5-37.5-37.5h-280.937c-20.678 0-37.5 16.822-37.5 37.5v437c0 20.678 16.822 37.5 37.5 37.5h28.672c9.987-.334 9.825-14.736 0-15h-28.672c-12.407 0-22.5-10.093-22.5-22.5v-437c0-12.407 10.093-22.5 22.5-22.5h280.937c12.406 0 22.5 10.093 22.5 22.5-.154 84.738.111 226.025 0 309.844.015 21.396-.011 70.556 0 92.367v34.789c0 12.407-10.094 22.5-22.5 22.5h-212.492c-4.142 0-7.5 3.358-7.5 7.5s3.358 7.5 7.5 7.5h212.492c20.678 0 37.5-16.822 37.5-37.5v-27.289h51.515c9.649 0 17.5-7.851 17.5-17.5v-36.815c0-9.649-7.851-17.5-17.5-17.5h-51.515v-20.552h51.515c9.649 0 17.5-7.851 17.5-17.5v-36.815c0-9.649-7.851-17.5-17.5-17.5h-51.515v-35.869h51.515c9.649 0 17.5-7.851 17.5-17.5v-91.443c-.449-4.639-2.984-7.499-7.645-7.499-4.316 0-7.355 2.138-7.355 7.499v91.443c0 1.378-1.121 2.5-2.5 2.5h-51.515v-155.931h51.515c1.379 0 2.5 1.122 2.5 2.5zm-2.5 292.17c1.379 0 2.5 1.122 2.5 2.5v36.815c0 1.378-1.121 2.5-2.5 2.5h-51.515v-41.815zm0-92.368c1.379 0 2.5 1.122 2.5 2.5v36.815c0 1.378-1.121 2.5-2.5 2.5h-51.515v-41.815z"/><path d="m221.492 247.372c51.378 0 93.178-41.799 93.178-93.178-4.685-123.443-181.69-123.409-186.356.001.001 51.377 41.8 93.177 93.178 93.177zm0-171.356c43.107 0 78.178 35.07 78.178 78.178-3.93 103.571-152.441 103.543-156.356-.001.001-43.107 35.071-78.177 78.178-78.177z"/><path d="m221.492 207.372c29.322 0 53.178-23.855 53.178-53.178-2.673-70.451-103.693-70.431-106.356.001.001 29.321 23.856 53.177 53.178 53.177zm0-91.356c21.051 0 38.178 17.126 38.178 38.178-1.92 50.578-74.444 50.565-76.356 0 .001-21.051 17.127-38.178 38.178-38.178z"/><path d="m203.866 161.694h36.525c9.903-.301 9.92-14.693 0-15h-36.525c-4.142 0-7.5 3.358-7.5 7.5s3.358 7.5 7.5 7.5z"/><path d="m314.67 441.209c0-4.142-3.357-7.5-7.5-7.5h-171.355c-4.142 0-7.5 3.358-7.5 7.5s3.358 7.5 7.5 7.5h171.355c4.143 0 7.5-3.357 7.5-7.5z"/></g></g></svg>