<svg id="Layer_1" enable-background="new 0 0 511.983 511.983" height="512" viewBox="0 0 511.983 511.983" width="512" xmlns="http://www.w3.org/2000/svg"><g><g><g><path d="m389.989 226.254c-13.793-15.294-13.793-38.924 0-54.218 16.101-17.853 43.965-17.853 60.065 0 13.793 15.294 13.793 38.924 0 54.218-16.1 17.854-43.964 17.854-60.065 0zm-118.895-118.895c-13.793-15.294-13.793-38.924 0-54.218 16.101-17.853 43.965-17.853 60.065 0 13.793 15.294 13.793 38.924 0 54.218-16.1 17.854-43.964 17.853-60.065 0zm4.456 159.447c32.048-32.109 73.5-31.363 109.105-5.419 27.476 16.49 63.7 12.897 87.351-10.799 31.462-31.522 26.002-85.861-11.128-110.472 31.884-26.54 34.247-76.445 4.915-105.833-29.334-29.389-79.143-27.02-105.633 4.924-24.559-37.191-78.796-42.679-110.265-11.15-23.651 23.696-27.238 59.988-10.779 87.516 26.061 35.562 26.556 77.285-5.409 109.311zm109.988-152.113c-15.786-15.816-15.786-41.458 0-57.274s41.38-15.816 57.166 0 15.786 41.458 0 57.274-41.38 15.816-57.166 0z" fill="#ecf4fa"/><g><path d="m460.877 140.115c31.884-26.541 34.247-76.445 4.915-105.833-12.428-12.452-28.534-19.181-44.982-20.396 5.141 2.978 9.98 6.639 14.356 11.023 17.358 17.39 23.611 41.965 19.221 64.631-.536 6.26-2.525 12.414-5.957 17.925-4.24 8.742-10.306 16.723-18.179 23.277 37.131 24.611 42.591 78.95 11.129 110.472-15.247 15.276-35.719 22.184-55.705 20.756 27.348 15.802 62.97 12.023 86.331-11.382 31.462-31.523 26.002-85.862-11.129-110.473z" fill="#e4eff7"/></g><g><path d="m341.236 20.382c.061-.073.126-.14.187-.213-.222-.152-.438-.313-.662-.463.155.23.322.445.475.676z" fill="#e4eff7"/></g><ellipse cx="318.712" cy="180.975" fill="#fff" rx="32.325" ry="32.386"/></g><path d="m269.218 260.352-30.064-29.787-213.97 215.158c-8.131 8.176-8.082 21.382.11 29.497 8.192 8.115 21.424 8.066 29.555-.11z" fill="#ecf4fa"/><path d="m253.21 287.033-40.535-40.612c-5.502-5.512-5.502-14.445 0-19.958l14.619-14.647c5.508-5.518 14.443-5.518 19.95 0l40.535 40.612c5.502 5.512 5.502 14.445 0 19.958l-14.619 14.647c-5.507 5.518-14.442 5.518-19.95 0z" fill="#cad7e0"/><path d="m287.78 252.428-20.072-19.928c5.502 5.512 5.502 14.445 0 19.958l-14.619 14.647c-5.074 5.084-13.05 5.472-18.582 1.189l18.704 18.739c5.508 5.518 14.443 5.518 19.95 0l14.619-14.647c5.502-5.512 5.502-14.445 0-19.958z" fill="#bdd0de"/><g><path d="m128.772 499.773c6.271-6.283 6.271-16.469 0-22.751l-15.199-15.228 40.594-40.671 15.199 15.228c6.271 6.283 16.438 6.283 22.708 0 6.271-6.283 6.271-16.469 0-22.751l-37.907-37.979-86.011 86.173 37.907 37.979c6.271 6.283 16.438 6.283 22.709 0z" fill="#cad7e0"/></g><g fill="#bdd0de"><path d="m154.167 421.124 15.199 15.228c6.271 6.283 16.438 6.283 22.708 0 6.271-6.282 6.271-16.469 0-22.751l-18.649-18.685c4.982 6.314 4.572 15.502-1.247 21.332-4.527 4.535-12.475 7.175-18.011 4.876z"/><path d="m113.573 461.794s3.205 9.973-4.697 17.875c-6.277 6.277-16.438 6.283-22.708 0l19.896 20.104c6.271 6.282 16.438 6.282 22.708 0 6.271-6.283 6.271-16.469 0-22.751z"/></g></g><g><path d="m301.128 32.251c-41.24-.044-63.051 49.54-35.603 80.131 18.72 20.759 52.477 20.765 71.203 0 27.44-30.524 5.616-80.314-35.6-80.131zm24.462 70.085c-12.942 14.35-35.985 14.35-48.927 0-27.734-33.793 18.174-75.211 48.927-44.171 11.169 12.384 11.169 31.787 0 44.171z"/><path d="m448.012 52.121c-17.84-18.626-49.943-18.628-67.783.001-30.035 29.693-8.363 82.279 33.892 81.934 42.255.337 63.929-52.239 33.891-81.935zm-10.617 57.274c-12.254 12.794-34.295 12.796-46.549 0-20.643-20.404-5.772-56.569 23.276-56.337 29.046-.229 43.917 35.935 23.273 56.337z"/><path d="m384.42 167.014c-16.249 18.018-16.25 46.246 0 64.264 44.773 45.098 111.558-15.073 71.204-64.264-18.72-20.759-52.477-20.765-71.204 0zm11.139 10.045c12.942-14.349 35.985-14.35 48.927 0 27.734 33.793-18.173 75.211-48.927 44.172-11.169-12.384-11.169-31.787 0-44.172z"/><path d="m499.624 191.993c-2.095-20.773-11.848-39.457-27.154-52.516 28.653-30.51 28.295-80.771-1.369-110.494-29.656-29.712-79.856-30.078-110.31-1.389-21.408-25.858-60.819-34.792-91.499-21.446-8.941 3.753-3.134 17.587 5.805 13.831 28.291-11.874 62.168-1.833 78.803 23.36 3.791 4.256 7.802 4.475 12.032.655 23.411-28.232 68.609-30.406 94.552-4.413 25.937 25.987 23.818 71.277-4.404 94.771-3.807 4.224-3.589 8.229.654 12.016 32.805 20.661 37.981 72.134 9.963 98.922-20.72 20.761-52.713 24.781-77.907 9.831-32.2-23.334-67.374-26.763-97.486-9.779l-36.177-36.245c17.833-31.728 12.038-67.945-9.744-97.66-12.298-20.818-11.776-47.318 1.357-67.611 5.268-8.142-7.325-16.29-12.594-8.149-16.273 25.146-16.85 58.019-1.467 83.747 19.828 26.797 23.531 56.372 9.878 81.431-7.018-1.762-15.457.542-20.571 5.666l-14.619 14.647c-8.44 8.451-8.4 22.237.086 30.641l-187.587 188.625c-17.476 17.761-4.767 48.573 20.153 48.325 13.349-.065 19.373-7.468 28.129-16.357l32.607 32.669c23.09 20.94 54.497-10.227 33.325-33.348 0 0-9.911-9.929-9.911-9.929l29.998-30.054s9.891 9.91 9.891 9.91c23.091 20.939 54.497-10.227 33.325-33.349 0 0-32.624-32.685-32.624-32.685l83.138-83.289c8.768 7.892 21.807 8.784 30.572.004l14.619-14.647c5.267-5.278 7.232-12.629 5.899-19.455 24.842-13.766 54.146-10.53 81.249 9.219 53.509 35.464 127.292-11.874 119.388-75.455zm-389.809 217.436c-2.927 2.931-2.923 7.68.009 10.606 3.537 2.926 7.072 2.923 10.606-.01l33.732-33.793 32.604 32.666c3.345 3.351 3.345 8.804 0 12.155-4.03 3.346-8.061 3.346-12.092 0l-15.198-15.228c-3.539-2.936-7.078-2.936-10.617 0l-40.595 40.671c-2.922 2.928-2.922 7.669 0 10.597l15.199 15.228c3.345 3.351 3.345 8.804 0 12.155-4.03 3.347-8.061 3.347-12.091 0l-32.627-32.689 13.434-13.458c2.927-2.932 2.923-7.68-.009-10.606-2.935-2.927-7.683-2.922-10.607.01l-32.031 32.09c-5.208 5.236-13.714 5.268-18.959.07-5.181-5.131-5.212-13.709-.07-18.879l187.547-188.591 19.252 19.288zm172.657-142.341-14.618 14.646c-2.577 2.582-6.757 2.584-9.335 0l-40.535-40.612c-2.576-2.581-2.576-6.78 0-9.361l14.619-14.647c3.111-2.583 6.222-2.583 9.334 0l40.535 40.612c2.576 2.582 2.576 6.781 0 9.362z"/><path d="m290.546 152.776c-15.52 15.549-15.52 40.849 0 56.398 38.942 35.63 92.153-17.467 56.331-56.398-15.351-15.381-40.979-15.381-56.331 0zm45.714 45.801c-9.484 9.504-25.591 9.526-35.097 0-22.325-24.347 10.728-57.295 35.097-35.204 9.688 9.705 9.688 25.498 0 35.204z"/></g></g></svg>