<svg id="Layer_1" enable-background="new 0 0 512 512" height="512" viewBox="0 0 512 512" width="512" xmlns="http://www.w3.org/2000/svg"><g><g><g><g><g><path d="m368.239 504.5h-10c-5.523 0-10-4.477-10-10v-477c0-5.523 4.477-10 10-10h10c5.523 0 10 4.477 10 10v477c0 5.523-4.477 10-10 10z" fill="#ecf4fa"/><path d="m47.239 364.742 51.892 50h249.108v-317.484h-249.108l-51.892 50z" fill="#70e2ed"/><path d="m308.239 97.258h40v317.484h-40z" fill="#65d9e3"/></g><path d="m454.761 364.236h-76.522v-216.472h76.522c5.523 0 10 4.477 10 10v196.473c0 5.522-4.477 9.999-10 9.999z" fill="#cad7e0"/><path d="m454.761 147.764h-40c5.523 0 10 4.477 10 10v196.473c0 5.523-4.477 10-10 10h40c5.523 0 10-4.477 10-10v-196.473c0-5.523-4.477-10-10-10z" fill="#bdd0de"/></g><path d="m240.832 219.962c0-18.277-14.816-33.093-33.093-33.093s-33.093 14.816-33.093 33.093c0 12.505 6.938 23.388 17.174 29.015v60.235c0 8.792 7.127 15.919 15.919 15.919 8.792 0 15.919-7.127 15.919-15.919v-60.235c10.236-5.628 17.174-16.51 17.174-29.015z" fill="#fff"/></g></g><g><path d="m454.761 140.264h-69.021v-122.764c0-9.649-7.851-17.5-17.5-17.5h-10c-9.649 0-17.5 7.851-17.5 17.5v72.258h-166.094c-4.143 0-7.5 3.358-7.5 7.5s3.357 7.5 7.5 7.5h166.093v302.484h-238.583l-47.417-45.688v-211.108l47.417-45.688h34.306c4.143 0 7.5-3.358 7.5-7.5s-3.357-7.5-7.5-7.5h-37.331c-1.94 0-3.807.752-5.204 2.099l-51.892 50c-1.467 1.414-2.296 3.363-2.296 5.401v217.484c0 2.038.829 3.987 2.296 5.401l51.892 50c1.397 1.347 3.264 2.099 5.204 2.099h241.608v72.258c0 9.649 7.851 17.5 17.5 17.5h10c9.649 0 17.5-7.851 17.5-17.5v-54.432c0-4.142-3.357-7.5-7.5-7.5s-7.5 3.358-7.5 7.5v54.432c0 1.378-1.121 2.5-2.5 2.5h-10c-1.379 0-2.5-1.122-2.5-2.5v-477c0-1.378 1.121-2.5 2.5-2.5h10c1.379 0 2.5 1.122 2.5 2.5v382.587c.294 9.893 14.693 9.929 15 0v-28.35h69.021c9.649 0 17.5-7.851 17.5-17.5v-196.473c.001-9.65-7.85-17.5-17.499-17.5zm2.5 213.972c0 1.378-1.121 2.5-2.5 2.5h-69.021v-201.472h69.021c1.379 0 2.5 1.122 2.5 2.5z"/><path d="m207.739 332.631c12.913 0 23.419-10.506 23.419-23.419v-56.094c32.055-22.711 16.003-73.637-23.42-73.749-39.422.113-55.473 51.045-23.419 73.749v56.094c0 12.913 10.506 23.419 23.42 23.419zm-25.593-112.67c0-14.112 11.48-25.593 25.593-25.593 26.358.188 35.31 35.225 12.305 48.037-2.397 1.318-3.886 3.836-3.886 6.572v60.235c0 4.643-3.776 8.419-8.419 8.419s-8.42-3.777-8.42-8.419v-60.235c0-2.735-1.489-5.254-3.887-6.572-8.195-4.506-13.286-13.106-13.286-22.444z"/><path d="m76.5 249.439v90.561c0 4.142 3.357 7.5 7.5 7.5s7.5-3.358 7.5-7.5v-90.561c-.294-9.887-14.689-9.934-15 0z"/></g></g></svg>