<svg id="Layer_1" enable-background="new 0 0 511.532 511.532" height="512" viewBox="0 0 511.532 511.532" width="512" xmlns="http://www.w3.org/2000/svg"><g><g><g><path d="m80.774 420.769s-16.126 54.942 4.679 75.697c20.747 20.697 56.132-3.068 39.171-31.951 28.952 16.92 52.774-18.381 32.028-39.078-20.805-20.756-75.878-4.668-75.878-4.668" fill="#ff7ebc"/></g><path d="m156.651 425.436c-3.758-3.749-8.638-6.291-14.106-7.948 1.558 13.147-7.718 26.204-21.257 28.03-7.302.985-13.265 6.477-14.142 13.792-1.727 14.405-16.231 24.092-30.187 21.238 1.629 6.203 4.315 11.75 8.493 15.918 20.747 20.697 56.132-3.068 39.171-31.951 28.953 16.92 52.775-18.381 32.028-39.079z" fill="#fa71b3"/><g><path d="m295.165 240.176-24.435-24.152-258.274 258.656c-6.609 6.629-6.569 17.337.089 23.917 6.658 6.58 17.412 6.54 24.021-.089z" fill="#ffeb66"/></g><g><path d="m468.673 79.26 6.396-30.507c1.593-7.598-5.154-14.329-12.77-12.74l-30.579 6.381c-3.455.721-6.662-2.008-6.493-5.525l.875-18.28c.471-9.828-11.433-15.083-18.407-8.125l-42.584 42.483 92.984 92.763 42.584-42.483c6.974-6.958 1.707-18.833-8.144-18.363l-18.324.873c-3.526.169-6.261-3.03-5.538-6.477z" fill="#ffeb66"/><g><path d="m492.534 84.864-14.178.676-38.515 38.424-72.958-72.785-1.772 1.768 92.984 92.763 42.584-42.483c6.974-6.957 1.707-18.832-8.145-18.363z" fill="#ffe017"/></g><g><path d="m469.12 119.346c-15.063-15.027-34.688-22.725-54.428-23.1-.376-19.692-8.092-39.271-23.155-54.298-30.897-30.824-80.992-30.824-111.889 0-43.067 42.965-26.666 140.98-17.255 182.402 2.711 11.933 11.927 21.311 23.837 24.233 41.017 10.062 137.683 27.486 182.891-17.614 30.896-30.823 30.896-80.799-.001-111.623zm-118.648 107.582c-22.342-2.077-42.858-6.365-56.5-9.709-3.158-13.91-7.222-34.891-9.149-57.618-3.89-45.869 2.401-79.543 17.713-94.819 19.07-19.024 50.651-18.145 68.564 2.638 7.233 8.392 11.033 19.198 11.244 30.264 1.019 17.366 14.383 30.287 31.731 30.849 12.145.23 23.565 5.077 32.155 13.648 18.227 18.184 18.227 47.771 0 65.955-16.374 16.336-50.382 23.01-95.758 18.792z" fill="#ff7ebc"/></g><g fill="#fa71b3"><path d="m404.879 126.99c-2.392-1.367-4.894-2.518-7.486-3.439 2.306 1.439 4.812 2.602 7.486 3.439z"/><path d="m469.12 119.346c-14.758-14.722-33.895-22.391-53.229-23.049 7.857 3.757 15.223 8.877 21.734 15.373 19.554 19.507 26.716 46.682 21.52 71.822-.338 1.87-.791 3.722-1.358 5.547-3.557 12.543-10.266 24.383-20.162 34.255-37.526 37.436-110.503 31.792-157.682 23.038 1.988.953 4.09 1.714 6.285 2.252 41.017 10.062 137.683 27.487 182.891-17.614 30.898-30.824 30.898-80.8.001-111.624z"/></g></g><path d="m213.84 333.591-36.457-36.37c-6.393-6.378-6.393-16.725 0-23.103 6.385-6.369 16.73-6.369 23.114 0l36.457 36.37c6.393 6.378 6.393 16.725 0 23.103-6.384 6.369-16.729 6.369-23.114 0z" fill="#ff7ebc"/><path d="m190.704 356.672-36.457-36.37c-6.393-6.378-6.393-16.725 0-23.103 6.385-6.369 16.73-6.369 23.114 0l36.457 36.37c6.393 6.378 6.393 16.725 0 23.103-6.384 6.369-16.729 6.369-23.114 0z" fill="#ff7ebc"/><g fill="#fa71b3"><path d="m236.955 310.488-19.552-19.505c5.923 6.407 5.786 16.389-.448 22.608-6.385 6.369-16.73 6.369-23.114 0l20 20c6.385 6.369 16.73 6.369 23.114 0 6.393-6.378 6.393-16.725 0-23.103z"/><path d="m213.819 333.569-19.552-19.505c5.923 6.407 5.786 16.389-.448 22.608-6.385 6.369-16.73 6.369-23.114 0l20 20c6.385 6.369 16.73 6.369 23.114 0 6.393-6.378 6.393-16.725 0-23.103z"/></g></g><g><path d="m509.784 88.246c-3.078-6.968-9.989-11.229-17.606-10.873l-15.602.744 5.833-27.824c2.633-12.554-9.029-24.258-21.643-21.621l-27.918 5.826.744-15.549c.772-16.111-19.638-25.323-31.195-13.793l-19.962 19.914c-33.522-21.515-78.776-17.67-108.084 11.568-40.758 36.785-32.527 134.834-20.169 185.343l-47.57 47.641c-14.282-15.436-41.054-5.962-41.505 15.347-21.35.478-30.903 27.105-15.277 41.518l-87.865 87.975c-6.852 6.86 3.76 17.462 10.613 10.6l87.871-87.98 13.558 13.526-142.752 142.605c-3.69 3.703-9.72 3.725-13.438.05-3.705-4.414-3.722-8.843-.052-13.285l28.772-28.838c6.849-6.864-3.77-17.461-10.618-10.595l-28.774 28.84c-9.337 9.366-9.299 25.229.129 34.546 9.373 9.264 25.264 9.24 34.594-.118l26.697-26.669c7.503 49.868 70.653 41.905 67.752-.849 43.018 2.388 51.174-60.083.9-67.733l47.41-47.361c14.29 15.397 41.024 5.899 41.471-15.381 21.262-.463 30.889-26.976 15.382-41.413l47.5-47.451c51.878 13.498 147.036 21.317 185.438-20.679 28.428-28.358 33.482-74.078 11.628-107.856l19.931-19.884c5.383-5.372 6.878-13.337 3.807-20.291zm-358.43 342.5c15.032 15.723-2.69 39.586-22.946 27.294-6.517-3.81-14.074 3.765-10.252 10.273 16.942 29.517-36.204 47.429-35.822-4.925l41.09-41.048c12.997.218 22.625 3.113 27.93 8.406zm57.168-79.384c-3.706 3.697-8.825 2.684-12.521 0l-36.457-36.37c-3.456-4.161-3.456-8.322 0-12.483 3.469-3.46 9.086-3.434 12.542.022l36.436 36.349c3.456 4.16 3.456 8.321 0 12.482zm23.135-23.081c-3.458 3.452-9.093 3.442-12.54-.02-.001-.001-36.436-36.349-36.437-36.35-3.455-4.161-3.455-8.322 0-12.483 4.173-3.443 8.347-3.443 12.521 0l36.457 36.37c3.456 4.161 3.455 8.322-.001 12.483zm-14.427-48.064 42.511-42.575c3.35 5.623 8.028 10.315 13.654 13.679l-42.537 42.493zm246.593-54.557c-34.907 38.607-130.502 28.094-175.807 15.638-9.167-2.247-16.163-9.339-18.285-18.516-5.052-22.191-10.981-55.431-10.89-89.031.123-40.235 8.905-69.335 26.104-86.493 27.567-27.501 73.709-27.522 101.295 0 13.158 13.127 20.599 30.576 20.954 49.132.077 4.03 3.326 7.279 7.356 7.355 62.327.517 93.34 78.128 49.273 121.915zm31.559-127.742-18.62 18.575c-14.331-15.44-33.998-25.275-54.98-27.339-2.073-20.946-11.941-40.561-27.386-54.829l18.596-18.552c1.861-1.858 5.777-.868 5.618 2.457l-.875 18.279c-.399 8.309 7.382 14.921 15.517 13.226l30.579-6.381c2.697-.113 3.997 1.174 3.898 3.859l-6.396 30.507c-1.708 8.149 4.934 15.892 13.235 15.508l18.324-.873c3.311-.17 4.364 3.694 2.49 5.563z"/><path d="m414.275 121.035c-13.339-.454-23.592-10.388-24.436-23.657-.194-47.745-59.123-71.177-92.601-37.905-17.15 17.109-24.028 51.951-19.889 100.761 1.975 23.284 6.151 44.744 9.308 58.646.629 2.77 2.769 4.947 5.528 5.624 13.606 3.335 34.643 7.76 57.591 9.893 22.891 2.128 46.703 2.3 69.067-3.692 4.001-1.072 6.375-5.185 5.304-9.186-1.072-4.001-5.185-6.373-9.186-5.304-28.012 8.874-85.364 2.516-114.684-5.199-9.647-38.715-16.339-119.593 7.555-140.924 24.367-24.157 67.042-7.067 67.011 27.735 1.081 21.377 17.556 37.519 38.987 38.202 31.128.902 49.803 37.348 30.712 62.638-2.496 3.306-1.839 8.009 1.467 10.504 3.306 2.498 8.01 1.838 10.504-1.467 26.089-34.555 1.113-85.802-42.238-86.669z"/></g></g></svg>