<svg id="Layer_1" enable-background="new 0 0 512.049 512.049" height="512" viewBox="0 0 512.049 512.049" width="512" xmlns="http://www.w3.org/2000/svg"><g><g><g><path d="m104.705 236.377v-25.24h-65.665v162.256c0 18.068 14.232 32.759 31.96 33.229v.022h.872 259.738v-170.267z" fill="#cad7e0"/><path d="m166.614 107.611h69.383v128.766h-69.383z" fill="#9fb7c7"/><path d="m332.482 406.644c-18.133 0-32.832-14.7-32.832-32.832v-162.675h65.665v162.675c-.001 18.133-14.7 32.832-32.833 32.832z" fill="#ecf4fa"/><path d="m325.314 211.137v162.675c0 10.604-5.032 20.027-12.832 26.03 5.539 4.262 12.471 6.802 20 6.802 18.133 0 32.832-14.7 32.832-32.832v-162.675z" fill="#e4eff7"/><path d="m331.61 107.611h-260.609c-35.11 0-63.572 28.825-63.572 64.383s28.462 64.383 63.572 64.383h260.609z" fill="#ecf4fa"/><ellipse cx="331.61" cy="171.994" fill="#cad7e0" rx="63.572" ry="64.383"/><path d="m235.997 236.377c-35.11 0-63.572-28.825-63.572-64.383s28.462-64.383 63.572-64.383h-69.797c-35.11 0-63.572 28.825-63.572 64.383s28.462 64.383 63.572 64.383l32.729 15.481z" fill="#9fb7c7"/><path d="m235.997 236.377c-35.11 0-63.572-28.825-63.572-64.383s28.462-64.383 63.572-64.383h-40c-35.11 0-63.572 28.825-63.572 64.383s28.462 64.383 63.572 64.383z" fill="#95afc2"/><path d="m166.614 236.377h69.383v85.133h-69.383z" fill="#9fb7c7"/><path d="m195.997 236.377h40v85.133h-40z" fill="#95afc2"/></g><path d="m498.955 146.432c-14.641-34.591-54.122-50.645-88.183-35.858-17.797 7.726-30.588 22.345-36.661 39.477l-41.628-.096v45.7l41.506.108c.493 1.414 1.03 2.821 1.621 4.219 14.641 34.591 54.122 50.645 88.183 35.858 34.06-14.789 49.803-54.817 35.162-89.408zm-37.819 44.542c-9.69 0-17.545-7.955-17.545-17.768s7.855-17.768 17.545-17.768 17.544 7.955 17.544 17.768-7.854 17.768-17.544 17.768z" fill="#ffeb66"/><g fill="#ffe017"><path d="m334.11 150.05c.011-.031.024-.061.035-.092l-1.664-.004v.092z"/><path d="m498.955 146.432c-13.739-32.46-49.352-48.594-81.833-38.241 18.115 5.734 33.756 19.159 41.833 38.241 1.263 2.983 2.284 6.009 3.102 9.053 9.259.488 16.624 8.223 16.624 17.721 0 9.477-7.332 17.199-16.562 17.718-5.139 19.444-18.674 36.383-38.326 44.915-2.098.911-4.217 1.702-6.35 2.382 14.723 4.661 31.078 4.248 46.35-2.382 34.06-14.788 49.803-54.816 35.162-89.407z"/></g></g><g><path d="m505.861 143.509c-20.104-49.801-87.596-61.537-123.378-21.687-13.286-13.729-31.698-21.708-50.873-21.71h-260.609c-9.612 0-18.94 1.91-27.724 5.676-8.77 3.762-2.712 17.482 5.912 13.786 6.905-2.961 14.243-4.462 21.812-4.462h51.821c-36.67 27.67-36.655 86.11 0 113.767h-51.821c-42.736.551-70.278-48.628-48.514-85.425 4.821-8.413-8.193-15.87-13.016-7.458-19.113 31.691-8.066 76.501 22.069 95.751v141.647c0 22.036 16.907 39.791 38.613 40.704.749.124 260.894.028 261.749.033 22.435.374 40.933-17.89 40.913-40.318v-35.371c0-4.142-3.358-7.5-7.5-7.5s-7.5 3.358-7.5 7.5v35.371c0 13.968-11.364 25.333-25.333 25.333s-25.333-11.364-25.333-25.333v-129.935h24.46c9.14 0 17.997-1.737 26.205-5.019v60.77c.303 9.906 14.693 9.918 15 0v-69.025c3.037-2.193 5.914-4.641 8.607-7.328 57.795 62.994 156.27-.778 124.44-79.767zm-331.747 100.369h54.383v70.133h-54.383zm61.883-15c-74.294-2.856-74.251-110.933.001-113.767-.001 0 52.235 0 52.235 0-36.671 27.67-36.656 86.11-.001 113.767zm-125.87-56.884c0-31.366 25.154-56.883 56.072-56.883h26.419c-36.67 27.67-36.656 86.11 0 113.767h-26.418c-30.919 0-56.073-25.518-56.073-56.884zm191.002 227.15h-229.545c-13.97-.19-25.055-11.535-25.043-25.751v-133.904c7.63 2.838 15.869 4.388 24.46 4.388h88.113v77.633c0 4.142 3.358 7.5 7.5 7.5h69.383c4.142 0 7.5-3.358 7.5-7.5v-77.633h48.652v129.934c0 9.59 3.37 18.404 8.98 25.333zm30.481-170.266c-30.918 0-56.072-25.518-56.072-56.883-.33-51.523 64.114-76.795 97.852-37.912-1.621 2.717-3.092 5.534-4.37 8.456l-29.91-.069v-3.7c-.298-9.894-14.691-9.928-15 0v66.45c0 4.142 3.358 7.5 7.5 7.5s7.5-3.358 7.5-7.5v-2.049l29.74.077c1.116 2.602 2.376 5.111 3.747 7.538-10.592 11.545-25.26 18.092-40.987 18.092zm129.196.081c-31.697 13.762-68.562-3.633-79.736-35.668-1.048-3.005-3.879-5.021-7.062-5.029l-34.026-.088v-30.702c.002.001 34.123.078 34.128.079 3.175 0 6.007-2 7.069-4.994 10.887-30.708 47.444-47.901 77.82-35.752 49.357 19.277 50.35 91.504 1.807 112.154z"/><path d="m461.136 147.938c-13.81 0-25.044 11.335-25.044 25.268 1.262 33.477 48.832 33.467 50.089 0 0-13.933-11.235-25.268-25.045-25.268zm0 35.536c-5.539 0-10.044-4.606-10.044-10.268.508-13.605 19.583-13.601 20.089 0 0 5.661-4.507 10.268-10.045 10.268z"/></g></g></svg>