<svg id="Layer_1" enable-background="new 0 0 511.22 511.22" height="512" viewBox="0 0 511.22 511.22" width="512" xmlns="http://www.w3.org/2000/svg"><g><g><g><path d="m121.841 413.72v-366.22c0-22.091 17.909-40 40-40h187.538c22.091 0 40 17.909 40 40v366.22z" fill="#70e2ed"/><path d="m389.379 413.72v-366.22c0-22.091-17.909-40-40-40h-40c22.091 0 40 17.909 40 40v366.22z" fill="#65d9e3"/><path d="m279.787 51.014h-48.355c-11.39 0-21.818-6.387-26.993-16.534l-13.759-26.98h129.86l-13.76 26.98c-5.175 10.147-15.603 16.534-26.993 16.534z" fill="#9fb7c7"/></g><g><path d="m230.293 117.196.241 105.931c-18.552 6.661-34.383 20.689-42.75 40.207-16.013 37.355 1.373 80.654 38.832 96.712 37.459 16.057 80.806-1.208 96.819-38.563s-1.372-80.654-38.831-96.712c-1.514-.649-3.038-1.237-4.568-1.778l-.117-29.164c-.003-1.884-.805-3.681-2.205-4.944l-6.048-5.455c-2.925-2.638-2.943-7.219-.039-9.859l6.077-5.526c1.382-1.257 2.169-3.042 2.166-4.915l-.018-10.832c-.003-1.884-.805-3.681-2.205-4.944l-6.048-5.455c-2.925-2.638-2.943-7.219-.039-9.859l6.077-5.526c1.383-1.257 2.169-3.042 2.166-4.915l-.007-4.497c-.003-1.999-.905-3.893-2.455-5.158l-18.11-14.787c-2.456-2.006-5.979-2.003-8.419.005l-18.106 14.908c-1.532 1.259-2.417 3.139-2.413 5.126z" fill="#ffeb66"/></g><g><path d="m121.841 405.61v58.11c0 22.091 17.909 40 40 40h187.538c22.091 0 40-17.909 40-40v-58.11z" fill="#ffeb66"/></g><path d="m349.379 405.61v58.11c0 22.091-17.909 40-40 40h40c22.091 0 40-17.909 40-40v-58.11z" fill="#ffe017"/></g><g><g><path d="m255.865 330.265c9.992 0 10.008-15 0-15-9.992 0-10.008 15 0 15z"/></g><g><path d="m349.379 0h-187.538c-26.191 0-47.5 21.309-47.5 47.5v21.338c0 4.142 3.358 7.5 7.5 7.5s7.5-3.358 7.5-7.5v-21.338c0-17.92 14.58-32.5 32.5-32.5h24.245l11.673 22.888c6.489 12.723 19.392 20.626 33.674 20.626h48.355c14.281 0 27.185-7.904 33.674-20.626l11.672-22.888h24.245c17.921 0 32.5 14.58 32.5 32.5v350.61h-33.725c-4.143 0-7.5 3.358-7.5 7.5s3.357 7.5 7.5 7.5h33.725v50.61c0 17.92-14.579 32.5-32.5 32.5h-187.538c-17.92 0-32.5-14.58-32.5-32.5v-50.61h177.895c4.143 0 7.5-3.358 7.5-7.5s-3.357-7.5-7.5-7.5h-177.895v-289.345c0-4.142-3.358-7.5-7.5-7.5s-7.5 3.358-7.5 7.5v354.955c0 26.191 21.309 47.5 47.5 47.5h187.539c26.191 0 47.5-21.309 47.5-47.5v-416.22c-.001-26.191-21.309-47.5-47.501-47.5zm-49.281 31.072c-3.913 7.674-11.696 12.442-20.311 12.442h-48.355c-8.615 0-16.397-4.768-20.312-12.442l-8.196-16.072h105.372z"/><path d="m180.891 260.378c-8.535 19.912-8.785 41.963-.703 62.092 12.234 30.47 42.681 51.103 75.555 51.103 32.08-.002 61.948-19.655 74.585-49.136 17.417-40.632-2.259-89.198-42.813-106.579l-.097-24.042c-.01-6.494-5.228-11.603-10.044-15.338l5.373-4.885c6.96-6.328 6.9-25.519-.079-31.811l-5.361-4.835 5.374-4.886c6.658-6.054 6.305-20.294-.6-25.929l-18.109-14.787c-5.209-4.252-12.75-4.242-17.929.025l-18.106 14.908c-3.276 2.698-5.151 6.681-5.144 10.929v.004l.229 100.832c-18.827 8.211-34.013 23.398-42.131 42.335zm52.177-30.192c2.985-1.072 4.973-3.905 4.966-7.076l-.24-105.516 17.231-14.188 17.27 14.101.006 3.72c-12.506 9.626-12.297 21.827.052 31.452l.016 10.079c-12.528 9.689-12.324 21.764.052 31.452l.116 28.813c.013 3.167 2.014 5.985 5 7.041 35.531 12.555 53.896 53.729 39.006 88.464-6.953 16.222-19.827 28.757-36.249 35.298-16.429 6.544-34.442 6.304-50.721-.674s-28.874-19.859-35.463-36.27c-6.586-16.404-6.384-34.371.57-50.593 7.29-17.012 20.924-29.833 38.388-36.103z"/><path d="m229.769 298.334c-2.929 2.929-2.929 7.678 0 10.606 2.929 2.929 7.678 2.929 10.606 0 8.4-8.4 22.068-8.4 30.47 0 3.535 2.929 7.071 2.929 10.606 0 2.929-2.929 2.929-7.678-.001-10.606-14.247-14.249-37.433-14.249-51.681 0z"/><path d="m223.374 287.441c8.619-8.619 20.067-13.365 32.236-13.365s23.617 4.747 32.235 13.365c3.536 2.929 7.072 2.929 10.607 0 2.929-2.929 2.929-7.678 0-10.606-11.452-11.452-26.667-17.759-42.843-17.759s-31.391 6.307-42.843 17.759c-2.929 2.929-2.929 7.678 0 10.606 2.93 2.929 7.679 2.929 10.608 0z"/><path d="m313.447 428.685c-3.133.977-5.268 3.878-5.268 7.16v37.712c0 9.697 15 9.697 15 0v-13.653l11.829 17.13c4.627 6.688 14.646 3.076 14.646-4.822v-36.509c-.092-9.421-15.312-9.736-15.217.145v13.962l-12.587-18.226c-1.863-2.702-5.267-3.875-8.403-2.899z"/><path d="m290.458 443.447c9.697 0 9.697-15 0-15h-15.774c-4.143 0-7.5 3.358-7.5 7.5v37.438c0 4.142 3.357 7.5 7.5 7.5h15.774c9.697 0 9.697-15 0-15h-8.274v-3.719h7.111c9.697 0 9.697-15 0-15h-7.111v-3.719z"/><path d="m228.069 428.274c-4.086 0-7.5 3.415-7.5 7.5v37.782c0 9.697 15 9.697 15 0v-8.95c1.176-.005 2.257-.008 3.02-.008 10.13 0 18.371-8.147 18.371-18.162s-8.241-18.162-18.371-18.162zm13.891 18.163c0 1.685-1.575 3.162-3.371 3.162-.756 0-1.82.003-2.983.008-.008-2.111-.013-4.222-.019-6.332h3.001c1.797-.001 3.372 1.477 3.372 3.162z"/><path d="m157.564 454.666c0 14.552 11.839 26.391 26.391 26.391s26.392-11.839 26.392-26.391-11.839-26.391-26.392-26.391-26.391 11.838-26.391 26.391zm37.783 0c0 6.281-5.11 11.391-11.392 11.391s-11.391-5.11-11.391-11.391 5.11-11.391 11.391-11.391 11.392 5.109 11.392 11.391z"/></g></g></g></svg>