<svg id="Layer_1" enable-background="new 0 0 512 512" height="512" viewBox="0 0 512 512" width="512" xmlns="http://www.w3.org/2000/svg"><g><g><path d="m464.5 472.149h-417c-22.091 0-40-17.909-40-40v-307c0-22.091 17.909-40 40-40h417c22.091 0 40 17.909 40 40v307c0 22.091-17.909 40-40 40z" fill="#ffeb66"/><path d="m464.5 85.149h-40c22.091 0 40 17.909 40 40v307c0 22.091-17.909 40-40 40h40c22.091 0 40-17.909 40-40v-307c0-22.092-17.909-40-40-40z" fill="#ffe017"/><path d="m464.5 125.149v307h-417v-307z" fill="#9fb7c7"/><g><g><path d="m395.169 373.958h-56.514c-5.523 0-10-4.477-10-10v-170.619c0-5.523 4.477-10 10-10h56.514c5.523 0 10 4.477 10 10v170.619c0 5.523-4.477 10-10 10z" fill="#ffeb66"/><path d="m395.169 183.339h-38.257c5.523 0 10 4.477 10 10v170.619c0 5.523-4.477 10-10 10h38.257c5.523 0 10-4.477 10-10v-170.619c0-5.522-4.477-10-10-10z" fill="#ffe017"/><path d="m328.655 230.951h76.514v95.395h-76.514z" fill="#ffc103"/><path d="m366.912 230.951h38.257v95.395h-38.257z" fill="#ffb300"/></g><g><path d="m284.257 373.958h-56.514c-5.523 0-10-4.477-10-10v-170.619c0-5.523 4.477-10 10-10h56.514c5.523 0 10 4.477 10 10v170.619c0 5.523-4.477 10-10 10z" fill="#ffeb66"/><path d="m283.519 183.339h-38.257c5.523 0 10 4.477 10 10v170.619c0 5.523-4.477 10-10 10h38.257c5.523 0 10-4.477 10-10v-170.619c0-5.522-4.477-10-10-10z" fill="#ffe017"/><path d="m217.743 230.951h76.514v95.395h-76.514z" fill="#ffc103"/><path d="m255.87 230.951h38.257v95.395h-38.257z" fill="#ffb300"/></g><g><path d="m173.345 373.958h-56.514c-5.523 0-10-4.477-10-10v-170.619c0-5.523 4.477-10 10-10h56.514c5.523 0 10 4.477 10 10v170.619c0 5.523-4.477 10-10 10z" fill="#ffeb66"/><path d="m173.345 183.339h-38.257c5.523 0 10 4.477 10 10v170.619c0 5.523-4.477 10-10 10h38.257c5.523 0 10-4.477 10-10v-170.619c0-5.522-4.477-10-10-10z" fill="#ffe017"/><path d="m106.831 230.951h76.514v95.395h-76.514z" fill="#ffc103"/><path d="m145.547 230.951h38.257v95.395h-38.257z" fill="#ffb300"/></g></g></g><g><path d="m464.5 77.649h-417c-26.191 0-47.5 21.309-47.5 47.5v24.984c0 9.697 15 9.697 15 0v-24.984c0-17.92 14.579-32.5 32.5-32.5h417c17.921 0 32.5 14.58 32.5 32.5v307c0 17.92-14.579 32.5-32.5 32.5h-417c-17.921 0-32.5-14.58-32.5-32.5v-242.077c0-9.697-15-9.697-15 0v242.077c0 26.191 21.309 47.5 47.5 47.5h417c26.191 0 47.5-21.309 47.5-47.5v-307c0-26.192-21.309-47.5-47.5-47.5z"/><path d="m464.5 337.924c4.143 0 7.5-3.358 7.5-7.5v-205.275c0-4.142-3.357-7.5-7.5-7.5h-417c-4.143 0-7.5 3.358-7.5 7.5v307c0 4.142 3.357 7.5 7.5 7.5h417c4.143 0 7.5-3.358 7.5-7.5v-61.727c0-9.697-15-9.697-15 0v54.227h-402v-292h402v197.775c0 4.142 3.357 7.5 7.5 7.5z"/><path d="m338.655 175.84c-9.649 0-17.5 7.851-17.5 17.5v170.618c0 9.649 7.851 17.5 17.5 17.5h56.514c9.649 0 17.5-7.851 17.5-17.5v-170.618c0-9.649-7.851-17.5-17.5-17.5zm59.014 188.118c0 1.378-1.121 2.5-2.5 2.5h-56.514c-1.379 0-2.5-1.122-2.5-2.5v-30.112h61.514zm0-45.112h-61.514v-80.395h61.514zm0-125.506v30.112h-61.514v-30.112c0-1.378 1.121-2.5 2.5-2.5h56.514c1.379 0 2.5 1.121 2.5 2.5z"/><path d="m360.444 265.248h1.435v34.301c0 4.142 3.357 7.5 7.5 7.5s7.5-3.358 7.5-7.5v-41.801c0-4.142-3.357-7.5-7.5-7.5h-8.935c-9.697 0-9.697 15 0 15z"/><path d="m227.743 175.84c-9.649 0-17.5 7.851-17.5 17.5v170.618c0 9.649 7.851 17.5 17.5 17.5h56.514c9.649 0 17.5-7.851 17.5-17.5v-170.618c0-9.649-7.851-17.5-17.5-17.5zm59.014 188.118c0 1.378-1.121 2.5-2.5 2.5h-56.514c-1.379 0-2.5-1.122-2.5-2.5v-30.112h61.514zm0-45.112h-61.514v-80.395h61.514zm0-125.506v30.112h-61.514v-30.112c0-1.378 1.121-2.5 2.5-2.5h56.514c1.379 0 2.5 1.121 2.5 2.5z"/><path d="m244.502 265.248h11.507l-13.752 31.283c-3.8 8.644 9.836 14.899 13.732 6.036l18.375-41.801c1.02-2.319.799-4.996-.586-7.118s-3.747-3.4-6.28-3.4h-22.996c-4.143 0-7.5 3.358-7.5 7.5s3.357 7.5 7.5 7.5z"/><path d="m116.831 175.84c-9.649 0-17.5 7.851-17.5 17.5v170.618c0 9.649 7.851 17.5 17.5 17.5h56.514c9.649 0 17.5-7.851 17.5-17.5v-170.618c0-9.649-7.851-17.5-17.5-17.5zm59.014 188.118c0 1.378-1.121 2.5-2.5 2.5h-56.514c-1.379 0-2.5-1.122-2.5-2.5v-30.112h61.514zm0-45.112h-61.514v-80.395h61.514zm0-125.506v30.112h-61.514v-30.112c0-1.378 1.121-2.5 2.5-2.5h56.514c1.379 0 2.5 1.121 2.5 2.5z"/><path d="m145.088 307.902c10.801 0 19.588-8.787 19.588-19.588v-19.331c0-10.801-8.787-19.588-19.588-19.588s-19.588 8.787-19.588 19.588v19.331c0 10.801 8.787 19.588 19.588 19.588zm-4.588-38.919c0-2.53 2.059-4.588 4.588-4.588s4.588 2.058 4.588 4.588v19.331c0 2.53-2.059 4.588-4.588 4.588s-4.588-2.058-4.588-4.588z"/></g></g></svg>