<svg id="Layer_1" enable-background="new 0 0 511.776 511.776" height="512" viewBox="0 0 511.776 511.776" width="512" xmlns="http://www.w3.org/2000/svg"><g><g><g><g><g><path d="m425.044 211.414-124.459-124.382c-23.319-23.305-61.127-23.305-84.446 0l-50.311 50.28-31.525 98.499-94.309 27.257-15.244 15.235c-23.319 23.305-23.319 61.089 0 84.393l124.459 124.382c23.319 23.305 61.126 23.305 84.445 0l15.244-15.235 48.529-74.499 77.305-51.256 50.311-50.28c23.32-23.305 23.32-61.089.001-84.394zm-146.671-28.055-35.71-35.688c-8.812-8.806-8.812-23.085 0-31.891s23.099-8.807 31.911 0l35.71 35.688c8.812 8.806 8.812 23.085 0 31.891s-23.099 8.806-31.911 0z" fill="#ff7ebc"/><g><path d="m425.044 211.414-22.568-22.432c23.319 23.305 23.319 61.089 0 84.393l-191.389 191.271c-22.564 22.55-58.692 23.278-82.135 2.188l20.257 20.244c23.319 23.305 61.126 23.305 84.446 0l15.244-15.235 48.528-74.499 77.305-51.256 50.311-50.28c23.319-23.305 23.32-61.089.001-84.394z" fill="#fa71b3"/></g><g><g><path d="m170.639 282.936h177.9v147.672h-177.9z" fill="#cad7e0" transform="matrix(.707 -.707 .707 .707 -176.223 287.919)"/><path d="m352.682 324.052-125.826 125.748 22.043 22.044 125.833-125.756z" fill="#bdd0de"/><path d="m66.187 178.548h177.9v147.672h-177.9z" fill="#ecf4fa" transform="matrix(.707 -.707 .707 .707 -133.003 183.531)"/></g><g><path d="m134.303 296.759-23.559-23.545c-3.829-3.826-3.829-10.032 0-13.858l23.559-23.545c3.825-3.823 10.025-3.823 13.85 0l23.559 23.545c3.829 3.826 3.829 10.032 0 13.858l-23.559 23.545c-3.825 3.822-10.025 3.822-13.85 0z" fill="#cad7e0"/></g><g><path d="m238.755 401.146-23.559-23.545c-3.829-3.826-3.829-10.032 0-13.858l23.559-23.545c3.825-3.823 10.025-3.823 13.85 0l23.559 23.545c3.829 3.826 3.829 10.032 0 13.858l-23.559 23.545c-3.825 3.823-10.025 3.823-13.85 0z" fill="#ecf4fa"/></g></g></g></g><path d="m425.044 211.414-28.712-28.695 8.31-8.305c7.925-7.92 20.769-7.92 28.694 0 7.932 7.927 7.932 20.785 0 28.712z" fill="#ffeb66"/></g></g><g><path d="m148.535 227.085c-6.401-2.978-14.258-1.851-19.534 3.42l-23.56 23.545c-6.678 6.673-6.677 17.795 0 24.468l23.56 23.544c6.662 6.659 17.79 6.659 24.453 0l23.56-23.545c4.938-4.934 6.398-13.202 3.439-19.539l12.604-12.595c8.627-8.623 8.648-23.26 0-31.903-8.797-8.792-23.112-8.791-31.909 0zm17.875 40.824-23.56 23.544c-.895.895-2.352.895-3.246 0l-23.56-23.544c-.897-1.083-.897-2.166 0-3.249l23.56-23.545c1.082-.895 2.164-.895 3.246 0l23.56 23.544c.897 1.084.897 2.167 0 3.25zm16.043-42.818c2.953 3.561 2.953 7.122 0 10.683l-11.864 11.856-10.696-10.689 11.858-11.85c2.95-2.949 7.752-2.95 10.702 0z"/><path d="m286.903 350.768c3.535 2.93 7.071 2.931 10.606.003 20.025-22.103-9.784-52.182-31.91-31.902 0 0-12.612 12.604-12.612 12.604-6.402-2.979-14.259-1.851-19.534 3.421l-23.558 23.544c-6.679 6.672-6.68 17.795-.001 24.468l23.559 23.545c6.853 6.142 17.657 6.793 24.454 0l23.558-23.544c6.679-6.672 6.68-17.795.001-24.468l-17.12-17.11 11.857-11.849c2.951-2.949 7.752-2.949 10.703 0 2.952 3.561 2.952 7.122 0 10.683-2.929 2.927-2.93 7.676-.003 10.605zm-16.04 18.281c.897 1.083.897 2.166-.001 3.249l-23.559 23.544c-2.165-1.082-3.247-1.082-3.247 0l-23.56-23.545c-.897-1.083-.897-2.166.001-3.249l23.559-23.544c.895-.894 2.353-.896 3.247 0z"/><path d="m55.578 338.419c-2.929 2.93-2.927 7.679.003 10.607l107.313 107.247c3.536 2.928 7.071 2.926 10.606-.003 2.929-2.93 2.927-7.679-.003-10.607l-107.312-107.247c-2.931-2.928-7.68-2.927-10.607.003z"/><path d="m438.638 208.432c10.632-10.625 10.656-28.673 0-39.322-12.284-12.274-31.512-9.629-42.306 3.006l-68.795-68.752c20.52-45.83-13.505-101.1-63.833-103.174-53.616-3.89-93.998 52.545-73.18 101.838l-171.076 170.97c-25.901 25.886-25.92 69.098 0 95.003l124.459 124.382c25.864 25.847 69.168 25.866 95.05 0l35.15-35.13c6.859-6.854-3.745-17.465-10.604-10.609l-14.605 14.596-93.843-93.785 115.224-115.152 93.842 93.785-72.534 72.488c-6.859 6.856 3.745 17.464 10.604 10.61l128.153-128.074c23.845-23.831 26.116-63.059 5.006-89.396zm-28.695-28.712c4.989-4.984 13.104-4.983 18.091 0 6.445 6.441 3.44 16.023-2.99 21.091l-18.102-18.091zm-171.654 292.124-9.935 9.929c-20.033 20.021-53.804 20.027-73.843 0l-124.459-124.382c-20.056-20.043-20.061-53.735 0-73.783l9.943-9.937c49.425 49.395 148.88 148.79 198.294 198.173zm-93.843-114.992-93.842-93.784 115.223-115.152 93.843 93.784zm275.296-66.349-45.01 44.982c-49.423-49.395-148.882-148.792-198.294-198.173l21.495-21.482c7.998 11.755 19.296 21.144 32.648 26.762 1.491 3.847 3.774 7.379 6.781 10.384l35.71 35.687c11.478 11.472 31.01 11.497 42.515 0 11.51-11.551 11.581-30.925 0-42.501l-35.711-35.688c-16.291-16.726-45.874-8.098-50.601 14.708-8.4-4.962-15.44-11.921-20.499-20.188l12.666-12.658c5.023-5.02 10.881-8.896 17.409-11.52 8.998-3.616 3.403-17.535-5.594-13.918-8.415 3.381-15.958 8.371-22.419 14.828l-8.517 8.512c-11.446-38.056 20.658-78.2 60.494-75.076 37.766 1.739 64.641 40.644 53.052 76.537l-9.98-9.974c-7.857-7.853-17.605-13.678-28.19-16.847-9.288-2.782-13.591 11.589-4.301 14.37 8.213 2.458 15.781 6.983 21.888 13.086l124.459 124.382c20.055 20.047 20.06 53.739-.001 73.787zm-163.954-157.22c-4.213-.251-8.295-.946-12.212-2.024.175-12.993 16.639-19.372 25.695-10.174 0 0 9.17 9.164 9.17 9.164-7.045 2.438-14.823 3.502-22.653 3.034zm34.149 8.454 15.045 15.036c13.456 14.708-6.602 34.831-21.308 21.281 0 0-29.912-29.893-29.912-29.893 12.285.916 24.994-1.185 36.175-6.424z"/><path d="m419.252 125.826c-9.697 0-9.697 15 0 15 26.311 0 47.716 21.39 47.716 47.682 0 9.697 15 9.697 15 0 0-34.563-28.134-62.682-62.716-62.682z"/><path d="m418.826 96.051c-9.697 0-9.697 15 0 15 42.974 0 77.935 34.938 77.935 77.881 0 9.697 15 9.697 15 0 0-51.214-41.691-92.881-92.935-92.881z"/></g></g></svg>