<svg id="Layer_1" enable-background="new 0 0 511.977 511.977" height="512" viewBox="0 0 511.977 511.977" width="512" xmlns="http://www.w3.org/2000/svg"><g><g><g><g><g><g><g><path d="m191.911 228.004.041-123.798c.01-35.024 28.812-63.527 64.204-63.538h.02c17.131 0 33.236 6.6 45.345 18.584 12.115 11.989 18.784 27.933 18.779 44.894v123.058h33.489v-123.048c.009-25.818-10.144-50.088-28.587-68.34-18.436-18.245-42.948-28.291-69.026-28.291-.009 0-.021 0-.031 0-53.846.016-97.667 43.382-97.682 96.668l-.041 123.797z" fill="#ffeb66"/></g></g><g><path d="m325.203 35.817c-18.436-18.245-42.948-28.291-69.026-28.291-.009 0-.021 0-.031 0-6.827.002-13.492.704-19.928 2.032 18.431 3.785 35.366 12.782 48.985 26.259 7.796 7.715 14.104 16.509 18.796 26.038 10.539 11.648 16.306 26.528 16.301 42.291v123.058h33.489v-123.048c.009-25.818-10.143-50.088-28.586-68.339z" fill="#ffe017"/></g><g><g><path d="m333.025 189.08c61.212-.073 110.775 49.383 110.702 110.463-.107 89.369-113.255 167.787-163.913 198.42-14.709 8.895-33.15 8.733-47.673-.392-50.412-31.679-163.885-112.444-163.783-197.582.073-61.08 49.754-110.653 110.966-110.726 29.841-.035 56.911 11.704 76.814 30.819 19.948-19.163 47.046-30.966 76.887-31.002z" fill="#ff7ebc"/></g></g><g><path d="m333.025 189.08c-6.782.008-13.42.63-19.867 1.802 51.586 9.389 90.633 54.443 90.568 108.661-.107 89.369-113.255 167.787-163.912 198.42-1.147.694-2.324 1.313-3.513 1.896 13.773 6.762 30.173 6.17 43.513-1.896 50.657-30.633 163.806-109.051 163.912-198.42.074-61.079-49.489-110.535-110.701-110.463z" fill="#fa71b3"/></g></g></g><path d="m291.065 308.746c0-19.661-16.272-35.53-36.111-34.93-18.082.547-32.967 15.076-33.887 33.104-.702 13.772 6.591 25.908 17.655 32.203.291.166.473.47.473.804v63.069c0 9.285 7.543 16.811 16.847 16.811 9.305 0 16.847-7.527 16.847-16.811v-63.069c0-.334.182-.638.472-.804 10.574-6.015 17.704-17.364 17.704-30.377z" fill="#fff"/></g></g><g><path d="m416.746 216.161c-15.524-15.525-34.624-26.185-55.457-31.235v-80.768c.64-81.978-96.289-132.981-163.599-86.508-8.075 5.367.228 17.858 8.304 12.49 57.63-39.793 140.823 3.741 140.294 74.017.001-.001.001 78.145.001 78.145-6.137-.672-12.322-.877-18.489-.603v-77.552c.012-38.982-32.846-70.98-71.646-70.98-39.526.012-71.691 31.878-71.702 71.035l-.026 77.666c-6.17-.255-12.352-.03-18.489.67l.026-78.341c.005-18.581 5.761-36.401 16.646-51.534 5.663-7.872-6.516-16.632-12.177-8.759-12.73 17.699-19.462 38.546-19.469 60.288l-.027 81.045c-51.596 12.78-90.013 59.394-90.079 114.743-.046 38.936 21.868 80.703 65.135 124.14 34.348 34.483 74.512 62.429 102.158 79.801 16.836 10.58 38.537 10.745 55.544.46 11.038-6.675 22.045-13.799 32.716-21.173 7.978-5.513-.553-17.857-8.528-12.34-10.421 7.203-21.171 14.159-31.95 20.677-12.349 7.467-27.6 7.342-39.802-.325-26.987-16.958-66.158-44.202-99.511-77.686-40.361-40.52-60.804-78.719-60.763-113.537.068-56.856 46.486-103.167 103.475-103.235 26.499 0 52.474 10.35 71.61 28.729 2.903 2.788 7.489 2.788 10.391 0 24.781-23.805 58.024-32.3 91.288-27.088 47.919 9.07 83.663 52.386 83.605 101.132-.07 58.43-52.766 112.762-96.96 148.053-7.577 6.052 1.782 17.773 9.36 11.722 29.214-23.329 52.62-47.071 69.568-70.567 42.05-56.203 46.214-123.869-1.447-172.582zm-160.61-6.195c-16.275-13.893-35.8-22.979-56.71-26.523l.027-79.236c.009-30.891 25.447-56.03 56.724-56.04 30.549 0 56.634 25.22 56.624 55.978v79.18c-20.88 3.605-40.387 12.731-56.665 26.641z"/><path d="m179.36 219.218c-44.591.053-80.913 36.303-80.966 80.807-.011 9.413 14.988 9.905 15 .018.043-36.253 29.644-65.782 65.983-65.825 9.473-.011 9.246-15-.017-15z"/><path d="m256.042 427.307c13.425 0 24.348-10.906 24.348-24.311v-59.452c34.435-24.149 16.094-78.02-25.664-77.224-40.612 1.381-56.368 54.069-23.032 77.23v59.446c.001 13.405 10.923 24.311 24.348 24.311zm-27.485-120.006c.721-14.144 12.416-25.559 26.624-25.989 28.357-.474 39.275 36.946 14.468 51.294-2.626 1.497-4.259 4.302-4.259 7.32v63.069c0 5.134-4.193 9.311-9.348 9.311-5.154 0-9.348-4.177-9.348-9.311v-63.069c0-3.021-1.634-5.827-4.264-7.323-9.089-5.171-14.405-14.866-13.873-25.302z"/></g></g></svg>