<svg id="Layer_1" enable-background="new 0 0 511.315 511.315" height="512" viewBox="0 0 511.315 511.315" width="512" xmlns="http://www.w3.org/2000/svg"><g><g><g><g><path d="m325.954 212.189-27.026-26.762-285.655 286.609c-7.309 7.345-7.265 19.211.098 26.501 7.364 7.291 19.258 7.246 26.568-.099z" fill="#ecf4fa"/></g></g><path d="m449.675 61.233c-56.367-56.471-133.574-70.678-172.447-31.733s-24.693 116.296 31.674 172.766 133.573 70.679 172.447 31.734 24.692-116.296-31.674-172.767zm-119.899 54.167c-11.145 11.166-30.29 5.647-33.68-9.761-.245-1.114-.469-2.225-.672-3.333-2.093-11.418-3.685-32.497 9.177-45.382 12.861-12.885 33.901-11.291 45.298-9.194 1.122.207 2.249.435 3.378.685 15.38 3.405 20.9 22.502 9.772 33.65z" fill="#70e2ed"/><g><path d="m449.675 61.233c-41.193-41.269-93.513-59.96-133.871-51.835 31.518 5.528 65.36 23.271 93.871 51.835 56.366 56.471 70.547 133.821 31.674 172.766-10.465 10.484-23.71 17.11-38.576 20.102 30.792 5.401 59.365-.857 78.576-20.102 38.873-38.945 24.692-116.295-31.674-172.766z" fill="#65d9e3"/></g><path d="m62.732 475.899 19.265 19.301c3.907 3.914 10.248 3.914 14.155 0l9.828-9.847c3.907-3.914 10.248-3.914 14.155 0l12.065 12.087c3.907 3.914 10.248 3.914 14.155 0l10.376-10.395c3.897-3.904 3.897-10.225 0-14.129l-12.117-12.139c-3.897-3.904-3.897-10.225 0-14.129l6.987-7c3.907-3.914 10.248-3.914 14.155 0l1.486 1.489c3.907 3.914 10.248 3.914 14.155 0l9.333-9.35c3.897-3.904 3.897-10.225 0-14.129l-6.231-6.243c-3.897-3.904-3.897-10.225 0-14.129l5.67-5.681c3.897-3.904 3.897-10.225 0-14.129l-14.599-14.626z" fill="#cad7e0"/><path d="m190.731 417.657-6.231-6.243c-3.896-3.904-3.896-10.225 0-14.129l5.67-5.681c3.897-3.904 3.897-10.225 0-14.129l-14.599-14.626-15.195 15.223c-1.974 3.769-1.379 8.532 1.785 11.702l6.231 6.243c3.896 3.904 3.896 10.225 0 14.129l-9.333 9.35c-3.907 3.914-10.248 3.914-14.155 0l-1.486-1.489c-3.907-3.914-10.248-3.914-14.155 0l-6.987 7c-3.897 3.904-3.897 10.225 0 14.129l12.117 12.139c3.897 3.904 3.897 10.225 0 14.129l-10.376 10.396c-3.907 3.914-10.248 3.914-14.155 0l-12.065-12.087c-3.907-3.914-10.248-3.914-14.155 0l-9.828 9.847c-2.949 2.954-7.284 3.675-10.913 2.17l-.169.169 19.265 19.301c3.907 3.914 10.249 3.914 14.155 0l9.828-9.847c3.907-3.914 10.248-3.914 14.155 0l12.065 12.087c3.907 3.914 10.248 3.914 14.155 0l10.376-10.395c3.897-3.904 3.897-10.225 0-14.129l-12.117-12.139c-3.897-3.904-3.897-10.225 0-14.129l6.987-7c3.907-3.914 10.248-3.914 14.155 0l1.486 1.489c3.907 3.914 10.248 3.914 14.155 0l9.333-9.35c3.897-3.905 3.897-10.226.001-14.13z" fill="#bdd0de"/><path d="m35.862 448.98-19.291-19.327c-3.897-3.904-3.897-10.225 0-14.129l9.881-9.899c3.897-3.904 3.897-10.225 0-14.129l-12.117-12.139c-3.897-3.904-3.897-10.225 0-14.129l10.376-10.395c3.907-3.914 10.248-3.914 14.155 0l12.065 12.087c3.907 3.914 10.248 3.914 14.155 0l6.987-7c3.897-3.904 3.897-10.225 0-14.129l-1.539-1.541c-3.897-3.904-3.897-10.225 0-14.129l9.333-9.35c3.907-3.914 10.248-3.914 14.155 0l6.179 6.19c3.907 3.914 10.248 3.914 14.155 0l5.618-5.628c3.907-3.914 10.248-3.914 14.155 0l14.573 14.6z" fill="#cad7e0"/></g><g><path d="m354.898 41.093c-48.538-11.205-77.271 17.649-66.126 66.158 4.59 20.867 31.258 28.529 46.312 13.447 0 0 33.272-33.334 33.272-33.334 15.044-15.07 7.368-41.661-13.458-46.271zm2.842 35.675-33.272 33.334c-6.836 6.848-18.958 3.42-21.047-6.074-2.932-13.33-4.022-31.276 6.488-41.805 10.505-10.525 28.472-9.421 41.747-6.484 9.475 2.096 12.912 14.187 6.084 21.029z"/><path d="m508.604 152.836c-11.512-75.266-98.974-154.671-173.481-152.804-25.564-.002-47.419 8.357-63.203 24.17-42.387 41.909-22.929 118.305 14.131 163.521l-137.241 137.7-9.372-9.389c-6.754-6.767-18.018-6.766-24.772 0l-5.617 5.628c-1.18.978-2.359.979-3.539 0l-6.179-6.191c-6.754-6.765-18.017-6.766-24.771 0l-9.333 9.351c-7.543 7.557-5.854 19.418 1.539 26.267.972.974.972 2.559 0 3.532l-6.987 7c-1.18.979-2.359.979-3.539 0l-12.064-12.087c-6.754-6.767-18.018-6.767-24.771 0l-10.378 10.395c-6.804 6.817-6.804 17.909 0 24.726l12.117 12.14c.972.974.972 2.559 0 3.532l-9.881 9.899c-6.804 6.817-6.804 17.909 0 24.726l14.202 14.228-17.508 17.566c-10.017 10.068-9.977 27.106.138 37.122 10.065 9.965 27.132 9.939 37.15-.127l17.348-17.363 14.095 14.121c6.754 6.767 18.018 6.767 24.771 0l9.829-9.847c1.18-.979 2.359-.979 3.539 0l12.064 12.087c6.754 6.767 18.018 6.767 24.771 0l10.376-10.395c6.804-6.817 6.804-17.909 0-24.726l-12.117-12.14c-.972-.974-.972-2.558 0-3.532l6.987-7c1.179-.978 2.359-.979 3.539-.001 6.578 7.935 18.912 8.92 26.258 1.49 0 0 9.333-9.35 9.333-9.35 6.804-6.817 6.804-17.909 0-24.726l-6.231-6.243c-.972-.974-.972-2.559 0-3.532l5.67-5.681c6.804-6.817 6.804-17.909 0-24.726l-9.385-9.402 137.418-137.531c24.999 19.581 52.928 32.383 80.621 36.686 9.307 1.444 11.691-13.364 2.303-14.822-31.725-4.929-65.339-23.204-92.225-50.139-69.554-68.472-74.39-178.371 20.914-181.94 95.632-2.973 207.731 141.717 140.916 213.674-8.759 8.774-19.861 14.72-32.997 17.671-9.461 2.126-6.175 16.76 3.287 14.636 49.022-11.185 72.134-56.186 62.275-108.174zm-323.742 229.938c.972.974.972 2.559 0 3.532l-5.67 5.681c-6.804 6.817-6.804 17.909 0 24.726l6.231 6.243c.972.974.972 2.559 0 3.532l-9.333 9.351c-1.179.978-2.359.979-3.539 0-6.577-7.935-18.912-8.918-26.258-1.49 0 0-6.987 7-6.987 7-6.805 6.817-6.805 17.909 0 24.726l12.117 12.14c.972.974.972 2.559 0 3.532l-10.376 10.395c-1.18.979-2.359.979-3.539 0l-12.064-12.087c-6.754-6.767-18.018-6.767-24.771 0l-9.829 9.847c-1.18.979-2.359.979-3.539 0l-14.109-14.135 102.296-102.38zm-150.239 110.374c-10.934 10.155-26.075-4.756-16.038-15.818 0 0 35.617-35.736 35.617-35.736 6.846-6.868-3.78-17.459-10.624-10.589l-7.524 7.55-14.174-14.2c-.972-.974-.972-2.559 0-3.533l9.881-9.899c6.804-6.817 6.804-17.909 0-24.726l-12.117-12.14c-.972-.974-.972-2.559 0-3.532l10.376-10.395c1.18-.979 2.359-.979 3.539 0l12.064 12.087c6.754 6.767 18.018 6.767 24.771 0l6.987-7c6.804-6.817 6.804-17.909 0-24.726-1.335-.914-3.18-3.429-1.539-5.074l9.333-9.35c1.179-.978 2.359-.979 3.539 0l6.179 6.191c6.755 6.766 18.017 6.765 24.772 0l5.617-5.628c1.18-.979 2.359-.979 3.539 0l9.4 9.417-66.674 66.897c-6.844 6.866 3.776 17.46 10.624 10.589l213.556-214.269c5.134 5.707 10.566 11.145 16.264 16.289z"/><path d="m459.275 201.268c-2.931-2.926-7.68-2.923-10.606.01-10.437 10.455-28.686 8.946-38.633 7.116-7.276-1.339-14.829-3.687-22.448-6.979-8.903-3.846-14.851 9.923-5.95 13.77 13.122 5.67 27.504 9.494 41.882 9.494 11.906 0 25.692-2.712 35.765-12.804 2.926-2.932 2.922-7.68-.01-10.607z"/></g></g></svg>