<svg id="Layer_1" enable-background="new 0 0 512.101 512.101" height="512" viewBox="0 0 512.101 512.101" width="512" xmlns="http://www.w3.org/2000/svg"><g><g><g><path d="m256.15 504.319c-66.377 0-128.781-25.849-175.716-72.784-46.936-46.936-72.784-109.34-72.784-175.716s25.848-128.781 72.784-175.716c46.935-46.936 109.339-72.784 175.716-72.784s128.781 25.849 175.716 72.784c46.936 46.935 72.784 109.339 72.784 175.716s-25.848 128.781-72.784 175.716-109.339 72.784-175.716 72.784z" fill="#ecf4fa"/><circle cx="256.15" cy="255.819" fill="#95afc2" r="211.105"/></g><path d="m246.13 79.609c4.453-7.713 15.585-7.713 20.038 0l11.437 19.81 21.456 37.164h-42.911-42.913l21.456-37.164z" fill="#ff7ebc"/><g><circle cx="255.709" cy="255.378" fill="#ecf4fa" r="139.915"/><path d="m255.709 115.463c-6.792 0-13.467.494-20 1.429 67.797 9.705 119.915 68.005 119.915 138.486s-52.118 128.781-119.915 138.486c6.533.935 13.208 1.429 20 1.429 77.273 0 139.915-62.642 139.915-139.915s-62.641-139.915-139.915-139.915z" fill="#e4eff7"/></g></g><g><path d="m437.169 74.8c-91.479-95.24-254.194-99.739-351.077-10.323-7.24 6.448 2.738 17.647 9.979 11.197 154.039-137.606 401.714-26.579 401.077 180.147.368 213.471-260.732 321.629-411.412 170.407-86.799-83.634-94.312-231.083-16.298-322.824 6.144-7.501-5.457-17.009-11.604-9.508-136.351 165.172-16.006 418.957 198.318 417.92 226.757.392 341.649-276.958 181.017-437.016z"/><path d="m101.573 410.395c136.688 137.16 373.527 39.056 373.18-154.579 2.423-117.496-101.097-221.036-218.605-218.6-193.638-.335-291.739 236.506-154.575 373.179zm151.053-327.036c1.555-2.694 5.493-2.692 7.048 0l14.899 25.807c-12.196-1.564-24.578-1.597-36.783-.111zm-104.672.06 12.822 22.208c5.158 8.934 17.633.539 12.99-7.5l-12.834-22.228c26.354-14.003 56.127-22.381 87.717-23.531v15.47c-3.727 1.581-6.89 4.342-9.014 8.022l-21.311 36.912c-63.24 16.591-110.03 74.235-110.03 142.607-1.005 120.792 142.029 191.407 237.083 117.004 7.693-5.901-1.443-17.804-9.134-11.897-85.369 66.819-213.873 3.38-212.948-105.109-.001-73.012 59.4-132.413 132.414-132.413 107.255-.904 171.028 125.018 106.748 210.763-5.741 7.812 6.34 16.695 12.088 8.885 62.135-81.975 17.047-204.924-80.406-229.556l-21.475-37.196c-2.125-3.68-5.288-6.442-9.015-8.022v-15.47c31.59 1.15 61.364 9.528 87.717 23.531l-12.834 22.228c-4.642 8.039 7.834 16.435 12.99 7.5l12.822-22.207c25.904 16.315 47.889 38.3 64.204 64.204l-22.208 12.822c-8.624 4.979-.532 17.631 7.5 12.99l22.228-12.834c14.003 26.354 22.381 56.127 23.531 87.717h-25.695c-9.697 0-9.697 15 0 15h25.695c-1.15 31.59-9.528 61.363-23.531 87.717l-22.228-12.834c-3.589-2.073-8.176-.842-10.245 2.745-2.071 3.587-.842 8.174 2.745 10.245l22.208 12.822c-16.315 25.904-38.3 47.889-64.204 64.204l-12.822-22.207c-2.072-3.588-6.66-4.817-10.245-2.745-3.587 2.071-4.816 6.658-2.745 10.245l12.834 22.228c-26.354 14.003-56.127 22.381-87.717 23.532v-25.695c0-4.142-3.357-7.5-7.5-7.5-4.142 0-7.5 3.358-7.5 7.5v25.695c-31.59-1.15-61.363-9.528-87.717-23.531l12.834-22.228c2.071-3.587.842-8.174-2.745-10.245-3.588-2.073-8.174-.843-10.245 2.745l-12.822 22.208c-25.904-16.315-47.889-38.3-64.205-64.205l22.208-12.822c3.587-2.071 4.816-6.658 2.745-10.245-2.072-3.588-6.658-4.817-10.245-2.745l-22.228 12.834c-14.003-26.354-22.381-56.127-23.531-87.717h25.695c4.142 0 7.5-3.358 7.5-7.5s-3.358-7.5-7.5-7.5h-25.695c1.15-31.59 9.528-61.363 23.531-87.717l22.228 12.834c8.033 4.639 16.124-8.011 7.5-12.99l-22.207-12.824c16.315-25.904 38.3-47.889 64.204-64.204z"/><path d="m255.709 147.963c-59.229 0-107.415 48.186-107.415 107.415 0 9.697 15 9.697 15 0 0-50.958 41.457-92.415 92.415-92.415 9.697 0 9.697-15 0-15z"/></g></g></svg>