<svg id="Layer_1" enable-background="new 0 0 511.997 511.997" height="512" viewBox="0 0 511.997 511.997" width="512" xmlns="http://www.w3.org/2000/svg"><g><g><path d="m314.497 185.394h-117.001v70.606c0 5.523 4.477 10 10 10h9.192l.082 201.013c.002 4.834 1.755 9.504 4.934 13.146l15.271 17.49c3.8 4.352 9.297 6.849 15.075 6.846l8.003-.004c5.774-.003 11.265-2.501 15.061-6.851l15.277-17.509c3.18-3.645 4.932-8.319 4.93-13.157l-.081-200.974h9.258c5.523 0 10-4.477 10-10v-70.606z" fill="#ecf4fa"/><path d="m274.497 185.394v70.606c0 5.523-4.477 10-10 10h-4.616l.081 200.975c.002 4.837-1.749 9.512-4.93 13.157l-18.058 17.518c3.8 4.352 9.297 6.849 15.075 6.846l8.003-.004c5.774-.003 11.265-2.501 15.061-6.851l15.277-17.509c3.18-3.645 4.932-8.319 4.93-13.157l-.08-200.975h9.258c5.523 0 10-4.477 10-10v-70.606z" fill="#e4eff7"/><path d="m360.243 7.5h-208.489c-16.569 0-30 13.431-30 30v135.765c0 16.569 13.432 30 30 30h208.488c16.569 0 30-13.431 30-30v-135.765c.001-16.568-13.431-30-29.999-30zm-39.302 63.141c0 13.453-10.906 24.359-24.359 24.359h-81.166c-13.453 0-24.359-10.906-24.359-24.359 0-13.453 10.906-24.359 24.359-24.359h81.166c13.452 0 24.359 10.906 24.359 24.359z" fill="#ade888"/><g><path d="m360.242 7.5h-40c16.569 0 30 13.431 30 30v135.765c0 16.569-13.432 30-30 30h40c16.569 0 30-13.431 30-30v-135.765c.001-16.568-13.431-30-30-30z" fill="#a3de7e"/></g></g><g><g><g><path d="m242.253 304.5c9.992 0 10.008-15 0-15-9.991 0-10.008 15 0 15z"/></g><g><path d="m242.253 335c9.992 0 10.008-15 0-15-9.991 0-10.008 15 0 15z"/></g><g><path d="m242.253 365.5c9.992 0 10.008-15 0-15-9.991 0-10.008 15 0 15z"/></g><g><path d="m242.253 426.5c9.992 0 10.008-15 0-15-9.991 0-10.008 15 0 15z"/></g><g><path d="m242.253 457c9.992 0 10.008-15 0-15-9.991 0-10.008 15 0 15z"/></g></g><g><g><path d="m296.581 102.5c42.186-1.591 42.217-62.116 0-63.718h-81.166c-17.567 0-31.859 14.292-31.859 31.859s14.292 31.859 31.859 31.859zm-98.025-31.859c0-9.296 7.563-16.859 16.859-16.859h81.166c9.296 0 16.859 7.563 16.859 16.859s-7.563 16.859-16.859 16.859h-81.166c-9.296 0-16.859-7.563-16.859-16.859z"/></g><g><path d="m360.242 0h-208.488c-20.678 0-37.5 16.822-37.5 37.5v14.836c0 4.142 3.357 7.5 7.5 7.5s7.5-3.358 7.5-7.5v-14.836c0-12.407 10.094-22.5 22.5-22.5h208.488c12.406 0 22.5 10.093 22.5 22.5v135.766c0 12.407-10.094 22.5-22.5 22.5h-208.488c-12.406 0-22.5-10.093-22.5-22.5v-80.937c-.283-9.897-14.704-9.919-15 0v80.936c0 20.678 16.822 37.5 37.5 37.5h38.242v45.235c0 10.599 9.287 17.593 19.194 17.5 0 0 .079 193.517.079 193.517.003 6.648 2.412 13.068 6.785 18.076l15.271 17.49c5.224 5.983 12.773 9.414 20.717 9.414.01.003 8.003-.006 8.014-.004 7.941-.003 15.49-3.437 20.71-9.421 0 0 15.276-17.508 15.276-17.508 4.374-5.013 6.781-11.438 6.778-18.091 0 0-.02-47.975-.02-47.975-.004-9.413-15.005-9.882-15 .006 0 0 .02 47.975.02 47.975.001 3.024-1.093 5.945-3.081 8.223 0 0-9.624 11.03-9.624 11.03v-220.253c-.026-9.073-14.999-10.194-14.97.042v230.966c.064.015-8.098.004-8.104.009-3.609 0-7.042-1.559-9.416-4.279l-15.271-17.491c-1.987-2.276-3.083-5.194-3.084-8.216l-.082-201.014c-.002-4.141-3.359-7.497-7.5-7.497h-9.191c-1.379 0-2.5-1.122-2.5-2.5v-45.234h102.001v45.235c0 1.378-1.121 2.5-2.5 2.5h-9.258c-4.573.429-7.073 2.93-7.5 7.503l.046 113.665c.004 9.413 15.005 9.882 15-.006l-.044-106.162c9.949.308 19.255-7.037 19.255-17.5v-45.234h38.245c20.678 0 37.5-16.822 37.5-37.5v-135.766c0-20.678-16.822-37.5-37.5-37.5z"/></g><g><path d="m154.997 164c0 4.142 3.357 7.5 7.5 7.5h187.002c4.143 0 7.5-3.358 7.5-7.5s-3.357-7.5-7.5-7.5h-187.002c-4.142 0-7.5 3.358-7.5 7.5z"/></g></g></g></g></svg>