<svg id="Layer_1" enable-background="new 0 0 512 512" height="512" viewBox="0 0 512 512" width="512" xmlns="http://www.w3.org/2000/svg"><g><g><g><path d="m62.356 7.5h207.178c11.046 0 20 8.954 20 20v457c0 11.046-8.954 20-20 20h-207.178c-11.046 0-20-8.954-20-20v-457c0-11.046 8.955-20 20-20z" fill="#ff7ebc"/><path d="m269.534 7.5h-40c11.046 0 20 8.954 20 20v457c0 11.046-8.954 20-20 20h40c11.046 0 20-8.954 20-20v-457c0-11.046-8.954-20-20-20z" fill="#fa71b3"/><g><path d="m469.817 356.891c0-10.52-8.529-19.049-19.049-19.049h-283.974l-.001.027c-15.021-.382-30.163 5.148-41.627 16.613-22.196 22.196-22.196 58.184 0 80.38 22.196 22.196 58.184 22.196 80.38 0 9.106-9.106 14.473-20.533 16.104-32.375 2.112-15.331 15.588-26.546 31.065-26.546h198.054c10.52-.001 19.048-8.53 19.048-19.05z" fill="#ecf4fa"/></g></g><g><path d="m88.453 40.622h154.984c6.51 0 11.787 5.277 11.787 11.787v216.694c0 6.51-5.277 11.787-11.787 11.787h-154.984c-6.51 0-11.787-5.277-11.787-11.787v-216.694c0-6.51 5.278-11.787 11.787-11.787z" fill="#ecf4fa"/><g fill="#cad7e0"><path d="m135.692 160.756h60.507v59.622h-60.507z"/><path d="m196.199 280.891h47.238c6.51 0 11.787-5.277 11.787-11.787v-48.725h-59.025z"/><path d="m76.666 220.378v48.725c0 6.51 5.277 11.787 11.787 11.787h47.238v-60.512z"/><path d="m135.692 40.622h60.507v60.512h-60.507z"/><path d="m76.666 101.134h59.025v59.622h-59.025z"/><path d="m196.199 101.134h59.025v59.622h-59.025z"/></g></g></g><g><path d="m450.769 330.342h-153.735v-302.842c0-15.164-12.337-27.5-27.5-27.5h-207.178c-15.163 0-27.5 12.336-27.5 27.5v24.5c0 4.142 3.357 7.5 7.5 7.5s7.5-3.358 7.5-7.5v-24.5c0-6.893 5.607-12.5 12.5-12.5h207.178c6.893 0 12.5 5.607 12.5 12.5v302.842h-115.24c-57.652-1.028-87.738 68.88-46.931 109.824 12.542 12.542 29.018 18.813 45.492 18.813 31.651 0 59.402-24.091 63.725-55.469 1.576-11.442 11.736-20.07 23.635-20.07h29.319v101.06c0 6.893-5.607 12.5-12.5 12.5h-207.178c-6.893 0-12.5-5.607-12.5-12.5v-391.5c0-4.142-3.357-7.5-7.5-7.5s-7.5 3.358-7.5 7.5v391.5c0 15.164 12.337 27.5 27.5 27.5h207.178c15.163 0 27.5-12.336 27.5-27.5v-101.06h69.04c4.143 0 7.5-3.358 7.5-7.5s-3.357-7.5-7.5-7.5h-113.359c-19.353 0-35.901 14.197-38.494 33.022-3.307 23.994-24.683 42.546-48.865 42.546-66.254-3.337-65.61-96.853 2.07-98.667h283.343c6.368 0 11.549 5.181 11.549 11.549s-5.181 11.549-11.549 11.549h-44.777c-9.901.297-9.922 14.695 0 15h44.777c35.156-1.325 35.176-51.763 0-53.097z"/><path d="m146.019 394.672c-.298-9.903-14.696-9.919-15 0 0 18.612 15.725 34.337 34.337 34.337 9.91-.307 9.916-14.692 0-15-10.301 0-19.337-9.036-19.337-19.337z"/><path d="m243.438 288.391c10.635 0 19.287-8.652 19.287-19.287v-216.695c0-10.635-8.652-19.287-19.287-19.287h-154.985c-10.635 0-19.287 8.652-19.287 19.287v216.694c0 10.635 8.652 19.287 19.287 19.287h154.985zm-39.739-240.269h39.738c2.364 0 4.287 1.923 4.287 4.287v41.225h-44.025zm0 60.512h44.025v44.622h-44.025zm0 59.622h44.025v44.622h-44.025zm0 59.622h44.025v41.225c0 2.364-1.923 4.287-4.287 4.287h-39.738zm-60.508-179.756h45.508v45.512h-45.508zm0 60.512h45.508v44.622h-45.508zm0 59.622h45.508v44.622h-45.508zm0 59.622h45.508v45.512h-45.508zm-59.025-175.469c0-2.364 1.923-4.287 4.287-4.287h39.738v45.512h-44.025zm0 56.225h44.025v44.622h-44.025zm0 59.622h44.025v44.622h-44.025zm0 100.848v-41.225h44.025v45.512h-39.738c-2.364 0-4.287-1.924-4.287-4.287z"/></g></g></svg>