<svg id="Layer_1" enable-background="new 0 0 511.891 511.891" height="512" viewBox="0 0 511.891 511.891" width="512" xmlns="http://www.w3.org/2000/svg"><g><g><g><path d="m377.888 32.222c-33.162-33.119-86.928-33.119-120.091 0-33.162 33.119-33.162 86.816 0 119.936 24.373 24.342 59.869 30.769 90.142 19.33l28.505 28.241c1.871 1.862 4.447 2.848 7.087 2.711l11.403-.587c5.514-.284 10.073 4.232 9.812 9.721l-.547 11.487c-.124 2.613.865 5.158 2.725 7.01l10.755 10.706c1.87 1.862 4.446 2.848 7.087 2.711l11.403-.587c5.514-.284 10.073 4.233 9.812 9.721l-.547 11.486c-.124 2.613.865 5.158 2.724 7.01l4.465 4.445c1.984 1.976 4.756 2.958 7.547 2.677l32.608-3.29c4.423-.446 7.913-3.936 8.34-8.34l3.17-32.682c.268-2.762-.72-5.499-2.692-7.462l-104.482-103.877c11.632-30.307 5.239-65.933-19.226-90.367zm-63.344 56.673c-9.167 9.155-24.03 9.155-33.197 0s-9.167-23.999 0-33.154 24.03-9.155 33.197 0 9.167 23.999 0 33.154z" fill="#70e2ed"/><g><path d="m501.598 226.464-104.484-103.875c11.633-30.308 5.239-65.934-19.226-90.367-21.706-21.678-52.24-29.162-80.045-22.461 14.674 3.536 28.59 11.02 40.045 22.461 24.465 24.433 30.858 60.059 19.226 90.367l104.484 103.875c1.972 1.963 2.959 4.701 2.692 7.462l-3.17 32.682c-.427 4.404-3.917 7.893-8.34 8.34l-.7.071.545.543c1.984 1.976 4.756 2.958 7.547 2.677l32.608-3.29c4.423-.446 7.913-3.936 8.34-8.34l3.17-32.682c.268-2.762-.72-5.499-2.692-7.463z" fill="#65d9e3"/></g><path d="m183.492 168.548c12.668-45.097-13.668-91.911-58.823-104.563-45.155-12.651-92.029 13.651-104.697 58.748-9.311 33.145 2.466 67.199 27.28 87.955l-10.691 38.652c-.709 2.541-.308 5.266 1.105 7.499l6.098 9.641c2.949 4.662 1.239 10.844-3.68 13.305l-10.295 5.151c-2.342 1.172-4.079 3.28-4.784 5.806l-4.078 14.608c-.709 2.541-.308 5.266 1.105 7.499l6.098 9.641c2.949 4.662 1.239 10.844-3.68 13.305l-10.295 5.15c-2.342 1.172-4.079 3.28-4.785 5.806l-1.693 6.065c-.753 2.695-.253 5.59 1.36 7.882l18.844 26.781c2.556 3.633 7.312 4.962 11.365 3.177l30.083-13.248c2.542-1.12 4.448-3.32 5.196-5.999l39.499-141.855c32.155-4.719 60.123-27.736 69.468-61.006zm-80.5-27.394c-12.482-3.497-19.762-16.438-16.261-28.904 3.502-12.466 16.46-19.737 28.942-16.24s19.762 16.438 16.261 28.904c-3.502 12.467-16.459 19.738-28.942 16.24z" fill="#ade888"/><g><path d="m124.669 63.986c-14.545-4.075-29.267-4.103-42.969-.768.99.24 1.98.491 2.969.768 45.155 12.652 71.491 59.466 58.823 104.563-9.346 33.27-37.314 56.286-69.469 61.004l-39.498 141.854c-.748 2.679-2.654 4.879-5.196 5.999l-6.516 2.87 5.068 7.202c2.556 3.633 7.312 4.962 11.365 3.177l30.083-13.248c2.542-1.12 4.448-3.32 5.196-5.999l39.499-141.855c32.155-4.717 60.123-27.734 69.469-61.004 12.667-45.097-13.669-91.911-58.824-104.563z" fill="#a3de7e"/></g><path d="m330.434 357.359c29.493-36.416 23.843-89.816-12.621-119.271s-89.932-23.812-119.426 12.605c-21.677 26.765-24.346 62.695-9.774 91.559l-25.125 31.279c-1.657 2.054-2.368 4.716-1.955 7.324l1.783 11.263c.862 5.447-3.156 10.449-8.649 10.766l-11.495.664c-2.615.151-5.046 1.401-6.693 3.443l-9.53 11.807c-1.658 2.053-2.368 4.715-1.955 7.324l1.783 11.263c.862 5.447-3.156 10.449-8.649 10.767l-11.495.664c-2.615.151-5.046 1.401-6.694 3.443l-3.957 4.902c-1.759 2.178-2.446 5.034-1.872 7.776l6.703 32.04c.909 4.346 4.751 7.445 9.181 7.407l32.877-.286c2.778-.024 5.4-1.293 7.148-3.458l92.453-114.688c31.401 8.366 66.204-1.727 87.962-28.593zm-63.089-56.957c-10.08-8.142-11.642-22.904-3.489-32.97 8.153-10.067 22.933-11.627 33.013-3.484 10.08 8.142 11.642 22.904 3.489 32.97-8.153 10.067-22.933 11.627-33.013 3.484z" fill="#ff7ebc"/><g><path d="m317.814 238.087c-21.363-17.257-48.559-22.449-73.355-16.481 11.842 2.864 23.252 8.32 33.355 16.481 10.975 8.866 19.137 19.909 24.411 31.997 1.458 2.42 2.443 5.063 2.952 7.787 8.529 26.354 3.999 56.347-14.742 79.487-12.202 15.066-28.506 24.855-46.012 29.074 30.884 7.45 64.703-2.762 86.012-29.074 29.493-36.416 23.842-89.815-12.621-119.271z" fill="#fa71b3"/></g></g></g><g><path d="m506.886 221.145s-18.167-18.061-18.167-18.061c-7.289-6.781-17.371 3.457-10.575 10.638 0 0 18.163 18.057 18.163 18.057.38.379.569.898.519 1.423l-3.17 32.683c-.082.841-.767 1.515-1.628 1.602 0 0-32.607 3.29-32.607 3.29-1.76.195-6.574-4.593-6.493-6.312l.547-11.486c.467-9.805-7.907-18.067-17.689-17.568 0 0-11.402.587-11.402.587-2.105.127-12.79-10.485-12.69-12.581l.547-11.487c.467-9.803-7.906-18.07-17.689-17.568 0 0-11.403.587-11.403.587-.522.031-1.04-.168-1.422-.549l-28.505-28.241c-2.086-2.066-5.183-2.727-7.93-1.688-49.273 19.565-105.856-19.185-104.862-72.282-.537-68.142 84.24-103.157 132.162-54.659 21.579 21.55 28.457 53.883 17.523 82.372-1.064 2.773-.392 5.912 1.714 8.006l58.103 57.764c2.937 2.92 7.686 2.907 10.606-.031s2.906-7.686-.031-10.606l-54.74-54.421c10.626-32.835 2.022-69.13-22.576-93.698-57.193-57.873-158.426-16.102-157.762 65.276-.791 61.893 62.265 107.236 120.556 87.915l25.171 24.938c3.366 3.35 8.022 5.126 12.763 4.885l11.403-.587c1.205.06 1.85.685 1.935 1.875l-.547 11.488c-.538 11.348 17.083 28.841 28.444 28.273l11.402-.587c1.205.06 1.85.685 1.935 1.874l-.547 11.488c-.51 10.762 12.258 23.037 22.981 21.949l32.608-3.29c7.952-.802 14.283-7.143 15.052-15.078l3.17-32.684c.486-5.019-1.287-9.94-4.869-13.506z"/><path d="m276.047 50.434c-11.843 11.827-11.87 31.913 0 43.768 11.826 11.81 31.944 11.836 43.796 0 11.861-11.892 11.934-31.849 0-43.768-12.074-12.06-31.722-12.059-43.796 0zm33.197 10.614c6.157 6.149 6.156 16.392 0 22.541-15.583 14.351-36.867-6.95-22.597-22.541 6.158-6.15 16.438-6.15 22.597 0z"/><path d="m100.969 148.376c12.854 3.604 32.8-1.217 38.186-21.433 9.335-40.619-47.569-55.189-59.644-16.721-4.58 16.304 5.278 33.621 21.458 38.154zm-7.017-34.098c2.359-8.399 11.374-13.38 19.698-11.045 20.086 6.608 12.006 35.583-8.634 30.7-8.377-2.348-13.419-11.271-11.064-19.655z"/><path d="m190.713 170.577c22.591-82.319-70.696-149.719-141.289-101.03-8.038 5.878.206 17.724 8.478 12.374 59.097-40.74 137.375 15.56 118.369 84.601-8.243 29.347-33.104 51.176-63.336 55.611-2.936.431-5.341 2.551-6.137 5.409 0 0-39.498 141.85-39.498 141.85-.144.517-.507.937-.995 1.151l-30.081 13.247c-.783.342-1.711.08-2.209-.629 0 0-18.844-26.78-18.844-26.78-1.018-1.448.793-7.956 2.339-8.729 0 0 10.295-5.15 10.295-5.15 8.777-4.391 11.903-15.736 6.663-24.022 0 0-6.098-9.641-6.098-9.641-1.128-1.783 2.892-16.255 4.774-17.196 0 0 10.295-5.15 10.295-5.15 8.777-4.39 11.903-15.737 6.663-24.021l-6.098-9.641c-.278-.439-.358-.976-.214-1.49l10.69-38.653c.784-2.834-.161-5.865-2.417-7.752-28.077-23.057-35.956-64.657-18.3-96.338 1.983-3.637.643-8.192-2.994-10.176-3.638-1.983-8.192-.643-10.176 2.993-20.241 36.319-12.393 83.861 18.181 111.79l-9.437 34.119c-1.277 4.577-.552 9.506 1.99 13.524l6.098 9.641c.532 1.074.3 1.937-.697 2.588l-10.296 5.151c-10.146 5.078-16.823 29.013-10.739 38.629l6.098 9.64c.533 1.074.3 1.937-.697 2.589l-10.295 5.15c-9.678 4.843-14.048 22.03-7.896 30.776l18.844 26.78c4.367 6.206 13.592 8.777 20.522 5.725l30.083-13.248c4.615-2.033 8.041-5.986 9.398-10.851l38.229-137.292c33.864-6.829 61.337-32.098 70.734-65.549z"/><path d="m322.526 232.253c-75.475-59.995-180.834 20.637-142.695 108.955l-22.18 27.611c-2.984 3.698-4.27 8.512-3.526 13.207l1.783 11.264c.062 1.2-.496 1.902-1.674 2.106l-11.496.665c-11.324.655-26.933 19.993-25.153 31.233l1.783 11.264c.062 1.2-.496 1.902-1.673 2.106l-11.496.664c-10.8.625-21.619 14.678-19.43 25.144l6.703 32.04c1.625 7.77 8.526 13.372 16.441 13.372.094.072 32.907-.338 33.024-.286 5.04-.044 9.749-2.321 12.92-6.251 0 0 89.483-111.004 89.483-111.004 95.017 18.692 151.873-100.178 77.186-162.09zm2.08 120.386c-19.195 23.702-50.678 33.932-80.203 26.065-2.865-.764-5.91.232-7.77 2.54 0 0-92.45 114.684-92.45 114.684-.339.421-.841.665-1.376.669 0 0-32.877.286-32.877.286-.85.007-1.598-.599-1.774-1.443 0 0-6.703-32.04-6.703-32.04-.364-1.735 3.885-6.997 5.614-7.098 0 0 11.495-.664 11.495-.664 9.794-.566 17.156-9.745 15.624-19.426 0 0-1.783-11.264-1.783-11.264-.33-2.09 9.096-13.79 11.204-13.913 0 0 11.495-.664 11.495-.664 9.794-.566 17.157-9.745 15.625-19.427l-1.783-11.264c-.081-.512.059-1.038.395-1.454l25.125-31.279c1.842-2.293 2.173-5.451.848-8.077-13.689-27.115-10.193-59.875 8.907-83.458 26.969-33.296 75.91-38.181 108.884-11.49 32.877 25.465 38.345 76.94 11.503 108.717z"/><path d="m301.583 258.113c-13.277-10.724-32.815-8.662-43.554 4.599-10.535 13.007-8.446 32.984 4.604 43.524 13.09 10.575 32.964 8.478 43.554-4.598 10.535-13.007 8.444-32.983-4.604-43.525zm-7.053 34.085c-5.541 6.84-15.621 7.903-22.472 2.37-15.49-14.518 2.918-37.145 20.099-24.787 6.768 5.469 7.851 15.653 2.373 22.417z"/><path d="m220.761 366.112c-3.224-2.599-7.946-2.092-10.546 1.132 0 0-85.979 106.658-85.979 106.658-2.6 3.225-2.093 7.946 1.132 10.546 3.202 2.589 7.935 2.107 10.546-1.132 0 0 85.979-106.658 85.979-106.658 2.599-3.225 2.092-7.947-1.132-10.546z"/><path d="m376.685 142.42c-2.92 2.938-2.906 7.686.031 10.606l94.276 93.726c3.54 2.919 7.075 2.908 10.606-.031 2.92-2.938 2.906-7.686-.031-10.606l-94.276-93.726c-2.936-2.92-7.685-2.907-10.606.031z"/><path d="m75.628 232.209-33.515 120.366c-1.111 3.99 1.223 8.126 5.213 9.237 3.883 1.112 8.139-1.188 9.237-5.213 0 0 33.515-120.365 33.515-120.365 2.371-9.585-11.476-13.526-14.45-4.025z"/></g></g></svg>