<svg id="Layer_1" enable-background="new 0 0 511.907 511.907" height="512" viewBox="0 0 511.907 511.907" width="512" xmlns="http://www.w3.org/2000/svg"><g><g><g><g><g><path d="m184.642 286.087.046-171.095c.011-38.975 32.057-70.693 71.434-70.705h.022c19.061 0 36.979 7.344 50.451 20.68 13.479 13.341 20.899 31.084 20.893 49.958v170.271h37.26v-170.259c.01-28.731-11.286-55.738-31.806-76.048-20.512-20.302-47.784-31.481-76.798-31.481-.01 0-.023 0-.034 0-59.91.018-108.665 48.275-108.682 107.572l-.046 171.094z" fill="#ecf4fa"/><path d="m257.656 504.407-3.228.001c-86.47.026-156.573-70.078-156.546-156.547.027-86.394 70.057-156.423 156.451-156.45l3.228-.001c86.47-.026 156.573 70.078 156.547 156.547-.028 86.394-70.058 156.423-156.452 156.45z" fill="#9fb7c7"/><path d="m257.56 191.409-3.228.001c-6.203.002-12.318.376-18.332 1.08 77.779 9.107 138.132 75.237 138.107 155.466-.025 80.191-60.365 146.271-138.118 155.37 6.049.708 12.2 1.083 18.44 1.081l3.228-.001c86.394-.026 156.424-70.056 156.451-156.45.026-86.469-70.078-156.573-156.548-156.547z" fill="#95afc2"/></g></g></g><g fill="#ade888"><ellipse cx="256.065" cy="421.401" rx="15.052" ry="15.109"/><g><path d="m305.253 392.146c-4.009 0-8.016-1.526-11.074-4.578-10.191-10.171-23.727-15.772-38.114-15.772s-27.923 5.601-38.114 15.772c-6.116 6.104-16.032 6.104-22.148 0s-6.116-16 0-22.104c16.107-16.076 37.509-24.928 60.262-24.928s44.155 8.853 60.262 24.928c6.116 6.104 6.116 16-.001 22.104-3.057 3.052-7.066 4.578-11.073 4.578z"/><path d="m345.971 340.758c-4.009 0-8.016-1.526-11.074-4.578-21.076-21.034-49.073-32.618-78.832-32.618s-57.755 11.584-78.832 32.618c-6.116 6.104-16.032 6.104-22.148 0s-6.116-16 0-22.104c26.992-26.939 62.854-41.774 100.98-41.774s73.988 14.836 100.98 41.774c6.116 6.104 6.116 16 0 22.104-3.058 3.051-7.067 4.578-11.074 4.578z"/></g></g></g><g><path d="m373.573 231.944c-.437-.437-.884-.862-1.325-1.293v-115.711c.01-30.749-12.075-59.65-34.03-81.381-36.158-36.906-97.085-44.298-141.287-17.558-3.569 2.101-4.759 6.699-2.657 10.268 2.103 3.569 6.7 4.758 10.269 2.657 64.947-39.741 153.295 9.592 152.704 86.013.001-.001.001 102.689.001 102.689-7.062-5.424-14.501-10.239-22.26-14.402v-88.298c.013-42.924-36.172-78.141-78.869-78.141-43.511.014-78.92 35.095-78.932 78.203l-.024 88.28c-7.821 4.193-15.262 9.003-22.264 14.363l.028-102.651c.006-22.615 7.489-43.969 21.641-61.754 2.579-3.242 2.042-7.96-1.199-10.539-3.242-2.58-7.96-2.042-10.539 1.199-16.285 20.467-24.896 45.049-24.903 71.09l-.031 115.64c-104.349 101.747-32.787 280.97 114.484 281.289 41.878.001 82.287-14.255 113.465-42.576 3.066-2.785 3.293-7.528.508-10.594s-7.529-3.293-10.594-.508c-57.316 52.929-154.33 51.456-208.737-4.963-59.074-56.139-56.823-159.496 1.78-212.343 57.264-55.6 156.222-56.218 212.164 1.629 49.58 47.986 57.847 129.942 19.278 187.015-5.204 8.422 6.859 16.362 12.54 8.232 42.454-62.829 33.371-153.028-21.211-205.855zm-116.015-48.035c-22.393-.179-44.651 3.737-65.392 12.276l.022-81.191c.01-34.841 28.691-63.196 63.956-63.207 34.454 0 63.856 28.456 63.845 63.138v81.219c-19.764-8.122-41.072-12.235-62.431-12.235z"/><path d="m233.513 421.402c0 12.467 10.117 22.609 22.552 22.609 29.877-1.135 29.869-44.087 0-45.218-12.435 0-22.552 10.142-22.552 22.609zm30.104 0c-.318 10.056-14.787 10.054-15.104 0 .318-10.057 14.787-10.054 15.104 0z"/><path d="m305.253 399.646c20.044 0 30.59-25.3 16.373-39.49-34.54-35.918-96.582-35.92-131.12.001-20.9 20.855 11.416 54.01 32.743 32.72 17.299-17.989 48.334-17.987 65.633.001 4.374 4.364 10.188 6.768 16.371 6.768zm-92.601-17.386c-7.436 7.425-19.02-4.033-11.551-11.487 14.691-14.662 34.211-22.737 54.964-22.737 20.752 0 40.273 8.075 54.964 22.737 7.47 7.454-4.113 18.912-11.552 11.487-11.606-11.584-27.024-17.964-43.412-17.964s-31.806 6.38-43.413 17.964z"/><path d="m345.97 348.257c20.043 0 30.59-25.301 16.372-39.49-55.995-58.231-156.562-58.232-212.555.002-20.899 20.855 11.417 54.01 32.743 32.719 19.661-19.621 45.776-30.427 73.534-30.427 27.759 0 53.874 10.806 73.534 30.427 4.375 4.365 10.189 6.769 16.372 6.769zm-174.036-17.386c-7.436 7.426-19.019-4.033-11.551-11.487 50.414-52.428 140.951-52.427 191.364.001 7.469 7.453-4.111 18.909-11.552 11.485-44.338-46.105-123.924-46.103-168.261.001z"/></g></g></svg>