<svg id="Layer_1" enable-background="new 0 0 512 512" height="512" viewBox="0 0 512 512" width="512" xmlns="http://www.w3.org/2000/svg"><g><g><g><g><path d="m494.5 105.662h-477c-5.523 0-10-4.477-10-10v-78.162c0-5.523 4.477-10 10-10h477c5.523 0 10 4.477 10 10v78.162c0 5.523-4.477 10-10 10z" fill="#ff7ebc"/></g><path d="m494.5 7.5h-40c5.523 0 10 4.477 10 10v78.162c0 5.523-4.477 10-10 10h40c5.523 0 10-4.477 10-10v-78.162c0-5.523-4.477-10-10-10z" fill="#fa71b3"/><g><g><path d="m121.693 210.529-77.779.339c-14.417.063-26.063 11.741-26.062 26.135l.004 53.057c.001 7.076 2.888 13.834 7.996 18.717l33.178 31.718.002 29.717c0 1.806.767 3.529 2.11 4.741l5.819 5.248c2.802 2.527 2.816 6.913.029 9.452l-5.874 5.35c-1.326 1.208-2.082 2.918-2.082 4.711l.001 10.439c0 1.806.767 3.529 2.111 4.741l5.819 5.248c2.802 2.527 2.816 6.914.029 9.452l-5.874 5.35c-1.326 1.208-2.082 2.918-2.082 4.711l.001 10.439c0 1.807.767 3.529 2.11 4.741l5.819 5.248c2.803 2.528 2.816 6.914.029 9.452l-5.874 5.35c-1.326 1.208-2.082 2.918-2.082 4.711v4.347c0 1.917.863 3.733 2.35 4.946l17.364 14.172c2.365 1.931 5.766 1.923 8.119-.018l17.416-14.367c1.468-1.211 2.318-3.013 2.318-4.915l-.01-143.469 33.174-32.008c5.107-4.928 7.993-11.711 7.993-18.787l-.004-53.057c-.003-14.352-11.696-25.974-26.068-25.911zm-38.853 77.042c-12.085.02-21.91-9.745-21.943-21.81-.034-12.065 9.736-21.863 21.822-21.883s21.91 9.745 21.944 21.81c.032 12.066-9.738 21.863-21.823 21.883z" fill="#ecf4fa"/><g><path d="m147.763 289.493-.004-53.057c-.001-14.348-11.694-25.97-26.066-25.907l-44.879.196c12.841 1.548 22.812 12.464 22.812 25.711l.001 15.367c3.131 3.771 5.019 8.608 5.034 13.886.015 5.319-1.878 10.196-5.032 13.99l.001 9.814c.001 7.076-2.885 13.859-7.993 18.787l-33 31.84.393.375.002 29.717c0 1.806.767 3.529 2.11 4.741l5.819 5.248c2.802 2.527 2.816 6.914.029 9.452l-5.874 5.35c-1.326 1.208-2.082 2.918-2.082 4.711l.001 10.439c0 1.806.767 3.529 2.111 4.741l5.819 5.248c2.802 2.527 2.816 6.913.029 9.452l-5.874 5.35c-1.326 1.208-2.082 2.918-2.082 4.711l.001 10.438c0 1.807.767 3.529 2.11 4.741l5.819 5.248c2.803 2.528 2.816 6.914.029 9.452l-5.874 5.35c-1.326 1.208-2.082 2.918-2.082 4.711v4.347c0 1.917.863 3.733 2.35 4.946l17.364 14.172c2.365 1.931 5.766 1.923 8.119-.018l17.416-14.367c1.468-1.211 2.318-3.013 2.318-4.915l-.01-143.469 33.174-32.008c5.105-4.931 7.991-11.714 7.991-18.79z" fill="#e4eff7"/></g></g><path d="m82.779 180.534c-8.202 0-14.851-6.649-14.851-14.851v-102.178c0-8.202 6.649-14.851 14.851-14.851 8.202 0 14.851 6.649 14.851 14.851v102.178c0 8.202-6.649 14.851-14.851 14.851z" fill="#ecf4fa"/></g><g><g><path d="m243.219 314.33c-.069.024-.139.044-.208.068.064.158.133.172.208-.068z" fill="none"/><ellipse cx="257.765" cy="266.638" fill="none" rx="21.843" ry="21.887" transform="matrix(.293 -.956 .956 .293 -72.744 434.869)"/><path d="m273.009 314.581c36.871 12.253 67.685-24.553 61.878-59.479-4.429-26.638-27.355-45.453-52.256-42.878-9.438.976-17.924 4.791-24.872 10.547-10.543-8.715-24.359-12.777-38.584-9.835-24.524 5.073-41.642 30.017-39.053 56.887 2.909 30.189 31.898 54.874 62.403 44.731m.001.001v174.7c0 8.42 6.824 15.245 15.242 15.245s15.241-6.826 15.241-15.245v-16.491h19.304c5.612 0 10.161-4.55 10.161-10.163v-48.107c0-5.613-4.549-10.163-10.161-10.163h-19.304v-89.749m-15.183-26.098c-12.085.02-21.91-9.745-21.944-21.81s9.736-21.863 21.822-21.883 21.91 9.745 21.944 21.81c.033 12.066-9.737 21.863-21.822 21.883z" fill="#ffeb66"/></g><g><g><path d="m334.887 255.102c-4.429-26.638-27.356-45.453-52.256-42.878-3.717.384-7.284 1.215-10.67 2.426 16.4 5.897 29.376 21.107 32.593 40.452 4.204 25.285-10.788 51.55-33.375 59.477l1.83.002c36.871 12.253 67.685-24.553 61.878-59.479z" fill="#ffe017"/></g></g></g><g><g><path d="m498.45 276.299c0-36.324-29.44-65.77-65.755-65.77-36.316 0-65.755 29.446-65.755 65.77 0 27.63 17.042 51.265 41.178 61.003l.002 32.911c0 1.806.767 3.529 2.11 4.741l5.819 5.248c2.802 2.527 2.816 6.914.029 9.452l-5.874 5.35c-1.326 1.208-2.082 2.918-2.082 4.711l.001 10.439c0 1.806.767 3.529 2.111 4.741l5.819 5.248c2.802 2.527 2.816 6.913.029 9.452l-5.874 5.35c-1.326 1.208-2.082 2.918-2.082 4.711l.001 10.439c0 1.807.767 3.529 2.111 4.741l5.819 5.248c2.803 2.528 2.816 6.913.029 9.452l-5.874 5.35c-1.326 1.208-2.082 2.918-2.082 4.711v4.347c0 1.917.863 3.733 2.35 4.946l17.364 14.172c2.365 1.931 5.766 1.923 8.119-.018l17.415-14.367c1.468-1.211 2.318-3.013 2.318-4.915l-.01-145.828c24.974-9.331 42.764-33.402 42.764-61.635zm-66.645-32.421c12.085-.02 21.91 9.745 21.944 21.81s-9.736 21.863-21.822 21.883c-12.085.02-21.91-9.745-21.944-21.81-.033-12.065 9.737-21.863 21.822-21.883z" fill="#ecf4fa"/><g><path d="m498.45 276.299c0-36.324-29.44-65.77-65.755-65.77-8.853 0-17.291 1.761-25 4.934 14.356 5.909 26.152 16.749 33.295 30.416 7.509 3.453 12.735 11.018 12.759 19.81.016 5.533-2.035 10.586-5.421 14.441-1.483 25.804-17.833 47.614-40.619 56.998.137.056.271.118.409.174l.002 32.911c0 1.806.767 3.529 2.11 4.741l5.819 5.248c2.802 2.527 2.816 6.913.029 9.452l-5.874 5.35c-1.326 1.208-2.082 2.918-2.082 4.711l.001 10.439c0 1.806.767 3.529 2.11 4.741l5.819 5.248c2.802 2.527 2.816 6.913.029 9.452l-5.874 5.35c-1.326 1.208-2.082 2.918-2.082 4.711l.001 10.438c0 1.807.767 3.529 2.111 4.741l5.818 5.248c2.803 2.528 2.816 6.914.029 9.452l-5.874 5.35c-1.326 1.208-2.082 2.918-2.082 4.711v4.347c0 1.917.863 3.733 2.35 4.947l17.364 14.172c2.365 1.93 5.766 1.923 8.119-.018l17.416-14.367c1.468-1.211 2.318-3.013 2.318-4.915l-.01-145.828c24.975-9.331 42.765-33.402 42.765-61.635z" fill="#e4eff7"/></g></g></g></g><g fill="#ecf4fa"><path d="m257.708 180.534c-8.202 0-14.851-6.649-14.851-14.851v-102.178c0-8.202 6.649-14.851 14.851-14.851 8.202 0 14.851 6.649 14.851 14.851v102.178c.001 8.202-6.649 14.851-14.851 14.851z"/><path d="m431.866 180.534c-8.202 0-14.851-6.649-14.851-14.851v-102.178c0-8.202 6.649-14.851 14.851-14.851 8.202 0 14.851 6.649 14.851 14.851v102.178c0 8.202-6.649 14.851-14.851 14.851z"/></g></g><path d="" fill="#ffeb66"/><path d="m494.5 0h-392.833c-4.142 0-7.5 3.358-7.5 7.5s3.358 7.5 7.5 7.5h392.833c1.379 0 2.5 1.122 2.5 2.5v78.162c0 1.378-1.121 2.5-2.5 2.5h-40.282v-34.657c0-12.324-10.027-22.351-22.352-22.351s-22.352 10.027-22.352 22.351v34.657h-129.454v-34.657c0-12.324-10.027-22.351-22.352-22.351s-22.351 10.027-22.351 22.351v34.657h-130.227v-34.657c0-12.324-10.027-22.351-22.352-22.351-12.324 0-22.351 10.027-22.351 22.351v34.657h-42.927c-1.378 0-2.5-1.122-2.5-2.5v-78.162c0-1.378 1.122-2.5 2.5-2.5h46.167c4.142 0 7.5-3.358 7.5-7.5s-3.358-7.5-7.5-7.5h-46.167c-9.649 0-17.5 7.851-17.5 17.5v78.162c0 9.649 7.851 17.5 17.5 17.5h42.928v39.199c-21.964 9.378-35.841 32.321-34.178 56.104-9.534 5.953-15.899 16.529-15.898 28.538l.004 53.057c0 9.076 3.76 17.874 10.313 24.138l30.861 29.503.002 26.513c-.073 7.052 4.759 10.51 9.49 14.729-12.94 9.04-13.446 31.001.003 39.94-12.939 9.04-13.447 31.001.003 39.939l-4.955 4.513c-6.518 5.934-6.194 19.835.576 25.36l17.364 14.171c5.068 4.137 12.586 4.122 17.634-.042l17.415-14.367c3.207-2.645 5.046-6.545 5.046-10.702l-.01-140.283 30.882-29.796c6.537-6.307 10.285-15.122 10.285-24.185 0 0-.004-53.057-.004-53.057.092-11.488-6.125-22.48-15.914-28.45 1.448-23.616-12.412-46.314-34.215-55.624v-39.199h130.227v39.209c-22.946 9.888-37.089 34.713-33.837 59.502-37.296 21.648-39.264 79.971-1.667 103.816 10.81 7.035 23.011 9.849 35.172 8.258v165.307c0 12.542 10.202 22.745 22.742 22.745s22.741-10.204 22.741-22.745v-8.991h11.804c9.738 0 17.661-7.924 17.661-17.663v-48.107c0-9.74-7.923-17.664-17.661-17.664h-11.804v-72.835c14.553 1.964 28.965-2.313 40.673-12.323 31.624-26.502 28.205-79.54-7.273-99.81 3.235-24.793-10.845-49.63-33.849-59.5v-39.2h129.455v39.199c-28.078 11.991-41.719 45.452-30.058 73.686-33.741 34.332-23.005 95.695 21.161 116.126l.002 28.039c-.074 7.052 4.758 10.512 9.49 14.731-12.94 9.039-13.447 31.001.002 39.94-12.939 9.04-13.446 31.001.003 39.939-9.15 6.059-14.36 21.726-4.379 29.873l17.364 14.172c5.068 4.135 12.585 4.121 17.634-.043l17.415-14.368c3.206-2.645 5.045-6.545 5.045-10.701l-.001-20.27c-.307-9.906-14.691-9.919-15 .001 0 0 .001 19.737.001 19.737l-16.307 13.453-16.26-13.271v-3.316c12.049-9.35 11.933-21.139-.002-30.498l-.001-9.441c12.047-9.352 11.934-21.138-.002-30.498l-.001-9.441c12.047-9.352 11.935-21.139-.002-30.498 0 0-.002-32.413-.002-32.413 0-3.059-1.857-5.811-4.693-6.955-36.155-13.853-48.047-61.466-23.469-90.705 4.729 5.961 10.618 10.961 17.339 14.631-8.343 18.725 6.501 41.234 27.097 40.798 15.946 0 29.403-13.407 29.359-29.403.057-23.723-28.159-37.956-47.025-23.429-6.301-2.957-11.748-7.441-15.854-12.98 37.482-28.116 93.018-.202 92.58 47.041 0 24.197-15.226 46.141-37.889 54.602-2.933 1.095-4.877 3.896-4.877 7.027l.006 85.619c0 4.142 3.358 7.5 7.501 7.5 4.142 0 7.499-3.358 7.499-7.5l-.006-80.618c46.133-20.554 57.222-83.733 21.206-118.492 11.226-27.864-2.582-60.296-30.171-72.075v-39.199h40.279c9.649 0 17.5-7.851 17.5-17.5v-78.16c0-9.649-7.851-17.5-17.5-17.5zm-419.072 63.505c.296-9.685 14.388-9.739 14.703 0v102.178c-.296 9.684-14.388 9.74-14.703 0zm53.462 155.918c6.57 2.738 11.369 9.894 11.369 17.013l.004 53.057c0 5.013-2.078 9.894-5.7 13.389l-33.174 32.008c-1.465 1.414-2.292 3.362-2.292 5.398l.01 142.936-16.307 13.454-16.26-13.271v-3.316c12.048-9.352 11.934-21.138-.002-30.498v-9.442c12.048-9.352 11.933-21.138-.002-30.498v-9.442c12.026-9.29 11.906-21.199-.002-30.498l-.002-29.219c0-2.047-.837-4.006-2.317-5.421l-33.178-31.718c-3.608-3.449-5.678-8.295-5.678-13.296l-.004-53.057c0-4.634 1.723-8.873 4.548-12.141 4.865 12.579 14.081 23.009 25.805 29.411-8.343 18.725 6.501 41.234 27.098 40.798 15.945 0 29.403-13.407 29.358-29.403.059-23.724-28.156-37.956-47.025-23.429-10.039-4.711-17.903-13.308-21.646-23.846.347-.068 77.828-.339 78.235-.364 2.501.05 4.889.515 7.162 1.395zm-60.494 46.317c-.006-2.145.473-4.212 1.357-6.099 8.54 2.017 17.488 2.023 26.03.015 4.65 9.004-2.969 20.562-12.98 20.414-7.924.001-14.385-6.423-14.407-14.33zm56.041-62.601c-.919-.071-1.844-.114-2.777-.111l-77.779.339c-.933.004-1.854.056-2.768.135.325-14.313 7.818-27.111 19.573-34.419 4.34 25.109 39.856 25.091 44.186 0 11.655 7.248 19.122 19.891 19.565 34.056zm125.92-139.634c.296-9.685 14.387-9.739 14.702 0v102.178c-.296 9.684-14.387 9.74-14.702 0zm77.131 192.828c5.468 28.837-21.68 61.931-51.961 51.182-4.772-1.703-10.138 2.16-10.019 7.243v88.517 1.056 35.336c0 4.142 3.357 7.5 7.5 7.5s7.5-3.358 7.5-7.5v-27.837h11.804c1.468 0 2.661 1.195 2.661 2.664v48.107c0 1.468-1.193 2.663-2.661 2.663h-19.304c-4.143 0-7.5 3.358-7.5 7.5v16.491c0 4.271-3.473 7.745-7.741 7.745s-7.742-3.475-7.742-7.745v-174.524c.119-5.064-5.227-8.948-10.018-7.243-10.83 3.551-22.18 2.002-31.974-4.372-26.806-16.911-27.113-58.335-2.322-76.102 5.095 11.705 14.034 21.421 25.293 27.459-8.994 18.763 5.874 41.976 26.784 41.51 15.883 0 29.404-13.482 29.358-29.402.251-23.378-27.383-37.648-46.269-23.972-9.742-4.315-17.484-12.235-21.599-21.995 11.711-2.902 24.444.286 33.702 7.938 2.776 2.295 6.79 2.292 9.563-.005 24.098-20.459 60.103-3.974 64.945 27.786zm-84.106 10.32c-.007-2.455.608-4.813 1.758-6.907 8.306 1.885 16.928 1.894 25.221-.001 5.362 9.164-1.952 21.391-12.573 21.239-7.923 0-14.384-6.424-14.406-14.331zm55.977-60.693c-14.096-3.415-29.54-.507-41.604 7.487-12.133-8.023-27.532-10.881-41.694-7.481-.517-14.704 7.107-29.001 19.562-36.841 4.376 25.066 39.83 25.032 44.174-.02 12.405 7.774 20.1 21.766 19.562 36.855zm119.482 53.682c8.555 2.021 17.465 2 26.02-.005 4.669 9.005-2.95 20.583-12.971 20.434-10.287.232-17.604-11.247-13.049-20.429zm5.674-196.137c.296-9.685 14.388-9.739 14.703 0v102.178c-.296 9.685-14.388 9.739-14.703 0zm49.036 140.968c0 3.165-.55 6.579-1.561 10.037-22.936-15.553-57.836-15.046-80.288 1.094-4.876-17.58 2.549-36.865 18.071-46.519 4.341 25.107 39.856 25.089 44.186-.001 12.021 7.473 19.592 20.684 19.592 35.389z"/></g></svg>