<svg id="Layer_1" enable-background="new 0 0 512 512" height="512" viewBox="0 0 512 512" width="512" xmlns="http://www.w3.org/2000/svg"><g><g><g><g><path d="m376.367 451.154c-8.887 0-16.092-7.184-16.092-16.047v-291.534c0-57.335-46.777-103.98-104.275-103.98s-104.275 46.645-104.275 103.98v291.534c0 8.862-7.205 16.047-16.092 16.047s-16.092-7.184-16.092-16.047v-291.534c0-75.031 61.215-136.073 136.459-136.073s136.46 61.042 136.46 136.073v291.534c0 8.862-7.205 16.047-16.093 16.047z" fill="#cad7e0"/></g><g><path d="m256 7.5c-6.793 0-13.47.505-20 1.465 41.061 6.04 76.227 30.38 96.864 64.42 17.013 18.51 27.411 43.16 27.411 70.188v291.534c0 8.862 7.205 16.047 16.092 16.047s16.092-7.184 16.092-16.047v-291.534c0-75.031-61.215-136.073-136.459-136.073z" fill="#bdd0de"/></g><g fill="#ecf4fa"><path d="m106.255 403.427h59.757v30.902h-59.757z"/><path d="m346.706 403.427h59.757v30.902h-59.757z"/></g></g><g><path d="m325 504.5h-238.935c-5.885 0-10.657-4.771-10.657-10.657v-48.858c0-5.885 4.771-10.657 10.657-10.657h238.935z" fill="#ff7ebc"/><g><path d="m425.921 434.329h-106.683v70.171h106.683c5.893 0 10.671-4.765 10.671-10.642v-48.887c0-5.878-4.778-10.642-10.671-10.642z" fill="#9fb7c7"/></g><path d="m425.921 434.329h-40c5.893 0 10.671 4.765 10.671 10.642v48.887c0 5.878-4.778 10.642-10.671 10.642h40c5.893 0 10.671-4.765 10.671-10.642v-48.887c0-5.878-4.778-10.642-10.671-10.642z" fill="#95afc2"/></g></g><path d="m425.921 426.829h-11.958v-23.402c0-4.142-3.357-7.5-7.5-7.5h-6.503v-252.354c0-79.167-64.58-143.573-143.96-143.573-29.517 0-57.904 8.883-82.097 25.689-3.401 2.363-4.243 7.037-1.88 10.438 2.363 3.403 7.036 4.245 10.438 1.881 21.668-15.052 47.097-23.008 73.539-23.008 71.108 0 128.96 57.678 128.96 128.573v252.354h-17.185v-252.354c0-61.47-50.143-111.479-111.775-111.479s-111.775 50.009-111.775 111.479v252.354h-17.185v-252.354c0-28.799 9.375-56.04 27.111-78.778 2.547-3.266 1.965-7.979-1.301-10.526-3.267-2.547-7.979-1.966-10.527 1.301-19.812 25.398-30.283 55.83-30.283 88.003v252.354h-5.784c-4.143 0-7.5 3.358-7.5 7.5v23.402h-12.692c-10.012 0-18.156 8.145-18.156 18.157v48.858c0 10.012 8.145 18.157 18.156 18.157h272.943c4.143 0 7.5-3.358 7.5-7.5s-3.357-7.5-7.5-7.5h-32.271v-55.171h99.184c1.748 0 3.171 1.41 3.171 3.143v48.886c0 1.733-1.423 3.143-3.171 3.143h-27.057c-4.143 0-7.5 3.358-7.5 7.5s3.357 7.5 7.5 7.5h27.057c10.02 0 18.171-8.139 18.171-18.143v-48.886c.001-10.006-8.151-18.144-18.17-18.144zm-266.696-283.256c4.868-127.823 188.708-127.777 193.551.001 0-.001 0 252.353 0 252.353h-6.069c-4.143 0-7.5 3.358-7.5 7.5v23.402h-165.694v-23.402c0-4.142-3.357-7.5-7.5-7.5h-6.788zm-45.469 267.354h44.757v15.902h-44.757zm-30.848 82.916v-48.858c0-1.741 1.416-3.157 3.156-3.157h225.673v55.172h-225.673c-1.74 0-3.156-1.416-3.156-3.157zm271.298-67.014v-15.902h44.757v15.902z"/></g></svg>