<svg id="Layer_1" enable-background="new 0 0 511.78 511.78" height="512" viewBox="0 0 511.78 511.78" width="512" xmlns="http://www.w3.org/2000/svg"><g><g><path d="m114.301 498.508-48.278-48.207 63.1-62.985 48.241 48.17c7.959 7.945 7.959 20.837 0 28.781l-34.304 34.241c-7.944 7.93-20.814 7.93-28.759 0z" fill="#ffeb66"/><path d="m177.364 435.485-20.79-20.759c7.361 7.982 7.185 20.409-.571 28.151l-34.303 34.241c-7.945 7.93-20.815 7.93-28.759 0l-26.887-26.848-.03.03 48.278 48.207c7.945 7.93 20.815 7.93 28.759 0l34.304-34.241c7.958-7.944 7.958-20.836-.001-28.781z" fill="#ffe017"/><path d="m267.744 266.237-28.952-28.633-219.287 220.049c-7.83 7.859-7.783 20.553.106 28.353 7.888 7.8 20.631 7.753 28.461-.106z" fill="#ffc103"/><path d="m294.405 245.592-18.897 39.369c-5.954 12.711-22.725 15.66-32.661 5.742l-28.172-28.121c-9.95-9.932-6.999-26.727 5.74-32.676l39.981-18.31z" fill="#ffeb66"/><ellipse cx="281.047" cy="224.723" fill="#ffc103" rx="37.477" ry="37.41"/><path d="m307.547 198.271c-3.533-3.526-7.598-6.193-11.934-8.017 6.462 13.847 3.969 30.828-7.479 42.255-11.103 11.083-27.437 13.75-41.067 8.017 1.799 3.855 4.291 7.468 7.479 10.65 14.636 14.609 38.365 14.609 53.001 0 14.636-14.61 14.636-38.296 0-52.905z" fill="#ffb300"/><g><path d="m469.006 124.428c-16.467-16.437-37.19-26.033-58.628-28.801-2.773-21.399-12.387-42.084-28.854-58.522-39.604-39.532-103.815-39.532-143.419 0s-39.604 103.627 0 143.159c16.467 16.437 37.19 26.033 58.628 28.802 2.773 21.399 12.386 42.084 28.854 58.521 39.604 39.532 103.815 39.532 143.419 0s39.604-103.627 0-143.159zm-25.644 124.441c-28.214 24.581-70.264 22.766-96.385-4.021-8.044-8.25-13.807-18.099-16.993-28.932 5.138.599 10.489-1.054 14.431-4.989 6.841-6.829 6.841-17.9 0-24.729-5.677-5.667-14.275-6.615-20.947-2.877 3.745-6.661 2.795-15.243-2.882-20.91-6.841-6.829-17.932-6.829-24.773 0-3.762 3.755-5.442 8.793-5.067 13.703-11.201-3.126-21.381-8.963-29.868-17.21-26.833-26.078-28.644-68.053-4.013-96.212 26.955-30.816 74.076-31.999 102.579-3.547 8.623 8.608 14.706 19.018 17.923 30.504-4.919-.374-9.965 1.303-13.726 5.058-6.841 6.829-6.841 17.9 0 24.729 5.677 5.667 14.274 6.615 20.948 2.877-3.745 6.661-2.795 15.243 2.882 20.909 6.841 6.829 17.933 6.829 24.774 0 3.941-3.933 5.598-9.273 4.999-14.4 11.16 3.271 21.278 9.257 29.684 17.648 28.503 28.453 27.315 75.494-3.566 102.399z" fill="#ffeb66"/><g fill="#ffe017"><path d="m266.06 199.739c-.287-.037-.572-.089-.859-.128.301.147.603.289.905.433-.014-.102-.033-.204-.046-.305z"/><path d="m469.006 124.428c-16.247-16.217-36.637-25.762-57.769-28.673 9.785 4.783 18.96 11.226 27.095 19.346 22.645 22.604 32.335 53.237 29.084 82.719-.32 12.453-3.95 24.826-10.866 35.707-4.657 8.901-10.728 17.257-18.218 24.734-23.351 23.309-55.256 32.869-85.629 28.691 37.848 18.494 84.839 12.041 116.302-19.364 39.605-39.533 39.605-103.628.001-143.16z"/></g></g></g><g><path d="m498.864 191.082c4.111-.504 7.035-4.246 6.531-8.357-2.441-19.906-10.115-38.271-22.366-53.794 23.242-19.562 17.884-48.058-11.631-55.267 7.891-26.732-10.127-47.428-39.034-38.961-7.24-29.506-35.789-34.785-55.356-11.589-69.426-55.63-177.096-4.471-176.106 85.572-.194 34.683 16.878 67.766 44.977 88.046-4.07 5.078-6.954 10.907-8.497 17.153l-20.143 9.225c-14.096 6.583-20.137 24.387-12.71 38.25l-120.271 120.691c-2.924 2.934-2.916 7.683.019 10.606 3.538 2.923 7.074 2.917 10.606-.019l119.417-119.832 18.15 18.117-189.691 189.684c-4.909 4.928-12.927 4.958-17.874.066-4.872-4.819-4.903-12.872-.066-17.727l45.109-45.267c2.924-2.934 2.916-7.683-.019-10.606-2.935-2.924-7.684-2.916-10.606.019l-45.11 45.267c-10.53 10.57-10.489 28.465.146 38.98 10.578 10.459 28.51 10.431 39.037-.136l21.477-21.476 34.151 34.089c10.627 10.608 28.706 10.631 39.356 0l17.176-17.145c.001-.002.003-.003.005-.004.001-.001.003-.003.004-.004l17.119-17.088c10.663-10.645 10.687-28.728 0-39.397l-34.16-34.098 95.359-95.356c13.777 7.512 31.726 1.745 38.407-12.517l9.549-19.894c6.171-1.509 12.078-4.343 17.275-8.488 38.425 53.751 118.803 60.238 165.21 13.07 13.241-13.215 22.885-29.672 27.89-47.591 1.114-3.99-1.217-8.127-5.206-9.241-3.99-1.113-8.127 1.217-9.241 5.206-28.863 97.563-168.968 87.57-183.575-13.168-.438-3.378-3.098-6.037-6.477-6.473-45.665-5.111-82.607-46.965-81.791-92.944-.649-82.65 102.223-125.053 160.323-66.269 14.505 14.476 24.084 33.879 26.714 54.175.438 3.379 3.098 6.039 6.478 6.475 20.446 2.64 39.701 12.109 54.29 26.671 14.967 14.939 24.233 33.894 26.799 54.815.503 4.111 4.24 7.04 8.356 6.531zm-326.799 249.711c4.963 4.954 4.963 13.211 0 18.165l-11.834 11.813-16.292-16.263 7.914-7.899c6.797-7.215-3.362-17.405-10.598-10.616 0 0-26.464 26.415-26.464 26.415-2.932 2.926-2.936 7.675-.01 10.606 3.534 2.932 7.07 2.936 10.607.01l7.933-7.919 16.293 16.263-11.852 11.832c-5.006 4.999-13.155 4.998-18.161 0l-34.142-34.08 52.437-52.435zm79.315-220.387c1.006-5.674 3.48-11.353 7.346-15.645 9.783 5.193 20.342 8.864 31.442 10.875 2.013 11.071 5.686 21.603 10.883 31.362-20.684 18.498-53.63.985-49.671-26.592zm23.388 48.764-6.052 12.61c-3.699 7.895-14.401 9.775-20.57 3.615l-28.173-28.121c-6.144-6.133-4.328-16.863 3.564-20.549l12.948-5.93c2.131 19.323 19.272 36.204 38.283 38.375zm128.064-217.108c-4.138-6.75-9.049-13.075-14.685-18.894 12.953-15.111 26.249-12.137 30.206 7.463-5.306 2.992-10.553 6.817-15.521 11.431zm37.218 43.893c-7.363-3.128-15.093-5.447-23.107-6.899-1.453-7.991-3.774-15.699-6.902-23.041 39.852-39.538 69.799-9.88 30.009 29.94zm32.899 21.86c-5.829-5.626-12.164-10.53-18.925-14.662 4.546-4.886 8.379-10.127 11.411-15.482 19.656 3.932 22.704 17.181 7.514 30.144z"/><path d="m330.853 208.467c-6.117.298-8.805 3.486-8.064 9.565 14.643 53.251 84.492 73.371 125.5 36.49 45.449-38.896 29.054-116.863-28.938-132.899-6.076-.735-9.262 1.954-9.559 8.067 1.204 9.292-10.482 14.89-17.025 8.222-3.148-3.142-3.824-8.047-1.643-11.926 3.632-6.459-3.74-13.838-10.203-10.219-6.261 3.508-14.912-1.314-14.912-8.698 0-5.799 5.29-10.378 10.788-9.943 5.895-.463 8.492-3.63 7.791-9.501-15.541-58.604-94.104-75.539-133.37-29.87-37.165 41.571-16.522 111.405 37.511 125.583 5.869.695 9.034-1.903 9.494-7.795-.81-9.133 10.659-14.355 17.064-7.823 3.147 3.142 3.823 8.047 1.642 11.927-3.629 6.457 3.741 13.841 10.204 10.218 6.261-3.507 14.912 1.312 14.912 8.698.001 5.98-5.566 10.552-11.192 9.904zm18.861 7.768c15.399-15.147 4.799-41.552-16.551-42.605-1.558-27.046-38.586-32.875-48.406-7.566-38.013-15.651-49.891-67.868-22.246-98.433 28.997-33.975 87.545-25.507 104.792 16.028-25.26 10.07-19.459 46.438 7.59 48.344 1.603 27.326 39.12 32.835 48.582 7.118 40.749 17.804 48.626 75.446 14.96 104.093-30.375 27.479-81.591 16.293-98.134-21.064 3.493-1.217 6.71-3.217 9.413-5.915z"/></g></g></svg>