<svg id="Layer_1" enable-background="new 0 0 512 512" height="512" viewBox="0 0 512 512" width="512" xmlns="http://www.w3.org/2000/svg"><g><g><g><g><path d="m152.411 7.5h207.178c11.046 0 20 8.954 20 20v457c0 11.046-8.954 20-20 20h-207.178c-11.046 0-20-8.954-20-20v-457c0-11.046 8.954-20 20-20z" fill="#ade888"/><path d="m359.589 7.5h-45c11.046 0 20 8.954 20 20v457c0 11.046-8.954 20-20 20h45c11.046 0 20-8.954 20-20v-457c0-11.046-8.954-20-20-20z" fill="#a3de7e"/><g><g><circle cx="256" cy="379.454" fill="#ecf4fa" r="80.891"/><circle cx="256" cy="379.454" fill="#9fb7c7" r="43.126"/></g><path d="m280.142 379.454c0-4.142-3.358-7.5-7.5-7.5h-34.485c-4.142 0-7.5 3.358-7.5 7.5s3.358 7.5 7.5 7.5" fill="#728b9b"/></g></g></g><g><g><path d="m178.219 8.242h155.554v152.141c0 42.955-34.822 77.777-77.777 77.777-42.955 0-77.777-34.822-77.777-77.777z" fill="#9fb7c7"/></g></g></g><g><path d="m359.589 0h-207.178c-15.164 0-27.5 12.336-27.5 27.5v30.871c0 4.142 3.358 7.5 7.5 7.5s7.5-3.358 7.5-7.5v-30.871c0-6.893 5.607-12.5 12.5-12.5h18.309v145.383c0 47.022 38.255 85.277 85.276 85.277 47.022 0 85.277-38.255 85.277-85.277v-145.383h18.316c6.893 0 12.5 5.607 12.5 12.5v457c0 6.893-5.607 12.5-12.5 12.5h-207.178c-6.893 0-12.5-5.607-12.5-12.5v-386.187c0-4.142-3.358-7.5-7.5-7.5s-7.5 3.358-7.5 7.5v386.187c0 15.164 12.336 27.5 27.5 27.5h207.178c15.164 0 27.5-12.336 27.5-27.5v-457c0-15.164-12.337-27.5-27.5-27.5zm-33.316 160.383c-3.54 93.112-137.034 93.073-140.553-.001v-145.382h140.553z"/><path d="m314.878 435.335c3.252 2.565 7.968 2.008 10.533-1.244 12.417-15.743 18.98-34.636 18.98-54.637 0-48.739-39.652-88.392-88.392-88.392-117.098 4.445-117.077 172.352.001 176.783 12.313 0 24.265-2.516 35.524-7.477 3.791-1.67 5.509-6.097 3.839-9.888-1.67-3.79-6.096-5.509-9.888-3.839-9.341 4.116-19.258 6.203-29.477 6.203-97.214-3.678-97.217-143.105.001-146.783 60.535-.495 95.632 71.564 57.632 118.74-2.563 3.253-2.006 7.969 1.247 10.534z"/><path d="m205.374 379.454c0 27.915 22.711 50.626 50.626 50.626 67.07-2.545 67.052-98.717-.001-101.252-27.914 0-50.625 22.711-50.625 50.626zm86.252 0c0 19.644-15.982 35.626-35.626 35.626-47.198-1.791-47.185-69.468 0-71.252 19.644 0 35.626 15.982 35.626 35.626z"/><path d="m230.657 379.454c0 4.142 3.358 7.5 7.5 7.5h34.485c4.142 0 7.5-3.358 7.5-7.5s-3.358-7.5-7.5-7.5h-34.485c-4.142 0-7.5 3.358-7.5 7.5z"/><path d="m255.996 200.456c24.797 0 44.971-20.174 44.971-44.971v-32.284c0-4.142-3.358-7.5-7.5-7.5s-7.5 3.358-7.5 7.5v32.284c-1.504 39.703-58.441 39.698-59.941 0 0-4.142-3.358-7.5-7.5-7.5s-7.5 3.358-7.5 7.5c0 24.797 20.173 44.971 44.97 44.971z"/><path d="m218.526 130.701c4.142 0 7.5-3.358 7.5-7.5v-32.284c0-16.525 13.444-29.97 29.97-29.97s29.971 13.445 29.971 29.97c0 4.142 3.358 7.5 7.5 7.5s7.5-3.358 7.5-7.5c0-24.797-20.174-44.97-44.971-44.97s-44.97 20.173-44.97 44.97v32.285c0 4.141 3.358 7.499 7.5 7.499z"/><path d="m275.342 99.654c-.971-25.628-37.723-25.624-38.691 0 .311 9.918 14.694 9.909 15 0 0-2.396 1.95-4.346 4.346-4.346s4.346 1.95 4.346 4.346v10.544c0 4.142 3.358 7.5 7.5 7.5s7.5-3.358 7.5-7.5c-.001.001-.001-10.544-.001-10.544z"/><path d="m244.15 128.849c-4.142 0-7.5 3.358-7.5 7.5v10.399c.971 25.629 37.723 25.624 38.691 0-.311-9.918-14.694-9.909-15 0-.151 5.73-8.541 5.73-8.691 0v-10.399c0-4.142-3.358-7.5-7.5-7.5z"/></g></g></svg>