<svg id="Layer_1" enable-background="new 0 0 512 512" height="512" viewBox="0 0 512 512" width="512" xmlns="http://www.w3.org/2000/svg"><g><g><g><g><path d="m163.098 7.5h185.804l60.052 355.552v110.047c0 17.342-14.059 31.401-31.401 31.401h-243.107c-17.342 0-31.401-14.059-31.401-31.401v-110.047z" fill="#ff7ebc"/></g><path d="m368.955 321.88v151.219c0 17.342-14.059 31.401-31.401 31.401h40c17.342 0 31.401-14.059 31.401-31.401v-110.047z" fill="#fa71b3"/></g><g fill="#fff"><path d="m256 52.328 16.193 28.046 16.192 28.047h-32.385-32.385l16.192-28.047z"/><path d="m256 143.048 16.193 28.046 16.192 28.047h-32.385-32.385l16.192-28.047z"/><path d="m256 233.767 16.193 28.047 16.192 28.047h-32.385-32.385l16.192-28.047z"/></g><g><path d="m163.098 24.161-60.053 60.053v55.56l60.053-60.052z" fill="#9fb7c7"/><g fill="#ffeb66"><path d="m163.098 79.722-60.053 60.052v55.56l60.053-60.052z"/><path d="m163.098 190.842-60.053 60.053v55.56l60.053-60.053z"/><path d="m408.955 84.214v-45.313c0-17.342-14.059-31.401-31.401-31.401h-28.652v16.661z"/><path d="m163.098 7.5h-28.652c-17.342 0-31.401 14.059-31.401 31.401v45.313l60.052-60.052v-16.662z"/></g><path d="m348.902 79.722 60.053 60.052v-55.56l-60.053-60.053z" fill="#9fb7c7"/><path d="m163.098 135.282-60.053 60.052v55.561l60.053-60.053z" fill="#9fb7c7"/><path d="m348.902 190.842 60.053 60.053v-55.561l-60.053-60.052z" fill="#9fb7c7"/><path d="m348.902 246.402 60.053 60.053v-55.56l-60.053-60.053z" fill="#ffeb66"/><path d="m348.902 79.722v55.56l60.053 60.052v-55.56z" fill="#ffeb66"/><path d="m163.098 290.574v-44.171l-60.052 60.052v56.598l51.266-51.266c5.625-5.626 8.786-13.257 8.786-21.213z" fill="#9fb7c7"/><path d="m348.902 290.574c0 7.957 3.161 15.587 8.787 21.213l51.266 51.266v-56.598l-60.052-60.052v44.171z" fill="#9fb7c7"/></g></g><g><path d="m210.897 403.929c-.033.007-21.291 55.973-21.335 56.036-1.474 3.871.47 8.204 4.341 9.678 3.598 1.37 8.294-.705 9.678-4.341 0 0 3.457-9.082 3.457-9.082h23.816l3.418 9.061c3.777 9.16 17.249 4.097 14.035-5.294 0 0-21.075-55.869-21.075-55.869-2.743-7.215-13.327-7.546-16.335-.189zm14.299 37.292h-12.448l6.253-16.424z"/><path d="m278.437 414.04c7.752-2.338 14.984 3.357 15.199 3.529 7.786 6.075 16.985-4.929 9.613-11.515-.542-.455-13.45-11.102-29.14-6.376-7.976 2.404-13.621 8.7-14.73 16.43-2.417 16.832 14.201 21.251 26.193 25.677 1.861.687 7.876 3.239 7.159 7.251-.536 2.998-4.228 6.098-9.48 6.098-5.512 0-10.813-2.219-14.179-5.935-6.872-7.144-17.549 2.522-11.117 10.07 13.522 15.718 44.919 15.063 49.543-7.597 1.441-8.066-2.198-18.598-16.732-23.961-3.079-1.137-17.298-4.181-16.539-9.473.131-.919.806-3.172 4.21-4.198z"/><path d="m343.244 455.134c-5.512 0-10.813-2.219-14.179-5.935-6.872-7.145-17.549 2.522-11.117 10.07 13.522 15.718 44.919 15.063 49.543-7.597 1.441-8.066-2.198-18.598-16.732-23.961-3.08-1.137-17.298-4.181-16.539-9.473.132-.921.808-3.174 4.211-4.2 7.752-2.338 14.984 3.357 15.199 3.529 7.787 6.075 16.984-4.929 9.613-11.515-.542-.455-13.447-11.102-29.14-6.376-7.976 2.404-13.621 8.7-14.73 16.43-2.417 16.832 14.202 21.251 26.193 25.677 1.861.687 7.876 3.239 7.159 7.252-.536 2.999-4.229 6.099-9.481 6.099z"/><path d="m167.484 398.469h-15.771c-4.086 0-7.5 3.415-7.5 7.5v56.666c.3 9.899 14.692 9.924 15 0v-17.154c3.058-.015 6.339-.029 8.271-.029 31.531-1.187 31.517-45.804 0-46.983zm0 31.982c-1.919 0-5.161.014-8.203.029-.028-5.67-.031-11.341-.047-17.011h8.25c11.635.545 11.63 16.439 0 16.982z"/><path d="m223.615 115.921h64.771c5.265 0 9.486-6.07 6.495-11.25l-32.385-56.093c-2.838-4.914-10.153-4.914-12.99 0l-32.385 56.093c-2.993 5.18 1.229 11.25 6.494 11.25zm32.385-48.593 19.395 33.593h-38.79z"/><path d="m217.12 202.891c1.34 2.32 3.815 3.75 6.495 3.75h64.771c5.265 0 9.486-6.07 6.495-11.25l-32.385-56.093c-2.838-4.914-10.153-4.914-12.99 0l-32.385 56.093c-1.341 2.32-1.341 5.179-.001 7.5zm38.88-44.844 19.395 33.593h-38.79z"/><path d="m217.12 293.611c1.34 2.32 3.815 3.75 6.495 3.75h64.771c5.266 0 9.486-6.07 6.495-11.25l-32.385-56.093c-2.838-4.914-10.153-4.914-12.99 0l-32.385 56.093c-1.341 2.321-1.341 5.18-.001 7.5zm38.88-44.843 19.395 33.593h-38.79z"/><path d="m416.455 38.901c0-21.45-17.451-38.901-38.901-38.901h-243.108c-21.45 0-38.901 17.451-38.901 38.901v374.102c0 4.142 3.358 7.5 7.5 7.5s7.5-3.358 7.5-7.5v-46.844l49.069-49.069c7.083-7.083 10.983-16.5 10.983-26.516v-275.574h170.805v275.574c0 10.017 3.9 19.434 10.983 26.516l49.069 49.069v106.94c0 13.179-10.722 23.901-23.901 23.901h-243.107c-13.179 0-23.901-10.722-23.901-23.901v-20.1c0-4.142-3.358-7.5-7.5-7.5s-7.5 3.358-7.5 7.5v20.1c0 21.45 17.451 38.901 38.901 38.901h243.107c21.45 0 38.901-17.451 38.901-38.901v-434.198zm-60.053 170.048 45.052 45.052v34.348l-45.052-45.053zm0-21.213v-34.348l45.052 45.053v34.347zm0-55.561v-34.347l12.885 12.885c3.535 2.929 7.071 2.929 10.606 0 2.929-2.929 2.929-7.678 0-10.606l-23.491-23.491v-34.348l45.052 45.052v89.908zm-245.857 10.706 45.052-45.052v34.347l-45.052 45.053zm0 55.56 45.052-45.052v34.347l-45.052 45.052zm0 55.56 45.052-45.052v34.347l-45.052 45.053zm45.053-177.386-45.052 45.053v-34.348l45.052-45.052zm0 213.959c0 6.01-2.34 11.66-6.59 15.91l-38.462 38.462v-35.384l45.052-45.052zm0-269.519-45.052 45.052v-27.206c0-13.179 10.722-23.901 23.901-23.901h21.151zm221.956-6.055c13.179 0 23.901 10.722 23.901 23.901v27.207l-45.052-45.052v-6.056zm-14.562 291.483c-4.25-4.25-6.59-9.9-6.59-15.91v-26.065l45.052 45.053v35.384z"/></g></g></svg>