<svg id="Layer_1" enable-background="new 0 0 512 512" height="512" viewBox="0 0 512 512" width="512" xmlns="http://www.w3.org/2000/svg"><g><path d="m400.024 504.5h-288.048c-11.046 0-20-8.954-20-20v-457c0-11.046 8.954-20 20-20h288.049c11.046 0 20 8.954 20 20v457c-.001 11.046-8.955 20-20.001 20z" fill="#9fb7c7"/><path d="m400.024 7.5h-40c11.046 0 20 8.954 20 20v457c0 11.046-8.954 20-20 20h40c11.046 0 20-8.954 20-20v-457c0-11.046-8.954-20-20-20z" fill="#95afc2"/><g fill="#ecf4fa"><circle cx="165.969" cy="213.192" r="26.309"/><circle cx="254.705" cy="213.192" r="26.309"/><circle cx="343.441" cy="213.192" r="26.309"/><circle cx="166.851" cy="289.39" r="26.309"/><circle cx="255.587" cy="289.39" r="26.309"/><circle cx="344.323" cy="289.39" r="26.309"/><circle cx="167.733" cy="365.588" r="26.309"/><circle cx="256.469" cy="365.588" r="26.309"/><circle cx="345.205" cy="365.588" r="26.309"/><circle cx="167.733" cy="441.786" r="26.309"/><circle cx="345.205" cy="441.786" r="26.309"/><circle cx="257.351" cy="441.786" r="26.309"/></g><g><path d="m130.756 45.857h250.488v107.253h-250.488z" fill="#70e2ed"/></g><g><path d="m400.024 0h-288.049c-15.164 0-27.5 12.336-27.5 27.5v457c0 15.164 12.336 27.5 27.5 27.5h213.069c9.906-.312 9.9-14.711 0-15h-213.069c-6.893 0-12.5-5.607-12.5-12.5v-457c0-6.893 5.607-12.5 12.5-12.5h288.049c6.893 0 12.5 5.607 12.5 12.5v457c0 6.893-5.607 12.5-12.5 12.5h-35.017c-4.143 0-7.5 3.358-7.5 7.5s3.357 7.5 7.5 7.5h35.017c15.164 0 27.5-12.336 27.5-27.5v-457c0-15.164-12.336-27.5-27.5-27.5z"/><path d="m199.778 213.192c0-18.643-15.167-33.81-33.81-33.81-44.791 1.7-44.779 65.926 0 67.619 18.643 0 33.81-15.167 33.81-33.809zm-52.618 0c0-10.372 8.438-18.81 18.809-18.81 24.919.946 24.913 36.677 0 37.619-10.372 0-18.809-8.438-18.809-18.809z"/><path d="m288.515 213.192c0-18.643-15.167-33.81-33.81-33.81-44.791 1.7-44.779 65.926 0 67.619 18.643 0 33.81-15.167 33.81-33.809zm-52.619 0c0-10.372 8.438-18.81 18.809-18.81 24.919.945 24.913 36.677 0 37.619-10.372 0-18.809-8.438-18.809-18.809z"/><path d="m343.441 247.001c18.643 0 33.809-15.167 33.809-33.809-1.699-44.792-65.925-44.779-67.618 0 0 18.642 15.167 33.809 33.809 33.809zm0-52.619c10.371 0 18.809 8.438 18.809 18.81-.945 24.919-36.677 24.911-37.618 0 0-10.372 8.437-18.81 18.809-18.81z"/><path d="m166.851 323.199c18.643 0 33.809-15.167 33.809-33.809-1.7-44.792-65.926-44.779-67.619 0 .001 18.643 15.167 33.809 33.81 33.809zm0-52.618c10.372 0 18.809 8.438 18.809 18.81-.945 24.919-36.677 24.912-37.619 0 .001-10.372 8.438-18.81 18.81-18.81z"/><path d="m255.587 323.199c18.643 0 33.81-15.167 33.81-33.809-1.7-44.791-65.926-44.779-67.619 0 0 18.643 15.166 33.809 33.809 33.809zm0-52.618c10.372 0 18.81 8.438 18.81 18.81-.945 24.918-36.677 24.912-37.619 0 0-10.372 8.437-18.81 18.809-18.81z"/><path d="m344.323 323.199c18.643 0 33.809-15.167 33.809-33.809-1.699-44.792-65.925-44.779-67.618 0 0 18.643 15.167 33.809 33.809 33.809zm0-52.618c10.371 0 18.809 8.438 18.809 18.81-.945 24.919-36.677 24.911-37.618 0 0-10.372 8.437-18.81 18.809-18.81z"/><path d="m167.733 331.779c-18.643 0-33.81 15.167-33.81 33.81 1.7 44.791 65.926 44.779 67.619 0 0-18.643-15.167-33.81-33.809-33.81zm0 52.618c-10.372 0-18.81-8.438-18.81-18.809.946-24.919 36.677-24.913 37.619 0 0 10.372-8.438 18.809-18.809 18.809z"/><path d="m256.469 399.397c18.643 0 33.81-15.167 33.81-33.809-1.7-44.791-65.926-44.779-67.619 0 0 18.643 15.166 33.809 33.809 33.809zm0-52.618c10.372 0 18.81 8.438 18.81 18.81-.945 24.918-36.677 24.912-37.619 0 0-10.372 8.437-18.81 18.809-18.81z"/><path d="m345.205 331.779c-18.643 0-33.81 15.167-33.81 33.81 1.7 44.79 65.926 44.779 67.618 0 .001-18.643-15.165-33.81-33.808-33.81zm0 52.618c-10.372 0-18.81-8.438-18.81-18.809.945-24.919 36.676-24.913 37.618 0 .001 10.372-8.437 18.809-18.808 18.809z"/><path d="m167.733 407.977c-18.643 0-33.81 15.167-33.81 33.81 1.7 44.791 65.926 44.779 67.619 0 0-18.643-15.167-33.81-33.809-33.81zm0 52.619c-10.372 0-18.81-8.438-18.81-18.809.946-24.919 36.677-24.913 37.619 0 0 10.371-8.438 18.809-18.809 18.809z"/><path d="m345.205 475.596c18.643 0 33.809-15.167 33.809-33.809-1.699-44.792-65.925-44.779-67.618 0 0 18.642 15.166 33.809 33.809 33.809zm0-52.619c10.371 0 18.809 8.438 18.809 18.81-.945 24.919-36.677 24.911-37.618 0 0-10.372 8.437-18.81 18.809-18.81z"/><path d="m257.351 475.596c18.643 0 33.81-15.167 33.81-33.809-1.7-44.791-65.926-44.779-67.619 0 0 18.642 15.166 33.809 33.809 33.809zm0-52.619c10.372 0 18.81 8.438 18.81 18.81-.945 24.918-36.677 24.912-37.619 0 0-10.372 8.437-18.81 18.809-18.81z"/><path d="m388.744 153.109v-107.252c0-4.142-3.357-7.5-7.5-7.5h-175.347c-9.861.286-9.958 14.681 0 15h167.847v92.252h-235.488v-92.252h27.735c4.142 0 7.5-3.358 7.5-7.5s-3.358-7.5-7.5-7.5h-35.235c-4.142 0-7.5 3.358-7.5 7.5v107.252c0 4.142 3.358 7.5 7.5 7.5h250.488c4.143 0 7.5-3.358 7.5-7.5z"/><path d="m185.979 71.52c-4.142 0-7.5 3.358-7.5 7.5v7.473l-6.472-3.736c-3.587-2.073-8.174-.842-10.245 2.745s-.842 8.174 2.745 10.245l6.472 3.737-6.472 3.737c-3.587 2.071-4.816 6.658-2.745 10.245 3.037 3.796 6.452 4.711 10.245 2.745l6.472-3.736v7.473c0 4.142 3.358 7.5 7.5 7.5s7.5-3.358 7.5-7.5v-7.473l6.472 3.736c3.793 1.966 7.208 1.051 10.245-2.745 2.071-3.587.842-8.174-2.745-10.245l-6.472-3.737 6.472-3.737c3.587-2.071 4.816-6.658 2.745-10.245-2.071-3.588-6.659-4.817-10.245-2.745l-6.472 3.736v-7.473c0-4.142-3.358-7.5-7.5-7.5z"/><path d="m230.488 113.465c3.037 3.796 6.452 4.711 10.245 2.745l6.472-3.736v7.473c0 4.142 3.358 7.5 7.5 7.5 4.143 0 7.5-3.358 7.5-7.5v-7.473l6.472 3.736c3.793 1.966 7.208 1.051 10.245-2.745 2.071-3.587.842-8.174-2.745-10.245l-6.472-3.737 6.472-3.737c3.587-2.071 4.816-6.658 2.745-10.245-2.072-3.588-6.659-4.817-10.245-2.745l-6.472 3.736v-7.472c0-4.142-3.357-7.5-7.5-7.5-4.142 0-7.5 3.358-7.5 7.5v7.473l-6.472-3.736c-3.588-2.073-8.175-.842-10.245 2.745-2.071 3.587-.842 8.174 2.745 10.245l6.472 3.737-6.472 3.737c-3.587 2.07-4.816 6.656-2.745 10.244z"/><path d="m299.215 113.465c3.037 3.796 6.452 4.711 10.245 2.745l6.472-3.736v7.473c0 4.142 3.357 7.5 7.5 7.5s7.5-3.358 7.5-7.5v-7.473l6.472 3.736c3.793 1.966 7.208 1.051 10.245-2.745 2.071-3.587.842-8.174-2.745-10.245l-6.472-3.737 6.472-3.737c3.587-2.071 4.816-6.658 2.745-10.245-2.072-3.588-6.659-4.817-10.245-2.745l-6.472 3.736v-7.472c0-4.142-3.357-7.5-7.5-7.5s-7.5 3.358-7.5 7.5v7.473l-6.472-3.736c-3.59-2.073-8.175-.842-10.245 2.745-2.071 3.587-.842 8.174 2.745 10.245l6.472 3.737-6.472 3.737c-3.587 2.07-4.816 6.656-2.745 10.244z"/></g></g></svg>