<svg id="Layer_1" enable-background="new 0 0 512.073 512.073" height="512" viewBox="0 0 512.073 512.073" width="512" xmlns="http://www.w3.org/2000/svg"><g><g><g><g><path d="m157.514 226.951c-.002 0-.005 0-.007 0-9.855-.003-17.84-7.93-17.837-17.703l.044-98.438c.016-56.907 46.714-103.22 104.095-103.237h.033c27.79 0 53.911 10.729 73.557 30.213 19.653 19.492 30.472 45.411 30.463 72.983-.003 9.771-7.992 17.69-17.844 17.691-.002 0-.003 0-.006 0-9.855-.003-17.841-7.929-17.838-17.702.006-18.114-7.101-35.141-20.011-47.945-12.904-12.798-30.066-19.847-48.322-19.847-.008 0-.014 0-.021 0-37.715.012-68.408 30.451-68.419 67.855l-.044 98.44c-.003 9.771-7.992 17.69-17.843 17.69z" fill="#cad7e0"/><path d="m339.267 504.514-191.163.059c-30.862.009-55.884-25.012-55.874-55.874l.059-188.67c.01-30.836 25.004-55.83 55.84-55.84l191.163-.059c30.862-.009 55.884 25.012 55.874 55.874l-.059 188.67c-.009 30.836-25.004 55.831-55.84 55.84z" fill="#ffeb66"/><path d="m339.292 204.13-39.515.012c30.638.252 55.399 25.162 55.389 55.862l-.059 188.67c-.01 30.835-25.004 55.83-55.84 55.84h40c30.836-.009 55.83-25.004 55.84-55.84l.059-188.67c.01-30.862-25.012-55.883-55.874-55.874z" fill="#ffe017"/></g></g><g><ellipse cx="243.698" cy="354.352" fill="#ffc103" rx="86.537" ry="85.825"/><g><g><path d="m243.796 329.707 29.812-.118c.553-1.552 1.155-3.097 1.818-4.631 16.414-37.976 60.675-55.601 98.86-39.367s55.834 60.18 39.42 98.155-60.676 55.601-98.86 39.368c-19.951-8.482-34.291-24.531-41.1-43.34h-29.949v-50.067z" fill="#ecf4fa"/></g><path d="m374.287 285.59c-16.297-6.928-33.695-7.671-49.568-3.315 3.217.886 6.414 1.974 9.568 3.315 38.185 16.234 55.834 60.18 39.42 98.155-9.409 21.768-27.973 36.832-49.293 42.682 35.74 9.847 74.234-7.843 89.293-42.682 16.413-37.975-1.236-81.921-39.42-98.155z" fill="#e4eff7"/><ellipse cx="367.659" cy="354.352" fill="#fff" rx="21.354" ry="21.178"/></g></g></g><g><path d="m421.476 323.832c-4.314-10.788-10.741-20.327-18.821-28.221l.012-35.603c.01-34.509-28.895-63.377-63.376-63.377l-156.43.048s.041-85.855.041-85.855c.009-33.271 27.338-60.347 60.939-60.357 32.544-.687 61.501 27.709 60.833 60.289 1.625 33.248 49.229 33.516 50.688.016.455-89.08-102.299-141.684-175.03-90.976-7.985 5.5.528 17.858 8.51 12.351 37.002-26.304 91.565-21.56 123.275 10.965 18.222 18.071 28.252 42.098 28.244 67.655-.002 5.621-4.643 10.193-10.348 10.194-6.274-.555-9.72-3.955-10.34-10.2.829-40.659-35.22-76.146-75.856-75.293-41.849.012-75.906 33.815-75.916 75.351 0 0-.041 85.865-.041 85.865-6.894.002-13.794-.074-20.687.031l.04-85.902c.005-18.917 5.595-37.221 16.165-52.935 5.414-8.046-7.035-16.42-12.445-8.372-12.24 18.196-18.714 39.395-18.72 61.302l-.041 87.927c-27.219 7.099-47.375 31.888-47.383 61.293l-.06 188.67c-.01 34.509 28.897 63.376 63.377 63.376l191.162-.059c34.915-.011 63.328-28.424 63.338-63.337l.012-35.801c23.417-22.549 31.321-58.941 18.858-89.045zm-14.654 56.938c-6.201 14.348-17.298 26.187-31.247 33.336-8.681 4.793-2.12 17.598 6.842 13.349 1.775-.909 3.502-1.895 5.198-2.926l-.008 24.144c-.008 26.647-21.693 48.334-48.342 48.342l-191.162.059c-26.305 0-48.381-22.048-48.373-48.372l.06-188.67c.008-26.647 21.693-48.333 48.342-48.341l191.163-.059c26.306 0 48.38 22.047 48.372 48.372l-.008 24.02c-25.622-15.806-58.973-15.449-83.656-1.256-59.801-50.675-154.942-6.92-154.341 71.587-.603 78.422 94.391 122.216 154.211 71.691 11.014 6.181 24.429 10.52 37.169 10.52 3.988 0 7.308-3.142 7.486-7.167.185-4.138-3.021-7.642-7.159-7.826-27.036-1.202-51.361-18.906-60.572-44.352-1.074-2.969-3.894-4.947-7.052-4.947h-22.449v-35.095l22.343-.089c3.16-.013 5.975-2.006 7.035-4.983 12.921-36.325 55.257-54.676 90.678-39.613 33.678 13.494 50.549 55.26 35.47 88.276zm-163.123-74.192c-4.143 0-7.5 3.358-7.5 7.5v80.547c.3 9.9 14.692 9.923 15 0v-7.352h17.472c5.064 11.555 12.754 21.743 22.313 29.823-50.87 38.537-126.854 1.179-126.321-62.746-.534-63.981 75.592-101.331 126.432-62.661-9.522 8.007-17.385 18.274-22.608 30.42l-17.288.069v-8.1c0-4.142-3.358-7.5-7.5-7.5z"/><path d="m367.658 325.673c-15.91 0-28.854 12.865-28.854 28.678 1.448 37.993 56.266 37.981 57.708 0 .001-15.812-12.943-28.678-28.854-28.678zm0 42.357c-7.639 0-13.854-6.136-13.854-13.678.694-18.121 27.017-18.115 27.708 0 .001 7.542-6.214 13.678-13.854 13.678z"/></g></g></svg>