<svg id="Layer_1" enable-background="new 0 0 511.989 511.989" height="512" viewBox="0 0 511.989 511.989" width="512" xmlns="http://www.w3.org/2000/svg"><g><g><g><g><g><path d="m123.52 209.175.044-98.44c.01-37.404 30.703-67.844 68.419-67.855h.021c18.256 0 35.418 7.048 48.322 19.847 12.91 12.804 20.017 29.831 20.011 47.945v97.649h35.687v-97.637c.009-27.573-10.81-53.492-30.463-72.983-19.646-19.484-45.767-30.213-73.557-30.213-.009 0-.022 0-.033 0-57.38.016-104.078 46.329-104.094 103.236l-.044 98.438z" fill="#cad7e0"/><path d="m287.43 504.429-191.163.059c-30.862.009-55.884-25.012-55.874-55.874l.059-188.67c.01-30.835 25.004-55.83 55.84-55.84l191.163-.059c30.862-.009 55.884 25.012 55.874 55.874l-.059 188.67c-.01 30.835-25.004 55.83-55.84 55.84z" fill="#ffeb66"/><path d="m287.455 204.045-39.515.012c30.638.252 55.399 25.162 55.389 55.862l-.059 188.67c-.01 30.835-25.004 55.83-55.84 55.84h40c30.835-.009 55.83-25.004 55.84-55.84l.059-188.67c.01-30.862-25.012-55.884-55.874-55.874z" fill="#ffe017"/></g></g><ellipse cx="191.861" cy="354.266" fill="#ffc103" rx="86.537" ry="85.825"/></g><path d="m328.039 262.194c-12.158 28.598-5.322 60.603 14.829 81.767 7.935 8.334 17.944 14.841 28.763 18.759l.117 29.231c.003 1.918.819 3.747 2.245 5.033l6.157 5.553c2.977 2.685 2.996 7.348.04 10.036l-6.186 5.625c-1.407 1.28-2.208 3.096-2.205 5.003l.018 11.027c.003 1.918.819 3.747 2.245 5.033l6.157 5.553c2.977 2.686 2.996 7.348.04 10.036l-6.186 5.625c-1.408 1.28-2.208 3.096-2.205 5.003l.008 4.578c.003 2.034.921 3.963 2.499 5.251l18.435 15.052c2.501 2.042 6.087 2.039 8.57-.005l18.431-15.176c1.557-1.282 2.458-3.197 2.455-5.219l-.244-107.224c29.506-10.069 49.533-39.57 49.575-70.532.055-40.862-33.742-75.258-74.664-75.561-29.075-.096-56.745 16.975-68.894 45.552zm89.939 6.628c0 11.793-9.482 21.354-21.178 21.354s-21.178-9.561-21.178-21.354c0-11.794 9.482-21.354 21.178-21.354s21.178 9.56 21.178 21.354z" fill="#ecf4fa"/><g><path d="m471.596 292.203c.055-40.862-33.742-75.258-74.664-75.561-8.86-.029-17.588 1.544-25.788 4.543 15.409 5.677 28.557 16.328 37.476 29.916 5.645 3.836 9.359 10.34 9.359 17.72 0 .712-.038 1.415-.105 2.109 2.028 6.776 3.131 13.916 3.121 21.272-.042 30.917-20.011 60.374-49.446 70.485.028.01.055.022.083.032l.117 29.231c.003 1.918.819 3.747 2.245 5.033l6.157 5.553c2.978 2.685 2.996 7.348.04 10.036l-6.186 5.625c-1.407 1.28-2.208 3.096-2.205 5.003l.018 11.027c.003 1.918.819 3.747 2.245 5.033l6.157 5.553c2.978 2.686 2.996 7.348.04 10.036l-6.186 5.625c-1.407 1.28-2.208 3.096-2.205 5.003l.008 4.578c.003 2.034.921 3.963 2.499 5.251l18.435 15.052c2.501 2.042 6.087 2.039 8.57-.005l18.431-15.176c1.557-1.282 2.458-3.197 2.455-5.219l-.244-107.224c29.504-10.067 49.531-39.568 49.573-70.531z" fill="#e4eff7"/></g></g><g><path d="m191.861 260.941c-51.852 0-94.036 41.865-94.036 93.325 4.717 123.634 183.376 123.599 188.073-.001 0-51.459-42.185-93.324-94.037-93.324zm0 171.65c-43.581 0-79.036-35.136-79.036-78.325 3.962-103.762 154.127-103.733 158.073.001 0 43.187-35.456 78.324-79.037 78.324z"/><path d="m191.861 306.493c-4.143 0-7.5 3.358-7.5 7.5v80.547c0 4.142 3.357 7.5 7.5 7.5s7.5-3.358 7.5-7.5v-80.547c0-4.143-3.358-7.5-7.5-7.5z"/><path d="m425.479 268.822c0-15.911-12.865-28.854-28.679-28.854-37.993 1.448-37.983 56.266 0 57.709 15.813-.001 28.679-12.945 28.679-28.855zm-28.679 13.854c-7.542 0-13.679-6.215-13.679-13.854.691-18.355 26.669-18.351 27.357 0 .001 7.639-6.136 13.854-13.678 13.854z"/><path d="m479.096 292.214c-.236-69.368-83.571-109.509-136.164-62.97-8.404-15.236-22.689-26.275-39.408-30.635v-87.923c.3-90.437-107.833-143.585-179.15-87.998-7.729 5.856 1.333 17.809 9.061 11.952 61.667-48.076 155.32-2.207 155.088 76.044 0-.001 0 85.881 0 85.881-.358-.006-.714-.021-1.072-.021 0 0-19.615.006-19.615.006v-85.877c.014-41.29-34.716-75.293-75.855-75.293-41.85.012-75.906 33.816-75.917 75.352l-.041 85.865-19.733.006c-.32 0-.635.02-.953.024l.04-85.902c.005-17.946 5.074-35.452 14.659-50.625 5.179-8.199-7.504-16.211-12.682-8.011-11.101 17.573-16.972 37.847-16.978 58.63l-.041 87.927c-27.218 7.099-47.375 31.889-47.384 61.293 0 0-.059 188.67-.059 188.67-.005 16.931 6.585 32.848 18.557 44.82 11.968 11.968 27.876 18.557 44.8 18.557.01.014 191.169-.068 191.183-.059 34.914-.011 63.327-28.423 63.338-63.337 0 0 .027-88.179.027-88.179 4.213 2.858 8.682 5.351 13.355 7.394l.097 24.157c.01 6.613 5.388 11.815 10.29 15.613-14.243 10.15-14.521 32.233.068 42.278-9.141 6.971-16.087 22.197-4.976 31.264l18.436 15.053c5.193 4.239 12.901 4.238 18.08-.025l18.433-15.177c3.304-2.722 5.193-6.739 5.186-11.025l-.063-27.979c-.026-10.752-17.537-8.701-14.996 1.797l.059 25.857-17.675 14.553-17.715-14.464-.006-3.911c12.745-9.85 12.54-22.048-.053-31.896l-.016-10.38c12.742-9.853 12.541-22.047-.053-31.897l-.116-28.933c-.013-3.146-1.987-5.95-4.945-7.021-70.34-26.818-52.971-130.074 22.466-131.527 75.055 2.262 93.324 104.978 22.946 131.496-3.042 1.038-5.084 3.9-5.077 7.115l.086 37.935c-1.702 9.674 15.031 12.743 15.003 1.289l-.077-34.086c29.388-12.458 49.517-42.807 49.562-75.677zm-348.031-181.476c3.264-79.941 118.082-79.915 121.773-.065 0-.001 0 85.883 0 85.883l-121.814.037zm204.735 236.612s-.031 101.236-.031 101.236c-.009 26.648-21.694 48.334-48.342 48.342-.007.006-191.171.054-191.179.059-12.916 0-25.06-5.03-34.193-14.164-9.137-9.137-14.167-21.286-14.163-34.208 0 0 .059-188.67.059-188.67.009-26.648 21.695-48.334 48.343-48.342 0 0 27.059-.008 27.059-.008.111.009.222.009.333 0 .005 0 163.779-.05 163.786-.05 19.515 0 36.905 11.624 44.464 29.31-24.535 30.958-22.846 77.474 3.864 106.495z"/></g></g></svg>