<svg id="Layer_1" enable-background="new 0 0 512 512" height="512" viewBox="0 0 512 512" width="512" xmlns="http://www.w3.org/2000/svg"><g><g><g><g><g><path d="m7.5 473.084v-243.107c0-17.342 14.059-31.401 31.401-31.401h434.198c17.342 0 31.401 14.059 31.401 31.401v243.108c0 17.342-14.059 31.401-31.401 31.401h-434.198c-17.342-.001-31.401-14.059-31.401-31.402z" fill="#ffeb66"/></g></g><path d="m473.099 198.576h-40c17.342 0 31.401 14.059 31.401 31.401v243.108c0 17.342-14.059 31.401-31.401 31.401h40c17.342 0 31.401-14.059 31.401-31.401v-243.108c0-17.342-14.059-31.401-31.401-31.401z" fill="#ffe017"/><path d="m7.5 245.985h497v74h-497z" fill="#9fb7c7"/><path d="m464.5 245.985h40v74h-40z" fill="#95afc2"/><path d="m44 357.985h246v58h-246z" fill="#fff"/></g><g><g><path d="m441.358 147.868h-274.59v-66.279h274.59c5.523 0 10 4.477 10 10v46.279c0 5.523-4.477 10-10 10z" fill="#70e2ed"/><path d="m441.358 81.589h-40c5.523 0 10 4.477 10 10v46.279c0 5.523-4.477 10-10 10h40c5.523 0 10-4.477 10-10v-46.279c0-5.523-4.477-10-10-10z" fill="#65d9e3"/><g><g><path d="m147.121 168.854-66.82.021c-10.859.003-19.662-8.8-19.659-19.659l.021-66.82c.003-10.849 8.798-19.644 19.647-19.647l66.82-.021c10.859-.003 19.662 8.8 19.659 19.659l-.021 66.82c-.003 10.849-8.798 19.643-19.647 19.647z" fill="#ffeb66"/></g></g></g></g></g><g><g><g><path d="m473.099 191.076h-434.198c-21.45 0-38.901 17.45-38.901 38.9v243.108c0 21.45 17.451 38.9 38.901 38.9h361.448c9.697 0 9.697-15 0-15h-361.448c-13.179 0-23.901-10.722-23.901-23.9v-145.6h482v145.6c0 13.179-10.722 23.9-23.901 23.9h-32.763c-9.697 0-9.697 15 0 15h32.763c21.45 0 38.901-17.45 38.901-38.9v-243.108c0-21.45-17.451-38.9-38.901-38.9zm-434.198 15h434.198c13.179 0 23.901 10.722 23.901 23.9v8.509h-482v-8.509c0-13.178 10.722-23.9 23.901-23.9zm-23.901 106.409v-59h482v59z"/></g><g><path d="m44 350.485c-4.142 0-7.5 3.357-7.5 7.5v58c0 4.143 3.358 7.5 7.5 7.5h246c4.142 0 7.5-3.357 7.5-7.5v-58c0-4.143-3.358-7.5-7.5-7.5zm238.5 58h-231v-43h231z"/></g><g><path d="m80.293 176.374c0 .001 66.827-.021 66.83-.021 12.844-.003 23.628-8.979 26.43-20.985h267.805c9.649 0 17.5-7.851 17.5-17.5v-46.279c0-9.649-7.851-17.5-17.5-17.5h-268.359c-3.069-9.608-11.541-16.928-21.549-18.517-.11-16.937 2.271-31.342-11.029-44.546-23.299-23.69-64.6-6.551-64.389 26.679 0-.001-.011 17.866-.011 17.866-12.934 2.068-22.854 13.307-22.858 26.822l-.004 11.933c-.003 9.413 14.997 9.893 15 .006l.004-11.934c.002-6.708 5.453-12.168 12.147-12.17h66.825c6.633 0 12.156 5.525 12.154 12.157l-.02 65.475c0 6.909-4.53 13.491-12.15 13.494l-66.821.021c-6.471 0-12.158-5.684-12.156-12.156l.005-14.914c.003-9.413-14.997-9.893-15-.006l-.005 14.915c-.004 14.679 12.437 27.16 27.151 27.16zm33.465-161.389c12.206-.257 22.959 10.496 22.703 22.7 0 0-.011 17.542-.011 17.542h-45.429l.011-17.517c.004-12.526 10.198-22.721 22.726-22.725zm330.1 76.604v46.279c0 1.379-1.122 2.5-2.5 2.5h-267.087l.016-51.279h267.071c1.378 0 2.5 1.121 2.5 2.5z"/></g><g><path d="m121.239 130.604v-27.235c0-4.143-3.358-7.5-7.5-7.5s-7.5 3.357-7.5 7.5v27.235c.302 9.907 14.693 9.919 15 0z"/></g></g><g><g><path d="m217.958 122.228c9.992 0 10.008-15 0-15-9.992 0-10.009 15 0 15z"/></g><g><path d="m278.865 122.228c9.992 0 10.008-15 0-15-9.992 0-10.009 15 0 15z"/></g><g><path d="m339.772 122.228c9.992 0 10.008-15 0-15-9.992 0-10.009 15 0 15z"/></g><g><path d="m400.679 122.228c9.992 0 10.008-15 0-15-9.992 0-10.008 15 0 15z"/></g></g></g></g></svg>