<svg id="Layer_1" enable-background="new 0 0 513.457 513.457" height="512" viewBox="0 0 513.457 513.457" width="512" xmlns="http://www.w3.org/2000/svg"><g><g><g><g><g><path d="m409.649 447.92-313.045-.199c-15.972-.01-28.746-13.063-28.531-29.155l3.485-259.085 187.067-121.452 183.818 121.689-3.485 259.085c-.214 16.091-13.337 29.128-29.309 29.117z" fill="#ecf4fa"/><path d="m258.625 38.029-20.195 13.111 164.013 108.577-3.485 259.085c-.21 15.754-12.794 28.571-28.309 29.093l39 .025c15.972.01 29.095-13.026 29.31-29.118l3.485-259.085z" fill="#e4eff7"/><path d="m36.045 213.608c-9.457-.006-18.662-4.678-24.09-13.263-8.531-13.493-4.498-31.54 9.006-40.308l222.217-146.45c9.672-6.279 22.04-6.274 31.547.02l218.299 146.731c13.27 8.785 16.82 26.837 7.928 40.318-8.893 13.483-26.861 17.288-40.128 8.505l-202.663-136.381-206.306 136.121c-4.913 3.189-10.403 4.711-15.81 4.707z" fill="#ff7ebc"/><path d="m493.025 160.338-24.167-16.244c12.494 9.001 15.672 26.507 6.994 39.665-8.893 13.483-26.861 17.288-40.128 8.505l-202.665-136.382-206.306 136.121c-4.913 3.189-10.403 4.711-15.81 4.708-.317 0-.632-.019-.948-.03.559 1.25 1.208 2.476 1.959 3.664 5.428 8.585 14.633 13.257 24.09 13.263 5.407.003 10.897-1.518 15.81-4.708l206.307-136.12 202.664 136.381c13.267 8.784 31.235 4.978 40.128-8.505 8.892-13.481 5.342-31.533-7.928-40.318z" fill="#fa71b3"/></g></g></g><g><g><path d="m319.604 504.529-127.262.039c-20.681.006-37.448-16.761-37.442-37.442l.039-127.262c.006-20.663 16.755-37.412 37.418-37.418l127.262-.039c20.681-.006 37.448 16.761 37.442 37.442l-.039 127.262c-.006 20.662-16.755 37.411-37.418 37.418z" fill="#ffeb66"/><path d="m319.62 302.407-39.512.012c20.455.256 36.96 16.912 36.953 37.429l-.039 127.262c-.006 20.663-16.755 37.412-37.418 37.418l-87.751.027c.164.002.325.012.489.012l127.262-.039c20.663-.006 37.412-16.755 37.418-37.418l.039-127.262c.007-20.681-16.76-37.448-37.441-37.441z" fill="#ffe017"/></g></g></g><g><path d="m497.209 154.113s-218.343-146.76-218.343-146.76c-11.988-7.936-27.6-7.959-39.815-.029l-153.958 101.465c-8.086 5.702-.223 17.724 8.254 12.525 0 0 153.915-101.436 153.915-101.436 7.161-4.651 16.316-4.657 23.279-.046 0 0 218.343 146.76 218.343 146.76 9.807 6.492 12.412 19.921 5.808 29.936-6.276 9.516-19.962 12.844-29.68 6.411l-202.664-136.382c-2.511-1.689-5.792-1.705-8.317-.037l-206.259 136.09c-24.83 14.346-46.208-19.652-22.684-36.311 0 0 35.219-23.21 35.219-23.21 3.458-2.279 4.415-6.931 2.135-10.39s-6.932-4.413-10.389-2.136c0 0-35.176 23.183-35.176 23.183-16.91 10.98-21.961 33.682-11.26 50.605 10.661 16.863 33.773 21.58 50.37 10.809 0 0 7.74-5.107 7.74-5.107v208.463c-.24 19.88 16.08 36.691 36.026 36.703l47.653.03-.004 11.874c-.008 24.443 20.523 44.943 44.944 44.943l127.262-.039c24.759-.008 44.908-20.158 44.916-44.917l.004-11.723c.011.007 48.28.027 48.292.031 20.019 0 36.523-16.378 36.792-36.518.045-.079-.031-208.158 0-208.249 0 0 7.075 4.761 7.075 4.761 41.353 24.708 79.478-33.178 40.522-61.299zm-62.599 264.638c-.186 11.956-9.95 21.67-21.792 21.67-.008.003-48.278-.034-48.288-.031l.015-50.008c.003-10.169-16.337-9.184-15 .989l-.023 75.737c-.005 16.493-13.428 29.915-29.921 29.921l-127.262.039c-16.244 0-29.944-13.651-29.939-29.939l.039-127.263c.005-16.493 13.427-29.915 29.921-29.92l127.262-.039c16.245 0 29.944 13.65 29.939 29.939l-.002 9.45c-1.399 9.583 14.997 12.367 15 1.091l.003-10.537c.008-23.801-19.662-44.169-43.501-44.909l.025-40.217c.011-35.413-29.646-65.029-65.03-65.029-35.863.011-65.049 29.197-65.06 65.058l-.025 40.229c-24.12.743-43.523 20.585-43.531 44.88l-.031 100.389-47.648-.03c-11.66-.008-21.035-10.24-21.035-21.654v-218.41l179.394-118.364 176.49 118.767zm-128.55-123.84-100.09.031.025-40.182c.008-27.597 22.467-50.056 50.065-50.064 27.206 0 50.033 22.796 50.025 50.022z"/><path d="m256.025 372.309c-4.142 0-7.5 3.357-7.5 7.5v51.871c0 4.143 3.358 7.5 7.5 7.5s7.5-3.357 7.5-7.5v-51.871c0-4.142-3.357-7.5-7.5-7.5z"/></g></g></svg>