<svg id="Layer_1" enable-background="new 0 0 512 512" height="512" viewBox="0 0 512 512" width="512" xmlns="http://www.w3.org/2000/svg"><g><g><g><path d="m304.141 346.976h-274.134c-9.669 0-17.507-7.838-17.507-17.507v-304.462c0-9.669 7.838-17.507 17.507-17.507h274.134c9.669 0 17.507 7.838 17.507 17.507v304.461c0 9.669-7.838 17.508-17.507 17.508z" fill="#9fb7c7"/><path d="m47.531 221.087v-87.697c0-50.198 40.694-90.892 90.892-90.892h57.302c50.198 0 90.892 40.694 90.892 90.892v87.697c0 50.198-40.694 90.892-90.892 90.892h-57.303c-50.198-.001-90.891-40.694-90.891-90.892z" fill="#ade888"/><g><path d="m101.788 504.5v-341.125c0-36.022 29.23-65.224 65.286-65.224 36.057 0 65.286 29.202 65.286 65.224v341.125z" fill="#ffe2ce"/><path d="m167.074 98.151c-6.978 0-13.696 1.105-20 3.13 26.271 8.44 45.286 33.043 45.286 62.094v341.125h40v-341.125c0-36.022-29.229-65.224-65.286-65.224z" fill="#ffdbc2"/><g><path d="m149.678 218.701h34.792c11.428 0 20.692-9.255 20.692-20.672v-43.449c0-16.059-15.72-30.831-38.088-30.831-21.023 0-38.088 14.773-38.088 30.831v43.448c0 11.417 9.264 20.673 20.692 20.673z" fill="#fff"/></g></g></g><g><path d="m399.976 504.5c-54.966 0-99.525-44.559-99.525-99.524v-79.903c0-54.966 44.559-99.524 99.524-99.524 54.966 0 99.524 44.559 99.524 99.524v79.903c.001 54.965-44.558 99.524-99.523 99.524z" fill="#ade888"/><path d="m399.976 225.549c-6.851 0-13.539.693-20 2.011 45.38 9.258 79.525 49.398 79.525 97.513v79.903c0 48.115-34.144 88.255-79.525 97.513 6.461 1.318 13.15 2.011 20 2.011 54.966 0 99.524-44.559 99.524-99.524v-79.903c0-54.966-44.559-99.524-99.524-99.524z" fill="#a3de7e"/></g></g><g><path d="m199.355 127.421c-26.401-23.168-77.307-8.07-77.87 27.16 0-.001 0 43.448 0 43.448 0 15.534 12.647 28.173 28.192 28.173h34.792c15.545 0 28.192-12.639 28.192-28.173v-43.448c.001-10.094-4.849-19.993-13.306-27.16zm-1.693 70.607c0 7.264-5.918 13.173-13.192 13.173h-34.792c-7.274 0-13.192-5.909-13.192-13.173v-43.448c2.541-30.818 59.199-31.026 61.176 0z"/><path d="m187.806 335.039c4.142 0 7.5-3.357 7.5-7.5s-3.358-7.5-7.5-7.5h-41.463c-9.902.301-9.922 14.693 0 15-.001 0 41.463 0 41.463 0z"/><path d="m203.234 349.307h-72.32c-9.893.297-9.93 14.691 0 15h72.32c9.893-.297 9.93-14.691 0-15z"/><path d="m399.976 218.049c-27.137 0-51.943 10.158-70.828 26.864v-219.906c-.001-13.789-11.218-25.007-25.007-25.007h-274.134c-13.789 0-25.007 11.218-25.007 25.007v26.993c0 9.697 15 9.697 15 0v-26.993c0-5.518 4.489-10.007 10.007-10.007h274.133c5.518 0 10.007 4.489 10.007 10.007v236.2c-17.418 23.13-22.489 48.573-21.196 78.268h-53.091v-30.445c33.114-16.633 54.257-50.619 54.257-87.944v-87.696c0-54.254-44.139-98.393-98.392-98.393h-57.302c-54.253 0-98.392 44.139-98.392 98.393v87.697c0 37.325 21.143 71.311 54.257 87.943v30.445h-64.28c-5.518 0-10.007-4.489-10.007-10.007v-236.468c0-9.697-15-9.697-15 0v236.469c0 13.789 11.218 25.007 25.007 25.007h64.28v150.024c.298 9.851 14.666 9.974 15 0v-341.125c0-31.829 25.923-57.725 57.787-57.725 31.863 0 57.786 25.896 57.786 57.725v341.125c.244 9.814 14.688 9.99 15 0v-150.024h53.091v50.5c0 59.014 48.011 107.024 107.024 107.024 17.044 0 34.011-4.111 49.065-11.891 3.681-1.901 5.122-6.426 3.221-10.105-1.902-3.68-6.426-5.121-10.105-3.221-59.85 31.878-135.059-13.915-134.204-81.809-.001.001-.001-79.901-.001-79.901 0-50.742 41.282-92.024 92.024-92.024s92.024 41.282 92.024 92.024v79.902c0 21.668-7.682 42.716-21.631 59.265-2.67 3.168-2.267 7.899.9 10.568 3.167 2.67 7.898 2.267 10.568-.9 16.227-19.251 25.163-43.731 25.163-68.932v-79.902c0-59.014-48.011-107.025-107.024-107.025zm-232.902-127.399c-40.134 0-72.786 32.624-72.786 72.725v128.481c-24.171-15.089-39.257-41.739-39.257-70.769v-87.697c0-45.982 37.41-83.393 83.392-83.393h57.302c45.982 0 83.392 37.41 83.392 83.393v87.696c0 29.03-15.086 55.681-39.257 70.77v-128.481c0-40.101-32.652-72.725-72.786-72.725z"/><path d="m325.851 401.667c0 25.311 12.716 48.617 34.016 62.345 3.764 2.151 7.219 1.404 10.367-2.24 2.244-3.482 1.241-8.124-2.24-10.367-16.996-10.954-27.143-29.548-27.143-49.737v-36.643c-.295-9.894-14.693-9.928-15 0 0-.001 0 36.642 0 36.642z"/><path d="m399.976 475.792c40.873 0 74.125-33.252 74.125-74.125 0-4.143-3.357-7.5-7.5-7.5s-7.5 3.357-7.5 7.5c0 32.602-26.523 59.125-59.125 59.125-9.887.286-9.933 14.696 0 15z"/><path d="m466.601 372.524c4.143 0 7.5-3.357 7.5-7.5v-36.643c0-26.379-14.199-50.98-37.056-64.203-3.586-2.073-8.173-.848-10.248 2.736-2.074 3.586-.849 8.174 2.736 10.248 18.238 10.55 29.567 30.176 29.567 51.219v36.643c.001 4.143 3.358 7.5 7.501 7.5z"/><path d="m399.976 254.257c-40.873 0-74.125 33.252-74.125 74.125 0 4.143 3.357 7.5 7.5 7.5s7.5-3.357 7.5-7.5c0-32.602 26.523-59.125 59.125-59.125 9.886-.286 9.932-14.696 0-15z"/><path d="m352.477 330.562v34.463c.309 9.903 14.687 9.924 15 0v-34.463c1.631-43.052 63.371-43.046 64.998 0 .29 9.904 14.703 9.915 15-.001-2.389-62.928-92.62-62.91-94.998.001z"/><path d="m447.475 399.487v-34.463c-.309-9.903-14.687-9.924-15 0v34.463c-1.631 43.052-63.371 43.046-64.998 0-.29-9.904-14.703-9.915-15 .001 2.388 62.927 92.619 62.909 94.998-.001z"/><path d="m385.089 373.865c-4.143 0-7.5 3.357-7.5 7.5v13.251c1.124 29.658 43.652 29.653 44.773 0-.312-9.919-14.694-9.908-15 0-.311 9.763-14.464 9.762-14.773 0v-13.251c0-4.142-3.358-7.5-7.5-7.5z"/><path d="m422.362 335.433c-1.124-29.658-43.652-29.653-44.773 0 .312 9.919 14.694 9.908 15 0 0-4.073 3.313-7.388 7.387-7.388s7.387 3.314 7.387 7.388v13.068c0 4.143 3.357 7.5 7.5 7.5s7.5-3.357 7.5-7.5v-13.068z"/></g></g></svg>