<svg id="Layer_1" enable-background="new 0 0 513.377 513.377" height="512" viewBox="0 0 513.377 513.377" width="512" xmlns="http://www.w3.org/2000/svg"><g><g><g><g><g><path d="m70.922 505.877h-24.779c-11.295 0-20.451-9.156-20.451-20.451v-65.996h65.681v65.996c0 11.295-9.156 20.451-20.451 20.451z" fill="#9fb7c7"/><path d="m467.205 505.877h-24.779c-11.295 0-20.451-9.156-20.451-20.451v-65.996h65.681v65.996c0 11.295-9.156 20.451-20.451 20.451z" fill="#9fb7c7"/><path d="m119.036 157.517-27.663 115.733 165.335 16.46 165.334-16.46-27.663-115.733-137.671-11.14z" fill="#70e2ed"/><path d="m392.309 148.855c-3.246-13.881-15.613-23.697-29.855-23.697h-40c14.242 0 26.609 9.816 29.855 23.697l29.733 124.395h40z" fill="#65d9e3"/><path d="m421.963 273.25 52.855 52.906c8.22 8.228 12.838 19.387 12.838 31.023l-32.841 42.512-198.107 22.686-201.706-22.686-29.321-42.512c0-11.636 4.618-22.795 12.838-31.023l52.855-52.906z" fill="#ff7ebc"/><path d="m474.818 326.156-52.855-52.906h-40l52.855 52.906c8.22 8.228 12.838 19.387 12.838 31.023v42.512l40-42.512c0-11.636-4.618-22.795-12.838-31.023z" fill="#fa71b3"/><path d="m487.627 452.689h-461.918c-9.688 0-17.541-7.853-17.541-17.541v-17.916c0-9.688 7.853-17.541 17.541-17.541h461.918c9.688 0 17.541 7.853 17.541 17.541v17.916c0 9.687-7.853 17.541-17.541 17.541z" fill="#ecf4fa"/><path d="m487.628 399.691h-40c9.688 0 17.541 7.853 17.541 17.541v17.916c0 9.688-7.853 17.541-17.541 17.541h40c9.688 0 17.541-7.853 17.541-17.541v-17.916c-.001-9.688-7.854-17.541-17.541-17.541z" fill="#e4eff7"/><path d="m25.681 357.179h42.935c18.975 0 37.172 7.545 50.589 20.975l21.516 21.537h-115.02z" fill="#ffeb66"/><path d="m487.656 357.179h-42.936c-18.975 0-37.172 7.545-50.589 20.975l-21.516 21.537h115.021z" fill="#ffeb66"/><path d="m447.646 357.179h40v42.512h-40z" fill="#ffe017"/><g fill="#ff7ebc"><path d="m421.963 273.25 18.954-33.915c3.614-6.466 10.437-10.471 17.839-10.471h25.971c11.289 0 20.441 9.161 20.441 20.461v3.464c0 11.3-9.152 20.461-20.441 20.461z"/><path d="m91.373 273.25-18.954-33.915c-3.614-6.466-10.437-10.471-17.839-10.471h-25.971c-11.289 0-20.441 9.161-20.441 20.461v3.464c0 11.3 9.152 20.461 20.441 20.461z"/></g></g><g><path d="m392.309 148.855c-3.246-13.881-15.613-23.697-29.855-23.697h-211.493c-14.242 0-26.609 9.816-29.855 23.697l-2.071 8.663h275.343z" fill="#ff7ebc"/></g><path d="m392.309 148.855c-3.246-13.881-15.613-23.697-29.855-23.697h-40c14.242 0 26.609 9.816 29.855 23.697l2.071 8.663h40z" fill="#fa71b3"/></g></g><g><g><path d="m301.221 222.713-89.116.028c-14.482.004-26.223-11.737-26.219-26.219l.028-89.116c.004-14.469 11.733-26.198 26.203-26.203l89.116-.028c14.482-.004 26.223 11.737 26.219 26.219l-.028 89.116c-.005 14.47-11.734 26.198-26.203 26.203z" fill="#ffeb66"/><path d="m301.232 81.175-39.511.012c14.256.257 25.734 11.888 25.73 26.207l-.027 89.116c-.005 14.469-11.733 26.198-26.203 26.203l-49.605.015c.163.003.325.012.489.012l89.116-.028c14.469-.004 26.198-11.733 26.203-26.203l.027-89.116c.004-14.481-11.737-26.222-26.219-26.218z" fill="#ffe017"/></g></g></g><g><path d="m512.668 252.789c.818-16.325-10.838-31.426-27.941-31.426h-25.971c-10.108 0-19.452 5.484-24.386 14.312l-9.524 17.042c.001-.003-25.248-105.631-25.252-105.639-4.085-17.326-19.346-29.422-37.14-29.422h-27.507l.003-10.26c.006-17.083-13.373-31.943-30.461-33.566l.016-26.045c.009-25.99-21.816-47.785-47.784-47.785-26.353.008-47.799 21.454-47.807 47.804l-.017 26.057c-17.073 1.63-30.478 16.05-30.484 33.542l-.003 10.254h-27.449c-17.818 0-33.099 12.127-37.149 29.454l-25.266 105.706-9.58-17.14c-4.934-8.829-14.277-14.313-24.386-14.313h-25.97c-36.808 0-36.808 59.387 0 59.387h44.67l-40.066 40.105c-9.693 9.703-15.032 22.603-15.032 36.324v36.17c-10.14 3.203-17.513 12.697-17.513 23.882v17.916c0 11.189 7.378 20.686 17.523 23.886v26.392c0 15.412 12.539 27.951 27.951 27.951h24.779c15.412 0 27.951-12.539 27.951-27.951v-25.237h22.823c4.143 0 7.5-3.357 7.5-7.5s-3.357-7.5-7.5-7.5h-95.987c-5.536 0-10.041-4.504-10.041-10.041v-17.916c0-5.536 4.505-10.04 10.041-10.04h461.918c5.536 0 10.041 4.504 10.041 10.04v17.916c0 5.537-4.505 10.041-10.041 10.041h-325.954c-9.882.288-9.938 14.691 0 15h252.802v25.237c0 15.412 12.538 27.951 27.95 27.951h24.779c15.412 0 27.951-12.539 27.951-27.951v-26.396c10.14-3.204 17.513-12.698 17.513-23.883v-17.916c0-11.185-7.373-20.679-17.513-23.882v-36.17c0-13.722-5.339-26.621-15.032-36.324l-40.066-40.105h44.67c15.407 0 27.941-12.543 27.941-27.961zm-428.795 232.637c0 7.142-5.81 12.951-12.951 12.951h-24.779c-7.142 0-12.951-5.81-12.951-12.951v-25.237h50.682v25.237zm383.331 12.951h-24.779c-7.141 0-12.95-5.81-12.95-12.951v-25.237h50.681v25.237c0 7.141-5.81 12.951-12.952 12.951zm-19.74-255.384c2.286-4.089 6.612-6.63 11.292-6.63h25.971c17.317 0 17.317 29.387 0 29.387h-49.98zm-85.01-110.336c10.614 0 19.745 7.095 22.417 17.36h-49.934l.005-17.36zm-105.729-117.657c17.777 0 32.787 15.022 32.781 32.779l-.016 25.9-65.593.02.017-25.889c.006-18.085 14.725-32.804 32.811-32.81zm-105.764 117.657h27.444l-.005 17.36h-49.856c2.652-10.25 11.79-17.36 22.417-17.36zm-26.006 32.361h53.441l-.01 31.501c-.006 18.26 15.478 33.722 33.721 33.722l48.554-.015c4.143-.001 7.499-3.36 7.498-7.502s-3.36-7.499-7.502-7.498c0 0-48.555.015-48.555.015-9.965 0-18.72-8.749-18.716-18.717 0 0 .027-89.115.027-89.115.004-10.312 8.395-18.702 18.704-18.705l89.117-.027c9.965 0 18.72 8.749 18.716 18.717l-.015 50.12c.007.005-.017 38.988-.012 38.995-.004 10.311-8.395 18.701-18.702 18.705-10.735-.306-10.708 15.315.003 15 18.575-.006 33.693-15.124 33.699-33.7 0 0 .01-31.495.01-31.495h53.528l24.078 100.732h-311.662zm-109.287 87.771c-.751-7.843 4.157-16.426 12.941-16.426h25.971c4.68 0 9.006 2.541 11.292 6.631l12.718 22.756h-49.98c-7.136 0-12.942-5.814-12.942-12.961zm17.529 139.402-.012-27.512c41.024.673 58.914-6.036 89.442 27.512zm357.512 0c30.538-33.572 48.507-26.832 89.442-27.512l-.012 27.512zm88.671-42.511c-34.802.039-63.509-3.968-90.554 23.175 0-.001-19.319 19.337-19.319 19.337h-225.677s-19.319-19.338-19.319-19.338c-27.042-27.15-55.812-23.134-90.554-23.174 1.428-6.856 4.806-13.156 9.868-18.223l50.657-50.707h324.373l50.657 50.707c5.062 5.067 8.44 11.367 9.868 18.223z"/><path d="m336.447 354.551h-159.557c-4.143 0-7.5 3.357-7.5 7.5s3.357 7.5 7.5 7.5h159.557c9.864-.285 9.954-14.684 0-15z"/><path d="m256.7 127.878c-4.143 0-7.5 3.357-7.5 7.5v36.322c0 4.143 3.357 7.5 7.5 7.5s7.5-3.357 7.5-7.5v-36.322c0-4.143-3.358-7.5-7.5-7.5z"/></g></g></svg>