<svg id="Layer_1" enable-background="new 0 0 512.182 512.182" height="512" viewBox="0 0 512.182 512.182" width="512" xmlns="http://www.w3.org/2000/svg"><g><g><g><circle cx="160.779" cy="161.092" fill="#9fb7c7" r="153.572"/><path d="m160.779 7.52c-6.779 0-13.453.444-20 1.295 75.365 9.802 133.573 74.24 133.573 152.277s-58.207 142.475-133.573 152.277c6.547.852 13.221 1.295 20 1.295 84.816 0 153.573-68.757 153.573-153.572s-68.757-153.572-153.573-153.572z" fill="#95afc2"/><g><circle cx="160.779" cy="161.092" fill="#70e2ed" r="104.332"/><circle cx="160.779" cy="161.092" fill="#ecf4fa" r="26.801"/></g></g><g><g><path d="m501.665 349.463c3.707 6.861 3.336 15.199-.964 21.705-21.553 32.613-95.568 133.352-209.733 133.352-123.19 0-190.896-100.118-210.337-133.038-3.934-6.661-3.934-14.915 0-21.576 19.441-32.92 87.148-133.038 210.337-133.038 129.527 0 192.683 99.258 210.697 132.595z" fill="#ecf4fa"/></g><circle cx="290.969" cy="360.694" fill="#70e2ed" r="104.38"/><path d="m290.969 256.314c-6.841 0-13.526.666-20 1.922 48.078 9.331 84.38 51.651 84.38 102.458 0 50.806-36.302 93.127-84.38 102.458 6.474 1.256 13.159 1.922 20 1.922 57.647 0 104.38-46.732 104.38-104.38 0-57.647-46.733-104.38-104.38-104.38z" fill="#65d9e3"/><circle cx="290.969" cy="360.694" fill="#9fb7c7" r="40.912"/><ellipse cx="323.137" cy="336.115" fill="#ecf4fa" rx="20.422" ry="20.483" transform="matrix(.707 -.707 .707 .707 -143.025 326.938)"/></g><g><g><path d="m449.26 192.379-63.146.02c-10.262.003-18.581-8.316-18.578-18.578l.02-63.146c.003-10.253 8.314-18.563 18.566-18.566l63.146-.02c10.262-.003 18.581 8.316 18.578 18.578l-.02 63.146c-.003 10.252-8.314 18.563-18.566 18.566z" fill="#ffeb66"/><path d="m449.268 92.089-39.756.012c10.148.129 18.337 8.386 18.334 18.566l-.02 63.146c-.003 10.253-8.314 18.563-18.566 18.566l-23.391.007c.083.001.162.012.245.012l63.146-.02c10.253-.003 18.563-8.314 18.566-18.566l.02-63.146c.003-10.261-8.317-18.58-18.578-18.577z" fill="#ffe017"/></g></g></g><g><path d="m160.779 195.394c18.914 0 34.302-15.388 34.302-34.302-1.725-45.442-66.884-45.43-68.603 0 0 18.914 15.388 34.302 34.301 34.302zm0-53.603c10.643 0 19.302 8.658 19.302 19.301-.971 25.571-37.636 25.565-38.603 0 0-10.643 8.659-19.301 19.301-19.301z"/><path d="m90.667 161.094c0 38.658 31.452 70.109 70.112 70.109 4.143 0 7.5-3.357 7.5-7.5s-3.357-7.5-7.5-7.5c-30.389 0-55.112-24.722-55.112-55.109-.287-9.888-14.696-9.931-15 0z"/><path d="m160.779 105.981c30.39 0 55.113 24.724 55.113 55.113.287 9.888 14.696 9.931 15 0 0-38.66-31.453-70.113-70.113-70.113-4.143 0-7.5 3.357-7.5 7.5s3.358 7.5 7.5 7.5z"/><path d="m508.265 345.898c-20.819-38.526-79.863-124.985-194.116-135.477 34.246-101.335-46.106-212.193-153.371-210.4-175.514 1.916-222.688 241.375-61.755 309.875-10.874 13.783-19.126 26.504-24.849 36.196-5.318 9.007-5.318 20.196 0 29.203 55.534 103.749 215.479 201.496 359.542 81.881 7.52-6.117-1.948-17.755-9.468-11.632-135.703 112.917-285.116 19.263-337.155-77.879-2.542-4.298-2.542-9.644-.002-13.946 43.071-72.936 116.481-129.351 203.879-129.351 121.459 0 183.194 89.976 204.099 128.66 2.396 4.433 2.156 9.799-.623 14.005-12.215 18.484-26.659 36.558-41.771 52.269-6.722 6.989 4.087 17.385 10.811 10.398 15.733-16.355 30.767-35.166 43.475-54.396 5.833-8.83 6.333-20.098 1.304-29.406zm-247.58-134.518c50.818-103.401-67.548-206.807-163.152-142.529-3.413 2.345-4.28 7.014-1.936 10.428 2.346 3.414 7.016 4.281 10.429 1.937 88.451-58.83 193.033 44.54 135.283 133.638-35.371 8.005-65.136 23.991-89.564 42.652-73.042-5.696-113.449-93.639-69.747-152.728 2.411-3.368 1.635-8.052-1.732-10.464-3.366-2.41-8.053-1.637-10.465 1.73-47.038 63.843-9.926 158.188 66.504 174.183-10.186 9.034-19.245 18.382-27.213 27.528-150.269-58.702-109.986-280.764 51.69-282.735 98.767-1.77 171.976 102.082 137.852 194.474-12.683-.374-25.368.203-37.949 1.886z"/><path d="m179.089 360.694c0 61.69 50.189 111.88 111.88 111.88 148.22-5.625 148.18-218.157-.001-223.759-61.69 0-111.879 50.188-111.879 111.879zm208.76 0c0 53.42-43.46 96.88-96.88 96.88-128.347-4.87-128.313-188.908.001-193.759 53.419 0 96.879 43.46 96.879 96.879z"/><path d="m290.969 312.281c-64.145 2.439-64.113 94.401.001 96.824 27.019 0 49.347-23.231 48.365-50.203 30.234-23.21-3.591-67.346-33.895-44.41-4.666-1.465-9.515-2.211-14.471-2.211zm0 81.825c-18.424 0-33.412-14.988-33.412-33.412 0-20.235 18.999-36.265 38.92-32.951-5.631 17.938 8.898 37.013 27.736 36.302-1.686 16.855-15.951 30.061-33.244 30.061zm30.819-70.879c7.883-.785 15.031 6.299 14.236 14.237-.598 5.981-5.558 10.941-11.539 11.539-17.109.286-19.762-22.961-2.697-25.776z"/><path d="m386.108 199.899c.001.006 63.15-.024 63.153-.02 14.368-.004 26.061-11.696 26.064-26.064l.02-63.146c.004-14.188-11.931-26.08-26.08-26.08 0 0-52.609.016-52.609.016l.011-26.505c.004-11.611 9.452-21.061 21.063-21.063 11.204 0 21.046 9.835 21.042 21.042-.001 4.142 3.357 7.502 7.5 7.502 4.141 0 7.499-3.356 7.5-7.498-2.349-47.606-70.034-47.897-72.106.013 0 0-.012 26.904-.012 26.904-12.248 2.128-21.597 12.827-21.601 25.673l-.02 63.146c-.001 14.096 11.947 26.08 26.075 26.08zm-11.052-89.222c.002-6.102 4.967-11.066 11.068-11.068l63.146-.02c5.896 0 11.078 5.178 11.076 11.076l-.02 63.146c-.002 6.102-4.967 11.066-11.068 11.068l-63.146.02c-5.896 0-11.078-5.178-11.076-11.076z"/><path d="m417.691 161.243c4.143 0 7.5-3.357 7.5-7.5v-23c-.303-9.907-14.694-9.917-15 0v23c0 4.143 3.358 7.5 7.5 7.5z"/></g></g></svg>