<svg id="Layer_1" enable-background="new 0 0 512 512" height="512" viewBox="0 0 512 512" width="512" xmlns="http://www.w3.org/2000/svg"><g><g><path d="m450.179 429.659h-388.358v-193.456c0-11.046 8.954-20 20-20h348.358c11.046 0 20 8.954 20 20z" fill="#cad7e0"/><path d="m96.394 249.591h319.211v180.069h-319.211z" fill="#9fb7c7"/><path d="m464.659 469.5h-417.318c-22.004 0-39.841-17.837-39.841-39.841h497c0 22.004-17.837 39.841-39.841 39.841z" fill="#ecf4fa"/><path d="m464.5 429.659c0 22.003-17.837 39.841-39.841 39.841h40c22.003 0 39.841-17.837 39.841-39.841z" fill="#e4eff7"/><g><g><g><path d="m316.606 335.259-121.227.037c-19.7.006-35.672-15.966-35.666-35.666l.037-121.227c.006-19.683 15.961-35.638 35.644-35.644l121.227-.037c19.7-.006 35.672 15.966 35.666 35.666l-.037 121.227c-.006 19.684-15.961 35.638-35.644 35.644z" fill="#ffeb66"/><path d="m316.621 142.722-39.511.012c19.474.257 35.183 16.118 35.177 35.654l-.037 121.227c-.006 19.683-15.961 35.638-35.644 35.644l-81.716.025c.163.002.325.012.489.012l121.227-.037c19.683-.006 35.638-15.961 35.644-35.644l.037-121.227c.006-19.7-15.965-35.672-35.666-35.666z" fill="#ffe017"/></g></g><g><circle cx="487.988" cy="59.012" fill="#ffc103" r="16.512"/><circle cx="433.681" cy="128.947" fill="#ffeb66" r="16.512"/></g><g><circle cx="24.012" cy="59.012" fill="#ffc103" r="16.512"/><circle cx="78.319" cy="128.947" fill="#ffeb66" r="16.512"/></g></g></g><g><path d="m504.5 422.159h-46.821v-185.957c0-15.163-12.336-27.5-27.5-27.5h-70.401l.009-30.312c.008-22.878-18.585-42.239-41.438-43.126l.024-37.964c.01-33.927-28.403-62.3-62.302-62.3-34.358.011-62.319 27.973-62.33 62.328l-.024 37.975c-23.007.89-41.46 19.879-41.468 43.1l-.009 30.3h-70.42c-15.164 0-27.5 12.337-27.5 27.5v185.957h-46.82c-4.142 0-7.5 3.357-7.5 7.5 0 26.103 21.237 47.34 47.341 47.34h9.659c9.697 0 9.697-15 0-15h-9.659c-15.252 0-28.072-10.612-31.463-24.841h480.244c-3.391 14.229-16.211 24.841-31.463 24.841h-361.659c-9.697 0-9.697 15 0 15h361.659c26.104 0 47.341-21.237 47.341-47.341 0-4.142-3.358-7.5-7.5-7.5zm-74.321-198.457c6.893 0 12.5 5.607 12.5 12.5v185.957h-19.574v-172.568c0-4.143-3.358-7.5-7.5-7.5h-55.838l.006-18.389zm-265.326 106.455c7.961 7.961 19.263 12.64 30.529 12.64l121.227-.037c23.781-.007 43.134-19.36 43.142-43.143l.013-42.526h48.342v165.068h-304.211v-165.068h48.331l-.013 42.538c-.004 11.531 4.485 22.374 12.64 30.528zm30.544-179.897c13.978-.004 27.957-.012 41.936-.019 9.91-.31 9.907-14.695-.004-15-.001-.002-28.61.014-28.612.013l.024-37.919c.008-26.092 21.243-47.326 47.335-47.335 25.722 0 47.304 21.552 47.296 47.294l-.024 37.931-26.041.004c-9.935.333-9.897 14.69.002 15 13.108-.002 26.218-.006 39.324-.006 15.223 0 28.158 12.907 28.153 28.164 0 0-.037 121.227-.037 121.227-.005 15.516-12.631 28.142-28.146 28.146l-121.227.037c-15.281 0-28.169-12.841-28.164-28.164 0 0 .037-121.227.037-121.227.006-15.515 12.632-28.141 28.148-28.146zm-126.076 85.942c0-6.893 5.607-12.5 12.5-12.5h70.415l-.006 18.389h-55.835c-4.142 0-7.5 3.357-7.5 7.5v172.568h-19.574z"/><path d="m256.043 273.366c4.142 0 7.5-3.357 7.5-7.5v-49.411c0-4.143-3.358-7.5-7.5-7.5s-7.5 3.357-7.5 7.5v49.411c0 4.143 3.358 7.5 7.5 7.5z"/><path d="m24.012 83.024c10.82 0 19.988-7.196 22.98-17.052h43.74l31.907 31.907c1.406 1.406 3.314 2.196 5.303 2.196h42.058c4.142 0 7.5-3.357 7.5-7.5s-3.358-7.5-7.5-7.5h-38.952l-31.907-31.906c-1.406-1.406-3.314-2.196-5.303-2.196h-47.202c-9.31-25.036-46.127-19.001-46.636 8.039 0 13.24 10.772 24.012 24.012 24.012zm0-33.024c4.969 0 9.012 4.043 9.012 9.012-.423 11.928-17.603 11.925-18.024 0 0-4.969 4.043-9.012 9.012-9.012z"/><path d="m101.125 121.447c-8.846-25.546-46.273-19.861-46.818 7.5.547 27.367 37.977 33.043 46.818 7.5h46.875c4.142 0 7.5-3.357 7.5-7.5s-3.358-7.5-7.5-7.5zm-22.806 16.513c-4.969 0-9.012-4.043-9.012-9.013.424-11.927 17.602-11.924 18.024 0 0 4.97-4.042 9.013-9.012 9.013z"/><path d="m342 100.076h42.059c1.989 0 3.897-.79 5.303-2.196l31.907-31.907h43.74c8.374 26.05 46.41 20.721 46.992-6.961-.511-27.047-37.335-33.068-46.636-8.039h-47.202c-1.989 0-3.897.79-5.303 2.196l-31.907 31.907h-38.953c-4.142 0-7.5 3.357-7.5 7.5s3.358 7.5 7.5 7.5zm145.988-50.076c4.969 0 9.012 4.043 9.012 9.012-.423 11.928-17.603 11.925-18.024 0 0-4.969 4.043-9.012 9.012-9.012z"/><path d="m410.875 121.447h-46.875c-4.142 0-7.5 3.357-7.5 7.5s3.358 7.5 7.5 7.5h46.875c8.846 25.548 46.273 19.862 46.818-7.5-.547-27.366-37.977-33.042-46.818-7.5zm31.818 7.5c0 4.97-4.043 9.013-9.012 9.013-11.927-.423-11.925-17.603 0-18.024 4.969 0 9.012 4.043 9.012 9.011z"/></g></g></svg>