<svg id="Layer_1" enable-background="new 0 0 511.221 511.221" height="512" viewBox="0 0 511.221 511.221" width="512" xmlns="http://www.w3.org/2000/svg"><g><g><g><g><g><path d="m349.379 503.72h-187.538c-22.091 0-40-17.909-40-40v-416.22c0-22.091 17.909-40 40-40h187.538c22.091 0 40 17.909 40 40v416.22c0 22.092-17.908 40-40 40z" fill="#70e2ed"/><path d="m349.379 7.5h-40c22.091 0 40 17.909 40 40v416.22c0 22.091-17.909 40-40 40h40c22.091 0 40-17.909 40-40v-416.22c0-22.091-17.908-40-40-40z" fill="#65d9e3"/><path d="m279.788 51.014h-48.355c-11.39 0-21.818-6.387-26.993-16.534l-13.76-26.98h129.86l-13.76 26.98c-5.175 10.147-15.602 16.534-26.992 16.534z" fill="#9fb7c7"/></g></g><g fill="#fff"><circle cx="182.36" cy="291.61" r="17.75"/><circle cx="255.61" cy="291.61" r="17.75"/><circle cx="328.86" cy="291.61" r="17.75"/><circle cx="182.36" cy="364.86" r="17.75"/><circle cx="255.61" cy="364.86" r="17.75"/><circle cx="328.86" cy="364.86" r="17.75"/><circle cx="182.36" cy="438.11" r="17.75"/><circle cx="255.61" cy="438.11" r="17.75"/><circle cx="328.86" cy="438.11" r="17.75"/></g></g><g><g><path d="m280.97 225.449-50.726.016c-8.243.003-14.926-6.681-14.924-14.924l.016-50.726c.003-8.236 6.679-14.912 14.915-14.915l50.726-.016c8.243-.003 14.926 6.681 14.924 14.924l-.016 50.726c-.003 8.236-6.679 14.912-14.915 14.915z" fill="#ffeb66"/></g></g></g><g><path d="m349.379 0h-50.555c-9.697 0-9.697 15 0 15h9.472l-8.198 16.073c-3.914 7.674-11.697 12.44-20.312 12.44h-48.354c-8.615 0-16.398-4.767-20.312-12.44l-8.196-16.073h53.372c9.697 0 9.697-15 0-15h-94.455c-26.191 0-47.5 21.309-47.5 47.5v416.221c0 26.191 21.309 47.5 47.5 47.5h44.112c4.142 0 7.5-3.357 7.5-7.5s-3.358-7.5-7.5-7.5h-44.112c-17.92 0-32.5-14.579-32.5-32.5v-416.221c0-17.921 14.58-32.5 32.5-32.5h24.245l11.673 22.888c6.488 12.723 19.392 20.626 33.674 20.626h48.354c14.282 0 27.186-7.903 33.674-20.626l11.673-22.888h24.245c17.92 0 32.5 14.579 32.5 32.5v416.221c0 17.921-14.58 32.5-32.5 32.5h-103.576c-4.142 0-7.5 3.357-7.5 7.5s3.358 7.5 7.5 7.5h103.576c26.191 0 47.5-21.309 47.5-47.5v-416.221c0-26.191-21.308-47.5-47.5-47.5z"/><path d="m230.36 291.61c0 13.923 11.327 25.25 25.25 25.25 33.452-1.269 33.442-49.236 0-50.5-13.922 0-25.25 11.328-25.25 25.25zm35.5 0c0 5.652-4.598 10.25-10.25 10.25-13.579-.515-13.576-19.987 0-20.5 5.652 0 10.25 4.598 10.25 10.25z"/><path d="m328.86 316.86c13.923 0 25.25-11.327 25.25-25.25-1.269-33.452-49.236-33.442-50.5 0 0 13.923 11.328 25.25 25.25 25.25zm0-35.5c5.652 0 10.25 4.598 10.25 10.25-.515 13.579-19.987 13.576-20.5 0 0-5.652 4.598-10.25 10.25-10.25z"/><path d="m157.11 438.11c.605 29.018 40.406 34.712 49.363 7.5h25.024c3.202 10.272 12.801 17.75 24.113 17.75 29.012-.601 34.716-40.405 7.5-49.363v-25.024c7.902-2.463 14.15-8.711 16.613-16.613h25.024c2.463 7.902 8.711 14.15 16.613 16.613v25.024c-27.223 8.965-21.504 48.765 7.5 49.363 29.009-.601 34.718-40.403 7.5-49.363v-25.024c10.272-3.202 17.75-12.801 17.75-24.113-.601-29.012-40.405-34.716-49.363-7.5h-25.024c-3.202-10.272-12.801-17.75-24.113-17.75-29.012.601-34.716 40.405-7.5 49.363v25.024c-7.902 2.463-14.15 8.711-16.613 16.613h-25.024c-2.463-7.902-8.711-14.15-16.613-16.613v-25.024c23.526-7.463 23.511-40.773 0-48.226v-25.024c27.223-8.965 21.504-48.765-7.5-49.363-29.009.601-34.718 40.403-7.5 49.363v25.024c-23.526 7.463-23.511 40.773 0 48.226v25.024c-10.272 3.202-17.75 12.801-17.75 24.113zm171.75 10.25c-5.652 0-10.25-4.598-10.25-10.25.515-13.579 19.987-13.576 20.5 0 0 5.653-4.598 10.25-10.25 10.25zm0-93.75c5.652 0 10.25 4.598 10.25 10.25-.515 13.579-19.987 13.576-20.5 0 0-5.652 4.598-10.25 10.25-10.25zm-73.25 0c5.652 0 10.25 4.598 10.25 10.25-.515 13.579-19.987 13.576-20.5 0 0-5.652 4.598-10.25 10.25-10.25zm0 73.25c5.652 0 10.25 4.598 10.25 10.25-.515 13.579-19.987 13.576-20.5 0 0-5.652 4.598-10.25 10.25-10.25zm-73.25 20.5c-12.979-.398-13.805-18.829-1-20.449.653.096 1.348.096 2 0 12.815 1.625 11.97 20.056-1 20.449zm0-167c5.652 0 10.25 4.598 10.25 10.25-.515 13.579-19.987 13.576-20.5 0 0-5.652 4.598-10.25 10.25-10.25zm0 73.25c5.652 0 10.25 4.598 10.25 10.25-.515 13.579-19.987 13.576-20.5 0 0-5.652 4.598-10.25 10.25-10.25z"/><path d="m255.644 102.135c8.215 0 15.431 7.212 15.428 15.429-.001 4.142 3.355 7.501 7.498 7.502 4.141.001 7.501-3.356 7.502-7.498-1.869-40.219-59.197-40.391-60.874.009 0 0-.009 20.408-.009 20.408-9.925 2.303-17.349 11.213-17.352 21.828l-.016 50.726c-.004 12.202 10.258 22.426 22.426 22.426l50.726-.016c12.354-.003 22.409-10.057 22.413-22.412l.016-50.726c.004-12.201-10.258-22.427-22.426-22.427l-40.786.013.009-19.816c.001-8.515 6.93-15.443 15.445-15.446zm25.335 50.249c3.749 0 7.423 3.764 7.422 7.423l-.016 50.726c-.001 4.088-3.328 7.415-7.417 7.416 0 0-50.726.015-50.727.016-3.749 0-7.422-3.762-7.421-7.422l.016-50.726c.001-4.088 3.328-7.415 7.417-7.416z"/><path d="m255.61 201.912c4.142 0 7.5-3.357 7.5-7.5v-18.476c-.304-9.909-14.694-9.916-15 0v18.475c0 4.144 3.358 7.501 7.5 7.501z"/></g></g></svg>