<svg id="Layer_1" enable-background="new 0 0 512 512" height="512" viewBox="0 0 512 512" width="512" xmlns="http://www.w3.org/2000/svg"><g><g><g><g><path d="m474.417 348.106h-432.628v-255.205c0-14.029 11.328-25.401 25.301-25.401h382.025c13.974 0 25.301 11.372 25.301 25.401v255.205z" fill="#ffeb66"/><path d="m98.771 2.992h314.459v323.475h-314.459z" fill="#ecf4fa" transform="matrix(0 1 -1 0 420.73 -91.271)"/><path d="m377.738 7.5h40v314.459h-40z" fill="#e4eff7"/><path d="m452.352 410.74h-388.465c-12.658 0-23.368-9.391-25.071-21.983l-31.081-229.804c-2.062-15.247 9.745-28.819 25.071-28.819h39.085c8.038 0 15.598 3.834 20.367 10.33l17.05 23.224h369.887c15.342 0 27.153 13.598 25.066 28.857l-26.842 196.25c-1.72 12.575-12.423 21.945-25.067 21.945z" fill="#ffc103"/><g fill="#ffb300"><path d="m479.194 163.688h-40c15.342 0 27.153 13.598 25.066 28.857l-26.842 196.25c-1.72 12.575-12.423 21.946-25.066 21.946h40c12.644 0 23.346-9.37 25.066-21.946l26.842-196.25c2.088-15.259-9.724-28.857-25.066-28.857z"/><path d="m52.258 140.465 17.05 23.224h40l-17.05-23.224c-4.769-6.496-12.329-10.33-20.367-10.33h-39.085c-.159 0-.316.01-.475.013 7.873.137 15.245 3.94 19.927 10.317z"/></g></g><g><g><path d="m316.606 504.463-121.227.037c-19.7.006-35.672-15.966-35.666-35.666l.037-121.227c.006-19.683 15.961-35.638 35.644-35.644l121.227-.037c19.7-.006 35.672 15.966 35.666 35.666l-.037 121.227c-.006 19.683-15.961 35.637-35.644 35.644z" fill="#ffeb66"/><path d="m316.622 311.925-39.511.012c19.474.257 35.183 16.118 35.177 35.654l-.037 121.227c-.006 19.683-15.961 35.638-35.644 35.644l-81.716.025c.163.002.325.012.489.012l121.227-.037c19.683-.006 35.638-15.961 35.644-35.644l.037-121.227c.006-19.7-15.966-35.672-35.666-35.666z" fill="#ffe017"/></g></g></g></g><g><path d="m503.877 167.421c-5.627-6.449-13.515-10.402-21.96-11.107v-63.413c0-18.141-14.715-32.901-32.802-32.901h-23.878v-52.5c0-4.143-3.357-7.5-7.5-7.5h-223.744c-9.843.277-9.974 14.678 0 15h216.243v141.188h-297.13l-11.343-15.45v-125.738h51.204c4.142 0 7.5-3.357 7.5-7.5s-3.358-7.5-7.5-7.5h-58.704c-4.142 0-7.5 3.357-7.5 7.5v52.5h-19.673c-18.087 0-32.801 14.76-32.801 32.901v29.733c-20.005-.074-36.747 16.915-33.986 37.323l31.081 229.804c2.195 16.235 16.169 28.479 32.503 28.479h88.342s-.016 50.592-.016 50.592c-.008 23.375 19.817 43.168 43.169 43.168 0 0 69.951-.024 69.951-.024 9.92-.324 9.904-14.69-.003-15-.003.002-69.95.023-69.952.024-15.281 0-28.169-12.841-28.164-28.164 0 0 .037-121.228.037-121.228.005-15.515 12.631-28.141 28.146-28.146 0 0 121.228-.037 121.228-.037 15.281 0 28.167 12.841 28.163 28.164 0 0-.037 121.227-.037 121.227-.005 15.515-12.632 28.141-28.146 28.146l-11.461.001c-4.142 0-7.499 3.358-7.499 7.501 0 4.142 3.358 7.499 7.501 7.499 0 0 11.463-.001 11.463-.001 23.781-.008 43.135-19.362 43.142-43.143 0 0 .016-50.58.016-50.58h92.587c16.31 0 30.28-12.222 32.496-28.429l26.843-196.25c1.29-9.44-1.558-18.967-7.816-26.139zm-78.639-92.421h23.878c9.815 0 17.802 8.03 17.802 17.901v63.287h-41.68zm-375.949 17.901c0-9.871 7.986-17.901 17.801-17.901h19.673v51.23c-4.557-2.326-9.649-3.595-14.872-3.595h-22.602zm254.06 211.529-94.632.029.024-37.921c.008-26.092 21.243-47.326 47.335-47.335 25.722 0 47.304 21.552 47.296 47.294zm193.481-112.902-26.843 196.25c-1.206 8.814-8.787 15.462-17.635 15.462h-92.582l.017-55.646c.008-22.879-18.586-42.238-41.438-43.126l.024-37.964c.012-33.928-28.404-62.301-62.302-62.301-34.358.011-62.319 27.973-62.33 62.328l-.024 37.975c-23.007.891-41.46 19.879-41.467 43.099l-.017 55.636h-88.346c-8.862 0-16.445-6.658-17.639-15.488l-31.081-229.805c-1.426-10.548 6.954-20.313 17.639-20.313h39.085c5.626 0 10.98 2.717 14.322 7.269l17.049 23.224c1.413 1.925 3.658 3.062 6.046 3.062h369.887c10.694-.002 19.079 9.782 17.635 20.338z"/><path d="m248.543 385.658v49.411c.3 9.9 14.692 9.924 15 0v-49.411c0-4.143-3.357-7.5-7.5-7.5-4.142 0-7.5 3.358-7.5 7.5z"/><path d="m359.034 62.557h-206.067c-9.848.278-9.969 14.68 0 15h206.068c9.848-.278 9.968-14.681-.001-15z"/><path d="m359.034 104.936h-206.067c-9.848.278-9.969 14.68 0 15h206.068c9.848-.278 9.968-14.681-.001-15z"/></g></g></svg>