<svg id="Layer_1" enable-background="new 0 0 512.573 512.573" height="512" viewBox="0 0 512.573 512.573" width="512" xmlns="http://www.w3.org/2000/svg"><g><g><g><path d="m410.862 159.113h-1.685c-.83-83.735-68.955-151.362-152.886-151.362-83.931 0-152.056 67.627-152.886 151.362h-1.685c-51.875 0-93.928 42.053-93.928 93.928v1.064c0 51.875 42.053 93.928 93.928 93.928h309.143c51.875 0 93.928-42.053 93.928-93.928v-1.064c-.001-51.875-42.054-93.928-93.929-93.928z" fill="#ecf4fa"/></g><path d="m410.862 159.113h-1.685c-.83-83.735-68.955-151.362-152.886-151.362-6.78 0-13.454.448-20 1.303 74.496 9.733 132.124 73.087 132.886 150.059h1.685c51.875 0 93.928 42.053 93.928 93.928v1.064c0 51.875-42.053 93.928-93.928 93.928h40c51.875 0 93.928-42.053 93.928-93.928v-1.064c0-51.875-42.053-93.928-93.928-93.928z" fill="#e4eff7"/><g><g><path d="m330.343 505.027-148.124.046c-24.071.007-43.587-19.508-43.579-43.579l.046-148.124c.007-24.05 19.502-43.545 43.552-43.552l148.124-.046c24.071-.007 43.587 19.508 43.579 43.579l-.046 148.124c-.007 24.05-19.502 43.545-43.552 43.552z" fill="#ffeb66"/><path d="m330.362 269.772-39.511.012c23.845.256 43.098 19.66 43.091 43.567l-.046 148.124c-.008 24.05-19.502 43.545-43.552 43.552l-108.613.034c.163.002.325.012.489.012l148.124-.046c24.05-.007 43.545-19.502 43.552-43.552l.046-148.124c.007-24.071-19.509-43.587-43.58-43.579z" fill="#ffe017"/></g></g></g><g><path d="m416.443 151.765c-4.551-106.517-116.76-179.817-216.241-141.43-9.084 3.389-3.838 17.442 5.247 14.051 52.07-19.82 113.926-6.74 153.169 32.974 27.386 27.134 42.678 63.297 43.06 101.828.051 5.082 4.907 7.466 9.186 7.426 114.019 4.82 114.875 169.606-.001 173.92h-29.429l.008-27.18c.01-27.591-23.041-50.843-50.633-51.072l.03-48.01c.012-40.653-33.839-74.459-74.459-74.459-41.066.012-74.485 33.431-74.497 74.493l-.031 48.021c-27.963.217-50.657 23.029-50.666 51.041l-.008 27.165h-29.458c-114.869-4.334-114.033-169.068.001-173.92 4.277.04 9.133-2.344 9.183-7.426.109-45.843 23.327-90.019 60.524-116.613 7.869-5.668-.897-17.837-8.766-12.172-20.006 14.407-36.669 33.514-48.187 55.255-10.766 20.319-17.048 43.032-18.331 66.107-129.992 12.266-125.657 199.267 5.577 203.769-.001 0 29.452 0 29.452 0l-.032 105.959c-.01 27.781 23.327 51.081 51.081 51.081l148.124-.046c28.141-.008 51.042-22.908 51.051-51.05l.013-42.922c.002-9.413-14.998-9.892-15-.004l-.013 42.922c-.007 19.874-16.181 36.048-36.055 36.054l-148.124.046c-19.563 0-36.083-16.537-36.077-36.077l.045-148.124c.007-19.874 16.181-36.048 36.055-36.055l148.124-.046c19.563 0 36.083 16.539 36.077 36.078l-.02 65.231c-.002 9.413 14.998 9.892 15 .004l.007-23.052h29.435c131.298-4.512 135.479-191.559 5.579-203.767zm-160.06 3.048c32.383 0 59.465 27.064 59.455 59.452l-.03 48.01-118.957.037.031-47.999c.01-32.798 26.701-59.49 59.501-59.5z"/><path d="m161.212 84.091c-5.992 7.424 5.437 17.152 11.674 9.418 20.496-25.403 50.896-39.974 83.404-39.974 9.697 0 9.697-15 0-15-37.066 0-71.72 16.605-95.078 45.556z"/><path d="m248.843 359.863v60.374c.298 9.897 14.692 9.927 15 0v-60.374c-.298-9.896-14.691-9.926-15 0z"/></g></g></svg>