<svg id="Capa_1" enable-background="new 0 0 512 512" height="512" viewBox="0 0 512 512" width="512" xmlns="http://www.w3.org/2000/svg"><g><g><path d="m280.341 56.043c44.407 5.872 78.677 43.875 78.677 89.885s-34.27 84.013-78.677 89.885c54.633 7.228 102.677-35.269 102.677-89.885 0-54.639-48.061-97.104-102.677-89.885z" fill="#596c76"/><g fill="#7a8c98"><path d="m282.096 236.012c1.306.146 2.618.275 3.94.367-1.323-.091-2.634-.22-3.94-.367z"/><path d="m281.253 235.914c.281.034.562.066.843.098-.282-.032-.563-.064-.843-.098z"/><path d="m281.253 235.914c-.279-.034-.554-.082-.832-.118-.027.004-.053.009-.08.013.302.04.608.068.912.105z"/><path d="m286.096 236.012c1.306.146 2.618.275 3.94.367-1.323-.091-2.634-.22-3.94-.367z"/><path d="m286.096 236.012c-.281-.031-.563-.063-.843-.098.28.034.561.066.843.098z"/><path d="m280.421 235.796c35.499 0 82.597-35.151 82.597-89.873 0-53.991-46.31-89.885-82.677-89.885-44.407 5.872-78.677 43.875-78.677 89.885 0 46.036 34.315 84.034 78.757 89.873z"/><path d="m284.341 235.809c.302.04.608.069.912.105-.279-.034-.554-.082-.832-.118-.027.004-.053.009-.08.013z"/></g><path d="m404.572 367.892v-50.419l75.928-35.627 6 2.259v110.275c0 5.614-5.849 9.21-10.822 6.876z" fill="#7a8c98"/><path d="m491.677 276.6-11.177 5.245v95.848c0 4.53-6.352 10.108-12.823 7.071l-63.104-29.61v20.738l87.104 40.872c5.968 2.801 12.823-1.555 12.823-8.147 0-24.761 0-99.048 0-123.868 0-6.593-6.855-10.949-12.823-8.149z" fill="#596c76"/><path d="m329.338 286.363v120.638h62.723c5.711 0 10.34-4.629 10.34-10.34v-99.958c0-5.711-4.63-10.34-10.34-10.34z" fill="#b6c4cf"/><path d="m412.061 286.363c-13.402 0-10.5 0-24 0 5.711 0 10.34 4.629 10.34 10.34v87.958c0 5.711-4.63 10.34-10.34 10.34-6.298 0-36.39 0-58.723 0v12h82.723c5.711 0 10.34-4.629 10.34-10.34v-99.958c.001-5.711-4.629-10.34-10.34-10.34z" fill="#9facba"/><g fill="#7a8c98"><path d=""/><path d="m179.912 184.385c10.974-38.271-11.155-78.192-49.426-89.166-7.334-2.103-8.978-1.79-11.942-1.79-26.46 4.513-49.331 23.688-57.224 51.216-11.53 40.209 13.505 83.293 57.368 90.956 19.817 0 51.428-17.052 61.224-51.216z"/><path d=""/></g><g fill="#596c76"><path d="m150.486 95.219c-10.743-3.081-21.616-3.551-31.942-1.79 42.827 7.24 69.133 49.924 57.368 90.956-7.894 27.528-30.764 46.703-57.224 51.216 35.704 6.035 71.008-15.587 81.224-51.216 10.974-38.27-11.155-78.191-49.426-89.166z"/><circle cx="130.61" cy="164.504" r="19.464"/><circle cx="292.341" cy="145.929" r="31.578"/></g><path d="m239.099 294.98v-102.593c0-12.126-9.829-21.958-21.954-21.961h-23.605c-12.129 0-21.961 9.833-21.961 21.961v102.593z" fill="#9facba"/><path d="m237.138 170.426h-24c12.129 0 21.961 9.833 21.961 21.961v102.593h24v-102.593c0-12.128-9.832-21.961-21.961-21.961z" fill="#8d9ca8"/><path d="m67.952 444.759-3.741-4-.013.018c-.076-1.046-.049 9.681-.049-186.937 0-9.518 7.716-17.234 17.234-17.234h258.761c9.518 0 17.234 7.716 17.234 17.234v190.919c-26.106 0-281.534 0-289.426 0z" fill="#596c76"/><path d="m334.307 425.405h-114.959c-4.759 0-8.617-3.858-8.617-8.617v-48.001-48.001c0-4.759 3.858-8.617 8.617-8.617h114.959c4.759 0 8.617 3.858 8.617 8.617v96.001c0 4.76-3.858 8.618-8.617 8.618z" fill="#eaf6ff"/><circle cx="250.977" cy="368.788" fill="#8d9ca8" r="10"/><circle cx="302.679" cy="368.788" fill="#8d9ca8" r="10"/><circle cx="153.438" cy="368.788" fill="#b6c4cf" r="22.828"/><path d="m360.144 456.759c-12.243 0-266.475 0-278.761 0-9.102 0-16.537-7.06-17.172-16h271.932c9.518 0 17.234-7.716 17.234-17.234v-169.685c0-9.518-7.716-17.234-17.234-17.234h24c9.518 0 17.234 7.716 17.234 17.234v185.685c.001 9.518-7.715 17.234-17.233 17.234z" fill="#465a61"/><path d="m103.229 313.642h-84.039v-36.29h84.039c10.021 0 18.145 8.124 18.145 18.145 0 10.021-8.124 18.145-18.145 18.145z" fill="#b6c4cf"/><path d="m101.427 277.352h-82.237v4 26.29h66.039c10.752 0 19.239-9.342 18.029-20.146.392-3.566-.256-7.016-1.831-10.144z" fill="#b6c4cf"/><path d="m31.714 318.66h-20.274c-2.176 0-3.94-1.764-3.94-3.94v-38.444c0-2.176 1.764-3.94 3.94-3.94h20.274c2.176 0 3.94 1.764 3.94 3.94v38.444c0 2.175-1.764 3.94-3.94 3.94z" fill="#8d9ca8"/><path d="m103.229 277.352h-1.802c6.018 11.944-2.606 26.29-16.198 26.29h-66.039v10h84.039c10.021 0 18.145-8.124 18.145-18.145 0-10.021-8.124-18.145-18.145-18.145z" fill="#9facba"/><path d="m11.44 272.334c-2.176 0-3.94 1.765-3.94 3.94v36.385h16.214c2.176 0 3.94-1.764 3.94-3.94 0-16.159 0-20.108 0-36.385-9.307 0-6.881 0-16.214 0z" fill="#8d9ca8"/><path d="m31.714 272.334h-8.06v32.385c0 2.176-1.764 3.94-3.94 3.94h-12.214v6.06c0 2.176 1.764 3.94 3.94 3.94h20.274c2.176 0 3.94-1.764 3.94-3.94v-38.444c0-2.176-1.764-3.941-3.94-3.941z" fill="#7a8c98"/><path d="m292.341 114.35c-3.127 0-6.146.464-9 1.314 13.04 3.885 22.578 15.979 22.578 30.264s-9.538 26.379-22.578 30.264c20.292 6.047 40.578-9.269 40.578-30.264 0-17.412-14.166-31.578-31.578-31.578z" fill="#465a61"/><path d="m147.633 155.068c-4.945-8.921-15.907-12.421-25.041-8.283 3.702 1.663 6.926 4.468 9.041 8.283 5.203 9.387 1.799 21.257-7.587 26.46-.466.258-.942.479-1.42.695 5.408 2.428 11.847 2.393 17.42-.695 9.387-5.204 12.791-17.073 7.587-26.46z" fill="#465a61"/></g><g><path d="m253.263 145.923c0 21.548 17.53 39.078 39.078 39.078s39.078-17.53 39.078-39.078-17.53-39.078-39.078-39.078-39.078 17.53-39.078 39.078zm63.156 0c0 13.277-10.801 24.078-24.078 24.078s-24.078-10.801-24.078-24.078 10.801-24.078 24.078-24.078 24.078 10.801 24.078 24.078z"/><path d="m334.307 432.9c8.887 0 16.117-7.23 16.117-16.117v-96.001c0-8.887-7.23-16.117-16.117-16.117h-114.959c-8.887 0-16.117 7.23-16.117 16.117v96.001c0 8.887 7.23 16.117 16.117 16.117zm-116.076-16.117v-96.001c0-.616.501-1.117 1.117-1.117h114.959c.616 0 1.117.501 1.117 1.117v96.001c0 .616-.501 1.117-1.117 1.117h-114.959c-.616 0-1.117-.501-1.117-1.117z"/><ellipse cx="250.977" cy="368.783" rx="10" ry="10" transform="matrix(.995 -.099 .099 .995 -35.118 26.526)"/><ellipse cx="302.679" cy="368.783" rx="10" ry="10" transform="matrix(.995 -.099 .099 .995 -34.866 31.62)"/><path d="m183.766 368.783c0-16.723-13.605-30.328-30.328-30.328s-30.329 13.605-30.329 30.328 13.605 30.328 30.329 30.328 30.328-13.605 30.328-30.328zm-45.657 0c0-8.452 6.876-15.328 15.329-15.328s15.328 6.876 15.328 15.328-6.876 15.328-15.328 15.328-15.329-6.876-15.329-15.328z"/><path d="m493.086 267.649-63.185 29.648v-.599c0-9.837-8.003-17.84-17.84-17.84h-27.183v-25.023c0-13.638-11.096-24.734-24.734-24.734h-15.707c27.657-17.385 46.081-48.168 46.081-83.177 0-20.751-6.396-40.588-18.496-57.366-2.422-3.36-7.11-4.12-10.47-1.696-3.36 2.423-4.119 7.11-1.696 10.47 10.246 14.208 15.662 31.011 15.662 48.593 0 45.864-37.313 83.177-83.177 83.177-8.827 0-17.463-1.363-25.742-4.057v-32.661c0-16.245-13.216-29.461-29.461-29.461h-26.24c-1.188-5.657-1.788-11.386-1.788-17.096 0-45.81 37.337-83.078 83.231-83.078 15.718 0 31.02 4.403 44.25 12.733 3.506 2.208 8.137 1.154 10.343-2.351 2.207-3.505 1.155-8.136-2.351-10.343-15.627-9.839-33.693-15.04-52.243-15.04-45.621 0-84.075 31.213-95.073 73.372-10.183-15.622-25.784-27.686-44.714-33.114-42.186-12.096-86.347 12.382-98.443 54.568-5.86 20.436-3.411 41.929 6.896 60.523 5.78 10.427 13.644 19.24 23.04 26.005h-2.664c-13.638 0-24.734 11.096-24.734 24.734v16.013h-15.473c-2.061-3.026-5.532-5.018-9.461-5.018h-20.274c-6.308 0-11.44 5.132-11.44 11.44v38.444c0 6.308 5.132 11.44 11.44 11.44h20.273c3.929 0 7.4-1.992 9.461-5.018h15.474v118.383c0 13.638 11.096 24.734 24.734 24.734h23.494c4.142 0 7.5-3.358 7.5-7.5s-3.358-7.5-7.5-7.5h-23.493c-5.367 0-9.734-4.367-9.734-9.734v-118.383h31.58c14.141 0 25.645-11.504 25.645-25.645s-11.504-25.645-25.645-25.645h-31.58v-16.013c0-5.367 4.367-9.734 9.734-9.734h278.761c5.368 0 9.734 4.367 9.734 9.734v185.685c0 5.367-4.367 9.734-9.734 9.734h-220.267c-4.142 0-7.5 3.358-7.5 7.5s3.358 7.5 7.5 7.5h220.267c13.639 0 24.734-11.096 24.734-24.734v-25.023h27.183c9.837 0 17.84-8.003 17.84-17.84v-.6l63.185 29.648c8.806 4.132 18.914-2.301 18.914-12.017v-134.021c0-9.727-10.118-16.144-18.914-12.017zm-478.086 12.18h13.154v31.325h-13.154zm88.229 5.018c5.87 0 10.645 4.775 10.645 10.645s-4.775 10.645-10.645 10.645c-6.657 0-53.633 0-60.075 0v-21.29zm9.584-58.25c-16.584-4.755-30.323-15.684-38.688-30.773-8.364-15.089-10.352-32.532-5.596-49.116 9.819-34.242 45.659-54.1 79.89-44.284 27.288 7.825 46.106 32.648 46.777 60.497-14.297 0-23.811 6.726-28.609 17.567-11.839-27.86-11.532-28.553-14.861-32.752-8.457-10.663-23.8-13.462-35.569-5.996-11.41 7.231-15.419 21.528-10.338 33.367 1.366 3.179.042.869 35.296 51.265.342.588.709 1.153 1.098 1.695-9.543 1.745-19.71 1.308-29.4-1.47zm29.229-65.616c.001.003.002.005.003.008 1.624 5.289-.608 11.187-5.636 13.974-4.908 2.719-11.056 1.661-14.784-2.575 0 0-.321-.3-.977-1.276-3.907-5.895-1.867-13.736 4.16-17.078 6.609-3.662 14.999-.308 17.234 6.947zm8.953 21.169c10.187 23.972 12.343 29.056 13.083 30.753v6.743l-2.281 1.41c-2.773 1.452-6.246.43-7.778-2.334-.299-.539-18.869-27.044-19.253-27.593 6.437-.998 12.146-4.253 16.229-8.979zm28.083 10.232c0-7.974 6.487-14.461 14.461-14.461h43.598c7.974 0 14.461 6.487 14.461 14.461v36.718h-72.521c.001-14.725.001-24.104.001-36.718zm235.823 204.274c0 1.566-1.274 2.84-2.84 2.84h-27.183v-105.638h27.183c1.566 0 2.84 1.274 2.84 2.84zm82.099 14.316-67.099-31.485v-65.62l67.099-31.485z"/></g></g></svg>