<svg id="Capa_1" enable-background="new 0 0 511.999 511.999" height="512" viewBox="0 0 511.999 511.999" width="512" xmlns="http://www.w3.org/2000/svg"><g><g><path d="m362.994 473.588-118.353-99.31-42.141-11.778-18.271 6.784 156.264 131.121c7.405 6.213 18.445 5.248 24.659-2.158 6.213-7.405 5.247-18.445-2.158-24.659z" fill="#9facba"/><path d="m201.822 338.349c-24.226-2.84-57.425-9.196-78.873-20.836 1.503 1.767-2.827-2.021 61.279 51.771 19.405 2.904 39.97 4.55 60.413 4.995z" fill="#8d9ca8"/><path d="m327.77 369.284-22.27-6.784-38.142 11.778-118.353 99.31c-7.405 6.214-8.371 17.254-2.157 24.659 6.214 7.405 17.254 8.371 24.659 2.157z" fill="#b6c4cf"/><path d="m95.973 10.649c-5.104 3.824-7.503 8.868-7.503 14.354v10.002l7.503 9.851v118.145l-7.503 7.029v69.691h19.006v-214.718c0-5.946-2.971-11.19-7.503-14.354z" fill="#8d9ca8"/><path d="m396.027 10.649c-5.161 3.846-7.503 8.961-7.503 14.354v214.718h17.006v-214.718c0-5.946-2.971-11.19-7.503-14.354z" fill="#8d9ca8"/><path d="m389.05 317.513c-21.44 11.636-54.63 17.994-78.873 20.836l-42.819 35.929c20.443-.444 41.008-2.091 60.413-4.995 64.13-53.811 59.773-50.001 61.279-51.77z" fill="#9facba"/><path d="m423.53 35.005v-10.002c0-9.667-7.836-17.503-17.503-17.503-3.721 0-7.164 1.169-10 3.149 4.532 3.163 7.503 8.408 7.503 14.354v214.718h20c0-9.999 0-59.609 0-69.691l-9.998-8.03v-117.145z" fill="#7a8c98"/><path d="m105.973 7.5c-3.721 0-7.164 1.169-10 3.149 4.532 3.163 7.503 8.408 7.503 14.354v214.718h20v-214.718c0-9.667-7.837-17.503-17.503-17.503z" fill="#7a8c98"/><path d="m402.22 283.398c-2.912 4.003-12.045 11.751-35.408 19.296-60.775 19.63-160.87 19.623-221.624 0-23.363-7.546-32.496-15.293-35.408-19.296l-23.447 23.447c52.608 58.05 286.693 58.086 339.334 0z" fill="#fd8087"/><path d="m408.531 227.719v99.505c0 8.836-5.095 16.478-12.504 20.16 3.013 1.498 6.407 2.344 10 2.344 12.429 0 22.504-10.076 22.504-22.504v-99.505z" fill="#9facba"/><path d="m99.973 347.384c7.41-3.682 12.504-11.324 12.504-20.16v-99.505c-9.681 0-15.651 0-25.008 0h-4v99.505c0 7.899 3.939 15.517 12.504 20.16z" fill="#b6c4cf"/><path d="m108.477 227.719v99.505c0 8.836-5.094 16.478-12.504 20.16 14.704 7.308 32.504-3.27 32.504-20.16v-99.505z" fill="#9facba"/><path d="m400.027 347.384c7.409-3.682 12.504-11.324 12.504-20.16v-99.505c-9.675 0-19.345 0-29.008 0v99.505c0 8.072 4.239 15.853 12.504 20.16z" fill="#b6c4cf"/><path d="m408.531 227.719v99.505c0 8.836-5.095 16.478-12.504 20.16 3.013 1.498 6.407 2.344 10 2.344 12.429 0 22.504-10.076 22.504-22.504v-99.505z" fill="#9facba"/><path d="m407.53 35.005c-4.462 0-314.317 0-319.06 0v135.024h319.06l10.497-7.014v-122.266z" fill="#fd8087"/><path d="m403.53 35.005h20v135.024h-20z" fill="#fe646f"/><path d="m432.217 206.215c-11.001 0-42.543 0-53.696 0-9.667 0-17.503 7.836-17.503 17.503 0 3.625 1.037 6.622 2.817 9.503l2.914 1.279h68.285v-26z" fill="#596c76"/><path d="m433.532 206.215c-.448 0-.885 0-1.314 0 1.776 2.738 2.817 5.997 2.817 9.503 0 9.667-7.836 17.503-17.503 17.503-11.291 0-40.695 0-53.696 0 3.119 4.811 8.526 8 14.686 8h55.01c9.667 0 17.503-7.836 17.503-17.503s-7.837-17.503-17.503-17.503z" fill="#465a61"/><g><path d="m132.163 206.215c-11.001 0-42.543 0-53.696 0-9.667 0-17.503 7.836-17.503 17.503 0 3.625 1.037 6.622 2.817 9.503l2.914 1.279h68.285v-26z" fill="#596c76"/><path d="m133.478 206.215c-.448 0-.885 0-1.314 0 1.776 2.738 2.817 5.997 2.817 9.503 0 9.667-7.836 17.503-17.503 17.503-11.291 0-40.695 0-53.696 0 3.119 4.811 8.526 8 14.686 8h55.01c9.667 0 17.503-7.836 17.503-17.503s-7.837-17.503-17.503-17.503z" fill="#465a61"/></g></g><path d="m458.535 223.718c0-13.787-11.216-25.003-25.003-25.003h-2.502v-28.686c0-5.784 0-139.773 0-145.026 0-13.787-11.216-25.003-25.004-25.003-13.787 0-25.003 11.216-25.003 25.003v2.502h-250.047v-2.502c0-13.787-11.217-25.003-25.003-25.003-13.787 0-25.004 11.216-25.004 25.003v42.087c0 4.142 3.358 7.5 7.5 7.5s7.5-3.358 7.5-7.5v-24.585h320.061v120.024c-4.758 0-317.087 0-320.061 0v-60.439c0-4.142-3.358-7.5-7.5-7.5s-7.5 3.358-7.5 7.5v96.625h-2.502c-13.787 0-25.003 11.216-25.003 25.003 0 12.944 9.886 23.62 22.504 24.878v78.628c0 16.544 13.46 30.004 30.004 30.004 11.489 0 21.485-6.494 26.524-16 3.342 1.087 6.79 2.123 10.335 3.11l74.27 62.32-72.919 61.185c-10.561 8.862-11.943 24.664-3.081 35.225 8.862 10.562 24.664 11.944 35.225 3.082l79.672-66.853 79.672 66.854c10.552 8.853 26.327 7.522 35.226-3.083 8.85-10.549 7.524-26.325-3.083-35.225l-22.981-19.284c-3.174-2.663-7.905-2.25-10.566.924-2.663 3.173-2.249 7.904.924 10.566l22.981 19.284c4.192 3.518 4.821 9.817 1.234 14.092-3.512 4.185-9.809 4.827-14.093 1.234l-77.646-65.153 15.562-13.058 25.151 21.104c3.173 2.662 7.903 2.249 10.566-.924s2.249-7.904-.924-10.566l-23.125-19.404 74.272-62.321c3.545-.986 6.992-2.023 10.333-3.109 5.04 9.507 15.036 16.001 26.525 16.001 16.544 0 30.004-13.46 30.004-30.004v-78.628c12.618-1.259 22.505-11.936 22.505-24.879zm-362.566-196.213v-2.502c0-5.516 4.487-10.003 10.003-10.003s10.003 4.487 10.003 10.003v2.502zm300.054 0v-2.502c0-5.516 4.487-10.003 10.003-10.003s10.003 4.487 10.003 10.003v2.502zm20.007 150.024v21.186h-20.006v-21.186zm-37.508 21.186c-13.787 0-25.003 11.216-25.003 25.003 0 12.944 9.886 23.62 22.504 24.878v42.766c-59.092 24.504-180.076 24.896-240.046.001v-42.767c12.618-1.258 22.504-11.935 22.504-24.878 0-13.787-11.216-25.003-25.003-25.003h-2.502v-21.186h250.048v21.186zm-282.553-21.186h20.006v21.186h-20.006zm-27.505 46.189c0-5.516 4.487-10.003 10.003-10.003h55.01c5.516 0 10.003 4.487 10.003 10.003s-4.487 10.003-10.003 10.003c-7.015 0-50.272 0-55.01 0-5.515 0-10.003-4.487-10.003-10.003zm37.508 118.511c-8.273 0-15.004-6.731-15.004-15.004v-78.503h30.008v78.503c.001 8.273-6.73 15.004-15.004 15.004zm30.005-34.743c62.932 23.352 177.582 23.128 240.046-.004v19.104c-60.13 19.907-169.893 23.225-240.046 0zm120.022 66.533-19.638-16.479c12.823.46 25.896.48 39.278-.001zm-81.456-22.653c11.633 2.006 23.913 3.568 36.678 4.66l33.111 27.783-15.562 13.058zm-7.857 143.293c-4.225 3.545-10.547 2.993-14.093-1.233-3.545-4.226-2.992-10.548 1.232-14.093 9.879-8.289 140.967-118.284 146.954-123.308 12.765-1.091 25.045-2.654 36.678-4.66zm254.345-167.435c0 8.273-6.731 15.004-15.004 15.004s-15.004-6.731-15.004-15.004c0-1.755 0-76.328 0-78.503h30.008zm12.501-93.503c-7.015 0-50.272 0-55.01 0-5.516 0-10.003-4.487-10.003-10.003s4.487-10.003 10.003-10.003h55.01c5.516 0 10.003 4.487 10.003 10.003s-4.488 10.003-10.003 10.003z"/></g></svg>