<svg id="Capa_1" enable-background="new 0 0 504.611 504.611" height="512" viewBox="0 0 504.611 504.611" width="512" xmlns="http://www.w3.org/2000/svg"><g><g><path d="m470.123 98.727c-11.997 0-27.702 0-33.992 0-3.966 0-7.182 3.215-7.182 7.182v42.409l7.224 25.65h33.95z" fill="#98bce5"/><path d="m482.644 98.727c-3.391 0-9.584 0-16.461 0v17.182 20.438 21.97l-3.661 15.65h21.304l6-25.65v-42.409c0-3.966-3.215-7.181-7.182-7.181z" fill="#7bacdf"/><path d="m353.162 69.266c-6.708 0-247.287 0-253.219 0-7.933 0-14.364 6.431-14.364 14.364v399.116c0 7.933 6.431 14.364 14.364 14.364h253.215c7.933 0 14.364-6.431 14.364-14.364v-399.115c.001-7.932-6.428-14.363-14.36-14.365z" fill="#c4e2ff"/><path d="m372.861 69.266h-23.643c7.933 0 14.364 6.431 14.364 14.364v399.116c0 7.933-6.431 14.364-14.364 14.364h23.643c7.933 0 14.364-6.431 14.364-14.364v-399.115c0-7.933-6.431-14.365-14.364-14.365z" fill="#b3dafe"/><path d="m282.365 36.228c-6.708 0-247.285 0-253.216 0-7.933 0-14.364 6.431-14.364 14.364v399.116c0 7.933 6.431 14.364 14.364 14.364h253.217c7.932-.001 14.362-6.432 14.362-14.364v-399.116c0-7.932-6.43-14.364-14.363-14.364z" fill="#eaf6ff"/><path d="m428.95 148.317h41.174v255.476h-41.174z" fill="#ffe177"/><path d="m302.067 36.228h-23.643c7.933 0 14.364 6.431 14.364 14.364v399.116c0 7.933-6.431 14.364-14.364 14.364h23.643c7.933 0 14.364-6.431 14.364-14.364v-399.116c0-7.933-6.431-14.364-14.364-14.364z" fill="#d8ecfe"/><path d="m466.183 148.317h23.643v255.476h-23.643z" fill="#ffd15b"/><path d="m466.183 148.317h23.643v255.476h-23.643z" fill="#ffd15b"/><path d="m451.507 439.561 18.617-35.769c-20.119 0-23.923 0-41.174 0l18.617 35.769z" fill="#ffcebf"/><path d="m466.183 403.793-18.617 35.769 5.451 10.473c2.683 5.155 10.059 5.155 12.742 0l24.067-46.242z" fill="#ffb09e"/></g><g><path d="m90.895 245.244c0 4.142 3.358 7.5 7.5 7.5h134.426c4.142 0 7.5-3.358 7.5-7.5s-3.358-7.5-7.5-7.5h-134.426c-4.142 0-7.5 3.358-7.5 7.5z"/><path d="m199.215 207.6c4.142 0 7.5-3.358 7.5-7.5s-3.358-7.5-7.5-7.5h-67.213c-4.142 0-7.5 3.358-7.5 7.5s3.358 7.5 7.5 7.5z"/><path d="m98.395 293.784h134.426c4.142 0 7.5-3.358 7.5-7.5s-3.358-7.5-7.5-7.5h-134.426c-4.142 0-7.5 3.358-7.5 7.5s3.358 7.5 7.5 7.5z"/><path d="m372.861 61.767h-48.931v-11.176c-.003-12.001-9.747-21.863-21.863-21.863h-20.21c-.172-15.87-13.129-28.728-29.038-28.728h-20.481c-15.909 0-28.866 12.858-29.038 28.728h-174.151c-12.056 0-21.864 9.808-21.864 21.864v299.606c0 4.142 3.358 7.5 7.5 7.5s7.5-3.358 7.5-7.5v-299.606c0-3.785 3.079-6.864 6.864-6.864h174.143v74.49c0 16.511 13.433 29.943 29.943 29.943s29.943-13.433 29.943-29.943v-55.811c0-4.142-3.357-7.5-7.5-7.5-4.142 0-7.5 3.358-7.5 7.5v55.811c0 8.24-6.704 14.943-14.943 14.943s-14.943-6.704-14.943-14.943v-74.49h83.775c3.852 0 6.863 3.134 6.863 6.864v399.116c0 3.785-3.079 6.864-6.863 6.864-13.633 0-265.281 0-272.918 0-3.785 0-6.864-3.079-6.864-6.864v-64.51c0-4.142-3.358-7.5-7.5-7.5s-7.5 3.358-7.5 7.5v64.51c0 12.056 9.808 21.864 21.864 21.864h48.93v11.174c0 12.056 9.808 21.864 21.864 21.864h272.917c12.056 0 21.864-9.808 21.864-21.864v-399.115c.002-12.056-9.807-21.864-21.863-21.864zm-140.523-46.767h20.481c7.638 0 13.859 6.131 14.03 13.728h-48.541c.171-7.597 6.392-13.728 14.03-13.728zm147.388 467.747c0 3.785-3.079 6.864-6.864 6.864h-272.918c-3.785 0-6.864-3.079-6.864-6.864v-11.174h208.988c12.056 0 21.863-9.808 21.863-21.864v-18.925h21.741c4.143 0 7.5-3.358 7.5-7.5s-3.357-7.5-7.5-7.5h-21.741c0-6.915 0-60.604 0-67.081h21.741c4.143 0 7.5-3.358 7.5-7.5s-3.357-7.5-7.5-7.5h-21.741v-67.081h21.741c4.143 0 7.5-3.358 7.5-7.5s-3.357-7.5-7.5-7.5h-21.741v-67.081h21.741c4.143 0 7.5-3.358 7.5-7.5s-3.357-7.5-7.5-7.5h-21.741v-92.774h48.931c3.785 0 6.864 3.079 6.864 6.864z"/><path d="m482.645 91.227h-46.513c-8.096 0-14.682 6.586-14.682 14.682v297.884c0 1.161.277 2.371.903 3.571.001.002.002.004.003.006l24.008 46.127c5.477 10.525 20.567 10.533 26.048 0l24.008-46.127c.575-1.085.906-2.311.906-3.577v-182.704c0-4.142-3.357-7.5-7.5-7.5s-7.5 3.358-7.5 7.5v175.203h-45.876v-240.475h45.876v30.272c0 4.142 3.357 7.5 7.5 7.5s7.5-3.358 7.5-7.5c0-2.133 0-78.049 0-80.181 0-8.095-6.586-14.681-14.681-14.681zm-5.177 320.065-18.08 34.737-18.079-34.737zm-41.018-270.475v-34.59h45.876v34.59z"/></g></g></svg>