<svg id="Capa_1" enable-background="new 0 0 512 512" height="512" viewBox="0 0 512 512" width="512" xmlns="http://www.w3.org/2000/svg"><g><g><path d="m394.957 16c-12.192 0-265.722 0-277.914 0l-24.772 20.305v439.391l24.772 20.304h277.914l24.771-20.305c0-6.281 0-433.11 0-439.391z" fill="#98bce5"/><path d="m84.771 76h342.457v360h-342.457z" fill="#b3dafe"/><ellipse cx="256" cy="256" fill="#fe646f" rx="86.505" ry="85.286"/><path d="m223.903 220.155v71.689c0 7.815 8.683 12.612 15.444 8.532l59.391-35.845c6.465-3.902 6.465-13.162 0-17.064l-59.391-35.845c-6.761-4.079-15.444.718-15.444 8.533z" fill="#eaf6ff"/><path d="m84.771 20v10.088c0 4.418-3.582 8-8 8h-29c-4.418 0-8-3.582-8-8v-10.088c0-2.209-1.791-4-4-4h-18.271c-5.523 0-10 4.477-10 10v460c0 5.523 4.477 10 10 10h18.271c2.209 0 4-1.791 4-4v-10.088c0-4.418 3.582-8 8-8h29c4.418 0 8 3.582 8 8v10.088c0 2.209 1.791 4 4 4h28.271v-480h-28.271c-2.209 0-4 1.791-4 4z" fill="#596c76"/><g fill="#eaf6ff"><path d="m47.771 158.294h29c4.418 0 8-3.582 8-8v-29c0-4.418-3.582-8-8-8h-29c-4.418 0-8 3.582-8 8v29c0 4.418 3.582 8 8 8z"/><path d="m47.771 278.5h29c4.418 0 8-3.582 8-8v-29c0-4.418-3.582-8-8-8h-29c-4.418 0-8 3.582-8 8v29c0 4.418 3.582 8 8 8z"/><path d="m47.771 398.706h29c4.418 0 8-3.582 8-8v-29c0-4.418-3.582-8-8-8h-29c-4.418 0-8 3.582-8 8v29c0 4.418 3.582 8 8 8z"/></g><g fill="#596c76"><path d="m475.485 495.925c-.235-.047-.463-.115-.683-.199.22.085.446.154.683.199z"/><path d="m474.797 16.275c-1.5.577-2.568 2.021-2.568 3.725v10.088c0 4.418-3.582 8-8 8h-29c-4.418 0-8-3.582-8-8v-10.088c0-2.209-1.791-4-4-4h-28.271v480h28.271c2.209 0 4-1.791 4-4v-10.088c0-4.418 3.582-8 8-8h29c4.418 0 8 3.582 8 8v10.088c0 1.703 1.069 3.147 2.568 3.725l2.388-.243c4.084-.416 7.19-3.854 7.19-7.959v-462.577c0-3.648-2.467-6.833-5.999-7.746z"/></g><path d="m464.229 158.294h-29c-4.418 0-8-3.582-8-8v-29c0-4.418 3.582-8 8-8h29c4.418 0 8 3.582 8 8v29c0 4.418-3.582 8-8 8z" fill="#eaf6ff"/><path d="m464.229 278.5h-29c-4.418 0-8-3.582-8-8v-29c0-4.418 3.582-8 8-8h29c4.418 0 8 3.582 8 8v29c0 4.418-3.582 8-8 8z" fill="#eaf6ff"/><path d="m464.229 398.706h-29c-4.418 0-8-3.582-8-8v-29c0-4.418 3.582-8 8-8h29c4.418 0 8 3.582 8 8v29c0 4.418-3.582 8-8 8z" fill="#eaf6ff"/><g><path d="m494.5 16c-19.838 0-18.701-.11-19.703.275 4.414 1.039 7.703 4.994 7.703 9.725v460c0 4.731-3.289 8.686-7.703 9.725 1 .385-.147.275 19.703.275 5.523 0 10-4.477 10-10v-460c0-5.523-4.477-10-10-10z" fill="#465a61"/></g></g><g><path d="m302.613 241.047-59.391-35.844c-11.622-7.014-26.82 1.152-26.82 14.953v71.689c0 13.857 15.253 21.933 26.819 14.953l59.392-35.845c11.31-6.826 11.287-23.093 0-29.906zm-7.75 17.063-59.393 35.845c-1.767 1.066-4.068-.133-4.068-2.111v-71.689c0-1.957 2.278-3.191 4.069-2.11l59.392 35.844c1.637.989 1.637 3.233 0 4.221z"/><path d="m256 163.214c-51.834 0-94.005 41.624-94.005 92.786s42.171 92.786 94.005 92.786 94.005-41.624 94.005-92.786-42.171-92.786-94.005-92.786zm0 170.572c-43.563 0-79.005-34.895-79.005-77.786s35.441-77.786 79.005-77.786 79.005 34.895 79.005 77.786-35.442 77.786-79.005 77.786z"/><path d="m479.729 121.294c0-8.547-6.953-15.5-15.5-15.5h-29c-8.547 0-15.5 6.953-15.5 15.5v29c0 8.547 6.953 15.5 15.5 15.5h29c8.547 0 15.5-6.953 15.5-15.5zm-15 29c0 .276-.225.5-.5.5h-29c-.275 0-.5-.224-.5-.5v-29c0-.276.225-.5.5-.5h29c.275 0 .5.224.5.5z"/><path d="m479.729 241.5c0-8.547-6.953-15.5-15.5-15.5h-29c-8.547 0-15.5 6.953-15.5 15.5v29c0 8.547 6.953 15.5 15.5 15.5h29c8.547 0 15.5-6.953 15.5-15.5zm-15 29c0 .276-.225.5-.5.5h-29c-.275 0-.5-.224-.5-.5v-29c0-.276.225-.5.5-.5h29c.275 0 .5.224.5.5z"/><path d="m464.229 346.206h-29c-8.547 0-15.5 6.953-15.5 15.5v29c0 8.547 6.953 15.5 15.5 15.5h29c8.547 0 15.5-6.953 15.5-15.5v-29c0-8.547-6.954-15.5-15.5-15.5zm.5 44.5c0 .276-.225.5-.5.5h-29c-.275 0-.5-.224-.5-.5v-29c0-.276.225-.5.5-.5h29c.275 0 .5.224.5.5z"/><path d="m47.771 165.794h29c8.547 0 15.5-6.953 15.5-15.5v-29c0-8.547-6.953-15.5-15.5-15.5h-29c-8.547 0-15.5 6.953-15.5 15.5v29c0 8.547 6.954 15.5 15.5 15.5zm-.5-44.5c0-.276.225-.5.5-.5h29c.275 0 .5.224.5.5v29c0 .276-.225.5-.5.5h-29c-.275 0-.5-.224-.5-.5z"/><path d="m32.271 270.5c0 8.547 6.953 15.5 15.5 15.5h29c8.547 0 15.5-6.953 15.5-15.5v-29c0-8.547-6.953-15.5-15.5-15.5h-29c-8.547 0-15.5 6.953-15.5 15.5zm15-29c0-.276.225-.5.5-.5h29c.275 0 .5.224.5.5v29c0 .276-.225.5-.5.5h-29c-.275 0-.5-.224-.5-.5z"/><path d="m32.271 390.706c0 8.547 6.953 15.5 15.5 15.5h29c8.547 0 15.5-6.953 15.5-15.5v-29c0-8.547-6.953-15.5-15.5-15.5h-29c-8.547 0-15.5 6.953-15.5 15.5zm15-29c0-.276.225-.5.5-.5h29c.275 0 .5.224.5.5v29c0 .276-.225.5-.5.5h-29c-.275 0-.5-.224-.5-.5z"/><path d="m504.5 78.08c4.143 0 7.5-3.358 7.5-7.5v-44.58c0-9.649-7.851-17.5-17.5-17.5h-18.271c-6.341 0-11.5 5.159-11.5 11.5v10.088c0 .276-.225.5-.5.5h-29c-.275 0-.5-.224-.5-.5v-10.088c0-6.341-5.159-11.5-11.5-11.5 0 0-322.901 0-334.457 0-6.341 0-11.5 5.159-11.5 11.5v10.088c0 .276-.225.5-.5.5h-29c-.275 0-.5-.224-.5-.5v-10.088c0-6.341-5.159-11.5-11.5-11.5h-18.272c-9.649 0-17.5 7.851-17.5 17.5v381.41c0 4.142 3.357 7.5 7.5 7.5s7.5-3.358 7.5-7.5v-381.41c0-1.378 1.121-2.5 2.5-2.5h14.771v6.588c0 8.547 6.953 15.5 15.5 15.5h29c8.547 0 15.5-6.953 15.5-15.5v-6.588h17.271v465h-17.271v-6.588c0-8.547-6.953-15.5-15.5-15.5h-29c-8.547 0-15.5 6.953-15.5 15.5v6.588h-14.771c-1.379 0-2.5-1.122-2.5-2.5v-43.59c0-4.142-3.357-7.5-7.5-7.5s-7.5 3.358-7.5 7.5v43.59c0 9.649 7.851 17.5 17.5 17.5h18.271c6.341 0 11.5-5.159 11.5-11.5v-10.088c0-.276.225-.5.5-.5h29c.275 0 .5.224.5.5v10.088c0 6.341 5.159 11.5 11.5 11.5h334.457c6.341 0 11.5-5.159 11.5-11.5v-10.088c0-.276.225-.5.5-.5h29c.275 0 .5.224.5.5v10.088c0 6.341 5.159 11.5 11.5 11.5h18.272c9.649 0 17.5-7.851 17.5-17.5v-380.42c0-4.142-3.357-7.5-7.5-7.5s-7.5 3.358-7.5 7.5v380.42c0 1.378-1.121 2.5-2.5 2.5h-14.771v-6.588c0-8.547-6.953-15.5-15.5-15.5h-29c-8.547 0-15.5 6.953-15.5 15.5v6.588h-17.271c0-7.23 0-461.695 0-465h17.271v6.588c0 8.547 6.953 15.5 15.5 15.5h29c8.547 0 15.5-6.953 15.5-15.5v-6.588h14.771c1.379 0 2.5 1.122 2.5 2.5v44.58c0 4.142 3.357 7.5 7.5 7.5zm-379.957 5.42h262.914v345h-262.914zm262.914-15h-262.914v-45h262.914zm-262.914 375h262.914v45h-262.914z"/></g></g></svg>