<svg id="Capa_1" enable-background="new 0 0 512.003 512.003" height="512" viewBox="0 0 512.003 512.003" width="512" xmlns="http://www.w3.org/2000/svg"><g><g><path d="m42.423 496.032h421.685v-251.206c-4.993 0-417.325 0-427.397 0v30.691l-10.324 8.505v204.802c0 .671.036 1.085.093 1.679z" fill="#8d9ca8"/><path d="m481.613 284.022-23.996-23.996v214.797c0 8.659-7.02 15.679-15.679 15.679-3.004 0-356.12 0-415.459 0 .838 7.869 7.494 14 15.586 14h423.869c8.659 0 15.679-7.02 15.679-15.679z" fill="#7a8c98"/><path d="m429.99 386.913h-351.98c-3.866 0-7-3.134-7-7v-51.655c0-3.866 3.134-7 7-7h351.98c3.866 0 7 3.134 7 7v51.655c-.001 3.866-3.135 7-7 7z" fill="#fe646f"/><path d="m457.615 209.549c0-2.165-1.755-3.92-3.92-3.92h-41.644l-33.362 7.892-23.769-7.892h-57.225l-36.196 13.891-20.934-13.891h-214.178v78.393h397.549l33.679-29.809c0-18.57 0-22.892 0-44.664z" fill="#596c76"/><path d="m42.423 183.819 412.229-110.457c2.134-.572 3.4-2.765 2.828-4.899l-7.158-26.714-13.454-15.668-26.478-4.5-55.197 14.79-18.122 14.786h-37.062l-55.275 14.811-18.656 14.786h-36.528l-163.162 43.721z" fill="#596c76"/><path d="m274.696 130.526 34.166-.598 55.276-14.811 22.051-15.089 33.133.302 55.197-14.79 2.664-12.697-26.935-31.369 7.232 26.99c.572 2.134-.695 4.327-2.828 4.899l-412.229 110.456 4.375 16.329 206.881-55.434z" fill="#465a61"/><path d="m457.615 209.549v44.665l11.581-48.584c-3.947 0-9.172 0-15.5 0 2.164-.001 3.919 1.754 3.919 3.919z" fill="#465a61"/><g fill="#eaf6ff"><path d="m481.613 209.549c0-2.165-1.755-3.92-3.92-3.92h-8.498l-45.26 78.393h57.678z"/><path d="m309.66 284.022h57.131l45.26-78.393h-57.13z"/><path d="m195.305 284.022h57.13l45.26-78.393h-57.13z"/></g><path d="m253.679 144.714 55.184-14.786-13.803-13.803-55.184 14.786z" fill="#d8ecfe"/><path d="m364.138 115.117 55.184-14.787-13.803-13.803-55.184 14.787z" fill="#d8ecfe"/><path d="m485.478 78.463-18.219-67.995c-.572-2.134-2.765-3.4-4.899-2.828-.031.008-.107.029-.217.058l-.078.021c-1.675.449-9.984 2.676-19.465 5.215l14.879 55.529c.004.015.004.03.007.045l17.031 17.032 8.131-2.179c2.136-.571 3.402-2.764 2.83-4.898z" fill="#d8ecfe"/><path d="m172.854 233.52c-.021-.669-.151-1.35-.418-2.022v-.047h-.019l-39.541-99.557c-1.779-4.479-6.11-7.419-10.929-7.419h-95.56v131.543h140.478c3.314 0 6-2.686 6-6v-16.498z" fill="#465a61"/><path d="m239.876 130.911 55.184-14.786-50.205-50.205-55.184 14.786z" fill="#eaf6ff"/><g><path d="m405.519 86.527-50.205-50.204-55.184 14.786 50.205 50.205z" fill="#eaf6ff"/></g><g><path d="m457.48 68.464-14.879-55.529c-14.508 3.887-31.744 8.506-32.089 8.599l46.976 46.976c-.004-.016-.004-.031-.008-.046z" fill="#eaf6ff"/></g><path d="m457.615 225.688-33.679 58.334h39.679v-58.334z" fill="#eaf6ff"/><path d="m477.693 205.629c-.422 0-3.387 0-8.498 0l-11.581 20.059v58.334h23.998v-74.473c.001-2.165-1.754-3.92-3.919-3.92z" fill="#d8ecfe"/></g><g><path d="m444.489 328.258c0-7.995-6.504-14.5-14.499-14.5h-351.98c-7.995 0-14.499 6.504-14.499 14.5v51.655c0 7.995 6.504 14.5 14.499 14.5h351.98c7.995 0 14.499-6.504 14.499-14.5zm-15 51.155h-350.978v-50.654h350.979v50.654z"/><path d="m156.009 422.762c-4.143 0-7.5 3.358-7.5 7.5v25.07h-77.498c-4.143 0-7.5 3.358-7.5 7.5s3.357 7.5 7.5 7.5h365.979c4.143 0 7.5-3.358 7.5-7.5s-3.357-7.5-7.5-7.5h-77.498v-25.07c0-4.142-3.357-7.5-7.5-7.5s-7.5 3.358-7.5 7.5v25.07h-82.992v-25.07c0-4.142-3.357-7.5-7.5-7.5s-7.5 3.358-7.5 7.5v25.07h-82.991v-25.07c0-4.142-3.358-7.5-7.5-7.5z"/><path d="m159.184 177.811 325.407-87.205c6.124-1.641 9.771-7.959 8.132-14.083 0 0-.001-.001-.001-.001l-18.218-67.994c-1.645-6.141-7.941-9.777-14.085-8.133-2.942.788-428.926 114.947-435.973 116.836-3.262.878-5.56 3.854-5.56 7.244v36.147c0 4.142 3.357 7.5 7.5 7.5s7.5-3.358 7.5-7.5v-28.647h88.062c1.762 0 3.312 1.059 3.958 2.687 60.128 151.388-23.038-58.005 39.458 99.347v14.509h-131.477v-52.896c0-4.142-3.357-7.5-7.5-7.5s-7.5 3.358-7.5 7.5v293.202c0 12.781 10.397 23.179 23.179 23.179h423.869c12.781 0 23.179-10.398 23.179-23.179v-22.855c0-4.142-3.357-7.5-7.5-7.5s-7.5 3.358-7.5 7.5v22.855c0 4.51-3.669 8.179-8.179 8.179h-423.87c-4.51 0-8.179-3.669-8.179-8.179v-197.302h440.227v139.447c0 4.142 3.357 7.5 7.5 7.5s7.5-3.358 7.5-7.5c0-9.738 0-205.075 0-221.42 0-6.296-5.122-11.42-11.42-11.42-10.652 0-285.782 0-310.439 0zm83.436-103.519 51.753 51.754-38.454 10.304-51.752-51.753zm16.73-4.484 38.543-10.329 51.759 51.759-38.543 10.329zm93.726-25.117 51.757 51.757-38.454 10.303-51.755-51.756zm55.195-14.792 51.759 51.759-38.465 10.308-51.759-51.759zm69.057 47.124-.568.152-51.759-51.759c.405-.108 35.755-9.582 35.918-9.626zm-393.981 39.952 104.09-27.895 51.759 51.759-85.587 22.936-13.762-34.651c-2.894-7.285-9.893-12.149-17.899-12.149zm124.948 159.547 36.6-63.393h39.81l-36.599 63.393zm133.635-63.393-36.6 63.393h-39.904l36.599-63.393zm-19.28 63.393 36.6-63.393h39.811l-36.6 63.393zm133.555-63.393-36.599 63.393h-39.824l36.6-63.393zm-19.279 63.393 36.599-63.393h.588v63.393zm-263.714-63.393h54.363l-36.6 63.393h-157.088v-13.004h132.979c7.443 0 13.499-6.056 13.499-13.5v-16.498c0-1.702-.6-4.128-1.153-5.284-2.133-5.368-.677-1.701-6-15.107z"/></g></g></svg>