<svg id="Capa_1" enable-background="new 0 0 512 512" height="512" viewBox="0 0 512 512" width="512" xmlns="http://www.w3.org/2000/svg"><g><g><path d="m7.5 385v-87.057c0-2.566 1.948-4.664 4.495-4.974 18.171-2.217 32.246-17.699 32.246-36.469s-14.075-34.252-32.246-36.469c-2.547-.311-4.495-2.408-4.495-4.974v-91.057c0-5.523 4.477-10 10-10h346.87l17.5 7.374v263.626c-40.438 0-330.337 0-374.37 0z" fill="#fd8087"/><g><path d="m482.5 347.259c-20.292 0-36.741 16.45-36.741 36.741-9.198 0-41.983 0-73.889 0v-270h86.975c4.675 0 8.756 3.232 9.744 7.802 1.901 8.793 6.952 16.413 13.911 21.624z" fill="#ffe177"/></g><path d="m381.87 384v6.626l-17.5 7.374c-71.954 0-340.003 0-346.87 0-5.523 0-10-4.477-10-10v-4z" fill="#fe646f"/><path d="m496.698 362.089c-13.812 2.995-24.865 13.804-28.024 27.776-.025.112-.061.22-.085.333-.988 4.569-5.069 7.802-9.744 7.802-17.066 0-50.307 0-79.475 0l-7.333-7.333-.167.167v-6.834h73.889c0-20.292 16.45-36.741 36.741-36.741v-203.833c4.143 3.103 8.962 5.353 14.198 6.485 4.57.988 7.802 5.074 7.802 9.75v192.679c0 4.675-3.232 8.761-7.802 9.749z" fill="#ffd15b"/><path d="m85.813 341v-169c0-6.075 4.925-11 11-11h222.484c6.075 0 11 4.925 11 11v169c0 6.075-4.925 11-11 11h-222.484c-6.075 0-11-4.925-11-11z" fill="#fff0ad"/><circle cx="208.055" cy="256" fill="#fe646f" r="68.822"/><path d="m180.45 225.468v61.064c0 6.657 7.292 10.743 12.969 7.267l49.876-30.532c5.429-3.324 5.429-11.211 0-14.535l-49.876-30.532c-5.677-3.475-12.969.611-12.969 7.268z" fill="#eaf6ff"/><path d="m459.185 336h-42c-4.418 0-8-3.582-8-8v-144c0-4.418 3.582-8 8-8h42c4.418 0 8 3.582 8 8v144c0 4.418-3.582 8-8 8z" fill="#9facba"/></g><g><path d="m78.313 172v169c0 10.201 8.299 18.5 18.5 18.5h222.484c10.201 0 18.5-8.299 18.5-18.5v-169c0-10.201-8.299-18.5-18.5-18.5h-222.484c-10.2 0-18.5 8.299-18.5 18.5zm244.484 0v169c0 1.93-1.57 3.5-3.5 3.5h-222.484c-1.93 0-3.5-1.57-3.5-3.5v-169c0-1.93 1.57-3.5 3.5-3.5h222.484c1.93 0 3.5 1.57 3.5 3.5z"/><path d="m197.335 300.196 49.875-30.532c10.22-6.255 10.198-21.085 0-27.327l-49.876-30.532c-10.653-6.523-24.385 1.164-24.385 13.664v61.063c.001 12.524 13.764 20.166 24.386 13.664zm-9.385-74.728c0-.8.844-1.305 1.553-.871l49.876 30.532c.661.406.658 1.338 0 1.741l-49.875 30.532c-.697.423-1.554-.063-1.554-.871z"/><path d="m208.056 332.322c42.084 0 76.322-34.238 76.322-76.322s-34.238-76.322-76.322-76.322-76.322 34.238-76.322 76.322 34.237 76.322 76.322 76.322zm0-137.644c33.813 0 61.322 27.509 61.322 61.322s-27.509 61.322-61.322 61.322-61.323-27.509-61.323-61.322 27.51-61.322 61.323-61.322z"/><path d="m364.37 264c0 4.142 3.358 7.5 7.5 7.5s7.5-3.358 7.5-7.5v-15c0-4.142-3.358-7.5-7.5-7.5s-7.5 3.358-7.5 7.5z"/><path d="m364.37 354c0 4.142 3.358 7.5 7.5 7.5s7.5-3.358 7.5-7.5v-15c0-4.142-3.358-7.5-7.5-7.5s-7.5 3.358-7.5 7.5z"/><path d="m364.37 309c0 4.142 3.358 7.5 7.5 7.5s7.5-3.358 7.5-7.5v-15c0-4.142-3.358-7.5-7.5-7.5s-7.5 3.358-7.5 7.5z"/><path d="m364.37 219c0 4.142 3.358 7.5 7.5 7.5s7.5-3.358 7.5-7.5v-15c0-4.142-3.358-7.5-7.5-7.5s-7.5 3.358-7.5 7.5z"/><path d="m371.87 181.5c4.142 0 7.5-3.358 7.5-7.5v-15c0-4.142-3.358-7.5-7.5-7.5s-7.5 3.358-7.5 7.5v15c0 4.142 3.358 7.5 7.5 7.5z"/><path d="m504.5 283.883c-4.142 0-7.5 3.358-7.5 7.5v60.957c0 1.165-.793 2.183-1.887 2.419-16.91 3.657-30.198 16.945-33.855 33.854-.236 1.094-1.251 1.887-2.413 1.887h-79.475v-6.5c0-4.142-3.358-7.5-7.5-7.5s-7.5 3.358-7.5 7.5v6.5h-346.87c-1.378 0-2.5-1.122-2.5-2.5v-88.894c20.803-3.561 36.444-21.688 36.729-43.006.001-.067.001-.133 0-.2-.285-21.317-15.927-39.444-36.729-43.006v-88.894c0-1.378 1.122-2.5 2.5-2.5h78.919c4.142 0 7.5-3.358 7.5-7.5s-3.358-7.5-7.5-7.5h-78.919c-9.649 0-17.5 7.851-17.5 17.5v91.057c0 6.31 4.767 11.649 11.087 12.419 14.391 1.755 25.397 14.009 25.642 28.524-.244 14.515-11.25 26.769-25.641 28.524-6.321.77-11.088 6.11-11.088 12.419v91.057c0 9.649 7.851 17.5 17.5 17.5h441.345c8.174 0 15.355-5.769 17.074-13.717 2.416-11.17 11.194-19.948 22.364-22.364 7.948-1.719 13.716-8.902 13.716-17.08v-60.957c.001-4.141-3.357-7.499-7.499-7.499z"/><path d="m498.283 142.581c-11.17-2.416-19.948-11.194-22.364-22.364-1.719-7.948-8.9-13.716-17.074-13.716h-327.342c-4.142 0-7.5 3.358-7.5 7.5s3.358 7.5 7.5 7.5h232.867v7.5c0 4.142 3.358 7.5 7.5 7.5s7.5-3.358 7.5-7.5v-7.5h79.476c1.162 0 2.177.793 2.413 1.887 3.657 16.91 16.945 30.198 33.854 33.855 1.094.236 1.887 1.254 1.887 2.419v96.64c0 4.142 3.358 7.5 7.5 7.5s7.5-3.358 7.5-7.5v-96.64c0-8.179-5.769-15.362-13.717-17.081z"/><path d="m459.185 343.5c8.547 0 15.5-6.953 15.5-15.5v-144c0-8.547-6.953-15.5-15.5-15.5h-42c-8.547 0-15.5 6.953-15.5 15.5v144c0 8.547 6.953 15.5 15.5 15.5zm-42.5-15.5v-144c0-.276.224-.5.5-.5h42c.276 0 .5.224.5.5v144c0 .276-.224.5-.5.5h-42c-.276 0-.5-.224-.5-.5z"/></g></g></svg>