<svg id="Capa_1" enable-background="new 0 0 512 512" height="512" viewBox="0 0 512 512" width="512" xmlns="http://www.w3.org/2000/svg"><g><g><g><g><path d="m257.258 33.25c4.662-2.675 10.06-4.211 15.82-4.211 5.011 0 9.749 1.162 13.966 3.224-3.222-14.177-15.891-24.763-31.043-24.763-5.425 0-10.53 1.361-15 3.753 8.303 4.445 14.407 12.46 16.257 21.997z" fill="#ffe177"/><g><path d="m340.976 82.096c-1.464-16.231-15.098-28.952-31.71-28.952-.149 0-.296.009-.444.011v-.011h-.849c-2.199-8.804-8.064-16.152-15.876-20.34l-.423-1.637c-1.53.589-3.009 1.278-4.415 2.084-.281-1.448-.663-2.859-1.133-4.229-3.442-1.276-7.161-1.982-11.047-1.982-5.76 0-11.158 1.537-15.82 4.211-1.773-9.14-7.459-16.873-15.237-21.414-9.828 3.995-17.211 12.754-19.278 23.414-4.662-2.675-10.06-4.211-15.82-4.211-14.918 0-27.436 10.259-30.895 24.105h-.849v.011c-.148-.002-.295-.011-.444-.011-16.612 0-30.246 12.721-31.71 28.952-17.447.166-31.54 14.354-31.54 31.839v2.986c0 17.589 14.258 31.848 31.847 31.848h195.337c17.589 0 31.847-14.259 31.847-31.848v-2.986c-.001-17.486-14.095-31.674-31.541-31.84z" fill="#fff0ad"/><path d="m366.976 82.096c-1.464-16.231-15.098-28.952-31.71-28.952-.149 0-.296.009-.444.011v-.011h-.849c-3.459-13.846-15.977-24.105-30.895-24.105-5.421 0-10.513 1.375-14.981 3.765 7.812 4.188 13.677 11.537 15.876 20.34h.849v.011c.148-.002.295-.011.444-.011 16.612 0 30.246 12.721 31.71 28.952 17.447.166 31.54 14.354 31.54 31.839v2.986c0 17.589-14.258 31.848-31.847 31.848h30c17.589 0 31.847-14.259 31.847-31.848v-2.986c0-17.485-14.094-31.673-31.54-31.839z" fill="#ffe177"/></g><path d="m257.258 33.25c4.662-2.675 10.06-4.211 15.82-4.211 5.011 0 9.749 1.162 13.966 3.224-3.222-14.177-15.891-24.763-31.043-24.763-5.425 0-10.53 1.361-15 3.753 8.303 4.445 14.407 12.46 16.257 21.997z" fill="#ffe177"/></g><path d="m398.234 122.219h-50.437v8.281h-183.592v-8.281h-50.437c-4.348 0-7.798 3.662-7.539 8.003l21.463 359.512c.495 8.294 7.365 14.766 15.674 14.766h225.269c8.308 0 15.179-6.472 15.674-14.766l21.463-359.512c.26-4.341-3.19-8.003-7.538-8.003z" fill="#fd8087"/><path d="m398.234 122.219h-21.177l-20.747 347.515c-.495 8.294-7.365 14.766-15.674 14.766h-6.053l-7.582 10h-144l-5.582-10h-50.039l.312 5.234c.495 8.294 7.365 14.766 15.674 14.766h34.782l5.519-5.167h145.667l4.519 5.167h34.782c8.309 0 15.179-6.472 15.674-14.766l21.463-359.512c.26-4.341-3.19-8.003-7.538-8.003z" fill="#fe646f"/><path d="m289.216 122.219v3.031h-66.431v-3.031c-30.941 0-56.084 0-58.58 0l13.214 362.281 5.582 10h144l7.582-10 13.214-362.281c-3.35 0-28.189 0-58.581 0z" fill="#eaf6ff"/><path d="m222.785 122.219 5.045 382.281 2.837-5.167h50.333l3.17 5.167 5.045-382.281c-3.293 0-64.021 0-66.43 0z" fill="#fd8087"/><ellipse cx="256.001" cy="313.359" fill="#fff0ad" rx="96.627" ry="72.47"/></g><path d="m177.419 484.5.729 20h155.704l.729-20z" fill="#d8ecfe"/><path d="m227.566 484.5.264 20h56.34l.264-20z" fill="#fe646f"/></g><g><path d="m201.623 308h108.755c4.142 0 7.5-3.358 7.5-7.5s-3.358-7.5-7.5-7.5h-108.755c-4.142 0-7.5 3.358-7.5 7.5s3.358 7.5 7.5 7.5z"/><path d="m286.426 325.368h-60.852c-4.142 0-7.5 3.358-7.5 7.5s3.358 7.5 7.5 7.5h60.852c4.142 0 7.5-3.358 7.5-7.5s-3.358-7.5-7.5-7.5z"/><path d="m406.016 116.91v-2.975c0-19.335-14.156-35.561-32.648-38.767-4.043-15.728-17.557-27.661-34.133-29.326-4.127-.417-7.798 2.592-8.212 6.713-.414 4.122 2.591 7.798 6.713 8.212 11.57 1.162 20.726 10.416 21.771 22.002.346 3.838 3.545 6.789 7.398 6.826 12.49.119 24.111 9.962 24.111 25.124-9.331 0-256.589 0-270.031 0 0-15.089 11.559-25.004 24.112-25.124 3.854-.037 7.052-2.988 7.398-6.826 1.059-11.745 10.247-22.125 25.533-22.125 3.442 0 6.442-2.343 7.276-5.682 2.71-10.847 12.422-18.423 23.618-18.423 4.24 0 8.42 1.112 12.087 3.217 4.456 2.557 10.117-.033 11.095-5.077 2.213-11.403 12.262-19.679 23.897-19.679 11.634 0 21.684 8.276 23.895 19.679.978 5.043 6.639 7.635 11.095 5.077 6.288-3.609 14.161-4.182 20.864-1.588 3.862 1.492 8.206-.427 9.701-4.289 1.494-3.863-.426-8.207-4.289-9.701-4.527-1.751-9.3-2.639-14.188-2.639-3.806 0-7.583.555-11.205 1.631-6.242-13.828-20.164-23.17-35.873-23.17s-29.631 9.342-35.873 23.17c-3.623-1.077-7.399-1.631-11.205-1.631-16.147 0-30.386 9.756-36.376 24.321-16.467 1.713-29.908 13.431-33.928 29.311-18.486 3.21-32.634 19.433-32.634 38.764v2.975c-4.67 2.836-7.587 8.041-7.243 13.758l15.793 264.529c.247 4.135 3.785 7.28 7.934 7.04 4.135-.247 7.287-3.799 7.04-7.934l-15.725-264.321c.77.022 1.428-.037 2.239-.264h40.951l5.414 148.428c-6.878 10.8-10.513 22.769-10.513 35.213 0 13.989 4.595 27.379 13.227 39.181l5.268 144.46h-27.004c-4.333 0-7.929-3.388-8.187-7.713l-3.585-60.045c-.247-4.135-3.812-7.281-7.934-7.04-4.135.247-7.287 3.799-7.04 7.934l3.585 60.045c.73 12.235 10.904 21.819 23.161 21.819h225.27c12.257 0 22.43-9.584 23.161-21.819.152-2.542 21.49-359.704 21.49-360.418-.001-5.447-2.922-10.212-7.271-12.853zm-65.999 12.828-4.8 131.597c-11.426-10.279-25.541-17.635-40.044-22.135l1.445-109.481c14.948 0 5.867-.004 43.399.019zm-84.016 118.651c46.686 0 89.127 27.324 89.127 64.97 0 37.603-42.962 64.97-89.127 64.97-46.368 0-89.127-27.503-89.127-64.97 0-36.241 40.72-64.97 89.127-64.97zm25.616-118.67-1.397 105.838c-7.623-1.391-15.915-2.167-24.219-2.167-7.947 0-16.32.726-24.219 2.167l-1.397-105.838zm-66.234 0 1.445 109.481c-14.536 4.511-28.629 11.866-40.044 22.135l-4.801-131.616zm-34.684 238.958c11.126 8.916 24.165 15.344 38.094 19.414l1.438 108.909h-34.851zm54.533 128.323-1.393-105.481c4.901.814 11.174 1.488 16.811 1.704.307.102 10.265.145 10.699 0 5.593-.214 11.909-.89 16.811-1.704l-1.391 105.481zm56.538 0 1.438-108.91c13.924-4.068 26.964-10.494 38.094-19.414l-4.681 128.324zm85.052-7.713c-.258 4.325-3.854 7.713-8.187 7.713h-27.004l5.269-144.459c8.632-11.803 13.227-25.192 13.227-39.181 0-12.443-3.636-24.413-10.513-35.213l5.413-148.399 43.259.027z"/></g></g></svg>