<svg id="Capa_1" enable-background="new 0 0 512 512" height="512" viewBox="0 0 512 512" width="512" xmlns="http://www.w3.org/2000/svg"><g><g><path d="m101.596 333.577c-13.807 0-25 11.193-25 25v99.745h99.602v-99.745c0-13.807-11.193-25-25-25z" fill="#fe99a0"/><path d="m221.199 333.577c-13.807 0-25 11.193-25 25v99.745h99.603v-99.745c0-13.807-11.193-25-25-25z" fill="#fe99a0"/><path d="m340.801 333.577c-13.807 0-25 11.193-25 25v99.745h99.603v-99.745c0-13.807-11.193-25-25-25z" fill="#fe99a0"/><path d="m410.404 333.577h-24c13.807 0 25 11.193 25 25v99.745h24v-99.745c0-13.807-11.193-25-25-25z" fill="#fd8087"/><path d="m290.801 333.577h-24c13.807 0 25 11.193 25 25v99.745h24v-99.745c0-13.807-11.193-25-25-25z" fill="#fd8087"/><path d="m171.199 333.577h-24c13.807 0 25 11.193 25 25v99.745h24v-99.745c0-13.807-11.193-25-25-25z" fill="#fd8087"/><path d="m482.205 280h-452.41c-7.18 0-13-5.82-13-13v-246.5c0-7.18 5.82-13 13-13h452.41c7.18 0 13 5.82 13 13v246.5c0 7.18-5.82 13-13 13z" fill="#8d9ca8"/><circle cx="256" cy="143.75" fill="#fe646f" r="80.404"/><path d="m225.703 109.863v67.774c0 7.389 8.093 11.923 14.395 8.066l55.356-33.887c6.026-3.689 6.026-12.443 0-16.132l-55.356-33.887c-6.302-3.857-14.395.678-14.395 8.066z" fill="#eaf6ff"/><path d="m482.205 7.5h-24c7.18 0 13 5.82 13 13v246.5c0 7.18-5.82 13-13 13h24c7.18 0 13-5.82 13-13v-246.5c0-7.18-5.82-13-13-13z" fill="#7a8c98"/><g fill="#fd8087"><path d="m91.4 412.144h-49.605c-13.807 0-25 11.193-25 25v67.356h99.603v-67.356c-.001-13.806-11.192-24.998-24.998-25z"/><path d="m330.605 412.144h-49.605c-13.807 0-25 11.193-25 25v67.356h99.603v-67.356c0-13.806-11.192-24.998-24.998-25z"/><path d="m450.207 412.144h-49.605c-13.807 0-25 11.193-25 25v67.356h99.603v-67.356c0-13.806-11.192-24.998-24.998-25z"/><path d="m211.002 412.144h-49.605c-13.807 0-25 11.193-25 25v67.356h99.603v-67.356c0-13.806-11.191-24.998-24.998-25z"/></g><path d="m470.205 412.144h-24c13.807 0 25 11.193 25 25v67.356h24v-67.356c0-13.807-11.193-25-25-25z" fill="#fe646f"/><path d="m350.603 412.144h-24c13.807 0 25 11.193 25 25v67.356h24v-67.356c0-13.807-11.193-25-25-25z" fill="#fe646f"/><path d="m231 412.144h-24c13.807 0 25 11.193 25 25v67.356h24v-67.356c0-13.807-11.193-25-25-25z" fill="#fe646f"/><path d="m111.397 412.144h-24c13.807 0 25 11.193 25 25v67.356h24v-67.356c0-13.807-11.192-25-25-25z" fill="#fe646f"/></g><g><path d="m482.205 0h-452.41c-11.304 0-20.5 9.196-20.5 20.5v34.339c0 4.142 3.358 7.5 7.5 7.5s7.5-3.358 7.5-7.5v-34.339c0-3.033 2.467-5.5 5.5-5.5h452.41c3.032 0 5.5 2.467 5.5 5.5v246.5c0 3.033-2.468 5.5-5.5 5.5h-452.41c-3.033 0-5.5-2.467-5.5-5.5v-177.161c0-4.142-3.358-7.5-7.5-7.5s-7.5 3.358-7.5 7.5v177.161c0 11.304 9.196 20.5 20.5 20.5h452.41c11.304 0 20.5-9.196 20.5-20.5v-246.5c0-11.304-9.196-20.5-20.5-20.5z"/><path d="m470.205 404.645h-27.302v-46.067c0-17.92-14.579-32.5-32.5-32.5h-69.603c-10.042 0-19.034 4.58-25 11.759-5.966-7.179-14.958-11.759-25-11.759h-69.602c-10.042 0-19.034 4.58-25 11.759-5.966-7.179-14.958-11.759-25-11.759h-69.603c-17.92 0-32.5 14.58-32.5 32.5v46.067h-27.3c-17.92 0-32.5 14.58-32.5 32.5v67.355c0 4.142 3.358 7.5 7.5 7.5h409.41c4.143 0 7.5-3.358 7.5-7.5s-3.357-7.5-7.5-7.5h-43.103v-59.855c0-9.649 7.851-17.5 17.5-17.5h69.603c9.649 0 17.5 7.851 17.5 17.5v59.855h-26.5c-4.143 0-7.5 3.358-7.5 7.5s3.357 7.5 7.5 7.5h34c4.143 0 7.5-3.358 7.5-7.5v-67.355c0-17.921-14.579-32.5-32.5-32.5zm-249.006-63.568h69.602c9.649 0 17.5 7.851 17.5 17.5v46.067h-27.301c-9.94 0-19.01 4.551-25 11.755-6.165-7.419-15.346-11.755-25-11.755h-27.301v-46.067c0-9.649 7.85-17.5 17.5-17.5zm-137.103 17.5c0-9.649 7.851-17.5 17.5-17.5h69.603c9.649 0 17.5 7.851 17.5 17.5v46.067h-27.301c-9.83 0-18.95 4.474-25 11.755-6.109-7.352-15.226-11.755-25-11.755h-27.302zm-59.801 78.568c0-9.649 7.851-17.5 17.5-17.5h69.603c9.649 0 17.5 7.851 17.5 17.5v59.855h-104.603zm119.602 0c0-9.649 7.851-17.5 17.5-17.5h69.603c9.649 0 17.5 7.851 17.5 17.5v59.855h-104.603zm119.603 0c0-9.649 7.851-17.5 17.5-17.5h69.603c9.649 0 17.5 7.851 17.5 17.5v59.855h-104.603zm137.103-32.5c-9.828 0-18.95 4.473-25 11.755-5.958-7.172-15.017-11.755-25-11.755h-27.302v-46.067c0-9.649 7.851-17.5 17.5-17.5h69.603c9.649 0 17.5 7.851 17.5 17.5v46.067z"/><path d="m299.37 129.288-55.356-33.887c-11.304-6.92-25.811 1.202-25.811 14.462v67.773c0 13.249 14.496 21.388 25.81 14.462l55.357-33.887c10.814-6.618 10.796-22.315 0-28.923zm-7.832 16.131-55.356 33.887c-1.314.804-2.979-.129-2.979-1.669v-67.773c0-1.514 1.637-2.491 2.979-1.669l55.356 33.887c1.255.767 1.257 2.568 0 3.337z"/><path d="m343.904 143.75c0-48.471-39.434-87.904-87.904-87.904s-87.904 39.434-87.904 87.904 39.434 87.904 87.904 87.904 87.904-39.433 87.904-87.904zm-160.808 0c0-40.2 32.705-72.904 72.904-72.904s72.904 32.705 72.904 72.904-32.705 72.904-72.904 72.904c-40.2 0-72.904-32.704-72.904-72.904z"/></g></g></svg>