<svg id="Capa_1" enable-background="new 0 0 512 512" height="512" viewBox="0 0 512 512" width="512" xmlns="http://www.w3.org/2000/svg"><g><g><g><path d="m30.616 386.519c-3.923-6.464-10.468-11.16-18.169-12.584-2.858-.529-4.948-2.992-4.948-5.899v-221.894c0-2.907 2.09-5.37 4.948-5.899 10.964-2.028 19.607-10.671 21.635-21.635.529-2.858 2.992-4.948 5.899-4.948h85.585v272.857c-11.061 0-83.841 0-94.951 0 .001.001.001.002.001.002z" fill="#fff0ad"/></g><g><path d="m488.5 135.449v218.586c0 2.907-2.089 5.37-4.948 5.899-10.964 2.028-19.607 10.671-21.635 21.635-.529 2.858-2.992 4.948-5.899 4.948h-330.452v-272.857h346.452c2.907 0 5.37 2.089 5.899 4.948 1.194 6.456 4.593 12.237 10.583 16.841z" fill="#596c76"/></g><path d="m448.01 370.518h-284.444c-4.418 0-8-3.582-8-8v-210.858c0-4.418 3.582-8 8-8h284.444c4.418 0 8 3.582 8 8v210.857c0 4.419-3.582 8.001-8 8.001z" fill="#fe99a0"/><path d="m311.986 170.941 6.212 12.568c.723 1.463 2.121 2.477 3.738 2.712l13.891 2.015c4.072.591 5.698 5.587 2.751 8.455l-10.052 9.783c-1.17 1.139-1.704 2.779-1.428 4.387l2.373 13.814c.696 4.049-3.561 7.137-7.203 5.225l-12.425-6.522c-1.446-.759-3.174-.759-4.62 0l-12.425 6.522c-3.642 1.912-7.899-1.176-7.203-5.225l2.373-13.814c.276-1.608-.258-3.249-1.428-4.387l-10.052-9.783c-2.946-2.868-1.321-7.864 2.751-8.455l13.891-2.015c1.617-.235 3.015-1.249 3.738-2.712l6.212-12.568c1.823-3.684 7.085-3.684 8.906 0z" fill="#ffd15b"/><g><path d="m499.552 373.935c-10.964 2.028-19.607 10.671-21.635 21.635-.529 2.858-2.992 4.948-5.899 4.948h-346.452v-14h330.452c2.907 0 5.37-2.09 5.899-4.948 2.028-10.964 10.671-19.607 21.635-21.635 2.858-.529 4.948-2.992 4.948-5.899v-218.587c3.216 2.365 6.972 4.039 11.052 4.793 2.858.529 4.948 2.992 4.948 5.899v221.894c0 2.908-2.089 5.371-4.948 5.9z" fill="#465a61"/></g><path d="m125.566 386.518v14h-85.584c-2.907 0-5.37-2.09-5.899-4.948-.604-3.263-1.805-6.313-3.467-9.052z" fill="#ffe177"/><path d="m84.533 340.678h-36c-3.314 0-6-2.686-6-6v-153c0-3.314 2.686-6 6-6h36c3.314 0 6 2.686 6 6v153c0 3.313-2.686 6-6 6z" fill="#b6c4cf"/></g><g><path d="m500.916 131.779c-7.887-1.458-14.165-7.738-15.624-15.624-1.188-6.423-6.77-11.084-13.273-11.084h-68.866c-4.143 0-7.5 3.358-7.5 7.5s3.357 7.5 7.5 7.5h67.632c2.889 13 13.217 23.328 26.216 26.216v219.425c-12.999 2.889-23.327 13.215-26.216 26.216h-337.719v-271.857h235.086c4.143 0 7.5-3.358 7.5-7.5s-3.357-7.5-7.5-7.5c-7.021 0-323.924 0-328.171 0-6.504 0-12.086 4.662-13.273 11.083-1.459 7.887-7.737 14.166-15.624 15.625-6.423 1.189-11.084 6.771-11.084 13.274v151.851c0 4.142 3.357 7.5 7.5 7.5s7.5-3.358 7.5-7.5v-150.616c12.999-2.889 23.327-13.215 26.216-26.216h76.851v271.857h-76.851c-2.889-13.001-13.216-23.328-26.216-26.216v-33.809c0-4.142-3.357-7.5-7.5-7.5s-7.5 3.358-7.5 7.5v35.043c0 6.503 4.661 12.085 11.084 13.274 7.887 1.458 14.165 7.737 15.624 15.623 1.188 6.423 6.77 11.084 13.273 11.084h432.037c6.504 0 12.086-4.662 13.273-11.083 1.459-7.887 7.737-14.166 15.624-15.624 6.423-1.188 11.084-6.771 11.084-13.274v-221.894c.001-6.503-4.66-12.085-11.083-13.274z"/><path d="m148.066 150.571v210.857c0 8.547 6.953 15.5 15.5 15.5h284.444c8.547 0 15.5-6.953 15.5-15.5v-210.857c0-8.547-6.953-15.5-15.5-15.5h-284.444c-8.546 0-15.5 6.953-15.5 15.5zm300.444 0v210.857c0 .276-.225.5-.5.5h-284.444c-.275 0-.5-.224-.5-.5v-210.857c0-.276.225-.5.5-.5h284.444c.275 0 .5.224.5.5z"/><path d="m84.533 347.089c7.444 0 13.5-6.056 13.5-13.5v-153c0-7.444-6.056-13.5-13.5-13.5h-36c-7.444 0-13.5 6.056-13.5 13.5v153c0 7.444 6.056 13.5 13.5 13.5zm-34.5-165h33v150h-33z"/><path d="m280.35 209.825-2.146 12.492c-1.747 10.177 8.949 17.931 18.08 13.135l11.25-5.905 11.249 5.905c9.137 4.794 19.828-2.96 18.081-13.136l-2.146-12.492 9.092-8.848c7.399-7.202 3.315-19.77-6.905-21.251l-12.575-1.824-5.62-11.372c-4.573-9.25-17.78-9.246-22.352 0l-5.62 11.372-12.574 1.825c-10.219 1.481-14.308 14.048-6.905 21.251zm27.184-32.054c6.974 14.111 5.614 13.665 22.113 16.058-11.31 11.007-11.255 9.558-8.438 25.956-8.276-4.344-9.806-5.565-13.676-5.565-3.869 0-5.399 1.221-13.676 5.565 2.671-15.544 3.485-14.351-8.438-25.956 16.524-2.397 15.163-1.992 22.115-16.058z"/><path d="m307.534 249.262c-4.143 0-7.5 3.358-7.5 7.5v81.273c0 4.142 3.357 7.5 7.5 7.5s7.5-3.358 7.5-7.5v-81.273c0-4.142-3.357-7.5-7.5-7.5z"/><path d="m238.468 339.33c1.323 3.719 4.853 6.206 8.797 6.206h.064c3.97-.027 7.496-2.57 8.791-6.376l26.578-79.88c1.308-3.93-.818-8.176-4.748-9.484-3.932-1.31-8.177.818-9.484 4.749l-21.318 64.072-22.36-64.316c-1.36-3.912-5.63-5.985-9.547-4.621-3.912 1.36-5.981 5.634-4.621 9.547z"/><path d="m343.779 257.029v81.273c0 4.142 3.357 7.5 7.5 7.5s7.5-3.358 7.5-7.5v-27.843c5.14-.028 11.7-.059 15.165-.059 17.05 0 30.921-13.653 30.921-30.436 0-16.782-13.871-30.435-30.921-30.435h-22.665c-4.093 0-7.5 3.323-7.5 7.5zm30.165 7.5c8.63 0 15.921 7.068 15.921 15.435s-7.291 15.436-15.921 15.436c-3.449 0-9.921.031-15.051.058-.07-12.965-.044-14.09-.092-30.929z"/></g></g></svg>