<svg id="Capa_1" enable-background="new 0 0 512 512" height="512" viewBox="0 0 512 512" width="512" xmlns="http://www.w3.org/2000/svg"><g><g><g><path d="m381.676 152.918c-5.447 0-9.662 0-15.043 0-10.149 0-18.377 8.228-18.377 18.377v53.723h51.798v-53.723c-.001-10.15-8.229-18.377-18.378-18.377z" fill="#d8ecfe"/><path d="m376.767 152.049c12.201-3.101 21.226-14.158 21.226-27.323 0-13.166-9.025-24.222-21.226-27.323h-3.483c-13.313 3.631-21.226 15.063-21.226 27.323 0 13.166 9.025 24.222 21.226 27.323z" fill="#ffcebf"/><path d="m380.25 96.533c-2.404 0-4.738.303-6.966.869 12.201 3.101 21.226 14.157 21.226 27.323s-9.025 24.222-21.226 27.323c17.871 4.542 35.159-8.983 35.159-27.323 0-15.57-12.623-28.192-28.193-28.192z" fill="#ffb09e"/><path d="m393.867 152.918h-13.933c10.149 0 18.377 8.228 18.377 18.377v53.723h13.933v-53.723c0-10.15-8.227-18.377-18.377-18.377z" fill="#c4e2ff"/></g><path d="m499.5 310.081h-114.25c-2.761 0-5-2.239-5-5v-88.429c0-16.569 13.431-30 30-30h64.25c16.569 0 30 13.431 30 30v88.429c0 2.761-2.239 5-5 5z" fill="#fe646f"/><path d="m474.5 186.652h-18c16.569 0 30 13.431 30 30v93.429h13c2.761 0 5-2.239 5-5v-88.429c0-16.569-13.431-30-30-30z" fill="#fd4755"/><g><path d="m445.065 221.348c-7.388 0-12.328 0-19.646 0-11.193 0-20.266 9.073-20.266 20.266v68.467h60.178v-68.467c0-11.193-9.074-20.266-20.266-20.266z" fill="#8d9ca8"/><path d="m476.917 310.081v-6.381l2.333-1.625h.081v-60.461c0-11.193-9.073-20.266-20.266-20.266h-16c11.192 0 20.266 9.073 20.266 20.266v68.467z" fill="#7a8c98"/></g><path d="m133.176 152.918c-5.447 0-9.662 0-15.043 0-10.149 0-18.377 8.228-18.377 18.377v53.723h51.798v-53.723c-.001-10.15-8.229-18.377-18.378-18.377z" fill="#3c87d0"/><path d="m149.493 124.71c0-15.121-12.161-27.323-24.709-27.323-13.313 3.631-21.226 15.063-21.226 27.323 0 13.166 9.025 24.222 21.226 27.323 12.501 0 24.709-12.156 24.709-27.323z" fill="#ffcebf"/><path d="m124.784 97.387c12.201 3.101 21.226 14.157 21.226 27.323s-9.025 24.222-21.226 27.323c17.871 4.542 35.159-8.983 35.159-27.323 0-18.356-17.302-31.862-35.159-27.323z" fill="#ffb09e"/><path d="m145.367 152.918h-13.933c10.149 0 18.377 8.228 18.377 18.377v53.723h13.933v-53.723c0-10.15-8.227-18.377-18.377-18.377z" fill="#0473ce"/><path d="m131.75 310.081h-119.25c-2.761 0-5-2.239-5-5v-88.429c0-16.569 13.431-30 30-30h64.25c16.569 0 30 13.431 30 30z" fill="#fe646f"/><path d="m101.75 186.652h-18c16.569 0 30 13.431 30 30v93.429h18v-93.429c0-16.569-13.431-30-30-30z" fill="#fd4755"/><path d="m65.338 220.278c15.015-3.817 26.123-17.424 26.123-33.626 0-16.203-11.107-29.809-26.123-33.626h-4.287c-35.222 9.608-34.215 58.555 0 67.252z" fill="#ffcebf"/><path d="m61.052 153.025c15.015 3.817 26.123 17.423 26.123 33.626s-11.107 29.809-26.123 33.626c21.994 5.59 43.27-11.056 43.27-33.626-.001-22.59-21.293-39.212-43.27-33.626z" fill="#ffb09e"/><path d="m86.581 221.348h-16c11.193 0 20.266 9.073 20.266 20.266v68.467h16v-68.467c0-11.193-9.074-20.266-20.266-20.266z" fill="#7bacdf"/><path d="m72.581 221.348c-7.388 0-12.328 0-19.646 0-11.193 0-20.266 9.073-20.266 20.266v60.877l2.789 2.875v4.715h57.389v-68.467c0-11.193-9.074-20.266-20.266-20.266z" fill="#98bce5"/><path d="m257.426 152.918c-5.447 0-9.662 0-15.043 0-10.149 0-18.377 8.228-18.377 18.377v53.723h51.798v-53.723c-.001-10.15-8.229-18.377-18.378-18.377z" fill="#8d9ca8"/><path d="m273.743 124.71c0-15.121-12.161-27.323-24.709-27.323-13.313 3.631-21.226 15.063-21.226 27.323 0 13.166 9.025 24.222 21.226 27.323 12.527 0 24.709-12.181 24.709-27.323z" fill="#ffcebf"/><path d="m249.034 97.387c12.201 3.101 21.226 14.157 21.226 27.323s-9.025 24.222-21.226 27.323c17.871 4.542 35.159-8.983 35.159-27.323 0-18.356-17.302-31.862-35.159-27.323z" fill="#ffb09e"/><path d="m269.617 152.918h-13.933c10.149 0 18.377 8.228 18.377 18.377v53.723h13.933v-53.723c0-10.15-8.227-18.377-18.377-18.377z" fill="#7a8c98"/><path d="m256 310.081h-124.25v-93.429c0-16.569 13.431-30 30-30h64.25c16.569 0 30 13.431 30 30z" fill="#fe646f"/><path d="m226 186.652h-18c16.569 0 30 13.431 30 30v93.429h18v-93.429c0-16.569-13.431-30-30-30z" fill="#fd4755"/><path d="m196.634 221.348c-6.923 0-13.378 0-19.517 0-12.491 0-22.616 10.126-22.616 22.616v66.116h64.75v-66.116c-.001-12.49-10.127-22.616-22.617-22.616z" fill="#d8ecfe"/><path d="m210.634 221.348h-16c12.491 0 22.616 10.126 22.616 22.616v66.116h16v-66.116c0-12.49-10.126-22.616-22.616-22.616z" fill="#c4e2ff"/><path d="m380.25 310.081h-124.25v-93.429c0-16.569 13.431-30 30-30h64.25c16.569 0 30 13.431 30 30z" fill="#fe646f"/><path d="m350.25 186.652h-18c16.569 0 30 13.431 30 30v93.429h18v-93.429c0-16.569-13.431-30-30-30z" fill="#fd4755"/><path d="m320.884 221.348c-6.923 0-13.378 0-19.517 0-12.491 0-22.616 10.126-22.616 22.616v66.116h64.75v-66.116c-.001-12.49-10.127-22.616-22.617-22.616z" fill="#ffe177"/><path d="m334.884 221.348h-16c12.491 0 22.616 10.126 22.616 22.616v66.116h16v-66.116c0-12.49-10.126-22.616-22.616-22.616z" fill="#ffd15b"/><path d="m125.608 267.63h-56.99c-19.854 0-35.949 16.095-35.949 35.949v106.955c0 2.761 2.239 5 5 5h22.261l3.285-3.285h86.785l3.285 3.285h10.271v-111.956c0-18.11-13.684-35.948-37.948-35.948z" fill="#fd8087"/><path d="m274.495 267.63c-6.68 0-50.394 0-56.99 0-19.854 0-35.948 16.095-35.948 35.949v111.955h27.261l5.125-3.5h83.634l5.607 3.5h9.261v-111.956c-.001-18.11-13.686-35.948-37.95-35.948z" fill="#fd8087"/><path d="m423.382 267.63c-6.68 0-50.394 0-56.99 0-19.854 0-35.948 16.095-35.948 35.949v111.955h27.261l5.607-6h83.152l5.607 6h9.261v-111.956c-.001-18.11-13.686-35.948-37.95-35.948z" fill="#fd8087"/><path d="m189.547 220.278c15.015-3.817 26.123-17.424 26.123-33.626 0-16.203-11.107-29.809-26.123-33.626h-4.287c-35.222 9.608-34.215 58.555 0 67.252z" fill="#ffcebf"/><path d="m185.26 153.025c15.015 3.817 26.123 17.423 26.123 33.626s-11.107 29.809-26.123 33.626c21.994 5.59 43.27-11.056 43.27-33.626 0-22.59-21.292-39.212-43.27-33.626z" fill="#ffb09e"/><path d="m313.797 220.278c15.015-3.817 26.123-17.424 26.123-33.626 0-16.203-11.107-29.809-26.123-33.626h-4.287c-35.222 9.608-34.215 58.555 0 67.252z" fill="#ffcebf"/><path d="m309.51 153.025c15.015 3.817 26.123 17.423 26.123 33.626s-11.107 29.809-26.123 33.626c21.994 5.59 43.27-11.056 43.27-33.626 0-22.59-21.292-39.212-43.27-33.626z" fill="#ffb09e"/><path d="m438.047 220.278c15.015-3.817 26.123-17.424 26.123-33.626 0-16.203-11.107-29.809-26.123-33.626h-4.287c-35.222 9.608-34.215 58.555 0 67.252z" fill="#ffcebf"/><path d="m433.76 153.025c15.015 3.817 26.123 17.423 26.123 33.626s-11.107 29.809-26.123 33.626c21.994 5.59 43.27-11.056 43.27-33.626 0-22.59-21.292-39.212-43.27-33.626z" fill="#ffb09e"/><g fill="#fe646f"><path d="m443.382 267.63h-20c19.854 0 35.949 16.095 35.949 35.949v111.955h15c2.761 0 5-2.239 5-5v-106.956c0-19.854-16.095-35.948-35.949-35.948z"/><path d="m145.608 267.63h-20c19.854 0 35.949 16.095 35.949 35.949v111.955h20v-111.956c-.001-19.854-16.095-35.948-35.949-35.948z"/><path d="m294.495 267.63h-20c19.854 0 35.949 16.095 35.949 35.949v111.955h20v-111.956c0-19.854-16.095-35.948-35.949-35.948z"/></g><path d="m111.194 309.205c-8.962 0-15.084 0-24.163 0-14.968 0-27.101 12.134-27.101 27.101v79.227h78.365v-79.227c0-14.967-12.133-27.101-27.101-27.101z" fill="#ffe177"/><path d="m127.194 309.205h-18c14.968 0 27.101 12.134 27.101 27.101v79.227h18v-79.227c0-14.967-12.133-27.101-27.101-27.101z" fill="#ffd15b"/><path d="m260.082 309.205c-8.962 0-15.084 0-24.163 0-14.968 0-27.101 12.134-27.101 27.101v79.227h78.365v-79.227c0-14.967-12.134-27.101-27.101-27.101z" fill="#98bce5"/><path d="m276.082 309.205h-18c14.968 0 27.101 12.134 27.101 27.101v79.227h18v-79.227c0-14.967-12.134-27.101-27.101-27.101z" fill="#7bacdf"/><path d="m408.969 309.205c-8.962 0-15.084 0-24.163 0-14.968 0-27.101 12.134-27.101 27.101v79.227h78.365v-79.227c0-14.967-12.134-27.101-27.101-27.101z" fill="#3c87d0"/><g><path d="m430.463 267.617c0-19.87-13.943-36.474-32.576-40.588h-2c-18.633 4.114-32.576 20.718-32.576 40.588s13.943 36.474 32.576 40.588c12.283 0 34.576-15.06 34.576-40.588z" fill="#ffcebf"/><path d="m395.887 227.029c18.633 4.114 32.576 20.718 32.576 40.588s-13.943 36.474-32.576 40.588c26.137 5.771 50.576-14.166 50.576-40.588 0-26.439-24.459-46.354-50.576-40.588z" fill="#ffb09e"/></g><path d="m424.969 309.205h-18c14.968 0 27.101 12.134 27.101 27.101v79.227h18v-79.227c0-14.967-12.134-27.101-27.101-27.101z" fill="#0473ce"/><g><path d="m283.657 267.617c0-19.87-13.943-36.474-32.576-40.588h-2c-18.633 4.114-32.576 20.718-32.576 40.588s13.943 36.474 32.576 40.588c12.284 0 34.576-15.06 34.576-40.588z" fill="#ffcebf"/><path d="m249.082 227.029c18.633 4.114 32.576 20.718 32.576 40.588s-13.943 36.474-32.576 40.588c26.137 5.771 50.576-14.166 50.576-40.588-.001-26.439-24.46-46.354-50.576-40.588z" fill="#ffb09e"/></g><g><path d="m134.77 267.617c0-19.87-13.943-36.474-32.576-40.588h-2c-18.633 4.114-32.576 20.718-32.576 40.588s13.943 36.474 32.576 40.588c12.284 0 34.576-15.06 34.576-40.588z" fill="#ffcebf"/><path d="m100.194 227.029c18.633 4.114 32.576 20.718 32.576 40.588s-13.943 36.474-32.576 40.588c26.137 5.771 50.576-14.166 50.576-40.588 0-26.439-24.459-46.354-50.576-40.588z" fill="#ffb09e"/></g></g><path d="m484.057 180.41c-4.786-33.125-45.123-47.404-69.926-25.248-2.06-2.591-4.602-4.767-7.491-6.4 20.822-22.399 4.301-59.966-26.391-59.728-30.752-.234-47.147 37.376-26.408 59.72-2.932 1.656-5.502 3.874-7.573 6.516-15.275-14.47-41.159-14.08-56.387-.108-2.062-2.593-4.607-4.772-7.501-6.406 23.627-26.136-.926-67.189-35.195-58.637-26.017 6.359-35.569 39.478-17.585 58.63-2.936 1.656-5.508 3.876-7.582 6.521-16.512-14.785-40.511-14.081-56.387-.108-2.062-2.593-4.607-4.772-7.501-6.406 23.627-26.135-.926-67.189-35.195-58.637-26.019 6.359-35.57 39.483-17.582 58.634-2.927 1.652-5.494 3.863-7.565 6.497-24.298-22.601-65.99-7.321-69.84 25.159-16.101 4.274-27.948 19.096-27.948 36.243v31.884c.302 9.903 14.693 9.921 15 0v-31.884c0-9.089 5.544-17.093 13.496-20.602 1.76 8.221 5.81 15.44 11.506 20.999-9.007 4.755-14.833 14.193-14.833 24.566.001.09-.002 60.884.001 60.967h-10.17v-19.045c-.302-9.906-14.694-9.918-15 0v21.545c0 6.893 5.607 12.5 12.5 12.5h12.669v92.952c0 6.893 5.607 12.5 12.5 12.5h353.143c4.143 0 7.5-3.358 7.5-7.5s-3.357-7.5-7.5-7.5h-25.606v-71.727c0-10.808 8.793-19.601 19.601-19.601h40.163c10.809 0 19.602 8.793 19.602 19.601v71.727h-18.685c-4.143 0-7.5 3.358-7.5 7.5s3.357 7.5 7.5 7.5h48.445c6.893 0 12.5-5.607 12.5-12.5v-92.952h12.668c6.893 0 12.5-5.607 12.5-12.5v-88.429c0-17.138-11.847-31.964-27.943-36.243zm-86.553 120.471c-15.466-3.409-26.727-17.462-26.691-33.336 1.532-44.54 66.331-45.442 68.149.04.019 21.571-19.923 38.057-41.458 33.296zm-90.621-38.946c-1.184-10.665-6.258-21.539-14.93-29.8 9.172-5.041.515-2.744 42.931-3.288 8.335.001 15.116 6.782 15.116 15.117v19.381c-8.093 3.284-14.856 8.874-19.598 15.876-5.575-8.187-13.898-14.413-23.519-17.286zm-56.184 38.946c-15.523-3.427-26.693-17.472-26.693-33.264 1.526-44.661 66.031-45.394 68.14-.39-.212 23.371-20.973 38.171-41.447 33.654zm-69.187-21.788c-4.957-7.268-11.976-12.695-19.512-15.753v-19.375c0-8.335 6.781-15.117 15.116-15.117h33.518c4.378 0 8.611 1.895 11.531 5.343-6.94 7.445-11.434 16.855-12.757 26.692-11.474 2.12-21.513 8.794-27.896 18.21zm-63.379-118.675h27.234c4.912 0 9.085 3.221 10.423 7.76-1.911 4.018-2.983 7.93-3.662 12.24-7.751 2.067-15.151 6.869-20.381 13.86-4.826-6.462-11.974-11.598-20.353-13.852-.582-3.843-1.859-8.197-3.731-12.085 1.284-4.63 5.49-7.923 10.47-7.923zm124.25 0h27.234c4.911 0 9.084 3.22 10.424 7.759-1.799 3.783-3.029 7.892-3.634 12.234-8.097 2.173-15.309 7.065-20.408 13.863-5.018-6.701-12.282-11.696-20.405-13.863-.63-4.137-1.926-8.32-3.688-11.998 1.277-4.61 5.556-7.995 10.477-7.995zm124.25 0h27.234c4.911 0 9.084 3.22 10.424 7.759-1.799 3.783-3.029 7.892-3.634 12.234-8.314 2.231-15.476 7.27-20.407 13.862-4.906-6.532-12.044-11.629-20.409-13.866-.611-4.008-1.873-8.212-3.685-11.993 1.277-4.611 5.556-7.996 10.477-7.996zm21.117 61.226v-4.993c0-8.814 5.322-16.96 13.461-20.573 1.747 8.133 5.738 15.284 11.346 20.815-1.013.531-1.994 1.15-2.976 1.869-7.238-.683-14.9.284-21.831 2.882zm-40.058-4.932c5.795-5.683 9.764-12.824 11.536-20.65 8.411 3.708 13.522 11.959 13.522 20.59v13.895c-3.063 2.664-5.771 5.693-8.076 8.983-1.353-9.406-7.464-18.307-16.982-22.818zm-84.192 2.111c-.659-9.484 4.456-18.796 13.461-22.744 1.743 8.109 5.714 15.243 11.296 20.767-3.226 1.562-6.331 3.809-8.888 6.544-4.839-2.338-10.315-3.964-15.869-4.567zm-29.545 6.059c-2.77-3.401-6.403-6.266-10.493-8.191 5.783-5.679 9.745-12.811 11.515-20.626 9.525 4.151 14.273 13.78 13.523 23.422-4.862.963-9.886 2.756-14.545 5.395zm-86.2 12.367c-2.142-2.738-5.3-5.934-8.505-8.418v-12.179c0-8.69 5.143-16.863 13.464-20.56 1.744 8.105 5.717 15.238 11.298 20.76-8.32 4.035-14.259 11.688-16.257 20.397zm-44.046 63.996c-16.625-2.716-28.601-17.291-28.591-33.649 1.31-43.366 63.84-46.063 68.087-2.047 1.304 21.726-17.872 39.226-39.496 35.696zm-4.606-84.407c5.86-5.698 9.875-12.879 11.663-20.754 10.348 4.684 14.273 14.404 13.485 24.804-6.739-2.178-14.177-2.906-21.596-1.9-.963-.688-2.21-1.457-3.552-2.15zm-46.167 12.01h26.237c-10.453 8.139-16.889 19.93-18.585 32.029-7.751 1.423-14.738 4.86-20.419 9.756v-29.019c0-7.039 5.727-12.766 12.767-12.766zm418.895 41.917c-5.436-4.721-11.929-7.899-18.263-9.422-1.6-12.58-8.079-24.41-18.582-32.542 5.599.063 5.418.047 24.078.047 7.039 0 12.767 5.727 12.767 12.766zm-36.162-110.486c17.227-4.338 33.86 8.693 33.86 26.373-1.018 34.664-51.151 36.768-54.238 1.919-.868-12.591 6.291-24.421 20.378-28.292zm-55.419-56.246c19.513-.073 28.174 25.147 12.693 37.028-5.167 4.018-11.707 5.273-17.812 3.719-23.345-6.35-19.088-40.333 5.119-40.747zm-68.831 56.246c17.244-4.343 33.86 8.718 33.86 26.373-.88 34.408-50.909 36.756-54.211 2.288-1.057-13.011 6.315-24.809 20.351-28.661zm-60.476-55.639c12.671-3.488 26.045 6.932 25.749 20.07.294 13.158-13.122 23.593-25.811 20.054-20.589-5.428-20.707-34.513.062-40.124zm-63.774 55.639c17.2-4.331 33.86 8.654 33.86 26.373-.83 34.278-50.796 36.875-54.211 2.288-1.016-13.446 6.675-24.903 20.351-28.661zm-60.476-55.639c12.671-3.488 26.045 6.932 25.749 20.07.294 13.158-13.122 23.593-25.811 20.054-20.589-5.428-20.707-34.513.062-40.124zm-63.731 55.638c17.24-4.343 33.932 8.741 33.855 26.466-.682 34.2-52.142 37.285-54.285.637-.229-10.489 5.048-22.808 20.43-27.103zm-22.72 141.531c.752-12.221 9.207-22.377 20.647-25.602 1.946 10.755 7.478 20.351 14.986 27.344-13.796 4.715-23.445 17.771-23.445 32.756v71.727h-12.261c0-114.451-.032-104.488.073-106.225zm27.188 34.497c0-10.808 8.793-19.601 19.602-19.601h40.163c10.808 0 19.601 8.793 19.601 19.601v71.727h-79.366zm94.365 0c0-13.779-8.26-26.118-20.487-31.59 7.968-6.897 13.719-16.367 15.934-27.092 10.046 4.536 16.815 14.692 16.815 25.954v104.455h-12.262zm27.262-32.728c0-12.965 8.657-24.102 20.716-27.391 1.87 10.369 7.206 20.113 14.99 27.363-13.794 4.71-23.445 17.804-23.445 32.756v71.727h-12.261zm27.26 32.728c0-10.808 8.793-19.601 19.601-19.601h40.164c10.808 0 19.601 8.793 19.601 19.601v71.727h-79.365v-71.727zm94.366 0c0-13.846-8.313-26.142-20.487-31.59 7.905-6.841 13.656-16.189 15.932-27.089 10.321 4.678 16.816 14.971 16.816 25.951v104.455h-12.261zm27.26-32.728c0-12.352 8.116-22.894 18.763-26.728 2.004 10.283 7.382 19.957 15.459 27.246-13.131 5.174-21.96 17.942-21.96 32.21v71.727h-12.262zm133.888 104.455h-12.261v-71.727c0-14.128-8.691-26.941-21.893-32.183 6.779-5.649 13.268-15.957 15.415-27.269 11.006 4.04 18.738 14.699 18.738 26.724v6.502 97.953zm25.169-105.452h-10.184c.047-.576-.003-60.381.015-60.968 0-10.438-5.915-20-15.1-24.701 5.913-5.721 9.96-12.944 11.751-20.871 7.962 3.505 13.518 11.518 13.518 20.611z"/></g></svg>