<svg id="Capa_1" enable-background="new 0 0 512 512" height="512" viewBox="0 0 512 512" width="512" xmlns="http://www.w3.org/2000/svg"><g><g><path d="m64 173.28-39.882-18.152c-2.054-.935-4.354.634-4.354 2.971v1.061 4 254.042h44.236l6.5-4.701v-227.166z" fill="#fd8087"/><path d="m76.673 179.048-12.673-5.768v20.622 35.098 188.201h22v-223.3c0-6.443-3.662-12.275-9.327-14.853z" fill="#fe646f"/><g><path d="m461.26 334.03c10.626 0 19.24-8.614 19.24-19.24v-274.91c0-1.107-.114-2.185-.294-3.24h-374.965c-10.627 0-19.241 8.614-19.241 19.24v274.909c0 1.107.114 2.185.294 3.24h374.966z" fill="#eaf6ff"/></g><path d="m485.26 36.64h-5.053c.179 1.056.294 2.134.294 3.24v274.909c0 10.626-8.614 19.24-19.24 19.24h-374.967c1.543 9.08 9.427 16 18.947 16h380.019c10.626 0 19.24-8.614 19.24-19.24v-274.909c0-10.626-8.614-19.24-19.24-19.24z" fill="#d8ecfe"/><path d="m362.214 330.044h-203.696c-33.277 0-60.253 26.976-60.253 60.253v11.501h324.203v-11.501c-.001-33.277-26.977-60.253-60.254-60.253z" fill="#7bacdf"/><path d="m123.325 464h274.081c15.174-10.941 25.061-28.757 25.061-48.893v-13.309h-324.203v13.309c0 20.136 9.887 37.952 25.061 48.893z" fill="#5f99d7"/><path d="m374.214 330.044h-24c33.277 0 60.253 26.976 60.253 60.253v11.501h24v-11.501c0-33.277-26.976-60.253-60.253-60.253z" fill="#5f99d7"/><path d="m434.467 401.797h-24v13.309c0 4.547-.504 8.977-1.459 13.236-3.597 16.048-18.151 27.26-34.597 27.26h-260.508c11.023 12.136 26.929 19.757 44.615 19.757h215.696c16.713 0 33.051-7.024 44.615-19.757 9.717-10.698 15.638-24.906 15.638-40.496z" fill="#3c87d0"/><g><path d="m415.76 173.63c19.642-4.536 34.291-22.123 34.291-43.143s-14.648-38.608-34.291-43.143h-4c-21.179 5.203-34.291 23.38-34.291 43.143 0 21.021 14.649 38.608 34.291 43.143z" fill="#ffa78f"/><path d="m421.76 86.196c-3.441 0-6.785.405-10 1.148 19.642 4.535 34.291 22.123 34.291 43.143s-14.648 38.608-34.291 43.143c3.215.742 6.559 1.148 10 1.148 24.461 0 44.291-19.83 44.291-44.291s-19.83-44.291-44.291-44.291z" fill="#f89580"/><path d="m289.397 173.63c19.642-4.536 34.291-22.123 34.291-43.143s-14.648-38.608-34.291-43.143h-4c-21.179 5.203-34.291 23.38-34.291 43.143 0 21.021 14.649 38.608 34.291 43.143z" fill="#ffb09e"/><path d="m295.397 86.196c-3.441 0-6.785.405-10 1.148 19.642 4.535 34.291 22.123 34.291 43.143s-14.648 38.608-34.291 43.143c3.215.742 6.559 1.148 10 1.148 24.461 0 44.291-19.83 44.291-44.291s-19.83-44.291-44.291-44.291z" fill="#ffa78f"/><path d="m162.74 173.63c19.642-4.536 34.291-22.123 34.291-43.143s-14.648-38.608-34.291-43.143h-4c-21.179 5.203-34.291 23.38-34.291 43.143 0 21.021 14.649 38.608 34.291 43.143z" fill="#ffcebf"/><path d="m168.74 86.195c-3.441 0-6.785.405-10 1.148 19.642 4.535 34.291 22.123 34.291 43.143s-14.648 38.608-34.291 43.143c3.215.742 6.559 1.148 10 1.148 24.461 0 44.291-19.83 44.291-44.291s-19.83-44.291-44.291-44.291z" fill="#ffb09e"/><path d="m415.76 299.326c19.642-4.536 34.291-22.123 34.291-43.143s-14.648-38.608-34.291-43.143h-4c-21.179 5.203-34.291 23.38-34.291 43.143 0 21.021 14.649 38.608 34.291 43.143z" fill="#ffd15b"/><path d="m421.76 211.892c-3.441 0-6.785.405-10 1.148 19.642 4.535 34.291 22.123 34.291 43.143s-14.648 38.608-34.291 43.143c3.215.742 6.559 1.148 10 1.148 24.461 0 44.291-19.83 44.291-44.291s-19.83-44.291-44.291-44.291z" fill="#ffc344"/><path d="m289.25 299.326c19.642-4.536 34.291-22.123 34.291-43.143s-14.648-38.608-34.291-43.143h-4c-21.179 5.203-34.291 23.38-34.291 43.143 0 21.021 14.649 38.608 34.291 43.143z" fill="#ffe177"/><path d="m295.25 211.892c-3.441 0-6.785.405-10 1.148 19.642 4.535 34.291 22.123 34.291 43.143s-14.648 38.608-34.291 43.143c3.215.742 6.559 1.148 10 1.148 24.461 0 44.291-19.83 44.291-44.291s-19.83-44.291-44.291-44.291z" fill="#ffd15b"/><path d="m162.74 299.326c19.642-4.536 34.291-22.123 34.291-43.143s-14.648-38.608-34.291-43.143h-4c-21.179 5.203-34.291 23.38-34.291 43.143 0 21.021 14.649 38.608 34.291 43.143z" fill="#fff0ad"/><path d="m168.74 211.892c-3.441 0-6.785.405-10 1.148 19.642 4.535 34.291 22.123 34.291 43.143s-14.648 38.608-34.291 43.143c3.215.742 6.559 1.148 10 1.148 24.461 0 44.291-19.83 44.291-44.291s-19.83-44.291-44.291-44.291z" fill="#ffe177"/></g><path d="m75.708 450.49v-188.824c0-2.824-2.289-5.113-5.113-5.113h-53.426c-2.824 0-5.113 2.289-5.113 5.113v188.824c0 2.824 2.289 5.113 5.113 5.113h53.426c2.824 0 5.113-2.289 5.113-5.113z" fill="#b6c4cf"/><path d="m88.595 256.553h-22c2.824 0 5.113 2.289 5.113 5.113v188.824c0 2.824-2.289 5.113-5.113 5.113h22c2.824 0 5.113-2.289 5.113-5.113v-188.824c0-2.824-2.289-5.113-5.113-5.113z" fill="#9facba"/><path d="m12.613 283.508c-2.824 0-5.113 2.289-5.113 5.113v174.739h61.899c6.001 0 10.866-4.865 10.866-10.866v-168.986c-7.051 0-60.104 0-67.652 0z" fill="#596c76"/><path d="m93.151 283.508h-16.887v168.987c0 6.001-4.865 10.866-10.866 10.866h-57.898v1.134c0 6.001 4.865 10.866 10.866 10.866h69.033c6.001 0 10.866-4.865 10.866-10.866v-175.874c-.001-2.824-2.29-5.113-5.114-5.113z" fill="#465a61"/></g><g><path d="m295.25 78.695c-28.558 0-51.791 23.233-51.791 51.791s23.233 51.791 51.791 51.791 51.791-23.233 51.791-51.791-23.233-51.791-51.791-51.791zm0 88.582c-20.287 0-36.791-16.504-36.791-36.791s16.504-36.791 36.791-36.791 36.791 16.504 36.791 36.791-16.504 36.791-36.791 36.791z"/><path d="m168.74 78.695c-28.558 0-51.791 23.233-51.791 51.791s23.233 51.791 51.791 51.791 51.791-23.233 51.791-51.791-23.233-51.791-51.791-51.791zm0 88.582c-20.287 0-36.791-16.504-36.791-36.791s16.504-36.791 36.791-36.791 36.791 16.504 36.791 36.791-16.504 36.791-36.791 36.791z"/><path d="m421.76 182.277c28.558 0 51.791-23.233 51.791-51.791s-23.233-51.791-51.791-51.791-51.791 23.233-51.791 51.791 23.233 51.791 51.791 51.791zm0-88.582c20.287 0 36.791 16.504 36.791 36.791s-16.504 36.791-36.791 36.791-36.791-16.504-36.791-36.791 16.504-36.791 36.791-36.791z"/><path d="m295.25 204.392c-28.558 0-51.791 23.233-51.791 51.791s23.233 51.791 51.791 51.791 51.791-23.233 51.791-51.791-23.233-51.791-51.791-51.791zm0 88.582c-20.287 0-36.791-16.504-36.791-36.791s16.504-36.791 36.791-36.791 36.791 16.504 36.791 36.791-16.504 36.791-36.791 36.791z"/><path d="m168.74 204.392c-28.558 0-51.791 23.233-51.791 51.791s23.233 51.791 51.791 51.791 51.791-23.233 51.791-51.791-23.233-51.791-51.791-51.791zm0 88.582c-20.287 0-36.791-16.504-36.791-36.791s16.504-36.791 36.791-36.791 36.791 16.504 36.791 36.791-16.504 36.791-36.791 36.791z"/><path d="m421.76 307.974c28.558 0 51.791-23.233 51.791-51.791s-23.233-51.791-51.791-51.791-51.791 23.233-51.791 51.791 23.233 51.791 51.791 51.791zm0-88.582c20.287 0 36.791 16.504 36.791 36.791s-16.504 36.791-36.791 36.791-36.791-16.504-36.791-36.791 16.504-36.791 36.791-36.791z"/><path d="m485.26 29.14h-102c-4.142 0-7.5 3.358-7.5 7.5s3.358 7.5 7.5 7.5h102c6.474 0 11.74 5.267 11.74 11.741v274.909c0 6.474-5.267 11.74-11.74 11.74h-63.006c-12.285-12.345-29.439-19.986-48.04-19.986-2.652 0-212.328 0-215.696 0-18.842 0-36.266 7.15-48.04 19.986-1.234 1.345-4.713 5.575-4.713 5.575v-59.483c0-3.845-1.806-7.405-4.556-9.694v-17.261c0-5.167-3.295-9.815-7.708-11.621v-56.144-138.022c0-6.474 5.267-11.741 11.741-11.741h243.018c4.142 0 7.5-3.358 7.5-7.5s-3.358-7.5-7.5-7.5h-243.019c-14.745.001-26.741 11.996-26.741 26.741v115.759l-51.274-23.337c-3.267-1.486-7.021-1.214-10.043.731-3.08 1.982-4.918 5.371-4.918 9.066v91.947c-4.526 1.917-7.708 6.404-7.708 11.621v17.261c-2.782 2.314-4.557 5.8-4.557 9.693v106.981c0 4.142 3.358 7.5 7.5 7.5s7.5-3.358 7.5-7.5v-104.584l75.765-.01v173.487c0 1.856-1.51 3.366-3.366 3.366h-69.033c-1.856 0-3.366-1.51-3.366-3.366v-33.892c0-4.142-3.358-7.5-7.5-7.5s-7.5 3.358-7.5 7.5v33.892c0 10.127 8.239 18.366 18.366 18.366h69.033c10.127 0 18.366-8.239 18.366-18.366v-6.939c12.43 15.417 31.454 25.305 52.753 25.305h215.696c37.359 0 67.753-30.394 67.753-67.753 0-13.891 0-10.829 0-24.81 0-11.88-3.083-23.05-8.477-32.768h51.77c14.745 0 26.74-11.996 26.74-26.74v-274.91c0-14.745-11.996-26.74-26.74-26.74zm-111.046 308.403c28.902 0 52.753 23.504 52.753 52.753v4h-321.202v-4c0-29.276 23.86-52.753 52.753-52.753zm-354.658-61.535v-11.955h.208 66.236.208v11.955zm7.709-111.208 46.302 21.074c2.997 1.364 4.934 4.515 4.934 8.028v55.151h-51.236zm399.702 250.307c0 29.088-23.665 52.753-52.753 52.753h-215.696c-29.088 0-52.753-23.665-52.753-52.753v-5.81h321.202z"/></g></g></svg>