<svg id="Capa_1" enable-background="new 0 0 512 512" height="512" viewBox="0 0 512 512" width="512" xmlns="http://www.w3.org/2000/svg"><g><g><path d="m471.535 105.476c-20.788 0-410.182 0-431.07 0-3.347 0-6.06 2.713-6.06 6.06v288.929c0 3.347 2.713 6.06 6.06 6.06h431.07c3.347 0 6.06-2.713 6.06-6.06v-288.93c0-3.347-2.713-6.059-6.06-6.059z" fill="#eaf6ff"/><path d="m471.535 105.476c-2.48 0-10.218 0-21.94 0v274.989c0 3.347-2.713 6.06-6.06 6.06-18.396 0-322.6 0-409.13 0v13.94c0 3.347 2.713 6.06 6.06 6.06h431.07c3.347 0 6.06-2.713 6.06-6.06v-288.93c0-3.347-2.713-6.059-6.06-6.059z" fill="#d8ecfe"/><circle cx="213.465" cy="181.5" fill="#ffd15b" r="44.5"/><ellipse cx="124.604" cy="278.723" fill="#0cacba" rx="24.461" ry="34.723"/><ellipse cx="391.046" cy="178.167" fill="#0cacba" rx="29" ry="41.167"/><path d="m483.968 425.795v-80.652c0-51.441-41.702-93.143-93.143-93.143-30.562 0-59.811 12.422-81.032 34.415-18.371 19.039-36.438 28.231-56.489 35.962-31.929 12.31-65.854 18.623-100.073 18.623h-125.198v84.795z" fill="#93d8de"/><ellipse cx="309.333" cy="267.167" fill="#0cacba" rx="29" ry="41.167"/><path d="m40.465 406.525h431.07c3.347 0 6.06-2.713 6.06-6.06v-89.243c-5.905-15.095-15.637-28.269-28-38.337v107.579c0 3.347-2.713 6.06-6.06 6.06-18.396 0-322.6 0-409.13 0v13.94c0 3.347 2.713 6.061 6.06 6.061z" fill="#75cdd5"/><path d="m493 87.467-10.5-12.73h-457.271c-9.769 0-17.729 7.923-17.729 17.729v326.797l20.533 6.532h464.967c-2-6.795 0-338.328 0-338.328zm-449.5 34.27c0-6.04 4.923-11 11-11h403c6.074 0 11 4.958 11 11v268.526c0 6.042-4.922 11-11 11h-403c-6.074 0-11-4.955-11-11z" fill="#c38f86"/><path d="m499.341 79.967c-5.841-5.874-12.225-5.23-16.841-5.23v326.797c0 9.718-7.9 17.729-17.729 17.729-3.683 0-452.758 0-457.271 0 0 10.566 8.357 18 17.729 18h461.542c9.771 0 17.729-7.941 17.729-17.729v-327.068c0-4.878-1.971-9.293-5.159-12.499z" fill="#b87d72"/></g><g><path d="m214.105 233.952c28.304 0 51.33-23.026 51.33-51.33 0-28.303-23.026-51.33-51.33-51.33s-51.33 23.026-51.33 51.33c0 28.303 23.027 51.33 51.33 51.33zm0-87.66c20.032 0 36.33 16.297 36.33 36.33s-16.298 36.33-36.33 36.33-36.33-16.298-36.33-36.33 16.298-36.33 36.33-36.33z"/><path d="m504.5 338.219c4.142 0 7.5-3.358 7.5-7.5v-238.253c0-13.892-11.261-25.229-25.229-25.229h-336.011c-4.142 0-7.5 3.358-7.5 7.5s3.358 7.5 7.5 7.5h335.922l-18.331 18.877-3.532 3.637c-2.287-.988-4.773-1.514-7.319-1.514h-403c-2.546 0-5.033.526-7.319 1.514l-3.532-3.637-18.331-18.877h90.443c4.142 0 7.5-3.358 7.5-7.5s-3.358-7.5-7.5-7.5h-90.532c-13.949 0-25.229 11.318-25.229 25.229v327.068c0 13.853 11.231 25.229 25.229 25.229h461.542c13.966 0 25.229-11.345 25.229-25.229v-53.815c0-4.142-3.358-7.5-7.5-7.5s-7.5 3.358-7.5 7.5v53.047l-21.965-22.618c.571-1.699.965-3.891.965-5.884v-96.529-171.998c0-2.04-.339-4.049-.987-5.952l21.987-22.641v237.575c0 4.142 3.358 7.5 7.5 7.5zm-17.729 91.544h-461.542c7.496-7.719 13.28-13.675 21.889-22.54.023.01.047.016.069.026 2.216.958 4.728 1.513 7.313 1.513h403c2.543 0 5.136-.557 7.382-1.54 8.609 8.866 14.401 14.83 21.889 22.541zm-360.189-158.882c-4.142 0-7.5 3.358-7.5 7.5v23.703c-5.344-4.493-9.092-13.541-9.092-23.703 0-14.473 7.598-26.7 16.592-26.7s16.593 12.227 16.593 26.7c0 10.162-3.748 19.21-9.093 23.703v-23.703c0-4.142-3.358-7.5-7.5-7.5zm26.648 77.619c57.905 0 111.592-18.509 139.802-37.963 2.513 1.556 5.19 2.743 7.998 3.505v25.678c0 4.142 3.358 7.5 7.5 7.5s7.5-3.358 7.5-7.5v-25.678c18.076-4.905 27.585-25.062 28.485-43.785 41.126-20.168 90.038-11.962 116.484 25.789v94.217c0 1.82-1.509 3.5-3.5 3.5h-403c-1.971 0-3.5-1.656-3.5-3.5v-41.763zm176.364-81.501c0 13.792-5.721 25.929-13.563 30.786v-30.786c0-4.142-3.358-7.5-7.5-7.5s-7.5 3.358-7.5 7.5v30.764c-9.367-5.872-13.563-19.5-13.563-30.764 0-17.913 9.646-33.047 21.063-33.047 13.344 0 21.063 18.42 21.063 33.047zm59.419-95.161c-4.142 0-7.5 3.358-7.5 7.5v30.786c-7.842-4.858-13.563-16.994-13.563-30.786 0-17.913 9.646-33.046 21.063-33.046s21.063 15.133 21.063 33.046c0 13.792-5.721 25.929-13.563 30.786v-30.786c0-4.142-3.358-7.5-7.5-7.5zm-374.013-78.694 21.987 22.642c-.648 1.903-.987 3.912-.987 5.952v219.262 49.263c0 1.986.395 4.195.965 5.884l-21.965 22.618zm442.5 25.093c1.942 0 3.5 1.611 3.5 3.5v151.261c-17.262-16.814-40.07-26.96-64.487-28.33v-18.285c16.505-4.481 28.563-23.539 28.563-47.044 0-26.942-15.841-48.046-36.063-48.046s-36.063 21.104-36.063 48.046c0 23.505 12.058 42.563 28.563 47.044v18.497c-13.128 1.029-26.052 4.211-38.153 9.41-4.085-20.582-17.922-35.338-34.829-35.338-20.223 0-36.063 21.104-36.063 48.047 0 12.83 3.597 24.329 9.544 32.862-25.75 16.832-75.296 33.639-128.781 33.639h-19.148v-14.565c13.979-4.336 24.093-20.594 24.093-40.554 0-23.383-13.877-41.7-31.593-41.7-17.715 0-31.592 18.317-31.592 41.7 0 19.96 10.114 36.218 24.092 40.554v14.565h-68.083v-211.763c0-1.886 1.554-3.5 3.5-3.5z"/></g></g></svg>