<svg id="Capa_1" enable-background="new 0 0 512.023 512.023" height="512" viewBox="0 0 512.023 512.023" width="512" xmlns="http://www.w3.org/2000/svg"><g><g><g><path d="m456.191 491.62c-32.231 22.569-76.814 14.707-99.383-17.524l-155.795-222.498c-4.147-5.922-2.707-14.085 3.215-18.232s14.085-2.707 18.232 3.215l155.795 222.498c14.288 20.406 42.514 25.383 62.919 11.095 20.406-14.289 25.383-42.514 11.095-62.92l-160.205-228.795c-16.508-23.575-10.757-56.186 12.818-72.694l30.592-21.421c5.922-4.147 14.085-2.708 18.232 3.215s2.707 14.085-3.215 18.232l-30.591 21.421c-11.75 8.227-14.616 24.48-6.389 36.23l160.204 228.795c22.569 32.231 14.707 76.814-17.524 99.383z" fill="#465a61"/></g><path d="m300.271 416.469-.774 7.997 6.66 8.879c5.091 6.786 14.426 8.458 21.106 3.781l3.276-2.294.001-.001 5.051-3.537c6.68-4.678 8.302-14.022 3.666-21.127-7.278-11.154-5.157-7.998-9.568-14.298z" fill="#b6c4cf"/><path d="m97.586 174.063-1.184 6.718 43.762 51.189c8.676-6.075 62.854-44.011 69.337-48.551l-33.134-58.63-2.767-3.951c-8.22 5.756-68.486 47.954-76.014 53.225z" fill="#8d9ca8"/><path d="m94.271 24.268c-4.141-4.859-11.671-5.538-17.347-1.566l-45.546 31.892c-5.676 3.974-7.614 11.284-4.464 16.838l47.291 83.385 82.249-57.591z" fill="#7a8c98"/><path d="m245.007 273.036 90.974 139.426c4.636 7.105 3.014 16.449-3.666 21.127l-5.052 3.538s.001 0 .001-.001l26.349-18.45c6.68-4.678 8.302-14.022 3.666-21.127l-90.974-139.426c-1.023.716-10.327 7.231-21.298 14.913z" fill="#9facba"/><path d="m299.497 424.466 51.717-36.213-84.909-130.131c-2.563 1.795-57.106 39.986-59.64 41.76l-.411.288z" fill="#9facba"/><path d="m74.205 154.817 22.197 25.964 76.687-53.698 33.135 58.631 18.602-13.026-49.94-88.369z" fill="#7a8c98"/><path d="m174.475 84.607-62.182-72.958c-4.141-4.859-11.673-5.538-17.349-1.564l-21.298 14.913c5.676-3.974 13.207-3.295 17.349 1.564l62.182 72.958z" fill="#596c76"/><path d="m180.22 100.839c6.786-4.752 8.435-14.105 3.684-20.891-4.752-6.786-14.105-8.435-20.891-3.684l-21.297 14.912c6.786-4.751 16.139-3.102 20.89 3.684 4.752 6.786 3.102 16.139-3.684 20.891z" fill="#9facba"/><path d="m180.22 100.839c6.786-4.752 8.435-14.105 3.684-20.891-4.752-6.786-14.105-8.435-20.891-3.684l-93.485 65.459c-6.786 4.752-8.435 14.105-3.684 20.891 4.752 6.786 14.105 8.435 20.891 3.684z" fill="#b6c4cf"/><path d="m195.014 157.729-74.014 51.825 19.163 22.416 84.663-59.282-15.302 10.715z" fill="#b6c4cf"/><path d="m224.826 172.688-14.509-25.674-18.579 13.009 14.509 25.674z" fill="#9facba"/><path d="m333.896 374.996-124.378-191.589c-23.579 16.51-66.139 46.311-68.776 48.158l-.579.405 137.496 182.404c3.626 4.81 10.528 5.804 15.607 2.248l37.406-26.192c5.077-3.556 6.504-10.382 3.224-15.434z" fill="#596c76"/><path d="m345.974 379.715c5.079-3.556 6.505-10.382 3.226-15.434l-124.378-191.59c-1.066.747-8.517 5.964-18.579 13.009l124.377 191.59c3.28 5.052 1.853 11.878-3.226 15.434z" fill="#465a61"/></g><path d="m479.859 387.935-160.204-228.795c-5.856-8.363-3.817-19.928 4.547-25.785l30.592-21.42c9.3-6.512 11.568-19.377 5.057-28.678-6.515-9.301-19.38-11.568-28.678-5.056l-30.592 21.42c-26.991 18.899-33.559 56.149-14.66 83.139l160.204 228.795c11.923 17.025 7.775 40.551-9.253 52.474-17.026 11.923-40.551 7.774-52.474-9.252l-23.05-32.919c7.092-7.498 8.23-19.184 2.212-28.407l-8.293-12.71c4.176-6.278 4.262-14.321.223-20.544l-28.131-43.332c-2.257-3.475-6.899-4.462-10.375-2.207-3.474 2.255-4.462 6.9-2.207 10.375l28.132 43.332c1.081 1.666.528 3.971-1.237 5.207l-52.707 36.906c-1.78 1.247-4.132.952-5.316-.618l-132.82-176.202 71.932-50.367 72.959 112.386c2.255 3.474 6.899 4.462 10.375 2.207 3.474-2.255 4.462-6.9 2.207-10.375l-77.007-118.619c-16.152-28.579-8.514-15.065-39.625-70.115 8.171-16.079-4.951-34.847-22.977-32.514l-50.693-59.477c-6.573-7.714-18.41-9.109-27.359-2.842l-63.565 44.509c-8.926 6.251-11.706 17.833-6.686 26.68l5.376 9.48c2.043 3.604 6.622 4.866 10.224 2.824 3.603-2.043 4.868-6.621 2.824-10.224l-5.377-9.481c-1.242-2.19-.219-5.269 2.243-6.993l63.565-44.509c2.468-1.728 5.706-1.632 7.339.285l48.095 56.43-84.665 59.283-13.934-24.569c-2.044-3.604-6.623-4.867-10.224-2.824-3.603 2.043-4.868 6.621-2.824 10.224l15.677 27.643c-9.681 16.683 4.704 37.12 23.793 33.366 41.151 48.135 30.811 36.04 51.808 60.6l137.359 182.223c4.621 6.129 12.265 8.547 19.385 6.823l9.103 12.134c4.634 6.175 11.607 9.461 18.626 9.461 2.994 0 5.991-.613 8.823-1.84l23.058 32.93c24.963 35.65 74.158 44.342 109.828 19.366 35.654-24.964 44.333-74.174 19.367-109.828zm-357.583-188.43-26.171-30.613c.001-.001 84.516-59.179 84.517-59.18l19.816 35.063c-8.282 5.8-69.895 48.941-78.162 54.73zm-50.289-41.193c-2.384-3.405-1.519-8.087 1.842-10.445l93.484-65.458c.003-.002.007-.004.01-.006 3.518-2.455 7.378-1.451 9.707 1.007s3.127 6.37.519 9.732c-5.814 4.724-90.411 63.794-96.399 67.737-3.13 1.382-7.027.483-9.163-2.567zm135.865-.416 7.095 12.554-73.508 51.47-9.37-10.96zm104.305 270.948-8.014-10.683 39.558-27.698 7.297 11.184c2.437 3.735 1.696 8.517-1.687 10.885l-26.35 18.45c-3.385 2.368-8.13 1.429-10.804-2.138zm139.732 56.632c-28.861 20.208-68.727 13.182-88.938-15.682l-22.788-32.545 9.159-6.414 22.788 32.545c16.676 23.816 49.546 29.615 73.364 12.936 23.818-16.677 29.616-49.546 12.937-73.365l-160.204-228.794c-14.144-20.199-9.223-48.104 10.977-62.249l30.592-21.42c2.523-1.767 6.018-1.152 7.787 1.373 1.768 2.525 1.151 6.019-1.373 7.787l-30.592 21.42c-15.155 10.611-18.843 31.52-8.23 46.675l160.204 228.795c20.209 28.863 13.179 68.729-15.683 88.938z"/></g></svg>