<svg id="Capa_1" enable-background="new 0 0 512.016 512.016" height="512" viewBox="0 0 512.016 512.016" width="512" xmlns="http://www.w3.org/2000/svg"><g><g><path d="m399.008 375.016v-298h-289.629v38.897l-15.371 20.436v224.514l8.133 14.152c16.69.001 282.685.001 296.867.001z" fill="#d8ecfe"/><path d="m146.008 77.016h220v347h-220z" fill="#eaf6ff"/><path d="m399.008 77.016c-8.737 0-303.044 0-305 0v59.333h295c3.314 0 6 2.686 6 6v232.667h10.397l13.603-13.603v-284.397z" fill="#c4e2ff"/><path d="m146.008 77.016h220v59.333h-220z" fill="#d8ecfe"/><path d="m117.309 375.016-23.301 34v85c0 5.523 4.477 10 10 10h42l12-13h195l13 13h23c5.523 0 10-4.477 10-10v-119z" fill="#ab695d"/><path d="m94.008 375.016v34h295c3.314 0 6 2.686 6 6v79.024c0 5.51-4.477 9.976-10 9.976h24c5.523 0 10-4.477 10-10v-119c-13.393 0-302.676 0-325 0z" fill="#935b50"/><path d="m146.008 375.016h220v129h-220z" fill="#b87d72"/><path d="m146.008 375.016h220v34h-220z" fill="#ab695d"/><path d="m374.737 49.364h-56.696c-9.917-24.532-33.945-41.848-62.031-41.848h-.005c-28.086 0-52.114 17.316-62.031 41.848h-56.696c-2.635 0-4.771 2.136-4.771 4.771v59.444c0 2.635 2.136 4.771 4.771 4.771h237.458c2.635 0 4.771-2.136 4.771-4.771v-59.444c.001-2.635-2.135-4.771-4.77-4.771z" fill="#ffe177"/><path d="m135.508 113.637v-59.56c0-2.603 2.11-4.713 4.713-4.713h-51.615c-3.119 0-5.648 2.529-5.648 5.647v57.691c0 3.119 2.528 5.647 5.648 5.647h51.614c-2.602 0-4.712-2.11-4.712-4.712z" fill="#ffd15b"/><path d="m423.41 49.364c-9.951 0-41.571 0-51.615 0 2.603 0 4.713 2.11 4.713 4.713v59.56c0 2.603-2.109 4.712-4.712 4.713h51.614c3.119 0 5.648-2.528 5.648-5.647v-57.692c0-3.119-2.529-5.647-5.648-5.647z" fill="#ffd15b"/><path d="m208.653 321.371v53.645h74.711v-53.645c0-22.365-15.509-41.096-36.355-46.057-11.724 0-38.356 16.012-38.356 46.057z" fill="#c4e2ff"/><path d="m245.008 275.314c20.847 4.961 36.355 23.692 36.355 46.057v53.645h22v-53.645c0-30.414-28.407-53.184-58.355-46.057z" fill="#b3dafe"/><path d="m425.058 360.864c-11.144 0-316.448 0-338.099 0-2.209 0-4 1.791-4 4v21c0 2.209 1.791 4 4 4h338.099c2.209 0 4-1.791 4-4v-21c0-2.209-1.791-4-4-4z" fill="#c38f86"/><path d="m259.995 39.138c5.271 10.681 5.44 12.303 8.434 12.738l11.373 1.653c3.647.53 5.103 5.011 2.464 7.583l-8.23 8.022c-1.048 1.021-1.526 2.493-1.279 3.935l1.943 11.327c.623 3.632-3.189 6.401-6.451 4.687l-10.172-5.348c-1.295-.681-2.842-.681-4.138 0l-10.172 5.348c-3.262 1.715-7.073-1.055-6.451-4.687l1.943-11.327c.247-1.442-.231-2.914-1.279-3.935l-8.23-8.022c-2.639-2.572-1.183-7.053 2.464-7.583 11.787-1.713 13.382-1.372 14.72-4.085l5.086-10.306c1.632-3.305 6.344-3.305 7.975 0z" fill="#feb137"/></g><g><path d="m436.558 112.702v-57.69c0-7.25-5.897-13.147-13.147-13.147-9.708 0-89.632 0-100.498 0-18.009-37.117-62-51.675-98.043-35.034-3.76 1.736-5.401 6.192-3.665 9.953 1.736 3.76 6.191 5.403 9.954 3.665 30.068-13.883 66.902-.499 79.929 31.726 1.146 2.834 3.896 4.689 6.953 4.689h53.967v53.985c-10.993 0-220.341 0-232 0v-53.985h53.967c3.057 0 5.807-1.854 6.953-4.688 1.721-4.255 3.942-8.316 6.604-12.072 2.395-3.379 1.597-8.061-1.782-10.456-3.38-2.396-8.062-1.596-10.456 1.782-2.342 3.304-4.412 6.798-6.185 10.434-10.867 0-90.78 0-100.504 0-7.25 0-13.147 5.898-13.147 13.147v57.69c0 6.36 4.54 11.678 10.55 12.887v227.823c-5.897.486-10.55 5.431-10.55 11.452v21c0 6.021 4.653 10.966 10.55 11.452v97.201c0 9.649 7.851 17.5 17.5 17.5h305c9.649 0 17.5-7.851 17.5-17.5v-29.133c0-4.142-3.357-7.5-7.5-7.5s-7.5 3.358-7.5 7.5v29.133c0 1.378-1.121 2.5-2.5 2.5h-35v-99.652h37.5v33.019c0 4.142 3.357 7.5 7.5 7.5s7.5-3.358 7.5-7.5v-33.067c5.897-.486 10.55-5.431 10.55-11.452v-21c0-6.021-4.653-10.966-10.55-11.452v-227.823c6.01-1.21 10.55-6.527 10.55-12.887zm-15-1.853c-13.838 0-20.791 0-34.55 0v-53.985h34.55zm-10.55 242.515h-37.5v-227.515h37.5zm-52.5-227.515v227.515h-47.645v-31.992c0-30.248-24.608-54.855-54.855-54.855s-54.855 24.608-54.855 54.855v31.992h-47.645v-227.515zm-62.645 227.515h-79.711v-31.992c0-21.977 17.879-39.855 39.855-39.855s39.855 17.879 39.855 39.855v31.992zm-194.855 0v-227.515h37.5v227.515zm-10.55-296.5h34.55v53.985c-13.762 0-20.713 0-34.55 0zm10.55 437.652v-97.152h37.5v99.652h-35c-1.379 0-2.5-1.122-2.5-2.5zm257.5 2.5h-205v-99.652h205zm-268.05-114.652v-14h331.1v14c-2.839 0-328.963 0-331.1 0z"/><path d="m280.879 46.106-9.783-1.421-4.376-8.867c-4.38-8.875-17.044-8.873-21.424 0l-4.376 8.867-9.784 1.421c-9.793 1.424-13.705 13.468-6.62 20.376l7.08 6.901-1.671 9.744c-1.673 9.739 8.568 17.199 17.332 12.593l8.751-4.601 8.751 4.601c8.76 4.603 19.006-2.839 17.333-12.593l-1.672-9.745 7.08-6.9c7.086-6.908 3.173-18.952-6.621-20.376zm-14.618 33.457c-9.033-4.749-9.726-5.668-20.506 0 1.74-10.149 2.377-11.009-6.337-19.503 10.099-1.467 11.2-1.132 16.59-12.054 4.558 9.234 4.547 10.303 16.59 12.054-7.388 7.202-8.392 7.521-6.337 19.503z"/></g></g></svg>