<svg id="Capa_1" enable-background="new 0 0 495.545 495.545" height="512" viewBox="0 0 495.545 495.545" width="512" xmlns="http://www.w3.org/2000/svg"><g><g><ellipse cx="109.622" cy="242.611" fill="#2abcc8" rx="46.702" ry="32.62" transform="matrix(.966 -.259 .259 .966 -59.057 36.639)"/><path d="m146.932 218.334c4.721 30.12-35.159 57.057-71.612 50.883 10.346 7.029 26.34 9.298 42.744 4.903 32.915-8.819 48.429-38.656 28.868-55.786z" fill="#0cacba"/><path d="m161.737 228.647c-2.501-9.337-9.169-16.895-18.98-21.674 4.16 6.794 5.515 14.706 3.897 22.586 6.729 13.826-8.414 31.647-30.467 37.556-6.185 1.657-12.379 2.283-18.2 1.899-12.356 2.157-25.648 1.213-36.97-4.302 9.98 16.298 34.517 22.951 58.925 16.412 28.216-7.561 47.689-30.483 41.795-52.477z" fill="#0cacba"/><path d="m426.237 216.606-158.751-31.034c-3.924-.767-7.587 1.936-8.156 5.756.001 0 148.961 29.12 148.962 29.12 6.633 1.297 11.448 7.145 11.448 13.903v22.473l12.086 2.363v-35.794c-.001-3.308-2.343-6.152-5.589-6.787z" fill="#ffd15b"/><g><path d="m233.77 113.114c0-5.347 0-9.43 0-14.778l-70.995-13.879c0-15.421 0-11.891 0-27.283l-14.177-2.771c-.456 2.102-.327.149-.327 36.025 0 3.469 2.456 6.451 5.861 7.117z" fill="#2abcc8"/></g><path d="m233.77 98.337v-14.669c0-6.335-3.941-12.125-10.063-14.379-1.7-.622 3.867.553-68.009-13.498-.113.496-.174 1.013-.174 1.547v33.091l78.246 15.296z" fill="#2abcc8"/><ellipse cx="385.923" cy="411.368" fill="#ffe177" rx="46.702" ry="32.62" transform="matrix(.966 -.259 .259 .966 -93.32 113.901)"/><path d="m425.533 389.342c.583 30.817-42.892 55.299-77.982 45.334 9.857 9.542 28.069 13.223 46.814 8.2 31.009-8.308 47.303-35.742 31.168-53.534z" fill="#ffd15b"/><path d="m367.46 436.818c-11.162.55-22.825-1.595-32.313-7.559 3.715 8.887 11.52 15.817 22.375 19.753 38.784 14.066 89.702-17.329 80.515-51.609-2.135-7.969-7.308-14.641-14.876-19.397.531 1.27.978 2.58 1.339 3.927 1.624 6.059 1.357 12.346-.7 18.486 6.324 19.71-26.862 42.899-56.34 36.399z" fill="#ffd15b"/><ellipse cx="213.325" cy="377.68" fill="#ffe177" rx="46.702" ry="32.62" transform="matrix(.966 -.259 .259 .966 -90.482 68.082)"/><path d="m252.936 355.654c.585 30.945-43.028 55.261-77.982 45.334 9.857 9.542 28.069 13.223 46.814 8.2 31.008-8.308 47.303-35.742 31.168-53.534z" fill="#ffd15b"/><path d="m194.862 403.129c-11.162.55-22.825-1.595-32.313-7.559 3.715 8.887 11.52 15.817 22.375 19.753 38.784 14.066 89.702-17.329 80.515-51.609-2.135-7.969-7.308-14.641-14.876-19.397.531 1.27.978 2.58 1.339 3.927 1.624 6.059 1.357 12.346-.7 18.486 6.325 19.711-26.861 42.9-56.34 36.399z" fill="#ffd15b"/><g fill="#ffe177"><path d="m266.496 192.767v26.71c.002 0 153.243 29.957 153.243 29.957v14.778l-161.885-31.647c-3.405-.666-5.861-3.648-5.861-7.117 0-37.168-.086-33.6.228-35.511z"/><path d=""/></g><path d="m419.739 249.435v-15.084c0-6.759-4.815-12.606-11.448-13.903 0 0-148.959-29.119-148.962-29.12-.05.337-.085.678-.085 1.031v33.091l160.495 31.375z" fill="#ffe177"/><g><path d="m243.205 66.082-79.439-15.529c-3.746-.732-7.261 1.695-8.067 5.239.001 0 65.691 12.842 65.693 12.842 7.172 1.403 12.379 7.725 12.379 15.035v22.057l15.954 3.119v-34.846c-.001-3.858-2.733-7.177-6.52-7.917z" fill="#0cacba"/></g></g><path d="m495.545 208.866c0-4.142-3.357-7.5-7.5-7.5h-100.673l-118.447-23.155c-8.91-1.743-17.181 5.085-17.181 14.147v9.008h-88.72v-52.502h325.021c4.143 0 7.5-3.358 7.5-7.5s-3.357-7.5-7.5-7.5h-325.021v-34.326l85.261 16.668c4.629.904 8.938-2.644 8.938-7.361v-34.846c0-7.428-5.29-13.853-12.58-15.278l-18.647-3.645c-4.068-.795-8.005 1.857-8.799 5.922-.795 4.065 1.856 8.005 5.922 8.8l18.646 3.645c.266.052.458.286.458.557v25.737l-79.199-15.483v-26.204l25.745 5.033c4.063.792 8.005-1.857 8.799-5.922.795-4.065-1.856-8.005-5.922-8.8-28.587-5.588-27.286-5.439-29.223-5.439-7.939 0-14.399 6.467-14.399 14.417v76.525h-140.524c-4.143 0-7.5 3.358-7.5 7.5s3.357 7.5 7.5 7.5h140.524v52.502c-6.631 0-135.434 0-140.524 0-4.143 0-7.5 3.358-7.5 7.5s3.357 7.5 7.5 7.5h66.464c-20.592 16.4-22.244 38.353-10.241 52.502h-56.223c-4.143 0-7.5 3.358-7.5 7.5s3.357 7.5 7.5 7.5h244.244v52.502h-244.244c-4.143 0-7.5 3.358-7.5 7.5s3.357 7.5 7.5 7.5h170.204c-2.956 2.352-5.636 4.926-7.969 7.7-8.549 10.164-11.655 21.737-8.748 32.589 1.212 4.525 3.406 8.629 6.443 12.212h-159.93c-4.143 0-7.5 3.358-7.5 7.5s3.357 7.5 7.5 7.5h325.068c1.047 22.303 23.244 34.391 47.012 33.726 4.141-.116 7.403-3.566 7.287-7.707-.117-4.141-3.591-7.404-7.707-7.287-17.493.495-31.64-7.697-31.64-20.188 0-13.889 16.03-26.06 31.899-30.312 23.269-6.234 44.904 2.786 44.904 18.216 0 8.047-6.113 16.988-15.954 23.335-3.481 2.245-4.483 6.887-2.238 10.368 2.246 3.481 6.889 4.483 10.367 2.238 9.388-6.054 16.269-13.932 19.901-22.389h51.645c4.143 0 7.5-3.358 7.5-7.5s-3.357-7.5-7.5-7.5h-48.72v-52.501h48.72c4.143 0 7.5-3.358 7.5-7.5s-3.357-7.5-7.5-7.5h-48.72v-52.502h48.72c4.143 0 7.5-3.358 7.5-7.5s-3.357-7.5-7.5-7.5h-48.72c0-9.229 0-36.156 0-45.476 0-2.53-.667-4.932-1.842-7.026h50.561c4.145 0 7.502-3.358 7.502-7.5zm-228.801-15.797c4.494.879 147.5 28.834 157.581 30.805v26.204l-157.581-30.805zm-163.624 25.278c20.757-5.562 40.867 1.05 44.368 14.118 3.501 13.066-10.606 28.849-31.365 34.41-20.522 5.5-40.843-.965-44.368-14.118-3.501-13.066 10.606-28.848 31.365-34.41zm42.145 50.521c10.085-8.027 17.907-19.593 17.759-32.572v-19.93h88.72v52.502zm61.576 84.499c20.524-5.501 40.843.966 44.368 14.118 3.523 13.153-10.84 28.911-31.366 34.411-20.522 5.501-40.843-.965-44.368-14.118-3.524-13.154 10.839-28.912 31.366-34.411zm217.484 25.042c-13.616-9.18-32.595-10.131-48.787-5.794-18.988 5.088-34 17.236-40.079 31.257h-86.455c9.78-7.791 17.74-19.483 17.74-31.409 0-38.988 0-4.542 0-21.093h157.581zm0-42.039h-157.581v-52.502h157.581zm-157.581-67.502v-34.311c7.369 1.441 151.354 29.588 157.581 30.805v3.506z"/></g></svg>