<svg id="Capa_1" enable-background="new 0 0 512.001 512.001" height="512" viewBox="0 0 512.001 512.001" width="512" xmlns="http://www.w3.org/2000/svg"><g><g><path d="m362.24 177.573c-76.045 0-137.828 12.431-137.828 27.792v20.711c0-26.551 169.035-38.054 248.386-16.598v198.137c0 49.511-75.998 83.54-124.193 95.267 9.396 2.286 19.582 2.156 28.916-.424 76.243-21.072 122.547-56.595 122.547-94.843 0-1.809 0-130.278 0-181.539 0-12.069 0-19.864 0-20.711 0-15.349-61.707-27.792-137.828-27.792z" fill="#ffd15b"/><path d="m472.798 188.768c-35.305-9.547-92.994-12.215-124.193-11.059h.001c-69.719 1.381-124.194 13.235-124.194 27.657v202.25c0 50.025 75.745 82.786 124.193 95.267h4.142c48.199-11.728 124.193-45.756 124.193-95.267 0-11.194 0-201.896 0-209.365z" fill="#ffe177"/><g fill="#ffd15b"><path d="m224.413 220.897v5.18c0-1.77.831-3.501 2.4-5.18-.814 0-1.617 0-2.4 0z"/><path d="m472.798 188.768v218.848c0 49.511-75.995 83.541-124.193 95.267 9.396 2.286 19.582 2.156 28.916-.424 76.243-21.072 122.547-56.595 122.547-94.843 0-1.809 0-130.278 0-181.539 0-12.069 0-19.864 0-20.711 0-6.223-10.141-11.967-27.27-16.598z"/></g><path d="m498.333 273.88c-12.454-25.696-38.667-43.444-68.926-43.444-30.249 0-56.455 17.737-68.914 43.42-12.459-25.683-38.665-43.42-68.914-43.42-20.433 0-32.573 7.212-41.438 12.478-.734.436-1.451.862-2.154 1.272-3.689 2.152-4.936 6.888-2.783 10.577 2.154 3.691 6.889 4.936 10.577 2.783.737-.43 1.489-.877 2.26-1.334 8.134-4.832 17.353-10.309 33.538-10.309 33.735 0 61.18 27.679 61.18 61.701v34.693c0 4.271 3.463 7.734 7.734 7.734s7.734-3.463 7.734-7.734v-34.693c0-34.022 27.445-61.701 61.18-61.701s61.18 27.679 61.18 61.701c0 4.271 3.463 7.734 7.734 7.734.004 0 .008-.001.012-.001 0-14.388 0-28.598 0-41.457z" fill="#ffd15b"/><path d="m283.164 272.968c17.851 3.647 31.28 19.439 31.28 38.368 0 2.848-2.308 5.156-5.156 5.156h16.499c2.848 0 5.156-2.308 5.156-5.156 0-24.681-22.59-43.515-47.779-38.368z" fill="#feb137"/><path d="m421.346 272.968c17.851 3.647 31.28 19.439 31.28 38.368 0 2.848-2.308 5.156-5.156 5.156h16.499c2.848 0 5.156-2.308 5.156-5.156.001-24.681-22.589-43.515-47.779-38.368z" fill="#feb137"/><g><path d="m314.444 311.335c0-18.929-13.43-34.72-31.28-38.368-17.971 3.672-31.28 19.561-31.28 38.368 0 2.848 2.308 5.156 5.156 5.156h52.248c2.847 0 5.156-2.308 5.156-5.156z" fill="#ffc344"/></g><g><path d="m452.627 311.335c0-18.929-13.43-34.72-31.28-38.368-17.851 3.647-31.28 19.439-31.28 38.368 0 2.848 2.308 5.156 5.156 5.156h52.248c2.847 0 5.156-2.308 5.156-5.156z" fill="#ffc344"/></g><path d="m360.502 387.015c-19.018 0-36.314-6.521-49.2-17.176-9.504-7.859-23.843-.267-22.603 11.996.807 7.978 3.044 15.319 6.418 21.919h-.003l10.499 20.183c8.83 16.974 25.25 29.617 46.642 32.764 19.78-2.658 37.275-14.758 46.642-32.764 10.688-20.546 15.351-27.354 16.878-41.859.58-5.512-1.782-10.03-5.417-12.744-14.335 10.992-29.331 17.681-49.856 17.681z" fill="#ffc344"/><path d="m11.933 35.293v20.711 181.539c0 50.24 76.334 83.077 125.217 95.501 11.903 0 129.359-33.203 129.359-95.501 0-9.959 0-198.001 0-208.042l-2.783-9.841c-78.03-22.683-251.793-11.331-251.793 15.633z" fill="#8d9ca8"/><path d="m81.038 89.163h-.737c-2.7 0-5.335.273-7.881.794 17.851 3.647 31.28 19.439 31.28 38.368 0 2.848-2.308 5.156-5.156 5.156h16.499c2.848 0 5.156-2.308 5.156-5.156.001-21.629-17.532-39.162-39.161-39.162z" fill="#465a61"/><path d="m219.221 89.163h-.737c-2.7 0-5.335.273-7.881.794 17.851 3.647 31.28 19.439 31.28 38.368 0 2.848-2.308 5.156-5.156 5.156h16.499c2.848 0 5.156-2.308 5.156-5.156 0-21.629-17.533-39.162-39.161-39.162z" fill="#465a61"/><g><path d="m103.7 128.325c0-18.929-13.43-34.72-31.28-38.368-17.851 3.647-31.28 19.439-31.28 38.368 0 2.848 2.308 5.156 5.156 5.156h52.248c2.848 0 5.156-2.309 5.156-5.156z" fill="#596c76"/></g><g><path d="m241.883 128.325c0-18.929-13.43-34.72-31.28-38.368-17.851 3.647-31.28 19.439-31.28 38.368 0 2.848 2.308 5.156 5.156 5.156h52.248c2.847 0 5.156-2.309 5.156-5.156z" fill="#596c76"/></g><g><path d="m201.111 257.902.056-.057c2.907-2.949 4.311-7.05 3.888-11.17-3.406-33.119-31.412-55.275-63.535-58.544 1.103-.112 2.21-.199 3.32-.27-33.165 2.012-63.349 24.218-66.875 58.917-.418 4.113.973 8.208 3.871 11.157 5.038 5.128 13.137 5.476 18.672.89 12.892-10.681 30.209-17.219 49.253-17.219 19.02 0 36.318 6.522 49.205 17.18.194.16.398.301.598.449.538-.404 1.06-.84 1.547-1.333z" fill="#596c76"/></g><path d="m262.367 19.264v20.711 39.615 157.953c0 50.341-76.318 82.954-125.217 95.501 9.109 2.034 18.895 1.829 27.892-.658 76.243-21.072 122.547-56.595 122.547-94.843 0-2.818 0-199.53 0-202.25 0-5.97-9.337-11.499-25.222-16.029z" fill="#7a8c98"/><path d="m282.152 81.689c-13.793-20.487-37.096-33.98-63.477-33.98-30.249 0-56.455 17.737-68.914 43.42-12.459-25.683-38.665-43.42-68.914-43.42s-56.455 17.737-68.914 43.42v41.483c4.271 0 7.734-3.463 7.734-7.734 0-34.022 27.445-61.701 61.179-61.701 33.735 0 61.18 27.679 61.18 61.701v34.693c0 4.271 3.463 7.734 7.734 7.734s7.734-3.463 7.734-7.734v-34.693c0-34.022 27.445-61.701 61.18-61.701 33.734 0 61.179 27.679 61.179 61.701 0 2.151.88 4.096 2.298 5.498v-48.687z" fill="#7a8c98"/><g><path d="m410.358 369.333c3.635 2.714 5.997 7.232 5.417 12.744-1.527 14.505-6.189 21.314-16.878 41.859-9.367 18.006-26.862 30.106-46.642 32.764 2.712.364 5.466.556 8.25.556 23.079 0 44.241-12.845 54.892-33.32 10.688-20.546 15.351-27.354 16.878-41.859 1.311-12.463-12.402-19.852-21.917-12.744z" fill="#feb137"/></g><g><path d="m221.553 246.676c-3.696-35.932-36.342-58.979-71.792-58.979-2.765 0-5.515.157-8.242.435 32.123 3.268 60.128 25.424 63.535 58.544.424 4.119-.981 8.22-3.888 11.17l-.056.057c-.486.493-1.009.929-1.547 1.333 5.5 4.078 13.187 3.597 18.046-1.333l.056-.057c2.908-2.95 4.312-7.051 3.888-11.17z" fill="#465a61"/></g></g><g><path d="m202.198 197.813c-14.464-11.36-33.087-17.616-52.437-17.616-19.254 0-37.815 6.206-52.266 17.474-15.463 12.058-25.049 29.229-26.992 48.351-.649 6.383 1.532 12.642 5.982 17.171 4.163 4.237 9.627 6.386 15.13 6.386 4.813 0 9.656-1.646 13.677-4.977 12.061-9.992 27.853-15.495 44.468-15.495 16.593 0 32.37 5.49 44.425 15.459 8.602 7.113 20.967 6.512 28.765-1.398l-5.341-5.265 5.397 5.208c4.475-4.54 6.665-10.81 6.007-17.203-1.949-18.964-11.473-36.045-26.815-48.095zm10.119 54.776-.055.056c-2.297 2.322-5.957 2.48-8.516.362-14.738-12.188-33.91-18.9-53.985-18.9-20.101 0-39.292 6.728-54.037 18.944-2.569 2.128-6.24 1.968-8.538-.371-1.314-1.337-1.955-3.212-1.759-5.142 3.492-34.362 35.008-52.341 64.335-52.341 29.298 0 60.803 17.946 64.332 52.246.197 1.924-.448 3.797-1.777 5.146z"/><path d="m405.136 364.02c-12.061 9.992-27.853 15.495-44.468 15.495-16.591 0-32.367-5.489-44.421-15.456-14.512-12.002-36.778-.59-34.844 18.53 1.673 16.551 7.541 25.236 17.723 44.808 11.987 23.044 35.57 37.359 61.545 37.359s49.558-14.315 61.545-37.358c10.854-20.871 15.987-28.428 17.683-44.536 2.058-19.558-20.182-30.923-34.763-18.842zm19.845 17.272c-1.357 12.898-5.435 18.74-16.072 39.183-9.395 18.062-27.879 29.281-48.238 29.281s-38.843-11.22-48.238-29.281c-10.088-19.393-14.765-26.13-16.106-39.395-.565-5.588 6.023-9.051 10.362-5.461 14.737 12.185 33.908 18.896 53.98 18.896 20.102 0 39.292-6.728 54.037-18.944 4.328-3.584 10.916-.362 10.275 5.721z"/><path d="m476.792 311.403c.035-24.732-19.597-46.729-47.398-46.729-25.752 0-46.698 20.969-46.661 46.73.01 6.961 5.695 12.588 12.656 12.588h68.748c6.96 0 12.645-5.628 12.655-12.589zm-78.973-2.411c1.204-16.367 14.906-29.317 31.575-29.317 18.321 0 31.158 13.622 32.313 29.317z"/><path d="m127.699 128.393c.037-25.76-20.909-46.73-46.661-46.73h-.737c-25.752 0-46.698 20.969-46.661 46.729.01 6.961 5.695 12.588 12.656 12.588h68.748c6.96.001 12.645-5.626 12.655-12.587zm-78.973-2.412c1.204-16.367 14.906-29.317 31.575-29.317h.737c16.669 0 30.372 12.95 31.575 29.317z"/><path d="m184.479 140.981h68.748c6.961 0 12.646-5.627 12.656-12.588.037-25.76-20.909-46.73-46.661-46.73-27.844 0-47.512 22.078-47.398 46.876.031 6.906 5.75 12.442 12.655 12.442zm34.742-44.318c16.669 0 30.372 12.95 31.575 29.317h-63.888c1.144-15.55 13.83-29.317 32.313-29.317z"/><path d="m492.568 323.544v53.652c0 4.107 3.164 7.688 7.269 7.811 4.247.128 7.731-3.278 7.731-7.497v-172.145c0-12.042-14.74-20.623-46.386-27.004-47.521-9.582-115.944-10.376-166.093-4.816v-138.252c0-12.381-16.46-18.421-21.87-20.406-41.921-15.384-138.882-19.429-206.346-9.385-4.097.61-6.924 4.426-6.314 8.523s4.419 6.921 8.523 6.314c80.865-12.041 160.265-.189 155.663-.804 40.704 5.433 53.715 13.474 55.344 16.125v43.499c-34.409-46.73-105.435-39.636-130.328 12.498-12.336-25.836-38.59-43.714-68.914-43.714-25.141 0-47.48 12.292-61.414 31.216v-43.478c.507-.73 3.432-4.092 16.282-8.156 3.901-1.234 6.379-5.296 5.291-9.24-1.134-4.111-5.436-6.434-9.474-5.168-6.702 2.1-27.099 8.491-27.099 22.176v202.25c0 54.38 75.404 87.521 128.049 102.072 10.914 3.017 23.123 3.16 34.557 0 18.193-5.028 34.938-10.956 49.873-17.611v85.612c0 54.401 77.033 88.931 129.821 102.529.033.009.065.017.098.024 10.633 2.588 22.113 2.44 32.687-.482 50.084-13.842 122.188-44.452 127.736-96.207.441-4.119-2.54-7.815-6.658-8.257-4.112-.431-7.815 2.54-8.257 6.658-4.698 43.834-74.432 71.633-116.817 83.347-8.015 2.215-16.961 2.349-25.099.376-44.044-11.356-118.511-42.651-118.511-87.99v-92.834c4.402-2.313 8.893-4.888 12.809-7.298-.112 1.359-.181 2.729-.171 4.119.049 6.886 5.769 12.391 12.655 12.391h68.748c6.964 0 12.647-5.632 12.656-12.596.034-26.065-21.687-48.48-50.452-46.611 3.324-6.432 5.373-12.858 6.308-19.045 32.605 1.442 58.693 28.634 58.693 61.865v34.378c0 4.107 3.164 7.688 7.269 7.811 4.247.128 7.731-3.278 7.731-7.497v-34.693c0-34.151 27.55-61.935 61.414-61.935 31.659 0 57.799 24.284 61.069 55.351.106 1.001 1.927 9.885 1.927 22.524zm-329.528 1.614c-8.785 2.428-18.064 2.354-26.847-.08-72.029-19.963-116.76-53.491-116.76-87.535v-112.665c0-34.151 27.55-61.935 61.414-61.935s61.414 27.784 61.414 61.935v34.378c0 4.107 3.164 7.688 7.269 7.811 4.247.128 7.731-3.278 7.731-7.497v-34.693c0-34.151 27.55-61.935 61.414-61.935s61.414 27.784 61.414 61.935c0 120.869.256 115.392-.842 120.77-8.56 41.407-75.21 68.181-116.207 79.511zm128.171-45.484c18.321 0 31.158 13.622 32.313 29.317h-63.888c1.203-16.355 14.907-29.317 31.575-29.317zm138.362-49.004c-30.333 0-56.592 17.888-68.924 43.736-11.88-24.896-36.66-42.408-65.56-43.659 0-5.596 0 4.103 0-41.564 0-.003 0-.006 0-.01v-.534c90.408-10.364 189.115 3.501 197.479 17.093v58.391c-13.788-20.185-36.877-33.453-62.995-33.453z"/></g></g></svg>