<svg id="Capa_1" enable-background="new 0 0 512.004 512.004" height="512" viewBox="0 0 512.004 512.004" width="512" xmlns="http://www.w3.org/2000/svg"><g><g><path d="m249.068 281.315 1.174-1.057c54.394-56.953 50.075-116.737 38.111-155.176l-24.698-24.698h-6c-31.885 24.891-79.183 78.899-54.399 169.161z" fill="#eaf6ff"/><path d="m169.01 272.936-.743 3.409 20.812-5.667c31.223-111.372-47.135-167.878-72.31-182.781-4.16-2.463-9.546-1.019-11.918 3.193-.497.882-1.026 1.847-1.577 2.877 29.848 19.648 94.798 75.792 65.736 178.969z" fill="#d8ecfe"/><path d="m177.01 272.936c29.062-103.177-35.888-159.321-65.736-178.968h-8c-15.384 28.739-49.577 113.667 30.534 191.76l42.964-11.698z" fill="#eaf6ff"/><path d="m158.168 279.095 16.601-4.52c8.114-77.406-32.781-123.472-47.324-137.209-2.333-2.204-6.186-1.172-7.104 1.904-.479 1.604-1.005 3.502-1.539 5.66 30.228 33.598 46.44 81.171 39.366 134.165z" fill="#ffb09e"/><path d="m162.412 277.939c.117-8.435 12.478-77.114-39.611-135.009l-4 2c-5.856 23.644-12.753 79.181 29.23 136.925z" fill="#ffcebf"/><path d="m158.168 279.095 16.601-4.52c8.114-77.406-32.781-123.472-47.324-137.209-2.333-2.204-6.186-1.172-7.104 1.904-.479 1.604-1.005 3.502-1.539 5.66 30.228 33.598 46.44 81.171 39.366 134.165z" fill="#ffb09e"/><path d="m244.373 280.109 15.971 4.103c48.617-48.344 59.896-105.8 40.848-162.727-3.494-10.442-8.12-21.016-13.4-30.395-2.371-4.213-7.757-5.656-11.917-3.193l-18.219 12.487 24.698 24.698c11.953 38.405 16.264 98.118-37.981 155.027z" fill="#d8ecfe"/><path d="m232.057 276.944 13.572 3.487c44.602-62.498 32.36-122.129 26.674-141.162-.919-3.076-4.771-4.108-7.104-1.904-2.013 1.902-4.533 4.426-7.356 7.564 5.69 22.973 12.347 76.055-25.786 132.015z" fill="#ffb09e"/><path d="m235.461 277.819c38.802-56.281 32.102-109.797 26.382-132.889h-4c-29.729 33.277-45.012 78.11-40.089 128.34z" fill="#ffcebf"/><path d="m309.672 490.941-9.368-211.936c-16.635 0-212.872 0-219.964 0l-9.368 211.936c-.327 7.392 5.578 13.563 12.976 13.563h212.746c7.4 0 13.304-6.171 12.978-13.563z" fill="#596c76"/><path d="m300.304 279.005c-7.846 0-201.302 0-211.304 0v24.499l-10.163 9.501-1.154 26.104h225.277z" fill="#fd8087"/><path d="m301 327.671h-12.048l7.816 176.833h11.927c7.399 0 13.303-6.171 12.976-13.563l-6.711-151.832z" fill="#465a61"/><path d="m288.304 313.005 1.154 26.104h25.503l-2.657-60.104c-10.145 0-221.748 0-231.964 0l-1.503 34z" fill="#fe646f"/><path d="m351.684 16.257-2.216-4.778c-.844-1.819-3.43-1.819-4.274 0l-2.216 4.778c-3.549 7.652-9.97 13.599-17.871 16.551-2.041.763-2.041 3.65 0 4.413 7.902 2.953 14.322 8.899 17.871 16.551l2.216 4.778c.844 1.819 3.43 1.819 4.274 0l2.216-4.778c3.549-7.652 9.97-13.599 17.871-16.551 2.041-.763 2.041-3.65 0-4.413-7.901-2.952-14.322-8.898-17.871-16.551z" fill="#ffe177"/><path d="m396.964 299.251-2.216-4.778c-.844-1.819-3.43-1.819-4.274 0l-2.216 4.778c-3.549 7.652-9.97 13.599-17.871 16.551-2.041.763-2.041 3.65 0 4.413 7.902 2.953 14.322 8.899 17.871 16.551l2.216 4.778c.844 1.819 3.43 1.819 4.274 0l2.216-4.778c3.549-7.652 9.97-13.599 17.871-16.551 2.041-.763 2.041-3.65 0-4.413-7.901-2.952-14.322-8.898-17.871-16.551z" fill="#fff0ad"/><path d="m170.92 41.157-2.216-4.778c-.844-1.819-3.43-1.819-4.274 0l-2.216 4.778c-3.549 7.652-9.97 13.599-17.871 16.551-2.041.763-2.041 3.65 0 4.413 7.902 2.953 14.322 8.899 17.871 16.551l2.216 4.778c.844 1.819 3.43 1.819 4.274 0l2.216-4.778c3.549-7.652 9.969-13.599 17.871-16.551 2.041-.763 2.041-3.65 0-4.413-7.902-2.952-14.322-8.898-17.871-16.551z" fill="#fff0ad"/><path d="m464.058 243.041-232.908-232.908c-3.505-3.505-9.188-3.505-12.693 0l-11.179 11.179c-3.505 3.505-3.505 9.188 0 12.693l3.653 3.653 229.255 229.255c3.505 3.505 9.188 3.505 12.693 0l7.526-7.526 3.653-3.653c3.506-3.505 3.506-9.188 0-12.693z" fill="#8d9ca8"/><path d="m231.15 10.133c-3.505-3.505-9.188-3.505-12.693 0l-11.179 11.179c-3.505 3.505-3.505 9.188 0 12.693l3.653 3.653-3.653-3.653 28.521 28.521 13.873-13.873 10-10z" fill="#b6c4cf"/><path d="m329.331 279.005c0-7.369-5.974-13.343-13.343-13.343h-257.332c-7.369 0-13.343 5.974-13.343 13.343s5.974 13.343 13.343 13.343h257.332c7.369 0 13.343-5.974 13.343-13.343z" fill="#8d9ca8"/><path d="m333.988 265.661h-22c7.369 0 13.343 5.974 13.343 13.343s-5.974 13.343-13.343 13.343h22c7.369 0 13.343-5.974 13.343-13.343s-5.974-13.343-13.343-13.343z" fill="#7a8c98"/></g><g><path d="m322.482 44.247c6.093 2.277 10.956 6.781 13.693 12.681 1.826 3.937 3.767 10.487 11.155 10.487h.001c7.386 0 9.326-6.541 11.156-10.487 2.737-5.901 7.6-10.404 13.692-12.681 8.538-3.19 8.531-15.277 0-18.464-6.093-2.277-10.956-6.781-13.692-12.682-1.822-3.929-3.763-10.486-11.158-10.486-7.386.001-9.325 6.54-11.155 10.486-2.737 5.901-7.6 10.405-13.693 12.682-8.533 3.19-8.532 15.275.001 18.464zm24.85-20.325c2.756 4.375 6.313 8.129 10.49 11.093-4.176 2.964-7.734 6.719-10.49 11.094-2.756-4.375-6.314-8.129-10.491-11.094 4.177-2.964 7.734-6.718 10.491-11.093z"/><path d="m417.46 308.776c-10.553-3.942-13.464-12.187-15.908-17.458-3.516-7.581-14.355-7.603-17.881 0-2.392 5.157-5.289 13.492-15.908 17.459-8.538 3.19-8.531 15.277 0 18.464 10.552 3.943 13.464 12.188 15.908 17.459 3.517 7.583 14.355 7.604 17.882 0 2.357-5.084 5.265-13.482 15.908-17.458 8.535-3.19 8.533-15.275-.001-18.466zm-24.849 20.326c-2.756-4.375-6.313-8.129-10.491-11.094 4.177-2.964 7.735-6.718 10.491-11.093 2.756 4.375 6.314 8.129 10.491 11.094-4.176 2.964-7.734 6.718-10.491 11.093z"/><path d="m141.718 69.147c10.552 3.943 13.463 12.186 15.908 17.458 3.53 7.615 14.356 7.605 17.882.001 2.368-5.105 5.27-13.484 15.908-17.458 8.537-3.19 8.533-15.274 0-18.465-6.093-2.276-10.956-6.78-13.692-12.681l-2.216-4.777c-3.514-7.579-14.356-7.605-17.881 0-2.364 5.097-5.272 13.485-15.911 17.459-8.536 3.191-8.528 15.276.002 18.463zm24.849-20.325c2.756 4.375 6.314 8.129 10.49 11.093-4.177 2.964-7.734 6.719-10.49 11.094-2.756-4.375-6.314-8.129-10.491-11.094 4.177-2.964 7.735-6.718 10.491-11.093z"/><path d="m469.362 237.738-60.104-60.104c-2.929-2.929-7.678-2.929-10.606 0-2.929 2.929-2.929 7.678 0 10.606l60.104 60.104c.578.579.578 1.508 0 2.087l-11.18 11.179c-.579.579-1.508.579-2.087 0-2.596-2.596-195.492-195.492-199.084-199.084l13.266-13.266 114.231 114.231c2.929 2.929 7.678 2.929 10.606 0 2.929-2.929 2.929-7.678 0-10.606-1.544-1.544-146.51-146.51-148.055-148.055-6.438-6.439-16.86-6.44-23.3 0l-11.18 11.18c-6.423 6.423-6.423 16.875 0 23.299 8.613 8.613 47.15 47.15 53.383 53.383-26.835 20.272-48.31 47.465-59.032 80.121-17.1-52.118-58.76-81.32-75.736-91.369-7.786-4.611-17.835-1.918-22.274 5.968-12.247 21.757-46.455 95.755 2.838 170.75h-42.496c-11.493 0-20.844 9.35-20.844 20.843s9.351 20.843 20.844 20.843h13.255c-.237 5.366-5.169 116.938-5.394 122.042-.183 4.138 3.023 7.641 7.162 7.824 4.126.175 7.641-3.023 7.824-7.162l3.357-75.943h222.925l6.394 144.65c.004.089.006.178.006.267 0 3.021-2.462 5.478-5.489 5.478h-224.747c-3.027 0-5.489-2.457-5.489-5.478 0-.083.001-.166.005-.254l1.492-33.754c.183-4.138-3.023-7.641-7.162-7.824-4.134-.181-7.641 3.023-7.824 7.162l-1.492 33.749c-.014.309-.02.615-.02.921 0 11.292 9.191 20.478 20.489 20.478h224.746c11.298 0 20.489-9.186 20.489-20.478 0-.299-.007-.6-.02-.916l-8.432-190.762h13.256c11.493 0 20.843-9.35 20.843-20.843s-9.35-20.843-20.843-20.843h-42.487c24.651-37.495 28.376-74.611 24.662-104.663l118.719 118.719c6.441 6.438 16.859 6.439 23.299-.001l11.18-11.179c6.441-6.44 6.441-16.861.002-23.3zm-256.781-211.123 11.179-11.179c.574-.574 1.506-.581 2.087 0l23.218 23.218-13.266 13.266-23.218-23.218c-.576-.575-.576-1.512 0-2.087zm-101.194 68.155c.314-.558 1.028-.734 1.562-.418 22.685 13.429 93.787 64.408 71.559 163.81h-1.241c.539-29.319-5.582-56.902-18.272-82.085-11.346-22.514-25.169-37.333-32.399-44.162-6.399-6.046-16.926-3.21-19.44 5.208-5.65 18.912-15.072 66.835 11.757 121.039h-5.448c-52.934-70.766-19.676-142.788-8.078-163.392zm56.893 163.392h-26.45c-26.272-47.737-20.925-90.843-15.726-111.556 13.974 14.556 43.302 52.307 42.176 111.556zm138.842 73.447h-221.599l1.404-31.761h218.792zm32.71-52.604c0 3.222-2.621 5.843-5.843 5.843-11.709 0-270.09 0-275.332 0-3.222 0-5.844-2.621-5.844-5.843s2.622-5.843 5.844-5.843h275.332c3.221 0 5.843 2.621 5.843 5.843zm-73.292-132.4c5.199 20.714 10.546 63.821-15.726 111.557h-26.451c-1.125-59.249 28.204-97 42.177-111.557zm6.64 111.557h-5.448c26.828-54.202 17.407-102.127 11.758-121.04-2.521-8.435-13.054-11.24-19.44-5.208-7.23 6.83-21.054 21.648-32.399 44.162-12.691 25.184-18.811 52.766-18.272 82.085h-1.243c-14.253-63.512 7.23-117.531 57.934-154.758 12.751 12.751 13.917 13.917 31.213 31.213 8.253 31.5 10.235 77.646-24.103 123.546z"/></g></g></svg>