<svg id="Capa_1" enable-background="new 0 0 512 512" height="512" viewBox="0 0 512 512" width="512" xmlns="http://www.w3.org/2000/svg"><g><g><g><path d="m21.667 22.531c-7.824 0-14.167 6.343-14.167 14.167v438.77h200.38c7.824 0 14.167-6.343 14.167-14.167 0-6.046 0-437.59 0-438.77-8.528 0-190.746 0-200.38 0z" fill="#596c76"/><circle cx="123.773" cy="152.108" fill="#8d9ca8" r="64.705"/><path d="m123.773 187.062c-19.274 0-34.954-15.68-34.954-34.954s15.68-34.954 34.954-34.954 34.954 15.68 34.954 34.954-15.68 34.954-34.954 34.954z" fill="#596c76"/><circle cx="123.773" cy="348.469" fill="#8d9ca8" r="76.699"/><ellipse cx="123.773" cy="348.469" fill="#596c76" rx="46.948" ry="46.948" transform="matrix(.23 -.973 .973 .23 -243.811 388.869)"/><path d="m225.88 489.468h-204.213c-7.824 0-14.167-6.343-14.167-14.167v-3.833h194.38c7.824 0 14.167-6.343 14.167-14.167v-434.77h9.833c7.824 0 14.167 6.343 14.167 14.167v438.603c0 7.824-6.343 14.167-14.167 14.167z" fill="#465a61"/><g fill="#7a8c98"><path d="m123.773 87.403c-3.056 0-6.057.227-9 .637 31.473 4.382 55.705 31.388 55.705 64.068s-24.232 59.686-55.705 64.068c2.943.41 5.944.637 9 .637 35.736 0 64.705-28.969 64.705-64.705s-28.969-64.705-64.705-64.705z"/><path d="m123.773 271.77c-3.047 0-6.046.198-9 .543 38.116 4.458 67.699 36.843 67.699 76.156s-29.583 71.698-67.699 76.156c2.954.346 5.953.543 9 .543 42.36 0 76.699-34.339 76.699-76.699s-34.339-76.699-76.699-76.699z"/></g></g><g><path d="m286.119 22.531c-7.824 0-14.167 6.343-14.167 14.167v438.77h200.38c7.824 0 14.167-6.343 14.167-14.167 0-6.046 0-437.59 0-438.77-8.528 0-190.745 0-200.38 0z" fill="#596c76"/><circle cx="388.226" cy="152.108" fill="#8d9ca8" r="64.705"/><path d="m388.226 187.062c-19.274 0-34.954-15.68-34.954-34.954s15.68-34.954 34.954-34.954 34.954 15.68 34.954 34.954-15.68 34.954-34.954 34.954z" fill="#596c76"/><circle cx="388.226" cy="348.469" fill="#8d9ca8" r="76.699"/><ellipse cx="388.226" cy="348.469" fill="#596c76" rx="46.948" ry="46.948" transform="matrix(.23 -.973 .973 .23 -40.117 646.248)"/><path d="m490.332 489.468h-204.213c-7.824 0-14.167-6.343-14.167-14.167v-3.833h194.38c7.824 0 14.167-6.343 14.167-14.167v-434.77h9.833c7.824 0 14.167 6.343 14.167 14.167v438.603c0 7.824-6.343 14.167-14.167 14.167z" fill="#465a61"/><g fill="#7a8c98"><path d="m388.226 87.403c-3.056 0-6.057.227-9 .637 31.473 4.382 55.705 31.388 55.705 64.068s-24.232 59.686-55.705 64.068c2.943.41 5.944.637 9 .637 35.736 0 64.705-28.969 64.705-64.705s-28.97-64.705-64.705-64.705z"/><path d="m388.226 271.77c-3.047 0-6.046.198-9 .543 38.116 4.458 67.699 36.843 67.699 76.156s-29.583 71.698-67.699 76.156c2.954.346 5.953.543 9 .543 42.36 0 76.699-34.339 76.699-76.699s-34.34-76.699-76.699-76.699z"/></g></g><g fill="#465a61"><path d="m388.226 358.469c-5.514 0-10-4.486-10-10s4.486-10 10-10 10 4.486 10 10c-.001 5.514-4.487 10-10 10z"/><path d="m388.226 162.108c-5.514 0-10-4.486-10-10s4.486-10 10-10 10 4.486 10 10c-.001 5.514-4.487 10-10 10z"/><path d="m123.773 358.469c-5.514 0-10-4.486-10-10s4.486-10 10-10 10 4.486 10 10-4.486 10-10 10z"/><path d="m123.773 162.108c-5.514 0-10-4.486-10-10s4.486-10 10-10 10 4.486 10 10-4.486 10-10 10z"/></g></g><g><g><path d="m490.333 496.969h-204.213c-11.948 0-21.668-9.72-21.668-21.667v-438.604c0-11.947 9.72-21.667 21.668-21.667h204.213c11.947 0 21.667 9.72 21.667 21.667v73.524c0 4.142-3.357 7.5-7.5 7.5s-7.5-3.358-7.5-7.5v-73.524c0-3.676-2.991-6.667-6.667-6.667h-204.213c-3.677 0-6.668 2.991-6.668 6.667v438.603c0 3.676 2.991 6.667 6.668 6.667h204.213c3.676 0 6.667-2.991 6.667-6.667v-330.078c0-4.142 3.357-7.5 7.5-7.5s7.5 3.358 7.5 7.5v330.078c0 11.947-9.72 21.668-21.667 21.668z"/></g><g><path d="m388.226 224.313c-39.814 0-72.205-32.391-72.205-72.205s32.391-72.205 72.205-72.205 72.205 32.391 72.205 72.205-32.39 72.205-72.205 72.205zm0-129.41c-31.543 0-57.205 25.662-57.205 57.205s25.662 57.205 57.205 57.205 57.205-25.662 57.205-57.205-25.662-57.205-57.205-57.205z"/></g><g><path d="m388.226 194.562c-23.409 0-42.454-19.045-42.454-42.454s19.045-42.454 42.454-42.454 42.454 19.045 42.454 42.454-19.045 42.454-42.454 42.454zm0-69.908c-15.139 0-27.454 12.316-27.454 27.454s12.315 27.454 27.454 27.454 27.454-12.316 27.454-27.454-12.315-27.454-27.454-27.454z"/></g><g><path d="m388.226 432.668c-46.428 0-84.199-37.771-84.199-84.199s37.771-84.199 84.199-84.199c46.427 0 84.198 37.771 84.198 84.199s-37.771 84.199-84.198 84.199zm0-153.398c-38.156 0-69.199 31.042-69.199 69.199s31.043 69.199 69.199 69.199 69.198-31.042 69.198-69.199-31.042-69.199-69.198-69.199z"/></g><g><path d="m388.226 402.917c-30.022 0-54.448-24.426-54.448-54.449 0-30.022 24.426-54.448 54.448-54.448s54.447 24.425 54.447 54.448-24.424 54.449-54.447 54.449zm0-93.896c-21.752 0-39.448 17.696-39.448 39.448s17.696 39.449 39.448 39.449c21.751 0 39.447-17.697 39.447-39.449s-17.696-39.448-39.447-39.448z"/></g><g><path d="m225.88 496.969h-204.213c-11.947 0-21.667-9.721-21.667-21.668v-73.524c0-4.142 3.358-7.5 7.5-7.5s7.5 3.358 7.5 7.5v73.524c0 3.676 2.991 6.667 6.667 6.667h204.213c3.676 0 6.667-2.991 6.667-6.667v-438.603c0-3.676-2.991-6.667-6.667-6.667h-204.213c-3.676 0-6.667 2.991-6.667 6.667v330.078c0 4.142-3.358 7.5-7.5 7.5s-7.5-3.358-7.5-7.5v-330.078c0-11.947 9.72-21.667 21.667-21.667h204.213c11.947 0 21.667 9.72 21.667 21.667v438.603c0 11.947-9.72 21.668-21.667 21.668z"/></g><g><path d="m123.773 224.313c-39.814 0-72.205-32.391-72.205-72.205s32.391-72.205 72.205-72.205 72.205 32.391 72.205 72.205-32.391 72.205-72.205 72.205zm0-129.41c-31.543 0-57.205 25.662-57.205 57.205s25.662 57.205 57.205 57.205 57.205-25.662 57.205-57.205-25.662-57.205-57.205-57.205z"/></g><g><path d="m123.773 194.562c-23.409 0-42.454-19.045-42.454-42.454s19.045-42.454 42.454-42.454c23.41 0 42.455 19.045 42.455 42.454s-19.045 42.454-42.455 42.454zm0-69.908c-15.138 0-27.454 12.316-27.454 27.454s12.316 27.454 27.454 27.454c15.139 0 27.455-12.316 27.455-27.454s-12.316-27.454-27.455-27.454z"/></g><g><path d="m123.773 432.668c-46.428 0-84.199-37.771-84.199-84.199s37.771-84.199 84.199-84.199 84.199 37.771 84.199 84.199-37.771 84.199-84.199 84.199zm0-153.398c-38.157 0-69.199 31.042-69.199 69.199s31.042 69.199 69.199 69.199 69.199-31.042 69.199-69.199-31.042-69.199-69.199-69.199z"/></g><g><path d="m123.773 402.917c-30.023 0-54.448-24.426-54.448-54.449 0-30.022 24.425-54.448 54.448-54.448 30.022 0 54.448 24.425 54.448 54.448s-24.425 54.449-54.448 54.449zm0-93.896c-21.752 0-39.448 17.696-39.448 39.448s17.696 39.449 39.448 39.449c21.751 0 39.448-17.697 39.448-39.449s-17.696-39.448-39.448-39.448z"/></g><g><path d="m388.226 358.469c-5.514 0-10-4.486-10-10s4.486-10 10-10 10 4.486 10 10c-.001 5.514-4.487 10-10 10z"/></g><g><path d="m388.226 162.108c-5.514 0-10-4.486-10-10s4.486-10 10-10 10 4.486 10 10c-.001 5.514-4.487 10-10 10z"/></g><g><path d="m123.773 358.469c-5.514 0-10-4.486-10-10s4.486-10 10-10 10 4.486 10 10-4.486 10-10 10z"/></g><g><path d="m123.773 162.108c-5.514 0-10-4.486-10-10s4.486-10 10-10 10 4.486 10 10-4.486 10-10 10z"/></g></g></g></svg>