<svg id="Capa_1" enable-background="new 0 0 504.611 504.611" height="512" viewBox="0 0 504.611 504.611" width="512" xmlns="http://www.w3.org/2000/svg"><g><g><path d="m229.3 242.957c4.054-2.891 6.706-7.62 6.706-12.979v-208.995c-2.116 0-15.341 0-17.517 0v208.995c0 5.358 2.652 10.088 6.706 12.979z" fill="#8d9ca8"/><path d="m231.9 20.983v208.995c0 5.358-2.652 10.088-6.706 12.979 2.608 1.86 5.791 2.965 9.238 2.965 8.806 0 15.944-7.138 15.944-15.944v-208.995z" fill="#7a8c98"/><path d="m177.437 347.614-147.01-85.041c-10.149-5.871-13.617-18.857-7.746-29.006l41.048-70.96c5.871-10.149 18.857-13.617 29.006-7.746l147.01 85.041z" fill="#9facba"/><path d="m92.736 154.86c-9.738-5.633-22.071-2.65-28.241 6.565 1.229.432 2.438.971 3.607 1.647l147.011 85.041-52.573 90.883 14.899 8.619 62.309-107.713z" fill="#8d9ca8"/><path d="m341.893 293.705c-24.132-13.578 9.041 5.516-226.133-130.525-2.514-1.454-5.152-2.495-7.837-3.159-1.691 1.741-3.199 3.713-4.47 5.909l-58.087 100.416c-8.308 14.362-3.4 32.739 10.962 41.047l208.034 120.341z" fill="#7a8c98"/><path d="m341.893 293.705 10.641-18.395-208.033-120.342c-12.165-7.037-27.21-4.589-36.577 5.052 2.685.665 5.323 1.705 7.837 3.159 235.173 136.042 202 116.947 226.132 130.526z" fill="#596c76"/><path d="m145.66 242.957c4.054-2.891 6.706-7.62 6.706-12.979v-208.995c-2.116 0-15.341 0-17.517 0v208.995c0 5.358 2.652 10.088 6.706 12.979z" fill="#9facba"/><path d="m148.26 20.983v208.995c0 5.358-2.652 10.088-6.706 12.979 2.608 1.86 5.791 2.965 9.238 2.965 8.805 0 15.944-7.138 15.944-15.944v-208.995z" fill="#8d9ca8"/><path d="m347.015 279.075c-3.373-2.532-7.264-4.287-11.395-5.138l-10.531-2.169c-21.869 4.59-46.185 24.084-62.906 52.99-24.348 42.091-23.373 88.194 2.179 102.975 3.879 2.244 6.414 2.811 8.969 3.541l10.246-1.909c5.791-1.079 11.329-3.228 16.332-6.338 13.091-8.138 24.588-18.595 33.926-30.859 12.287-16.137 20.52-34.988 24.009-54.968l.674-3.858c2.164-12.395 1.922-25.092-.713-37.395-1.444-6.74-5.276-12.733-10.79-16.872z" fill="#b6c4cf"/><path d="m352.534 275.309c-8.004-4.63-17.47-5.635-27.445-3.541 3.141.755 6.15 1.911 8.969 3.541 25.552 14.781 26.527 60.884 2.179 102.975-16.721 28.906-41.037 48.4-62.906 52.991 25.322 6.085 59.721-15.544 81.382-52.991 24.349-42.09 23.373-88.194-2.179-102.975z" fill="#9facba"/><path d="m316.592 37.143v-29.643h-272.208v29.643c0 7.506 6.085 13.591 13.591 13.591h245.026c7.506 0 13.591-6.085 13.591-13.591z" fill="#596c76"/><path d="m312.487 7.5v29.643c0 7.506-6.085 13.591-13.591 13.591h24.635c7.506 0 13.591-6.085 13.591-13.591v-29.643z" fill="#465a61"/><path d="m282.175 405.72c-2.749 0-4.063-.76-4.495-1.01-3.77-2.181-6.333-9.555-6.528-18.785-.305-14.439 4.818-31.879 14.055-47.848 15.313-26.47 36.941-40.753 49.515-40.753 2.749 0 4.063.76 4.495 1.01 8.193 4.74 11.559 33.637-7.527 66.632-15.314 26.471-36.94 40.754-49.515 40.754z" fill="#ffe177"/></g><g><path d="m356.29 268.817c-.005-.003-.01-.005-.015-.008l-98.4-56.922v-81.802c0-4.142-3.357-7.5-7.5-7.5s-7.5 3.358-7.5 7.5v73.125l-16.888-9.769v-135.207h16.888v36.852c0 4.142 3.357 7.5 7.5 7.5s7.5-3.358 7.5-7.5v-36.852h65.654c11.63 0 21.092-9.461 21.092-21.091v-29.643c0-4.142-3.357-7.5-7.5-7.5h-292.737c-4.143 0-7.5 3.358-7.5 7.5v29.643c0 11.63 9.462 21.091 21.092 21.091h69.373v85.264c-5.736.324-11.36 1.959-16.386 4.802-2.34 1.321-4.512 2.898-6.503 4.678l-7.969-4.609c-13.743-7.951-31.303-3.264-39.254 10.482l-41.049 70.96c-7.95 13.743-3.265 31.302 10.483 39.254l7.962 4.606c-.531 2.523-.812 5.098-.812 7.689-.02 12.961 6.748 25.577 18.75 32.53l44.711 25.86c.06.03.119.07.18.1 3.705 1.989 8.098.567 10.06-2.84.07-.11.13-.23.19-.34 1.82-3.55.54-7.91-2.92-9.91l-44.71-25.86c-6.94-4.01-11.25-11.5-11.261-19.54 0-8.744-2.862-1.062 61.125-111.676 3.526-6.104 9.957-10.435 17.401-11.153v71.448c0 12.945 10.498 23.444 23.444 23.444 13.084 0 23.443-10.654 23.443-23.444v-49.146c14.081 8.146 130.38 75.42 145.915 84.406-27.171 7.344-50.416 31.487-64.46 55.764-14.014 24.226-23.404 56.571-16.208 83.677l-104.399-60.39c-3.633-2.103-8.207-.792-10.24 2.74-2.068 3.544-.883 8.152 2.729 10.24l133.03 76.96c.038.022.079.036.117.057 30.418 17.467 74.772-7.796 100.485-52.247 25.925-44.813 25.307-95.741-4.913-113.223zm-327.117-31.495 41.049-70.961c3.784-6.541 12.163-8.825 18.758-5.009l6.338 3.666c-37.2 64.307-32.084 55.465-54.799 94.728l-6.336-3.665c-6.569-3.8-8.811-12.189-5.01-18.759zm22.711-200.179v-22.143h277.737v22.143c0 3.359-2.732 6.091-6.092 6.091-12.519 0-254.67 0-265.554 0-3.359 0-6.091-2.733-6.091-6.091zm107.352 21.091c0 106.221-.004 109.939-.004 171.746 0 4.65-3.79 8.44-8.439 8.44-4.697 0-8.444-3.865-8.444-8.441v-171.745zm15 0h36.751v126.531l-36.751-21.259zm93.881 363.008c-24.53-14.191-18.354-60.036.558-92.728 21.865-37.798 58.549-59.182 80.104-46.712 10.002 5.786 15.706 18.185 16.06 34.913.383 18.097-5.519 38.629-16.617 57.815-22.075 38.161-58.574 59.17-80.105 46.712z"/><path d="m486.379 358.718-66.532-14.403c-4.054-.875-8.04 1.696-8.917 5.743-.877 4.048 1.695 8.041 5.743 8.917l66.532 14.403c4.055.877 8.042-1.7 8.917-5.743.877-4.049-1.695-8.041-5.743-8.917z"/><path d="m368.819 441.684c-2.784-3.068-7.526-3.298-10.595-.515-3.067 2.783-3.298 7.526-.515 10.594l45.717 50.388c2.785 3.068 7.527 3.298 10.595.515 3.067-2.784 3.298-7.526.515-10.594z"/><path d="m450.526 425.153-56.029-32.349c-3.589-2.072-8.175-.842-10.245 2.745-2.071 3.587-.842 8.174 2.745 10.245l56.029 32.349c3.592 2.073 8.177.838 10.245-2.745 2.071-3.587.841-8.174-2.745-10.245z"/><path d="m342.981 291.847c-13.872-8.047-44.526 8.35-64.267 42.475-19.777 34.191-18.702 68.83-4.786 76.882 13.934 8.051 44.568-8.453 64.254-42.482 20.105-34.757 18.384-69.016 4.799-76.875zm-17.784 69.363c-14.605 25.248-34.307 37.01-43.022 37.01-.327 0-.561-.021-.712-.043-3.992-4.799-6.073-28.15 10.235-56.344 15.598-26.963 36.697-38.046 43.762-36.961 3.438 3.607 6.747 26.933-10.263 56.338z"/></g></g></svg>