<svg id="Capa_1" enable-background="new 0 0 512.005 512.005" height="512" viewBox="0 0 512.005 512.005" width="512" xmlns="http://www.w3.org/2000/svg"><g><g><path d="m30.891 181.385c-7.503 0-5.82 0-13.541 0v262.448h18.541c0-6.822 0-251.499 0-257.448 0-2.762-2.238-5-5-5z" fill="#ffd15b"/><g><path d="m456.005 46.288c-10.763 0-87.004 0-96.041 0l-7.801 22.682-19.708 100.197h147.827c-22.691-115.365-18.358-93.497-24.277-122.879z" fill="#ffd15b"/><path d="m474.773 46.288h-20.407c2.214 12.994-1.474-6.207 23.916 122.879h24c-23.144-117.665-17.481-93.722-27.509-122.879z" fill="#ffc344"/><g><path d="m456.004 55.905-2.669-13.568c0-9.061-20.599-16.618-47.967-18.354-27.368 1.736-47.967 9.294-47.967 18.354l-5.239 26.634c5.491-14.264 63.313-21.516 103.842-13.066z" fill="#9facba"/></g><g><path d="m477.335 42.336c0-11.821-34.697-20.718-71.967-18.354 27.368 1.736 47.967 9.294 47.967 18.354l2.669 13.568c14.504 3.024 24.506 7.703 26.57 13.066z" fill="#8d9ca8"/></g></g><g><path d="m171.033 46.288c-10.763 0-87.004 0-96.041 0l-7.801 22.682-19.708 100.197h147.827c-22.691-115.365-18.358-93.497-24.277-122.879z" fill="#ffd15b"/><path d="m189.801 46.288h-20.407c2.214 12.994-1.474-6.207 23.916 122.879h24c-23.143-117.665-17.48-93.722-27.509-122.879z" fill="#ffc344"/><g><path d="m171.033 55.905-2.669-13.568c0-9.061-20.599-16.618-47.967-18.354-27.368 1.735-47.967 9.293-47.967 18.353l-5.239 26.634c5.49-14.263 63.312-21.515 103.842-13.065z" fill="#9facba"/></g><g><path d="m192.364 42.336c0-11.821-34.697-20.718-71.967-18.354 27.368 1.736 47.967 9.294 47.967 18.354l2.669 13.568c14.504 3.024 24.506 7.703 26.57 13.066z" fill="#8d9ca8"/></g></g><path d="m17.35 141.385v44h9.541c2.761 0 5 2.239 5 5v253.448h16v-302.448z" fill="#ffc344"/><path d="m324.607 105.53-23.984 5.479c-16.942 3.87-34.539 3.87-51.482 0-25.02-5.715-37.969-9.496-59.614-9.496h-41.925v67.655h59.967l38.902 8.886c34.165 7.804 55.949.2 95.725-8.886h59.967v-67.655h-41.925c-11.99-.001-23.942 1.347-35.631 4.017z" fill="#b6c4cf"/><circle cx="274.79" cy="147.492" fill="#7a8c98" r="10"/><path d="m17.986 101.512c-5.791 0-10.486 4.695-10.486 10.486v46.682c0 5.791 4.695 10.486 10.486 10.486h131.802v-67.655c-4.574.001-126.745.001-131.802.001z" fill="#b6c4cf"/><path d="m488.5 188.644c0-51.611-43.927-86.557-81.132-86.557-43.926 5.091-77.132 42.254-77.132 86.557 0 42.432 30.859 80.725 77.132 86.557 37.758 0 81.132-35.413 81.132-86.557z" fill="#fff0ad"/><path d="m126.397 275.201c43.411-4.961 77.132-41.818 77.132-86.557s-33.721-81.596-77.132-86.557c-37.9 0-81.132 35.54-81.132 86.557 0 50.938 43.165 86.557 81.132 86.557z" fill="#fff0ad"/><path d="m407.368 102.087c43.411 4.961 77.132 41.818 77.132 86.557s-33.721 81.596-77.132 86.557c51.824 5.923 97.132-34.505 97.132-86.557 0-51.882-45.138-92.5-97.132-86.557z" fill="#ffe177"/><circle cx="417.368" cy="188.644" fill="#7a8c98" r="57.404"/><circle cx="417.368" cy="188.644" fill="#596c76" r="27.677"/><circle cx="431.207" cy="174.805" fill="#9facba" r="13.839"/><path d="m417.368 131.239c-3.412 0-6.75.316-10 .89 26.9 4.748 47.404 28.273 47.404 56.514s-20.505 51.767-47.404 56.514c3.25.574 6.588.89 10 .89 31.653 0 57.404-25.751 57.404-57.404s-25.751-57.404-57.404-57.404z" fill="#596c76"/><path d="m122.397 102.087c43.411 4.961 77.132 41.818 77.132 86.557s-33.721 81.596-77.132 86.557c51.824 5.923 97.132-34.505 97.132-86.557 0-51.882-45.138-92.5-97.132-86.557z" fill="#ffe177"/><circle cx="132.397" cy="188.644" fill="#7a8c98" r="57.404"/><circle cx="132.397" cy="188.644" fill="#596c76" r="27.677"/><circle cx="146.235" cy="174.805" fill="#9facba" r="13.839"/><path d="m122.397 132.129c26.9 4.748 47.404 28.273 47.404 56.514s-20.505 51.767-47.404 56.514c3.25.574 6.588.89 10 .89 31.653 0 57.404-25.751 57.404-57.404 0-35.38-32.001-62.763-67.404-56.514z" fill="#596c76"/><path d="m18.865 399.265c-5.118 0-9.267 4.149-9.267 9.267v69.866h18.779c5.118 0 9.267-4.149 9.267-9.268 0-6.647 0-62.351 0-69.866-6.263.001-12.523.001-18.779.001z" fill="#b87d72"/><path d="m46.377 399.265h-10.733v67.866c0 5.118-4.149 9.268-9.267 9.268h-16.78v2.732c0 5.118 4.149 9.268 9.267 9.268h27.512c5.118 0 9.267-4.149 9.267-9.268v-70.599c.001-5.118-4.148-9.267-9.266-9.267z" fill="#ab695d"/></g><g><ellipse cx="274.79" cy="147.492" rx="10" ry="10" transform="matrix(.383 -.924 .924 .383 33.368 344.922)"/><path d="m132.397 123.739c-35.789 0-64.904 29.116-64.904 64.904s29.116 64.904 64.904 64.904 64.904-29.116 64.904-64.904-29.115-64.904-64.904-64.904zm0 114.809c-27.517 0-49.904-22.387-49.904-49.904s22.387-49.904 49.904-49.904 49.904 22.387 49.904 49.904-22.387 49.904-49.904 49.904z"/><path d="m140.216 154.345c-2.558-.583-5.178-.879-7.819-.879-19.397 0-35.177 15.78-35.177 35.177s15.78 35.177 35.177 35.177c11.276 0 21.593-5.221 28.306-14.325 6.168-8.365 8.285-18.675 5.988-28.655 4.797-16.223-10.345-31.25-26.475-26.495zm12.358 20.46c0 3.202-2.436 5.87-5.502 6.277-3.181.431-6.256-1.572-6.984-4.949-.926-4.295 2.443-7.666 6.147-7.666 3.495-.001 6.339 2.843 6.339 6.338zm-20.177 34.016c-11.126 0-20.177-9.051-20.177-20.177 0-8.692 5.524-16.118 13.246-18.951-3.608 15.396 9.947 29.807 25.909 25.818-2.807 7.637-10.075 13.31-18.978 13.31z"/><path d="m484.808 41.465c-.354-5.57-4.263-13.022-19.916-18.572-3.903-1.383-8.191.658-9.575 4.563s.659 8.191 4.563 9.575c7.634 2.707 9.607 5.116 9.964 5.645.039.878.104.957 1.841 9.792-26.558-9.824-80.303-10.48-108.632 0 1.739-8.843 1.805-8.918 1.843-9.818 1.903-3.408 19.703-11.544 52.474-11.544h.025c3.421 0 6.853.095 10.199.282 4.126.22 7.676-2.933 7.907-7.069.231-4.135-2.934-7.676-7.069-7.907-3.624-.203-7.336-.306-11.036-.306-.009 0-.018 0-.027 0-24.709 0-66.29 5.373-67.442 25.375-1.259 6.399-9.269 47.123-10.586 53.819-10.416 1.311-20.468 3.847-40.387 8.397-15.747 3.597-32.395 3.597-48.141 0-19.843-4.533-29.897-7.071-40.385-8.383-1.321-6.717-9.341-47.491-10.589-53.833-1.152-20.002-42.733-25.375-67.442-25.375-24.71 0-66.291 5.373-67.443 25.375-1.234 6.272-9.063 46.079-10.332 52.531h-36.636c-9.917 0-17.986 8.069-17.986 17.986v46.683c0 6.988 4.014 13.043 9.85 16.02v153.684c0 4.142 3.358 7.5 7.5 7.5s7.5-3.358 7.5-7.5v-151.718h13.669c-1.384 10.963-.894 22.682 1.873 34.18v180.918h-15.542v-28.38c0-4.142-3.358-7.5-7.5-7.5s-7.5 3.358-7.5 7.5v31.033c-4.654 2.983-7.753 8.189-7.753 14.115v70.599c0 9.246 7.522 16.768 16.768 16.768h27.512c9.246 0 16.768-7.522 16.768-16.768v-70.599c0-5.926-3.099-11.132-7.752-14.115v-150.832c17.181 24.011 45.296 39.689 77.005 39.689 52.18 0 94.631-42.452 94.631-94.631 0-2.492-.098-4.961-.288-7.404 18.557 4.239 29.775 7.497 48.142 7.497 18.281 0 29.362-3.207 48.143-7.497-.19 2.444-.288 4.913-.288 7.404 0 52.18 42.452 94.631 94.632 94.631s94.631-42.452 94.631-94.631c-.001-12.041 1.063-3.523-27.193-147.179zm-436.664 437.667c0 .975-.793 1.768-1.768 1.768h-27.511c-.975 0-1.768-.793-1.768-1.768v-70.599c0-.844.595-1.549 1.387-1.724.029-.004.058-.005.087-.009.061-.01.093-.013.133-.018.054-.005.105-.016.16-.016h27.512c.055 0 .107.011.161.016.041.005.072.008.133.018.025.004.051.002.076.006.797.171 1.397.88 1.397 1.727v70.599zm306.716-385.017 4.459-22.668c3.975-5.394 23.541-8.879 30.17-9.816 37.674-5.327 80.248 1.898 85.924 9.789l10.158 51.643c-31.996-33.334-67.937-29.018-95.474-29.103-9.818-.03-25.155-.095-35.237.155zm-284.95-.104 4.438-22.564c6.276-8.543 56.692-16.479 95.735-8.088 12.043 2.6 18.83 6.02 20.361 8.077l4.463 22.691c-14.379-.314-15.725-.124-124.997-.116zm10.013-51.36c1.903-3.408 19.703-11.544 52.474-11.544 32.77 0 50.57 8.137 52.474 11.544.016.38.061.759.134 1.133l1.708 8.685c-26.546-9.83-80.415-10.449-108.632 0 1.739-8.844 1.804-8.919 1.842-9.818zm-61.84 119.016-.266-.018c-.002 0-.003 0-.005 0-1.564-.092-2.812-1.382-2.812-2.969v-46.683c0-1.646 1.34-2.986 2.986-2.986h63.282c-2.856 1.832-5.618 3.821-8.271 5.963-14.692 11.861-25.837 28.282-31.323 46.692h-23.591zm114.314 106.608c-44.106 0-79.632-35.937-79.632-79.631 0-43.898 35.727-79.632 79.632-79.632 43.99 0 79.631 35.8 79.631 79.632 0 43.908-35.722 79.631-79.631 79.631zm91.712-103.023c-5.681-22.34-19.903-42.896-40.638-56.241 26.838.111 30.69 1.702 64.001 9.309 17.932 4.097 36.888 4.097 54.822 0 30.873-7.051 36.293-8.876 57.713-9.287 1.74-.016 3.781-.026 6.215-.033-5.369 3.461-10.425 7.491-15.086 12.06-12.479 12.225-21.226 27.42-25.481 44.192-47.422 10.833-48.231 12.179-101.546 0zm193.26 103.023c-43.909 0-79.632-35.723-79.632-79.631 0-43.786 35.612-79.632 79.632-79.632h.003c43.95.002 79.629 35.782 79.629 79.632-.001 43.908-35.724 79.631-79.632 79.631z"/><path d="m417.369 123.739c-35.789 0-64.905 29.116-64.905 64.904s29.116 64.904 64.905 64.904 64.904-29.116 64.904-64.904-29.116-64.904-64.904-64.904zm0 114.809c-27.518 0-49.905-22.387-49.905-49.904s22.387-49.904 49.905-49.904c27.517 0 49.904 22.387 49.904 49.904s-22.387 49.904-49.904 49.904z"/><path d="m452.545 174.805c0-11.766-9.572-21.338-21.338-21.338-2.097 0-4.12.316-6.036.883-21.778-5.013-42.98 11.547-42.98 34.294 0 19.397 15.78 35.177 35.177 35.177 22.741 0 39.31-21.192 34.295-42.981.566-1.916.882-3.938.882-6.035zm-20.331 6.251c-.057.009-.113.018-.17.026-3.836.52-7.175-2.49-7.175-6.277 0-.007.001-.013.001-.019.012-3.443 2.87-6.319 6.337-6.319 7.752-.001 8.618 11.342 1.007 12.589zm-14.846 27.765c-11.125 0-20.177-9.051-20.177-20.177 0-8.875 5.649-16.163 13.31-18.978-3.871 15.477 10.209 29.753 25.845 25.845-2.797 7.609-10.048 13.31-18.978 13.31z"/></g></g></svg>