<svg id="Capa_1" enable-background="new 0 0 512 512" height="512" viewBox="0 0 512 512" width="512" xmlns="http://www.w3.org/2000/svg"><g><g><path d="m192.5 45-3.355-4.059c-.847 0 .847.273-13.064-2.455-6.681-1.31-13.313 2.521-15.86 9.162l-15.667 40.848c-1.853 4.831-2.503 10.08-1.889 15.251l6.495 54.678c.299 2.516 2.432 4.41 4.965 4.41h31.351c1.912 0 3.657-1.09 4.495-2.809l14.922-30.615v-84.411z" fill="#fd8087"/><path d="m198.892 45h-6.392l-3.355-4.059c-.212 0-.265.017-.443 0-.469-.045-1.814-.329-9.251-1.793-.422 2.469.496-2.43-6.937 36.714-4.738 24.954-.326 50.779 12.428 72.745l5.759 9.918 14.191-29.115v-84.41z" fill="#fe646f"/><path d="m310.103 75.862-5.859-30.862c-9.802 0-84.529 0-94.733 0l-2.767-4.059c-1.679 0-14.74 0-16.981 0l-6.631 34.921c-4.738 24.954-.326 50.779 12.428 72.745l17.963 30.936h66.189l17.963-30.936c12.754-21.965 17.167-47.791 12.428-72.745z" fill="#d8ecfe"/><path d="m361.997 481.287-49.856-229.819c-4.525-20.86-15.286-39.851-30.854-54.454-31.533 0-36.784 0-72.575 0-15.568 14.603-26.328 33.594-30.854 54.454l-49.856 229.819c-.676 3.116 1.698 6.06 4.886 6.06h22.09c6.89 0 13.374 3.26 17.485 8.79l6.216 8.363h154.64c5.893-7.928 10.833-17.153 23.701-17.153 3.415 0 5.632-3.042 4.977-6.06z" fill="#5f99d7"/><path d="m331.779 47.649c-1.055-2.75-2.816-5.007-4.985-6.628v-.736c-3.959.782-3.362.657-3.939.657l-3.105 4.058h-12.642v84.41l14.922 30.615c.838 1.719 2.582 2.809 4.495 2.809h11.351c2.533 0 4.666-1.895 4.965-4.41l6.495-54.678c.614-5.17-.036-10.42-1.889-15.251z" fill="#fd8087"/><path d="m367.446 88.496-15.667-40.848c-2.547-6.641-9.179-10.472-15.86-9.162-13.909 2.727-12.217 2.455-13.064 2.455l-.061.079c2.169 1.621 3.93 3.879 4.985 6.628l15.667 40.848c1.853 4.831 2.503 10.08 1.889 15.251l-6.495 54.678c-.299 2.516-2.432 4.41-4.965 4.41h24c2.533 0 4.666-1.895 4.965-4.41l6.495-54.678c.614-5.17-.036-10.42-1.889-15.251z" fill="#fd8087"/><path d="m344.287 491.464-33.812-236.779c-3.155-22.092-10.656-42.206-21.509-57.671-6.998 0-59.086 0-65.933 0-10.853 15.466-18.355 35.579-21.509 57.671l-33.812 236.779c3.512 2.531 4.519 4.359 10.968 13.036h154.64c6.645-8.941 7.511-10.545 10.967-13.036z" fill="#7bacdf"/><g><g><path d="m329.485 75.862-6.631-34.921c-1.357 0-6.079 0-12.981 0l-2.766 4.059h-7.482l5.86 30.862c4.738 24.954.326 50.779-12.428 72.745l-17.963 30.936h24l17.963-30.936c12.754-21.965 17.166-47.791 12.428-72.745z" fill="#c4e2ff"/></g></g><path d="m208.712 171.157h75.812v25.857h-75.812z" fill="#fd8087"/><path d="m279.287 171.157h24v25.857h-24z" fill="#fe646f"/><path d="m266.524 40.941c-2.209 0-4-1.791-4-4v-23.441c0-3.314-2.686-6-6-6h-19.048c-3.314 0-6 2.686-6 6v23.441c0 2.209-1.791 4-4 4h-25.35l6.046 37.732c.775 4.835 4.946 8.391 9.843 8.391h37.985 37.985c4.897 0 9.068-3.556 9.843-8.391l6.046-37.732c-6.307 0-33.535 0-43.35 0z" fill="#ffcebf"/><path d="m260.524 13.5v23.441c0 2.209 1.791 4 4 4h20c-2.209 0-4-1.791-4-4v-23.441c0-3.314-2.686-6-6-6h-20c3.314 0 6 2.686 6 6z" fill="#ffb09e"/><path d="m289.874 40.941-6.046 37.732c-.775 4.835-4.946 8.391-9.843 8.391h20c4.897 0 9.068-3.556 9.843-8.391l6.046-37.732z" fill="#ffb09e"/><path d="m379.111 487.347c3.188 0 5.562-2.944 4.886-6.06l-49.856-229.819c-4.525-20.86-15.286-39.851-30.854-54.454h-24c15.568 14.603 26.328 33.594 30.854 54.454l49.856 229.819c.676 3.116-1.698 6.06-4.886 6.06z" fill="#3c87d0"/><path d="m279.287 197.014c14.909 13.985 25.393 31.999 30.229 51.819-3.572-19.783-10.665-37.732-20.551-51.819z" fill="#5f99d7"/></g><path d="m391.327 479.698-12.084-55.704c-.879-4.049-4.875-6.618-8.919-5.74-4.048.878-6.618 4.872-5.74 8.919l11.427 52.674c-20.559 0-21.456-.223-25.695.772l-32.416-226.994c-2.143-15.005-6.451-30.497-13.088-44.263 10.913 12.433 18.458 27.371 21.999 43.696l30.352 139.911c.878 4.048 4.87 6.617 8.919 5.74 4.048-.878 6.618-4.872 5.74-8.919l-30.352-139.911c-4.636-21.369-15.226-40.666-30.684-56.028v-19.509l5.459-9.402c2.311 3.326 6.167 5.396 10.278 5.396h31.351c6.33 0 11.666-4.74 12.413-11.025l6.495-54.678c.756-6.361-.051-12.869-2.333-18.821l-15.667-40.848c-3.845-10.025-14.066-15.844-24.306-13.836l-11.806 2.315c-19.588 0-.198 0-34.646 0v-19.943c0-7.444-6.056-13.5-13.5-13.5h-37.049c-7.444 0-13.5 6.056-13.5 13.5v19.941c-32.278 0-14.679 0-34.646 0-12.76-2.502-13.22-2.71-15.87-2.71-8.981 0-16.926 5.586-20.242 14.232l-2.093 5.458c-1.483 3.867.449 8.205 4.317 9.688 3.865 1.483 8.205-.45 9.688-4.317 1.685-4.392 3.21-11.177 9.507-9.946l5.729 1.124c-5.933 31.246-6.7 33.762-7.111 44.141-.799 20.306 3.892 40.463 13.543 58.304l-2.885 5.92h-27.568c-7.354-61.918-7.996-55.793-3.749-66.864 1.483-3.867-.449-8.205-4.316-9.688-3.868-1.483-8.205.449-9.688 4.316-1.336 3.483-3.651 8.765-3.651 16.852 0 3.261-.283-.034 6.771 59.359.747 6.286 6.083 11.025 12.413 11.025h31.351c4.111 0 7.967-2.07 10.278-5.396l5.46 9.402v19.509c-15.457 15.362-26.048 34.659-30.684 56.028l-49.856 229.819c-1.691 7.798 4.253 15.15 12.216 15.15h22.09c14.047 0 14.466 17.152 23.701 17.152h154.64c4.523 0 6.157-3.199 8.865-6.876 4.1-5.567 4.613-6.224 6.487-7.574.001-.001.002-.002.003-.002 4.788-3.448 6.785-2.7 30.437-2.7 7.896.001 13.917-7.298 12.215-15.149zm-175.115-290.184v-10.856h79.575v10.856c-22.817 0-56.839 0-79.575 0zm121.15-143.668c3.111-.61 6.166 1.234 7.414 4.488l15.667 40.848c1.415 3.688 1.914 7.727 1.444 11.68l-6.232 52.473h-27.568l-2.889-5.926c9.979-18.439 15.002-39.968 13.338-62.072-.601-8.246-1.221-10.44-6.903-40.366zm-26.129 34.013 5.035-31.418h.376c4.977 26.214 15.566 59.307-6.397 96.957l-10.602 18.259h-36.145v-69.093h30.485c8.629 0 15.883-6.184 17.248-14.705zm-79.758-31.418c4.142 0 7.5-3.358 7.5-7.5v-25.941h34.049v25.941c0 4.142 3.358 7.5 7.5 7.5h20.553l-4.654 29.044c-.193 1.204-1.218 2.078-2.438 2.078h-75.971c-1.219 0-2.244-.873-2.437-2.078l-4.655-29.045h20.553zm-13.461 46.123h30.486v69.093h-36.146c-11.824-20.363-20.728-33.062-23.506-56.622-2.147-18.242.508-26.995 6.507-58.593h.376l5.035 31.418c1.365 8.52 8.619 14.704 17.248 14.704zm-82.025 385.284 49.199-226.789c3.542-16.326 11.086-31.264 21.999-43.697-6.597 13.683-10.958 29.35-13.088 44.263l-32.415 226.995c-4.256-.999-5.207-.772-25.695-.772zm193.549 17.152h-147.088c-4.255-5.725-4.845-6.65-6.733-8.541l33.231-232.713c2.552-17.871 8.322-36.053 18.088-51.231h57.927c9.787 15.211 15.531 33.323 18.088 51.231l33.23 232.707c-1.943 1.983-3.715 4.439-6.743 8.547z"/></g></svg>