<svg id="Capa_1" enable-background="new 0 0 512 512" height="512" viewBox="0 0 512 512" width="512" xmlns="http://www.w3.org/2000/svg"><g><g><path d="m326.558 133.279h67.593l-7.653-39.96h-116.528v-50.952h-89.014c-21.792 0-39.855 14.812-45.213 34.592l-.008-.013-41.507 225.59c-3.771 19.69.593 40.069 12.098 56.487 13.875 19.801 36.534 31.592 60.712 31.592 202.145 0 188.29.106 192.673-.247 7.545-14.654 10.054-31.497 6.917-47.872z" fill="#ab695d"/><path d="m404.862 342.495-34.868-182.052v-27.164c-5.267 0-42.336 0-47.136 0l40.07 209.216c6.484 33.854-11.243 67.861-42.988 81.811-3.14 1.38-2.283 6.268 1.24 6.268h10.871c46.495 0 81.561-42.392 72.811-88.079z" fill="#c38f86"/><path d="m428.862 342.495c-39.419-205.816-34.868-176.809-34.868-197.771l-26 8.854c0 9.805-3.862-13.297 34.868 188.917 8.745 45.662-26.293 88.079-72.811 88.079h26c46.495 0 81.561-42.392 72.811-88.079z" fill="#b87d72"/><path d="m255.634 382.615c-8.411 0-6.463 0-14.873 0v102.905h17.873c0-9.934 0-83.077 0-99.905 0-1.657-1.343-3-3-3z" fill="#9facba"/><path d="m170.048 424.306c-31.813-13.98-49.458-48.029-42.988-81.811 46.316-241.825 35.516-190.027 58.37-288.211h-39.369c-6.677 5.979-11.622 13.826-14.018 22.674l-.008-.013c-.184 1.002-47.045 255.818-48.909 265.55-8.745 45.662 26.293 88.079 72.81 88.079h12.871c3.468 0 4.437-4.863 1.241-6.268z" fill="#c38f86"/><path d="m192.048 424.306c-12.249-5.383-22.993-14.054-30.89-25.324-11.505-16.419-15.869-36.797-12.098-56.487 48.084-251.057 34.607-185.638 61.138-300.129h-26c-26.532 114.49-13.054 49.072-61.138 300.129-3.771 19.69.593 40.069 12.098 56.487 7.897 11.27 18.641 19.941 30.89 25.324 3.195 1.404 2.234 6.268-1.241 6.268h26c3.468 0 4.437-4.863 1.241-6.268z" fill="#b87d72"/><path d="m240.761 351v39.615h10.873c1.657 0 3 1.343 3 3v91.905h18v-94.905-39.615z" fill="#8d9ca8"/><path d="m300.906 364.948h-88.1c-3.878 0-7.022-3.144-7.022-7.022v-114.675h102.144v114.675c0 3.878-3.144 7.022-7.022 7.022z" fill="#ffb09e"/><path d="m205.784 341.412c15.203 7.627 32.363 11.927 50.53 11.927h.768c18.293 0 35.566-4.358 50.846-12.083v-92.004h-102.144z" fill="#f89580"/><path d="m177.256 42.367c-12.044 0-22.944 4.531-31.195 11.918-4.183 12.277-3.694 20.895-3.694 30.603 0 30.268 17.43 56.451 42.792 69.102 7.818-39.637 10.008-46.76 25.04-111.623z" fill="#c38f86"/><path d="m198.515 238.948h-55.041c-21.161 0-38.316-17.155-38.316-38.316v-.236c0-21.161 17.155-38.316 38.316-38.316h55.041z" fill="#ffb09e"/><path d="m315.196 162.081h55.041c21.161 0 38.316 17.155 38.316 38.316v.236c0 21.161-17.155 38.316-38.316 38.316h-55.041z" fill="#f89580"/><path d="m309.26 504.5h-104.81c-10.483 0-18.981-8.498-18.981-18.981 0-10.483 8.498-18.981 18.981-18.981h104.81c10.483 0 18.981 8.498 18.981 18.981 0 10.483-8.498 18.981-18.981 18.981z" fill="#b6c4cf"/><path d="m309.26 466.538h-22c10.483 0 18.981 8.498 18.981 18.981 0 10.483-8.498 18.981-18.981 18.981h22c10.483 0 18.981-8.498 18.981-18.981 0-10.483-8.498-18.981-18.981-18.981z" fill="#9facba"/><path d="m243.698 68.356c-57.887 6.715-100.228 55.283-100.228 112.138v40c0 55.152 40.129 104.672 100.228 112.138 46.175 0 104.228-44.462 104.228-112.138v-40c0-67.019-57.35-112.138-104.228-112.138z" fill="#ffcebf"/><path d="m243.698 68.356c56.383 6.273 100.228 54.082 100.228 112.138v40c0 58.057-43.845 105.865-100.228 112.138 68.836 7.659 126.228-45.766 126.228-112.138v-40c0-66.365-57.386-119.797-126.228-112.138z" fill="#ffb09e"/><path d="m277.244 7.5c-9.472 0-36.681 0-45.814 0-38.143 0-69.064 30.921-69.064 69.064v8.324c0 42.633 34.56 77.193 77.193 77.193h154.434c0-13.575 0-22.114 0-37.831.001-64.479-52.27-116.75-116.749-116.75z" fill="#c38f86"/><path d="m367.994 124.25c0 40.259-.128 35.525.314 37.831h25.686c0-35.686 0 9.284 0-37.831 0-64.479-52.271-116.75-116.75-116.75-5.25 0-15.949 0-26 0 64.479 0 116.75 52.271 116.75 116.75z" fill="#b87d72"/></g><path d="m436.228 341.084-23.583-123.134c2.192-5.347 3.409-11.192 3.409-17.318v-.235c0-13.716-6.067-26.035-15.648-34.439 1.5-2.474 1.089-.324 1.089-41.708-.001-31.26-11.652-61.134-32.807-84.12-2.805-3.048-7.549-3.245-10.598-.439-3.048 2.805-3.244 7.55-.439 10.598 18.6 20.209 28.843 46.476 28.844 73.962v30.331c-5.129 0-141.809 0-146.935 0-32.956 0-60.337-23.182-67.526-52.429-3.612-14.121-4.016-38.002 5.41-55.144 10.476-19.06 30.745-32.009 53.987-32.009h45.813c19.356 0 38.371 5.126 54.987 14.824 3.575 2.086 8.169.881 10.258-2.697 2.088-3.578.881-8.17-2.697-10.258-18.908-11.036-40.537-16.869-62.548-16.869h-45.813c-27.29 0-51.276 14.363-64.837 35.916-23.929 4.734-39.175 24.674-41.935 39.672l-17.937 97.483c-5.691 7.634-9.065 17.093-9.065 27.326v.235c0 4.188.599 8.348 1.724 12.352-26.131 141.972-25.078 133.387-25.078 143.455 0 9.533 1.65 18.911 4.905 27.873 1.414 3.894 5.719 5.904 9.609 4.489 3.894-1.414 5.903-5.716 4.489-9.609-2.657-7.316-4.004-14.971-4.004-22.753 0-8.376-.811-1.45 21.64-123.406 7.168 7.181 16.737 11.77 27.682 13.049 2.826 12.703 8.059 25.538 14.337 36.08-12.232 64.06-12.728 64.211-12.728 74.289 0 26.8 13.133 51.519 34.479 66.623h-18.776c-16.921 0-33.056-6.353-45.432-17.888-3.031-2.825-7.776-2.658-10.6.373-2.824 3.03-2.657 7.776.373 10.6 15.163 14.132 34.93 21.916 55.66 21.916h34.871c11.664 0 14.785-16.006 4.258-20.634-10.034-4.409-18.59-11.112-25.175-19.326h63.37v60.924h-28.811c-14.602 0-26.481 11.879-26.481 26.481s11.88 26.48 26.482 26.48h104.81c14.602 0 26.48-11.879 26.48-26.481s-11.879-26.481-26.48-26.481h-29.127v-60.924c34.067.002 52.402.02 62.053.007-6.549 8.15-15.097 14.851-25.263 19.318-10.62 4.666-7.288 20.634 4.257 20.634h34.871c51.402.001 89.762-46.933 80.176-96.989zm-35.174-140.452c0 13.539-9.045 26.591-24.049 29.905.716-8.682.431-47.466.421-48.469 0-4.503-.158-8.396-.416-11.738 13.745 3.094 24.044 15.4 24.044 30.066zm-187.77 156.816v-24.542c27.973 10.713 59.204 10.671 87.144-.12v24.662c-10.741 0-77.179 0-87.144 0zm-88.647-198.832 14.692-79.868c2.857-10.369 9.667-18.847 18.645-23.876-3.788 12.905-5.154 35.369.662 55.324-9.307 12.925-16.329 27.959-19.932 44.631-4.549.471-9.488 1.724-14.067 3.789zm-11.979 42.016v-.235c0-14.413 10.02-26.763 23.724-29.989-.626 7.598-.412 17.877-.412 50.086 0 3.208.165 6.961.414 9.979-14.701-3.469-23.726-16.319-23.726-29.841zm249.18-31.051c.349 3.376.517 5.917.587 12.412 0 42.075.039 39.765-.109 43.144-2.513 56.952-50.385 101.166-106.612 100.694-.054 0-.107-.002-.16-.002-58.623-.581-104.575-48.183-104.575-105.334v-38.226c.203-19.503 3.815-37.17 14.856-55.696 14.734 25.971 42.728 43.008 73.734 43.008zm-201.03 213.482c-4.252-9.769-6.098-20.478-5.405-31.074.377-5.591.101-3.205 9.628-53.063 9.46 11.025 20.739 20.126 33.253 27.005v31.994c0 8.007 6.515 14.522 14.522 14.522h20.456v10.667c-75.576 0-70.618.022-72.454-.051zm159.933 102.456c0 6.331-5.15 11.481-11.48 11.481h-104.81c-6.331 0-11.481-5.15-11.481-11.481s5.15-11.481 11.481-11.481h104.81c6.33 0 11.48 5.15 11.48 11.481zm-72.48-26.481c0-8.582 0-77.818 0-86.59h16.873v86.59zm31.873-75.923v-10.667h20.772c8.007 0 14.521-6.515 14.521-14.522v-32.146c10.015-5.54 19.262-12.536 27.467-20.893 1.482-1.509 2.916-3.053 4.308-4.625l6.136 32.036c2.119 11.062 7.478 28.646-2.168 50.787-5.532.069-21.16.033-71.036.03zm75.918 39.959h-18.803c10.476-7.423 19.161-17.277 25.164-28.728 8.659-16.518 11.288-35.479 7.881-53.263l-10.937-57.105c6.765-10.865 12.085-23.274 15.443-37.76 9.941-.987 19.21-5.361 25.839-11.207l20.856 108.893c7.828 40.877-23.502 79.17-65.443 79.17z"/></g></svg>