<svg id="Capa_1" enable-background="new 0 0 512 512" height="512" viewBox="0 0 512 512" width="512" xmlns="http://www.w3.org/2000/svg"><g><g><path d="m428.021 452.75v-430.25c0-8.284-6.716-15-15-15h-294.042c-8.284 0-15 6.716-15 15v408.5h174.021v36.75h135.021c8.284 0 15-6.716 15-15z" fill="#c4e2ff"/><path d="m437.021 7.5h-28c8.284 0 15 6.716 15 15v430.25c0 8.284-6.716 15-15 15h28c8.284 0 15-6.716 15-15v-430.25c0-8.284-6.716-15-15-15z" fill="#b3dafe"/><path d="m384.021 489.5v-432.133c0-8.284-6.715-14.999-14.999-15h-294.043c-8.284 0-15 6.716-15 15v373.633l73.5 73.5h235.541c8.285 0 15.001-6.716 15.001-15z" fill="#eaf6ff"/><path d="m59.98 431 73.5 73.5v-58.5c0-8.284-6.716-15-15-15z" fill="#c4e2ff"/><g fill="#596c76"><ellipse cx="138.481" cy="184.282" rx="21.708" ry="15.162" transform="matrix(.966 -.259 .259 .966 -42.977 42.121)"/><ellipse cx="218.699" cy="215.655" rx="21.708" ry="15.162" transform="matrix(.966 -.259 .259 .966 -48.364 63.952)"/><g transform="matrix(.966 -.259 .259 .966 -20.635 86.575)"><ellipse cx="318.481" cy="121.654" rx="21.708" ry="15.162"/><ellipse cx="318.481" cy="121.654" rx="21.708" ry="15.162"/></g></g><g fill="#596c76"><ellipse cx="235.208" cy="366.282" rx="21.708" ry="15.162" transform="matrix(.966 -.259 .259 .966 -86.787 73.357)"/><ellipse cx="315.425" cy="397.655" rx="21.708" ry="15.162" transform="matrix(.966 -.259 .259 .966 -92.173 95.188)"/><ellipse cx="150.063" cy="366.274" rx="21.708" ry="15.162" transform="matrix(.966 -.259 .259 .966 -89.685 51.32)"/></g><path d="m393.021 42.367h-28c8.284 0 15 6.716 15 15v432.133c0 8.284-6.716 15-15 15h28c8.284 0 15-6.716 15-15v-432.133c0-8.284-6.716-15-15-15z" fill="#d8ecfe"/></g><g><path d="m97.574 199.964c0 4.142 3.357 7.5 7.5 7.5h88.098c-3.088 4.988-4.074 10.569-2.685 15.75 3.381 12.619 18.869 18.406 34.077 14.331 12.052-3.23 22.971-12.419 22.971-25.545v-4.536h42.12c.098 4.057 3.41 7.318 7.491 7.318s7.393-3.261 7.491-7.318h55.778c4.143 0 7.5-3.358 7.5-7.5s-3.357-7.5-7.5-7.5h-55.769v-16.31h55.769c4.143 0 7.5-3.358 7.5-7.5s-3.357-7.5-7.5-7.5h-55.769v-16.31h55.769c4.143 0 7.5-3.358 7.5-7.5s-3.357-7.5-7.5-7.5h-16.406c3.088-4.988 4.074-10.57 2.686-15.75-3.329-12.426-18.59-18.481-34.077-14.331-13.084 3.506-23.112 13.547-22.955 24.99-.004.105-.016.208-.016.313v4.777h-42.11v-12.616c0-3.49-2.408-6.52-5.809-7.307l-80.218-18.572c-4.697-1.088-9.192 2.483-9.192 7.307v31.19h-47.243c-4.143 0-7.5 3.358-7.5 7.5s3.357 7.5 7.5 7.5h47.243v16.31c-47.773 0 7.308 0-47.243 0-4.143 0-7.5 3.358-7.5 7.5s3.357 7.5 7.5 7.5h7.841c-3.057 4.973-4.028 10.528-2.646 15.687.056.21.126.415.189.623h-5.385c-4.142-.001-7.5 3.357-7.5 7.499zm69.725-18.857c.006-.119.018-.236.018-.357v-4.595h65.218v16.31h-68.522c2.228-3.603 3.355-7.512 3.286-11.358zm53.383 41.949c-7.946 2.129-14.812-.386-15.706-3.725-.901-3.361 3.833-8.959 11.741-11.077 7.931-2.126 14.81.379 15.706 3.723.894 3.337-3.791 8.948-11.741 11.079zm68.964-30.592h-42.11v-16.31h42.11zm26.853-78.211c7.973-2.137 14.817.406 15.706 3.725.901 3.361-3.833 8.959-11.741 11.077-7.944 2.129-14.812-.386-15.706-3.723-.894-3.337 3.79-8.948 11.741-11.079zm-26.853 30.592v16.31h-42.11v-16.31zm-122.329-36.755 65.218 15.102v6.654h-65.218zm0 36.755h65.218v16.31h-65.218zm-42.559 43.114c-.893-3.334 3.789-8.947 11.741-11.078 6.677-1.79 14.641-.252 15.706 3.724v.001c.893 3.334-3.789 8.947-11.741 11.078-7.807 2.09-14.792-.311-15.706-3.725z"/><path d="m344.25 394.223c.002-.075.011-.148.011-.223v-4.536h16.152c4.143 0 7.5-3.358 7.5-7.5s-3.357-7.5-7.5-7.5h-16.152v-16.31h16.152c4.143 0 7.5-3.358 7.5-7.5s-3.357-7.5-7.5-7.5h-16.152v-16.31h16.152c4.143 0 7.5-3.358 7.5-7.5s-3.357-7.5-7.5-7.5h-16.152v-12.616c0-3.49-2.408-6.52-5.809-7.307l-80.217-18.575c-4.7-1.087-9.192 2.485-9.192 7.307v31.19h-70.145v-31.199c0-4.142-3.357-7.5-7.5-7.5s-7.5 3.358-7.5 7.5v31.199h-58.825c-4.143 0-7.5 3.358-7.5 7.5s3.357 7.5 7.5 7.5h58.825v16.31c-10.255 0-48.57 0-58.825 0-4.143 0-7.5 3.358-7.5 7.5s3.357 7.5 7.5 7.5h19.374c-2.97 4.833-4.034 10.319-2.597 15.679.058.215.138.419.203.63h-16.979c-4.143 0-7.5 3.358-7.5 7.5s3.357 7.5 7.5 7.5h184.781c-3.004 4.85-4.085 10.363-2.642 15.75 3.29 12.279 18.264 18.568 34.078 14.331 14.051-3.764 23.357-14.39 22.959-25.32zm-14.988-19.759h-68.478c2.193-3.544 3.354-7.443 3.259-11.386 0-.012.002-.024.002-.037v-4.887h65.218v16.31zm-96.037-15.583c7.705-2.065 14.784.277 15.707 3.724.917 3.423-4.012 9.008-11.741 11.079-7.725 2.069-14.789-.301-15.707-3.724s4.011-9.008 11.741-11.079zm96.037-15.726h-65.218v-16.31h65.218zm-65.218-53.065 65.218 15.102v6.654h-65.218zm-85.145 36.755h70.145v16.31c-8.42 0-62.927 0-70.145 0zm-15.112 35.751c.917 3.423-4.012 9.008-11.741 11.078-7.727 2.071-14.789-.301-15.707-3.723-.917-3.423 4.013-9.008 11.741-11.079 7.565-2.027 14.766.21 15.707 3.724zm15.111.478c0-.011.002-.022.002-.033v-4.887h30.698c-2.974 4.835-4.04 10.324-2.603 15.688.057.212.136.413.2.622h-31.562c2.196-3.545 3.359-7.444 3.265-11.39zm138.51 41.982c-7.725 2.07-14.789-.301-15.707-3.724-.917-3.423 4.012-9.008 11.741-11.078 7.95-2.131 14.815.394 15.707 3.723.917 3.423-4.012 9.008-11.741 11.079z"/><path d="m452.021 107.296c4.143 0 7.5-3.358 7.5-7.5v-77.296c0-12.407-10.094-22.5-22.5-22.5h-318.042c-12.406 0-22.5 10.093-22.5 22.5v12.367h-21.5c-12.406 0-22.5 10.093-22.5 22.5v373.633c0 2.055.871 3.978 2.196 5.303l73.5 73.5c1.415 1.414 3.3 2.16 5.183 2.191.04.001.08.006.12.006h167.422c4.143 0 7.5-3.358 7.5-7.5s-3.357-7.5-7.5-7.5h-159.921v-51c0-12.407-10.094-22.5-22.5-22.5h-51v-366.133c0-4.135 3.364-7.5 7.5-7.5h318.041c4.136 0 7.5 3.365 7.5 7.5v432.133c0 4.136-3.364 7.5-7.5 7.5h-57.119c-4.143 0-7.5 3.358-7.5 7.5s3.357 7.5 7.5 7.5h57.119c12.406 0 22.5-10.093 22.5-22.5v-14.25h21.5c12.406 0 22.5-10.093 22.5-22.5v-317.954c0-4.142-3.357-7.5-7.5-7.5s-7.5 3.358-7.5 7.5v317.954c0 4.136-3.364 7.5-7.5 7.5h-21.5v-402.883c0-12.407-10.094-22.5-22.5-22.5-11.083 0-267.437 0-281.541 0v-12.367c0-4.136 3.364-7.5 7.5-7.5h318.041c4.136 0 7.5 3.364 7.5 7.5v77.296c.001 4.142 3.358 7.5 7.501 7.5zm-333.542 331.204c4.136 0 7.5 3.364 7.5 7.5v40.394l-47.893-47.894z"/></g></g></svg>