<svg id="Capa_1" enable-background="new 0 0 512.084 512.084" height="512" viewBox="0 0 512.084 512.084" width="512" xmlns="http://www.w3.org/2000/svg"><g><g><path d="m207.397 503.829c48.406-5.879 85.046-50.06 81.832-101.614l-1.672-26.823h-3.778c-17.295 0-31.316-13.674-31.316-30.542 0-16.858 14.005-30.526 31.287-30.541l-.007-.107v-19.272c0-43.512-31.798-79.592-73.422-86.285l-5.928-.004c.028-.005.055-.011.083-.015-41.682 6.644-73.538 42.751-73.538 86.304v19.379h.193c17.281.016 31.286 13.683 31.286 30.541 0 16.868-14.021 30.542-31.316 30.542h-3.862l-1.672 26.823c-3.096 49.635 31.043 94.898 81.83 101.614z" fill="#b87d72"/><path d="m311.229 402.215-1.672-26.823h-3.778c-17.295 0-31.316-13.674-31.316-30.542 0-16.858 14.005-30.526 31.287-30.541l-.007-.107v-19.272c0-43.512-31.798-79.592-73.422-86.285l-27.845-.019c-.028.004-.055.011-.083.015l5.928.004c41.625 6.693 73.422 42.773 73.422 86.285v19.272l.007.107c-17.282.016-31.287 13.683-31.287 30.541 0 16.868 14.02 30.542 31.316 30.542h3.778l1.672 26.823c3.214 51.554-33.426 95.735-81.832 101.614 3.606.438 7.275.671 11 .671 53.729 0 96.286-46.891 92.832-102.285z" fill="#ab695d"/><path d="m234.185 316.621-5.005-289.74h-21.567l-4.97 287.705c-.019 1.118.882 2.035 2 2.035z" fill="#596c76"/><path d="m236.15 314.587-4.97-287.705h-23.567l-.727 42.118h11.022l4.277 247.621h11.965c1.119 0 2.02-.917 2-2.034z" fill="#465a61"/><path d="m224.526 54.411v-42.322c0-2.534-2.265-4.589-5.059-4.589h-14.139c-2.794 0-5.059 2.055-5.059 4.589v42.322c0 2.534 2.265 4.589 5.059 4.589h14.139c2.794 0 5.059-2.055 5.059-4.589z" fill="#b87d72"/><path d="m231.467 7.5h-16c2.794 0 5.059 2.055 5.059 4.589v42.322c0 2.534-2.265 4.589-5.059 4.589h16c2.794 0 5.059-2.055 5.059-4.589v-42.322c0-2.534-2.265-4.589-5.059-4.589z" fill="#ab695d"/><path d="m386.65 429.718h-25v35.282c0 2.761 2.381 5 5.318 5h19.682z" fill="#c38f86"/><g><path d="m230.762 364.612h-25c-4.143 0-7.5-3.357-7.5-7.5s3.357-7.5 7.5-7.5h25c4.143 0 7.5 3.357 7.5 7.5s-3.358 7.5-7.5 7.5z" fill="#935b50"/></g><path d="m216.397 456.626c1.481-1.333 2.527-3.154 2.861-5.246l7.856-49.145c.389-2.43-1.489-4.631-3.95-4.631-7.339 0-9.16 0-17.534 0-2.461 0-4.338 2.201-3.95 4.631l7.856 49.145c.334 2.092 1.38 3.913 2.861 5.246z" fill="#596c76"/><path d="m231.165 397.603h-12c2.461 0 4.338 2.201 3.95 4.631l-7.856 49.145c-.334 2.092-1.38 3.913-2.861 5.246 1.6 1.441 3.71 2.31 6 2.31 4.409 0 8.165-3.203 8.861-7.557l7.856-49.145c.388-2.428-1.489-4.63-3.95-4.63z" fill="#465a61"/></g><g><path d="m230.762 364.612c4.143 0 7.5-3.358 7.5-7.5s-3.357-7.5-7.5-7.5h-25c-4.143 0-7.5 3.358-7.5 7.5s3.357 7.5 7.5 7.5z"/><path d="m256.363 343.83c-2.811-3.039-7.557-3.224-10.598-.412-3.041 2.813-3.226 7.558-.413 10.599.542.585.853 1.438.853 2.339v20.748c0 9.925 7.713 18 17.192 18 4.143 0 7.5-3.358 7.5-7.5s-3.357-7.5-7.5-7.5c-1.037 0-2.192-1.232-2.192-3v-20.748c0-4.703-1.72-9.151-4.842-12.526z"/><path d="m190.59 377.104v-20.748c0-.901.311-1.754.853-2.339 2.813-3.041 2.628-7.786-.413-10.599-3.039-2.813-7.786-2.628-10.598.412-3.122 3.375-4.842 7.823-4.842 12.526v20.748c0 1.768-1.155 3-2.192 3-4.143 0-7.5 3.358-7.5 7.5s3.357 7.5 7.5 7.5c9.479 0 17.192-8.075 17.192-18z"/><path d="m386.65 23.5c-4.143 0-7.5 3.358-7.5 7.5v3.5h-12.183c-7.067 0-12.817 5.607-12.817 12.5v418c0 6.893 5.75 12.5 12.817 12.5h12.183v3.5c0 4.142 3.357 7.5 7.5 7.5s7.5-3.358 7.5-7.5v-11c0-17.989 0-421.084 0-439 0-4.142-3.357-7.5-7.5-7.5zm-7.5 26v372.718h-10v-372.718zm-10 413v-25.282h10v25.282z"/><path d="m317.042 374.924c-.246-3.953-3.524-7.033-7.485-7.033h-3.777c-13.133 0-23.816-10.336-23.816-23.042 0-12.693 10.674-23.029 23.794-23.041 2.083-.002 4.071-.87 5.488-2.396 1.371-1.476 2.089-3.439 1.997-5.445v-19.038c0-44.463-30.792-82.587-73.527-92.452l-.51-29.512c-.071-4.142-3.526-7.423-7.629-7.37-4.142.072-7.44 3.487-7.369 7.628l.614 35.548v.002l1.733 100.347h-16.315l4.19-242.621h7.934l1.238 71.729c.072 4.142 3.457 7.417 7.629 7.37 4.142-.072 7.44-3.487 7.369-7.628l-.244-14.136h3.541c4.143 0 7.5-3.358 7.5-7.5s-3.357-7.5-7.5-7.5h-3.8l-.231-13.38h4.031c4.143 0 7.5-3.358 7.5-7.5s-3.357-7.5-7.5-7.5h-4.29l-.265-15.365c3.971-2.033 6.684-6.054 6.684-10.677v-42.323c-.001-6.666-5.634-12.089-12.559-12.089h-26.139c-6.926 0-12.56 5.423-12.56 12.089v42.322c0 4.623 2.713 8.645 6.685 10.677l-.265 15.365h-4.29c-4.143 0-7.5 3.358-7.5 7.5s3.357 7.5 7.5 7.5h4.031l-.231 13.38h-3.8c-4.143 0-7.5 3.358-7.5 7.5s3.357 7.5 7.5 7.5h3.541l-1.358 78.616c-42.836 9.831-73.644 48.016-73.644 92.48v19.379c0 4.142 3.357 7.5 7.5 7.5h.186c13.12.012 23.794 10.348 23.794 23.041 0 12.706-10.684 23.042-23.816 23.042h-3.861c-3.961 0-7.239 3.08-7.485 7.033-1.672 26.808-6.536 54.059 12.285 86.525 2.076 3.583 6.667 4.805 10.25 2.727 3.583-2.077 4.805-6.667 2.727-10.25-15.609-26.926-12.088-49.251-10.722-71.162 19.915-1.597 35.623-17.992 35.623-37.915 0-18.51-13.571-33.983-31.479-37.358v-12.562c0-36.45 24.063-67.515 58.376-76.981l-1.667 96.509v.053c-.001.038-.002.077-.002.112 0 5.238 4.262 9.499 9.501 9.499h27.506c5.239 0 9.501-4.261 9.501-9.499 0-.032-.001-.067-.001-.101 0-.021 0-.043 0-.064l-1.667-96.475c34.244 9.508 58.259 40.557 58.259 76.947v12.599c-17.806 3.45-31.279 18.879-31.279 37.321 0 19.895 15.663 36.271 35.538 37.908l1.243 19.929c4.816 76.479-80.305 122.18-137.893 75.625-3.223-2.605-7.945-2.104-10.547 1.117-2.604 3.221-2.104 7.944 1.117 10.548 67.692 54.727 167.935 1.256 162.293-88.229zm-109.273-359.924h21.257v36.5h-21.257z"/><path d="m194.274 403.419 7.856 49.143c2.943 18.426 29.588 18.418 32.534.001l7.855-49.144c1.117-6.99-4.287-13.316-11.356-13.316h-25.533c-7.077.001-12.471 6.336-11.356 13.316zm32.787 1.685-7.208 45.092c-.262 1.647-2.647 1.648-2.909 0l-7.209-45.092z"/></g></g></svg>