<svg id="Capa_1" enable-background="new 0 0 512 512" height="512" viewBox="0 0 512 512" width="512" xmlns="http://www.w3.org/2000/svg"><g><g><path d="m425.087 196.836c0-22.221-17.988-40.24-40.197-40.293-.196-1.835-.516-3.633-.952-5.385-.668-2.691-3.066-4.593-5.839-4.593-11.148 0-41.823 0-52.944 0-1.69 4.447-2.623 9.266-2.623 14.305 0 22.222 17.988 40.24 40.197 40.293.419 3.925 1.401 7.682 2.865 11.188-13.642 6.457-23.081 20.342-23.081 36.437 0 12.453 5.726 24.331 15.904 32.024-1.384 2.813-2.873 5.577-4.494 8.272h26.885c33.419 0 51.734-38.103 32.495-64.115 8.304-8.303 11.784-18.155 11.784-28.133z" fill="#fe646f"/><path d="m402.81 289.083c34.362 0 52.762-40.286 30.781-66.289.158-.187.308-.382.462-.572h-.002c5.638-6.931 9.036-15.755 9.036-25.386 0-22.221-17.988-40.24-40.197-40.293-.372-3.479-1.195-6.821-2.395-9.978-2.261-9.044-16.902-27.436-40.341-25.896-.079.005-.159.008-.238.014-15.877 1.133-29.297 11.504-34.761 25.882h48.945c2.773 0 5.17 1.902 5.839 4.593.435 1.752.756 3.55.952 5.385 22.209.054 40.197 18.072 40.197 40.293 0 9.629-3.385 18.46-9.024 25.386h-.009c-.131.16-.262.319-.394.477-1.816 2.165-3.818 4.104-6.002 5.82 14.216 24.086-.673 56.013-28.717 60.12l-2.26.443c33.961.001-19.42-.054 28.128.001z" fill="#fd4755"/><path d="m191.322 160.869c0-5.039-.933-9.859-2.623-14.305h-75.34c-1.199 3.157-2.023 6.499-2.395 9.978-22.209.054-40.197 18.072-40.197 40.293 0 9.631 3.398 18.456 9.036 25.386-6.227 7.093-10.01 16.385-10.01 26.565 0 22.255 18.041 40.296 40.296 40.296h49.525c-1.576-2.62-3.031-5.314-4.389-8.06 9.785-7.352 16.116-19.054 16.116-32.235 0-16.095-9.439-29.981-23.081-36.437 1.464-3.506 2.446-7.262 2.865-11.188 22.209-.053 40.197-18.071 40.197-40.293z" fill="#fe646f"/><path d="m151.026 120.574c-17.215 0-31.896 10.8-37.667 25.99h75.34c-5.771-15.19-20.457-25.99-37.673-25.99z" fill="#fd4755"/><path d="m349.843 368.253v-1.767c-22.568 0-169.193 0-192.538 0-32.661 0-52.835 24.678-52.835 50.834v87.18h31.57l3.887-4.5h22l4.085 4.5h181.83l3.585-5h22.5l3.887 5h9.57v-87.179c.001-23.475-15.915-43.222-37.541-49.068z" fill="#75cdd5"/><path d="m358.55 366.486h-10.708v1.767c21.626 5.845 37.542 25.593 37.542 49.067v87.18h24v-87.179c.001-28.076-22.759-50.835-50.834-50.835z" fill="#2abcc8"/><path d="m155.305 366.486c-6.82 0-13.322 1.353-19.264 3.789v134.225h29.972v-138.014z" fill="#596c76"/><path d="m358.55 366.486h-10.708v138.014h29.972v-134.225c-5.942-2.436-12.444-3.789-19.264-3.789z" fill="#596c76"/><path d="m210.003 372.49c0 25.916 21.009 46.924 46.924 46.924 25.916 0 46.924-21.009 46.924-46.924v-20.58h-93.849v20.58z" fill="#ffa78f"/><path d="m210.003 351.91c14.149 6.387 29.85 9.943 46.382 9.943h.768c16.656 0 32.467-3.611 46.698-10.088v-92.199h-93.849v92.344z" fill="#f89580"/><path d="m198.583 249.455h-55.046c-21.163 0-38.319-17.156-38.319-38.319v-.236c0-21.163 17.156-38.319 38.319-38.319h55.046z" fill="#ffb09e"/><path d="m315.272 172.582h55.046c21.163 0 38.319 17.156 38.319 38.319v.236c0 21.163-17.156 38.319-38.319 38.319h-55.046z" fill="#f89580"/><path d="m305.52 357.586-48.592 21.76v8.835l32.592-14.595c7.065-3.164 15.258 1.625 15.258 8.918v55.661l.742.332c7.065 3.164 15.258-1.625 15.258-8.918v-63.076c0-7.293-8.193-12.081-15.258-8.917z" fill="#fe646f"/><path d="m347.843 366.486v1.767c12.607 3.407 23.269 11.536 29.972 22.379v-20.357c-.005-.002-.01-.004-.016-.006-10.869-4.451-18.527-3.783-29.956-3.783z" fill="#465a61"/><path d="m256.928 384.154-48.592-21.76c-7.065-3.164-15.258 1.625-15.258 8.918v4 50.268 4c0 7.293 8.193 12.082 15.258 8.918l48.592-21.76 47.85 21.428 5.572-3.915v-66h-17.45c-4.507 1.78.873-.566-35.972 15.903z" fill="#fd8087"/><path d="m289.362 373.586c7.065-3.164 15.258 1.625 15.258 8.918v55.661l.742.332c7.065 3.164 15.258-1.625 15.258-8.918v-63.076c0-7.293-8.193-12.082-15.258-8.918l-48.592 21.76-48.592-21.76c-7.065-3.164-15.258 1.625-15.258 8.918v8.808c0-7.293 8.193-12.082 15.258-8.918l48.592 21.76z" fill="#fe646f"/><g fill="#ffcebf"><path d=""/><path d="m336.915 146.564h-184.271-.02c-5.847 13.637-9.091 28.656-9.091 44.433v40.003c0 58.405 44.367 106.446 101.236 112.261 56.869-5.815 101.236-53.856 101.236-112.261v-40.002c.001-15.778-3.242-30.797-9.09-44.434z"/></g><g><path d="m336.319 248h-20c-4.142 0-7.5-3.357-7.5-7.5s3.358-7.5 7.5-7.5h20c4.142 0 7.5 3.357 7.5 7.5s-3.358 7.5-7.5 7.5z" fill="#fe8f83"/></g><g><path d="m196.699 248h-20c-4.142 0-7.5-3.357-7.5-7.5s3.358-7.5 7.5-7.5h20c4.142 0 7.5 3.357 7.5 7.5s-3.357 7.5-7.5 7.5z" fill="#fe8f83"/></g><path d="m257.154 78.145h-.768c-3.922 0-7.797.201-11.616.592 29.819 3.049 56.195 17.712 74.545 39.386h-149.072c-7.194 8.496-13.149 18.067-17.599 28.442h184.271c5.847 13.637 9.091 28.656 9.091 44.433v40.002c0 58.405-44.367 106.446-101.236 112.261 3.819.391 7.694.592 11.616.592h.768c62.327 0 112.852-50.526 112.852-112.852v-40.002c0-62.328-50.526-112.854-112.852-112.854z" fill="#ffb09e"/><path d="m245.043 8.293c-35.232 4.539-64.788 29.036-77.378 62.707l3.676 7.145h2 151.218 2c-10.782-36.962-41.679-64.885-79.516-69.852z" fill="#7bacdf"/><path d="m256.928 7.5c-4.052 0-8.042.273-11.962.781 37.872 4.939 68.804 32.876 79.593 69.864h17.956l3.675-7.145c-13.894-37.16-48.619-63.5-89.262-63.5z" fill="#7bacdf"/><path d="m324.186 71h-156.521c-4.182 11.186-6.481 23.35-6.481 36.073 0 3.127.145 6.217.417 9.27h168.655c.271-3.053.416-6.143.416-9.27-.001-12.716-2.3-24.882-6.486-36.073z" fill="#d8ecfe"/><path d="m346.19 71h-24.005c4.186 11.191 6.486 23.357 6.486 36.073 0 3.127-.145 6.217-.416 9.27h24c.271-3.053.416-6.143.416-9.27 0-12.723-2.298-24.887-6.481-36.073z" fill="#d8ecfe"/><g><path d="m256.928 318.333c-14.389 0-28.245-3.697-39.015-10.411-13.049-8.133-20.879-20.221-21.804-33.479-.929-13.32 8.969-25.218 22.319-25.424 9.018-.139 16.859 4.966 20.67 12.464 3.401 6.691 9.983 11.244 17.489 11.308.113.001.227.001.341.001s.228 0 .341-.001c7.506-.064 14.087-4.617 17.489-11.308 3.811-7.497 11.652-12.603 20.67-12.464 13.351.206 23.248 12.104 22.319 25.424-.925 13.257-8.755 25.345-21.804 33.479-10.77 6.714-24.626 10.411-39.015 10.411z" fill="#eaf6ff"/></g><path d="m201.474 226.23c-15.164 0-27.5-12.337-27.5-27.5v-11c0-15.163 12.336-27.5 27.5-27.5s27.5 12.337 27.5 27.5v11c0 15.164-12.337 27.5-27.5 27.5z" fill="#eaf6ff"/><path d="m312.033 226.23c-15.164 0-27.5-12.337-27.5-27.5v-11c0-15.163 12.336-27.5 27.5-27.5s27.5 12.337 27.5 27.5v11c0 15.164-12.336 27.5-27.5 27.5z" fill="#eaf6ff"/><g fill="#5f99d7"><path d="m126.401 120.564c.036.116.038.101.006 0-.002 0-.004 0-.006 0z"/><path d="m126.429 120.645 6.226 4.361h235.437l5.718-19.34-6.356-3.544c-37.534 0-226.076 0-227.471 0-8.847.001-16.398 8.224-13.554 18.523z"/></g><path d="m373.871 102.123c-.332 0-2.594 0-6.417 0 .414 1.334.637 2.751.637 4.221 0 7.854-6.367 14.221-14.221 14.221-4.19 0-190.216 0-227.471 0 1.798 5.793 7.199 10 13.583 10h233.887c7.854 0 14.221-6.367 14.221-14.221s-6.365-14.221-14.219-14.221z" fill="#3c87d0"/></g><g><path d="m442.452 222.779c4.978-7.694 7.67-16.712 7.67-25.943 0-24.142-18.034-44.193-41.339-47.358-2.534-10.323-8.475-19.538-16.821-26.133 4.825-14.126-5.77-28.722-20.557-28.722h-12.397c-5.959-53.608-49.735-94.623-102.546-94.623-16.763 0-33.409 4.264-48.14 12.329-3.633 1.989-4.966 6.547-2.977 10.18 1.99 3.633 6.547 4.966 10.181 2.977 12.528-6.86 26.684-10.486 40.936-10.486 33.579 0 62.884 19.525 77.789 48.5h-155.502c3.267-6.348 7.241-12.318 11.884-17.741 2.694-3.146 2.327-7.881-.819-10.575s-7.881-2.326-10.575.819c-13.043 15.235-22.721 35.503-25.306 58.62h-12.414c-14.806 0-25.375 14.613-20.557 28.722-8.346 6.595-14.286 15.81-16.821 26.133-23.305 3.165-41.339 23.217-41.339 47.358 0 8.913 2.532 17.672 7.216 25.208-5.314 7.863-8.19 17.164-8.19 26.743 0 26.354 21.441 47.796 47.795 47.796h45.433c11.631 17.827 27.855 32.394 46.981 42.012v10.535c-6.392.41-12.267 4.094-15.143 9.856h-21.348c-11.224 0-20.455-.718-32.816 4.349-.051.021-.096.051-.147.073-21.155 8.766-36.079 29.625-36.079 53.912v87.18c0 4.143 3.358 7.5 7.5 7.5h31.57 29.972 243.373c4.142 0 7.5-3.357 7.5-7.5v-21.26c0-4.143-3.358-7.5-7.5-7.5s-7.5 3.357-7.5 7.5v13.76h-16.57v-113.723c10.08 7.942 16.57 20.245 16.57 34.043v30.92c0 4.143 3.358 7.5 7.5 7.5s7.5-3.357 7.5-7.5v-30.92c0-24.286-14.923-45.146-36.078-53.912-.051-.022-.096-.053-.147-.074-5.769-2.364-10.368-3.161-10.368-3.161-8.115-1.626-11.18-1.187-43.797-1.187-1.37-2.745-3.481-5.138-6.191-6.895-2.732-1.769-5.813-2.76-8.952-2.962v-10.692c18.99-9.619 35.098-24.125 46.666-41.855h44.792c18.783 0 35.368-10.597 43.285-27.654 7.08-15.255 5.782-32.441-3.177-46.149zm-102.081-144.279c1.641 5.248 2.821 10.638 3.531 16.123h-174.876c.764-5.829 2.02-11.2 3.563-16.123zm-198.852 31.123h229.887c3.706 0 6.721 3.015 6.721 6.721 0 3.655-2.998 6.721-6.721 6.721-4.387 0-205.387 0-229.887 0-8.989-.001-8.839-13.442 0-13.442zm235.522 121.377v-40.002c0-3.499-.211-7.584-.429-10.169 13.753 3.089 24.059 15.4 24.059 30.072v.236c0 14.673-10.309 26.984-24.064 30.072.255-3.017.434-6.775.434-10.209zm-241.046 10.136c-13.594-3.207-23.742-15.44-23.742-29.999v-.237c0-14.557 10.147-26.79 23.739-29.998-.193 2.31-.424 6.325-.424 10.095v40.003c0 3.076.145 6.728.427 10.136zm10.699 40.447h-37.07c-18.083 0-32.795-14.712-32.795-32.796 0-7.956 2.893-15.633 8.146-21.618 2.414-2.75 2.491-6.842.181-9.681-4.811-5.913-7.354-13.055-7.354-20.652 0-18.039 14.676-32.75 32.715-32.793 3.827-.009 7.034-2.898 7.44-6.704.946-8.859 5.498-16.915 12.449-22.341 6.104 3.65 11.088 3.067 17.405 3.067-4.363 8.9-7.53 18.288-9.485 27.263-23.043 2.382-41.073 21.91-41.073 45.573v.236c0 23.667 18.037 43.199 41.087 45.575 1.82 8.351 4.651 16.876 8.354 24.871zm155.297 163.76c12.174 5.447 25.821-3.201 25.821-15.764 0-10.942 0-44.706 0-55.593h12.065v123.014h-75.915v-68.686c.001 0 38.028 17.028 38.029 17.029zm-101.879-78.839c0-1.658 2.438-3.081 4.693-2.073 15.952 7.144 26.857 12.027 44.157 19.774v27.673c-30.687 13.742-24.686 11.055-44.158 19.774-2.144.962-4.692-.343-4.692-2.073v-62.971zm-15 63.075c0 12.57 13.654 21.213 25.824 15.763l38.026-17.028v68.686h-75.915v-123.014h12.065zm-73.607-12.259c0-13.798 6.49-26.101 16.57-34.043v113.723h-16.57zm31.57 79.68v-121.377c6.458-1.826 11.155-1.636 14.972-1.636v123.013zm226.774 0h-14.972v-123.014c5.475 0 9.565.109 14.972 1.636zm-57.037-130.496v.016 63.06c0 1.686-2.506 3.052-4.693 2.073l-44.157-19.775v-27.673c40.835-18.287 23.047-10.321 44.157-19.774 2.148-.959 4.693.325 4.693 2.073zm-16.926-21.678v8.647l-39.424 17.654-39.424-17.654v-8.537c11.548 3.95 25.011 6.416 38.882 6.416 14.609.001 28.009-2.398 39.966-6.526zm-39.966-8.473c-51.876 0-95.271-37.741-103.82-87.427-1.923-11.167-1.532-13.478-1.532-57.928 0-18.221 4.727-36.573 14.254-52.934h182.964c9.637 16.55 14.254 34.953 14.254 52.934 0 40.668.845 49.357-3.05 65.185-11.07 45.096-51.776 80.17-103.07 80.17zm176.103-73.739c-5.513 11.878-16.607 18.969-29.679 18.969h-36.43c3.52-7.599 6.428-16.05 8.348-24.845 23.203-2.227 41.408-21.825 41.408-45.602v-.236c0-23.772-18.199-43.368-41.395-45.601-1.951-8.961-5.136-18.378-9.479-27.235 6.901 0 11.693.537 17.721-3.067 6.951 5.427 11.504 13.482 12.449 22.341.406 3.806 3.613 6.695 7.44 6.704 18.039.043 32.715 14.754 32.715 32.793 0 7.716-2.744 15.217-7.728 21.12-2.359 2.796-2.358 6.886.004 9.68 8.307 9.826 10.079 23.229 4.626 34.979z"/><path d="m208.508 198.73v-11c0-4.143-3.358-7.5-7.5-7.5s-7.5 3.357-7.5 7.5v11c0 4.143 3.358 7.5 7.5 7.5s7.5-3.357 7.5-7.5z"/><path d="m311.568 180.23c-4.142 0-7.5 3.357-7.5 7.5v11c0 4.143 3.358 7.5 7.5 7.5s7.5-3.357 7.5-7.5v-11c0-4.142-3.358-7.5-7.5-7.5z"/><path d="m267.606 258.085c-4.884 9.605-17.396 9.62-22.288 0-9.516-18.722-34.697-22.365-48.914-6.884-16.831 18.327-6.624 48.315 17.075 63.085 24.702 15.402 61.301 15.379 85.965.001 23.585-14.7 33.954-44.708 17.076-63.086-14.217-15.481-39.378-11.875-48.914 6.884zm23.903 43.473c-19.819 12.357-50.241 12.379-70.096-.001-18.941-11.805-22.243-31.191-13.962-40.21 7.189-7.825 19.756-5.786 24.495 3.535 10.439 20.534 38.578 20.562 49.03 0 4.733-9.31 17.298-11.369 24.495-3.535 8.227 8.959 5.033 28.372-13.962 40.211z"/><path d="m295.197 270.811c-3.79-1.665-8.217.056-9.884 3.848-3.004 6.834-13.941 13.752-29.031 13.752-15.091 0-26.027-6.918-29.032-13.752-1.667-3.791-6.092-5.514-9.884-3.848-3.792 1.667-5.515 6.093-3.848 9.885 13.28 30.209 72.242 30.216 85.526 0 1.668-3.793-.055-8.218-3.847-9.885z"/><path d="m236.008 198.73v-11c0-19.299-15.701-35-35-35s-35 15.701-35 35v11c0 19.299 15.701 35 35 35s35-15.701 35-35zm-55 0v-11c0-11.028 8.972-20 20-20s20 8.972 20 20v11c0 11.028-8.972 20-20 20s-20-8.971-20-20z"/><path d="m311.568 152.73c-19.299 0-35 15.701-35 35v11c0 19.299 15.701 35 35 35s35-15.701 35-35v-11c0-19.298-15.701-35-35-35zm20 46c0 11.028-8.972 20-20 20s-20-8.972-20-20v-11c0-11.028 8.972-20 20-20s20 8.972 20 20z"/></g></g></svg>