<svg id="Capa_1" enable-background="new 0 0 512 512" height="512" viewBox="0 0 512 512" width="512" xmlns="http://www.w3.org/2000/svg"><g><g><path d="m424.531 450.998c9.824 0 17.787-7.963 17.787-17.787v-407.923c0-9.824-7.964-17.788-17.787-17.788h-262.406c-9.824 0-17.787 7.964-17.787 17.787v407.923c0 9.824 7.964 17.787 17.787 17.787h288.753.004-26.351z" fill="#c4e2ff"/><path d="m450.878 7.5h-30.346c9.824 0 17.787 7.964 17.787 17.788v407.923c0 9.824-7.964 17.787-17.787 17.787h30.346c9.824 0 17.787-7.963 17.787-17.787v-407.923c0-9.824-7.963-17.788-17.787-17.788z" fill="#b3dafe"/><path d="m61.122 61.002c-9.824 0-17.787 7.963-17.787 17.787v407.923c0 9.824 7.964 17.787 17.787 17.787h262.452c9.824 0 17.787-7.964 17.787-17.787v-407.922c0-9.824-7.964-17.787-17.787-17.787h-262.452z" fill="#eaf6ff"/><path d="m349.875 61.002h-30.346c9.824 0 17.787 7.963 17.787 17.787v407.923c0 9.824-7.964 17.787-17.787 17.787h30.346c9.824 0 17.787-7.964 17.787-17.787v-407.922c0-9.824-7.964-17.788-17.787-17.788z" fill="#d8ecfe"/><path d="m269.114 253.935c-6.682-15.929-24.133-24.44-40.798-19.899-10.594 2.886-18.859 10.522-22.817 20.193-3.957-9.671-12.223-17.306-22.817-20.193-16.666-4.541-34.116 3.97-40.798 19.899-6.2 14.779-1.382 31.882 11.621 41.251l51.947 37.43.003.066.045-.032.045.032.003-.066 51.947-37.43c13-9.369 17.819-26.472 11.619-41.251z" fill="#fd8087"/></g><g><path d="m414.264 382.559c-9.354 13.365-14.935 20.672-17.933 24.598-3.757 4.919-5.643 7.389-4.379 11.496.748 2.433 2.587 4.297 5.045 5.116.99.33 1.882.628 13.513.628 4.522 0 10.669-.045 19.075-.151 4.142-.052 7.457-3.451 7.405-7.593-.052-4.11-3.399-7.406-7.498-7.406-.032 0-.064 0-.096.001-5.369.067-11.043.113-15.947.13 3.201-4.305 7.488-10.194 13.104-18.217 3.836-5.481 6.342-10.676 7.446-15.439.057-.245.102-.493.133-.742.877-6.86-1.021-13.343-5.343-18.252-4.258-4.837-10.429-7.611-16.93-7.611-10.787 0-20.124 7.674-22.201 18.248-.798 4.064 1.849 8.006 5.914 8.805 4.065.797 8.007-1.85 8.805-5.914.699-3.557 3.845-6.139 7.482-6.139 2.193 0 4.26.919 5.671 2.522 1.384 1.572 1.991 3.665 1.764 6.071-.722 2.775-2.455 6.17-5.03 9.849z"/><path d="m200.561 338.337c2.875 2.472 7.071 2.384 9.829.033l51.487-37.099c15.927-11.477 21.747-32.135 14.153-50.237-8.107-19.325-29.467-29.744-49.686-24.234-8.16 2.224-15.422 6.917-20.845 13.247-20.481-23.909-58.591-17.478-70.532 10.987-7.594 18.103-1.774 38.761 14.153 50.237zm-51.762-81.5c4.269-10.177 14.259-16.507 24.877-16.507 10.531 0 20.571 6.207 24.88 16.739 2.535 6.194 11.344 6.203 13.883-.001 3.2-7.82 9.705-13.577 17.847-15.796 12.984-3.54 26.704 3.153 31.911 15.564 4.877 11.626 1.139 24.895-9.09 32.265l-47.609 34.305-47.61-34.305c-10.228-7.37-13.966-20.638-9.089-32.264z"/><path d="m107.177 92.684c-.026-.068-.053-.137-.081-.205-3.024-7.351-13.435-7.329-16.44.016-.023.057-.046.114-.068.171l-22.953 60.266c-1.872 4.912 1.772 10.171 7.007 10.171 3.022 0 5.871-1.84 7.01-4.833l3.876-10.178h26.525l3.833 10.157c1.462 3.874 5.788 5.831 9.665 4.368 3.875-1.462 5.832-5.789 4.369-9.665zm-15.935 40.407 7.61-19.981 7.541 19.981z"/><path d="m295.101 473.697 3.876-10.178h26.525l3.833 10.157c1.463 3.873 5.788 5.831 9.665 4.368 3.875-1.462 5.832-5.789 4.369-9.665l-22.744-60.268c-.026-.068-.053-.137-.081-.205-1.376-3.345-4.601-5.505-8.217-5.505-.002 0-.005 0-.008 0-3.62.004-6.845 2.17-8.216 5.521-.023.057-.046.114-.068.172l-22.953 60.265c-1.475 3.87.468 8.203 4.339 9.678 3.866 1.473 8.204-.463 9.68-4.34zm17.2-45.159 7.541 19.981h-15.152z"/><path d="m468.665 78.993c4.142 0 7.5-3.357 7.5-7.5v-46.206c0-13.943-11.344-25.287-25.287-25.287h-288.753c-13.944 0-25.288 11.344-25.288 25.287v28.215h-75.715c-13.943 0-25.287 11.344-25.287 25.288v407.923c0 13.943 11.344 25.287 25.287 25.287h58.752c4.142 0 7.5-3.357 7.5-7.5s-3.358-7.5-7.5-7.5h-58.752c-5.672 0-10.287-4.615-10.287-10.287v-407.923c0-5.673 4.615-10.288 10.287-10.288h288.752c5.66 0 10.288 4.642 10.288 10.288v407.923c0 5.672-4.615 10.287-10.288 10.287h-195c-4.142 0-7.5 3.357-7.5 7.5s3.358 7.5 7.5 7.5h195c13.944 0 25.288-11.344 25.288-25.287v-28.215h75.716c13.98 0 25.288-11.173 25.287-25.287v-326.718c0-4.143-3.358-7.5-7.5-7.5s-7.5 3.357-7.5 7.5v326.718c0 5.346-4.004 9.749-9.315 10.242-.005 0-.01.001-.014.001-.319.029-.641.044-.958.044h-75.716c0-4.552 0-355.944 0-364.708v-.001c0-13.961-11.383-25.287-25.288-25.287-5.14 0-174.469 0-198.037 0v-28.215c0-5.672 4.615-10.287 10.288-10.287h288.752c5.672 0 10.287 4.615 10.287 10.287v46.206c.001 4.143 3.359 7.5 7.501 7.5z"/></g></g></svg>