<svg id="Capa_1" enable-background="new 0 0 512.008 512.008" height="512" viewBox="0 0 512.008 512.008" width="512" xmlns="http://www.w3.org/2000/svg"><g><g><path d="m364.183 366.734v6.277h-33.068v-6.69c-38.027 0-107.56 0-147.157 0v6.69h-33.068c0-.822 0-5.744 0-6.566-21.631 1.432-39.559 16.373-45.437 36.467l3.094 6.081v22.303l-5.148 4.286v36.394l5.648 8.032h294.5l5.147-8.032v-54.756c.002-25.946-19.417-47.342-44.511-50.486z" fill="#9facba"/><path d="m403.298 430.758v-24l3.384-3.708h.015c-5.583-19.306-22.276-33.808-42.514-36.315v12.98c10.146 9.3 16.513 22.654 16.513 37.505v59.971l19.655-.381 8.345-4.834v-36.107z" fill="#8d9ca8"/><path d="m103.401 471.976v32.532h47.49l2.157-3.75h29l1.91 3.75h147.157l2.683-3.75h28.25l2.135 3.75h44.513v-32.532z" fill="#eaf6ff"/><path d="m103.401 435.582h305.295c0-19.494.488-23.887-2.014-32.532h-301.267c-2.514 8.687-2.014 13.152-2.014 32.532z" fill="#eaf6ff"/><path d="m331.115 366.322v138.186h33.068v-137.774c-4.385-.549-4.119-.412-33.068-.412z" fill="#596c76"/><path d="m364.183 366.735c-4.336-.544-4.044-.413-33.068-.413v.033c12.74.325 24.311 5.333 33.068 13.36z" fill="#465a61"/><path d="m150.891 366.448v138.06h33.068v-138.186c-32.711 0-30.441-.048-33.068.126z" fill="#596c76"/><path d="m209.066 362.333c0 25.948 21.035 46.983 46.983 46.983 25.948 0 46.983-21.035 46.983-46.983v-6.647h-93.966z" fill="#ffa78f"/><path d="m209.066 355.686c28.733 12.901 63.456 13.76 93.966-.127v-106.292h-93.966z" fill="#f89580"/><path d="m197.631 249.145h-55.114c-21.189 0-38.367-17.177-38.367-38.367v-.236c0-21.189 17.177-38.367 38.367-38.367h55.114z" fill="#ffb09e"/><path d="m314.466 172.176h55.114c21.189 0 38.367 17.177 38.367 38.367v.236c0 21.189-17.177 38.367-38.367 38.367h-55.114z" fill="#f89580"/><path d="m380.696 471.976h28v32.532h-28z" fill="#d8ecfe"/><path d="m406.682 403.05h-27.999c2.513 8.678 2.013 13.158 2.013 32.532h28c0-21.078.515-22.415-2.014-32.532z" fill="#d8ecfe"/><path d="m349.268 230.666v-40.052c0-66.044-56.149-112.394-105.299-112.394-60.138 6.722-101.456 56.362-101.456 112.394v40.052c0 57.65 43.635 106.679 101.688 112.367 48.152.001 105.067-45.592 105.067-112.367z" fill="#eaf6ff"/><path d="m243.969 78.22c56.91 5.852 101.299 53.938 101.299 112.394v40.052c0 58.376-44.269 106.408-101.067 112.367 68.283 6.954 125.067-46.315 125.067-112.367v-40.052c0-66.005-56.719-119.37-125.299-112.394z" fill="#d8ecfe"/><g><path d="m196.081 258.738h-20c-4.142 0-7.5-3.357-7.5-7.5s3.358-7.5 7.5-7.5h20c4.142 0 7.5 3.357 7.5 7.5s-3.358 7.5-7.5 7.5z" fill="#fe99a0"/></g><g><path d="m335.7 258.738h-20c-4.142 0-7.5-3.357-7.5-7.5s3.358-7.5 7.5-7.5h20c4.142 0 7.5 3.357 7.5 7.5s-3.358 7.5-7.5 7.5z" fill="#fe99a0"/></g><path d="m350.687 20.589-10.42-7.845c-14.154-5.681-25.417-5.74-38.885-4.513-83.229 7.504-125.626 31.125-172.463 53.842-7.722 3.746-13.906 9.449-18.256 16.244-7.969 12.446-9.765 28.563-3.444 43.098 2.435 5.599 5.282 9.438 8.989 13.456l16.34 6.138h228.658l12.153-60.978c2.709-13.591.611-27.701-5.934-39.917-4.097-7.646-9.808-14.309-16.738-19.525z" fill="#596c76"/><path d="m340.267 12.744c21.13 17.686 32.439 46.793 24.874 76.874l-8.839 36.668c-1.428 5.925-6.729 10.1-12.823 10.1-233.945 0-218.294 1.033-227.27-1.515 8.798 9.109 21.159 14.246 34.155 13.644 232.188-.149 194.181-.129 223.504-.129l11.274-46.767c9.696-38.56-11.611-75.524-44.875-88.875z" fill="#465a61"/></g><g><path d="m200.526 194.267c-4.142 0-7.5 3.357-7.5 7.5v20.881c0 4.143 3.358 7.5 7.5 7.5s7.5-3.357 7.5-7.5v-20.881c0-4.143-3.358-7.5-7.5-7.5z"/><path d="m311.223 230.147c4.143 0 7.5-3.357 7.5-7.5v-20.881c0-4.143-3.357-7.5-7.5-7.5s-7.5 3.357-7.5 7.5v20.881c0 4.143 3.358 7.5 7.5 7.5z"/><path d="m256.048 307.758c4.143 0 7.5-3.357 7.5-7.5 0-7.866.541-10.263-2.199-13 2.711-2.708 2.199-5.024 2.199-13 0-4.143-3.357-7.5-7.5-7.5-4.142 0-7.5 3.357-7.5 7.5 0 7.865-.541 10.262 2.199 13-2.711 2.709-2.199 5.026-2.199 13 0 4.142 3.358 7.5 7.5 7.5z"/><path d="m357.798 358.821c-98.927 0-4.934 0-47.268 0v-20.588c31.865-16.138 55.631-46.023 63.456-81.805 23.231-2.225 41.46-21.846 41.46-45.65v-.235c0-20.663-14.44-42.519-41.336-45.509-.64-3.019-1.42-6.044-2.374-9.149h2.13c3.465 0 6.479-2.374 7.291-5.742 12.277-50.929 13.836-54.488 13.836-67.35 0-47.919-40.497-86.414-88.627-82.521-46.372 3.747-85.744 12.768-123.905 28.387-3.833 1.569-5.669 5.949-4.1 9.782 1.569 3.834 5.945 5.668 9.782 4.101 37.193-15.224 74.027-23.649 119.43-27.318 39.349-3.186 72.419 28.34 72.419 67.57 0 10.497-1.187 13.099-12.034 58.092-221.256 0-220.656.18-219.656.18-20.767 0-37.403-17.192-37.403-37.953 0-14.557 8.358-28.017 21.292-34.29l24.568-11.916c3.727-1.808 5.283-6.294 3.475-10.021-1.808-3.726-6.293-5.283-10.021-3.475l-24.568 11.916c-18.068 8.763-29.745 27.52-29.745 47.784 0 25.984 18.779 48.275 44.306 52.312-1.01 3.268-1.833 6.458-2.503 9.639-24.825 2.963-41.054 22.932-41.054 45.481v.235c0 23.686 18.048 43.234 41.113 45.62 7.837 36.131 31.924 66.14 63.802 82.041v20.382c-46.83 0-48.059-.039-50.053.071-25.35 1.197-46.568 18.725-53.303 42.073-3.094 10.699-2.309 7.435-2.309 103.542 0 4.143 3.358 7.5 7.5 7.5h305.25c4.143 0 7.5-3.357 7.5-7.5s-3.357-7.5-7.5-7.5h-36.968v-17.532h37.013c4.143 0 7.5-3.357 7.5-7.5 0-10.553 0-44.234 0-54.756.002-32.297-26.356-58.398-58.396-58.398zm13.885 51.729h28.995c.209 1.344.397 3.172.467 4.694.067 1.483.05.892.05 12.839h-29.513v-17.533zm23.691-15h-23.691v-19.437c10.049 3.404 18.454 10.39 23.691 19.437zm-182.496 0h-21.42v-21.729h11.335c1.689 7.857 5.108 15.27 10.085 21.729zm110.737 32.532h-132.157v-17.532h39.232c8.106 4.246 16.814 6.267 25.358 6.267 8.696 0 17.462-2.107 25.357-6.267h42.209v17.532zm-132.157 15h132.156v21.394h-132.156zm132.157-47.532h-24.396c4.996-6.483 8.408-13.914 10.085-21.729h14.312v21.729zm52.75-214.925c15.705 3.637 24.082 17.121 24.082 29.918v.235c0 14.701-10.33 27.034-24.114 30.122.004-.046.005-.092.009-.138.578-6.935.389-10.769.5-26.571.069-9.862.125-18.139-.131-25.588-.066-3.123-.173-5.66-.346-7.978zm-264.715 30.153v-.235c0-12.772 8.266-26.23 23.761-29.897-.193 2.572-.303 5.413-.365 9.018-.231 7.255-.174 15.213-.108 24.472.116 16.397-.072 19.759.505 26.691-13.623-3.206-23.793-15.462-23.793-30.049zm38.72 28.518c-.618-7.482-.357-47.916-.317-50 .415-12.166 1.718-21.944 5.79-33.399 1.418-.005 3.325-.009 5.86-.012h194.229c4.059 11.413 5.369 21.177 5.789 33.381.042 2.117.735 45.616-1.323 58.36-8.736 53.823-58.663 95.091-118.087 87.623-49.043-6.42-87.837-46.231-91.941-95.953zm145.161 105.323v17.714c0 20.097-15.279 36.631-34.318 39.131-.063.008-.126.015-.189.023-23.69 2.995-44.458-15.726-44.458-39.154v-17.637c24.601 8.402 52.544 9.046 78.965-.077zm-184.63 98.463h32.49v21.394h-32.49zm0-25.862c0-2.211.215-4.732.518-6.67h31.972v17.532h-32.49zm32.49-42.009v20.338h-26.668c5.747-9.927 15.305-17.385 26.668-20.338zm-32.49 104.264h32.49v17.532h-32.49zm47.49-105.654h18.068v123.187h-18.068c0-27.526 0-95.746 0-123.187zm33.067 105.654h132.156v17.532h-132.156zm147.157-105.654h18.068v123.187h-18.068c0-27.526 0-95.746 0-123.187zm33.068 90.654v-21.394h29.513v21.394z"/></g></g></svg>