<svg id="Capa_1" enable-background="new 0 0 512.006 512.006" height="512" viewBox="0 0 512.006 512.006" width="512" xmlns="http://www.w3.org/2000/svg"><g><g><path d="m419.328 496.336c.11-.594.175-1.204.175-1.83v-477.006c0-5.522-4.477-9.999-9.999-10h-331.001c-5.523 0-10 4.477-10 10v469.503l8.5 9.333z" fill="#fd8087"/><path d="m433.503 7.5h-28c5.523 0 10 4.477 10 10v459.503c0 5.523-4.477 10-10 10-6.355 0-264.908 0-337 0v7.503c0 5.523 4.477 10 10 10h355c5.523 0 10-4.477 10-10v-477.006c0-5.523-4.477-10-10-10z" fill="#fe646f"/><path d="m391.503 450.086h-271c-4.971 0-9-4.029-9-9v-91c0-4.971 4.029-9 9-9h271c4.971 0 9 4.029 9 9v91c0 4.971-4.03 9-9 9z" fill="#ffe177"/><path d="m195.168 61.92c-38.748 0-70.16 6.334-70.16 14.147v102.953c0 19.47 23.57 37.552 62.381 48.279 5.01 1.385 10.527 1.39 15.557 0 38.811-10.727 62.381-28.809 62.381-48.279 0-1.138 0-100.689 0-102.953.001-7.813-31.411-14.147-70.159-14.147z" fill="#ffe177"/><path d="m316.838 141.629c-38.748 0-70.16 6.334-70.16 14.147v102.953c0 19.47 23.57 37.552 62.381 48.279 5.01 1.385 10.527 1.39 15.557 0 38.811-10.727 62.381-28.809 62.381-48.279 0-1.138 0-100.689 0-102.953 0-7.813-31.411-14.147-70.159-14.147z" fill="#fff0ad"/></g><g><path d="m433.503 0h-355c-9.649 0-17.5 7.851-17.5 17.5v477.006c0 9.649 7.851 17.5 17.5 17.5h92c4.143 0 7.5-3.357 7.5-7.5s-3.357-7.5-7.5-7.5h-92c-1.379 0-2.5-1.121-2.5-2.5v-477.006c0-1.379 1.121-2.5 2.5-2.5h355c1.379 0 2.5 1.121 2.5 2.5v51.852c0 4.143 3.357 7.5 7.5 7.5s7.5-3.357 7.5-7.5v-51.852c0-9.649-7.851-17.5-17.5-17.5z"/><path d="m443.503 96.852c-4.143 0-7.5 3.357-7.5 7.5v390.154c0 1.379-1.121 2.5-2.5 2.5h-228c-4.143 0-7.5 3.357-7.5 7.5s3.357 7.5 7.5 7.5h228c9.649 0 17.5-7.851 17.5-17.5v-390.154c0-4.143-3.357-7.5-7.5-7.5z"/><path d="m261.359 209.837c0 4.143 3.357 7.5 7.5 7.5s7.5-3.357 7.5-7.5c0-3.363 3.602-6.204 7.865-6.204s7.865 2.841 7.865 6.204c0 4.143 3.357 7.5 7.5 7.5s7.5-3.357 7.5-7.5c0-11.692-10.257-21.204-22.865-21.204s-22.865 9.512-22.865 21.204z"/><path d="m334.086 217.337c4.143 0 7.5-3.357 7.5-7.5 0-3.363 3.602-6.204 7.865-6.204s7.864 2.841 7.864 6.204c0 4.143 3.357 7.5 7.5 7.5s7.5-3.357 7.5-7.5c0-11.692-10.257-21.204-22.865-21.204-12.607 0-22.864 9.512-22.864 21.204 0 4.142 3.357 7.5 7.5 7.5z"/><path d="m294.607 242.718c0-4.143-3.357-7.5-7.5-7.5s-7.5 3.357-7.5 7.5c0 19.416 16.354 34.625 37.23 34.625 18.301 0 37.229-12.969 37.229-34.671 0-4.143-3.357-7.5-7.5-7.5s-7.5 3.357-7.5 7.5c0 12.776-11.453 19.671-22.229 19.671s-22.23-6.878-22.23-19.625z"/><path d="m166.487 136.937c12.177-3.263 19.623-15.105 16.599-26.398-1.073-4.002-5.183-6.375-9.186-5.305-4.001 1.072-6.376 5.185-5.305 9.186.87 3.249-1.873 6.926-5.991 8.029-4.116 1.104-8.332-.709-9.203-3.957-1.071-4.001-5.184-6.377-9.186-5.303-4.001 1.072-6.375 5.185-5.303 9.186 3.028 11.296 15.403 17.826 27.575 14.562z"/><path d="m251.423 122.373c1.072-4.001-1.302-8.113-5.303-9.186-4.001-1.077-8.114 1.302-9.186 5.303-.871 3.249-5.091 5.06-9.203 3.958-4.242-1.136-6.847-4.834-5.991-8.028 1.072-4.001-1.302-8.113-5.303-9.186-4.001-1.077-8.113 1.302-9.186 5.303-3.084 11.505 4.561 23.175 16.597 26.399 12.172 3.263 24.548-3.266 27.575-14.563z"/><path d="m195.168 151.864c-18.301 0-37.229 12.968-37.229 34.67 0 4.143 3.357 7.5 7.5 7.5s7.5-3.357 7.5-7.5c0-12.776 11.453-19.67 22.229-19.67s22.23 6.878 22.23 19.625c0 4.143 3.357 7.5 7.5 7.5s7.5-3.357 7.5-7.5c0-19.416-16.353-34.625-37.23-34.625z"/><path d="m197.218 426.125c4.143 0 7.5-3.357 7.5-7.5v-16.329h16.887v16.329c0 4.143 3.357 7.5 7.5 7.5s7.5-3.357 7.5-7.5v-46.077c0-4.143-3.357-7.5-7.5-7.5s-7.5 3.357-7.5 7.5v14.748h-16.887v-14.748c0-4.143-3.357-7.5-7.5-7.5s-7.5 3.357-7.5 7.5v46.077c0 4.143 3.357 7.5 7.5 7.5z"/><path d="m158.917 426.125c10.555 0 19.43-6.8 21.103-16.168 1.271-7.117-1.872-16.384-14.507-21.045-5.347-1.972-10.347-4.113-12.193-4.918-.313-.324-.434-.75-.359-1.269.146-1.021 1.038-1.849 2.444-2.272 5.556-1.673 10.871 2.45 11.081 2.615 3.171 2.619 7.865 2.196 10.516-.958 2.665-3.171 2.256-7.902-.915-10.567-4.225-3.552-14.25-8.693-25.009-5.452-7.017 2.113-11.984 7.672-12.965 14.504-.926 6.452 1.873 12.66 7.306 16.202.331.216.679.405 1.039.565.27.12 6.666 2.969 13.865 5.623 2.469.911 5.241 2.593 4.931 4.335-.274 1.534-2.478 3.805-6.336 3.805-4.097 0-8.021-1.633-10.499-4.366-2.783-3.071-7.526-3.302-10.594-.521-3.069 2.782-3.303 7.524-.521 10.594 5.351 5.905 13.229 9.293 21.613 9.293z"/><path d="m320.847 419.388c.07.358.168.711.29 1.055 1.209 3.405 4.438 5.683 8.047 5.683h.058c3.633-.024 6.858-2.352 8.027-5.791.022-.065.044-.131.064-.196l6.849-22.128 6.818 22.13c.031.102.064.202.101.302 1.209 3.405 4.438 5.683 8.048 5.683h.058c3.632-.024 6.858-2.352 8.027-5.791.105-.311.191-.628.255-.95l9.013-45.288c.809-4.063-1.829-8.011-5.892-8.819-4.063-.811-8.011 1.829-8.819 5.892l-3.996 20.078-6.44-20.906c-1.219-3.958-5.411-6.18-9.376-4.96-2.636.812-4.493 2.947-5.085 5.449l-6.321 20.422-3.987-20.158c-.805-4.063-4.749-6.709-8.813-5.902-4.063.804-6.706 4.749-5.902 8.813z"/><path d="m276.312 426.125c16.839 0 30.538-13.7 30.538-30.539s-13.699-30.538-30.538-30.538-30.539 13.699-30.539 30.538 13.7 30.539 30.539 30.539zm0-46.077c8.567 0 15.538 6.971 15.538 15.538 0 8.568-6.971 15.539-15.538 15.539-8.568 0-15.539-6.971-15.539-15.539-.001-8.567 6.97-15.538 15.539-15.538z"/><path d="m120.503 457.586h271c9.098 0 16.5-7.402 16.5-16.5v-91c0-9.098-7.402-16.5-16.5-16.5h-271c-9.098 0-16.5 7.402-16.5 16.5v91c0 9.098 7.402 16.5 16.5 16.5zm-1.5-107.5c0-.827.673-1.5 1.5-1.5h271c.827 0 1.5.673 1.5 1.5v91c0 .827-.673 1.5-1.5 1.5h-271c-.827 0-1.5-.673-1.5-1.5z"/><circle cx="96.003" cy="36.003" r="10"/><circle cx="96.003" cy="476.003" r="10"/><circle cx="416.003" cy="36.003" r="10"/><circle cx="416.003" cy="476.003" r="10"/><path d="m246.261 58.711c-13.725-2.768-31.869-4.292-51.093-4.292s-37.368 1.524-51.093 4.292c-12.369 2.494-26.566 6.721-26.566 17.356v102.953c0 23.353 24.742 43.584 67.883 55.507 6.3 1.743 13.247 1.744 19.553.001 13.121-3.627 24.579-8.04 34.234-13.174v37.376c0 23.353 24.742 43.584 67.883 55.507 6.295 1.742 13.246 1.742 19.553 0 43.141-11.923 67.883-32.154 67.883-55.507v-102.954c0-10.635-14.197-14.861-26.566-17.355-26.497-5.343-67.098-5.624-95.104-1.253v-61.101c-.001-10.635-14.198-14.862-26.567-17.356zm-45.314 161.358c-3.727 1.029-7.831 1.029-11.56 0-34.553-9.55-56.879-25.663-56.879-41.05v-101.087c5.15-3.279 26.624-8.513 62.659-8.513s57.509 5.233 62.659 8.513v62.344c-2.942.813-5.794 1.778-8.349 2.958-5.555 2.552-10.299 6.431-10.299 12.544v48.2c-9.768 6.321-22.888 11.851-38.231 16.091zm178.55-62.427v101.088c0 15.387-22.326 31.5-56.878 41.049-3.73 1.03-7.835 1.03-11.562.001-34.553-9.55-56.879-25.663-56.879-41.05v-50.793-50.233c19.198-11.492 107.88-11.169 125.319-.062z"/></g></g></svg>