<svg id="Capa_1" enable-background="new 0 0 512.007 512.007" height="512" viewBox="0 0 512.007 512.007" width="512" xmlns="http://www.w3.org/2000/svg"><g><g><path d="m263.278 255.662-9.008 2.733c-5.654 3.761-8.565 10.827-6.71 17.75l55.352 206.575c1.068 3.985 3.535 7.212 6.722 9.327l17.033-7.045z" fill="#b87d72"/><path d="m209.292 258.395c-3.187 2.115-5.654 5.342-6.722 9.327l-55.352 206.575c-1.855 6.923 1.056 13.988 6.71 17.75h6.571l60.501-229.045z" fill="#b87d72"/><g fill="#ab695d"><path d="m222.498 256.218c-4.695-1.258-9.451-.314-13.205 2.177 5.654 3.761 8.565 10.827 6.71 17.75l-55.352 206.575c-1.068 3.985-3.535 7.212-6.722 9.327 1.435.955 3.038 1.707 4.795 2.177 8.68 2.326 17.601-2.825 19.927-11.505l55.352-206.575c2.325-8.679-2.826-17.601-11.505-19.926z"/><path d="m233.92 476.821 1.861-1.187c4.381-2.915 7.27-7.894 7.27-13.55v-210.064h-18.541v210.064c.001 6.531 3.858 12.147 9.41 14.737z"/><path d="m237.781 18.821c1.546-.739 3.225-1.243 4.992-1.466-.654-.08-1.316-.134-1.992-.134-8.986 0-16.27 7.284-16.27 16.27v34.465h22.541c0-12.992 0-22.949 0-34.465-.001-6.475-3.794-12.051-9.271-14.67z"/></g><path d="m240.781 17.221c-2.51 0-4.877.585-7 1.6 5.477 2.619 9.27 8.194 9.27 14.67v34.465h14c0-12.992 0-22.949 0-34.465 0-8.985-7.284-16.27-16.27-16.27z" fill="#935b50"/><path d="m239.051 252.02v210.064c0 5.657-2.89 10.635-7.27 13.55 2.578 1.716 5.671 2.72 9 2.72 8.986 0 16.27-7.284 16.27-16.27v-210.064z" fill="#935b50"/><path d="m334.343 474.297-55.352-206.575c-2.326-8.68-11.247-13.831-19.927-11.505-1.757.471-3.36 1.223-4.795 2.177 3.187 2.115 5.654 5.342 6.722 9.327l55.352 206.575c1.855 6.923-1.055 13.988-6.71 17.75 3.754 2.492 8.51 3.435 13.205 2.177 8.68-2.325 13.831-11.246 11.505-19.926z" fill="#ab695d"/><path d="m21.548 55.957c-7.758 0-14.048 6.29-14.048 14.048v296.061h430.515c7.758 0 14.048-6.29 14.048-14.048 0-9.639 0-279.935 0-296.061-3.316 0-424.585 0-430.515 0z" fill="#eaf6ff"/><path d="m89.834 130.313h257.629v41.273h-257.629c-11.397 0-20.636-9.239-20.636-20.636 0-11.398 9.239-20.637 20.636-20.637z" fill="#ffd15b"/><path d="m192.182 298.838h198.863c11.397 0 20.636 9.239 20.636 20.636 0 11.397-9.239 20.636-20.636 20.636h-198.863c-11.397 0-20.636-9.239-20.636-20.636 0-11.396 9.239-20.636 20.636-20.636z" fill="#ffd15b"/><path d="m324.82 230.716h-39.88c1.473-2.841 2.319-6.059 2.319-9.48 0-11.397-9.239-20.636-20.636-20.636h-198.864c-11.397 0-20.636 9.239-20.636 20.636 0 11.397 9.239 20.636 20.636 20.636h42.891c-1.473 2.84-2.319 6.059-2.319 9.479 0 11.397 9.239 20.636 20.636 20.636h195.853c11.397 0 20.636-9.239 20.636-20.636.001-11.396-9.239-20.635-20.636-20.635z" fill="#75cdd5"/><path d="m460.015 55.957h-11.952v292.061c0 7.758-6.29 14.048-14.048 14.048h-426.515v5.952c0 7.758 6.289 14.048 14.048 14.048h438.467c7.758 0 14.048-6.29 14.048-14.048v-298.014c-.001-7.758-6.29-14.047-14.048-14.047z" fill="#d8ecfe"/><path d="m358.137 198.606 121.284 121.265.168.18c5.558 5.947 14.938 6.105 20.694.349s5.598-15.136-.349-20.694l-121.448-121.449z" fill="#b87d72"/><path d="m499.935 299.705-121.449-121.448-9 9 114.448 114.449c5.947 5.558 6.105 14.939.349 20.695-.227.227-.469.428-.706.637 5.393 2.746 12.171 1.898 16.706-2.637 5.757-5.757 5.599-15.137-.348-20.696z" fill="#ab695d"/><path d="m373.339 155.341c-17.961-10.856-20.155-7.439-25.875-23.649-.422-1.195-2.048-1.342-2.684-.246-23.962 41.244-11.376 62.402-4.42 69.889 3.862 4.431 9.908 9.52 17.74 10.321l.002-.002c8.628 1.324 18.042-1.554 25.01-8.521 6.967-6.967 9.84-16.377 8.515-25.003l.003-.003c-.256-4.303-3.98-15.475-18.291-22.786z" fill="#fff0ad"/><path d="m391.626 178.129.003-.003c-.254-4.302-3.979-15.474-18.29-22.785-17.96-10.856-20.155-7.439-25.875-23.649-.421-1.195-2.047-1.342-2.684-.247-2.613 4.498-4.768 8.742-6.567 12.77 3.575 3.324 8.685 4.815 19.125 11.126 14.311 7.311 18.036 18.483 18.29 22.785l-.003.003c1.325 8.626-1.548 18.036-8.515 25.003-3.789 3.789-8.303 6.359-13.019 7.711 1.279.386 2.613.67 4.008.813l.002-.002c8.628 1.324 18.042-1.553 25.01-8.521 6.967-6.968 9.84-16.378 8.515-25.004z" fill="#ffe177"/></g><g><path d="m505.157 294.321-23.595-23.595v-104.038c0-4.143-3.357-7.5-7.5-7.5s-7.5 3.357-7.5 7.5v89.038l-67.621-67.621c.585-3.489.681-7.034.151-10.753-.542-6.815-5.756-20.117-22.109-28.572-17.741-10.682-17.916-6.929-22.021-18.388v-.08c0-4.143-3.357-7.5-7.5-7.5h-257.628c-15.514 0-28.136 12.622-28.136 28.136 0 15.515 12.622 28.137 28.136 28.137h233.639c1.885 23.869 20.887 43.757 44.448 39.909l98.641 98.626v50.396c0 3.61-2.938 6.548-6.548 6.548-3.64 0-341.305 0-357.854 0-4.143 0-7.5 3.357-7.5 7.5s3.357 7.5 7.5 7.5h59.999l-22.184 82.791c-3.401 12.689 4.116 25.712 16.808 29.111 12.689 3.401 25.713-4.116 29.112-16.807l25.481-95.096h5.635v72.519c0 13.106 10.663 23.77 23.771 23.77s23.771-10.663 23.771-23.77v-72.519h5.635l25.48 95.096c3.397 12.677 16.472 20.198 29.113 16.807 12.69-3.399 20.208-16.421 16.807-29.112l-22.183-82.79h140.611c11.882 0 21.548-9.666 21.548-21.548v-37.637c7.816 3.309 17.384 1.961 24.025-4.677 8.738-8.737 8.515-22.916-.432-31.381zm-333.751 186.458c-1.246 4.647-6.023 7.462-10.742 6.2-4.682-1.255-7.454-6.058-6.201-10.741l23.225-86.673h18.159zm78.146-18.695c0 4.836-3.935 8.77-8.771 8.77s-8.771-3.934-8.771-8.77v-72.519h17.541v72.519zm77.547 14.154c1.255 4.682-1.519 9.486-6.201 10.741-4.684 1.254-9.487-1.519-10.742-6.201l-24.439-91.213h18.159zm-250.401-325.289c0-7.243 5.893-13.136 13.136-13.136h243.07c-3.923 8.161-7.214 17.192-8.714 26.272h-234.356c-7.243.001-13.136-5.893-13.136-13.136zm293.802 11.369c19.199 10.226 16.091 28.562 5.49 37.134-4.729 3.824-10.856 5.689-16.75 4.787-6.374-.978-9.385-3.726-13.386-8.013-2.827-3.041-7.57-9.884-7.57-21.531 0-9.845 3.332-20.072 7.447-28.926 4.929 7.351 11.196 8.413 23.729 15.99zm124.481 152.779c-2.563 2.563-6.724 3.004-10.258-.529l-101.681-101.666c3.884-2.667 7.227-6.067 9.759-9.724.175.175 101.832 101.837 102.013 102.006 2.845 2.658 2.932 7.148.167 9.913z"/><path d="m67.16 374.565h-45.612c-3.61 0-6.548-2.938-6.548-6.548v-298.012c0-3.61 2.938-6.548 6.548-6.548h438.467c3.61 0 6.548 2.938 6.548 6.548v61.684c0 4.143 3.357 7.5 7.5 7.5s7.5-3.357 7.5-7.5v-61.684c0-11.882-9.666-21.548-21.548-21.548h-195.463v-14.965c0-13.107-10.663-23.771-23.771-23.771s-23.771 10.663-23.771 23.771v14.965h-195.462c-11.882 0-21.548 9.666-21.548 21.548v298.013c0 11.882 9.666 21.548 21.548 21.548h45.612c4.143 0 7.5-3.357 7.5-7.5s-3.357-7.501-7.5-7.501zm164.851-341.073c0-4.836 3.935-8.771 8.771-8.771s8.771 3.935 8.771 8.771v14.965h-17.541v-14.965z"/><path d="m266.622 193.1h-198.863c-15.514 0-28.136 12.622-28.136 28.137 0 15.514 12.622 28.136 28.136 28.136h33.144c-1.173 16.135 11.69 30.116 28.064 30.116h195.853c15.514 0 28.136-12.622 28.136-28.137 0-15.514-12.622-28.136-28.136-28.136h-30.133c1.173-16.135-11.69-30.116-28.065-30.116zm58.198 45.116c7.243 0 13.136 5.893 13.136 13.136s-5.893 13.137-13.136 13.137h-195.853c-9.804 0-16.188-10.426-11.659-19.164 2.583-4.984-1.039-10.952-6.658-10.952h-42.891c-7.243 0-13.136-5.893-13.136-13.136s5.893-13.137 13.136-13.137h198.863c7.243 0 13.137 5.894 13.137 13.137 0 2.109-.497 4.138-1.477 6.027-2.583 4.984 1.039 10.952 6.658 10.952z"/><path d="m164.046 319.475c0 15.515 12.622 28.137 28.137 28.137h198.863c15.514 0 28.136-12.622 28.136-28.137s-12.622-28.137-28.136-28.137h-198.863c-15.515 0-28.137 12.622-28.137 28.137zm240.136 0c0 7.243-5.893 13.137-13.136 13.137h-198.863c-7.243 0-13.137-5.894-13.137-13.137s5.894-13.137 13.137-13.137h198.863c7.243 0 13.136 5.893 13.136 13.137z"/></g></g></svg>