<svg id="Capa_1" enable-background="new 0 0 504.464 504.464" height="512" viewBox="0 0 504.464 504.464" width="512" xmlns="http://www.w3.org/2000/svg"><g><g><path d="m59.235 151.128c5.966 0 10.802-4.836 10.802-10.802v-57.635c0-5.966-4.836-10.802-10.802-10.802h-13.153c-5.966 0-10.802 4.836-10.802 10.802v57.636c0 5.966 4.836 10.802 10.802 10.802h13.153z" fill="#596c76"/><path d="m75.235 71.889h-20c5.966 0 10.802 4.836 10.802 10.802v57.636c0 5.966-4.836 10.802-10.802 10.802h20c5.966 0 10.802-4.836 10.802-10.802v-57.636c0-5.966-4.836-10.802-10.802-10.802z" fill="#465a61"/><path d="m345.947 111.584-27.127-88.933c-2.771-9.086-10.108-15.149-18.332-15.151h-132.064c-8.226 0-15.564 6.064-18.336 15.151l-27.127 88.933z" fill="#596c76"/><path d="m173.664 64.199 6.845-20.998c.547-1.679 2.113-2.816 3.879-2.816h120.131c1.766 0 3.332 1.136 3.879 2.816l6.845 20.998c.86 2.637-1.106 5.345-3.879 5.345h-133.82c-2.774 0-4.739-2.708-3.88-5.345z" fill="#d8ecfe"/><path d="m338.82 22.651c-2.772-9.087-10.11-15.151-18.336-15.151h-26c8.226 0 15.564 6.064 18.336 15.151l27.127 88.933h26z" fill="#465a61"/><path d="m442.163 102.405c-2.832-.325 21.457-.217-399.253-.217-17.614 0-31.902 14.279-31.902 31.893v234.788c0 4.365.802 7.903 2.215 11.675 6.377 4.211 13.851 6.456 21.494 6.456h395.033c12.012 0 21.75-9.738 21.75-21.75v-253.666z" fill="#7a8c98"/><path d="m423.987 168.657h-37.952c-2.253 0-4.08-1.827-4.08-4.08v-26.897c0-2.253 1.827-4.08 4.08-4.08h37.952c2.253 0 4.08 1.827 4.08 4.08v26.896c0 2.254-1.827 4.081-4.08 4.081z" fill="#d8ecfe"/><path d="m442.163 102.405c1.424 3.617 2.215 7.553 2.215 11.675v234.788c0 17.614-14.279 31.893-31.893 31.893h-395.584c-1.245 0-2.47-.079-3.678-.218 4.66 11.836 16.187 20.218 29.678 20.218h395.584c17.614 0 31.893-14.279 31.893-31.893v-234.787c0-16.37-12.335-29.851-28.215-31.676z" fill="#596c76"/><path d="m342.328 251.475c0-69.644-59.361-117.271-109.874-117.271-59.464 6.012-105.875 56.221-105.875 117.271 0 58.919 43.684 110.42 105.875 117.271 50.57-.001 109.874-47.659 109.874-117.271z" fill="#9facba"/><path d="m232.454 134.204c59.464 6.013 105.874 56.221 105.874 117.271s-46.411 111.258-105.874 117.271c69.568 7.033 129.874-47.455 129.874-117.271 0-69.607-60.094-124.326-129.874-117.271z" fill="#8d9ca8"/><path d="m238.454 333.667c40.964-4.957 72.817-39.913 72.817-82.192 0-48.609-41.419-82.192-76.817-82.192-43.643 5.86-72.817 42.012-72.817 82.192 0 42.279 31.854 77.236 72.818 82.192z" fill="#596c76"/><path d="m234.454 169.282c40.964 4.956 72.817 39.914 72.817 82.192 0 42.279-31.853 77.236-72.817 82.192 49.645 6.006 92.817-32.876 92.817-82.192 0-49.247-43.105-88.206-92.817-82.192z" fill="#465a61"/><path d="m244.454 294.399c-23.669 0-42.925-19.256-42.925-42.924s19.256-42.925 42.925-42.925 42.925 19.257 42.925 42.925-19.256 42.924-42.925 42.924z" fill="#465a61"/><path d="m268.338 246.631c-10.499 0-19.041-8.542-19.041-19.041s8.542-19.041 19.041-19.041 19.041 8.542 19.041 19.041-8.542 19.041-19.041 19.041z" fill="#8d9ca8"/><path d="m473.339 400.914c0-57.021-48.82-95.298-87.99-95.298-47.355 5.931-83.992 46.335-83.992 95.298 0 46.945 34.128 88.567 83.991 95.298 38.962 0 87.991-38.049 87.991-95.298z" fill="#fe99a0"/><path d="m385.347 305.615c47.355 5.932 83.991 46.336 83.991 95.298s-36.637 89.367-83.991 95.298c57.663 7.22 108.108-37.708 108.108-95.298.001-57.618-50.474-102.514-108.108-95.298z" fill="#fd8087"/><path d="m418.017 400.914 24.337-24.337c5.691-5.692 5.691-14.919 0-20.611s-14.92-5.692-20.611 0l-24.337 24.337-24.337-24.337c-5.692-5.691-14.919-5.691-20.611 0-5.691 5.692-5.691 14.919 0 20.611l24.337 24.337-24.337 24.337c-5.691 5.692-5.691 14.919 0 20.611 5.689 5.691 14.918 5.693 20.611 0l24.337-24.337 24.337 24.337c5.693 5.692 14.919 5.691 20.611 0 5.691-5.692 5.691-14.919 0-20.611z" fill="#fe646f"/></g><g><path d="m315.529 40.876c-1.558-4.779-5.983-7.99-11.01-7.99h-120.13c-5.027 0-9.452 3.211-11.01 7.991l-6.845 20.998c-2.435 7.471 3.147 15.169 11.01 15.169h133.821c7.858 0 13.447-7.693 11.01-15.169zm-133.273 21.168 4.615-14.158h115.167l4.616 14.158z"/><path d="m244.454 161.157c-49.801 0-90.317 40.517-90.317 90.317s40.516 90.317 90.317 90.317 90.317-40.517 90.317-90.317-40.516-90.317-90.317-90.317zm0 165.635c-41.53 0-75.317-33.787-75.317-75.317s33.787-75.317 75.317-75.317 75.317 33.787 75.317 75.317-33.787 75.317-75.317 75.317z"/><path d="m423.987 176.157c6.385 0 11.58-5.194 11.58-11.58v-26.896c0-6.386-5.195-11.58-11.58-11.58h-37.952c-6.385 0-11.58 5.194-11.58 11.58v26.896c0 6.386 5.195 11.58 11.58 11.58zm-34.532-35.056h31.112v20.057h-31.112z"/><path d="m268.338 201.05c-3.536 0-6.911.701-9.999 1.962-4.506-1.295-9.161-1.962-13.885-1.962-27.804 0-50.425 22.62-50.425 50.425s22.621 50.425 50.425 50.425 50.425-22.62 50.425-50.425c0-4.722-.666-9.377-1.962-13.885 1.261-3.088 1.962-6.463 1.962-9.999 0-14.635-11.907-26.541-26.541-26.541zm11.541 26.541c0 6.582-5.519 11.54-11.541 11.54-6.364 0-11.541-5.177-11.541-11.54 0-6.221 5.098-11.541 11.541-11.541 6.363 0 11.541 5.178 11.541 11.541zm-35.425 59.308c-19.533 0-35.425-15.892-35.425-35.425 0-19.529 15.885-35.417 35.412-35.425-8.334 17.188 4.029 38.081 23.897 38.081 3.905 0 7.917-.887 11.54-2.644-.006 19.528-15.895 35.413-35.424 35.413z"/><path d="m477.878 335.825v-201.745c0-21.721-17.672-39.393-39.393-39.393h-69.85l-22.641-74.224c-3.733-12.239-13.984-20.463-25.51-20.463h-152.06c-11.525 0-21.777 8.224-25.51 20.463l-22.641 74.225h-26.736v-11.997c0-10.092-8.21-18.303-18.302-18.303h-29.153c-10.092 0-18.302 8.211-18.302 18.303v15.022c-3.578 1.486-6.943 3.496-9.962 5.991-9.094 7.517-14.31 18.588-14.31 30.376v11.903c0 4.143 3.358 7.5 7.5 7.5s7.5-3.357 7.5-7.5v-11.903c0-13.561 11.007-24.393 24.393-24.393h395.583c13.45 0 24.393 10.942 24.393 24.393v186.671c-16.6-13.583-37.298-22.103-60.137-23.251-15.495-.795-30.915 1.893-45.067 7.795 7.788-16.317 12.154-34.567 12.154-53.82 0-69.132-56.243-125.374-125.375-125.374s-125.375 56.242-125.375 125.374 56.245 125.375 125.377 125.375c20.288 0 39.462-4.849 56.434-13.441-3.713 9.523-6.001 19.651-6.75 29.853h-251.237c-13.45 0-24.393-10.942-24.393-24.393v-187.886c0-4.143-3.358-7.5-7.5-7.5s-7.5 3.357-7.5 7.5v187.886c0 21.721 17.672 39.393 39.393 39.393h251.219c3.782 53.682 48.659 96.202 103.286 96.202 22.265 0 43.481-6.96 61.357-20.129 3.335-2.456 4.047-7.151 1.59-10.486-2.457-3.336-7.153-4.045-10.487-1.59-15.28 11.256-33.42 17.205-52.46 17.205-48.827 0-88.55-39.724-88.55-88.55 0-.046.002-.091.002-.136 0-.001 0-.003 0-.004.078-50.227 42.255-90.853 93.112-88.294 46.714 2.383 83.986 41.138 83.986 88.434 0 17.091-4.876 33.676-14.101 47.962-2.247 3.479-1.248 8.122 2.232 10.369 3.479 2.247 8.123 1.247 10.369-2.232 10.794-16.717 16.499-36.115 16.499-56.099.001-24.639-8.655-47.291-23.077-65.089zm-434.977-241.137c-.041 0-.081 0-.121 0v-11.997c0-1.821 1.481-3.303 3.302-3.303h29.153c1.821 0 3.302 1.481 3.302 3.303v11.996h-35.636zm93.055 0 21.306-69.849c1.795-5.885 6.28-9.839 11.162-9.839h152.061c4.882 0 9.367 3.954 11.162 9.84l21.306 69.848zm-1.877 156.787c0-60.86 49.514-110.374 110.375-110.374s110.375 49.514 110.375 110.374c0 60.861-49.514 110.375-110.375 110.375s-110.375-49.514-110.375-110.375z"/><path d="m347.154 451.164c8.617 8.618 22.59 8.628 31.218.001l19.034-19.034 19.034 19.034c8.606 8.605 22.611 8.606 31.217 0s8.606-22.61 0-31.219l-19.033-19.032 19.034-19.034c8.605-8.606 8.605-22.61 0-31.217-8.627-8.628-22.59-8.63-31.218-.001l-19.034 19.034-19.034-19.034c-8.607-8.604-22.611-8.605-31.218.001-8.605 8.606-8.605 22.61 0 31.218l19.033 19.033-19.034 19.033c-8.605 8.608-8.604 22.612.001 31.217zm10.607-20.61 24.337-24.336c2.927-2.928 2.929-7.677 0-10.607l-24.336-24.336c-2.758-2.759-2.758-7.247 0-10.005 2.758-2.759 7.246-2.759 10.005 0l24.337 24.337c2.929 2.928 7.678 2.928 10.606 0l24.337-24.338c2.766-2.766 7.239-2.765 10.004 0 2.758 2.759 2.758 7.247 0 10.005l-24.337 24.337c-2.927 2.928-2.929 7.677 0 10.607l24.336 24.335c2.758 2.759 2.758 7.247.001 10.005-2.759 2.758-7.248 2.758-10.005 0l-24.337-24.337c-2.929-2.928-7.678-2.928-10.606 0l-24.337 24.337c-1.336 1.337-3.113 2.072-5.003 2.072-1.89 0-3.666-.735-5.001-2.072-2.759-2.758-2.759-7.246-.001-10.004z"/></g></g></svg>