<svg id="Capa_1" enable-background="new 0 0 512 512" height="512" viewBox="0 0 512 512" width="512" xmlns="http://www.w3.org/2000/svg"><g><g><path d="m127.803 169.553h159.676v74.974h-159.676z" fill="#7a8c98"/><path d="m471.894 109.133c1.26 3.077 1.959 6.442 1.959 9.973v143.87c0 14.548-11.794 26.342-26.342 26.342h-163.014c-1.494 0-2.957-.131-4.383-.37 3.932 9.603 13.365 16.37 24.383 16.37h163.014c14.548 0 26.342-11.794 26.342-26.342v-143.87c0-13.055-9.498-23.885-21.959-25.973z" fill="#8d9ca8"/><path d="m280.114 288.947c1.426.239 2.889.37 4.383.37h163.014c14.548 0 26.342-11.794 26.342-26.342v-143.87c0-3.53-.7-6.896-1.959-9.973-3.264-.546 8.899-.37-167.397-.37-14.548 0-26.342 11.793-26.342 26.342v143.87c0 3.607.695 6.808 1.959 9.973z" fill="#9facba"/><path d="m375.475 462.307c47.125-5.903 83.583-46.111 83.583-94.836s-36.458-88.932-83.583-94.836h-4c-47.125 5.903-83.585 46.111-83.585 94.836s36.459 88.933 83.584 94.836z" fill="#fe99a0"/><path d="m383.475 271.887c-4.064 0-8.069.256-12 .748 47.125 5.903 83.584 46.111 83.584 94.836s-36.459 88.933-83.584 94.836c3.931.492 7.936.748 12 .748 52.789 0 95.584-42.794 95.584-95.584s-42.794-95.584-95.584-95.584z" fill="#fd8087"/><path d="m36.322 488.245c1.391.162 2.804.255 4.238.255h132.569c20.025 0 36.258-16.233 36.258-36.258v-424.484c0-7.395-2.219-14.27-6.02-20.003-1-.109-2.176-.255-4.238-.255-7.418 0-125.169 0-132.569 0-20.025 0-36.258 16.233-36.258 36.258v424.483c0 7.13 1.982 13.751 6.02 20.004z" fill="#9facba"/><path d="m203.368 7.755c3.801 5.734 6.02 12.608 6.02 20.003v424.483c0 20.025-16.233 36.258-36.258 36.258h-132.57c-1.435 0-2.847-.093-4.238-.255 6.492 9.795 17.608 16.256 30.238 16.256h132.569c20.025 0 36.258-16.233 36.258-36.258v-424.484c.001-18.59-13.993-33.903-32.019-36.003z" fill="#8d9ca8"/><ellipse cx="132.094" cy="207.04" fill="#b6c4cf" rx="113.947" ry="113.948" transform="matrix(.707 -.707 .707 .707 -107.71 154.045)"/><circle cx="132.094" cy="207.04" fill="#596c76" r="84.488"/><path d="m132.094 246.205c-21.596 0-39.165-17.569-39.165-39.165s17.569-39.165 39.165-39.165c21.595 0 39.164 17.569 39.164 39.165s-17.569 39.165-39.164 39.165z" fill="#465a61"/><path d="m198.149 468.944h-43.012c-2.209 0-4-1.791-4-4v-24.786c0-2.209 1.791-4 4-4h43.012c2.209 0 4 1.791 4 4v24.786c0 2.209-1.791 4-4 4z" fill="#fe646f"/><path d="m151.676 207.04c-11.558 0-20.962-9.403-20.962-20.962s9.403-20.962 20.962-20.962c11.558 0 20.961 9.403 20.961 20.962s-9.403 20.962-20.961 20.962z" fill="#9facba"/><path d="m142.964 61.746h-22.817c-3.357 0-6.079-2.722-6.079-6.079v-48.167h34.975v48.167c0 3.358-2.721 6.079-6.079 6.079z" fill="#7a8c98"/><path d="m403.986 367.471 24.219-24.219c5.664-5.664 5.664-14.847 0-20.511s-14.847-5.664-20.511 0l-24.219 24.219-24.219-24.219c-5.664-5.663-14.847-5.663-20.511 0-5.664 5.664-5.664 14.847 0 20.511l24.219 24.219-24.219 24.219c-5.664 5.664-5.664 14.847 0 20.511 5.662 5.663 14.846 5.665 20.511 0l24.219-24.219 24.219 24.219c5.666 5.665 14.847 5.663 20.511 0 5.664-5.664 5.664-14.847 0-20.511z" fill="#fe646f"/><path d="m132.094 122.552c-3.731 0-7.397.268-11 .736 41.46 5.395 73.488 40.821 73.488 83.751s-32.027 78.356-73.488 83.751c3.603.469 7.269.736 11 .736 46.661 0 84.488-37.826 84.488-84.487s-37.827-84.487-84.488-84.487z" fill="#465a61"/></g><g><path d="m132.094 115.053c-50.722 0-91.988 41.266-91.988 91.987s41.266 91.987 91.988 91.987 91.987-41.266 91.987-91.987-41.265-91.987-91.987-91.987zm0 168.974c-42.451 0-76.988-34.536-76.988-76.987s34.537-76.987 76.988-76.987 76.987 34.536 76.987 76.987-34.536 76.987-76.987 76.987z"/><path d="m198.149 428.658h-43.012c-6.341 0-11.5 5.159-11.5 11.5v24.785c0 6.341 5.159 11.5 11.5 11.5h43.012c6.341 0 11.5-5.159 11.5-11.5v-24.785c0-6.341-5.159-11.5-11.5-11.5zm-3.5 32.785h-36.012v-17.785h36.012z"/><path d="m151.677 157.616c-4.731 0-9.193 1.167-13.122 3.218-2.138-.297-4.299-.459-6.46-.459-25.731 0-46.665 20.934-46.665 46.665s20.934 46.665 46.665 46.665 46.665-20.934 46.665-46.665c0-3.213-.34-6.422-1.004-9.577 1.529-3.489 2.383-7.338 2.383-11.385-.001-15.694-12.769-28.462-28.462-28.462zm13.461 28.462c0 7.466-6.165 13.462-13.461 13.462-7.423 0-13.462-6.039-13.462-13.462 0-7.23 5.89-13.462 13.462-13.462 7.422 0 13.461 6.039 13.461 13.462zm-33.044 52.627c-17.46 0-31.665-14.205-31.665-31.665 0-15.02 10.51-27.63 24.563-30.862-6.745 18.081 6.466 38.362 26.684 38.362 3.894 0 7.891-.803 11.691-2.522-2.395 15.103-15.506 26.687-31.273 26.687z"/><path d="m433.509 317.438c-8.599-8.601-22.517-8.6-31.118-.001l-18.915 18.916-18.916-18.917c-8.581-8.575-22.539-8.575-31.118.002-8.577 8.579-8.577 22.537 0 31.117l18.916 18.915-18.916 18.916c-8.577 8.579-8.577 22.537 0 31.116 8.59 8.592 22.518 8.6 31.119.001l18.915-18.916 18.916 18.916c8.58 8.578 22.537 8.578 31.117 0 8.579-8.579 8.579-22.539 0-31.118l-18.916-18.915 18.916-18.915c8.579-8.578 8.579-22.538 0-31.117zm-10.608 20.51-24.219 24.219c-2.929 2.93-2.929 7.678 0 10.607l24.219 24.219c2.731 2.73 2.731 7.173 0 9.903s-7.174 2.729-9.903 0l-24.219-24.219c-2.93-2.928-7.678-2.928-10.607 0l-24.219 24.219c-2.732 2.734-7.167 2.738-9.904.001-2.73-2.73-2.73-7.175 0-9.904l24.219-24.219c2.929-2.93 2.929-7.678 0-10.607l-24.219-24.218c-2.73-2.73-2.73-7.175-.001-9.903 2.729-2.731 7.176-2.733 9.905-.001l24.219 24.219c2.93 2.928 7.678 2.928 10.607 0l24.219-24.219c2.735-2.737 7.167-2.738 9.903 0 2.732 2.73 2.732 7.173 0 9.903z"/><path d="m467.51 101.264h-163.013c-18.66 0-33.842 15.182-33.842 33.842v26.947h-25.756c-.639-1.596-1.308-3.177-2.012-4.739v-113.556c0-24.128-19.629-43.758-43.758-43.758-26.874 0-102.316 0-132.569 0-17.855 0-33.759 10.679-40.516 27.205-.002.004-.003.008-.005.012-4.07 9.96-3.237 15.22-3.237 40.474 0 4.143 3.358 7.5 7.5 7.5s7.5-3.357 7.5-7.5c0-25.555-.579-28.189 2.124-34.805 0-.001.001-.002.001-.003 4.442-10.863 14.896-17.883 26.633-17.883h40.008v40.668c0 7.487 6.092 13.578 13.579 13.578h22.817c7.487 0 13.579-6.091 13.579-13.578v-40.668h42.586c15.857 0 28.758 12.9 28.758 28.758v88.716c-22.388-28.697-57.174-46.881-95.793-46.881-37.59 0-71.815 17.278-94.292 44.982v-27.885c0-4.143-3.358-7.5-7.5-7.5s-7.5 3.357-7.5 7.5v51.421c-7.783 16.007-12.155 33.966-12.155 52.929s4.372 36.922 12.155 52.929v208.273c0 24.128 19.63 43.758 43.758 43.758h132.569c24.128 0 43.758-19.63 43.758-43.758v-211.476c.704-1.562 1.373-3.143 2.012-4.739h25.756v26.947c0 15.973 11.126 29.387 26.033 32.923-10.311 16.046-16.297 35.123-16.297 55.573 0 56.841 46.243 103.084 103.083 103.084h.01c21.99 0 42.979-6.833 60.693-19.759 3.346-2.441 4.079-7.134 1.638-10.479-2.442-3.349-7.135-4.077-10.479-1.638-15.131 11.041-33.06 16.876-51.852 16.876-.003 0-.007 0-.009 0-48.569 0-88.084-39.515-88.084-88.084 0-48.607 39.555-88.084 88.084-88.084 48.57 0 88.084 39.516 88.084 88.084 0 17.088-4.896 33.656-14.159 47.916-2.257 3.474-1.271 8.119 2.203 10.375 3.474 2.258 8.119 1.271 10.375-2.203 10.848-16.698 16.581-36.093 16.581-56.088 0-20.128-5.804-38.924-15.819-54.811 17.151-1.632 30.613-16.114 30.613-33.685v-143.869c0-18.66-15.181-33.841-33.843-33.841zm-325.967-47.018h-19.975v-39.246h19.975zm-9.275 259.239c-.058 0-.116.002-.174.002-40.508 0-77.081-22.964-95.097-58.657-.002-.005-.005-.009-.008-.013-7.251-14.376-11.343-30.606-11.343-47.777 0-58.448 47.498-106.447 106.447-106.447 58.533 0 106.447 47.61 106.447 106.447.001 58.8-47.943 106.348-106.272 106.445zm95.619 154.757c0 15.857-12.901 28.758-28.758 28.758h-132.569c-15.857 0-28.758-12.9-28.758-28.758v-184.737c22.432 27.649 56.642 44.919 94.091 44.98.067 0 .134.004.201.004.161 0 .322-.006.483-.007 37.408-.152 72.359-17.456 95.31-46.875zm21.905-231.215c2.367-9.287 3.75-19.513 3.75-29.987 0-10.007-1.257-20.208-3.75-29.987h20.864v59.975h-20.864zm236.561 41.948c0 10.39-8.453 18.843-18.843 18.843h-8.05c-19.41-21.168-46.902-33.431-75.985-33.431-29.004 0-56.523 12.204-75.986 33.431h-2.992c-10.39 0-18.842-8.453-18.842-18.843 0-15.669 0-128.159 0-143.869 0-10.39 8.452-18.842 18.842-18.842h163.013c10.39 0 18.843 8.452 18.843 18.842z"/></g></g></svg>