<svg id="Capa_1" enable-background="new 0 0 512 512" height="512" viewBox="0 0 512 512" width="512" xmlns="http://www.w3.org/2000/svg"><g><g><path d="m238.25 342.446v21.583h247.25c2.761 0 5-2.239 5-5 0-7.221 0-5.382 0-12.583l-6-4c-12.676 0-233.523 0-246.25 0z" fill="#7a8c98"/><path d="m499.5 342.446h-15v12.583c0 2.761-2.239 5-5 5h-241.25v12h23.25v-4.559h166.5l5 4.559h66.5c2.761 0 5-2.239 5-5v-19.583c0-2.761-2.239-5-5-5z" fill="#596c76"/><path d="m383 88.029h-345.5c-13.805 0-25.425 9.328-28.919 22.023-1.545 5.612-1.081-10.295-1.081 231.977 0 16.568 13.431 30 30 30h223.75l.25-4.559h137.75v4.559h13.75v-254c0-16.569-13.431-30-30-30z" fill="#fe646f"/><path d="m109.5 422.892c25.937-5.12 45.5-27.982 45.5-55.421s-19.563-50.302-45.5-55.421c-21.021 0-49.5 22-49.5 55.421 0 32.66 27.664 55.421 49.5 55.421z" fill="#596c76"/><path d="m105.5 312.05c25.937 5.119 45.5 27.982 45.5 55.421s-19.563 50.302-45.5 55.421c35.122 6.93 67.5-19.969 67.5-55.421 0-35.661-32.585-62.315-67.5-55.421z" fill="#465a61"/><path d="m387.75 372.029h-115v-219.256c0-6.075 4.925-11 11-11h93c6.075 0 11 4.925 11 11z" fill="#eaf6ff"/><path d="m220 264.54h-156.25c-6.075 0-11-4.925-11-11v-100.767c0-6.075 4.925-11 11-11h156.25c6.075 0 11 4.925 11 11v100.767c0 6.075-4.925 11-11 11z" fill="#d8ecfe"/><path d="m333.837 178.492 4.867 9.862c.583 1.181 1.709 1.999 3.012 2.188l10.883 1.581c3.281.477 4.591 4.509 2.217 6.823l-7.875 7.676c-.943.919-1.373 2.243-1.15 3.541l1.859 10.839c.56 3.268-2.869 5.759-5.804 4.217l-9.734-5.118c-1.165-.613-2.557-.613-3.723 0l-9.734 5.118c-2.935 1.543-6.364-.949-5.804-4.217l1.859-10.839c.223-1.298-.208-2.622-1.15-3.541l-7.875-7.676c-2.374-2.314-1.064-6.346 2.217-6.823l10.883-1.581c1.303-.189 2.429-1.008 3.012-2.188l4.867-9.862c1.466-2.973 5.706-2.973 7.173 0z" fill="#ffd15b"/><path d="m280.25 342.446v-189.673c0-1.93 1.57-3.5 3.5-3.5h93c1.93 0 3.5 1.57 3.5 3.5v189.672h15v-189.672c0-10.201-8.299-18.5-18.5-18.5h-93c-10.201 0-18.5 8.299-18.5 18.5v189.672h15z" fill="#b6c4cf"/><path d="m220 141.773h-156.25c-6.075 0-11 4.925-11 11v3h147.25c6.075 0 11 4.925 11 11v97.766h9c6.075 0 11-4.925 11-11v-100.766c0-6.075-4.925-11-11-11z" fill="#c4e2ff"/><g><path d="m220 272.04h-156.25c-10.201 0-18.5-8.299-18.5-18.5v-100.767c0-10.201 8.299-18.5 18.5-18.5h156.25c10.201 0 18.5 8.299 18.5 18.5v100.767c0 10.201-8.299 18.5-18.5 18.5zm-156.25-122.767c-1.93 0-3.5 1.57-3.5 3.5v100.767c0 1.93 1.57 3.5 3.5 3.5h156.25c1.93 0 3.5-1.57 3.5-3.5v-100.767c0-1.93-1.57-3.5-3.5-3.5z" fill="#b6c4cf"/></g><path d="m261.25 342.446c-3.314 0-6 2.687-6 6v15.583h130c3.314 0 6-2.687 6-6 0-5.587 0-9.567 0-15.583-179.211 0 24.624 0-130 0z" fill="#9facba"/><path d="m399.25 342.446c-2.496 0-7.427 0-14 0v11.583c0 3.313-2.686 6-6 6-14.469 0-90.687 0-124 0v6c0 3.313 2.686 6 6 6h138c3.314 0 6-2.687 6-6v-17.583c0-3.314-2.686-6-6-6z" fill="#8d9ca8"/><path d="m111.5 392.142c24.772-7.039 24.785-42.299 0-49.342h-2c-24.913 7.41-24.679 42.179 0 49.342z" fill="#b6c4cf"/><path d="m109.5 342.8c24.772 7.039 24.785 42.299 0 49.342 16.43 4.669 32.65-7.764 32.65-24.671 0-16.938-16.252-29.331-32.65-24.671z" fill="#9facba"/><g><path d="m403 88.029h-24c16.569 0 30 13.431 30 30v254h24v-254c0-16.569-13.431-30-30-30z" fill="#fd4755"/></g></g><g><path d="m116.5 334.32c-18.279 0-33.15 14.871-33.15 33.15s14.871 33.15 33.15 33.15 33.15-14.871 33.15-33.15-14.871-33.15-33.15-33.15zm0 51.301c-10.008 0-18.15-8.143-18.15-18.15s8.143-18.15 18.15-18.15 18.15 8.143 18.15 18.15-8.142 18.15-18.15 18.15z"/><path d="m63.75 134.273c-10.201 0-18.5 8.299-18.5 18.5v100.767c0 10.201 8.299 18.5 18.5 18.5h156.25c10.201 0 18.5-8.299 18.5-18.5v-100.767c0-10.201-8.299-18.5-18.5-18.5zm159.75 18.5v100.767c0 1.93-1.57 3.5-3.5 3.5h-156.25c-1.93 0-3.5-1.57-3.5-3.5v-100.767c0-1.93 1.57-3.5 3.5-3.5h156.25c1.93 0 3.5 1.571 3.5 3.5z"/><path d="m353.678 184.701-9.063-1.316-4.053-8.212c-4.215-8.544-16.41-8.544-20.625-.001l-4.053 8.213-9.063 1.316c-9.429 1.37-13.195 12.965-6.373 19.616l6.558 6.392-1.548 9.025c-1.612 9.392 8.253 16.555 16.686 12.123l8.105-4.261 8.105 4.261c8.433 4.435 18.297-2.735 16.686-12.122l-1.548-9.026 6.559-6.393c6.823-6.651 3.052-18.246-6.373-19.615zm-14.619 30.579c-8.919-4.687-10.297-3.848-17.617 0 1.361-7.932 1.916-9.581-5.443-16.755 9.999-1.453 10.608-2.971 14.252-10.355 4.458 9.031 6.067 9.166 14.252 10.355-7.231 7.046-6.837 8.637-5.444 16.755z"/><path d="m499.5 334.945h-59v-157.39c0-4.143-3.357-7.5-7.5-7.5s-7.5 3.357-7.5 7.5v164.475c0 .089-.006.177-.007.266 0 .016-.003.031-.003.047-.119 8.749-5.315 16.33-12.74 19.94v-13.837c0-7.444-6.056-13.5-13.5-13.5h-4v-182.173c0-10.201-8.299-18.5-18.5-18.5h-93c-10.201 0-18.5 8.299-18.5 18.5v182.172h-4c-7.444 0-13.5 6.056-13.5 13.5v16.084h-67.316c-1.543-33.802-29.576-61.059-63.934-61.059-33.754 0-62.361 26.603-63.934 61.059h-15.066c-12.406 0-22.5-10.094-22.5-22.5v-224c0-12.406 10.094-22.5 22.5-22.5h20.5c4.143 0 7.5-3.357 7.5-7.5s-3.357-7.5-7.5-7.5h-20.5c-20.678 0-37.5 16.822-37.5 37.5v224c0 20.678 16.822 37.5 37.5 37.5h16.155c5.658 29.543 31.678 51.941 62.845 51.941s57.187-22.399 62.845-51.941h320.155c6.893 0 12.5-5.607 12.5-12.5v-19.584c0-6.892-5.607-12.5-12.5-12.5zm-219.25-182.172c0-1.93 1.57-3.5 3.5-3.5h93c1.93 0 3.5 1.57 3.5 3.5v182.172h-100zm-163.75 263.698c-27.24 0-49-22.236-49-49 0-27.019 21.981-49 49-49s49 21.981 49 49c0 26.984-21.973 49-49 49zm146.25-66.526h135v14.584h-135zm234.25 14.584h-64.02c3.2-4.253 5.512-9.206 6.672-14.584h57.348z"/><path d="m93 95.529h310c12.406 0 22.5 10.094 22.5 22.5v24.525c0 4.143 3.357 7.5 7.5 7.5s7.5-3.357 7.5-7.5v-24.525c0-20.678-16.822-37.5-37.5-37.5h-310c-4.143 0-7.5 3.357-7.5 7.5s3.357 7.5 7.5 7.5z"/></g></g></svg>