<svg id="Capa_1" enable-background="new 0 0 512 512" height="512" viewBox="0 0 512 512" width="512" xmlns="http://www.w3.org/2000/svg"><g><g><path d="m165.755 45.76c-2.362 0-17.241 0-19.566 0v393.582h25.566c0-20.118 0-367.087 0-387.582 0-3.314-2.686-6-6-6z" fill="#ffd15b"/><path d="m146.189 33.76v18h13.566c3.314 0 6 2.686 6 6v377.582h20v-401.582z" fill="#ffc344"/><path d="m403.93 147.164c-10.322-11.996-27.105-16.147-41.829-10.347-16.457 6.483-35.098-1.159-42.27-17.327l-10.599-23.897c-9.353-21.087-30.255-34.681-53.323-34.681h-70.154v8h48.154c23.068 0 43.969 13.594 53.323 34.681l10.599 23.897c7.171 16.168 25.813 23.81 42.27 17.327 14.725-5.801 31.507-1.649 41.829 10.347 11.042 12.833 12.026 31.503 2.394 45.425l-162.418 234.753h16.465l167.952-242.753c9.633-13.922 8.649-32.592-2.393-45.425z" fill="#feb137"/><path d="m381.93 155.164c-10.322-11.996-27.105-16.147-41.829-10.347-16.457 6.483-35.098-1.159-42.27-17.327l-10.599-23.897c-9.353-21.087-30.255-34.681-53.323-34.681h-48.154v23.123h70.153c10.751 0 20.514 6.35 24.873 16.177l10.6 23.897c13.906 31.356 50.125 46.27 82.127 33.666 5.553-2.19 10.633 4.175 7.221 9.108-2.097 3.03-140.605 203.225-180.204 260.459h21.381l162.417-234.753c9.633-13.922 8.649-32.592-2.393-45.425z" fill="#ffc344"/><path d="m125 446.25-4.534 3.092c-.144 1-.268 1.89-.268 3.225v30.535h116.165l3.637-3.102v-33.75z" fill="#ffe177"/><path d="m241.593 435.342h-106.625c-7.211 0-13.206 6.03-14.502 14h101.127c8.157 0 14.77 7.712 14.77 17.225v16.535h20v-30.535c-.001-9.513-6.613-17.225-14.77-17.225z" fill="#ffd15b"/><path d="m261.491 490.884c0-7.521-6.096-13.617-13.616-13.617h-135.19c-7.52 0-13.616 6.096-13.616 13.617 0 7.52 6.096 13.616 13.616 13.616h135.189c7.521 0 13.617-6.096 13.617-13.616z" fill="#fff0ad"/><path d="m263.875 477.267h-20c7.52 0 13.616 6.096 13.616 13.617 0 7.52-6.096 13.616-13.616 13.616h20c7.52 0 13.616-6.096 13.616-13.616 0-7.521-6.096-13.617-13.616-13.617z" fill="#ffe177"/><path d="m182.554 25.007v-8.753c0-4.834-3.919-8.753-8.753-8.753h-31.658c-4.834 0-8.753 3.919-8.753 8.753v8.753c0 4.834 3.919 8.753 8.753 8.753h31.658c4.834 0 8.753-3.919 8.753-8.753z" fill="#ffe177"/><path d="m189.801 7.5h-20c4.834 0 8.753 3.919 8.753 8.753v8.753c0 4.834-3.919 8.753-8.753 8.753h20c4.834 0 8.753-3.919 8.753-8.753v-8.753c0-4.834-3.919-8.753-8.753-8.753z" fill="#ffd15b"/></g><path d="m386.898 179.146c1.594-2.307 2.437-4.967 2.437-7.692 0-7.512-6.08-13.623-13.554-13.623-5.571 0-11.032 4.917-25.742 4.917-17.036 0-32.874-7.656-43.476-20.325-6.719-8.569-5.929-7.948-18.927-37.252-5.199-11.722-17.11-20.636-31.729-20.636h-62.653v-16.123h62.653c20.084 0 38.324 11.862 46.468 30.222l10.599 23.897c6.491 14.635 21.029 24.091 37.038 24.091 12.904 0 15.145-4.896 25.712-4.896 16.489 0 29.706 13.382 29.706 29.706 0 6.062-1.824 11.902-5.275 16.89l-103.696 149.879c-2.356 3.406-1.506 8.078 1.9 10.436 3.417 2.362 8.083 1.498 10.436-1.9l103.696-149.879c5.194-7.508 7.939-16.3 7.939-25.425 0-24.611-19.941-44.706-44.706-44.706-13.723 0-16.149 4.896-25.712 4.896-10.082 0-19.238-5.955-23.326-15.173l-10.6-23.897c-10.546-23.776-34.168-39.14-60.179-39.14h-62.653v-12.53c7.307-1.589 12.799-8.099 12.799-15.876v-8.753c.001-8.963-7.29-16.254-16.252-16.254h-47.657c-8.963 0-16.254 7.291-16.254 16.254v8.753c0 7.777 5.492 14.287 12.8 15.876v43.459c0 4.143 3.357 7.5 7.5 7.5s7.5-3.357 7.5-7.5v-43.081h24.565v386.581h-24.565v-308.5c0-4.143-3.357-7.5-7.5-7.5s-7.5 3.357-7.5 7.5v308.5h-3.722c-12.28 0-22.271 11.092-22.271 24.726v17.2h-.012c-11.644 0-21.116 9.473-21.116 21.116s9.473 21.116 21.117 21.116h151.189c11.644 0 21.116-9.473 21.116-21.116s-9.473-21.116-21.116-21.116h-.013v-17.2c0-9.879-5.247-18.419-12.807-22.376l37.826-54.673c2.356-3.406 1.506-8.078-1.9-10.436-3.409-2.355-8.079-1.504-10.436 1.9l-42.104 60.858h-19.606c1.363-1.97 169.7-245.276 172.063-248.695zm-246.008-162.892c0-.691.563-1.254 1.254-1.254h47.657c.69 0 1.253.563 1.253 1.254v8.753c0 .691-.563 1.254-1.253 1.254-1.077 0-47.585 0-47.657 0-.691 0-1.254-.563-1.254-1.254zm129.101 474.63c0 3.372-2.744 6.116-6.116 6.116h-151.189c-3.372 0-6.116-2.744-6.116-6.116s2.744-6.116 6.116-6.116h151.189c3.372 0 6.116 2.744 6.116 6.116zm-28.398-48.042c3.94 0 7.27 4.454 7.27 9.726v17.2h-121.166v-17.2c0-5.271 3.329-9.726 7.271-9.726zm12.626-98.288-22.981 33.216v-278.235h22.981zm117.815-170.285c-4.073 5.887-12.783 18.477-24.319 35.15v-31.714c8.445.274 16.577-.927 24.319-3.436zm-39.319 1.343v55.487c-11.668 16.865-13.296 19.218-25.514 36.876v-104.453c7.574 5.644 16.24 9.777 25.514 12.09zm-58.789-64.359 10.6 23.897c2.103 4.742 4.688 9.172 7.676 13.252v141.252c-2.618 3.783-20.388 29.468-22.982 33.218v-218.146c1.963 1.799 3.585 4 4.706 6.527zm-57.689-11.718v299.915l-19.643 28.392h-3.339v-328.307z"/></g></svg>