<svg id="Capa_1" enable-background="new 0 0 512 512" height="512" viewBox="0 0 512 512" width="512" xmlns="http://www.w3.org/2000/svg"><g><g><path d="m142.587 329.669-9.279 7.504v161.746c0 3.082 2.343 5.581 5.233 5.581h27.95l2.944-2.461h26.346l2.499 2.461h41.826l2.345-3.457h27.601l1.843 3.457h41.826l2.75-3.708h26.346l2.693 3.708h8.603l5.823-5.581v-169.25z" fill="#b6c4cf"/><g><path d="m379.951 86.401c0-3.88-3.145-7.026-7.026-7.026h-264.964v36.574c2.081-.452 4.191-.702 6.332-.702 166.105 0 235.84-.095 265.659-.017v-28.829z" fill="#8d9ca8"/></g><path d="m107.961 39.229v40.146h264.965c3.88 0 7.026 3.146 7.026 7.026v32.844c25.007.066 21.944.253 24.088.719v-80.735z" fill="#7a8c98"/><path d="m382.042 101.492c-70.313 0-269.534 0-276.172 0-34.038 0-61.632 27.594-61.632 61.633 0 42.925 41.696 70.096 78.892 59.236l16.404 50.033h204.83l16.404-50.032c9.169 2.677 18.61 3.039 27.634 1.428l.468-1.428c1.633.477 3.275.876 4.922 1.207 32.153-7.708 49.882-32.633 49.882-60.443 0-34.04-27.593-61.634-61.632-61.634z" fill="#b6c4cf"/><path d="m133.308 276.953v60.219h210.768c5.543 0 10.037 4.493 10.037 10.037v157.291h14.84c2.89 0 5.233-2.499 5.233-5.581v-221.966z" fill="#9facba"/><path d="m165.627 226.342-13.777-42.018c-1.856-5.66-7.867-8.827-13.584-7.158-28.459 8.308-27.941 8.447-31.944 8.447-9.54 0-22.982-6.998-22.941-22.558.032-12.439 10.337-22.42 22.776-22.42h299.753c12.275 0 22.498 9.753 22.706 22.026.112 6.608-2.158 12.147-6.742 16.458-7.744 7.281-17.197 6.495-16.193 6.495-1.997 0-3.961-.278-5.839-.826l-26.106-7.622c-5.718-1.669-11.729 1.498-13.585 7.158l-13.777 42.018c-1.352 4.122-5.199 6.91-9.537 6.91h-161.673c-4.338-.001-8.185-2.788-9.537-6.91z" fill="#9facba"/><path d="m360.768 222.361-16.404 50.032h28.102l15.936-48.604c-9.024 1.611-18.465 1.249-27.634-1.428z" fill="#9facba"/><path d="m406.046 53.437v-36.444c0-5.242-4.249-9.492-9.491-9.493h-305.196c-5.243 0-9.493 4.25-9.493 9.493v36.444c0 5.243 4.25 9.493 9.493 9.493h305.198c5.241-.002 9.489-4.252 9.489-9.493z" fill="#eaf6ff"/><path d="m420.641 7.5h-28.102c5.243 0 9.493 4.25 9.493 9.493v36.444c0 5.243-4.25 9.493-9.493 9.493h28.102c5.243 0 9.493-4.25 9.493-9.493v-36.444c0-5.243-4.25-9.493-9.493-9.493z" fill="#d8ecfe"/><path d="m406.13 101.492c-1.527 0-11.965 0-28.102 0 34.038 0 61.632 27.594 61.632 61.633 0 31.046-21.812 53.846-47.956 59.982 36.447 8.723 76.059-18.142 76.059-59.982-.001-34.039-27.595-61.633-61.633-61.633z" fill="#9facba"/><path d="m123.915 268.91c-6.315 0-11.434 4.491-11.434 10.032v23.922c0 5.541 5.119 10.032 11.434 10.032h240.037c6.314 0 11.432-4.492 11.432-10.032v-23.922c0-5.54-5.119-10.032-11.434-10.032z" fill="#eaf6ff"/><path d="m388.038 268.91h-28.102c6.315 0 11.434 4.491 11.434 10.032v23.922c0 5.541-5.119 10.032-11.434 10.032h28.102c6.315 0 11.434-4.491 11.434-10.032v-23.922c0-5.541-5.119-10.032-11.434-10.032z" fill="#d8ecfe"/><path d="m174.356 348.415c-4.701 2.652-7.865 7.547-7.865 13.163v142.922h19.745v-142.923c0-5.616-3.165-10.51-7.865-13.163h-4.015z" fill="#8d9ca8"/><path d="m247.971 348.415c-4.701 2.652-7.865 7.547-7.865 13.163v142.922h19.745v-142.923c0-5.616-3.165-10.51-7.865-13.163h-4.015z" fill="#8d9ca8"/><path d="m321.585 348.415c-4.701 2.652-7.865 7.547-7.865 13.163v142.922h19.745v-142.923c0-5.616-3.165-10.51-7.865-13.163h-4.015z" fill="#8d9ca8"/><g fill="#7a8c98"><path d="m182.385 346.307c-2.933 0-5.671.776-8.029 2.107 4.701 2.652 7.865 7.547 7.865 13.163v142.923h16.058v-142.923c.001-8.433-7.115-15.27-15.894-15.27z"/><path d="m256 346.307c-2.933 0-5.671.776-8.029 2.107 4.701 2.652 7.865 7.547 7.865 13.163v142.923h16.058v-142.923c.001-8.433-7.116-15.27-15.894-15.27z"/><path d="m329.615 346.307c-2.933 0-5.671.776-8.029 2.107 4.701 2.652 7.865 7.547 7.865 13.163v142.923h16.058v-142.923c0-8.433-7.116-15.27-15.894-15.27z"/></g></g><g><path d="m106.157 133.135c-16.651 0-30.233 13.413-30.276 29.9-.058 22.013 21.443 33.899 38.381 28.95l26.107-7.62c1.845-.538 3.757.47 4.355 2.296l13.777 42.018c2.367 7.221 9.064 12.072 16.664 12.072h161.671c7.6 0 14.296-4.852 16.664-12.072l13.777-42.019c.599-1.826 2.515-2.831 4.356-2.296l26.108 7.623c17.417 5.081 38.746-7.556 38.374-29.453-.274-16.211-13.824-29.399-30.205-29.399zm314.959 29.654c.194 11.4-11.093 17.152-19.173 14.799l-26.107-7.622c-9.658-2.817-19.678 2.46-22.813 12.021l-13.776 42.019c-.343 1.045-1.312 1.746-2.411 1.746h-161.671c-1.1 0-2.068-.701-2.411-1.746l-13.776-42.017c-3.134-9.562-13.155-14.847-22.813-12.021l-26.108 7.62c-7.472 2.186-19.206-2.756-19.176-14.513.021-8.237 6.874-14.939 15.276-14.939h299.752c8.249-.001 15.07 6.572 15.207 14.653z"/><path d="m471.941 141.902c-1.271-3.942-5.495-6.107-9.439-4.838-3.942 1.271-6.108 5.497-4.838 9.439 1.724 5.348 2.598 10.94 2.598 16.621 0 38.416-37.246 61.39-69.29 52.037-3.886-1.138-7.968 1.019-9.228 4.862l-13.569 41.385h-224.35l-13.569-41.386c-1.261-3.845-5.345-6-9.229-4.862-32.165 9.392-69.289-14.17-69.289-52.036 0-27.735 21.433-54.133 56.223-54.133h296.078c13.69 0 25.708 3.404 36.593 12.418 3.189 2.641 7.917 2.197 10.56-.992 2.642-3.19 2.198-7.918-.993-10.561-10.962-9.078-24.52-14.527-38.66-15.642v-23.784h9.102c9.37 0 16.993-7.623 16.993-16.993v-36.444c0-9.37-7.623-16.993-16.993-16.993h-329.282c-9.37 0-16.993 7.623-16.993 16.993v36.443c0 9.37 7.623 16.993 16.993 16.993h9.102v23.794c-35.598 2.771-63.723 32.603-63.723 68.901 0 44.668 40.812 75.29 81.402 68.094l9.898 30.19h-4.124c-10.44 0-18.934 7.865-18.934 17.532v23.922c0 9.667 8.494 17.532 18.934 17.532h1.893v121.5c0 4.143 3.358 7.5 7.5 7.5s7.5-3.357 7.5-7.5v-121.5h225.877v176.606h-13.676v-135.423c0-12.555-10.495-22.77-23.395-22.77s-23.395 10.215-23.395 22.77v135.423h-26.826v-135.423c0-12.555-10.495-22.77-23.395-22.77s-23.395 10.215-23.395 22.77v135.423h-26.822v-135.423c0-12.555-10.495-22.77-23.395-22.77s-23.395 10.215-23.395 22.77v135.423h-18.183v-20.104c0-4.143-3.358-7.5-7.5-7.5s-7.5 3.357-7.5 7.5v22.023c0 7.213 5.712 13.081 12.733 13.081h230.412c7.021 0 12.733-5.868 12.733-13.081v-178.523h6.353c10.44 0 18.934-7.865 18.934-17.532v-23.922c0-9.667-8.494-17.532-18.934-17.532h-4.078l9.899-30.19c39.857 7.081 81.402-22.79 81.402-68.094.001-7.246-1.116-14.387-3.32-21.224zm-382.575-88.465v-36.444c0-1.099.894-1.993 1.993-1.993h329.282c1.099 0 1.993.895 1.993 1.993v36.443c0 1.099-.894 1.993-1.993 1.993-6.19 0-300.165 0-329.282 0-1.099.001-1.993-.894-1.993-1.992zm307.173 16.993v23.563c-4.936 0-273.029 0-281.078 0v-23.563zm-222.548 426.57v-135.423c0-4.284 3.766-7.77 8.395-7.77s8.395 3.485 8.395 7.77v135.423zm73.614 0v-135.423c0-4.284 3.766-7.77 8.395-7.77s8.395 3.485 8.395 7.77v135.423zm73.615 0v-135.423c0-4.284 3.766-7.77 8.395-7.77s8.395 3.485 8.395 7.77v135.423zm70.752-218.059v23.922c0 1.195-1.683 2.532-3.934 2.532-12.242 0-253.605 0-264.123 0-2.251 0-3.934-1.337-3.934-2.532v-23.922c0-1.195 1.682-2.532 3.934-2.532h264.123c2.252 0 3.934 1.337 3.934 2.532z"/></g></g></svg>