<svg id="Capa_1" enable-background="new 0 0 512.011 512.011" height="512" viewBox="0 0 512.011 512.011" width="512" xmlns="http://www.w3.org/2000/svg"><g><g><path d="m301.461 445.711c-.645-4.985-4.891-8.717-9.917-8.717-10.597 0-90.504 0-101.867 0l-6.629 51.226h123.914z" fill="#8d9ca8"/><path d="m328.963 488.22-6.629-51.226-8.391-64.844c-24.45 0-91.474 0-115.873 0l-8.391 64.844h95.867c5.027 0 9.272 3.731 9.917 8.717l5.501 42.509z" fill="#7a8c98"/><g fill="#b6c4cf"><path d="m40.814 405.076c.083.452.176.899.291 1.339-.115-.439-.211-.886-.291-1.339z"/><path d="m40.814 405.076c-.005-.027-.009-.055-.014-.082h-.004c.005.028.013.055.018.082z"/><path d="m449.92 123.894h-4-384.522-4c-9.313 0-16.863 7.55-16.863 16.863v261.375c0 .979.099 1.932.265 2.863h3.996c.005.028.013.055.018.082-.005-.027-.009-.055-.014-.082h384.518 4c9.313 0 16.863-7.55 16.863-16.863v-261.375c0-.978-.101-1.931-.261-2.863z"/><path d="m44.814 405.076c.083.452.176.899.291 1.339-.115-.439-.211-.886-.291-1.339z"/></g><path d="m454.613 123.894h-8.692c.16.933.261 1.885.261 2.863v261.375c0 9.313-7.55 16.863-16.863 16.863h-388.523c1.362 7.947 8.267 14 16.602 14h397.215c9.313 0 16.863-7.55 16.863-16.863v-261.375c0-9.313-7.55-16.863-16.863-16.863z" fill="#9facba"/><path d="m342.403 485.166c0-10.684-8.661-19.345-19.345-19.345h20.004c-.001 0-.002 0-.004 0h-174.105c-10.684 0-19.345 8.661-19.345 19.345 0 10.684 8.661 19.345 19.345 19.345h154.105c10.684 0 19.345-8.661 19.345-19.345z" fill="#b6c4cf"/><path d="m343.058 465.821h-24c10.684 0 19.345 8.661 19.345 19.345 0 10.684-8.661 19.345-19.345 19.345h24c10.684 0 19.345-8.661 19.345-19.345 0-10.684-8.661-19.345-19.345-19.345z" fill="#9facba"/><path d="m65.829 389.016v-235.144c0-2.587 2.097-4.684 4.684-4.684h370.984c2.587 0 4.684 2.097 4.684 4.684v235.144c0 2.587-2.097 4.684-4.684 4.684h-370.984c-2.587 0-4.684-2.097-4.684-4.684z" fill="#5f99d7"/><circle cx="256.005" cy="269.948" fill="#eaf6ff" r="79.791"/><path d="m231.758 241.63v56.637c0 6.174 6.763 9.964 12.029 6.74l46.261-28.319c5.036-3.083 5.036-10.398 0-13.481l-46.261-28.319c-5.265-3.223-12.029.567-12.029 6.742z" fill="#fd8087"/><g fill="#fe99a0"><path d="m218.483 161.02c4.652 3.749 10.957 3.476 15.442-.5 6.124-5.429 13.887-8.701 22.356-8.763 8.468-.062 16.279 3.095 22.481 8.434 4.543 3.91 10.851 4.09 15.448.273 6.561-5.447 6.776-16.343.328-21.971-10.584-9.237-23.963-14.718-38.461-14.611s-27.795 5.784-38.243 15.176c-6.366 5.72-5.991 16.612.649 21.962z"/><path d="m336.467 117.859c5.644-6.005 5.296-15.5-.823-21.021-21.778-19.647-49.619-31.363-79.848-31.14-30.229.222-57.896 12.347-79.384 32.312-6.037 5.61-6.246 15.109-.514 21.03l.243.251c5.528 5.712 14.513 5.93 20.485.684 16.328-14.343 36.951-22.985 59.399-23.15s43.194 8.172 59.731 22.273c6.048 5.158 15.029 4.808 20.473-.984z"/><path d="m382.192 84.337c5.698-5.632 5.899-14.796.412-20.634-32.965-35.079-77.844-56.55-127.09-56.188s-93.807 22.491-126.254 58.05c-5.4 5.918-5.065 15.079.715 20.626 5.925 5.686 15.35 5.46 20.986-.513 27.236-28.865 64.117-46.737 104.781-47.036s77.803 17.028 105.458 45.489c5.723 5.891 15.15 5.979 20.992.206z"/></g><path d="m441.497 149.188h-24c2.587 0 4.684 2.097 4.684 4.684v235.144c0 2.587-2.097 4.684-4.684 4.684h24c2.587 0 4.684-2.097 4.684-4.684v-235.144c0-2.587-2.097-4.684-4.684-4.684z" fill="#3c87d0"/></g><g><path d="m293.964 256.812-46.261-28.319c-10.244-6.27-23.445 1.119-23.445 13.137v56.638c0 12.058 13.251 19.377 23.445 13.137l46.261-28.318c9.825-6.017 9.806-20.274 0-26.275zm-7.832 13.48-46.26 28.318c-.095.057-.201.124-.408.008-.206-.115-.206-.241-.206-.352v-56.638c0-.11 0-.236.206-.352.083-.047.15-.063.207-.063.083 0 .144.037.2.071l46.262 28.32c.086.052.192.117.192.343s-.107.293-.193.345z"/><path d="m256.005 182.656c-48.133 0-87.292 39.159-87.292 87.292s39.159 87.291 87.292 87.291 87.291-39.158 87.291-87.291-39.158-87.292-87.291-87.292zm0 159.584c-39.862 0-72.292-32.43-72.292-72.291 0-39.862 32.43-72.292 72.292-72.292 39.861 0 72.291 32.43 72.291 72.292 0 39.861-32.429 72.291-72.291 72.291z"/><path d="m156.415 90.826c55.657-58.988 142.84-59.682 199.405-1.468 8.664 8.918 22.859 8.994 31.644.312 8.721-8.62 8.762-22.427.605-31.104-73.89-78.626-191.227-78.191-264.351 1.944-8.24 9.03-7.534 22.838 1.063 31.093 9.078 8.712 23.288 8.066 31.634-.777zm-21.615-20.205c67.124-73.56 174.328-74.153 242.339-1.782 2.673 2.843 2.617 7.36-.22 10.163l-.001.001c-2.867 2.835-7.507 2.819-10.34-.098-62.452-64.271-159.48-63.652-221.073 1.626-2.808 2.976-7.449 3.022-10.336.252-2.901-2.787-2.98-7.301-.369-10.162z"/><path d="m454.613 116.394h-108.399c3.759-8.905 1.315-18.931-5.547-25.124-48.922-44.137-120.258-44.379-169.362 1.246-6.24 5.801-8.906 15.093-5.704 23.878h-108.203c-13.434 0-24.363 10.93-24.363 24.363v60.202c0 4.143 3.358 7.5 7.5 7.5s7.5-3.357 7.5-7.5v-60.202c0-5.163 4.2-9.363 9.363-9.363h157.852c-.018.014-.034.03-.052.044-2.901 2.38-5.966 4.995-7.964 10.251h-136.72c-6.718 0-12.184 5.466-12.184 12.184v235.144c0 6.719 5.466 12.185 12.184 12.185h370.984c6.718 0 12.184-5.466 12.184-12.185v-235.145c0-6.718-5.466-12.184-12.184-12.184h-136.054c-1.999-5.604-5.353-8.382-7.686-10.295h156.854c5.163 0 9.363 4.2 9.363 9.363v261.375c0 5.162-4.2 9.362-9.363 9.362-5.857 0-391.691 0-397.215 0-5.163 0-9.363-4.2-9.363-9.362v-166.172c0-4.143-3.358-7.5-7.5-7.5s-7.5 3.357-7.5 7.5v166.173c0 13.434 10.929 24.362 24.363 24.362h126.076l-4.119 31.826h-10.402c-14.803 0-26.845 12.043-26.845 26.846s12.042 26.845 26.845 26.845h129c4.143 0 7.5-3.357 7.5-7.5s-3.357-7.5-7.5-7.5h-129c-6.531 0-11.845-5.313-11.845-11.845s5.314-11.846 11.845-11.846h174.105c6.531 0 11.845 5.313 11.845 11.846 0 6.531-5.313 11.845-11.845 11.845h-10.105c-4.143 0-7.5 3.357-7.5 7.5s3.357 7.5 7.5 7.5h10.105c14.802 0 26.845-12.042 26.845-26.845s-12.043-26.846-26.845-26.846h-10.403l-4.118-31.826h126.076c13.434 0 24.363-10.929 24.363-24.362v-261.375c.001-13.434-10.929-24.363-24.362-24.363zm-273.097-12.89c42.994-39.948 105.437-40.491 149.102-1.099 3.04 2.745 3.118 7.408.384 10.316-.001.001-.002.002-.003.003-3.13 3.336-7.51 3.113-10.379.667-37.979-32.388-91.284-32.131-128.945.947-2.962 2.603-7.401 2.572-10.144-.261l-.245-.254c-2.772-2.863-2.772-7.528.23-10.319zm108.091 40.639c.013.012.025.026.038.038 2.963 2.642 2.701 8.081-.227 10.512-.024.02-.051.033-.075.053-1.614 1.285-3.864 1.331-5.688-.24-16.041-13.806-38.847-13.659-54.706.402-1.664 1.478-3.956 1.728-5.76.272s-.254-.197-.549-.507c-2.504-2.627-2.518-7.589.206-10.039 19.826-17.821 47.424-17.369 66.761-.491zm149.074 242.057h-365.352v-229.511h133.528c4.498 14.085 20.976 19.255 32.043 9.443 10.555-9.358 24.941-8.891 34.969-.258 10.927 9.402 26.963 4.571 31.664-9.186h133.147v229.512zm-224.613-269.806c25.821-15.767 58.225-16.433 85.204 0-10.608 0-75.289 0-85.204 0zm103.463 341.927h-123.051l4.119-31.826h114.814z"/></g></g></svg>