<svg id="Capa_1" enable-background="new 0 0 504.61 504.61" height="512" viewBox="0 0 504.61 504.61" width="512" xmlns="http://www.w3.org/2000/svg"><g><g><g><path d="m232.11 275.948-3.941 3.382v6.469c0 4.353 3.529 7.881 7.881 7.881h31.524c4.353 0 7.881-3.528 7.881-7.881v-6.469l-2.463-3.382z" fill="#9facba"/></g><path d="m228.169 234.883h47.286v44.446h-47.286z" fill="#8d9ca8"/><path d="m247.38 424.581c3.999-2.365 6.69-6.708 6.69-11.691v-19.258c0-4.982-2.69-9.327-6.69-11.691h-1.97c-4.599 2.986-6.69 7.145-6.69 11.691v19.258c0 4.982 2.691 9.326 6.69 11.691z" fill="#9facba"/><path d="m252.305 380.047c-2.521 0-4.873.698-6.896 1.895 3.999 2.364 6.69 6.708 6.69 11.691v19.258c0 4.982-2.69 9.326-6.69 11.691 9.013 5.329 20.482-1.165 20.482-11.691v-19.258c0-7.503-6.083-13.586-13.586-13.586z" fill="#8d9ca8"/><path d="m111.928 48.285c-6.529 0-11.822 5.293-11.822 11.822v185.179h286.665c0-7.311 0-181.486 0-197-6.362-.001-241.799-.001-274.843-.001z" fill="#9facba"/><path d="m392.682 48.285h-9.851v185.179h-282.725v11.822h304.398v-185.18c0-6.529-5.293-11.821-11.822-11.821z" fill="#8d9ca8"/><path d="m308.424 245.285c5.403 0 9.783-4.38 9.783-9.783v-218.219c0-5.403-4.38-9.783-9.783-9.783h-131.94c-5.403 0-9.783 4.38-9.783 9.783v218.219c0 5.403 4.38 9.783 9.783 9.783h151.645z" fill="#eaf6ff"/><path d="m328.126 7.5h-23.643c5.403 0 9.783 4.38 9.783 9.783v218.219c0 5.403-4.38 9.783-9.783 9.783h23.643c5.403 0 9.783-4.38 9.783-9.783v-218.219c0-5.403-4.38-9.783-9.783-9.783z" fill="#d8ecfe"/><ellipse cx="228.103" cy="155.986" fill="#fd8087" rx="23.998" ry="16.762" transform="matrix(.966 -.259 .259 .966 -32.6 64.353)"/><path d="m100.106 223.062v32.625h276.814c6.529 0 11.822-5.293 11.822-11.822v-20.803c-12.243 0-273.077 0-288.636 0z" fill="#b6c4cf"/><path d="m382.831 223.062v20.803c0 6.529-5.293 11.822-11.822 11.822h-270.903c0 6.529 5.293 11.822 11.822 11.822h280.755c6.529 0 11.822-5.293 11.822-11.822v-32.625z" fill="#9facba"/><path d="m296.74 65.276-40.816-7.979c-2.194-.429-4.235 1.251-4.235 3.487v21.004l43.458 8.495c2.563.501 4.946-1.461 4.946-4.073v-16.861c.001-1.985-1.404-3.692-3.353-4.073z" fill="#fd8087"/></g><g><path d="m298.18 57.916-40.817-7.979c-6.826-1.342-13.173 3.901-13.173 10.848v72.392c-.07-.026-.137-.056-.207-.081-6.627-2.402-14.497-2.598-22.158-.543-16.756 4.487-27.696 18.344-24.146 31.586 3.62 13.516 20.328 19.671 36.703 15.283 12.596-3.375 23.912-12.94 24.753-25.217.033-.287.055-.577.055-.873v-62.436l34.52 6.748c7.191 1.406 13.885-4.102 13.885-11.433v-16.862c-.001-5.559-3.96-10.367-9.415-11.433zm-67.681 107.017c-9.022 2.419-17.18-.379-18.332-4.677-1.149-4.291 4.499-10.794 13.539-13.216 9.044-2.422 17.183.39 18.332 4.676v.001c1.149 4.289-4.498 10.793-13.539 13.216zm62.095-82.791-33.404-6.529v-10.036l33.404 6.53z"/><path d="m392.682 40.785h-47.272v-23.502c0-9.53-7.753-17.283-17.284-17.283h-151.642c-9.53 0-17.283 7.753-17.283 17.283v23.502h-47.272c-10.654 0-19.322 8.668-19.322 19.321v30.423c0 4.143 3.357 7.5 7.5 7.5s7.5-3.357 7.5-7.5v-30.423c0-2.383 1.938-4.321 4.322-4.321h47.272v159.777h-51.595v-90.033c0-4.143-3.357-7.5-7.5-7.5s-7.5 3.357-7.5 7.5v130.157c0 10.653 8.668 19.321 19.322 19.321h108.741v10.791c0 8.481 6.899 15.381 15.381 15.381h8.755v72.77c-7.93 3.032-13.586 10.7-13.586 19.683v19.258c0 7.443 3.887 13.982 9.727 17.736l-38.902 62.521c-2.188 3.517-1.111 8.142 2.406 10.33 3.515 2.186 8.143 1.112 10.33-2.406l30.024-48.254v37.15c0 4.143 3.357 7.5 7.5 7.5s7.5-3.357 7.5-7.5v-37.15l30.024 48.254c2.188 3.517 6.813 4.594 10.33 2.406 3.518-2.188 4.595-6.813 2.406-10.33l-38.902-62.521c5.84-3.753 9.727-10.293 9.727-17.736v-19.258c0-8.983-5.656-16.65-13.586-19.683v-72.77h7.77c8.481 0 15.381-6.899 15.381-15.381v-10.791h25.727c4.143 0 7.5-3.357 7.5-7.5s-3.357-7.5-7.5-7.5c-7.654 0-189.512 0-196.754 0-2.384 0-4.322-1.938-4.322-4.321v-25.124h289.398v25.124c0 2.383-1.938 4.321-4.322 4.321h-49c-4.143 0-7.5 3.357-7.5 7.5s3.357 7.5 7.5 7.5h49c10.654 0 19.322-8.668 19.322-19.321 0-9.182 0-186.989 0-195.58.001-10.653-8.667-19.321-19.321-19.321zm-134.291 352.848v19.258c0 3.355-2.73 6.085-6.086 6.085s-6.086-2.729-6.086-6.085v-19.258c0-3.355 2.73-6.086 6.086-6.086s6.086 2.73 6.086 6.086zm9.565-118.625v10.791c0 .21-.171.381-.381.381h-31.525c-.21 0-.381-.171-.381-.381v-10.791zm-93.755-257.725c0-1.259 1.024-2.283 2.283-2.283h151.643c1.259 0 2.283 1.024 2.283 2.283v198.279h-156.209c0-6.394 0-183.889 0-198.279zm171.209 198.28v-159.778h47.272c2.384 0 4.322 1.938 4.322 4.321v155.456h-51.594z"/></g></g></svg>