<svg id="Capa_1" enable-background="new 0 0 512.005 512.005" height="512" viewBox="0 0 512.005 512.005" width="512" xmlns="http://www.w3.org/2000/svg"><g><g><path d="m255.514 423.282-64.051 23.556c-3.867 1.422-7.988 1.356-11.488.232l-8.744 20.888c-1.719 4.108 1.298 8.641 5.751 8.641h78.532z" fill="#d8ecfe"/><path d="m321.47 467.959-10.466-25.004-53.489-19.672h-2v53.318h60.205c4.452-.001 7.469-4.534 5.75-8.642z" fill="#d8ecfe"/><path d="m255.514 409.053h-59.626l-15.913 38.017c3.5 1.124 7.621 1.19 11.488-.232l64.051-23.556z" fill="#c4e2ff"/><path d="m339.797 467.959-24.657-58.906h-20.327-39.298v14.229l53.489 19.672 10.466 25.004c1.719 4.108-1.298 8.641-5.751 8.641h20.327c4.453.001 7.47-4.532 5.751-8.64z" fill="#c4e2ff"/><path d="m311.695 497.082-17.093-88.029c-5.219 0-10.678 0-16.262 0l17.093 88.029c.747 3.848-2.2 7.422-6.12 7.422h16.262c3.92.001 6.867-3.574 6.12-7.422z" fill="#d8ecfe"/><g><path d="m255.514 331.979c-4.21 0-7.623-3.412-7.623-7.623v-263.459c0-4.21 3.412-7.623 7.623-7.623 4.21 0 7.623 3.412 7.623 7.623v263.46c0 4.21-3.413 7.622-7.623 7.622z" fill="#ab695d"/></g><path d="m227.267 174.421v194.791h63.39l41.966-194.79z" fill="#d8ecfe"/><path d="m332.623 174.421-41.966 194.791h24.392l41.967-194.791z" fill="#c4e2ff"/><path d="m274.593 246.516-47.326-28.275v-43.82h-73.345l41.966 194.79h87.782v-106.698c0-6.558-3.447-12.633-9.077-15.997z" fill="#eaf6ff"/><path d="m210.446 439.857 41.31-15.193c5.068-1.864 4.482-1.116 48.828 15.193l-5.982-30.804h-78.175z" fill="#d8ecfe"/><path d="m351.635 80.595c-10.595 4.086-16.953 10.169-20.768 16.159-3.815-5.99-10.173-12.073-20.768-16.159-2.675-1.031-5.561.919-5.561 3.786v80.083h52.658v-80.083c0-2.867-2.886-4.818-5.561-3.786z" fill="#fd8087"/><path d="m321.468 140.278v-7.731c0-18.801-17.492-34.041-39.069-34.041v41.772c0 30.649 36.328 50.275 67.476 38.145-16.737-6.517-28.407-21.139-28.407-38.145z" fill="#fe646f"/><path d="m378.253 98.506c-6.612 0-12.836 1.437-18.294 3.962v37.81c0 20.334-16.678 37.266-38.763 40.998 29.846 5.037 57.058-14.966 57.058-40.998v-41.772z" fill="#fd4755"/><path d="m203.113 80.595c-10.595 4.086-16.953 10.169-20.768 16.159-3.815-5.99-10.173-12.073-20.768-16.159-2.675-1.031-5.561.919-5.561 3.786v80.083h20.652 32.007v-80.083c-.001-2.867-2.887-4.818-5.562-3.786z" fill="#fd8087"/><path d="m172.946 140.278v-7.731c0-18.801-17.492-34.041-39.069-34.041v41.772c0 30.649 36.328 50.275 67.476 38.145-16.737-6.517-28.407-21.139-28.407-38.145z" fill="#fe646f"/><path d="m211.436 102.468v37.81c0 20.334-16.678 37.266-38.763 40.998 29.811 5.031 57.057-14.941 57.057-40.998v-41.772c-6.611 0-12.835 1.437-18.294 3.962z" fill="#fd4755"/><path d="m276.838 10.817c-10.595 4.086-16.953 10.169-20.768 16.159-3.815-5.99-10.173-12.073-20.768-16.159-2.675-1.031-5.561.919-5.561 3.786v80.083h52.658v-80.083c0-2.867-2.886-4.817-5.561-3.786z" fill="#fd8087"/><path d="m246.671 70.501v-7.731c0-18.801-17.492-34.041-39.069-34.041v41.772c0 30.649 36.328 50.275 67.476 38.145-16.737-6.517-28.407-21.139-28.407-38.145z" fill="#fe646f"/><path d="m303.456 28.728c-6.612 0-12.836 1.437-18.294 3.962v37.81c0 20.334-16.678 37.266-38.763 40.998 29.811 5.031 57.057-14.941 57.057-40.998z" fill="#fd4755"/><path d="m276.838 133.46c-10.595 4.086-16.953 10.169-20.768 16.159-3.815-5.99-10.173-12.073-20.768-16.159-2.675-1.031-5.561.919-5.561 3.786v80.083h52.658v-80.083c0-2.867-2.886-4.817-5.561-3.786z" fill="#fd8087"/><path d="m246.671 193.144v-7.731c0-18.797-17.488-34.041-39.069-34.041v41.772c0 30.649 36.328 50.275 67.476 38.145-16.737-6.517-28.407-21.139-28.407-38.145z" fill="#fe646f"/><path d="m303.456 151.372c-6.612 0-12.836 1.437-18.294 3.962v37.81c0 20.334-16.678 37.266-38.763 40.998 29.811 5.031 57.057-14.941 57.057-40.998z" fill="#fd4755"/><g><path d="m321.195 181.277c22.085-3.732 38.763-20.665 38.763-40.999v-37.81c-12.356 5.717-20.775 17.039-20.775 30.079v7.73c0 17.006-11.67 31.628-28.407 38.146 6.997 2.725 17.014 3.966 10.419 2.854z" fill="#fe646f"/></g><g><path d="m246.398 111.499c22.085-3.732 38.763-20.665 38.763-40.998v-37.81c-12.356 5.717-20.775 17.039-20.775 30.079v7.73c0 17.006-11.67 31.628-28.407 38.146 6.997 2.724 17.014 3.966 10.419 2.853z" fill="#fe646f"/></g><g><path d="m246.398 234.142c22.085-3.732 38.763-20.665 38.763-40.998v-37.811c-12.356 5.718-20.775 17.04-20.775 30.08v7.73c0 17.006-11.67 31.628-28.407 38.146 6.981 2.718 16.999 3.964 10.419 2.853z" fill="#fe646f"/></g><g><path d="m172.673 181.277c22.085-3.732 38.763-20.665 38.763-40.999v-37.81c-12.356 5.717-20.775 17.039-20.775 30.079v7.73c0 17.006-11.67 31.628-28.407 38.146 6.997 2.725 17.015 3.966 10.419 2.854z" fill="#fe646f"/></g><path d="m171.351 422.955c0 7.895 10.799 13.079 20.112 9.654l64.051-23.556c71.359 26.245 65.102 24.357 69.934 24.625v-64.775c0-7.895-10.799-13.079-20.112-9.654l-57.445 21.126-76.419-27.128z" fill="#ffd15b"/><path d="m319.566 345.019-64.051 23.556-64.051-23.556c-8.74-3.214-18.788 1.153-19.992 8.228l76.419 27.129 57.445-21.127c9.313-3.425 20.112 1.759 20.112 9.654l-.001 64.775c7.449.082 14.229-4.466 14.229-10.721v-68.283c.002-7.896-10.797-13.079-20.11-9.655z" fill="#ffc344"/><g><path d="m255.514 416.676c-4.21 0-7.623-3.412-7.623-7.623v-40.478c0-4.21 3.412-7.623 7.623-7.623 4.21 0 7.623 3.412 7.623 7.623v40.478c0 4.21-3.413 7.623-7.623 7.623z" fill="#ffe177"/></g><path d="m199.334 497.082c-.747 3.848 2.2 7.422 6.12 7.422h83.86c3.92 0 6.867-3.575 6.12-7.422l-12.362-63.666c-25.465-9.366-26.429-10.549-31.315-8.752l-41.31 15.193z" fill="#eaf6ff"/><path d="m173.27 39.72c-1.313-1.797-2.93-3.35-4.778-4.589l-12.861-8.624c-3.892-2.61-8.472-4.003-13.158-4.003-3.704 0-6.926 2.535-7.799 6.135 2.071 5.338 5.166 10.521 10.583 15.938 11.101 11.101 24.917 15.282 30.859 9.34l1.243-1.604-.627-4.174c-.457-3.044-1.645-5.933-3.462-8.419z" fill="#75cdd5"/><path d="m135.917 13.718c-3.221 3.221-3.462 8.759-1.243 14.921.351-.581.76-1.121 1.243-1.604 5.942-5.942 19.758-1.76 30.859 9.34 5.083 5.083 8.709 10.734 10.583 15.938 3.967-6.571-.385-19.056-10.583-29.255-11.1-11.1-24.916-15.282-30.859-9.34z" fill="#2abcc8"/><path d="m361.229 12.475c-5.338 2.071-10.521 5.165-15.938 10.583-11.101 11.101-15.282 24.917-9.34 30.859l1.604 1.243c9.202 0 23.031-9.302 27.607-23.67 1.842-5.783 3.503-9.2 1.775-14.283-.859-2.526-3.065-4.356-5.708-4.732z" fill="#75cdd5"/><path d="m376.15 13.718c-3.221-3.221-8.759-3.462-14.921-1.243.581.351 1.121.76 1.604 1.243 5.942 5.942 1.76 19.758-9.34 30.859-5.083 5.083-10.734 8.709-15.938 10.583 6.571 3.967 19.056-.385 29.255-10.583 11.101-11.1 15.283-24.916 9.34-30.859z" fill="#2abcc8"/></g><g><path d="m378.253 91.006c-4.624 0-9.188.609-13.557 1.794v-14.045c0-4.968-4.752-8.562-9.526-7.221-9.973 2.798-18.109 7.282-24.303 13.38-5.294-5.211-12.019-9.234-20.084-12.043.112-1.271.172-2.553.172-3.843v-41.772c0-4.143-3.357-7.5-7.5-7.5-4.624 0-9.188.609-13.557 1.793v-14.044c0-4.966-4.751-8.563-9.526-7.221-9.973 2.798-18.108 7.282-24.303 13.38-6.192-6.097-14.33-10.582-24.303-13.38-4.781-1.345-9.526 2.26-9.526 7.221v14.344c-4.685-1.382-9.615-2.093-14.639-2.093-4.143 0-7.5 3.357-7.5 7.5v41.772c0 1.55.091 3.087.251 4.61-7.146 2.759-13.176 6.52-18.008 11.276-6.194-6.097-14.331-10.582-24.303-13.38-4.79-1.347-9.526 2.27-9.526 7.221v14.344c-4.685-1.381-9.615-2.093-14.639-2.093-4.143 0-7.5 3.357-7.5 7.5v41.772c0 15.195 7.856 29.274 20.808 38.484l8.684 40.306c.873 4.05 4.868 6.623 8.912 5.752 4.049-.873 6.624-4.862 5.752-8.912l-6.22-28.872c4.894 1.471 10.812 2.446 16.961 2.505 4.531.154 11.976-.658 18.829-2.749 0 6.593-.083 8.4.334 11.764 1.695 13.672 9.749 26.021 22.016 34.131 8.422 5.569 18.931 9.185 30.568 9.678l17.727 10.591c3.346 1.999 5.424 5.661 5.424 9.559v90.474l-20.655 7.596-58.443-21.493-19.168-88.968c-.872-4.05-4.861-6.617-8.912-5.753-4.049.873-6.624 4.862-5.752 8.911l17.989 83.499c-3.471.571-6.786 1.862-9.633 3.848-4.673 3.261-7.745 8.284-7.745 14.045v68.282c0 7.181 4.686 13.063 11.356 16.085l-10.893 26.022c-3.788 9.048 2.869 19.038 12.669 19.038h17.232l-2.243 11.551c-1.648 8.484 4.851 16.353 13.481 16.353h100.122c8.638 0 15.127-7.88 13.481-16.352l-2.243-11.553h17.232c4.606 0 8.881-2.289 11.434-6.124 2.552-3.836 3.015-8.663 1.235-12.913l-10.896-26.031c7.523-3.399 11.358-9.707 11.358-16.076l.001-68.282c0-9.323-7.838-16.356-17.467-17.906l33.843-157.083c4.008-2.671 7.627-5.804 10.699-9.346 2.714-3.129 2.377-7.865-.752-10.58-3.128-2.712-7.864-2.377-10.58.752-11.779 13.579-33.836 18.272-51.966 9.817v-18.955c0-4.143-3.357-7.5-7.5-7.5-4.29 0-8.649.527-12.983 1.648-.032.008-.065.014-.097.022-.606-3.309-.477-4.729-.477-13.921v-23.938c.257-.181.796-.571.966-.696 3.52.82 6.81 2.142 9.813 3.945.002.001.005.003.008.005 5.134 3.079 11.591-.822 11.354-6.725v-14.533c5.405 2.822 9.592 6.539 12.502 11.111 2.942 4.622 9.708 4.628 12.655-.001 2.908-4.572 7.095-8.288 12.501-11.111v14.201c0 5.718 6.165 9.338 11.159 6.547 3.052-1.706 6.395-2.938 9.897-3.66v26.049c0 4.143 3.357 7.5 7.5 7.5s7.5-3.357 7.5-7.5v-34.31c0-4.143-3.357-7.5-7.5-7.5zm-163.151-55.494c3.846.792 7.49 2.195 10.778 4.169 4.987 2.997 11.36-.604 11.36-6.43v-14.822c5.406 2.822 9.593 6.539 12.501 11.11 2.952 4.64 9.721 4.614 12.655.001 2.909-4.571 7.097-8.288 12.502-11.11v14.2c0 5.717 6.165 9.339 11.158 6.547 3.052-1.705 6.396-2.937 9.898-3.66v33.512c0 15.656-13.515 33.293-40.712 34.285-22.294-.141-40.142-15.734-40.142-34.285v-33.517zm47.912 96.668v-14.329c4.016-.491 7.996-1.369 11.885-2.654v11.004c-4.379 1.623-8.346 3.617-11.885 5.979zm-25.783-5.983v-10.67c3.54 1.098 7.146 1.873 10.783 2.32v13.595c-3.251-2.049-6.858-3.79-10.783-5.245zm-55.872 48.342c-20.307-.172-39.981-14.32-39.981-34.261v-33.516c3.805.784 7.414 2.167 10.675 4.108 5.076 3.162 11.602-.62 11.464-6.54v-14.65c5.405 2.822 9.592 6.539 12.502 11.111 2.947 4.63 9.713 4.62 12.654 0 2.91-4.572 7.097-8.289 12.502-11.111v14.2c0 5.719 6.165 9.338 11.159 6.547 2.52-1.409 5.247-2.492 8.141-3.235.576.418 1.16.828 1.757 1.227v31.859c0 1.868-.177 3.717-.529 5.538-4.683-1.325-9.437-1.945-14.1-1.945-4.143 0-7.5 3.357-7.5 7.5v19.419c-5.19 2.252-10.963 3.808-18.744 3.749zm33.743 18.605c0-12.398 0-21.844 0-33.5 3.819.797 7.607 2.25 10.777 4.153 4.992 2.997 11.361-.605 11.361-6.43v-14.822c4.566 2.384 8.252 5.413 11.042 9.05 1.764 6.504 10.719 7.394 14.114 2.062 2.909-4.571 7.097-8.288 12.502-11.111v14.2c0 5.717 6.165 9.339 11.158 6.547 2.981-1.666 6.666-2.982 9.898-3.658v15.219 18.291c0 16.622-14.883 33.785-40.468 34.27-25.634-.732-40.384-17.674-40.384-34.271zm117.076 161.529c0 .238.023 68.338-.045 68.566-.544 1.799-5.344 4.036-9.979 2.331-6.598-2.426-52.594-19.342-59.14-21.75v-30.012l59.131-21.747c.006-.002.011-.004.017-.006 5.177-1.899 10.016.998 10.016 2.618zm-153.327 68.282v-68.282c0-1.691 5.025-4.505 10.023-2.614l59.14 21.75v30.012l-59.14 21.75c-5.018 1.849-10.023-.905-10.023-2.616zm18.276 46.145h-18.243l11.934-28.508c2.383-.527 3.633-1.091 12.705-4.427-2.43 12.514-1.578 8.123-6.396 32.935zm9.863 27.905 12.988-66.891 35.536-13.069c1.658.61 33.628 12.367 35.537 13.07 1.353 6.966 11.584 59.658 12.988 66.89zm106.911-27.905-6.395-32.934c7.188 2.644 10.178 3.874 12.706 4.427l11.933 28.507zm32.647-281.703-32.689 151.729c-9.189 3.38-5.479 2.015-22.688 8.344v-84.958c0-9.147-4.878-17.744-12.73-22.436l-2.109-1.26c19.653-7.021 33.766-23.977 34.587-43.857.049-1.193.038-1.203.038-8.512 9.034 3.331 23.275 4.226 35.591.95z"/><path d="m372.114 49.881c14.481-14.482 18.497-32.309 9.341-41.466-11.129-11.124-30.293-1.835-41.466 9.34-13.772 13.77-18.904 31.902-9.342 41.467 9.267 9.226 27.192 4.933 41.467-9.341zm-21.519-21.52c8.696-8.696 18.406-11.196 20.252-9.339 1.402 1.401.368 10.543-9.341 20.252-7.781 7.781-17.381 11.488-20.388 9.16-1.424-2.419.796-11.392 9.477-20.073z"/><path d="m140.013 49.881c18.041 18.041 35.994 16.451 42.09 8.631 9.621-12.41 1.143-29.65-9.964-40.757-13.933-13.935-32.01-18.797-41.467-9.342v.001c-11.123 11.127-1.84 30.283 9.341 41.467zm1.267-30.862c1.519-1.51 10.726-.186 20.252 9.342 8.555 8.554 10.724 17.195 9.589 19.834l-.447.576c-2.115 1.377-11.166-.611-20.054-9.497-4.174-4.175-6.91-8.27-8.86-13.262-1.481-4.161-.966-6.506-.48-6.993z"/></g></g></svg>