<svg id="Capa_1" enable-background="new 0 0 511.984 511.984" height="512" viewBox="0 0 511.984 511.984" width="512" xmlns="http://www.w3.org/2000/svg"><g><g><g fill="#9facba"><path d="m324.068 99.462v307.201l45.875-24.824c46.655-25.246 75.357-71.661 75.357-121.864v-141.516c0-10.492-8.505-18.997-18.997-18.997z"/><path d="m464.753 114.001c.073.304.147.608.206.918-.058-.31-.133-.614-.206-.918z"/><path d="m463.037 109.465c.493.915.899 1.881 1.238 2.878-.339-.998-.745-1.963-1.238-2.878z"/></g><path d="m96.984 501.919c6.425-3.535 10.782-10.365 10.782-18.216v-135.04c-3.99 0-23.62 0-27.563 0v135.039c0 7.851 4.357 14.682 10.782 18.216h5.999z" fill="#b87d72"/><path d="m101.766 406.663v.113h-21.564v33.241h15.275c3.473 0 6.289 2.816 6.289 6.289v37.396c0 7.851-4.356 14.682-10.782 18.216 3.314 1.823 7.175 2.774 11.278 2.527 11.045-.664 19.504-10.148 19.504-21.213v-76.569z" fill="#ab695d"/><path d="m100.984 35.443v369.367h16.837l10.566-334.15c.104-3.291-.877-6.524-2.793-9.201l-18.611-26.016z" fill="#d8ecfe"/><path d="m139.595 61.459-38.611-53.975v27.958l18.611 26.016c1.915 2.677 2.897 5.911 2.793 9.201l-10.566 334.15h20l10.566-334.15c.103-3.29-.878-6.523-2.793-9.2z" fill="#c4e2ff"/><path d="m100.984 35.443v-27.959l-10 13.979z" fill="#d8ecfe"/><path d="m62.374 61.459c-1.916 2.677-2.897 5.911-2.793 9.201l10.566 334.15h30.837v-369.367l-10-13.979z" fill="#eaf6ff"/><path d="m352.069 127.462h85.232v132.514c0 39.725-23.252 76.984-60.683 97.238l-24.55 13.284v-243.036z" fill="#8d9ca8"/><path d="m324.068 99.462h-122.235c-10.492 0-18.997 8.505-18.997 18.997v141.516c0 50.203 28.702 96.618 75.357 121.864l48.58 26.287c5.396 2.92 11.345 4.379 17.296 4.379v-313.043z" fill="#b6c4cf"/><path d="m271.518 357.214c-37.431-20.254-60.683-57.514-60.683-97.238v-132.514h85.233v243.036z" fill="#9facba"/><path d="m446.304 99.462h-20c10.492 0 18.997 8.505 18.997 18.997v141.516c0 50.203-28.702 96.619-75.357 121.864l-45.875 24.824v5.843c5.95 0 11.9-1.459 17.296-4.379l48.58-26.287c46.655-25.246 75.357-71.661 75.357-121.864v-141.517c-.001-10.491-8.506-18.997-18.998-18.997z" fill="#8d9ca8"/><g><path d="m321.364 408.127c-2.342 1.267-4.791 2.242-7.296 2.959 3.268.936 6.632 1.42 10 1.42v-5.843z" fill="#9facba"/></g><path d="m140.626 415.397c0-9.178-7.44-16.619-16.618-16.621h-60.704c-9.179 0-16.62 7.441-16.62 16.621 0 9.179 7.441 16.621 16.62 16.621h60.705c9.177-.002 16.617-7.443 16.617-16.621z" fill="#fff0ad"/><path d="m140.005 398.777h-20c9.179 0 16.62 7.441 16.62 16.621 0 9.179-7.441 16.621-16.62 16.621h20c9.179 0 16.62-7.441 16.62-16.621.001-9.18-7.441-16.621-16.62-16.621z" fill="#ffe177"/></g><g><path d="m140.005 391.277h-.252l10.13-320.382c.154-4.905-1.333-9.807-4.189-13.8l-38.61-53.975c-3.064-4.238-9.252-4.076-12.179-.025-.007.009-.015.016-.021.025l-38.61 53.974c-3.005 4.2-4.351 9.076-4.189 13.803l.713 22.544c.131 4.141 3.572 7.431 7.733 7.259 4.14-.131 7.39-3.593 7.259-7.733l-.713-22.56-.003-.224c0-1.572.484-3.08 1.401-4.361l25.01-34.963v360.418h-16.262l-8.327-263.328c-.13-4.141-3.599-7.416-7.733-7.259-4.14.131-7.39 3.593-7.259 7.733l8.312 262.881c-12.797.571-23.033 11.157-23.033 24.093 0 13.3 10.82 24.12 24.12 24.12h9.398v44.186c0 15.595 12.688 28.281 28.282 28.281s28.281-12.687 28.281-28.281v-44.186h10.74c13.3 0 24.12-10.82 24.12-24.12s-10.819-24.12-24.119-24.12zm-31.521-360.418 25.01 34.963c.953 1.331 1.449 2.966 1.397 4.601l-10.146 320.854h-16.262v-360.418zm5.782 452.844c0 7.323-5.958 13.281-13.281 13.281-7.324 0-13.282-5.958-13.282-13.281v-44.186h26.563zm25.739-59.186c-8.38 0-68.355 0-76.702 0-5.029 0-9.12-4.091-9.12-9.12s4.091-9.12 9.12-9.12h76.702c5.029 0 9.12 4.091 9.12 9.12s-4.091 9.12-9.12 9.12z"/><path d="m446.304 91.962c-10.742 0-233.748 0-244.471 0-14.611 0-26.498 11.887-26.498 26.498v141.516c0 52.772 30.381 101.996 79.288 128.461l48.58 26.286c13.339 7.219 29.111 6.853 41.73 0 51.672-27.959 61.791-32.17 79.209-47.849 3.079-2.771 3.329-7.513.558-10.592s-7.514-3.328-10.592-.557c-8.341 7.507-17.672 14.073-27.734 19.518-53.617 29.013-49.947 27.46-54.806 28.768v-297.049h114.735c6.339 0 11.497 5.158 11.497 11.498v141.516c0 25.066-7.589 49.551-21.947 70.808-2.318 3.433-1.415 8.095 2.018 10.413 3.432 2.317 8.094 1.416 10.413-2.017 16.039-23.746 24.516-51.134 24.516-79.204v-141.516c.001-14.612-11.886-26.498-26.496-26.498zm-184.542 283.282c-44.058-23.841-71.427-68.009-71.427-115.269v-141.515c0-6.34 5.158-11.498 11.498-11.498h114.735v297.05c-4.464-1.203-1.649-.005-54.806-28.768z"/><path d="m444.801 127.462c0-4.143-3.358-7.5-7.5-7.5h-85.232c-4.142 0-7.5 3.357-7.5 7.5v243.036c0 2.643 1.391 5.09 3.661 6.442 2.269 1.352 5.082 1.412 7.409.154l24.55-13.284c39.855-21.566 64.613-61.354 64.613-103.835v-132.513zm-15 132.513c0 36.968-21.746 71.7-56.752 90.642l-13.48 7.295v-222.95h70.232z"/><path d="m296.068 119.962h-85.233c-4.142 0-7.5 3.357-7.5 7.5v132.514c0 42.481 24.758 82.269 64.613 103.835l24.551 13.284c2.324 1.256 5.136 1.2 7.409-.154 2.27-1.353 3.661-3.8 3.661-6.442v-243.037c-.001-4.143-3.359-7.5-7.501-7.5zm-7.5 237.95-13.481-7.295c-35.006-18.941-56.752-53.674-56.752-90.642v-125.013h70.233z"/></g></g></svg>