<svg id="Capa_1" enable-background="new 0 0 512 512" height="512" viewBox="0 0 512 512" width="512" xmlns="http://www.w3.org/2000/svg"><g><g><path d="m319.888 81.212h-71.388v-50h71.388c3.314 0 6 2.686 6 6v38c0 3.314-2.686 6-6 6z" fill="#ffe177"/><path d="m319.888 31.212h-18c3.314 0 6 2.686 6 6v38c0 3.314-2.686 6-6 6h18c3.314 0 6-2.686 6-6v-38c0-3.314-2.686-6-6-6z" fill="#ffd15b"/><path d="m242 134.483c-45.914 73.388-125.776 104.542-125.776 104.542l17.708 36.153h222.137l17.708-36.153s-79.863-31.154-125.776-104.542z" fill="#fd8087"/><path d="m258.702 114.046c-1.095-2.272-4.308-2.272-5.403 0-3.447 7.149-7.243 13.955-11.298 20.438 45.914 73.388 125.776 104.542 125.776 104.542l-17.708 36.153h28l17.708-36.153c-.001-.001-94.6-36.895-137.075-124.98z" fill="#fe646f"/><path d="m458.981 393.059c-61.521-47.23-85.205-154.033-85.205-154.033-13.895 0-246.657 0-257.554 0 0 0-23.684 106.803-85.204 154.033-1.244.955-1.99 2.418-1.99 3.986v55.167h431.941v-55.167c.002-1.567-.744-3.031-1.988-3.986z" fill="#fe646f"/><path d="m480.981 393.059c-61.521-47.23-85.205-154.033-85.205-154.033h-28s23.684 106.803 85.205 154.033c1.244.955 1.989 2.418 1.989 3.986v55.167h28v-55.167c.001-1.567-.745-3.031-1.989-3.986z" fill="#fd4755"/><path d="m242 312.723c-13.149 28.99-37.5 70.28-76.366 92.985v46.504h158.732v-46.504c-38.866-22.705-63.217-63.995-76.366-92.985z" fill="#596c76"/><path d="m258.075 281.708c-.261-.858-1.109-1.446-2.075-1.446s-1.814.588-2.075 1.446c-1.21 3.978-5.025 15.803-11.925 31.014 13.149 28.991 37.5 70.28 76.366 92.985v46.504h28v-46.504c-59.26-34.618-84.775-112.441-88.291-123.999z" fill="#465a61"/><path d="m22.5 457-14.5 4c-.29 1.149-.5 2.277-.5 3.894 0 8.778 7.116 15.894 15.894 15.894h460.606l6.334-9.894v-13.894z" fill="#c38f86"/><path d="m488.606 449c-19.127 0-429.191 0-465.213 0-7.431 0-13.653 5.108-15.393 12h460.606c8.778 0 15.894 7.116 15.894 15.894 0 1.346-.186 2.646-.5 3.894h4.607c8.778 0 15.894-7.116 15.894-15.894-.001-8.778-7.117-15.894-15.895-15.894z" fill="#b87d72"/></g><path d="m490.471 441.581v-44.535c0-3.855-1.841-7.57-4.922-9.936-41.869-32.144-70.487-99.672-82.48-149.824-.57-2.39-2.295-4.365-4.568-5.248-.398-.156-40.367-15.973-79.127-50.894-3.078-2.772-7.82-2.528-10.593.552-2.772 3.078-2.525 7.82.552 10.593 19.518 17.584 39.131 30.486 54.47 39.236h-215.646c44.068-25.15 83.886-61.514 107.84-106.255 7.69 14.387 17.144 28.208 28.223 41.244 2.682 3.155 7.415 3.541 10.572.857 3.156-2.683 3.54-7.416.857-10.572-13.345-15.702-24.15-32.59-32.15-50.214v-17.872h56.389c7.444 0 13.5-6.056 13.5-13.5v-38c0-7.444-6.056-13.5-13.5-13.5h-63.888c-4.142 0-7.5 3.357-7.5 7.5v75.363c-26.082 57.459-82.724 103.675-135.173 125.538-2.308.972-3.908 2.976-4.424 5.28-.335 1.5-8.432 37.179-27.177 75.948-1.803 3.729-.242 8.214 3.487 10.017 3.73 1.805 8.214.242 10.017-3.487 15.212-31.461 23.709-61.1 26.875-73.346l267.773.001c5.982 23.399 30.979 109.066 85.593 151.751v43.222h-121.605v-35.792c0-2.666-1.415-5.131-3.717-6.476-57.307-33.478-82.244-110.979-84.898-119.703-1.229-4.047-4.946-6.767-9.251-6.767-4.302 0-8.02 2.718-9.25 6.764-2.655 8.727-27.592 86.229-84.899 119.706-2.302 1.345-3.717 3.81-3.717 6.476v35.792h-121.605v-43.224c14.837-11.601 28.717-27.413 41.269-47.017 2.233-3.488 1.216-8.127-2.272-10.36-3.488-2.231-8.126-1.217-10.36 2.272-11.878 18.552-24.903 33.335-38.714 43.938-3.082 2.366-4.921 6.08-4.921 9.935v44.536c-12.032.955-21.531 11.042-21.531 23.314 0 12.899 10.494 23.394 23.394 23.394h465.213c12.899 0 23.394-10.494 23.394-23.394-.001-12.272-9.5-22.359-21.53-23.313zm-226.971-402.868h54.889v35h-54.889c0-13.422 0-21.921 0-35zm-90.366 371.222c46.915-29.388 72.362-83.479 82.866-111.228 10.505 27.748 35.951 81.84 82.866 111.228v31.565c-18.895 0-147.033 0-165.732 0zm315.472 63.352h-465.212c-4.628 0-8.394-3.766-8.394-8.394s3.765-8.394 8.394-8.394h465.213c4.628 0 8.394 3.766 8.394 8.394s-3.767 8.394-8.395 8.394z"/></g></svg>