<svg id="Capa_1" enable-background="new 0 0 504.574 504.574" height="512" viewBox="0 0 504.574 504.574" width="512" xmlns="http://www.w3.org/2000/svg"><g><g><path d="m352.165 361.547h-223.515c-3.434 0-6.477 2.213-7.535 5.48l-42.118 130.047h322.819l-42.117-130.048c-1.058-3.266-4.1-5.479-7.534-5.479z" fill="#fd8087"/><path d="m383.46 367.027c-1.058-3.267-4.101-5.48-7.535-5.48h-27.721c3.434 0 6.477 2.213 7.535 5.48l42.117 130.048h27.721z" fill="#fe646f"/><g><path d="m439.352 279.068c-10.083 0-4.036 0-13.663 0-2.474 0-4.479 2.005-4.479 4.479v200.861h22.621v-200.862c-.001-2.473-2.006-4.478-4.479-4.478z" fill="#ffd15b"/><path d="m451.232 279.068h-15.841c2.474 0 4.479 2.005 4.479 4.479v200.861h15.841v-200.862c0-2.473-2.005-4.478-4.479-4.478z" fill="#ffc344"/><path d="m432.52 277.678c8.906-3.236 15.268-11.775 15.268-21.799s-6.362-18.562-15.268-21.799h-1.98c-8.906 3.236-15.268 11.775-15.268 21.799 0 9.128 5.322 17.955 15.268 21.799z" fill="#b6c4cf"/><path d="m450.951 471.741c-10.849 0 19.496 0-38.841 0-6.996 0-12.667 5.671-12.667 12.666 0 6.996 5.671 12.667 12.667 12.667h38.841c6.995 0 12.666-5.671 12.666-12.667 0-6.995-5.671-12.666-12.666-12.666z" fill="#ffe177"/><path d="m464.811 471.741h-15.841c6.995 0 12.666 5.671 12.666 12.666 0 6.996-5.671 12.667-12.666 12.667h15.841c6.995 0 12.666-5.671 12.666-12.667 0-6.995-5.671-12.666-12.666-12.666z" fill="#ffd15b"/><path d="m430.54 234.08c8.906 3.237 15.268 11.775 15.268 21.799s-6.362 18.563-15.268 21.799c15.102 5.488 31.109-5.72 31.109-21.799 0-16.063-15.997-27.291-31.109-21.799z" fill="#9facba"/></g><g><path d="m67.006 279.068c-10.083 0-4.036 0-13.663 0-2.474 0-4.479 2.005-4.479 4.479v200.861h22.621v-200.862c-.001-2.473-2.006-4.478-4.479-4.478z" fill="#ffd15b"/><path d="m78.886 279.068h-15.841c2.474 0 4.479 2.005 4.479 4.479v200.861h15.841v-200.862c0-2.473-2.005-4.478-4.479-4.478z" fill="#ffc344"/><path d="m60.174 277.678c20.3-7.377 20.315-36.215 0-43.598h-1.98c-8.906 3.236-15.268 11.775-15.268 21.799 0 9.128 5.322 17.955 15.268 21.799z" fill="#b6c4cf"/><path d="m78.605 471.741c-10.849 0 19.496 0-38.841 0-6.996 0-12.667 5.671-12.667 12.666 0 6.996 5.671 12.667 12.667 12.667h38.841c6.995 0 12.666-5.671 12.666-12.667 0-6.995-5.671-12.666-12.666-12.666z" fill="#ffe177"/><path d="m92.465 471.741h-15.84c6.995 0 12.666 5.671 12.666 12.666 0 6.996-5.671 12.667-12.666 12.667h15.841c6.995 0 12.666-5.671 12.666-12.667-.001-6.995-5.672-12.666-12.667-12.666z" fill="#ffd15b"/><path d="m66.114 232.691c-2.782 0-5.449.491-7.92 1.389 20.301 7.378 20.315 36.216 0 43.598 15.102 5.488 31.109-5.72 31.109-21.799 0-12.807-10.382-23.188-23.189-23.188z" fill="#9facba"/></g><g><path d="m338.24 171.199c8.144-7.939 3.65-21.769-7.605-23.405l-38.497-5.594c-4.469-.649-8.333-3.456-10.332-7.506l-17.215-34.883c-4.9-9.928-18.807-10.188-24.185-.787.147.257.291.517.424.787l17.215 34.883c1.999 4.05 5.862 6.857 10.332 7.506l38.497 5.594c11.254 1.636 15.748 15.466 7.605 23.405l-27.856 27.153c-3.234 3.152-4.71 7.694-3.947 12.145l6.576 38.34c.725 4.227-.498 8.076-2.842 10.946l6.693 3.519c10.067 5.292 21.832-3.255 19.91-14.465l-6.576-38.34c-.763-4.451.713-8.993 3.947-12.145z" fill="#ffd15b"/></g><path d="m286.411 259.784c2.343-2.871 3.567-6.719 2.842-10.946l-6.576-38.34c-.763-4.451.713-8.993 3.947-12.145l27.856-27.153c8.144-7.939 3.65-21.769-7.605-23.405l-38.497-5.594c-4.469-.649-8.333-3.456-10.332-7.506l-17.215-34.883c-.134-.271-.277-.531-.424-.787-.147.257-.291.516-.424.787l-17.215 34.883c-1.999 4.05-5.862 6.857-10.332 7.506l-38.497 5.594c-11.254 1.636-15.748 15.466-7.605 23.405l27.856 27.153c3.234 3.152 4.71 7.694 3.947 12.145l-6.576 38.34c-1.923 11.21 9.843 19.757 19.91 14.465l34.432-18.102c3.997-2.102 8.773-2.102 12.77 0z" fill="#ffe177"/></g><g><path d="m161.099 176.57 27.856 27.152c1.396 1.362 2.149 3.404 1.79 5.508l-6.577 38.342c-2.983 17.426 15.27 30.529 30.792 22.369l34.435-18.103c1.773-.934 4.01-.935 5.787.001l34.433 18.102c15.485 8.138 33.789-4.887 30.791-22.371-7.096-41.376-6.944-39.124-6.462-40.964 1.046-4.008-1.354-8.105-5.362-9.151-3.755-.979-9.83.614-9.841 10.724 0 4.146 6.981 40.812 6.981 43.076 0 4.379-4.82 7.675-9.127 5.409l-34.432-18.101c-6.066-3.191-13.69-3.188-19.751-.001l-34.434 18.103c-4.54 2.388-9.899-1.413-9.026-6.56 7.148-41.671 6.883-39.444 6.883-41.926 0-5.688-2.336-11.228-6.409-15.198l-27.855-27.152c-3.683-3.591-1.714-9.862 3.446-10.613l38.496-5.594c6.914-1.004 12.887-5.344 15.979-11.608l17.216-34.884c2.287-4.633 8.873-4.632 11.158 0l17.216 34.884c3.093 6.265 9.065 10.604 15.979 11.608l38.496 5.594c5.158.75 7.131 7.021 3.447 10.612l-8.126 7.921c-2.966 2.892-3.026 7.64-.136 10.606 2.893 2.966 7.641 3.027 10.606.136l8.127-7.923c12.467-12.158 5.841-33.638-11.763-36.196l-38.496-5.594c-2.026-.295-3.778-1.567-4.685-3.403l-17.216-34.883c-7.779-15.77-30.283-15.761-38.061-.001l-17.216 34.884c-.906 1.836-2.658 3.108-4.685 3.403l-38.497 5.594c-17.559 2.554-24.247 24.017-11.757 36.198z"/><path d="m464.811 464.241h-1.6v-180.694c0-2.564-.817-4.937-2.194-6.887 5.044-5.47 8.131-12.771 8.131-20.781 0-16.922-13.767-30.688-30.688-30.688s-30.688 13.767-30.688 30.688c0 8.01 3.088 15.31 8.132 20.781-1.377 1.951-2.194 4.323-2.194 6.887v152.539l-23.113-71.37c-2.066-6.381-7.962-10.669-14.671-10.669h-247.277c-6.709 0-12.604 4.288-14.67 10.669l-23.114 71.371v-152.54c0-2.564-.817-4.937-2.194-6.887 5.044-5.47 8.132-12.771 8.132-20.781 0-16.922-13.767-30.688-30.688-30.688s-30.688 13.767-30.688 30.688c0 8.01 3.088 15.31 8.131 20.781-1.377 1.951-2.194 4.323-2.194 6.887v89.185c0 4.143 3.357 7.5 7.5 7.5s7.5-3.357 7.5-7.5v-86.164h19.502v177.674h-19.503v-56.51c0-4.143-3.357-7.5-7.5-7.5s-7.5 3.357-7.5 7.5v56.51h-1.6c-11.12 0-20.167 9.047-20.167 20.167 0 11.119 9.047 20.166 20.167 20.166h425.047c11.12 0 20.167-9.047 20.167-20.166.001-11.121-9.046-20.168-20.166-20.168zm-36.102-177.674h19.502v177.674h-19.502zm9.751-46.377c8.65 0 15.688 7.038 15.688 15.688s-7.038 15.688-15.688 15.688-15.688-7.038-15.688-15.688 7.038-15.688 15.688-15.688zm-372.346 0c8.65 0 15.688 7.038 15.688 15.688s-7.038 15.688-15.688 15.688-15.688-7.038-15.688-15.688 7.038-15.688 15.688-15.688zm-31.517 244.218c0-2.849 2.318-5.167 5.167-5.167h52.701c6.739 0 6.955 10.333 0 10.333h-52.701c-2.849 0-5.167-2.317-5.167-5.166zm77.363 5.166c2.927-11.043-3.964-22.097-14.638-24.742l30.928-95.495c.056-.174.217-.29.399-.29h247.275c.183 0 .344.116.4.29l30.927 95.495c-10.598 2.627-17.583 13.64-14.638 24.742zm352.851 0h-52.701c-.356 0-.704-.036-1.04-.105-2.352-.483-4.126-2.569-4.126-5.061s1.774-4.579 4.126-5.061c.336-.069.684-.105 1.04-.105h52.701c2.849 0 5.167 2.318 5.167 5.167s-2.319 5.165-5.167 5.165z"/><path d="m252.287 61.798c4.143 0 7.5-3.357 7.5-7.5v-46.798c0-4.143-3.357-7.5-7.5-7.5s-7.5 3.357-7.5 7.5v46.798c0 4.142 3.358 7.5 7.5 7.5z"/><path d="m183.1 86.063c2.931 2.929 7.678 2.928 10.607 0 2.929-2.93 2.929-7.678 0-10.607l-33.092-33.092c-2.93-2.928-7.678-2.928-10.607 0-2.929 2.93-2.929 7.678 0 10.607z"/><path d="m321.475 86.063 33.092-33.092c2.929-2.93 2.929-7.678 0-10.607-2.93-2.928-7.678-2.928-10.607 0l-33.092 33.092c-2.929 2.93-2.929 7.678 0 10.607 2.93 2.929 7.677 2.928 10.607 0z"/></g></g></svg>