<svg id="Capa_1" enable-background="new 0 0 512 512" height="512" viewBox="0 0 512 512" width="512" xmlns="http://www.w3.org/2000/svg"><g><g><path d="m488.5 369.725v-227.45c0-11.046-8.954-20-20-20h-441c-11.046 0-20 8.954-20 20v227.449c0 11.046 8.954 20 20 20h28.5l14.286-14.724h371.429l14.285 14.725h12.5c11.046 0 20-8.954 20-20z" fill="#7a8c98"/><path d="m182.2 287.353h147.6v57.143h-147.6z" fill="#eaf6ff" transform="matrix(0 1 -1 0 571.925 59.925)"/><path d="m271.251 249.125v-7h-43.823v14h57.143v-7z" fill="#d8ecfe"/><path d="m271.251 249.125v-7h-6.68v147.6h20v-140.6z" fill="#d8ecfe"/><path d="m297.892 242.125v7h-13.321v140.6h57.143v-147.6z" fill="#eaf6ff"/><path d="m328.394 249.125v-7h-6.68v147.6h20v-140.6z" fill="#d8ecfe"/><path d="m328.394 249.125v-7h-30.503v7h-13.32v7h57.143v-7z" fill="#d8ecfe"/><path d="m56 389.725v-137.6c0-5.523 4.477-10 10-10h47.143v147.6z" fill="#eaf6ff"/><path d="m99.823 242.125h-6.68v147.6h20v-140.6h-13.32z" fill="#d8ecfe"/><path d="m126.463 242.125v7h-13.32v140.6h57.143v-147.6z" fill="#eaf6ff"/><path d="m156.966 249.125v-7h-30.503v7h-13.32v7h57.143v-7z" fill="#d8ecfe"/><path d="m156.966 249.125v-7h-6.68v147.6h20v-140.6z" fill="#d8ecfe"/><path d="m99.823 242.125c-36.057 0-34.013-.033-34.845.052-3.007.305-5.639 1.946-7.27 4.357-1.108 1.641-1.708 3.573-1.708 5.591v4h57.143v-7h-13.32z" fill="#d8ecfe"/><path d="m446 242.125h-33.823v7h-13.32v140.6h57.143v-137.6c0-5.523-4.477-10-10-10z" fill="#eaf6ff"/><path d="m455.797 250.109c-.267-1.302-.786-2.512-1.505-3.576-.18-.266-.372-.522-.576-.77-1.63-1.976-4.005-3.314-6.694-3.587-.336-.034-.677-.052-1.022-.052h-47.143v14h27.143c5.523 0 10 4.477 10 10v123.6h20v-137.6c0-.69-.07-1.364-.203-2.015z" fill="#d8ecfe"/><path d="m355.034 242.125v7h-13.32v140.6h57.143v-147.6z" fill="#eaf6ff"/><path d="m446 242.125h-33.823v7h-26.64v-7c-18.193 0-140.019 0-158.108 0-8.459 0-152.38 0-161.429 0-5.523 0-10 4.477-10 10v4h370c5.523 0 10 4.477 10 10v123.6h20v-137.6c0-5.523-4.477-10-10-10z" fill="#d8ecfe"/><path d="m378.857 242.125h20v147.6h-20z" fill="#d8ecfe"/><path d="m183.606 242.125v7h-13.32v140.6h57.143v-147.6z" fill="#eaf6ff"/><path d="m207.429 242.125h20v147.6h-20z" fill="#d8ecfe"/><path d="m183.606 242.125v7h-13.32v7h57.143v-14z" fill="#d8ecfe"/><path d="m355.034 242.125v7h-13.32v7h57.143v-14z" fill="#d8ecfe"/><path d="m187 204.125v-43.85c0-2.209 1.791-4 4-4h130c2.209 0 4 1.791 4 4v43.85c0 2.209-1.791 4-4 4h-130c-2.209 0-4-1.791-4-4z" fill="#fff0ad"/><path d="m56 204.125v-43.85c0-2.209 1.791-4 4-4h20.571c2.209 0 4 1.791 4 4v43.85c0 2.209-1.791 4-4 4h-20.571c-2.209 0-4-1.791-4-4z" fill="#b6c4cf"/><path d="m116 204.125v-43.85c0-2.209 1.791-4 4-4h20.571c2.209 0 4 1.791 4 4v43.85c0 2.209-1.791 4-4 4h-20.571c-2.209 0-4-1.791-4-4z" fill="#b6c4cf"/><path d="m427.429 204.125v-43.85c0-2.209 1.791-4 4-4h20.571c2.209 0 4 1.791 4 4v43.85c0 2.209-1.791 4-4 4h-20.571c-2.21 0-4-1.791-4-4z" fill="#b6c4cf"/><path d="m321 156.275h-130c-2.209 0-4 1.791-4 4v4h122c2.209 0 4 1.791 4 4v39.85h8c2.209 0 4-1.791 4-4v-43.85c0-2.209-1.791-4-4-4z" fill="#ffe177"/><g fill="#596c76"><path d="m99.823 330.907v-88.782h26.64v88.782c0 2.209-1.791 4-4 4h-18.64c-2.209 0-4-1.791-4-4z"/><path d="m156.966 330.907v-88.782h26.64v88.782c0 2.209-1.791 4-4 4h-18.64c-2.209 0-4-1.791-4-4z"/><path d="m271.251 330.907v-88.782h26.64v88.782c0 2.209-1.791 4-4 4h-18.64c-2.209 0-4-1.791-4-4z"/><path d="m328.394 330.907v-88.782h26.64v88.782c0 2.209-1.791 4-4 4h-18.64c-2.209 0-4-1.791-4-4z"/><path d="m385.537 330.907v-88.782h26.64v88.782c0 2.209-1.791 4-4 4h-18.64c-2.209 0-4-1.791-4-4z"/></g><path d="m110.463 242.125v88.782c0 2.209-1.791 4-4 4h16c2.209 0 4-1.791 4-4v-88.782z" fill="#465a61"/><path d="m167.606 242.125v88.782c0 2.209-1.791 4-4 4h16c2.209 0 4-1.791 4-4v-88.782z" fill="#465a61"/><path d="m281.891 242.125v88.782c0 2.209-1.791 4-4 4h16c2.209 0 4-1.791 4-4v-88.782z" fill="#465a61"/><path d="m339.034 242.125v88.782c0 2.209-1.791 4-4 4h16c2.209 0 4-1.791 4-4v-88.782z" fill="#465a61"/><path d="m396.177 242.125v88.782c0 2.209-1.791 4-4 4h16c2.209 0 4-1.791 4-4v-88.782z" fill="#465a61"/><g><path d="m484.5 122.275h-20c11.046 0 20 8.954 20 20v227.449c0 11.046-8.954 20-20 20h20c11.046 0 20-8.954 20-20v-227.449c0-11.046-8.954-20-20-20z" fill="#596c76"/></g></g><g><path d="m484.5 114.775h-392.307c-4.142 0-7.5 3.357-7.5 7.5s3.358 7.5 7.5 7.5h392.307c6.865 0 12.5 5.523 12.5 12.5v147.267c0 4.143 3.358 7.5 7.5 7.5s7.5-3.357 7.5-7.5v-147.267c0-15.466-12.533-27.5-27.5-27.5z"/><path d="m504.5 317.042c-4.142 0-7.5 3.357-7.5 7.5v45.183c0 6.893-5.607 12.5-12.5 12.5h-21v-130.1c0-9.649-7.851-17.5-17.5-17.5-9.028 0-371.163 0-380 0-9.649 0-17.5 7.851-17.5 17.5v130.1h-21c-6.893 0-12.5-5.607-12.5-12.5v-227.45c0-6.893 5.607-12.5 12.5-12.5h29.693c4.142 0 7.5-3.357 7.5-7.5s-3.358-7.5-7.5-7.5h-29.693c-15.164 0-27.5 12.337-27.5 27.5v227.449c0 15.163 12.336 27.5 27.5 27.5h457c15.164 0 27.5-12.337 27.5-27.5v-45.183c0-4.142-3.358-7.499-7.5-7.499zm-99.823 10.364h-5.82-5.82v-77.781h11.64zm-57.143 0h-5.82-5.82v-77.781h11.64zm-57.142 0h-5.82-5.82v-77.781h11.64zm-114.287 0h-5.82-5.82v-77.781h11.64zm-57.142 0h-5.82-5.82v-77.781h11.64zm-55.463-75.281c0-1.379 1.122-2.5 2.5-2.5h26.323v81.281.001c0 6.341 5.159 11.5 11.5 11.5h1.82v39.817h-42.143zm57.143 90.282h1.82c6.341 0 11.5-5.159 11.5-11.5v-.001-81.281h15.503v81.281.001c0 6.341 5.159 11.5 11.5 11.5h1.82v39.817h-42.143zm57.143 0h1.82c6.341 0 11.5-5.159 11.5-11.5v-81.282h28.823v132.6h-42.143zm57.143-92.782h28.823v81.281.001c0 6.341 5.159 11.5 11.5 11.5h1.82v39.817h-42.143zm57.142 132.6v-39.817h1.82c6.341 0 11.5-5.159 11.5-11.5v-.001-81.281h15.502v81.282c0 6.341 5.159 11.5 11.5 11.5h1.82v39.817h-20.713zm57.143-39.818h1.82c6.341 0 11.5-5.159 11.5-11.5v-.001-81.281h15.503v81.281.001c0 6.341 5.159 11.5 11.5 11.5h1.82v39.817h-42.143zm57.143 39.818v-39.817h1.82c6.341 0 11.5-5.159 11.5-11.5v-.001-81.281h26.323c1.378 0 2.5 1.121 2.5 2.5v130.1h-42.143z"/><path d="m321 215.625c6.341 0 11.5-5.159 11.5-11.5v-43.85c0-6.341-5.159-11.5-11.5-11.5h-130c-6.341 0-11.5 5.159-11.5 11.5v43.85c0 6.341 5.159 11.5 11.5 11.5zm-126.5-51.85h123v36.85h-123z"/><path d="m48.5 160.275v43.85c0 6.341 5.159 11.5 11.5 11.5h20.571c6.341 0 11.5-5.159 11.5-11.5v-43.85c0-6.341-5.159-11.5-11.5-11.5h-20.571c-6.341 0-11.5 5.16-11.5 11.5zm15 3.5h13.571v36.85h-13.571z"/><path d="m140.571 215.625c6.341 0 11.5-5.159 11.5-11.5v-43.85c0-6.341-5.159-11.5-11.5-11.5h-20.571c-6.341 0-11.5 5.159-11.5 11.5v43.85c0 6.341 5.159 11.5 11.5 11.5zm-17.071-51.85h13.571v36.85h-13.571z"/><path d="m452 215.625c6.341 0 11.5-5.159 11.5-11.5v-43.85c0-6.341-5.159-11.5-11.5-11.5h-20.571c-6.341 0-11.5 5.159-11.5 11.5v43.85c0 6.341 5.159 11.5 11.5 11.5zm-17.071-51.85h13.571v36.85h-13.571z"/><path d="m401.214 208.125v-51.85c0-4.143-3.358-7.5-7.5-7.5s-7.5 3.357-7.5 7.5v51.85c0 4.143 3.358 7.5 7.5 7.5s7.5-3.357 7.5-7.5z"/><path d="m366.214 208.125v-51.85c0-4.143-3.358-7.5-7.5-7.5s-7.5 3.357-7.5 7.5v51.85c0 4.143 3.358 7.5 7.5 7.5s7.5-3.357 7.5-7.5z"/></g></g></svg>