<svg id="Capa_1" enable-background="new 0 0 512 512" height="512" viewBox="0 0 512 512" width="512" xmlns="http://www.w3.org/2000/svg"><g><g><path d="m357.836 365.955v-342.396c0-7.715-6.255-13.97-13.97-13.97h20.004c-.001 0-.002 0-.004 0h-342.396c-7.715 0-13.97 6.254-13.97 13.97v342.396c0 7.715 6.254 13.97 13.97 13.97h322.397c7.715 0 13.969-6.255 13.969-13.97z" fill="#fd8087"/><path d="m363.866 9.589h-24c7.715 0 13.97 6.254 13.97 13.97v322.396c0 7.715-6.255 13.97-13.97 13.97-7.778 0-314.695 0-332.366 0v6.03c0 7.715 6.254 13.97 13.97 13.97h342.397c7.715 0 13.97-6.254 13.97-13.97 0-31.454 0-334.246 0-342.396-.001-7.716-6.255-13.97-13.971-13.97z" fill="#fe646f"/><ellipse cx="119.993" cy="222.958" fill="#ffe177" rx="34.04" ry="23.776" transform="matrix(.966 -.259 .259 .966 -53.617 38.654)"/><path d="m231.037 105.137-71.55-15.17c-3.11-.659-6.037 1.712-6.037 4.891v34.204l75.513 16.011c3.11.659 6.037-1.712 6.037-4.891v-30.153c0-2.363-1.653-4.402-3.963-4.892z" fill="#ffe177"/><g><circle cx="331.634" cy="329.546" fill="#7a8c98" r="172.866"/><circle cx="331.634" cy="329.546" fill="#9facba" r="93.039"/><circle cx="331.634" cy="329.546" fill="#fd8087" r="33.169"/><path d="m316.634 157.335c88.446 7.604 157.866 81.794 157.866 172.21 0 90.417-69.42 164.607-157.866 172.211 4.945.425 9.945.655 15 .655 95.471 0 172.866-77.395 172.866-172.866 0-100.925-86.29-180.947-187.866-172.21z" fill="#596c76"/></g></g><g><path d="m160.95 138.318 66.458 14.091c7.762 1.648 15.092-4.273 15.092-12.229v-30.152c0-5.867-4.166-11.011-9.906-12.229 0 0 0 0-.001 0l-71.548-15.17c-7.781-1.651-15.095 4.286-15.095 12.228v100.488c-9.101-4.76-21.366-5.996-34.052-2.597-22.188 5.945-36.57 24.018-32.029 40.962 4.684 17.48 26.788 25.202 48.219 19.458 20.211-5.414 34.517-21.135 32.689-37.425.111-.514.174-1.047.174-1.594v-75.831zm0-40.375 66.55 14.11v25.042l-66.55-14.11zm-36.744 140.737c-14.079 3.772-27.632-.584-29.847-8.853-2.215-8.262 7.334-18.815 21.422-22.591 13.907-3.724 27.566.336 29.848 8.854 2.226 8.305-7.399 18.833-21.423 22.59z"/><path d="m385.336 157.343v-133.784c0-11.839-9.631-21.47-21.47-21.47h-342.396c-11.839 0-21.47 9.631-21.47 21.47v35.651c0 4.143 3.358 7.5 7.5 7.5s7.5-3.357 7.5-7.5v-35.651c0-3.567 2.902-6.47 6.47-6.47h342.396c3.567 0 6.47 2.902 6.47 6.47v129.779c-11.137-2.468-24.248-4.04-37.29-4.14-.558-.133-1.138-.21-1.737-.21h-.297c-98.752 0-179.963 81.664-179.963 180.003 0 14.501 1.795 29.07 5.344 43.435h-134.923c-3.567 0-6.47-2.902-6.47-6.47v-271.746c0-4.143-3.358-7.5-7.5-7.5s-7.5 3.357-7.5 7.5v271.745c0 11.839 9.631 21.47 21.47 21.47h139.324c24.17 71.151 91.623 122.486 170.841 122.486 30.293 0 60.257-7.657 86.654-22.143 3.631-1.993 4.959-6.552 2.967-10.184-1.993-3.63-6.551-4.957-10.184-2.967-24.191 13.275-51.66 20.293-79.437 20.293-91.183 0-165.366-74.183-165.366-165.365 0-92.126 76.154-165.36 165.366-165.366 90.872.001 165.365 73.892 165.365 165.367 0 48.64-21.288 94.609-58.405 126.12-3.158 2.681-3.544 7.414-.863 10.571 2.682 3.16 7.417 3.542 10.571.864 40.48-34.367 63.697-84.503 63.697-137.555 0-80.76-53.354-149.292-126.664-172.203z"/><path d="m231.095 329.546c0 55.438 45.102 100.539 100.539 100.539s100.539-45.102 100.539-100.539-45.102-100.54-100.539-100.54-100.539 45.102-100.539 100.54zm186.078 0c0 47.166-38.373 85.539-85.539 85.539s-85.539-38.373-85.539-85.539c0-47.167 38.373-85.54 85.539-85.54s85.539 38.373 85.539 85.54z"/><path d="m290.965 329.546c0 22.425 18.244 40.669 40.669 40.669s40.669-18.244 40.669-40.669c0-22.426-18.244-40.67-40.669-40.67s-40.669 18.244-40.669 40.67zm66.338 0c0 14.154-11.515 25.669-25.669 25.669s-25.669-11.515-25.669-25.669 11.515-25.67 25.669-25.67 25.669 11.516 25.669 25.67z"/></g></g></svg>