<svg id="Capa_1" enable-background="new 0 0 512 512" height="512" viewBox="0 0 512 512" width="512" xmlns="http://www.w3.org/2000/svg"><g><g><path d="m49.667 160.333-9.03 11.646v265.983h30.524v-277.629z" fill="#ffd15b"/><g><path d="m419.547 125.668c-1.86 0-3.632.371-5.256 1.029 2.031 2.43 3.256 5.556 3.256 8.971 0 80.412-81.238 142.5-177.547 142.5-15.421 0-30.549-1.576-45.1-4.613 19.322 5.654 39.937 8.613 61.1 8.613 96.363 0 177.547-62.132 177.547-142.5 0-7.732-6.268-14-14-14z" fill="#fd4755"/></g><g><path d="m194.9 273.555c14.551 3.037 29.679 4.613 45.1 4.613 96.363 0 177.547-62.132 177.547-142.5 0-3.415-1.225-6.541-3.256-8.971.809-.328 1.655-.584 2.531-.76-6.427 1.269-11.275 6.931-11.275 13.73 0 63.136-67.086 114.5-149.547 114.5s-149.547-51.364-149.547-114.5c0-7.732-6.268-14-14-14s-14 6.268-14 14c0 72.701 65.889 128.716 145.717 140.225-10.008-1.445-19.795-3.565-29.27-6.337z" fill="#fe646f"/></g><path d="m86.543 125.358h-45.906v46.621h22.524c3.314 0 6 2.686 6 6v259.983h24v-305.987c0-3.654-2.963-6.617-6.618-6.617z" fill="#ffc344"/><path d="m60.899 123.262c13.588-4.911 23.301-17.923 23.301-33.206s-9.713-28.294-23.301-33.206h-6l-2.971 1.238c-12.011 5.632-20.331 17.825-20.331 31.968 0 14.112 8.284 26.282 20.252 31.93l3.05 1.276z" fill="#fff0ad"/><path d="m66.898 54.755c-4.213 0-8.253.741-12 2.095 13.589 4.912 23.302 17.923 23.302 33.206s-9.713 28.294-23.301 33.206c22.958 8.297 47.301-8.727 47.301-33.206 0-19.496-15.805-35.301-35.302-35.301z" fill="#ffe177"/><path d="m79.098 153.979c3.889 0 7.041-3.152 7.041-7.041v-14.539c0-3.889-3.152-7.041-7.041-7.041h-46.398c-3.889 0-7.041 3.152-7.041 7.041v14.539c0 3.889 3.152 7.041 7.041 7.041z" fill="#ffe177"/><path d="m101.098 125.358h-24c3.889 0 7.041 3.152 7.041 7.041v14.539c0 3.889-3.152 7.041-7.041 7.041h24c3.889 0 7.041-3.152 7.041-7.041v-14.539c0-3.889-3.153-7.041-7.041-7.041z" fill="#ffd15b"/><path d="m439.102 123.262c13.588-4.912 23.301-17.923 23.301-33.206s-9.713-28.294-23.301-33.206h-6l-2.971 1.238c-12.011 5.633-20.331 17.825-20.331 31.968 0 14.112 8.284 26.282 20.252 31.93l3.05 1.276z" fill="#fff0ad"/><path d="m445.101 54.755c-4.213 0-8.253.741-12 2.095 13.588 4.912 23.301 17.923 23.301 33.206s-9.713 28.294-23.301 33.206c22.958 8.297 47.301-8.727 47.301-33.206.001-19.496-15.804-35.301-35.301-35.301z" fill="#ffe177"/><path d="m464.746 125.358h-45.907v46.621h22.524c3.314 0 6 2.686 6 6v259.983h24v-305.987c0-3.654-2.962-6.617-6.617-6.617z" fill="#ffc344"/><path d="m457.3 153.979c3.889 0 7.041-3.152 7.041-7.041v-14.539c0-3.889-3.152-7.041-7.041-7.041h22.004c-6.363 0-53.828 0-68.402 0-3.889 0-7.041 3.152-7.041 7.041v14.539c0 3.889 3.152 7.041 7.041 7.041h68.399z" fill="#ffe177"/><path d="m479.3 125.358h-24c3.889 0 7.041 3.152 7.041 7.041v14.539c0 3.889-3.152 7.041-7.041 7.041h24c3.889 0 7.041-3.152 7.041-7.041v-14.539c0-3.889-3.152-7.041-7.041-7.041z" fill="#ffd15b"/><path d="m428.333 160.333-9.494 11.646v265.983h30.524v-277.629z" fill="#ffd15b"/><path id="XMLID_280_" d="m107.015 457.245h-80.232c-10.65 0-19.283-8.633-19.283-19.283 0-10.65 8.633-19.283 19.283-19.283h80.232c10.65 0 19.283 8.633 19.283 19.283-.001 10.65-8.634 19.283-19.283 19.283z" fill="#ffe177"/><path d="m107.015 418.68h-24c10.649 0 19.283 8.633 19.283 19.283 0 10.649-8.633 19.283-19.283 19.283h24c10.649 0 19.283-8.633 19.283-19.283-.001-10.65-8.634-19.283-19.283-19.283z" fill="#ffd15b"/><path id="XMLID_233_" d="m485.217 457.245h-80.232c-10.65 0-19.283-8.633-19.283-19.283 0-10.65 8.633-19.283 19.283-19.283h80.232c10.65 0 19.283 8.633 19.283 19.283 0 10.65-8.633 19.283-19.283 19.283z" fill="#ffe177"/><path d="m485.217 418.68h-24c10.649 0 19.283 8.633 19.283 19.283 0 10.649-8.633 19.283-19.283 19.283h24c10.649 0 19.283-8.633 19.283-19.283s-8.633-19.283-19.283-19.283z" fill="#ffd15b"/></g><path d="m485.217 411.18h-6.354v-249.7h.438c8.018 0 14.541-6.523 14.541-14.541v-14.54c0-8.018-6.523-14.541-14.541-14.541h-1.696c6.412-7.485 10.298-17.195 10.298-27.801 0-23.601-19.2-42.802-42.801-42.802s-42.802 19.201-42.802 42.802c0 10.606 3.886 20.315 10.298 27.801h-1.696c-8.018 0-14.541 6.523-14.541 14.541 0 15.785-.23 16.237.786 19.217-8.5 57.041-73.385 95.053-141.147 95.053-72.783 0-133.2-41.717-141.147-95.052 1.017-2.982.786-3.457.786-19.217 0-8.018-6.523-14.541-14.541-14.541h-1.696c6.412-7.485 10.298-17.195 10.298-27.801 0-23.601-19.201-42.802-42.801-42.802-23.601 0-42.802 19.201-42.802 42.802 0 10.606 3.886 20.315 10.298 27.801h-1.695c-8.018 0-14.541 6.523-14.541 14.541v14.54c0 8.018 6.523 14.541 14.541 14.541h.437v161.499c0 4.143 3.358 7.5 7.5 7.5s7.5-3.357 7.5-7.5v-161.501h37.524v35.296 214.405h-37.524v-53.201c0-4.143-3.358-7.5-7.5-7.5s-7.5 3.357-7.5 7.5v53.201h-6.354c-14.768 0-26.783 12.014-26.783 26.782 0 14.769 12.015 26.783 26.783 26.783h80.232c14.768 0 26.783-12.015 26.783-26.783s-12.015-26.782-26.783-26.782h-6.354v-189.724c33.69 42.062 91.91 68.212 155.339 68.212 39.363 0 76.828-9.764 108.346-28.236 3.574-2.095 4.773-6.689 2.679-10.263-2.095-3.574-6.689-4.773-10.263-2.679-29.22 17.126-64.063 26.178-100.762 26.178-67.286 0-128.009-31.271-155.339-79.827v-33.361c.269 0 .531.001.806-.006 14.195 61.115 82.88 100.194 154.533 100.194 75.983 0 141.094-42.336 154.534-100.195.276.021.546.035.806.046v33.321c-6.914 12.269-16.185 23.688-27.579 33.97-3.075 2.774-3.318 7.518-.544 10.593 2.774 3.074 7.518 3.317 10.593.544 6.466-5.834 12.319-12.017 17.53-18.502v189.735h-6.354c-14.769 0-26.783 12.015-26.783 26.782 0 14.769 12.015 26.783 26.783 26.783h80.231c14.769 0 26.783-12.015 26.783-26.783s-12.015-26.782-26.783-26.782zm-366.42 26.782c0 6.497-5.286 11.783-11.783 11.783h-80.231c-6.497 0-11.783-5.286-11.783-11.783s5.286-11.782 11.783-11.782h80.232c6.497 0 11.782 5.285 11.782 11.782zm-79.7-347.905c0-15.33 12.472-27.802 27.802-27.802s27.801 12.472 27.801 27.802c0 15.329-12.472 27.801-27.801 27.801-15.33-.001-27.802-12.472-27.802-27.801zm-5.938 42.8h67.48v13.621c-59.87 0-66.212.001-67.48.001zm384.141-42.8c0-15.33 12.472-27.802 27.802-27.802 15.329 0 27.801 12.472 27.801 27.802 0 15.329-12.472 27.801-27.801 27.801-15.331-.001-27.802-12.472-27.802-27.801zm-5.939 42.8h67.48v13.622c-3.423 0 2.983-.001-60.002-.001-.046 0-.087.001-.133.001h-7.346v-13.622zm14.979 63.918v-35.296h37.523v249.7h-37.523zm58.877 252.97h-80.231c-6.497 0-11.783-5.286-11.783-11.783s5.286-11.782 11.783-11.782h80.231c6.497 0 11.783 5.285 11.783 11.782s-5.286 11.783-11.783 11.783z"/></g></svg>