<svg id="Capa_1" enable-background="new 0 0 512 512" height="512" viewBox="0 0 512 512" width="512" xmlns="http://www.w3.org/2000/svg"><g><g><path d="m257.958 432.944c-1.745 0-14.024 0-15.915 0v56.089h19.915c0-19.19 0-33.424 0-52.089 0-2.209-1.791-4-4-4z" fill="#8d9ca8"/><path d="m418.297 338.422c-7.481 0-12.367 0-19.847 0v158.415c0 4.232 3.431 7.663 7.663 7.663h19.847c0-7.44 0-150.266 0-158.415 0-4.232-3.431-7.663-7.663-7.663z" fill="#ab695d"/><path d="m89.887 338.422c-8.947 0-10.602 0-19.847 0v158.415c0 4.232 3.431 7.663 7.663 7.663h19.847c0-7.44 0-150.266 0-158.415 0-4.232-3.431-7.663-7.663-7.663z" fill="#ab695d"/><path d="m103.906 7.5h304.188v290.733h-304.188z" fill="#d8ecfe"/><path d="m413.96 18.447c0-6.046-4.901-10.947-10.947-10.947h-28.785v290.733h39.732z" fill="#b6c4cf"/><path d="m257.958 414.944h-15.915v30h11.915c2.209 0 4 1.791 4 4v40.089h12v-44.089-30z" fill="#7a8c98"/><path d="m431.013 7.5h-32c6.046 0 10.947 4.901 10.947 10.947v279.786h32v-279.786c0-6.046-4.901-10.947-10.947-10.947z" fill="#9facba"/><path d="m434.297 300.422h-28.184c-4.232 0-7.663 3.431-7.663 7.663v34.337h15.847c4.232 0 7.663 3.431 7.663 7.663v154.415h12.337c4.232 0 7.663-3.431 7.663-7.663v-188.752c0-4.232-3.431-7.663-7.663-7.663z" fill="#935b50"/><path d="m105.887 300.422h-28.184c-4.232 0-7.663 3.431-7.663 7.663v34.337h15.847c4.232 0 7.663 3.431 7.663 7.663v154.415h12.337c4.232 0 7.663-3.431 7.663-7.663v-188.752c0-4.232-3.431-7.663-7.663-7.663z" fill="#935b50"/><path d="m137.772 298.233h-67.732v-279.786c0-6.046 4.901-10.947 10.947-10.947h56.785z" fill="#b6c4cf"/><path d="m301.486 363.641c-9.986 0-91.553 0-102.228 0-7.255 0-13.136 5.881-13.136 13.137v42.167h108.094c4.232 0 7.663-3.431 7.663-7.663-.001-48.676.143-45.455-.393-47.641z" fill="#fe646f"/><path d="m312.742 363.641h-15.256c.247 1.007.393 2.054.393 3.137v40.504c0 4.232-3.431 7.663-7.663 7.663h-104.094v2.337c0 4.232 3.431 7.663 7.663 7.663h124.432c4.232 0 7.663-3.431 7.663-7.663v-40.504c-.002-7.256-5.883-13.137-13.138-13.137z" fill="#fd4755"/><path d="m280.314 490.816c0-7.557-6.125-13.683-13.681-13.684h-35.264c-7.557 0-13.684 6.126-13.684 13.684 0 7.557 6.126 13.684 13.684 13.684h35.262c7.557 0 13.683-6.126 13.683-13.684z" fill="#b6c4cf"/><path d="m280.631 477.132h-20 .002 3.998c7.557 0 13.684 6.126 13.684 13.684 0 7.557-6.126 13.684-13.684 13.684h16c7.557 0 13.684-6.126 13.684-13.684-.001-7.557-6.127-13.684-13.684-13.684z" fill="#9facba"/><path d="m448.309 268.402c-66.876 0-374.662 0-396.954 0-4.232 0-7.663 3.431-7.663 7.663v37.999l11.308 6.107h403.333v-43.171z" fill="#c38f86"/><path d="m460.646 268.402c-1.324 0-5.622 0-12.337 0v37.998c0 4.232-3.431 7.663-7.663 7.663-4.096 0-328.966 0-396.954 0v6.337c0 4.232 3.431 7.663 7.663 7.663h409.291c4.232 0 7.663-3.431 7.663-7.663v-44.335c0-4.232-3.431-7.663-7.663-7.663z" fill="#b87d72"/></g><g><path d="m312.742 356.142h-113.484c-11.379 0-20.637 9.257-20.637 20.636v40.504c0 8.361 6.802 15.163 15.163 15.163h40.759v37.188h-3.174c-11.681 0-21.184 9.503-21.184 21.184s9.503 21.183 21.184 21.183h49.262c11.681 0 21.184-9.503 21.184-21.184s-9.503-21.184-21.184-21.184h-3.174v-37.188h40.759c8.361 0 15.163-6.802 15.163-15.163v-40.504c0-11.379-9.258-20.635-20.637-20.635zm-25.928 134.674c0 3.409-2.774 6.184-6.184 6.184h-49.262c-3.409 0-6.184-2.774-6.184-6.184s2.774-6.184 6.184-6.184h49.262c3.41.001 6.184 2.775 6.184 6.184zm-24.357-21.183h-12.914v-37.188h12.914zm55.922-52.352c0 .09-.073.163-.163.163-1.602 0-122.826 0-124.432 0-.09 0-.163-.073-.163-.163v-40.504c0-3.107 2.528-5.636 5.637-5.636h113.484c3.108 0 5.637 2.528 5.637 5.636z"/><path d="m460.646 260.902h-11.185v-242.455c0-10.172-8.275-18.447-18.447-18.447-6.553 0-342.106 0-350.028 0-10.172 0-18.447 8.275-18.447 18.447v15.11c0 4.143 3.357 7.5 7.5 7.5s7.5-3.357 7.5-7.5v-15.11c0-1.9 1.547-3.447 3.447-3.447h49.285v245.902h-52.732v-192.344c0-4.143-3.357-7.5-7.5-7.5s-7.5 3.357-7.5 7.5v192.345h-11.185c-8.361 0-15.163 6.802-15.163 15.163v44.334c0 8.361 6.802 15.163 15.163 15.163h11.185v161.273c0 8.361 6.803 15.163 15.164 15.163h28.184c8.361 0 15.163-6.802 15.163-15.163v-161.273h269.9v161.273c0 8.361 6.802 15.163 15.163 15.163h28.184c8.361 0 15.164-6.802 15.164-15.163v-20.958c0-4.143-3.357-7.5-7.5-7.5s-7.5 3.357-7.5 7.5v20.958c0 .09-.073.163-.164.163h-28.184c-.09 0-.163-.073-.163-.163v-161.273h28.511v105.315c0 4.143 3.357 7.5 7.5 7.5s7.5-3.357 7.5-7.5v-105.315h11.185c8.361 0 15.163-6.802 15.163-15.163v-44.335c0-8.361-6.802-15.163-15.163-15.163zm-26.185-242.455v242.455h-52.732v-245.902h49.285c1.9 0 3.447 1.547 3.447 3.447zm-289.19-3.447h221.457v245.902h-221.457zm-39.221 481.837c0 .09-.073.163-.163.163h-28.184c-.091 0-.164-.073-.164-.163v-161.274h28.511zm354.759-176.437c0 .09-.073.163-.163.163-11.029 0-398.35 0-409.291 0-.09 0-.163-.073-.163-.163v-44.335c0-.09.073-.163.163-.163h409.291c.09 0 .163.073.163.163z"/><circle cx="103.906" cy="73.182" r="10"/><circle cx="103.906" cy="138.864" r="10"/><circle cx="103.906" cy="204.546" r="10"/><circle cx="408.094" cy="73.182" r="10"/><circle cx="408.094" cy="138.864" r="10"/><circle cx="408.094" cy="204.546" r="10"/></g></g></svg>