<svg id="Capa_1" enable-background="new 0 0 512 512" height="512" viewBox="0 0 512 512" width="512" xmlns="http://www.w3.org/2000/svg"><g><g clip-rule="evenodd" fill-rule="evenodd"><path d="m34.696 301.312h86.512c4.28 0 7.767-3.515 7.767-7.767v-45.779c0-4.28-3.486-7.766-7.767-7.766h-86.512c-4.28 0-7.767 3.486-7.767 7.766v45.779c.001 4.252 3.487 7.767 7.767 7.767z" fill="#faf8f9"/><path d="m34.696 301.312h86.512c4.28 0 7.767-3.515 7.767-7.767v-45.779c0-4.28-3.486-7.766-7.767-7.766h-16.497v14.711c0 7.994-6.548 14.57-14.57 14.57h-63.211v24.264c0 4.252 3.486 7.767 7.766 7.767z" fill="#ede9fb"/><path d="m174.753 232.629c-5.272 0-7.738 2.296-7.738 7.767v57.996h315.463v-57.996c0-5.471-2.494-7.767-7.768-7.767-99.976 0-199.951 0-299.957 0z" fill="#d57080"/><path d="m15.279 293.545h481.456c5.642 0 7.257 2.381 5.527 7.739-12.443 38.21-51.702 101.932-97.935 101.932h-312.542l-54.027-46.827-8.107-21.6c-1.36-4.564-4.762-7.086-10.488-7.285h-3.883c-4.28 0-7.768-3.487-7.768-7.767v-18.424c0-4.281 3.487-7.768 7.767-7.768z" fill="#0079a2"/><path d="m40.45 239.999h75.003v-17.773c0-4.706 2.637-8.589 7.427-10.063l33.988-10.459c4.479-1.389 7.426-4.394 7.426-10.063v-16.78c0-4.252-3.486-7.767-7.767-7.767h-108.31c-4.279 0-7.767 3.515-7.767 7.767z" fill="#e0dbee"/><path d="m40.45 239.999h75.003v-17.773c0-4.706 2.637-8.589 7.427-10.063l33.988-10.459c4.479-1.389 7.426-4.394 7.426-10.063v-16.78c0-4.252-3.486-7.767-7.767-7.767h-16.497c0 5.357-2.268 8.759-7.428 10.347l-33.985 10.459c-4.791 1.474-7.428 5.357-7.428 10.035v3.231c0 9.099-4.705 14.57-14.57 14.57h-36.169z" fill="#d3cee5"/><path d="m63.127 403.215h341.201c35.092 0 66.159-36.68 84.527-71.092h-164.123c-4.876 0-9.751 1.389-14.145 4.422l-22.195 15.42c-4.166 2.92-8.39 4.422-14.116 4.422h-236.518l14.881 39.57c1.814 4.877 5.555 7.258 10.488 7.258z" fill="#0c5e7f"/><path d="m63.127 403.215h341.201c35.092 0 66.159-36.68 84.527-71.092h-24.264c-18.255 25.427-43.172 46.828-69.958 46.828h-348.372l6.378 17.007c1.814 4.876 5.555 7.257 10.488 7.257z" fill="#174b67"/><path d="m443.644 269.281h-66.33v-36.651h-24.264v22.081c0 7.994-6.548 14.57-14.569 14.57h-66.33v-36.651h-24.265v22.081c0 7.994-6.548 14.57-14.541 14.57h-66.33v24.264h315.463v-53.149c0-5.471-2.494-7.767-7.768-7.767h-16.496v22.081c0 7.994-6.548 14.571-14.57 14.571z" fill="#cb5769"/><path d="m488.855 332.123c5.839-10.913 10.403-21.628 13.407-30.84 1.729-5.358.114-7.739-5.527-7.739h-24.264c5.641 0 7.256 2.381 5.499 7.739-2.977 9.212-7.54 19.927-13.379 30.84z" fill="#0c5e7f"/></g><path d="m7.512 286.033h11.905v-46.034c0-4.139 3.346-7.512 7.513-7.512h6.009v-65.395c0-4.139 3.373-7.483 7.512-7.483h29.99v-43.341h-8.759c-4.139 0-7.484-3.345-7.484-7.483 0-4.139 3.346-7.512 7.484-7.512h32.513c4.139 0 7.512 3.373 7.512 7.512s-3.373 7.483-7.512 7.483h-8.759v43.341h17.66c4.138 0 7.482 3.345 7.482 7.483 0 4.167-3.345 7.512-7.482 7.512h-55.162v57.883h60.008v-18.028c0-3.6 2.522-6.576 5.868-7.341l42.973-13.21v-19.304h-19.729c-4.139 0-7.484-3.345-7.484-7.512 0-4.139 3.346-7.483 7.484-7.483h27.24c4.138 0 7.483 3.345 7.483 7.483v32.314c.027 3.203-2.07 6.18-5.301 7.171l-43.54 13.379v12.529h6.038c4.139 0 7.512 3.373 7.512 7.512v46.034h23.018v-53.404c0-4.139 3.345-7.512 7.511-7.512h245.901c4.139 0 7.483 3.373 7.483 7.512s-3.345 7.512-7.483 7.512h-28.09v45.892h90.14v-45.892h-28.091c-4.139 0-7.483-3.373-7.483-7.512s3.345-7.512 7.483-7.512h35.603c4.139 0 7.483 3.373 7.483 7.512v53.404h14.542c5.158 0 8.702 5.074 7.115 9.893-7.087 27.666-26.277 60.831-45.298 81.665-17.489 19.133-38.749 33.136-61.992 33.136h-348.969c-3.401 0-6.264-2.268-7.171-5.386-8.814-23.442-17.631-46.884-26.446-70.327h-14.23c-4.138 0-7.512-3.373-7.512-7.511v-33.958c0-4.137 3.374-7.51 7.512-7.51zm378.42 38.607c4.139 0 7.483 3.345 7.483 7.483 0 4.139-3.345 7.512-7.483 7.512h-66.613l-33.023 22.903c-1.247.879-2.721 1.361-4.28 1.361h-233.431l11.962 31.832h343.781c18.424 0 36.027-11.934 50.909-28.233 7.767-8.475 14.739-18.113 20.721-27.864h-56.068c-4.139 0-7.483-3.373-7.483-7.512 0-4.138 3.345-7.483 7.483-7.483h64.459c4.224-8.334 7.653-16.384 10.119-23.613h-11.99c-155.817 0-311.665 0-467.482 0v18.992h11.934c3.005 0 5.867 1.871 7.001 4.847l9.015 24.037h236.744l32.739-22.762c1.275-.935 2.835-1.502 4.535-1.502h68.968zm-106.269-84.499v45.892h90.168v-45.892zm-105.165 45.892h90.169v-45.892h-90.169zm-87.73-79.766c0 4.138-3.345 7.483-7.483 7.483-4.167 0-7.512-3.345-7.512-7.483v-10.035c0-4.139 3.345-7.512 7.512-7.512 4.139 0 7.483 3.373 7.483 7.512zm-30.728 128.747c-4.139 0-7.512-3.373-7.512-7.511 0-4.139 3.373-7.483 7.512-7.483h219.683c4.138 0 7.483 3.345 7.483 7.483 0 4.139-3.346 7.511-7.483 7.511zm-2.692-60.745c-4.139 0-7.512-3.373-7.512-7.511 0-4.139 3.373-7.483 7.512-7.483h10.034c4.139 0 7.512 3.345 7.512 7.483s-3.373 7.511-7.512 7.511zm39.146 0c-4.139 0-7.484-3.373-7.484-7.511 0-4.139 3.346-7.483 7.484-7.483h10.034c4.166 0 7.511 3.345 7.511 7.483s-3.345 7.511-7.511 7.511zm-58.081-26.758v38.522h87.05v-38.522c-28.998 0-58.025 0-87.05 0z"/></g></svg>