<svg id="Capa_1" enable-background="new 0 0 512 512" height="512" viewBox="0 0 512 512" width="512" xmlns="http://www.w3.org/2000/svg"><g><g clip-rule="evenodd" fill-rule="evenodd"><path d="m403.46 61.739 23.273 23.301c6.095 6.094 6.151 16.045.142 22.168l-13.72 13.748c16.469 23.159 27.921 50.117 32.825 79.314h19.247c8.674 0 15.761 7.086 15.761 15.76v32.939c0 8.674-7.086 15.76-15.761 15.76h-418.454c-8.674 0-15.761-7.086-15.761-15.76v-32.939c0-8.674 7.086-15.76 15.761-15.76h19.247c4.904-29.197 16.384-56.156 32.854-79.314l-13.606-13.606c-6.123-6.151-6.123-16.158 0-22.309l23.301-23.301c6.123-6.123 16.157-6.123 22.28 0l13.606 13.607c23.16-16.47 50.118-27.922 79.314-32.854v-19.22c0-8.674 7.087-15.761 15.761-15.761h32.938c8.675 0 15.761 7.087 15.761 15.761v19.219c29.197 4.932 56.155 16.384 79.314 32.854l13.606-13.607c6.238-6.066 16.103-6.179 22.311 0z" fill="#0c5e7f"/><path d="m403.46 61.739 23.273 23.301c6.095 6.094 6.151 16.045.142 22.168l-13.72 13.748c16.469 23.159 27.921 50.117 32.825 79.314h19.247c8.674 0 15.761 7.086 15.761 15.76v32.939c0 8.674-7.086 15.76-15.761 15.76h-418.454c-8.674 0-15.761-7.086-15.761-15.76v-8.504h372.731c12.53 0 19.814-7.37 19.049-19.899-6.151-100.177-89.349-179.52-191.058-179.52-2.636 0-5.301.085-7.965.198v-17.971c0-8.674 7.087-15.761 15.761-15.761h32.938c8.675 0 15.761 7.087 15.761 15.761v19.219c29.197 4.932 56.155 16.384 79.314 32.854l13.606-13.607c6.238-6.066 16.103-6.179 22.311 0z" fill="#174b67"/><path d="m256 282.731c27.695 0 50.259-22.564 50.259-50.23 0-27.695-22.564-50.259-50.259-50.259-27.667 0-50.259 22.564-50.259 50.259 0 27.666 22.592 50.23 50.259 50.23z" fill="#61a2f9"/><path d="m277.26 186.947c17.121 8.022 28.999 25.399 28.999 45.553 0 27.752-22.507 50.23-50.259 50.23-20.154 0-37.531-11.849-45.525-28.97 6.463 3.033 13.663 4.705 21.26 4.705 27.752 0 50.259-22.478 50.259-50.23 0-7.624-1.701-14.824-4.734-21.288z" fill="#5490f9"/><g fill="#61a2f9"><path d="m158.26 431.977c21.118 0 38.354-17.234 38.354-38.325 0-21.118-17.235-38.353-38.354-38.353-21.118 0-38.325 17.235-38.325 38.353.001 21.09 17.207 38.325 38.325 38.325z"/><path d="m353.74 431.977c21.118 0 38.325-17.234 38.325-38.325 0-21.118-17.207-38.353-38.325-38.353s-38.325 17.235-38.325 38.353c0 21.09 17.207 38.325 38.325 38.325z"/><path d="m449.099 504.517c21.118 0 38.353-17.235 38.353-38.354s-17.234-38.325-38.353-38.325-38.325 17.207-38.325 38.325c-.001 21.118 17.206 38.354 38.325 38.354z"/></g><path d="m461.231 429.794c15.222 5.074 26.22 19.446 26.22 36.369 0 21.175-17.178 38.354-38.353 38.354-16.923 0-31.295-10.999-36.369-26.221 3.798 1.247 7.88 1.956 12.104 1.956 21.175 0 38.325-17.178 38.325-38.354 0-4.224-.68-8.305-1.927-12.104z" fill="#5490f9"/><path d="m365.844 357.254c15.25 5.075 26.22 19.446 26.22 36.397 0 21.147-17.149 38.325-38.325 38.325-16.951 0-31.323-10.998-36.369-26.221 3.798 1.276 7.881 1.956 12.104 1.956 21.175 0 38.325-17.178 38.325-38.353.001-4.223-.679-8.305-1.955-12.104z" fill="#5490f9"/><path d="m62.901 504.517c21.119 0 38.354-17.235 38.354-38.354s-17.235-38.325-38.354-38.325c-21.118 0-38.324 17.207-38.324 38.325s17.206 38.354 38.324 38.354z" fill="#61a2f9"/><path d="m256 504.517c21.118 0 38.353-17.235 38.353-38.354s-17.235-38.325-38.353-38.325-38.325 17.207-38.325 38.325 17.207 38.354 38.325 38.354z" fill="#61a2f9"/><path d="m268.132 429.794c15.223 5.074 26.221 19.446 26.221 36.369 0 21.175-17.178 38.354-38.353 38.354-16.923 0-31.295-10.999-36.369-26.221 3.798 1.247 7.88 1.956 12.104 1.956 21.175 0 38.325-17.178 38.325-38.354 0-4.224-.681-8.305-1.928-12.104z" fill="#5490f9"/><path d="m170.393 357.254c15.222 5.075 26.221 19.446 26.221 36.397 0 21.147-17.179 38.325-38.354 38.325-16.923 0-31.295-10.998-36.369-26.221 3.798 1.276 7.88 1.956 12.104 1.956 21.175 0 38.353-17.178 38.353-38.353.001-4.223-.708-8.305-1.955-12.104z" fill="#5490f9"/><path d="m75.034 429.794c15.222 5.074 26.221 19.446 26.221 36.369 0 21.175-17.178 38.354-38.354 38.354-16.923 0-31.294-10.999-36.368-26.221 3.798 1.247 7.88 1.956 12.104 1.956 21.175 0 38.325-17.178 38.325-38.354 0-4.224-.68-8.305-1.928-12.104z" fill="#5490f9"/></g><path d="m225.782 262.718c7.739 7.739 18.426 12.529 30.218 12.529 11.82 0 22.507-4.791 30.246-12.529 7.994-8.021 12.501-18.822 12.501-30.217 0-11.821-4.791-22.507-12.501-30.246-7.739-7.738-18.426-12.501-30.246-12.501-11.792 0-22.479 4.763-30.218 12.501-7.739 7.739-12.529 18.425-12.529 30.246 0 11.395 4.507 22.195 12.529 30.217zm37.73 158.232c9.638 1.587 18.284 6.179 24.917 12.812 8.277 8.306 13.408 19.758 13.408 32.4 0 12.671-5.131 24.123-13.408 32.429-8.305 8.278-19.758 13.409-32.429 13.409-12.643 0-24.124-5.131-32.4-13.408-8.306-8.306-13.436-19.758-13.436-32.429 0-12.643 5.131-24.095 13.436-32.4 6.605-6.633 15.251-11.226 24.917-12.812v-47.594c0-4.139 3.345-7.483 7.483-7.483s7.512 3.345 7.512 7.483zm14.287 23.414c-5.556-5.585-13.267-9.042-21.799-9.042-8.504 0-16.214 3.458-21.799 9.042s-9.042 13.295-9.042 21.799c0 8.532 3.458 16.243 9.042 21.827 5.584 5.556 13.295 9.015 21.799 9.015 8.532 0 16.243-3.458 21.799-9.015 5.585-5.584 9.043-13.294 9.043-21.827-.001-8.504-3.459-16.214-9.043-21.799zm-207.385-23.414c9.638 1.587 18.284 6.179 24.917 12.812 8.277 8.277 13.408 19.758 13.408 32.4 0 12.671-5.131 24.123-13.408 32.429-8.306 8.278-19.758 13.409-32.43 13.409-12.643 0-24.123-5.131-32.4-13.408-8.306-8.306-13.437-19.758-13.437-32.429 0-12.643 5.131-24.123 13.437-32.4 6.605-6.633 15.25-11.226 24.917-12.812v-26.278c0-1.559.454-3.005 1.276-4.195l11.027-18.652c2.098-3.572 6.69-4.734 10.233-2.636 3.571 2.098 4.734 6.689 2.636 10.261l-10.177 17.235v24.264zm14.286 23.414c-5.556-5.585-13.266-9.042-21.799-9.042-8.504 0-16.214 3.458-21.798 9.042s-9.042 13.295-9.042 21.799c0 8.532 3.458 16.243 9.042 21.827 5.585 5.556 13.295 9.015 21.798 9.015 8.533 0 16.243-3.458 21.799-9.015 5.585-5.584 9.043-13.294 9.043-21.827 0-8.504-3.458-16.214-9.043-21.799zm371.91-23.414c9.638 1.587 18.283 6.179 24.917 12.812 8.278 8.277 13.408 19.758 13.408 32.4 0 12.671-5.13 24.123-13.408 32.429-8.306 8.278-19.757 13.409-32.428 13.409-12.643 0-24.124-5.131-32.4-13.408-8.306-8.306-13.437-19.758-13.437-32.429 0-12.643 5.131-24.123 13.437-32.4 6.605-6.633 15.25-11.226 24.917-12.812v-24.265l-10.206-17.236c-2.098-3.572-.935-8.164 2.636-10.261 3.572-2.098 8.164-.936 10.262 2.636l11.254 19.049c.68 1.162 1.049 2.466 1.049 3.798v26.278zm14.287 23.414c-5.556-5.585-13.266-9.042-21.798-9.042-8.504 0-16.215 3.458-21.799 9.042-5.585 5.584-9.043 13.295-9.043 21.799 0 8.532 3.458 16.243 9.043 21.827 5.584 5.556 13.294 9.015 21.799 9.015 8.532 0 16.242-3.458 21.798-9.015 5.584-5.584 9.042-13.294 9.042-21.827 0-8.504-3.458-16.214-9.042-21.799zm-109.674-95.954c9.667 1.588 18.312 6.18 24.917 12.813 8.306 8.306 13.436 19.758 13.436 32.429 0 12.643-5.13 24.095-13.436 32.4-8.277 8.306-19.729 13.436-32.4 13.436-12.642 0-24.123-5.13-32.4-13.436-8.306-8.305-13.437-19.757-13.437-32.4 0-12.671 5.131-24.123 13.437-32.429 6.605-6.633 15.279-11.225 24.917-12.813v-76.196h-48.359c-9.127 9.639-21.231 15.846-34.385 17.547v49.635c0 4.138-3.373 7.483-7.512 7.483s-7.483-3.345-7.483-7.483v-49.635c-13.181-1.701-25.286-7.909-34.413-17.547h-48.331v76.196c9.638 1.588 18.283 6.208 24.917 12.813 8.277 8.306 13.408 19.758 13.408 32.429 0 12.643-5.131 24.095-13.408 32.4-8.306 8.306-19.758 13.436-32.429 13.436-12.643 0-24.123-5.13-32.4-13.436-8.306-8.305-13.436-19.757-13.436-32.4 0-12.671 5.13-24.123 13.436-32.429 6.605-6.605 15.25-11.225 24.917-12.813v-76.196h-40.592v55.107c0 1.304-.369 2.608-1.049 3.827l-11.254 19.021c-2.098 3.571-6.689 4.762-10.261 2.636-3.572-2.098-4.734-6.69-2.636-10.233l10.205-17.263v-53.094h-48.419c-6.406 0-12.217-2.607-16.441-6.803-4.195-4.224-6.803-10.035-6.803-16.441v-32.939c0-6.406 2.608-12.245 6.803-16.441 4.224-4.224 10.035-6.832 16.441-6.832h13.011c2.58-12.756 6.35-25.059 11.226-36.822 4.989-12.02 11.083-23.415 18.17-34.073l-9.212-9.212c-4.536-4.536-6.803-10.488-6.803-16.441 0-5.981 2.268-11.934 6.803-16.469l23.301-23.301c4.507-4.507 10.488-6.775 16.441-6.775s11.905 2.268 16.441 6.775l9.212 9.213c10.659-7.087 22.083-13.181 34.073-18.142 11.764-4.875 24.095-8.674 36.851-11.225v-13.014c0-6.407 2.608-12.218 6.803-16.441 4.223-4.224 10.034-6.832 16.441-6.832h32.938c6.407 0 12.218 2.608 16.441 6.832 4.536 4.536 6.803 10.29 6.803 16.64v12.812c12.756 2.551 25.087 6.35 36.851 11.225 12.019 4.961 23.414 11.055 34.073 18.142l9.212-9.213c4.309-4.28 10.46-6.775 16.526-6.775 5.924 0 11.821 2.239 16.384 6.775l23.301 23.301c4.45 4.479 6.718 10.403 6.746 16.328.028 5.924-2.154 11.849-6.576 16.356l-9.411 9.411c1.332 1.984 2.608 3.997 3.855 6.01 2.268 3.713 4.479 7.625 6.633 11.707 1.928 3.657.51 8.164-3.146 10.091-3.657 1.899-8.192.482-10.091-3.175-1.871-3.572-3.912-7.171-6.18-10.829-2.154-3.543-4.45-6.973-6.832-10.318-2.098-2.919-1.842-7.03.766-9.638l13.691-13.692c1.587-1.616 2.353-3.742 2.353-5.868 0-2.069-.822-4.167-2.438-5.783l-23.3-23.299c-1.587-1.587-3.685-2.381-5.754-2.381-2.098 0-4.451.851-5.925 2.381l-13.606 13.607c-2.523 2.551-6.605 2.948-9.639.793-11.253-7.994-23.414-14.769-36.311-20.098-12.813-5.301-26.221-9.156-39.884-11.452-3.543-.595-6.236-3.684-6.236-7.398v-18.935c0-2.239-.851-4.508-2.467-6.124-1.502-1.502-3.572-2.438-5.839-2.438h-32.938c-2.268 0-4.337.935-5.84 2.438-1.531 1.559-2.438 3.628-2.438 5.84v18.766c.227 3.798-2.438 7.2-6.265 7.851-13.89 2.325-27.241 6.208-39.884 11.452-12.728 5.273-24.747 11.935-35.858 19.787-2.948 2.438-7.342 2.296-10.092-.482l-13.606-13.607c-1.587-1.587-3.713-2.381-5.839-2.381s-4.252.794-5.839 2.381l-23.302 23.301c-1.616 1.616-2.41 3.742-2.41 5.868 0 2.098.793 4.224 2.41 5.839l13.606 13.607h-.028c2.551 2.523 2.977 6.605.822 9.638-8.022 11.253-14.769 23.414-20.126 36.312-5.159 12.501-9.014 25.71-11.367 39.43-.396 3.77-3.571 6.718-7.455 6.718h-19.247c-2.268 0-4.337.935-5.839 2.438-1.474 1.502-2.41 3.571-2.41 5.839v32.939c0 2.268.936 4.337 2.41 5.839 1.502 1.474 3.572 2.409 5.839 2.409h48.416v-24.718c0-44.419 18-84.615 47.084-113.727 29.112-29.111 69.308-47.111 113.727-47.111s84.615 18 113.728 47.112c29.112 29.112 47.112 69.308 47.112 113.727v24.718h48.388c2.239 0 4.309-.907 5.839-2.409 1.502-1.503 2.438-3.572 2.438-5.839v-32.939c0-2.268-.936-4.337-2.438-5.839-1.502-1.503-3.572-2.438-5.839-2.438h-19.248c-3.572 0-6.747-2.608-7.37-6.265-.737-4.394-1.587-8.561-2.551-12.558-.936-3.912-2.098-8.022-3.458-12.331-1.248-3.94.935-8.164 4.904-9.411 3.94-1.247 8.164.964 9.383 4.904 1.332 4.138 2.551 8.589 3.713 13.379.567 2.438 1.134 4.876 1.616 7.285h13.011c6.406 0 12.217 2.608 16.441 6.832 4.224 4.195 6.832 10.034 6.832 16.441v32.939c0 6.406-2.608 12.217-6.832 16.441-4.365 4.365-10.261 6.803-16.441 6.803h-48.388v53.094l10.176 17.263c2.098 3.543.936 8.135-2.636 10.233-3.543 2.126-8.135.935-10.233-2.636l-11.027-18.652c-.822-1.19-1.276-2.636-1.276-4.195v-55.107h-40.621zm14.316 23.415c-5.585-5.585-13.294-9.015-21.799-9.015-8.504 0-16.214 3.43-21.799 9.015-5.584 5.584-9.042 13.294-9.042 21.827 0 8.504 3.458 16.214 9.042 21.799 5.585 5.584 13.295 9.014 21.799 9.014s16.214-3.43 21.799-9.014c5.584-5.585 9.042-13.295 9.042-21.799 0-8.532-3.458-16.243-9.042-21.827zm-195.452 0c-5.585-5.585-13.294-9.015-21.827-9.015-8.504 0-16.214 3.43-21.799 9.015-5.584 5.584-9.042 13.294-9.042 21.827 0 8.504 3.458 16.214 9.042 21.799 5.585 5.584 13.295 9.014 21.799 9.014 8.533 0 16.243-3.43 21.827-9.014 5.556-5.585 9.014-13.295 9.014-21.799.001-8.532-3.458-16.243-9.014-21.827zm221.757-114.606v-24.718c0-40.281-16.327-76.735-42.718-103.126s-62.845-42.719-103.126-42.719c-40.252 0-76.735 16.328-103.126 42.719-26.363 26.391-42.69 62.845-42.69 103.126v24.718h40.592v-24.69c0-28.318 10.517-54.171 30.841-74.354 19.786-19.644 46.715-30.926 74.382-30.926 29.056 0 55.361 11.792 74.411 30.841 19.814 19.786 30.812 46.403 30.812 74.41v24.718h40.622zm-55.588 0v-24.718c0-24.917-10.12-47.481-26.447-63.809-16.328-16.328-38.892-26.448-63.809-26.448-23.755 0-46.63 9.44-63.837 26.561-17.405 17.235-26.391 39.261-26.391 63.724v24.69h38.041c-3.571-7.483-5.556-15.874-5.556-24.718 0-15.959 6.463-30.388 16.923-40.848 10.432-10.46 24.889-16.923 40.819-16.923 15.959 0 30.388 6.463 40.848 16.923 10.432 10.46 16.895 24.889 16.895 40.848 0 8.844-1.984 17.235-5.527 24.718z"/></g></svg>