<svg id="Capa_1" enable-background="new 0 0 512 512" height="512" viewBox="0 0 512 512" width="512" xmlns="http://www.w3.org/2000/svg"><g><g clip-rule="evenodd" fill-rule="evenodd"><path d="m504.517 44.873v38.326l-247.553 11.65-249.452-11.651v-38.325c0-4.28 3.486-7.767 7.767-7.767h481.471c4.251 0 7.767 3.486 7.767 7.767z" fill="#0079a2"/><path d="m7.512 121.551v-38.353h497.004v38.353c0 4.252-3.515 7.767-7.767 7.767h-481.47c-4.281 0-7.767-3.515-7.767-7.767z" fill="#0c5e7f"/><path d="m169.968 17.688h172.064c4.281 0 7.767 3.486 7.767 7.767v123.28c-62.533 0-125.066 0-187.599 0 0-41.102 0-82.205 0-123.28.001-4.28 3.516-7.767 7.768-7.767z" fill="#0c5e7f"/><path d="m228.815 183.686h54.369v81.525h-54.369z" fill="#faf8f9"/><path d="m162.201 148.735 93.317-10.205 94.281 10.205-24.803 37.22c-2.976 4.45-6.662 6.463-12.076 6.463h-113.812c-5.443 0-9.1-2.013-12.076-6.463z" fill="#0079a2"/><path d="m228.815 256.481-60.01 37.617c-4.337 2.692-6.604 6.718-6.604 11.877v19.418l62.589 43.683h62.42l62.589-43.683v-19.418c0-5.159-2.268-9.185-6.576-11.877l-60.039-37.617z" fill="#e0dbee"/><path d="m216.995 344.81 7.795 24.265h62.42l7.795-24.265zm108.54-19.417h24.265v-19.418c0-5.159-2.268-9.185-6.576-11.877l-17.688-11.084v42.379z" fill="#d3cee5"/><path d="m162.201 325.393-26.76 61.825c-1.984 4.592-1.644 9.439 1.02 13.72l53.916 86.798c2.552 4.11 6.463 6.605 11.877 6.605h11.65c5.018 0 7.143-2.495 5.925-7.541l-19.616-80.051c-1.276-5.16 0-9.666 3.288-13.38l21.288-24.292-11.65-36.285c-1.474-4.535-4.847-7.398-10.148-7.398h-40.79z" fill="#faf8f9"/><path d="m194.97 492.412c2.013 1.247 4.45 1.928 7.285 1.928h11.65c5.018 0 7.143-2.495 5.925-7.541l-19.616-80.051c-1.276-5.16 0-9.666 3.288-13.38l21.288-24.292-11.65-36.285c-1.474-4.535-4.847-7.398-10.148-7.398h-24.265c5.301 0 8.674 2.863 10.12 7.398l8.107 25.172c2.75 7.71.511 14.656-5.159 21.062l-12.586 14.343c-3.26 3.714-4.536 8.221-3.26 13.38l19.588 80.051c.623 2.494.397 4.366-.567 5.613z" fill="#ede9fb"/><path d="m349.799 325.393 26.76 61.825c1.984 4.592 1.644 9.439-.992 13.72l-53.944 86.798c-2.552 4.11-6.435 6.605-11.849 6.605h-11.65c-5.017 0-7.172-2.495-5.925-7.541l19.588-80.051c1.275-5.16 0-9.666-3.26-13.38l-21.316-24.292 11.679-36.285c1.446-4.535 4.819-7.398 10.148-7.398h40.761z" fill="#faf8f9"/><path d="m349.799 325.393 26.76 61.825c1.984 4.592 1.644 9.439-.992 13.72l-53.944 86.798c-2.552 4.11-6.435 6.605-11.849 6.605h-11.65c-2.551 0-4.337-.652-5.357-1.928 1.842-1.134 3.373-2.722 4.592-4.677l47.197-75.969c8.107-13.011 8.533-23.018 1.928-37.985l-20.948-48.388h24.263z" fill="#ede9fb"/><path d="m258.92 192.418h24.265v64.063h-54.369v-24.265h15.534c8.022 0 14.57-6.548 14.57-14.57z" fill="#ede9fb"/><path d="m480.251 37.106v46.092h24.265v-38.325c0-4.28-3.515-7.767-7.767-7.767z" fill="#0c5e7f"/><g fill="#174b67"><path d="m504.517 83.198h-24.265v2.438c0 10.658-8.759 19.417-19.417 19.417h-111.036v24.265h146.95c4.252 0 7.767-3.515 7.767-7.767v-38.353z"/><path d="m162.201 129.318v-24.265h-154.689v16.499c0 4.252 3.486 7.767 7.767 7.767h146.922z"/><path d="m306.117 124.471h-143.916v24.264h187.599c0-41.102 0-82.205 0-123.28 0-4.281-3.486-7.767-7.767-7.767h-16.497v87.364c-.001 10.659-8.732 19.419-19.419 19.419z"/></g></g><path d="m0 83.198v-46.092c0-4.167 3.373-7.512 7.512-7.512h147.205v-11.906c0-4.139 3.345-7.512 7.483-7.512h187.599c4.139 0 7.512 3.373 7.512 7.512v11.906h52.867c4.139 0 7.483 3.345 7.483 7.512 0 4.139-3.345 7.483-7.483 7.483h-52.867v31.124h139.693v-31.124h-52.867c-4.138 0-7.483-3.345-7.483-7.483 0-4.167 3.345-7.512 7.483-7.512h60.379c4.138 0 7.483 3.345 7.483 7.512v46.092 46.12c0 4.139-3.345 7.483-7.483 7.483h-147.205v11.934c0 1.503-.454 2.948-1.304 4.224l-29.083 43.598c-1.446 2.183-3.827 3.345-6.265 3.345h-29.962v52.469l62.419 39.119c2.466 1.219 4.195 3.771 4.195 6.719v25.71l29.197 67.465c.964 2.268.794 4.847-.51 6.916l-22.082 35.576c-2.183 3.515-6.803 4.592-10.318 2.381-3.515-2.183-4.592-6.774-2.409-10.29l20.042-32.258-26.335-60.804h-38.183l-11.083 34.442 23.527 26.815c1.616 1.786 2.353 4.28 1.758 6.804l-21.033 85.862h13.493l19.9-32.003c2.183-3.516 6.803-4.593 10.318-2.41 3.486 2.183 4.564 6.804 2.381 10.318l-22.082 35.547c-1.36 2.211-3.77 3.543-6.35 3.543h-27.184c-5.159 0-8.731-5.074-7.115-9.893l22.224-90.71-21.628-24.633h-55.673l-21.6 24.633 22.224 90.71c1.616 4.818-1.956 9.893-7.115 9.893h-27.184c-2.495 0-4.933-1.247-6.35-3.543l-62.136-99.98c-1.247-2.013-1.502-4.564-.51-6.916l29.226-67.465v-25.71c0-2.467 1.275-4.904 3.543-6.321l18.907-11.85c3.487-2.183 8.107-1.134 10.29 2.382 2.183 3.486 1.106 8.078-2.381 10.261l-15.364 9.638v15.591h41.046c3.146 0 6.094 2.042 7.115 5.188l12.359 38.494h51.535l12.387-38.494c.992-3.062 3.855-5.188 7.115-5.188h41.018v-15.591l-61.2-38.353h-50.174l-17.037 10.687c-3.515 2.183-8.107 1.134-10.29-2.381-2.183-3.486-1.134-8.079 2.381-10.262l15.363-9.638v-52.469h-29.991c-2.636 0-4.961-1.361-6.293-3.401l-29.027-43.542c-.85-1.275-1.332-2.777-1.304-4.28v-11.877h-52.869c-4.139 0-7.512-3.345-7.512-7.483 0-4.139 3.373-7.512 7.512-7.512h52.867v-31.098h-139.721v31.096h52.867c4.138 0 7.512 3.373 7.512 7.512s-3.373 7.483-7.512 7.483h-60.351c-4.139 0-7.512-3.345-7.512-7.483zm209.681-23.046c0-4.139 3.345-7.512 7.484-7.512 4.166 0 7.512 3.373 7.512 7.512v46.091c0 4.167-3.345 7.512-7.512 7.512-4.139 0-7.484-3.345-7.484-7.512zm77.642 0c0-4.139 3.374-7.512 7.512-7.512 4.139 0 7.512 3.373 7.512 7.512v46.091c0 4.167-3.374 7.512-7.512 7.512s-7.512-3.345-7.512-7.512zm-38.806 0c0-4.139 3.345-7.512 7.483-7.512 4.139 0 7.512 3.373 7.512 7.512v46.091c0 4.167-3.373 7.512-7.512 7.512s-7.483-3.345-7.483-7.512zm-81.413 272.752-26.334 60.804 57.856 93.119h13.493l-21.005-85.862c-.624-2.523.113-5.017 1.729-6.804l23.556-26.815-11.083-34.442zm108.568-133.002h-39.345v49.068h39.345zm60.124-43.683h-159.564l19.106 28.688h121.324zm-166.084-14.996h172.575c0-38.693 0-77.358 0-116.051h-172.575zm-14.995-65.509v-31.125h-139.721v31.124h139.721zm342.287 14.996h-139.693v31.096h139.693z"/></g></svg>