<svg id="Capa_1" enable-background="new 0 0 512 512" height="512" viewBox="0 0 512 512" width="512" xmlns="http://www.w3.org/2000/svg"><g><g clip-rule="evenodd" fill-rule="evenodd"><path d="m431.807 164.1h29.113v60.917h-29.113z" fill="#0c5e7f"/><path d="m15.279 220.793h197.748c5.045 0 7.767-2.636 7.767-7.767v-197.747c0-4.45 2.438-7.767 7.767-7.767h54.908c5.301 0 7.767 3.316 7.767 7.767v197.748c0 5.131 2.694 7.767 7.768 7.767h197.746c4.252 0 7.768 3.487 7.768 7.767v54.908c0 4.252-3.516 7.767-7.768 7.767h-197.747c-5.046 0-7.768 2.834-7.768 7.767v197.747c0 5.386-2.892 7.767-7.767 7.767h-54.908c-4.904 0-7.767-2.381-7.767-7.767v-197.748c0-4.932-2.722-7.767-7.767-7.767h-197.747c-4.281 0-7.767-3.515-7.767-7.767v-54.908c0-4.28 3.486-7.767 7.767-7.767z" fill="#e0dbee"/><path d="m194.374 266.517h-186.862v16.952c0 4.252 3.486 7.767 7.767 7.767h197.748c5.045 0 7.767 2.834 7.767 7.767v-3.629c0-18.369-12.529-28.857-26.42-28.857z" fill="#d3cee5"/><path d="m284.545 266.97c-11.339 0-17.547 6.803-17.575 17.575-.255 61.172 0 117.072 0 178.217 0 10.261-7.738 17.489-17.489 17.489h-28.687v16.499c0 5.386 2.863 7.767 7.767 7.767h54.908c4.875 0 7.767-2.381 7.767-7.767v-197.748c0-4.932 2.723-7.767 7.768-7.767h197.746c4.252 0 7.768-3.515 7.768-7.767v-54.908c0-4.28-3.516-7.767-7.768-7.767h-16.497v28.687c0 9.128-8.362 17.49-17.49 17.49z" fill="#d3cee5"/><g fill="#faf8f9"><path d="m172.264 220.793-21.487-14.967c-3.94-2.778-8.646-4.45-14.116-4.45h-5.131c-5.131 0-7.739 2.636-7.739 7.767v93.743c0 5.102 2.608 7.767 7.739 7.767h5.131c5.471 0 10.176-1.701 14.116-4.45l21.487-14.967z"/><path d="m220.794 340.19-14.967 21.458c-2.778 3.969-4.45 8.674-4.45 14.145v5.102c0 5.159 2.636 7.768 7.767 7.768h93.743c5.103 0 7.768-2.608 7.768-7.768v-5.102c0-5.471-1.701-10.176-4.45-14.145l-14.969-21.458z"/><path d="m339.765 220.793 21.458-14.967c3.969-2.778 8.676-4.45 14.146-4.45h5.103c5.158 0 7.767 2.636 7.767 7.767v93.743c0 5.102-2.608 7.767-7.767 7.767h-5.103c-5.471 0-10.178-1.701-14.146-4.45l-21.458-14.967z"/><path d="m220.794 172.661-14.967-21.459c-2.778-3.968-4.45-8.645-4.45-14.117v-5.131c0-5.159 2.636-7.767 7.767-7.767h93.743c5.103 0 7.768 2.608 7.768 7.767v5.131c0 5.471-1.701 10.148-4.45 14.117l-14.969 21.459z"/></g><path d="m446.378 173.398c24.633 0 44.702-20.098 44.702-44.732 0-24.605-20.069-44.703-44.702-44.703-24.635 0-44.732 20.098-44.732 44.703 0 24.634 20.098 44.732 44.732 44.732z" fill="#fff0af"/><path d="m446.378 173.398c24.69 0 44.702-20.042 44.702-44.732 0-18.652-11.424-34.611-27.638-41.33 2.183 5.273 3.373 11.027 3.373 17.065 0 24.69-20.013 44.731-44.703 44.731-6.066 0-11.82-1.219-17.064-3.401 6.69 16.243 22.677 27.667 41.33 27.667z" fill="#ffe07d"/><path d="m388.239 266.97h-48.474v24.265l21.458 14.967c3.969 2.75 8.676 4.45 14.146 4.45h5.103c5.158 0 7.767-2.665 7.767-7.767z" fill="#ede9fb"/><path d="m123.79 266.517h48.474v24.265l-21.487 14.967c-3.94 2.75-8.646 4.451-14.116 4.451h-5.131c-5.131 0-7.739-2.665-7.739-7.767v-35.916z" fill="#ede9fb"/><path d="m266.97 388.664v-48.474h24.265l14.969 21.458c2.749 3.969 4.45 8.674 4.45 14.145v5.102c0 5.159-2.665 7.768-7.768 7.768h-35.916z" fill="#ede9fb"/></g><path d="m82.631 228.277c-4.138 0-7.512-3.345-7.512-7.483 0-4.139 3.373-7.512 7.512-7.512h33.648v-11.905c0-4.139 3.345-7.512 7.512-7.512h20.637c1.474 0 2.976.481 4.281 1.389l25.852 18.029h38.722v-38.723l-18.029-25.853c-.878-1.275-1.389-2.749-1.389-4.28v-20.637c0-4.167 3.373-7.512 7.512-7.512h11.906v-108.766c0-4.139 3.373-7.512 7.512-7.512h70.441c4.14 0 7.484 3.373 7.484 7.512v108.767h11.935c4.138 0 7.483 3.345 7.483 7.512v20.637c0 1.843-.652 3.515-1.758 4.819l-17.66 25.314v38.722h38.75l25.852-18.029c1.248-.879 2.75-1.389 4.281-1.389h20.637c4.139 0 7.483 3.373 7.483 7.512v11.905h28.602v-37.276c-5.556-2.58-10.602-6.123-14.882-10.403-9.439-9.468-15.278-22.507-15.278-36.936 0-14.4 5.839-27.468 15.278-36.907 9.468-9.44 22.507-15.308 36.936-15.308 14.399 0 27.468 5.868 36.907 15.308 9.468 9.439 15.307 22.507 15.307 36.907 0 14.429-5.839 27.468-15.307 36.936-4.28 4.28-9.298 7.824-14.854 10.403v37.276h36.085c4.139 0 7.483 3.373 7.483 7.512v70.442c0 4.138-3.345 7.483-7.483 7.483h-41.159c-4.139 0-7.483-3.345-7.483-7.483 0-4.139 3.345-7.512 7.483-7.512h33.647v-55.447c-33.761 0-67.522 0-101.283 0v55.447h33.676c4.139 0 7.483 3.374 7.483 7.512s-3.345 7.483-7.483 7.483h-33.676v11.934c0 4.139-3.345 7.484-7.483 7.484h-20.637c-1.842 0-3.544-.652-4.848-1.757l-25.285-17.66h-38.75v38.75l17.66 25.285c1.105 1.304 1.758 3.005 1.758 4.848v20.637c0 4.138-3.346 7.483-7.483 7.483h-11.935v108.795c0 4.139-3.345 7.483-7.484 7.483h-70.441c-4.139 0-7.512-3.345-7.512-7.483v-108.796h-11.906c-4.139 0-7.512-3.345-7.512-7.483v-20.637c0-1.474.482-2.977 1.389-4.28l18.029-25.853v-38.75h-38.722l-25.314 17.66c-1.304 1.105-2.976 1.757-4.819 1.757h-20.637c-4.167 0-7.512-3.345-7.512-7.484v-11.934h-43.143v19.021c11.423 1.644 21.657 7.001 29.424 14.769 7.795 7.767 13.125 18.001 14.769 29.424h6.463c4.139 0 7.484 3.345 7.484 7.483 0 4.167-3.345 7.512-7.484 7.512h-50.656v2.608c0 4.139-3.345 7.512-7.484 7.512-4.166 0-7.512-3.374-7.512-7.512v-2.608h-50.627c-4.139 0-7.512-3.345-7.512-7.512 0-4.138 3.374-7.483 7.512-7.483h6.463c1.616-11.423 6.974-21.657 14.741-29.424 7.795-7.767 18-13.124 29.424-14.769v-19.021h-50.628c-4.139 0-7.512-3.345-7.512-7.483v-70.442c0-4.139 3.374-7.512 7.512-7.512h41.131c4.139 0 7.512 3.373 7.512 7.512s-3.374 7.483-7.512 7.483h-33.647v55.447h101.283v-55.447h-33.648zm-9.496 104.685v28.971h28.971c-1.503-7.285-5.103-13.777-10.149-18.822-5.045-5.047-11.537-8.647-18.822-10.149zm-14.995 28.97v-28.971c-7.257 1.503-13.777 5.103-18.822 10.148-5.046 5.045-8.646 11.537-10.148 18.822h28.97zm381.179-148.65h14.117v-32.4h-7.058-7.059zm3.062-78.266c-3.486-2.211-4.535-6.831-2.324-10.318 2.183-3.515 6.803-4.564 10.289-2.353l13.777 8.675c3.486 2.211 4.535 6.832 2.324 10.318-2.183 3.487-6.804 4.536-10.29 2.353zm3.997 30.87c10.261 0 19.587-4.167 26.306-10.886 6.746-6.746 10.913-16.044 10.913-26.334 0-10.262-4.167-19.559-10.913-26.306-6.719-6.747-16.045-10.886-26.306-10.886-10.291 0-19.589 4.139-26.307 10.886-6.746 6.746-10.913 16.044-10.913 26.306 0 10.29 4.167 19.588 10.913 26.334 6.719 6.719 16.016 10.886 26.307 10.886zm-315.104 137.255h10.829l22.65-15.789v-62.703l-22.65-15.789h-10.829zm93.375 44.107-15.789 22.649v10.828h94.281v-10.828l-15.789-22.649zm-15.789-205.145 15.789 22.648h62.703l15.789-22.648v-10.828c-31.437 0-62.845 0-94.281 0zm161.039 66.757-22.65 15.789v62.703l22.65 15.789h10.828c0-31.437 0-62.845 0-94.281zm-149.105 19.417h-41.046v55.447h41.046c4.139 0 7.483 3.374 7.483 7.512v41.017h55.446v-41.017c0-4.139 3.373-7.512 7.512-7.512h41.018v-55.447h-41.018c-4.139 0-7.512-3.345-7.512-7.483v-41.046h-55.446v41.046c0 4.138-3.344 7.483-7.483 7.483zm7.483-213.282v101.283h55.446v-101.283zm55.446 482.01v-101.283h-55.446v101.283z"/></g></svg>