<svg id="Capa_1" enable-background="new 0 0 512 512" height="512" viewBox="0 0 512 512" width="512" xmlns="http://www.w3.org/2000/svg"><g><g clip-rule="evenodd" fill-rule="evenodd"><path d="m358.941 176.998h77.5v241.033h-77.5z" fill="#e0dbee"/><path d="m479.614 496.75v-65.85c0-12.19-9.979-22.139-22.139-22.139h-238.823l-61.114 5.329-53.463-5.329h-49.522c-12.188 0-22.139 9.978-22.139 22.139v65.85c0 4.252 3.487 7.767 7.767 7.767h431.665c4.253 0 7.768-3.515 7.768-7.767z" fill="#0c5e7f"/><path d="m124.854 7.512h73.021c4.28 0 7.767 3.486 7.767 7.767v34.073c0 4.252-3.486 7.768-7.767 7.768h-73.021c-4.28 0-7.768-3.516-7.768-7.768v-34.074c0-4.28 3.487-7.766 7.768-7.766z" fill="#e0dbee"/><path d="m177.976 283.241v41.33c0 9.128-7.483 16.583-16.611 16.583-9.127 0-16.612-7.455-16.612-16.583v-41.33z" fill="#d3cee5"/><path d="m137.042 110.241h48.643c4.28 0 7.767 3.515 7.767 7.767v162.342c0 4.252-3.486 7.767-7.767 7.767h-48.643c-4.28 0-7.767-3.515-7.767-7.767v-162.343c0-4.252 3.487-7.766 7.767-7.766z" fill="#ede9fb"/><path d="m457.476 44.589h-21.034l-143.493 8.391-131.585-8.391h-62.533c-12.188 0-22.139 9.949-22.139 22.139v52.016c0 5.074 2.75 7.738 7.767 7.738h161.577c30.274 0 55.418 22.791 59.273 52.045.652 4.904 3.146 7.739 8.277 7.739h158.26c5.244 0 7.768-2.863 7.768-7.767v-111.77c0-12.19-9.978-22.14-22.138-22.14z" fill="#d57080"/><path d="m436.441 44.589v14.939c0 12.189-9.979 22.139-22.139 22.139h-230.8c-12.189 0-22.139-9.95-22.139-22.139v-14.939z" fill="#ffe07d"/><path d="m218.652 408.761v14.939c0 12.189-9.977 22.139-22.139 22.139h-70.3c-12.161 0-22.139-9.95-22.139-22.139v-14.939z" fill="#b1e4f9"/><path d="m118.22 161.917h86.288c4.28 0 7.767 3.487 7.767 7.768v75.232c0 4.28-3.486 7.767-7.767 7.767h-86.288c-4.28 0-7.767-3.487-7.767-7.767v-75.232c0-4.281 3.486-7.768 7.767-7.768z" fill="#e0dbee"/><path d="m188.01 161.917h16.498c4.28 0 7.767 3.487 7.767 7.768v75.232c0 4.28-3.486 7.767-7.767 7.767h-86.288c-4.28 0-7.767-3.487-7.767-7.767v-16.498h58.14c10.686 0 19.417-8.731 19.417-19.417z" fill="#d3cee5"/><path d="m397.691 374.433c42.379 0 76.934-34.555 76.934-76.905 0-42.378-34.555-76.934-76.934-76.934s-76.933 34.555-76.933 76.934c.001 42.35 34.554 76.905 76.933 76.905z" fill="#faf8f9"/><path d="m438.596 232.358c21.63 13.607 36.029 37.702 36.029 65.17 0 42.463-34.44 76.905-76.934 76.905-27.468 0-51.562-14.372-65.169-36.029 11.849 7.456 25.88 11.765 40.904 11.765 42.491 0 76.934-34.441 76.934-76.933 0-15.025-4.308-29.028-11.764-40.878z" fill="#ede9fb"/><path d="m431.056 480.251h-398.642v16.499c0 4.252 3.487 7.767 7.767 7.767h431.665c4.252 0 7.768-3.515 7.768-7.767v-65.85c0-12.19-9.979-22.139-22.139-22.139h-2.154v47.226c0 13.323-10.914 24.264-24.265 24.264z" fill="#174b67"/><path d="m326.484 162.002c-10.545-34.838-43.002-59.784-80.448-59.784-56.438 0-112.905 0-169.344 0v16.526c0 5.074 2.75 7.738 7.767 7.738h161.577c30.274 0 55.418 22.791 59.273 52.045.652 4.904 3.146 7.739 8.277 7.739h158.26c5.244 0 7.768-2.863 7.768-7.767v-111.77c0-12.19-9.979-22.139-22.139-22.139h-2.154c0 39.147-.34 54.001 0 93.148.17 16.838-8.249 24.265-24.266 24.265h-104.571z" fill="#cb5769"/></g><path d="m487.098 439.971c0 4.139-3.345 7.483-7.483 7.483-4.167 0-7.512-3.345-7.512-7.483v-9.071c0-4.025-1.645-7.682-4.309-10.346-2.665-2.637-6.322-4.281-10.318-4.281-77.132 0-154.235 0-231.339 0v7.427c0 8.164-3.316 15.562-8.703 20.948-5.357 5.358-12.784 8.703-20.92 8.703h-70.3c-8.164 0-15.562-3.345-20.92-8.703-5.386-5.386-8.702-12.784-8.702-20.948v-7.427h-42.039c-4.024 0-7.682 1.644-10.347 4.281-2.664 2.665-4.309 6.321-4.309 10.346v66.105h432.205v-23.075c0-4.138 3.345-7.483 7.512-7.483 4.139 0 7.483 3.345 7.483 7.483v30.586c0 4.139-3.345 7.483-7.483 7.483h-447.2c-4.138 0-7.512-3.345-7.512-7.483v-73.616c0-8.164 3.345-15.562 8.702-20.948 5.357-5.357 12.785-8.703 20.948-8.703h296.905v-33.081c-4.876-3.175-9.383-6.86-13.465-10.942-15.279-15.279-24.746-36.397-24.746-59.698 0-23.33 9.467-44.448 24.746-59.727 4.082-4.082 8.589-7.738 13.465-10.941v-33.081h-45.639c-4.138 0-7.512-3.373-7.512-7.512 0-14.372-5.868-27.439-15.364-36.907-9.468-9.468-22.535-15.364-36.907-15.364h-45.1v20.41h11.338c4.139 0 7.513 3.374 7.513 7.512v28.404c0 4.139-3.374 7.483-7.513 7.483s-7.483-3.345-7.483-7.483v-20.891c-28.97 0-57.911 0-86.854 0v75.742h86.854v-20.893c0-4.139 3.345-7.483 7.483-7.483s7.513 3.345 7.513 7.483v28.404c0 4.138-3.374 7.512-7.513 7.512h-11.338v27.922c0 4.139-3.346 7.483-7.484 7.483h-7.993v28.97c0 6.633-2.693 12.643-7.059 17.008-4.365 4.366-10.403 7.087-17.036 7.087s-12.671-2.722-17.037-7.087c-4.365-4.365-7.059-10.375-7.059-17.008v-28.97h-7.993c-4.139 0-7.512-3.345-7.512-7.483v-27.922h-11.311c-4.139 0-7.512-3.374-7.512-7.512v-90.767c0-4.138 3.373-7.512 7.512-7.512h11.311v-20.41h-45.07c-4.14 0-7.513-3.345-7.513-7.512v-59.754c0-8.164 3.345-15.563 8.703-20.949 5.357-5.357 12.784-8.702 20.948-8.702h10.743v-29.566c0-4.139 3.373-7.512 7.512-7.512h88.556c4.139 0 7.483 3.373 7.483 7.512v29.566h68.77c4.167 0 7.512 3.373 7.512 7.512s-3.345 7.483-7.512 7.483c-37.673 0-75.346 0-113.018 0v7.456c0 4.025 1.644 7.682 4.28 10.318 2.665 2.664 6.321 4.309 10.347 4.309h230.8c3.997 0 7.653-1.645 10.318-4.309 2.664-2.637 4.309-6.293 4.309-10.318v-7.456h-113.047c-4.139 0-7.512-3.345-7.512-7.483 0-4.139 3.373-7.512 7.512-7.512h120.559 21.034c8.135 0 15.562 3.345 20.92 8.702 5.385 5.386 8.702 12.785 8.702 20.949v119.538c0 4.139-3.345 7.512-7.483 7.512h-35.688v33.081c4.876 3.203 9.383 6.86 13.465 10.941 15.278 15.28 24.718 36.397 24.718 59.727 0 23.301-9.439 44.419-24.718 59.698-4.082 4.082-8.589 7.767-13.465 10.942v33.081h13.55c8.135 0 15.562 3.345 20.92 8.703 5.385 5.386 8.702 12.785 8.702 20.948v9.071zm-72.569-309.292c-4.139 0-7.483-3.373-7.483-7.512s3.345-7.483 7.483-7.483h21.912c4.14 0 7.484 3.345 7.484 7.483 0 4.139-3.345 7.512-7.484 7.512zm-55.588 0c-4.139 0-7.483-3.373-7.483-7.512s3.345-7.483 7.483-7.483h21.912c4.139 0 7.484 3.345 7.484 7.483 0 4.139-3.346 7.512-7.484 7.512zm55.588 29.111c-4.139 0-7.483-3.345-7.483-7.483 0-4.167 3.345-7.512 7.483-7.512h21.912c4.14 0 7.484 3.345 7.484 7.512 0 4.139-3.345 7.483-7.484 7.483zm-55.588 0c-4.139 0-7.483-3.345-7.483-7.483 0-4.167 3.345-7.512 7.483-7.512h21.912c4.139 0 7.484 3.345 7.484 7.512 0 4.139-3.346 7.483-7.484 7.483zm10.461 120.05c-2.92-2.92-2.92-7.682 0-10.602 2.947-2.92 7.682-2.92 10.602 0l17.688 17.66 17.66-17.66c2.948-2.92 7.682-2.92 10.63 0 2.92 2.92 2.92 7.682 0 10.602l-17.688 17.688 17.688 17.66c2.92 2.919 2.92 7.682 0 10.602-2.948 2.948-7.682 2.948-10.63 0l-17.66-17.66-17.688 17.66c-2.92 2.948-7.654 2.948-10.602 0-2.92-2.92-2.92-7.682 0-10.602l17.688-17.66zm28.289 87.109c18.511 0 36.086-7.313 49.098-20.352 12.558-12.558 20.324-29.906 20.324-49.068 0-19.191-7.767-36.539-20.324-49.097-13.012-13.04-30.587-20.353-49.098-20.353-18.51 0-36.086 7.314-49.097 20.353-12.558 12.558-20.324 29.906-20.324 49.097 0 19.163 7.767 36.51 20.324 49.068 13.011 13.039 30.588 20.352 49.097 20.352zm-31.238 9.015v25.285h62.477v-25.285c-9.666 3.855-20.211 5.981-31.238 5.981s-21.572-2.126-31.239-5.981zm31.238-162.881c11.027 0 21.572 2.126 31.238 5.981v-25.285h-62.477v25.285c9.668-3.855 20.213-5.981 31.239-5.981zm-227.227 82.518h-18.199v28.97c0 2.495 1.021 4.763 2.665 6.406 1.673 1.673 3.94 2.693 6.435 2.693 2.494 0 4.763-1.021 6.434-2.693 1.645-1.644 2.665-3.912 2.665-6.406zm15.476-35.406h-49.153v20.41h49.153zm25.201 156.078h-99.554v7.427c0 4.025 1.645 7.682 4.309 10.346 2.637 2.636 6.293 4.309 10.318 4.309h70.3c3.997 0 7.653-1.673 10.318-4.309 2.665-2.665 4.309-6.321 4.309-10.346zm232.785-364.2v7.456c0 8.164-3.316 15.562-8.703 20.948-5.357 5.357-12.784 8.702-20.92 8.702h-230.8c-8.164 0-15.562-3.345-20.948-8.702-5.357-5.386-8.702-12.785-8.702-20.948v-7.456c-18.341 0-36.682 0-55.021 0-4.025 0-7.682 1.672-10.347 4.309-2.664 2.665-4.309 6.321-4.309 10.347v52.271h161.86c18.511 0 35.319 7.568 47.509 19.758 10.546 10.517 17.605 24.491 19.361 40.025h159.196v-112.054c0-4.025-1.645-7.682-4.309-10.347-2.665-2.637-6.322-4.309-10.318-4.309zm-245.796-37.078h-73.532v22.082h73.532zm-61.343 119v20.41h49.153v-20.41z"/></g></svg>