<svg id="Capa_1" enable-background="new 0 0 512 512" height="512" viewBox="0 0 512 512" width="512" xmlns="http://www.w3.org/2000/svg"><g><g clip-rule="evenodd" fill-rule="evenodd"><path d="m383.179 457.716 20.098-20.098c5.244-5.244 5.272-13.805.113-19.106l-11.85-11.849c14.202-19.984 24.095-43.229 28.318-68.401h16.611c7.484 0 13.579-6.123 13.579-13.606v-23.953l-195.848-11.169-192.249 11.169v23.953c0 7.484 6.095 13.606 13.579 13.606h16.611c4.224 25.172 14.116 48.417 28.318 68.401l-11.736 11.735c-5.271 5.273-5.271 13.947 0 19.219l20.098 20.098c5.301 5.301 13.947 5.301 19.22 0l11.736-11.735c19.984 14.202 43.256 24.095 68.429 28.347v16.583c0 7.484 6.095 13.606 13.578 13.606h28.432c7.483 0 13.578-6.123 13.578-13.606v-16.583c25.173-4.252 48.444-14.146 68.429-28.347l11.736 11.735c5.358 5.245 13.862 5.359 19.22.001z" fill="#0079a2"/><path d="m383.179 457.716 20.098-20.098c5.244-5.244 5.272-13.805.113-19.106l-11.85-11.849c14.202-19.984 24.095-43.229 28.318-68.401h16.611c7.484 0 13.579-6.123 13.579-13.606v-23.953h-52.81c-7.398 84.956-78.662 151.57-165.517 151.57-43.513 0-83.113-16.725-112.736-44.136l-10.262 10.262c-5.271 5.273-5.271 13.947 0 19.219l20.098 20.098c5.301 5.301 13.947 5.301 19.22 0l11.736-11.735c19.984 14.202 43.256 24.095 68.429 28.347v16.583c0 7.484 6.095 13.606 13.578 13.606h28.432c7.483 0 13.578-6.123 13.578-13.606v-16.583c25.173-4.252 48.444-14.146 68.429-28.347l11.736 11.735c5.358 5.244 13.862 5.358 19.22 0z" fill="#0c5e7f"/><path d="m339.042 300.703c0 45.865-37.162 83.056-83.027 83.056-45.895 0-83.057-37.19-83.057-83.056z" fill="#0c5e7f"/><path d="m339.042 300.703c0 45.865-37.162 83.056-83.027 83.056-29.169 0-54.795-15.023-69.62-37.729 13.039 8.504 28.602 13.465 45.327 13.465 37.445 0 69.081-24.747 79.456-58.791h27.864z" fill="#174b67"/><path d="m455.094 242.28v-63.781c0-79.541-65.084-144.625-144.625-144.625h-108.938c-79.541 0-144.625 65.084-144.625 144.625v63.781l199.363 10.686z" fill="#ffe07d"/><path d="m455.094 242.28v-63.781c0-45.921-21.714-87.025-55.333-113.557 19.418 24.633 31.068 55.673 31.068 89.292v39.516c0 16.64-8.56 24.265-24.293 24.265h-349.63v24.265z" fill="#ffd064"/><path d="m56.906 242.28h162.115c4.961 0 7.768-2.353 7.768-7.768v-200.637c0-14.485 13.152-26.363 29.226-26.363 16.044 0 29.196 11.878 29.196 26.363v200.638c0 5.131 2.608 7.768 7.768 7.768h162.115c14.514 0 26.363 13.153 26.363 29.225 0 16.073-11.85 29.198-26.363 29.198h-398.188c-14.485 0-26.363-13.125-26.363-29.198s11.878-29.226 26.363-29.226z" fill="#ffc250"/><path d="m260.89 7.88c13.748 2.098 24.321 13.012 24.321 25.995v200.638c0 5.131 2.608 7.768 7.768 7.768h-24.265c-5.159 0-7.768-2.636-7.768-7.768v-224.904c0-.567-.028-1.162-.056-1.729zm195.933 234.457c13.72 1.021 24.634 13.748 24.634 29.169 0 16.073-11.85 29.198-26.363 29.198h-398.188c-13.012 0-23.896-10.573-25.994-24.321.566.028 1.162.057 1.728.057h398.188c14.485 0 26.362-13.153 26.362-29.198.001-1.674-.112-3.318-.367-4.905z" fill="#ebb044"/></g><path d="m377.878 452.415 20.098-20.098c1.19-1.19 1.785-2.721 1.785-4.252 0-1.559-.566-3.146-1.758-4.337l-11.764-11.792c-2.636-2.637-2.891-6.718-.765-9.638 6.831-9.638 12.643-20.069 17.206-31.097 4.478-10.828 7.795-22.28 9.808-34.186.596-3.6 3.714-6.265 7.37-6.265h16.611c1.673 0 3.175-.68 4.31-1.786 1.105-1.105 1.786-2.636 1.786-4.309v-16.441h-96.323c-1.531 18.709-8.787 35.802-19.984 49.579-12.897 15.846-31.068 27.27-51.875 31.579-4.025.822-7.994-1.786-8.815-5.84-.822-4.054 1.785-7.994 5.839-8.816 17.319-3.572 32.486-13.096 43.258-26.362 9.07-11.169 15.023-24.974 16.525-40.14h-150.38c1.502 15.166 7.455 28.97 16.525 40.14 10.771 13.266 25.939 22.79 43.258 26.362 4.054.822 6.661 4.762 5.839 8.816-.821 4.054-4.79 6.662-8.815 5.84-20.807-4.309-38.978-15.733-51.875-31.579-11.197-13.777-18.453-30.87-19.984-49.579h-96.323v16.441c0 1.673.681 3.204 1.814 4.309 1.105 1.105 2.609 1.786 4.281 1.786h16.611c3.855 0 7.059 2.948 7.455 6.718 2.013 11.764 5.301 23.046 9.723 33.732 4.592 11.056 10.375 21.487 17.234 31.125 2.126 2.976 1.786 7.058-.793 9.638l-11.736 11.737c-2.381 2.381-2.353 6.236 0 8.617l20.098 20.098c1.191 1.19 2.75 1.757 4.309 1.757 1.616 0 3.176-.624 4.309-1.757l11.737-11.735c2.777-2.75 7.143-2.92 10.091-.482 9.524 6.718 19.814 12.415 30.671 16.923 10.828 4.479 22.28 7.824 34.186 9.808 3.827.651 6.492 4.082 6.236 7.852v16.129c0 1.673.737 3.203 1.843 4.309 1.105 1.105 2.608 1.786 4.28 1.786h28.432c1.672 0 3.175-.68 4.28-1.786 1.162-1.134 1.843-2.693 1.843-4.309v-16.583c0-3.657 2.636-6.804 6.236-7.398 11.906-1.984 23.358-5.33 34.186-9.808 11.026-4.564 21.458-10.375 31.124-17.235 2.948-2.098 7.059-1.786 9.638.794l11.737 11.735c1.076 1.134 2.806 1.786 4.365 1.786 1.531 0 3.061-.596 4.253-1.786zm-241.148-412.9c-1.786-3.713-.198-8.192 3.515-9.978 3.714-1.757 8.193-.198 9.95 3.515l.965 1.984c15.846-5.613 32.797-8.646 50.371-8.646h18.682c1.587-6.434 5.187-12.189 10.148-16.668 6.632-6.009 15.703-9.722 25.654-9.722 9.921 0 18.992 3.713 25.625 9.723 4.961 4.478 8.561 10.233 10.147 16.668h18.682c17.631 0 34.611 3.033 50.4 8.618l.936-1.956c1.757-3.713 6.236-5.272 9.95-3.515 3.713 1.786 5.301 6.265 3.515 9.978l-.567 1.191c16.13 7.568 30.729 17.887 43.201 30.36 12.188 12.189 22.337 26.42 29.849 42.123l2.297-1.162c3.685-1.871 8.164-.425 10.062 3.231 1.871 3.685.398 8.192-3.26 10.063l-3.288 1.672c5.839 16.101 9.015 33.449 9.015 51.506v57.204c6.435 1.588 12.188 5.188 16.667 10.149 6.01 6.633 9.724 15.732 9.724 25.653 0 9.922-3.714 18.993-9.724 25.625-5.612 6.236-13.237 10.318-21.685 10.971v16.554c0 5.811-2.381 11.084-6.18 14.911-3.826 3.827-9.1 6.179-14.911 6.179h-10.403c-2.211 10.772-5.442 21.175-9.553 31.153-4.224 10.148-9.354 19.815-15.307 28.857l7.54 7.54c3.996 4.082 5.98 9.468 5.953 14.826-.029 5.386-2.07 10.743-6.123 14.797l-20.098 20.098c-4.139 4.139-9.496 6.18-14.854 6.18-5.5 0-11.085-2.268-14.968-6.18l-7.371-7.342c-9.042 5.954-18.708 11.084-28.856 15.279-9.949 4.139-20.381 7.342-31.153 9.581v10.375c0 5.812-2.353 11.084-6.151 14.911-3.826 3.827-9.1 6.179-14.91 6.179h-28.432c-5.811 0-11.084-2.353-14.91-6.179-3.94-3.969-6.151-9.298-6.151-14.911v-10.375c-10.773-2.239-21.204-5.442-31.153-9.581-10.148-4.195-19.814-9.326-28.856-15.279l-7.342 7.342c-3.855 3.912-9.412 6.18-14.94 6.18-5.385 0-10.8-2.069-14.91-6.18l-20.098-20.098c-8.191-8.192-8.191-21.629 0-29.821l7.371-7.342c-5.953-9.071-11.084-18.737-15.308-28.886-4.11-9.95-7.342-20.353-9.553-31.125h-10.404c-5.812 0-11.084-2.353-14.911-6.179-3.799-3.827-6.18-9.099-6.18-14.911v-16.554c-8.447-.652-16.072-4.734-21.685-10.971-6.01-6.633-9.724-15.704-9.724-25.625s3.714-19.021 9.724-25.653c4.479-4.961 10.232-8.561 16.667-10.149v-57.204c0-16.838 2.807-33.109 7.938-48.359.368-1.049.737-2.07 1.105-3.118l-3.316-1.701c-3.656-1.871-5.131-6.378-3.26-10.063 1.898-3.657 6.378-5.102 10.062-3.231l2.297 1.19c4.535-9.411 9.979-18.312 16.215-26.533 2.522-3.26 7.2-3.912 10.488-1.389 3.288 2.495 3.911 7.201 1.417 10.489-5.727 7.512-10.715 15.647-14.797 24.265l38.239 19.645c3.685 1.871 5.131 6.378 3.26 10.035-1.87 3.685-6.378 5.131-10.034 3.26l-37.162-19.079c-.113.34-.227.652-.312.992-4.648 13.663-7.142 28.318-7.142 43.597v56.297h154.859v-193.41h-17.746c-15.363 0-30.133 2.522-43.852 7.2l21.175 44.051c1.785 3.714.227 8.192-3.516 9.95-3.713 1.786-8.163.227-9.949-3.515l-21.602-44.873c-10.487 4.904-20.238 11.084-29.111 18.369-3.175 2.637-7.881 2.183-10.517-1.021-2.607-3.175-2.154-7.88 1.021-10.516 9.779-8.022 20.551-14.883 32.145-20.297zm231.482 14.684-21.602 44.873c-1.786 3.742-6.236 5.301-9.949 3.515-3.742-1.757-5.301-6.236-3.515-9.95l21.174-44.023c-13.775-4.677-28.545-7.228-43.852-7.228h-17.746v79.711c0 4.139-3.373 7.512-7.512 7.512s-7.483-3.374-7.483-7.512v-87.222c0-5.046-2.353-9.695-6.095-13.097-3.968-3.572-9.496-5.783-15.618-5.783-6.151 0-11.68 2.211-15.647 5.783-3.742 3.402-6.066 8.051-6.066 13.097v208.405c0 4.139-3.373 7.512-7.512 7.512h-169.883c-5.046 0-9.695 2.325-13.097 6.095-3.571 3.94-5.782 9.467-5.782 15.619 0 6.124 2.211 11.651 5.782 15.62 3.401 3.742 8.051 6.094 13.097 6.094h398.188c5.046 0 9.695-2.353 13.097-6.094 3.571-3.969 5.782-9.496 5.782-15.62 0-6.151-2.211-11.679-5.782-15.619-3.401-3.77-8.051-6.095-13.097-6.095h-169.883c-4.139 0-7.483-3.373-7.483-7.512v-87.195c0-4.167 3.345-7.512 7.483-7.512 4.139 0 7.512 3.345 7.512 7.512v79.711h154.859v-56.297c0-15.591-2.636-30.586-7.482-44.589l-37.136 19.077c-3.656 1.871-8.164.425-10.034-3.26-1.871-3.657-.425-8.163 3.26-10.035l38.211-19.645c-6.804-14.315-16.016-27.298-27.099-38.381-11.283-11.281-24.492-20.607-39.09-27.467z"/></g></svg>