<svg id="Capa_1" enable-background="new 0 0 512 512" height="512" viewBox="0 0 512 512" width="512" xmlns="http://www.w3.org/2000/svg"><g><g clip-rule="evenodd" fill-rule="evenodd"><path d="m352.237 443.429h133.939v-238.538l-66.984-15.109-66.955 15.109z" fill="#fed1a3"/><path d="m164.865 286.615 28.432 9.212 23.527-9.212-9.411-230.318c-.198-4.961-2.976-7.739-8.079-7.739h-16.98c-4.847 0-7.88 2.92-8.079 7.739z" fill="#e0dbee"/><path d="m261.471 286.615 26.476 12.614 25.455-12.614-9.382-230.318c-.227-4.961-2.977-7.739-8.107-7.739h-16.979c-4.848 0-7.881 2.92-8.079 7.739z" fill="#e0dbee"/><path d="m162.938 335.399h55.815c4.28 0 7.767-3.515 7.767-7.767v-33.251c0-4.28-3.486-7.767-7.767-7.767h-55.815c-4.28 0-7.767 3.486-7.767 7.767v33.251c0 4.252 3.486 7.767 7.767 7.767z" fill="#0c5e7f"/><path d="m259.515 335.399h55.814c4.281 0 7.768-3.515 7.768-7.767v-33.251c0-4.28-3.487-7.767-7.768-7.767h-55.814c-4.252 0-7.767 3.486-7.767 7.767v33.251c0 4.252 3.515 7.767 7.767 7.767z" fill="#0c5e7f"/><path d="m261.471 286.615h51.931l-9.382-230.318c-.227-4.961-2.977-7.739-8.107-7.739h-15.505l8.334 204.097c.255 6.746-2.636 9.694-9.326 9.694h-16.952z" fill="#d3cee5"/><path d="m164.865 286.615h51.96l-9.411-230.318c-.198-4.961-2.976-7.739-8.079-7.739h-15.506l8.334 204.097c.255 6.746-2.637 9.694-9.326 9.694h-16.98z" fill="#d3cee5"/><path d="m148.367 448.871h285.396c4.28 0 7.767-3.486 7.767-7.767v-110.552c0-4.28-3.486-7.767-7.767-7.767h-285.396c-4.252 0-7.767 3.487-7.767 7.767v110.552c0 4.281 3.515 7.767 7.767 7.767z" fill="#ffefd6"/><path d="m15.279 463.442h481.471c4.252 0 7.767-3.487 7.767-7.767v-13.578c0-4.28-3.515-7.767-7.767-7.767h-481.471c-4.28 0-7.767 3.487-7.767 7.767v13.578c0 4.28 3.486 7.767 7.767 7.767z" fill="#b3e59f"/><path d="m103.721 261.612v68.94c0 4.252-3.486 7.767-7.767 7.767h-58.252c-4.252 0-7.739-3.515-7.739-7.767v-68.94c0-5.301 1.701-9.467 5.471-13.237l25.909-25.909c3.317-3.317 7.541-3.43 10.999 0l25.88 25.909c3.571 3.543 5.499 7.767 5.499 13.237z" fill="#d57080"/><path d="m103.721 261.612v68.94c0 4.252-3.486 7.767-7.767 7.767h-58.252c-4.252 0-7.739-3.515-7.739-7.767v-16.498h34.923c8.022 0 14.57-6.577 14.57-14.57v-69.903l18.765 18.794c3.572 3.543 5.5 7.767 5.5 13.237z" fill="#cb5769"/><path d="m29.963 273.263h73.758v33.733h-73.758z" fill="#ffe07d"/><g fill="#a0d8fd"><path d="m181.363 358.275h14.089c4.28 0 7.767 3.515 7.767 7.768v25.001c0 4.28-3.486 7.767-7.767 7.767h-14.089c-4.252 0-7.767-3.487-7.767-7.767v-25.001c0-4.253 3.515-7.768 7.767-7.768z"/><path d="m249.82 358.275h14.06c4.28 0 7.767 3.515 7.767 7.768v25.001c0 4.28-3.487 7.767-7.767 7.767h-14.06c-4.28 0-7.767-3.487-7.767-7.767v-25.001c.001-4.253 3.487-7.768 7.767-7.768z"/><path d="m318.249 358.275h14.088c4.252 0 7.767 3.515 7.767 7.768v25.001c0 4.28-3.515 7.767-7.767 7.767h-14.088c-4.28 0-7.767-3.487-7.767-7.767v-25.001c0-4.253 3.487-7.768 7.767-7.768z"/><path d="m386.679 358.275h14.088c4.281 0 7.768 3.515 7.768 7.768v25.001c0 4.28-3.486 7.767-7.768 7.767h-14.088c-4.252 0-7.767-3.487-7.767-7.767v-25.001c0-4.253 3.515-7.768 7.767-7.768z"/></g><path d="m397.592 243.188h14.089c4.28 0 7.767 3.486 7.767 7.767v24.974c0 4.281-3.487 7.767-7.767 7.767h-14.089c-4.252 0-7.738-3.486-7.738-7.767v-24.974c-.001-4.281 3.486-7.767 7.738-7.767z" fill="#00b5ff"/><path d="m140.6 410.065v24.265h300.929v-103.778c0-4.28-3.486-7.767-7.767-7.767h-16.498v67.862c0 10.658-8.731 19.418-19.418 19.418z" fill="#ffe6c1"/><path d="m461.911 204.352v186.295c0 11.509-9.184 19.418-20.382 19.418v24.265h44.646v-229.978z" fill="#ffbc85"/><path d="m103.721 306.996v-33.733h-24.265v26.221c0 2.75-.766 5.329-2.098 7.512z" fill="#ffd064"/><path d="m491.307 175.24h-144.2c-4.28 0-7.767 3.486-7.767 7.767v13.579c0 4.28 3.487 7.767 7.767 7.767h144.2c4.28 0 7.767-3.486 7.767-7.767v-13.579c0-4.28-3.487-7.767-7.767-7.767z" fill="#d57080"/></g><path d="m14.996 455.93h482.009v-14.117c-160.669 0-321.339 0-482.009 0v14.117zm476.565-273.206h-144.71v14.117h144.71zm-152.222-14.996h159.734c4.139 0 7.512 3.374 7.512 7.512v29.112c0 4.139-3.373 7.512-7.512 7.512h-5.386v34.583c0 4.139-3.374 7.512-7.512 7.512s-7.483-3.373-7.483-7.512v-34.583h-118.971v103.409h81.809c4.139 0 7.513 3.373 7.513 7.512v38.778c0 4.139-3.374 7.512-7.513 7.512-4.138 0-7.483-3.374-7.483-7.512v-31.295c-95.33 0-190.632 0-285.934 0v96.549h285.934v-31.295c0-4.139 3.345-7.483 7.483-7.483 4.139 0 7.513 3.345 7.513 7.483v31.295h29.65v-146.382c0-4.139 3.345-7.512 7.483-7.512s7.512 3.373 7.512 7.512v146.382h10.828c4.139 0 7.484 3.373 7.484 7.512v29.112c0 4.139-3.345 7.512-7.484 7.512h-497.004c-4.139 0-7.512-3.373-7.512-7.512v-29.111c0-4.139 3.374-7.512 7.512-7.512h24.633v-81.015h-2.183c-4.167 0-7.512-3.345-7.512-7.483 0-28.149 0-56.297 0-84.474 0-2.069.85-3.969 2.239-5.329l36.851-36.851c2.92-2.919 7.682-2.919 10.602 0l36.879 36.879c1.474 1.474 2.211 3.401 2.211 5.301v84.474c0 4.138-3.374 7.483-7.513 7.483h-2.211v81.015h31.607v-104.033c0-4.139 3.345-7.512 7.483-7.512h7.058v-28.658c0-4.139 3.374-7.483 7.513-7.483h2.522l9.411-230.289c.17-4.281 3.175-7.795 7.483-7.795h32.514c3.997 0 7.313 3.175 7.483 7.2l4.139 102.077c.17 4.11-3.033 7.597-7.172 7.767-4.11.142-7.597-3.062-7.767-7.2l-3.855-94.849h-18.17l-9.099 223.09h36.369l-3.855-94.282c-.142-4.139 3.061-7.597 7.172-7.767 4.138-.17 7.625 3.061 7.767 7.171l3.884 94.877h2.522c4.139 0 7.512 3.345 7.512 7.483v28.658h10.233v-28.658c0-4.139 3.345-7.483 7.483-7.483h2.551l9.382-230.289c.171-4.281 3.175-7.795 7.484-7.795h32.514c3.997 0 7.314 3.175 7.483 7.2l9.412 230.885h2.523c4.138 0 7.512 3.345 7.512 7.483v28.658h14.117v-103.41h-5.386c-4.138 0-7.512-3.373-7.512-7.512v-29.112c.003-4.138 3.376-7.512 7.514-7.512zm101.737 75.46c0-4.139 3.345-7.512 7.483-7.512 4.167 0 7.512 3.373 7.512 7.512v40.507c0 4.139-3.345 7.512-7.512 7.512-4.139 0-7.483-3.373-7.483-7.512zm-51.223-7.512h29.594c4.138 0 7.512 3.373 7.512 7.512v40.507c0 4.139-3.374 7.512-7.512 7.512h-29.594c-4.167 0-7.512-3.373-7.512-7.512v-40.507c.001-4.139 3.345-7.512 7.512-7.512zm22.082 14.995h-14.599v25.54h14.599zm-33.023 100.121h29.623c4.139 0 7.512 3.345 7.512 7.483v40.536c0 4.139-3.373 7.512-7.512 7.512h-29.623c-4.139 0-7.483-3.374-7.483-7.512v-40.536c-.001-4.138 3.344-7.483 7.483-7.483zm22.11 14.996h-14.599v25.512h14.599zm-90.54-14.996h29.623c4.139 0 7.483 3.345 7.483 7.483v40.536c0 4.139-3.345 7.512-7.483 7.512h-29.623c-4.139 0-7.483-3.374-7.483-7.512v-40.536c0-4.138 3.345-7.483 7.483-7.483zm22.111 14.996h-14.599v25.512h14.599zm-90.539-14.996h29.594c4.138 0 7.512 3.345 7.512 7.483v40.536c0 4.139-3.374 7.512-7.512 7.512h-29.594c-4.139 0-7.513-3.374-7.513-7.512v-40.536c0-4.138 3.374-7.483 7.513-7.483zm22.11 14.996h-14.627v25.512h14.627zm-90.568-14.996h29.623c4.139 0 7.512 3.345 7.512 7.483v40.536c0 4.139-3.373 7.512-7.512 7.512h-29.623c-4.138 0-7.483-3.374-7.483-7.512v-40.536c-.001-4.138 3.344-7.483 7.483-7.483zm22.11 14.996h-14.599v25.512h14.599zm-158.26-100.009h58.763v-8.815l-29.367-29.396-29.396 29.396zm58.763 48.728h-58.763v16.3h58.763zm0-33.732h-58.763v18.737h58.763zm-9.694 146.042v-10.204l-19.672-19.702-19.673 19.702v10.204zm0-31.436v-18.142l-9.071 9.071zm0-39.345v-10.233h-39.346v10.233l19.673 19.673zm-39.346 21.203v18.142l9.071-9.071zm258.438-98.108-9.1-223.09h-18.17l-9.099 223.09zm10.006 36.142v-21.146c-18.794 0-37.588 0-56.353 0v21.146zm-96.606 0v-21.146c-18.765 0-37.559 0-56.325 0v21.146z"/></g></svg>