<svg id="Capa_1" enable-background="new 0 0 512 512" height="512" viewBox="0 0 512 512" width="512" xmlns="http://www.w3.org/2000/svg"><g><g clip-rule="evenodd" fill-rule="evenodd"><path d="m260.195 413.962h85.295c4.28 0 7.767-3.486 7.767-7.767v-368.451c0-4.28-3.487-7.767-7.767-7.767h-85.295c-4.28 0-7.767 3.487-7.767 7.767v368.451c0 4.281 3.487 7.767 7.767 7.767z" fill="#e0dbee"/><path d="m15.279 203.062h69.733c4.28 0 7.767 3.486 7.767 7.767v21.43c0 4.281-3.487 7.768-7.767 7.768h-69.733c-4.28 0-7.767-3.487-7.767-7.768v-21.43c0-4.28 3.486-7.767 7.767-7.767z" fill="#b1e4f9"/><path d="m112.395 153.2-32.089 13.748c-4.762 2.041-7.115 5.981-7.115 10.828v87.535c0 5.329 2.58 8.872 7.115 10.829l32.089 13.748 13.578-71.803z" fill="#0c5e7f"/><path d="m140.402 108.384h317.144c5.386 0 9.751 2.013 13.238 5.5l28.233 28.233c3.628 3.628 5.499 8.079 5.499 13.267v132.351c0 5.697-2.296 10.035-5.499 13.238l-28.233 28.233c-3.6 3.6-7.994 5.499-13.238 5.499h-317.144c-15.392 0-28.006-12.614-28.006-28.006v-170.309c-.001-15.392 12.614-28.006 28.006-28.006z" fill="#90d8f9"/><path d="m480.251 123.323 18.766 18.794c3.628 3.628 5.499 8.079 5.499 13.267v132.351c0 5.697-2.296 10.035-5.499 13.238l-28.233 28.233c-3.6 3.6-7.994 5.499-13.238 5.499h-317.144c-14.145 0-25.909-10.63-27.752-24.265h299.654c37.361 0 67.947-30.586 67.947-67.947z" fill="#80b4fb"/><path d="m181.306 448.403v-21.912c0-4.989 1.701-9.468 5.471-13.266l28.233-28.233c3.515-3.487 8.107-5.471 13.267-5.471h149.161c5.159 0 9.723 1.984 13.238 5.471l28.234 28.233c3.798 3.798 5.499 8.277 5.499 13.266v21.912l-118.206 8.25z" fill="#90d8f9"/><path d="m181.306 448.403v-21.912c0-.794.028-1.587.113-2.353h199.307c10.686 0 19.417-8.731 19.417-19.418v-10.26l18.766 18.766c3.798 3.798 5.499 8.277 5.499 13.266v21.912h-243.102z" fill="#80b4fb"/><path d="m180.739 108.384h255.433v226.32h-255.433z" fill="#61a2f9"/><path d="m180.739 141.436h255.433v32.655h-255.433zm0 127.56h255.433v32.656h-255.433zm0-63.779h255.433v32.656h-255.433z" fill="#0c5e7f"/><path d="m162.796 448.403h280.094c9.241 0 16.81 7.569 16.81 16.81s-7.569 16.81-16.81 16.81h-280.094c-9.241 0-16.782-7.569-16.782-16.81s7.541-16.81 16.782-16.81z" fill="#d3cee5"/><path d="m180.739 310.44v24.265h255.433v-28.63c-7.427 2.807-15.477 4.366-23.868 4.366-77.188-.001-154.376-.001-231.565-.001z" fill="#5490f9"/><g fill="#d3cee5"><path d="m252.428 84.119v24.265h100.83v-70.64c0-4.28-3.487-7.767-7.767-7.767h-16.498v39.6c0 7.994-6.548 14.542-14.571 14.542z"/><path d="m252.428 334.704h100.83v24.265h-100.83z"/></g></g><path d="m497.004 238.524c0-4.139 3.374-7.484 7.512-7.484 4.139 0 7.484 3.345 7.484 7.484v56.977c0 2.069-.851 3.969-2.211 5.329l-39.175 39.175c-1.474 1.475-3.401 2.183-5.329 2.183-34.838 0-69.676 0-104.515 0v29.821h24.435c2.069 0 3.969.85 5.329 2.239l39.175 39.175c1.474 1.474 2.183 3.374 2.183 5.301v22.195h10.999c6.69 0 12.785 2.721 17.179 7.115 4.394 4.422 7.115 10.488 7.115 17.178s-2.721 12.784-7.115 17.178-10.488 7.144-17.179 7.144h-280.095c-6.69 0-12.756-2.75-17.15-7.144-4.422-4.394-7.144-10.488-7.144-17.178s2.721-12.756 7.144-17.178c4.394-4.394 10.46-7.115 17.15-7.115h10.999v-22.195c0-2.098.85-3.968 2.239-5.329l39.175-39.175c1.446-1.474 3.373-2.211 5.301-2.211h24.435v-29.821c-34.867 0-69.705 0-104.543 0-9.78 0-18.652-3.969-25.087-10.403-6.434-6.435-10.432-15.308-10.432-25.087v-11.877l-34.157-14.655c-2.948-1.02-5.046-3.799-5.046-7.087v-25.54h-58.168c-4.139 0-7.512-3.373-7.512-7.512v-36.964c0-4.139 3.373-7.512 7.512-7.512h58.168v-25.54c0-2.92 1.729-5.67 4.564-6.889l34.639-14.854v-11.878c0-9.751 3.998-18.652 10.432-25.087 6.435-6.407 15.307-10.403 25.087-10.403h104.543v-70.923c0-4.139 3.345-7.512 7.483-7.512h100.83c4.139 0 7.512 3.373 7.512 7.512v70.923h104.515c2.098 0 3.969.85 5.329 2.211l39.204 39.204c1.446 1.446 2.183 3.374 2.183 5.301v56.949c0 4.138-3.345 7.483-7.484 7.483-4.138 0-7.512-3.345-7.512-7.483v-53.859l-34.81-34.81h-18.539v211.297h18.539l34.81-34.81v-53.859zm-208.717-161.832c-4.139 0-7.512-3.373-7.512-7.512s3.373-7.512 7.512-7.512h29.14c4.139 0 7.484 3.373 7.484 7.512s-3.345 7.512-7.484 7.512zm-28.347 24.208h85.834v-63.44h-85.834zm-97.144 355.016c-2.551 0-4.876 1.049-6.548 2.749-1.701 1.673-2.75 3.997-2.75 6.548s1.049 4.876 2.75 6.577c1.672 1.672 3.997 2.721 6.548 2.721h280.094c2.551 0 4.875-1.049 6.577-2.721 1.672-1.701 2.721-4.025 2.721-6.577 0-2.551-1.049-4.875-2.721-6.548-1.701-1.7-4.025-2.749-6.577-2.749zm182.978-113.728h-85.834v29.821h85.834zm-280.094-109.645v-21.969h-50.684v21.969zm14.995 35.603 24.207 10.375v-113.954l-24.207 10.375zm244.775-119.198c-4.168 0-7.512-3.374-7.512-7.512 0-4.139 3.345-7.483 7.512-7.483h103.21v-18.057c-80.136 0-160.273 0-240.438 0v18.057h103.239c4.139 0 7.512 3.345 7.512 7.483s-3.373 7.512-7.512 7.512h-103.238v17.66h240.437v-17.66zm103.21 32.656h-240.437v16.101h240.437zm-255.433-65.708h-32.826c-5.641 0-10.772 2.296-14.485 6.038-3.713 3.713-6.038 8.844-6.038 14.456v16.81 136.688 16.809c0 5.612 2.324 10.743 6.038 14.485 3.713 3.713 8.844 6.009 14.485 6.009h32.826c0-70.44 0-140.854 0-211.295zm152.223 160.584c-4.168 0-7.512-3.345-7.512-7.484s3.345-7.512 7.512-7.512h103.21v-16.101h-240.437v16.101h103.239c4.139 0 7.512 3.373 7.512 7.512s-3.373 7.484-7.512 7.484h-103.239v17.66h240.437v-17.66zm103.21 32.655h-240.437v18.057h240.438v-18.057zm0-96.435h-240.437v17.688h240.437zm-239.87 209.143v19.077h228.107v-19.077l-34.81-34.838c-52.838 0-105.649 0-158.487 0z"/></g></svg>