<svg id="Capa_1" enable-background="new 0 0 512 512" height="512" viewBox="0 0 512 512" width="512" xmlns="http://www.w3.org/2000/svg"><g><g clip-rule="evenodd" fill-rule="evenodd"><path d="m87.245 102.617h206.435v61.255h-206.435z" fill="#e0dbee" transform="matrix(.707 -.707 .707 .707 -38.433 173.702)"/><path d="m139.126 227.88-12.132-12.133c48.643-48.643 97.314-97.315 145.958-145.958l12.16 12.133z" fill="#d3cee5"/><path d="m353.343 181.448 31.296-31.295-105.536-105.564-31.324 31.324z" fill="#e0dbee"/><path d="m346.625 174.758 12.132-12.132-105.535-105.536-12.132 12.134c35.178 35.177 70.356 70.356 105.535 105.534z" fill="#d3cee5"/><path d="m57.572 226.86h78.549v180.909h-78.549z" fill="#e0dbee"/><path d="m57.572 497.656h396.883c27.526 0 50.061-22.536 50.061-50.061 0-27.553-22.535-50.06-50.061-50.06h-396.883c-27.553 0-50.06 22.507-50.06 50.06 0 27.526 22.508 50.061 50.06 50.061z" fill="#0c5e7f"/><path d="m57.572 497.656h396.883c27.526 0 50.061-22.536 50.061-50.061 0-20.013-11.906-37.36-28.971-45.383 3.005 6.435 4.706 13.579 4.706 21.119 0 27.525-22.537 50.06-50.09 50.06h-396.853c-7.541 0-14.684-1.7-21.119-4.705 8.022 17.064 25.371 28.97 45.383 28.97z" fill="#174b67"/><path d="m57.572 468.544c11.538 0 20.949-9.411 20.949-20.949 0-11.537-9.411-20.948-20.949-20.948-11.537 0-20.948 9.411-20.948 20.948.001 11.538 9.412 20.949 20.948 20.949z" fill="#0079a2"/><path d="m454.455 468.544c11.509 0 20.921-9.411 20.921-20.949 0-11.537-9.412-20.948-20.921-20.948-11.537 0-20.947 9.411-20.947 20.948 0 11.538 9.41 20.949 20.947 20.949z" fill="#0079a2"/><path d="m136.122 397.536v-170.676h-24.265v126.994c0 10.659-8.731 19.418-19.418 19.418h-34.867v24.265h78.55z" fill="#d3cee5"/><path d="m96.861 288.457c33.931 0 61.598-27.667 61.598-61.598s-27.667-61.626-61.598-61.626-61.626 27.696-61.626 61.626c0 33.932 27.695 61.598 61.626 61.598z" fill="#faf8f9"/><path d="m126.569 172.888c18.992 10.488 31.89 30.7 31.89 53.972 0 34.016-27.582 61.598-61.598 61.598-23.272 0-43.513-12.87-54-31.89 8.815 4.847 18.935 7.625 29.708 7.625 34.044 0 61.625-27.581 61.625-61.597 0-10.774-2.778-20.921-7.625-29.708z" fill="#ede9fb"/><path d="m263.455 106.188c25.285 0 45.923-20.637 45.923-45.922 0-25.313-20.638-45.921-45.923-45.921-25.314 0-45.921 20.608-45.921 45.921 0 25.285 20.608 45.922 45.921 45.922z" fill="#faf8f9"/><path d="m281.427 18c16.44 7.002 27.951 23.273 27.951 42.265 0 25.342-20.581 45.922-45.923 45.922-18.992 0-35.263-11.509-42.265-27.922 5.528 2.353 11.594 3.657 17.972 3.657 25.37 0 45.922-20.581 45.922-45.922 0-6.406-1.305-12.471-3.657-18z" fill="#ede9fb"/><path d="m368.99 200.781c19.276 0 34.98-15.705 34.98-34.98 0-19.276-15.704-34.98-34.98-34.98s-34.979 15.704-34.979 34.98c0 19.275 15.703 34.98 34.979 34.98z" fill="#faf8f9"/><path d="m378.43 132.096c14.74 4.139 25.541 17.661 25.541 33.705 0 19.332-15.676 34.98-34.98 34.98-16.044 0-29.594-10.8-33.704-25.541 3.005.822 6.18 1.275 9.439 1.275 19.304 0 34.98-15.647 34.98-34.98-.001-3.259-.455-6.434-1.276-9.439z" fill="#ede9fb"/><path d="m327.235 262.35h83.481c4.28 0 7.768 3.486 7.768 7.767v83.481c0 4.28-3.487 7.768-7.768 7.768h-83.481c-4.252 0-7.767-3.487-7.767-7.768v-83.481c.001-4.281 3.515-7.767 7.767-7.767z" fill="#fed1a3"/><path d="m394.219 262.35h16.498c4.28 0 7.768 3.486 7.768 7.767v83.481c0 4.28-3.487 7.768-7.768 7.768h-83.481c-4.252 0-7.767-3.487-7.767-7.768v-16.497h55.332c10.688 0 19.418-8.731 19.418-19.418z" fill="#ffbc85"/></g><path d="m96.861 280.946c14.429 0 28.12-5.699 38.24-15.846 9.808-9.78 15.846-23.301 15.846-38.24 0-14.372-5.642-28.063-15.846-38.269-10.205-10.204-23.897-15.846-38.24-15.846-14.939 0-28.488 6.066-38.268 15.846-9.779 9.781-15.846 23.33-15.846 38.269s6.066 28.459 15.846 38.24c10.148 10.147 23.811 15.846 38.268 15.846zm309.207-94.395 72.397 59.358c3.345 2.749 3.629 7.71.709 10.885l-53.179 57.969v46.602c0 4.139-3.374 7.512-7.512 7.512h-99.016c-4.139 0-7.483-3.373-7.483-7.512v-46.602l-53.122-57.884c-2.948-3.231-2.778-8.164.651-10.97l72.398-59.358c-3.657-6.52-5.5-13.862-5.414-21.317l-52.584-52.582c-3.231.651-6.576.992-9.978 1.021l-38.014 38.013c-2.919 2.947-7.682 2.947-10.602 0-2.948-2.92-2.948-7.655 0-10.602l30.416-30.416c-7.625-2.665-14.485-7.031-20.069-12.643-5.613-5.584-9.95-12.416-12.643-20.041l-86.458 86.458c7.143 3.401 13.606 8.021 19.134 13.549 5.556 5.528 10.148 12.02 13.55 19.163l32.032-32.033c2.949-2.948 7.682-2.948 10.602 0 2.948 2.92 2.948 7.683 0 10.602l-37.304 37.334c.907 4.45 1.36 9.07 1.36 13.805 0 19.389-8.05 37.729-22.309 50.854v112.31h310.822c15.818 0 30.219 6.463 40.65 16.895 10.435 10.429 16.898 24.829 16.898 40.675s-6.463 30.218-16.895 40.649c-10.432 10.432-24.832 16.923-40.65 16.923h-396.883c-15.846 0-30.246-6.491-40.678-16.923-10.431-10.431-16.894-24.803-16.894-40.649s6.463-30.246 16.895-40.677c8.76-8.76 20.325-14.712 33.166-16.414v-37.587c0-4.167 3.374-7.512 7.512-7.512 4.139 0 7.484 3.345 7.484 7.512v37.106h63.582v-101.793c-9.524 4.932-20.325 7.738-31.777 7.738-11.48 0-22.28-2.807-31.805-7.738v30.7c0 4.138-3.346 7.512-7.484 7.512s-7.512-3.374-7.512-7.512v-41.217c-14.258-13.125-22.309-31.465-22.309-50.854 0-19.077 7.739-36.37 20.239-48.871 12.501-12.5 29.765-20.239 48.87-20.239 4.705 0 9.326.482 13.805 1.39l99.355-99.384c.142-14.542 6.095-27.723 15.647-37.275 9.667-9.667 23.018-15.648 37.786-15.648 14.74 0 28.092 5.981 37.759 15.648 9.666 9.666 15.647 23.017 15.647 37.785 0 3.573-.34 7.087-1.02 10.461l52.582 52.612c11.509-.17 22.479 4.309 30.615 12.416 7.682 7.71 12.444 18.312 12.444 30.047.001 7.539-1.983 14.597-5.413 20.749zm19.928 106.074 36.85-40.196-66.245-54.341c-7.427 6.35-17.065 10.205-27.61 10.205s-20.183-3.855-27.609-10.205l-66.275 54.341 36.88 40.196v-30.275c0-4.139 3.345-7.483 7.483-7.483h32.542c4.139 0 7.483 3.345 7.483 7.483s-3.345 7.512-7.483 7.512h-25.03v83.992h84.018v-83.992h-25.029c-4.14 0-7.484-3.373-7.484-7.512s3.345-7.483 7.484-7.483h32.514c4.138 0 7.512 3.345 7.512 7.483v30.275zm-74.864-165.376-40.989-41.018c-2.438 4.337-5.442 8.306-8.929 11.792s-7.456 6.491-11.793 8.929l41.018 40.99c2.098-4.535 4.989-8.674 8.504-12.188 3.515-3.488 7.624-6.408 12.189-8.505zm37.276 19.134c-4.961-4.989-11.821-8.051-19.418-8.051s-14.457 3.061-19.446 8.051c-4.96 4.96-8.05 11.821-8.05 19.417 0 7.597 3.09 14.457 8.05 19.445 4.989 4.961 11.85 8.051 19.446 8.051 7.597 0 14.457-3.09 19.418-8.051 4.989-4.988 8.051-11.849 8.051-19.445s-3.062-14.456-8.051-19.417zm-97.797-113.301c-6.945-6.945-16.555-11.254-27.156-11.254-10.63 0-20.239 4.309-27.184 11.254-6.945 6.973-11.254 16.554-11.254 27.184 0 10.602 4.309 20.212 11.254 27.157 6.945 6.944 16.554 11.254 27.184 11.254 10.177 0 19.899-3.997 27.156-11.254 7.256-7.257 11.254-16.979 11.254-27.157 0-10.631-4.308-20.212-11.254-27.184zm-233.039 457.091h396.883c11.68 0 22.339-4.819 30.049-12.53 7.71-7.71 12.501-18.34 12.501-30.047s-4.791-22.337-12.501-30.047c-7.71-7.739-18.369-12.529-30.049-12.529h-396.883c-11.707 0-22.337 4.79-30.047 12.529-7.739 7.71-12.529 18.34-12.529 30.047s4.791 22.337 12.529 30.047c7.71 7.711 18.34 12.53 30.047 12.53zm54.908-35.093c-4.139 0-7.484-3.345-7.484-7.484s3.345-7.512 7.484-7.512h13.606c4.138 0 7.483 3.373 7.483 7.512s-3.345 7.484-7.483 7.484zm266.97 0c-4.167 0-7.512-3.345-7.512-7.484s3.345-7.512 7.512-7.512h13.579c4.138 0 7.512 3.373 7.512 7.512s-3.374 7.484-7.512 7.484zm-53.405 0c-4.139 0-7.483-3.345-7.483-7.484s3.345-7.512 7.483-7.512h13.607c4.139 0 7.483 3.373 7.483 7.512s-3.345 7.484-7.483 7.484zm-53.377 0c-4.139 0-7.512-3.345-7.512-7.484s3.373-7.512 7.512-7.512h13.578c4.139 0 7.512 3.373 7.512 7.512s-3.373 7.484-7.512 7.484zm-53.405 0c-4.139 0-7.484-3.345-7.484-7.484s3.345-7.512 7.484-7.512h13.606c4.139 0 7.484 3.373 7.484 7.512s-3.345 7.484-7.484 7.484zm-53.377 0c-4.139 0-7.512-3.345-7.512-7.484s3.373-7.512 7.512-7.512h13.578c4.138 0 7.512 3.373 7.512 7.512s-3.374 7.484-7.512 7.484zm288.569-35.944c7.852 0 14.939 3.203 20.099 8.334 5.159 5.159 8.334 12.274 8.334 20.126s-3.175 14.967-8.334 20.098c-5.159 5.159-12.246 8.334-20.099 8.334-7.88 0-14.967-3.175-20.125-8.334-5.16-5.131-8.334-12.246-8.334-20.098s3.174-14.967 8.334-20.126c5.158-5.131 12.245-8.334 20.125-8.334zm9.496 18.935c-2.438-2.409-5.782-3.912-9.496-3.912-3.713 0-7.086 1.503-9.523 3.912-2.438 2.438-3.94 5.812-3.94 9.524 0 3.714 1.502 7.059 3.94 9.497s5.811 3.94 9.523 3.94c3.714 0 7.059-1.503 9.496-3.94 2.438-2.438 3.94-5.782 3.94-9.497.001-3.712-1.501-7.086-3.94-9.524zm-406.379-18.935c7.852 0 14.968 3.203 20.098 8.334 5.159 5.159 8.334 12.274 8.334 20.126s-3.175 14.967-8.334 20.098c-5.13 5.159-12.246 8.334-20.098 8.334s-14.967-3.175-20.126-8.334c-5.13-5.131-8.333-12.246-8.333-20.098s3.203-14.967 8.333-20.126c5.159-5.131 12.274-8.334 20.126-8.334zm9.497 18.935c-2.409-2.409-5.783-3.912-9.497-3.912-3.713 0-7.086 1.503-9.496 3.912-2.438 2.438-3.94 5.812-3.94 9.524 0 3.714 1.502 7.059 3.94 9.497 2.41 2.438 5.783 3.94 9.496 3.94s7.087-1.503 9.497-3.94c2.438-2.438 3.94-5.782 3.94-9.497 0-3.712-1.502-7.086-3.94-9.524z"/></g></svg>