<svg id="Capa_1" enable-background="new 0 0 512 512" height="512" viewBox="0 0 512 512" width="512" xmlns="http://www.w3.org/2000/svg"><g><g clip-rule="evenodd" fill-rule="evenodd"><path d="m405.671 274.17 93.006 81.837c3.459 3.033 5.84 7.314 5.84 12.898v121.438c0 5.811-2.381 7.767-7.768 7.767h-151.995l-124.301-109.39 130.14-114.549c18.567-16.329 37.475-15.506 55.078-.001z" fill="#fed1a3"/><path d="m480.252 339.793 18.425 16.214c3.459 3.033 5.84 7.314 5.84 12.898v121.438c0 5.811-2.381 7.767-7.768 7.767h-151.995l-27.581-24.265h138.813c13.322 0 24.266-10.941 24.266-24.293z" fill="#ffbc85"/><path d="m192.588 364.2 152.166 133.91h-168.635-160.84c-4.054 0-5.273-2.211-1.956-5.131l146.326-128.779c11.112-9.78 22.394-9.27 32.939 0z" fill="#ffefd6"/><path d="m38.637 118.263h176.176c8.136 0 14.797 6.662 14.797 14.797s-6.661 14.797-14.797 14.797h-176.176c-8.136 0-14.797-6.662-14.797-14.797s6.661-14.797 14.797-14.797z" fill="#da8993"/><path d="m96.635 255.972h60.18v65.169h-60.18z" fill="#0c5e7f"/><path d="m96.635 92.043h60.18c8.022 0 14.57 6.548 14.57 14.57v139.778c0 8.022-6.548 14.57-14.57 14.57h-60.18c-8.023 0-14.57-6.548-14.57-14.57v-139.779c-.001-8.022 6.547-14.569 14.57-14.569z" fill="#61a2f9"/><path d="m147.12 92.043h9.694c8.022 0 14.57 6.548 14.57 14.57v139.778c0 8.022-6.548 14.57-14.57 14.57h-60.18c-8.023 0-14.57-6.548-14.57-14.57v-9.695h45.639c10.658 0 19.417-8.731 19.417-19.417z" fill="#5490f9"/><path d="m111.204 321.141h31.041v124.017c0 5.188-1.843 9.78-5.272 13.437l-4.961 5.357c-3.288 3.543-7.116 3.742-10.574 0l-4.961-5.357c-3.09-3.316-5.272-7.909-5.272-13.437v-124.017z" fill="#e0dbee"/><path d="m96.635 260.96h60.18v24.265h-60.18z" fill="#174b67"/><path d="m111.204 328.426h31.041v24.265h-31.041z" fill="#d3cee5"/><path d="m317.173 473.845h-282.109l-21.741 19.134c-3.316 2.92-2.098 5.131 1.956 5.131h160.84 168.635z" fill="#ffe6c1"/></g><path d="m149.757 362.924 4.96-4.365c6.917-6.066 14.089-9.014 21.402-9.014 7.483 0 14.683 3.09 21.43 9.014l22.904 20.155 125.208-110.184c10.602-9.326 21.486-13.805 32.484-13.805 11.255 0 22.168 4.734 32.486 13.805l25.483 22.422c3.09 2.75 3.401 7.483.652 10.573-2.722 3.118-7.455 3.43-10.573.68l-25.455-22.422c-7.54-6.605-15.138-10.064-22.594-10.064-7.285 0-14.882 3.26-22.592 10.064l-123.76 108.937 29.084 25.569c3.089 2.749 3.401 7.483.68 10.573-2.749 3.118-7.483 3.43-10.602.681-21.09-18.567-42.209-37.135-63.326-55.73-3.912-3.458-7.796-5.272-11.509-5.272-3.6 0-7.483 1.729-11.509 5.272l-14.854 13.068v70.045c0 2.126-.907 4.082-2.354 5.443l-15.193 16.384c-2.977 3.203-8.052 3.175-10.999-.028l-15.506-16.725c-1.275-1.389-2.013-3.175-2.013-5.074v-29.48l-76.338 67.153h297.528l-48.417-42.604c-3.089-2.722-3.401-7.456-.68-10.574 2.749-3.118 7.483-3.401 10.573-.681l61.2 53.859h149.445v-126.087l-45.299-39.855c-3.118-2.75-3.401-7.484-.681-10.574 2.75-3.118 7.483-3.402 10.573-.68l47.85 42.123c1.645 1.418 2.552 3.458 2.552 5.613v136.971c0 4.139-3.345 7.483-7.483 7.483h-497.002c-4.138 0-7.512-3.345-7.512-7.483 0-2.353 1.077-4.45 2.778-5.839l100.914-88.811v-74.807h-15.306c-4.139 0-7.512-3.373-7.512-7.512 0-4.79 3.741-7.512 8.248-7.512v-46.489c-3.062-1.105-5.811-2.892-8.078-5.159-3.997-3.997-6.463-9.524-6.463-15.59v-91.021h-35.944c-6.151 0-11.735-2.523-15.761-6.549-4.054-4.025-6.548-9.609-6.548-15.76s2.494-11.707 6.548-15.761c4.025-4.025 9.609-6.548 15.761-6.548h35.944v-4.139c0-6.066 2.466-11.594 6.463-15.59 3.997-3.997 9.524-6.463 15.591-6.463h3.401v-15.59c-6.463 0-11.905-1.814-16.555-6.463-3.997-3.997-6.491-9.524-6.491-15.591v-18.456c0-6.066 2.494-11.594 6.491-15.562 3.997-3.997 9.496-6.491 15.562-6.491h55.333c6.095 0 11.594 2.494 15.591 6.491 3.996 3.969 6.491 9.497 6.491 15.562v18.454c0 6.066-2.495 11.594-6.491 15.591-4.649 4.649-10.092 6.463-16.583 6.463v15.59h3.43c6.066 0 11.594 2.466 15.591 6.463s6.463 9.524 6.463 15.59v4.139h35.944c6.151 0 11.735 2.523 15.761 6.548 4.025 4.054 6.548 9.609 6.548 15.761 0 6.151-2.522 11.735-6.548 15.76-4.025 4.026-9.609 6.549-15.761 6.549h-35.944v34.243c0 4.139-3.345 7.484-7.483 7.484-4.139 0-7.512-3.345-7.512-7.484 0-27.666 0-55.333 0-83 0-1.928-.794-3.685-2.069-4.989-1.304-1.276-3.061-2.069-4.989-2.069-20.069 0-40.111 0-60.18 0-1.928 0-3.714.794-4.989 2.069-1.275 1.304-2.069 3.061-2.069 4.989v139.778c0 1.927.794 3.713 2.069 4.989s3.062 2.069 4.989 2.069h60.18c1.928 0 3.686-.793 4.989-2.069 1.275-1.275 2.069-3.061 2.069-4.989v-22.819c0-4.139 3.373-7.483 7.512-7.483s7.483 3.345 7.483 7.483v22.819c0 6.066-2.466 11.594-6.463 15.59-2.268 2.268-5.018 4.054-8.078 5.159v46.489c4.507 0 8.248 2.721 8.248 7.512 0 4.139-3.373 7.512-7.512 7.512h-15.307v34.273zm-75.176-222.551v-14.626h-35.944c-2.013 0-3.827.85-5.159 2.154-1.332 1.332-2.154 3.175-2.154 5.159 0 2.012.822 3.827 2.154 5.159 1.332 1.333 3.146 2.154 5.159 2.154zm104.287-14.626v14.626h35.944c2.013 0 3.827-.822 5.159-2.154s2.154-3.146 2.154-5.159c0-1.984-.822-3.827-2.154-5.159-1.332-1.304-3.146-2.154-5.159-2.154zm-60.18 202.906v121.353l8.022 8.646 8.051-8.646v-121.353zm-8.22-173.766c-4.139 0-7.513-3.373-7.513-7.512s3.374-7.483 7.513-7.483h32.514c4.139 0 7.512 3.345 7.512 7.483 0 4.139-3.373 7.512-7.512 7.512zm0 58.224c-4.139 0-7.513-3.345-7.513-7.483 0-4.139 3.374-7.512 7.513-7.512h32.514c4.139 0 7.512 3.373 7.512 7.512s-3.373 7.483-7.512 7.483zm0-29.112c-4.139 0-7.513-3.345-7.513-7.483 0-4.167 3.374-7.512 7.513-7.512h32.514c4.139 0 7.512 3.345 7.512 7.512 0 4.139-3.373 7.483-7.512 7.483zm-6.35 84.445v45.185h45.185v-45.185zm34.272-183.885v-23.075c0-4.139 3.373-7.512 7.512-7.512h8.476c1.956 0 3.714-.794 4.989-2.069 1.275-1.304 2.069-3.062 2.069-4.989v-18.454c0-1.927-.794-3.685-2.069-4.96-1.275-1.304-3.033-2.098-4.989-2.098h-55.334c-1.928 0-3.686.794-4.961 2.098-1.275 1.275-2.098 3.033-2.098 4.96v18.454c0 1.928.822 3.685 2.098 4.989 1.275 1.275 3.033 2.069 4.961 2.069h8.504c4.139 0 7.512 3.373 7.512 7.512v23.074h23.33z"/></g></svg>