<svg id="Capa_1" enable-background="new 0 0 512 512" height="512" viewBox="0 0 512 512" width="512" xmlns="http://www.w3.org/2000/svg"><g><g clip-rule="evenodd" fill-rule="evenodd"><path d="m314.905 379.393v-208.008c0-13.352 10.914-24.294 24.265-24.294h91.248c13.352 0 24.265 10.942 24.265 24.294v208.008z" fill="#e0dbee"/><path d="m314.905 362.611v-24.264h91.249c13.352 0 24.265-10.942 24.265-24.293v-166.963c13.352 0 24.265 10.942 24.265 24.294v191.227h-139.779z" fill="#d3cee5"/><path d="m245.994 254.866h-77.671v-130.083l3.941-31.011-3.941-31.125v-26.193c0-4.28 3.487-7.767 7.768-7.767h62.136c4.252 0 7.768 3.486 7.768 7.767v26.192l-3.94 31.125 3.94 31.011v130.084z" fill="#0c5e7f"/><path d="m117.186 254.866h-77.642v-130.083l3.912-31.011-3.912-31.125v-26.193c0-4.28 3.486-7.767 7.767-7.767h62.108c4.28 0 7.767 3.486 7.767 7.767v26.192l-3.912 31.125 3.912 31.011z" fill="#0c5e7f"/><path d="m15.279 483.312h366.609v-225.555c0-4.252-3.486-7.767-7.767-7.767h-358.842c-4.28 0-7.767 3.515-7.767 7.767v217.789c.001 5.64 2.467 7.766 7.767 7.766z" fill="#ffefd6"/><path d="m15.279 483.312h366.609v-225.555c0-4.252-3.486-7.767-7.767-7.767h-16.499v209.058h-350.109v16.497c0 5.641 2.466 7.767 7.766 7.767z" fill="#ffe6c1"/><path d="m496.75 483.312c4.252 0 7.767-3.486 7.767-7.767v-105.166c0-4.28-3.515-7.768-7.767-7.768h-392.49c-4.28 0-7.767 3.488-7.767 7.768v112.933z" fill="#fed1a3"/><path d="m138.219 426.676h324.543c4.28 0 7.767-3.486 7.767-7.767v-14.57c0-4.253-3.486-7.767-7.767-7.767h-324.543c-4.252 0-7.738 3.515-7.738 7.767v14.57c0 4.281 3.486 7.767 7.738 7.767z" fill="#b1e4f9"/><path d="m47.311 318.93h294.779c4.252 0 7.767-3.515 7.767-7.767v-14.57c0-4.28-3.515-7.767-7.767-7.767h-294.779c-4.28 0-7.767 3.486-7.767 7.767v14.57c0 4.252 3.487 7.767 7.767 7.767z" fill="#b1e4f9"/><path d="m245.994 249.99h-77.671v-24.265h33.989c10.658 0 19.389-8.73 19.389-19.417v-177.621h16.526c4.252 0 7.768 3.486 7.768 7.767v26.192l-3.94 31.125 3.94 31.011v125.208z" fill="#174b67"/><path d="m117.186 249.99h-77.642v-24.265h33.959c10.687 0 19.417-8.73 19.417-19.417v-177.621h16.498c4.28 0 7.767 3.486 7.767 7.767v26.192l-3.912 31.125 3.912 31.011v125.208z" fill="#174b67"/><path d="m168.323 62.646h77.671v62.137h-77.671z" fill="#d57080"/><path d="m39.544 62.646h77.642v62.137h-77.642z" fill="#d57080"/><path d="m96.493 459.048v24.264h400.257c4.252 0 7.767-3.486 7.767-7.767v-105.166c0-4.28-3.515-7.768-7.767-7.768h-16.499v72.172c0 13.351-10.941 24.265-24.265 24.265-119.849 0-239.671 0-359.493 0z" fill="#ffbc85"/><g fill="#cb5769"><path d="m221.701 62.646h24.293v62.137h-24.293z"/><path d="m92.921 62.646h24.265v62.137h-24.265z"/></g></g><path d="m137.964 419.164h34.838v-15.08h-34.838zm-90.936-364.001h62.675v-18.993h-62.675zm62.675 77.103h-62.675v110.241h62.675v-37.815c0-4.167 3.345-7.512 7.483-7.512 4.139 0 7.512 3.345 7.512 7.512v37.815h36.114c0-71.292 0-142.557 0-213.82 0-4.139 3.374-7.512 7.512-7.512h77.671c4.139 0 7.483 3.373 7.483 7.512v142.017c0 4.139-3.345 7.512-7.483 7.512-4.167 0-7.512-3.373-7.512-7.512v-38.438h-62.646v110.241h62.646v-37.815c0-4.167 3.345-7.512 7.512-7.512 4.139 0 7.483 3.345 7.483 7.512v37.815h53.916v-71.122c0-8.759 3.571-16.696 9.326-22.45 4.053-4.054 9.212-7.031 14.939-8.419v-14.684h-16.753c-4.139 0-7.512-3.373-7.512-7.512s3.373-7.483 7.512-7.483h139.778c4.139 0 7.512 3.345 7.512 7.483 0 4.139-3.373 7.512-7.512 7.512h-16.754v14.684c5.726 1.389 10.885 4.365 14.939 8.419 5.755 5.754 9.326 13.691 9.326 22.45v183.715h42.322c4.139 0 7.483 3.374 7.483 7.512v32.033c0 4.139-3.345 7.483-7.483 7.483-4.139 0-7.512-3.345-7.512-7.483v-24.548c-130.991 0-262.01 0-393 0v105.732h393v-47.225c0-4.139 3.373-7.483 7.512-7.483s7.483 3.345 7.483 7.483v54.709c0 4.139-3.345 7.513-7.483 7.513h-497.004c-4.139 0-7.513-3.374-7.513-7.513v-233.323c0-4.139 3.374-7.483 7.513-7.483h24.52v-117.724-96.096c0-4.139 3.373-7.512 7.512-7.512h77.642c4.139 0 7.512 3.373 7.512 7.512v142.017c0 4.139-3.373 7.512-7.512 7.512s-7.483-3.373-7.483-7.512v-38.438zm0-62.108h-62.675v47.113h62.675zm66.133-14.995h62.646v-18.993h-62.646zm62.646 14.995h-62.646v47.113h62.646zm184.424 55.673h-30.615v13.776h30.615zm-45.61 0h-30.615v13.776h30.615zm-295.317 170.506v15.08h45.1v-15.08zm-14.995 15.081v-15.08h-19.956v15.08zm255.433-15.081v15.08h19.928v-15.08zm-15.024 15.081v-15.08h-45.1v15.08zm-60.095 0v-15.08h-45.1v15.08zm-60.096 0v-15.08h-45.127v15.08zm.596 107.746h45.099v-15.08h-45.099zm60.096 0h45.099v-15.08h-45.099zm60.094 0h45.128v-15.08h-45.128zm60.124 0h45.1v-15.08h-45.1zm60.095 0h34.838v-15.08h-34.838zm18.992-64.064v-183.715c0-4.621-1.899-8.815-4.933-11.849-3.062-3.033-7.257-4.933-11.849-4.933h-91.247c-4.593 0-8.787 1.899-11.849 4.933-3.033 3.033-4.904 7.228-4.904 11.849v71.122h59.471c4.139 0 7.483 3.345 7.483 7.483v105.11zm-358.218 120.729v-113.218c0-4.138 3.373-7.512 7.512-7.512h277.883v-97.598c-119.794 0-239.587 0-359.38 0v218.327h73.985zm260.875-149.416c-103.437 0-206.874 0-310.312 0-4.139 0-7.512-3.345-7.512-7.483v-30.104c0-4.139 3.373-7.483 7.512-7.483h310.312c4.139 0 7.483 3.345 7.483 7.483v30.104c.001 4.138-3.344 7.483-7.483 7.483zm120.673 107.746c-113.359 0-226.717 0-340.048 0-4.167 0-7.512-3.345-7.512-7.483v-30.104c0-4.139 3.345-7.484 7.512-7.484h340.048c4.139 0 7.512 3.346 7.512 7.484v30.104c-.001 4.139-3.374 7.483-7.512 7.483z"/></g></svg>