<svg id="Capa_1" enable-background="new 0 0 512 512" height="512" viewBox="0 0 512 512" width="512" xmlns="http://www.w3.org/2000/svg"><g><g clip-rule="evenodd" fill-rule="evenodd"><path d="m182.935 278.051h146.131c4.279 0 7.767 3.487 7.767 7.768v210.931c0 4.252-3.487 7.767-7.767 7.767h-146.131c-4.279 0-7.767-3.515-7.767-7.767v-210.931c0-4.281 3.487-7.768 7.767-7.768z" fill="#faf8f9"/><path d="m312.566 278.051h16.499c4.279 0 7.767 3.487 7.767 7.768v210.931c0 4.252-3.487 7.767-7.767 7.767h-146.13c-4.279 0-7.767-3.515-7.767-7.767v-16.499h113.134c13.323 0 24.265-10.941 24.265-24.265v-177.935z" fill="#ede9fb"/><path d="m169.273 153.211v-137.938c0-4.139-.624-7.597-6.577-3.656-45.895 30.359-76.226 82.405-76.226 141.594 0 93.631 75.886 169.516 169.545 169.516 93.63 0 169.516-75.885 169.516-169.516 0-59.161-30.274-111.234-76.197-141.565-5.755-3.799-6.605-.539-6.605 3.628v137.938h-173.456z" fill="#e0dbee"/><path d="m124.597 260.334c31.097 38.07 78.409 62.392 131.418 62.392 93.63 0 169.516-75.885 169.516-169.516 0-53.009-24.293-100.321-62.363-131.39 23.811 29.198 38.098 66.475 38.098 107.096 0 93.659-75.885 169.544-169.544 169.544-40.623.001-77.928-14.286-107.125-38.126z" fill="#d3cee5"/><path d="m219.56 76.333h36.455 36.426c5.329 0 9.496 2.721 11.905 6.888l36.427 63.101c2.636 4.536 2.636 9.185 0 13.749l-36.427 63.101c-2.551 4.422-6.689 6.889-11.905 6.889h-36.426-36.455c-5.216 0-9.354-2.466-11.905-6.889l-36.427-63.101c-2.636-4.564-2.607-9.213 0-13.749l36.427-63.101c2.409-4.167 6.604-6.888 11.905-6.888z" fill="#0c5e7f"/><path d="m331.107 129.597 9.666 16.725c2.636 4.536 2.636 9.185 0 13.749l-36.427 63.101c-2.551 4.422-6.689 6.889-11.905 6.889h-36.426-36.455c-5.216 0-9.354-2.466-11.905-6.889l-10.035-17.377h70.414c14.23 0 20.92-3.543 28.688-16.923z" fill="#174b67"/><path d="m256.015 182.606c16.186 0 29.396-13.209 29.396-29.396 0-16.215-13.21-29.425-29.396-29.425-16.215 0-29.425 13.21-29.425 29.425 0 16.187 13.21 29.396 29.425 29.396z" fill="#faf8f9"/><path d="m256.015 378.91c10.828 0 19.7 8.873 19.7 19.729v105.877h-39.43v-105.876c0-10.857 8.872-19.73 19.73-19.73z" fill="#e0dbee"/><path d="m236.285 480.251h39.43v24.266h-39.43z" fill="#d3cee5"/></g><path d="m299.358 70.579c2.976 0 5.556 1.729 6.774 4.224l29.112 50.429v-117.669c0-5.727 6.293-9.497 11.339-6.492 7.597 4.563 14.854 9.667 21.714 15.279 6.917 5.698 13.352 11.821 19.248 18.369 2.749 3.062 2.494 7.795-.567 10.573-3.09 2.75-7.823 2.523-10.573-.567-5.499-6.095-11.367-11.707-17.603-16.81-2.777-2.296-5.642-4.479-8.561-6.577v131.871c0 1.531-.482 2.976-1.275 4.195l-43.116 74.667c-1.332 2.296-3.798 3.742-6.49 3.742-28.915 0-57.8-.028-86.715-.028-2.692 0-5.158-1.417-6.49-3.713l-43.116-74.667c-.794-1.219-1.275-2.665-1.275-4.195v-131.87c-19.106 13.663-35.095 31.38-46.774 51.904-13.379 23.556-21.032 50.854-21.032 79.967 0 19.106 3.316 37.447 9.382 54.455 6.265 17.603 15.535 33.846 27.186 48.076 2.637 3.203 2.154 7.909-1.049 10.545-3.203 2.608-7.937 2.154-10.545-1.049-12.7-15.534-22.819-33.279-29.708-52.612-6.633-18.596-10.262-38.609-10.262-59.416 0-31.749 8.362-61.542 23.046-87.338 15.053-26.533 36.795-48.785 62.874-64.462 4.876-3.515 11.877-.085 11.877 6.095v117.725l29.397-50.911c1.389-2.381 3.911-3.742 6.49-3.742h86.712zm-43.372 300.848c7.512 0 14.315 3.061 19.248 7.994 4.933 4.904 7.994 11.736 7.994 19.219v98.365h46.093v-76.622c0-4.139 3.373-7.512 7.512-7.512s7.483 3.374 7.483 7.512v84.134c0 4.139-3.345 7.483-7.483 7.483-53.888 0-107.776 0-161.664 0-4.139 0-7.483-3.345-7.483-7.483v-197.863c-8.362-4.819-16.3-10.318-23.727-16.384-3.204-2.608-3.657-7.342-1.049-10.545 2.636-3.203 7.341-3.685 10.544-1.049 14.345 11.736 30.644 20.977 48.078 27.185 17.008 6.066 35.349 9.383 54.483 9.383 43.229 0 84.19-17.094 114.579-47.453 29.31-29.339 47.452-69.848 47.452-114.579 0-14.882-1.984-29.198-5.669-42.748-3.827-14.003-9.496-27.299-16.754-39.601-2.126-3.543-.936-8.136 2.638-10.233 3.543-2.098 8.135-.936 10.232 2.636 7.909 13.352 14.089 27.894 18.312 43.286 4.053 14.939 6.236 30.586 6.236 46.66 0 48.87-19.814 93.121-51.847 125.181-10.971 10.942-23.357 20.467-36.88 28.262v79.741c0 4.139-3.345 7.512-7.483 7.512-4.139 0-7.512-3.374-7.512-7.512v-72.002c-22.338 10.176-47.17 15.846-73.306 15.846-20.836 0-40.849-3.628-59.444-10.233-4.734-1.701-9.355-3.572-13.891-5.641v182.641h46.093v-98.367c0-7.483 3.061-14.315 7.994-19.219 4.934-4.933 11.738-7.994 19.221-7.994zm8.646 18.596c-2.24-2.239-5.273-3.6-8.646-3.6-3.345 0-6.377 1.361-8.617 3.6-2.211 2.211-3.571 5.272-3.571 8.617v98.365h24.406v-98.365c-.001-3.345-1.361-6.406-3.572-8.617zm-8.617-273.749c10.176 0 19.417 4.139 26.079 10.829 6.689 6.661 10.828 15.902 10.828 26.107 0 10.176-4.139 19.418-10.828 26.079-6.662 6.69-15.903 10.829-26.079 10.829-10.205 0-19.446-4.139-26.108-10.829-6.689-6.661-10.828-15.903-10.828-26.079 0-10.205 4.139-19.446 10.828-26.107 6.661-6.69 15.903-10.829 26.108-10.829zm15.476 21.431c-3.969-3.969-9.439-6.406-15.477-6.406-6.066 0-11.537 2.438-15.506 6.406s-6.407 9.44-6.407 15.506c0 6.038 2.438 11.508 6.407 15.478 3.969 3.969 9.439 6.406 15.506 6.406 6.037 0 11.508-2.438 15.477-6.406 3.97-3.969 6.407-9.44 6.407-15.478 0-6.066-2.437-11.538-6.407-15.506zm-54.54-52.131-39.062 67.637 39.062 67.636c26.052 0 52.046-.028 78.097-.028l39.062-67.607-39.062-67.637h-78.097z"/></g></svg>