<svg id="Capa_1" enable-background="new 0 0 512 512" height="512" viewBox="0 0 512 512" width="512" xmlns="http://www.w3.org/2000/svg"><g><g clip-rule="evenodd" fill-rule="evenodd"><path d="m192.788 143.775h303.962c4.252 0 7.767 3.487 7.767 7.768v281.625c0 4.28-3.515 7.767-7.767 7.767h-303.962c-4.282 0-7.768-3.486-7.768-7.767v-281.626c0-4.28 3.486-7.767 7.768-7.767z" fill="#ede9fb"/><path d="m480.251 143.775h16.499c4.252 0 7.767 3.487 7.767 7.768v281.625c0 4.28-3.515 7.767-7.767 7.767h-303.962c-4.282 0-7.768-3.486-7.768-7.767v-16.498h270.967c13.323 0 24.265-10.914 24.265-24.265v-248.63z" fill="#e0dbee"/><path d="m283.497 440.934v17.746c0 9.439-7.739 17.178-17.178 17.178h-41.216c-9.439 0-17.178-7.738-17.178-17.178v-17.746z" fill="#d57080"/><path d="m487.338 440.934v17.746c0 9.439-7.739 17.178-17.179 17.178h-41.215c-9.468 0-17.179-7.738-17.179-17.178v-17.746z" fill="#d57080"/><path d="m232.869 183.857h105.79c4.28 0 7.768 3.487 7.768 7.768v40.564c0 4.281-3.487 7.768-7.768 7.768h-105.79c-4.28 0-7.767-3.487-7.767-7.768v-40.564c0-4.281 3.486-7.768 7.767-7.768z" fill="#b1e4f9"/><path d="m322.162 183.857h16.497c4.28 0 7.768 3.487 7.768 7.768v40.564c0 4.281-3.487 7.768-7.768 7.768h-105.79c-4.28 0-7.767-3.487-7.767-7.768v-16.498h77.642c10.687 0 19.418-8.731 19.418-19.417z" fill="#90d8f9"/><path d="m436.371 239.956c15.449 0 28.063-12.587 28.063-28.035 0-15.477-12.614-28.063-28.063-28.063s-28.064 12.586-28.064 28.063c.001 15.449 12.615 28.035 28.064 28.035z" fill="#b3e59f"/><path d="m28.66 143.775c11.65 0 21.175 9.525 21.175 21.147v84.785c0 11.65-9.524 21.175-21.175 21.175-11.623 0-21.147-9.524-21.147-21.175v-84.785c0-11.622 9.524-21.147 21.147-21.147z" fill="#d57080"/><path d="m95.982 36.143h26.646c9.44 0 17.179 7.71 17.179 17.178 0 9.439-7.739 17.178-17.179 17.178h-26.646c-4.28 0-7.767-3.515-7.767-7.767v-18.823c.001-4.28 3.487-7.766 7.767-7.766z" fill="#61a2f9"/><path d="m456.667 308.668h-159.14c-4.28 0-7.767 3.487-7.767 7.767v53.179c0 4.28 3.486 7.767 7.767 7.767h159.14c4.28 0 7.767-3.486 7.767-7.767v-53.179c0-4.28-3.486-7.767-7.767-7.767z" fill="#61a2f9"/><path d="m456.667 308.668h-16.499v25.031c0 10.687-8.73 19.417-19.417 19.417h-130.99v16.499c0 4.28 3.486 7.767 7.767 7.767h159.14c4.28 0 7.767-3.486 7.767-7.767v-53.179c-.001-4.281-3.487-7.768-7.768-7.768z" fill="#5490f9"/><path d="m285.594 88.244h118.348c4.281 0 7.767-3.515 7.767-7.767v-25.711c0-4.252-3.486-7.767-7.767-7.767h-118.348c-4.28 0-7.767 3.515-7.767 7.767v25.711c0 4.252 3.487 7.767 7.767 7.767z" fill="#d57080"/></g><path d="m80.704 60.804h-17.689c-7.37 0-14.088 3.033-18.964 7.91-4.876 4.875-7.88 11.565-7.88 18.963v49.607c4.875 1.332 9.269 3.912 12.756 7.398 5.188 5.187 8.391 12.359 8.391 20.24v25.427c0 4.139-3.346 7.484-7.483 7.484-4.139 0-7.513-3.345-7.513-7.484v-25.427c0-3.742-1.53-7.143-4.024-9.638-2.467-2.466-5.896-3.997-9.638-3.997s-7.144 1.531-9.639 3.997c-2.466 2.495-4.024 5.896-4.024 9.638v84.785c0 3.77 1.559 7.171 4.024 9.667 2.496 2.466 5.897 3.997 9.639 3.997 3.741 0 7.171-1.531 9.638-3.997 2.494-2.495 4.024-5.896 4.024-9.667v-25.399c0-4.138 3.374-7.483 7.513-7.483 4.138 0 7.483 3.345 7.483 7.483v25.399c0 7.909-3.203 15.081-8.391 20.268-3.487 3.486-7.881 6.066-12.756 7.399v175.58c0 4.224 1.729 8.079 4.535 10.885 2.778 2.778 6.633 4.507 10.856 4.507h18.312c4.252 0 8.079-1.729 10.886-4.507 2.806-2.807 4.535-6.662 4.535-10.885v-52.668c0-8.362 3.401-15.987 8.929-21.487 5.5-5.5 13.097-8.929 21.459-8.929h61.824v-226.095c0-4.139 3.373-7.512 7.512-7.512h95.019v-40.536h-2.212c-4.139 0-7.512-3.345-7.512-7.483v-41.245c0-4.139 3.373-7.483 7.512-7.483h133.882c4.139 0 7.512 3.345 7.512 7.483v41.245c0 4.139-3.373 7.483-7.512 7.483h-2.211v40.536h95.019c4.139 0 7.483 3.373 7.483 7.512v131.586c0 4.139-3.345 7.512-7.483 7.512-4.139 0-7.512-3.373-7.512-7.512v-124.074c-101.482 0-202.992 0-304.474 0v218.582h46.858c4.138 0 7.512 3.373 7.512 7.512s-3.374 7.483-7.512 7.483h-46.858v48.558h304.474v-124.073c0-4.139 3.373-7.512 7.512-7.512s7.483 3.373 7.483 7.512v131.586c0 4.139-3.345 7.512-7.483 7.512h-9.694v10.233c0 6.803-2.778 12.954-7.229 17.433-4.479 4.479-10.658 7.256-17.434 7.256h-41.215c-6.804 0-12.983-2.777-17.434-7.256-4.478-4.479-7.257-10.63-7.257-17.433v-10.233h-113.245v10.233c0 6.803-2.777 12.954-7.257 17.433-4.45 4.479-10.63 7.256-17.433 7.256h-41.216c-6.803 0-12.954-2.777-17.433-7.256s-7.257-10.63-7.257-17.433v-10.233h-15.392c-4.139 0-7.512-3.373-7.512-7.512v-56.07h-61.824c-4.224 0-8.079 1.758-10.858 4.536-2.806 2.806-4.535 6.662-4.535 10.885v52.668c0 8.362-3.43 15.988-8.929 21.487s-13.097 8.929-21.487 8.929h-18.312c-8.362 0-15.959-3.43-21.486-8.929-5.499-5.499-8.902-13.125-8.902-21.487v-175.58c-4.903-1.333-9.269-3.913-12.756-7.399-5.187-5.187-8.419-12.359-8.419-20.268v-84.785c0-7.88 3.232-15.053 8.419-20.24 3.487-3.487 7.853-6.066 12.756-7.398v-49.607c0-11.537 4.706-21.997 12.275-29.566 7.597-7.597 18.057-12.302 29.565-12.302h17.689v-9.666c0-4.139 3.373-7.512 7.512-7.512h34.413c6.775 0 12.955 2.778 17.434 7.257 4.45 4.45 7.229 10.63 7.229 17.433 0 6.775-2.778 12.955-7.229 17.434-4.479 4.451-10.658 7.229-17.434 7.229h-34.413c-4.139 0-7.512-3.345-7.512-7.484zm313.798 34.923h-99.469v40.536h99.469zm-109.191-14.995h118.886v-26.221h-118.886zm171.611 235.448h-20.807v53.689h20.807zm-35.802 0h-19.361v53.689h19.361zm-34.356 0h-19.361v53.689h19.361zm-34.357 0h-19.332v53.689h19.332zm-34.356 0h-20.807v53.689h20.807zm-28.29-14.995h174.673c4.139 0 7.483 3.345 7.483 7.483v68.713c0 4.139-3.345 7.512-7.483 7.512h-174.673c-4.139 0-7.512-3.373-7.512-7.512v-68.713c0-4.138 3.374-7.483 7.512-7.483zm-167.133-257.559h-26.929v19.36h26.929c2.637 0 5.074-1.077 6.832-2.834 1.757-1.757 2.834-4.195 2.834-6.832 0-2.665-1.077-5.074-2.834-6.831-1.757-1.758-4.195-2.863-6.832-2.863zm102.474 306.911c-4.139 0-7.512-3.374-7.512-7.512 0-4.139 3.373-7.512 7.512-7.512h28.574c4.139 0 7.512 3.374 7.512 7.512s-3.373 7.512-7.512 7.512zm0-34.357c-4.139 0-7.512-3.374-7.512-7.512s3.373-7.483 7.512-7.483h28.574c4.139 0 7.512 3.345 7.512 7.483 0 4.139-3.373 7.512-7.512 7.512zm0-34.356c-4.139 0-7.512-3.373-7.512-7.512s3.373-7.483 7.512-7.483h28.574c4.139 0 7.512 3.345 7.512 7.483 0 4.139-3.373 7.512-7.512 7.512zm211.269-105.479c9.808 0 18.708 3.997 25.143 10.432s10.403 15.308 10.403 25.144c0 9.808-3.969 18.68-10.403 25.115-6.435 6.435-15.336 10.432-25.143 10.432-9.809 0-18.709-3.997-25.144-10.432-6.434-6.435-10.404-15.308-10.404-25.115 0-9.836 3.969-18.709 10.404-25.144s15.335-10.432 25.144-10.432zm14.542 21.034c-3.713-3.713-8.873-6.038-14.542-6.038-5.67 0-10.801 2.325-14.542 6.038-3.714 3.714-6.01 8.844-6.01 14.542 0 5.669 2.296 10.8 6.01 14.513 3.741 3.742 8.872 6.038 14.542 6.038 5.669 0 10.828-2.296 14.542-6.038 3.714-3.713 6.01-8.844 6.01-14.513-.001-5.698-2.297-10.828-6.01-14.542zm-182.129 35.093c4.139 0 7.483 3.346 7.483 7.484s-3.345 7.512-7.483 7.512h-43.682c-4.139 0-7.512-3.374-7.512-7.512v-56.099c0-4.139 3.373-7.512 7.512-7.512h121.325c4.139 0 7.512 3.374 7.512 7.512v56.099c0 4.138-3.373 7.512-7.512 7.512h-43.683c-4.139 0-7.483-3.374-7.483-7.512 0-4.139 3.345-7.484 7.483-7.484h36.2v-41.131h-106.33v41.131zm211.043 215.974h-60.578v10.233c0 2.665 1.105 5.074 2.863 6.832 1.758 1.757 4.167 2.835 6.832 2.835h41.215c2.637 0 5.074-1.077 6.832-2.835 1.758-1.757 2.835-4.167 2.835-6.832v-10.233zm-203.814 0h-60.577v10.233c0 2.665 1.077 5.074 2.835 6.832 1.757 1.757 4.167 2.835 6.831 2.835h41.216c2.664 0 5.074-1.077 6.831-2.835 1.758-1.757 2.863-4.167 2.863-6.832v-10.233z"/></g></svg>