<svg id="Capa_1" enable-background="new 0 0 512 512" height="512" viewBox="0 0 512 512" width="512" xmlns="http://www.w3.org/2000/svg"><g><g><g clip-rule="evenodd" fill-rule="evenodd"><path d="m95.84 7.512h320.32c4.28 0 7.767 3.487 7.767 7.767v481.47c0 4.253-3.486 7.768-7.767 7.768h-320.32c-4.28 0-7.767-3.515-7.767-7.768v-481.47c.001-4.281 3.487-7.767 7.767-7.767z" fill="#0c5e7f"/><path d="m125.236 475.121h261.527c4.28 0 7.767-3.487 7.767-7.767v-422.679c0-4.281-3.487-7.767-7.767-7.767h-261.527c-4.28 0-7.767 3.486-7.767 7.767v422.679c0 4.28 3.487 7.767 7.767 7.767z" fill="#faf8f9"/><path d="m125.236 475.121h261.527c4.28 0 7.767-3.487 7.767-7.767v-422.679c0-4.281-3.487-7.767-7.767-7.767h-16.498v389.683c0 13.352-10.914 24.265-24.265 24.265h-228.531v16.497c0 4.281 3.487 7.768 7.767 7.768z" fill="#ede9fb"/><path d="m159.196 75.715h32.712c4.252 0 7.767 3.515 7.767 7.767v32.712c0 4.28-3.515 7.767-7.767 7.767h-32.712c-4.28 0-7.767-3.486-7.767-7.767v-32.713c0-4.252 3.486-7.766 7.767-7.766z" fill="#95d6a4"/><path d="m159.196 157.949h32.712c4.252 0 7.767 3.487 7.767 7.739v32.712c0 4.28-3.515 7.767-7.767 7.767h-32.712c-4.28 0-7.767-3.487-7.767-7.767v-32.712c0-4.252 3.486-7.739 7.767-7.739z" fill="#95d6a4"/><path d="m210.844 365.192 72.823 8.73 72.057-8.73-28.913-33.449c-3.43-3.968-7.398-5.868-12.842-5.868h-61.399c-5.386 0-9.467 1.956-12.841 5.868z" fill="#d57080"/><path d="m210.844 365.192h144.88v64.063h-144.88z" fill="#fed1a3"/><path d="m210.844 429.255h144.88v-64.064h-24.292v25.229c0 8.022-6.548 14.571-14.543 14.571h-106.045z" fill="#ffbc85"/><path d="m161.152 436.54h54.085l-9.722-157.749-18.625-5.84-16.044 5.84z" fill="#d57080"/><path d="m165.177 249.679h46.006c8.023 0 14.57 6.548 14.57 14.542 0 8.021-6.548 14.57-14.57 14.57h-46.006c-8.022 0-14.57-6.549-14.57-14.57 0-7.994 6.548-14.542 14.57-14.542z" fill="#da8993"/><path d="m214.784 429.255-9.269-150.464h-22.763l6.86 111.658c.624 10.035-2.948 14.543-13.663 14.543h-12.869l-1.503 24.264h53.207z" fill="#cb5769"/></g><path d="m231.934 393.822c0-4.025 3.26-7.285 7.285-7.285s7.285 3.26 7.285 7.285v14.06c0 4.025-3.26 7.285-7.285 7.285s-7.285-3.26-7.285-7.285zm87.364 0c0-4.025 3.261-7.285 7.286-7.285s7.285 3.26 7.285 7.285v14.06c0 4.025-3.26 7.285-7.285 7.285s-7.286-3.26-7.286-7.285zm-29.112 0c0-4.025 3.26-7.285 7.285-7.285s7.285 3.26 7.285 7.285v14.06c0 4.025-3.26 7.285-7.285 7.285s-7.285-3.26-7.285-7.285zm-29.112 0c0-4.025 3.26-7.285 7.285-7.285 3.997 0 7.257 3.26 7.257 7.285v14.06c0 4.025-3.26 7.285-7.257 7.285-4.025 0-7.285-3.26-7.285-7.285z" fill="#00b5ff"/></g><path d="m95.557 431.693c0 4.167-3.345 7.512-7.483 7.512-4.139 0-7.512-3.345-7.512-7.512v-424.181c0-4.138 3.373-7.512 7.512-7.512h335.853c4.139 0 7.512 3.374 7.512 7.512v497.005c0 4.138-3.373 7.483-7.512 7.483h-335.853c-4.139 0-7.512-3.346-7.512-7.483v-38.835c0-4.139 3.373-7.512 7.512-7.512s7.483 3.373 7.483 7.512v31.323h320.886v-482.009h-320.886zm243.782-74.013-21.005-24.321h-70.13l-21.004 24.321zm23.869 7.512v63.837h2.211c4.139 0 7.512 3.345 7.512 7.512 0 4.139-3.373 7.483-7.512 7.483-68.089 0-136.179 0-204.267 0h-14.571c-4.139 0-7.512-3.345-7.512-7.483 0-4.167 3.373-7.512 7.512-7.512h7.512l3.374-54.851c.255-4.138 3.798-7.285 7.909-7.03 4.139.227 7.285 3.77 7.058 7.909l-3.345 53.972h37.871l-8.476-142.754h-20.608l-3.374 54.879c-.227 4.11-3.77 7.256-7.909 7.03-4.11-.255-7.285-3.798-7.03-7.909l3.316-54.114c-5.159-.539-9.808-2.863-13.295-6.35-3.997-3.997-6.463-9.497-6.463-15.591 0-6.066 2.466-11.594 6.463-15.591 3.998-3.997 9.525-6.463 15.591-6.463h46.006c6.095 0 11.594 2.466 15.591 6.463s6.491 9.524 6.491 15.591c0 6.094-2.495 11.594-6.491 15.591-3.487 3.487-8.136 5.811-13.294 6.35l3.713 60.236 21.572-24.973c1.389-1.843 3.572-3.062 6.038-3.062h76.933c2.098 0 4.167.908 5.641 2.608l33.619 38.892c1.307 1.503 2.214 3.26 2.214 5.33zm-131.473 28.63c0-4.139 3.345-7.512 7.484-7.512s7.512 3.373 7.512 7.512v14.06c0 4.138-3.374 7.512-7.512 7.512-4.139 0-7.484-3.374-7.484-7.512zm87.365 0c0-4.139 3.345-7.512 7.484-7.512s7.512 3.373 7.512 7.512v14.06c0 4.138-3.373 7.512-7.512 7.512s-7.484-3.374-7.484-7.512zm-29.141 0c0-4.139 3.374-7.512 7.512-7.512 4.139 0 7.484 3.373 7.484 7.512v14.06c0 4.138-3.345 7.512-7.484 7.512-4.138 0-7.512-3.374-7.512-7.512zm-29.112 0c0-4.139 3.345-7.512 7.512-7.512 4.139 0 7.483 3.373 7.483 7.512v14.06c0 4.138-3.345 7.512-7.483 7.512-4.167 0-7.512-3.374-7.512-7.512zm87.365 35.207v-56.354h-129.403l3.458 56.354zm-137.028-171.867h-46.006c-1.928 0-3.714.794-4.989 2.098-1.275 1.275-2.069 3.033-2.069 4.961 0 1.927.794 3.713 2.069 4.989s3.061 2.069 4.989 2.069h46.006c1.956 0 3.713-.793 4.989-2.069 1.275-1.276 2.098-3.062 2.098-4.989 0-1.928-.822-3.686-2.098-4.961-1.276-1.304-3.033-2.098-4.989-2.098zm17.603-82.177c-4.139 0-7.483-3.345-7.483-7.483 0-4.139 3.345-7.512 7.483-7.512h136.632c4.139 0 7.512 3.373 7.512 7.512 0 4.138-3.373 7.483-7.512 7.483zm0 29.141c-4.139 0-7.483-3.373-7.483-7.512s3.345-7.512 7.483-7.512h94.678c4.139 0 7.512 3.373 7.512 7.512s-3.373 7.512-7.512 7.512zm0-111.347c-4.139 0-7.483-3.345-7.483-7.512 0-4.139 3.345-7.483 7.483-7.483h136.632c4.139 0 7.512 3.345 7.512 7.483 0 4.167-3.373 7.512-7.512 7.512zm0 29.112c-4.139 0-7.483-3.345-7.483-7.483s3.345-7.512 7.483-7.512h94.678c4.139 0 7.512 3.373 7.512 7.512s-3.373 7.483-7.512 7.483zm-77.358 28.545h48.246c4.138 0 7.483 3.345 7.483 7.512v48.218c0 4.139-3.345 7.512-7.483 7.512h-48.246c-4.139 0-7.484-3.373-7.484-7.512v-48.218c0-4.166 3.345-7.512 7.484-7.512zm40.734 14.996h-33.222v33.251h33.222zm-40.734-97.201h48.246c4.138 0 7.483 3.345 7.483 7.484v48.246c0 4.139-3.345 7.512-7.483 7.512h-48.246c-4.139 0-7.484-3.374-7.484-7.512v-48.246c0-4.139 3.345-7.484 7.484-7.484zm40.734 14.996h-33.222v33.222h33.222zm209.879-7.512c0 4.138-3.374 7.512-7.512 7.512-4.139 0-7.484-3.374-7.484-7.512v-31.324h-262.093v423.218h262.094v-357.906c0-4.139 3.345-7.512 7.484-7.512 4.138 0 7.512 3.373 7.512 7.512v365.418c0 4.139-3.374 7.483-7.512 7.483h-277.062c-4.167 0-7.512-3.345-7.512-7.483v-438.213c0-4.167 3.345-7.512 7.512-7.512h277.062c4.138 0 7.512 3.345 7.512 7.512v38.807z"/></g></svg>