<svg id="Capa_1" enable-background="new 0 0 512 512" height="512" viewBox="0 0 512 512" width="512" xmlns="http://www.w3.org/2000/svg"><g><g clip-rule="evenodd" fill-rule="evenodd"><path d="m139.069 192.771h347.078v180.257h-361.619l14.541-129.914z" fill="#80b4fb"/><path d="m139.069 396.215h-123.79c-5.669 0-7.767-2.722-7.767-7.767v-54.908c0-4.848 2.438-8.759 7.2-10.658l33.194-13.437 61.172-66.331h29.991z" fill="#d57080"/><path d="m139.069 396.215h-123.79c-5.669 0-7.767-2.722-7.767-7.767v-16.498h87.875c10.687 0 19.418-8.731 19.418-19.418v-109.418h24.264z" fill="#cb5769"/><path d="m461.853 200.226h24.294v165.375h-347.078v-24.265h298.521c13.351 0 24.264-10.941 24.264-24.293v-116.817z" fill="#61a2f9"/><path d="m496.749 365.601c4.252 0 7.768 3.486 7.768 7.767v15.081c0 4.28-3.516 7.767-7.768 7.767-119.227 0-238.453 0-357.68 0 0-10.205 0-20.409 0-30.614 119.227-.001 238.453-.001 357.68-.001z" fill="#5490f9"/><path d="m164.61 169.611 97.881 8.73 98.987-8.73-92.836-89.292c-3.771-3.629-7.483-3.572-11.197 0z" fill="#fff3be"/><path d="m303.283 169.611 75.203 8.249 64.375-8.249-64.177-61.739c-3.714-3.573-7.483-3.573-11.197 0z" fill="#ffe07d"/><path d="m116.846 169.611h379.903c4.252 0 7.768 3.486 7.768 7.767v15.081c0 4.281-3.516 7.767-7.768 7.767h-379.903c-4.28 0-7.767-3.486-7.767-7.767v-15.081c0-4.28 3.486-7.767 7.767-7.767z" fill="#5490f9"/><path d="m353.739 304.826 34.13-59.131c4.225-7.313 13.635-9.836 20.92-5.612 7.285 4.223 9.809 13.634 5.613 20.919l-34.159 59.132c-4.195 7.285-13.605 9.808-20.919 5.612-7.285-4.225-9.808-13.635-5.585-20.92zm-142.924 0 34.158-59.131c4.195-7.313 13.607-9.836 20.919-5.612 7.285 4.223 9.809 13.634 5.585 20.919l-34.13 59.132c-4.224 7.285-13.635 9.808-20.92 5.612-7.284-4.225-9.807-13.635-5.612-20.92zm71.462 0 34.13-59.131c4.224-7.313 13.635-9.836 20.92-5.612 7.314 4.223 9.836 13.634 5.612 20.919l-34.129 59.132c-4.224 7.285-13.636 9.808-20.921 5.612-7.313-4.225-9.835-13.635-5.612-20.92z" fill="#61a2f9"/><path d="m47.906 309.446h53.405c5.216 0 7.767-2.579 7.767-7.767v-58.565h-22.252c-5.159 0-8.816 2.211-11.055 7.03z" fill="#b1e4f9"/><path d="m73.305 437.035c22.479 0 40.819-18.341 40.819-40.82s-18.34-40.82-40.819-40.82c-22.508 0-40.848 18.341-40.848 40.82.001 22.479 18.34 40.82 40.848 40.82z" fill="#0c5e7f"/><path d="m431.92 437.035c22.479 0 40.82-18.341 40.82-40.82s-18.342-40.82-40.82-40.82c-22.507 0-40.847 18.341-40.847 40.82s18.34 40.82 40.847 40.82z" fill="#0c5e7f"/><path d="m470.897 384.083c1.19 3.826 1.843 7.908 1.843 12.132 0 22.536-18.285 40.82-40.82 40.82-22.563 0-40.847-18.284-40.847-40.82 0-4.224.651-8.306 1.842-12.132 5.159 16.61 20.665 28.687 39.005 28.687 18.312 0 33.817-12.076 38.977-28.687z" fill="#174b67"/><path d="m319.639 437.035c22.478 0 40.819-18.341 40.819-40.82s-18.341-40.82-40.819-40.82c-22.508 0-40.848 18.341-40.848 40.82s18.34 40.82 40.848 40.82z" fill="#0c5e7f"/><path d="m358.615 384.083c1.19 3.826 1.843 7.908 1.843 12.132 0 22.536-18.284 40.82-40.819 40.82-22.565 0-40.848-18.284-40.848-40.82 0-4.224.651-8.306 1.842-12.132 5.159 16.61 20.666 28.687 39.006 28.687 18.311 0 33.817-12.076 38.976-28.687z" fill="#174b67"/><path d="m112.282 384.083c1.191 3.826 1.843 7.908 1.843 12.132 0 22.536-18.284 40.82-40.819 40.82-22.564 0-40.848-18.284-40.848-40.82 0-4.224.652-8.306 1.842-12.132 5.159 16.61 20.665 28.687 39.005 28.687 18.312 0 33.818-12.076 38.977-28.687z" fill="#174b67"/><g fill="#e0dbee"><path d="m73.305 410.389c7.795 0 14.145-6.378 14.145-14.173s-6.35-14.173-14.145-14.173c-7.824 0-14.174 6.378-14.174 14.173s6.35 14.173 14.174 14.173z"/><path d="m431.92 410.389c7.795 0 14.145-6.378 14.145-14.173s-6.35-14.173-14.145-14.173c-7.823 0-14.173 6.378-14.173 14.173s6.35 14.173 14.173 14.173z"/><path d="m319.639 410.389c7.796 0 14.146-6.378 14.146-14.173s-6.35-14.173-14.146-14.173c-7.823 0-14.173 6.378-14.173 14.173s6.349 14.173 14.173 14.173z"/></g><path d="m328.54 145.346-25.257 24.265h139.578l-25.227-24.265h-81.384z" fill="#ffd064"/><path d="m303.283 169.611 25.257-24.265h-138.702l-25.228 24.265z" fill="#fff0af"/></g><path d="m321.595 141.633-16.81-16.187c-3.005-2.862-3.09-7.597-.227-10.573 2.863-2.977 7.597-3.062 10.573-.198l17.263 16.583 35.49-34.159c2.891-2.777 7.483-2.806 10.374 0l22.65 21.771c2.977 2.863 3.061 7.625.198 10.602s-7.597 3.061-10.573.198l-17.462-16.81-51.193 49.24h102.389l-9.241-8.873c-2.977-2.862-3.061-7.597-.198-10.574 2.863-2.976 7.597-3.089 10.573-.227l20.466 19.673h58.65c4.139 0 7.483 3.373 7.483 7.512v30.615c0 4.139-3.345 7.512-7.483 7.512h-10.885v58.196c0 4.139-3.346 7.483-7.484 7.483-4.166 0-7.512-3.345-7.512-7.483v-58.196h-332.055v150.351h143.321c8.221-6.406 18.511-10.205 29.736-10.205 11.197 0 21.486 3.799 29.707 10.205h52.867c8.192-6.406 18.482-10.205 29.707-10.205 11.197 0 21.516 3.799 29.707 10.205h17.009v-58.196c0-4.139 3.346-7.483 7.512-7.483 4.139 0 7.484 3.345 7.484 7.483v58.196h10.885c4.139 0 7.483 3.373 7.483 7.512v30.614c0 4.139-3.345 7.512-7.483 7.512h-24.86c-1.615 10.319-6.491 19.588-13.579 26.674-8.73 8.73-20.834 14.146-34.157 14.146-13.352 0-25.427-5.415-34.185-14.146-7.087-7.086-11.963-16.355-13.578-26.674h-16.782c-1.615 10.319-6.491 19.588-13.578 26.674-8.73 8.73-20.834 14.146-34.157 14.146-13.351 0-25.456-5.415-34.187-14.146-7.087-7.086-11.962-16.355-13.578-26.674h-132.806-18.028c-1.616 10.319-6.491 19.588-13.578 26.674-8.731 8.73-20.836 14.146-34.158 14.146-13.352 0-25.427-5.415-34.187-14.146-7.086-7.086-11.962-16.355-13.578-26.674h-18.028c-4.139 0-7.512-3.373-7.512-7.512v-18.227c0-4.139 3.374-7.512 7.512-7.512s7.483 3.373 7.483 7.512v10.715h10.545c1.616-10.347 6.491-19.588 13.578-26.674 8.759-8.731 20.835-14.146 34.187-14.146 13.323 0 25.427 5.414 34.158 14.146 7.086 7.086 11.962 16.328 13.578 26.674h10.545v-138.105h-15.023v58.848c0 4.139-3.345 7.512-7.484 7.512h-59.784l-34.3 13.862v13.182c0 4.139-3.345 7.512-7.483 7.512-4.139 0-7.512-3.373-7.512-7.512v-18.228c0-3.345 2.183-6.179 5.216-7.143l37.163-15.024 29.906-63.666c1.248-2.636 3.883-4.337 6.775-4.337h52.526v-27.865h-22.507c-4.139 0-7.512-3.373-7.512-7.512v-30.615c0-4.139 3.374-7.512 7.512-7.512h52.527l96.237-92.553c2.892-2.777 7.483-2.806 10.374 0l22.451 21.572c2.977 2.863 3.061 7.597.198 10.573-2.863 2.977-7.597 3.062-10.573.198l-17.263-16.582-79.853 76.792h117.13zm-1.956 232.926c5.981 0 11.396 2.409 15.308 6.35 3.911 3.911 6.35 9.325 6.35 15.307s-2.439 11.396-6.35 15.307c-3.912 3.94-9.326 6.35-15.308 6.35s-11.424-2.409-15.335-6.35c-3.912-3.911-6.351-9.326-6.351-15.307s2.439-11.396 6.351-15.307c3.911-3.941 9.353-6.35 15.335-6.35zm4.706 16.951c-1.22-1.22-2.892-1.956-4.706-1.956-1.843 0-3.515.736-4.733 1.956-1.191 1.19-1.956 2.862-1.956 4.705s.765 3.515 1.956 4.705c1.219 1.22 2.891 1.956 4.733 1.956 1.814 0 3.486-.736 4.706-1.956 1.19-1.19 1.955-2.862 1.955-4.705 0-1.842-.765-3.514-1.955-4.705zm107.575-16.951c5.982 0 11.396 2.409 15.308 6.35 3.911 3.911 6.35 9.325 6.35 15.307s-2.438 11.396-6.35 15.307c-3.912 3.94-9.326 6.35-15.308 6.35-5.98 0-11.395-2.409-15.335-6.35-3.912-3.911-6.35-9.326-6.35-15.307s2.438-11.396 6.35-15.307c3.939-3.941 9.355-6.35 15.335-6.35zm4.706 16.951c-1.22-1.22-2.863-1.956-4.706-1.956s-3.515.736-4.733 1.956c-1.19 1.19-1.928 2.862-1.928 4.705s.737 3.515 1.928 4.705c1.219 1.22 2.891 1.956 4.733 1.956s3.486-.736 4.706-1.956c1.19-1.19 1.956-2.862 1.956-4.705 0-1.842-.766-3.514-1.956-4.705zm-363.321-16.951c5.981 0 11.395 2.409 15.307 6.35 3.912 3.911 6.35 9.325 6.35 15.307s-2.438 11.396-6.35 15.307c-3.912 3.94-9.326 6.35-15.307 6.35s-11.424-2.409-15.336-6.35c-3.912-3.911-6.35-9.326-6.35-15.307s2.438-11.396 6.35-15.307c3.912-3.941 9.355-6.35 15.336-6.35zm4.706 16.951c-1.219-1.22-2.892-1.956-4.705-1.956-1.842 0-3.515.736-4.734 1.956-1.19 1.19-1.956 2.862-1.956 4.705s.766 3.515 1.956 4.705c1.219 1.22 2.892 1.956 4.734 1.956 1.814 0 3.487-.736 4.705-1.956 1.191-1.19 1.956-2.862 1.956-4.705 0-1.842-.766-3.514-1.956-4.705zm208.292 4.705c0 9.213 3.713 17.547 9.751 23.556 6.039 6.038 14.372 9.779 23.585 9.779 9.185 0 17.518-3.741 23.556-9.779 6.038-6.009 9.752-14.343 9.752-23.556 0-18.453-14.967-33.336-33.308-33.336-18.368 0-33.336 14.883-33.336 33.336zm-9.128-23.131h-130.594v15.619h125.292c.88-5.583 2.693-10.828 5.302-15.619zm84.898 0c2.608 4.791 4.422 10.035 5.301 15.619h16.782c.879-5.584 2.693-10.828 5.301-15.619zm112.282 0c2.608 4.791 4.422 10.035 5.301 15.619h17.349v-15.619h-10.857zm-42.435-10.205c-18.368 0-33.335 14.883-33.335 33.336 0 9.213 3.713 17.547 9.751 23.556 6.038 6.038 14.371 9.779 23.584 9.779 9.185 0 17.519-3.741 23.556-9.779 6.038-6.009 9.752-14.343 9.752-23.556 0-18.453-14.968-33.336-33.308-33.336zm-335.059 9.752c-6.038-6.01-14.372-9.752-23.556-9.752-9.212 0-17.547 3.743-23.585 9.752-6.038 6.037-9.751 14.371-9.751 23.584s3.713 17.547 9.751 23.556c6.038 6.038 14.373 9.779 23.585 9.779 9.184 0 17.518-3.741 23.556-9.779 6.038-6.009 9.751-14.343 9.751-23.556s-3.713-17.547-9.751-23.584zm-37.191-70.669h41.896v-51.365h-17.772zm287.635-.964 33.817-58.592c2.581-5.272 8.533-9.582 14.118-11.085 6.009-1.587 12.104-.651 17.121 2.183 5.131 2.892 9.127 7.796 10.772 13.947 1.587 5.896.709 12.133-2.324 17.405l-34.072 59.019c-3.146 5.442-8.222 9.099-13.863 10.602-5.612 1.53-11.82.878-17.263-2.268-5.442-3.146-9.127-8.221-10.63-13.834-1.559-5.868-.709-12.132 2.324-17.377zm47.056-51.563-34.13 59.103c-1.078 1.843-1.333 3.912-.766 5.953.51 1.984 1.757 3.713 3.6 4.762 1.843 1.077 3.997 1.275 5.953.766 1.928-.539 3.685-1.787 4.762-3.628l34.13-59.131c1.078-1.871 1.276-3.997.766-5.953-.595-2.154-1.984-3.855-3.77-4.847-1.701-.907-3.742-1.191-5.783-.652-1.984.538-3.77 1.814-4.762 3.627zm-190.009 51.62 34.13-59.131c3.032-5.188 8.05-9.042 13.861-10.602 5.867-1.559 12.188-.68 17.433 2.353 5.357 3.147 8.958 8.193 10.46 13.777 1.559 5.84.709 12.133-2.296 17.349l-34.13 59.075c-3.117 5.442-8.191 9.099-13.833 10.602-5.613 1.53-11.821.878-17.263-2.268-5.471-3.146-9.128-8.221-10.63-13.834-1.559-5.784-.736-12.162 2.268-17.321zm47.084-51.62-34.13 59.103c-1.049 1.843-1.304 3.884-.765 5.953.538 1.984 1.786 3.713 3.6 4.762 1.871 1.077 3.997 1.275 5.982.766 1.927-.539 3.684-1.787 4.733-3.628l34.158-59.131c2.127-3.714.822-8.561-2.891-10.715-3.629-2.069-8.646-.822-10.687 2.89zm24.435 51.507 34.073-59.018c3.005-5.188 8.051-9.042 13.833-10.602 6.095-1.615 12.246-.623 17.291 2.296 5.046 2.92 8.986 7.768 10.63 13.833 1.503 5.613.851 11.821-2.296 17.264l-34.129 59.16c-3.175 5.442-8.221 9.099-13.833 10.602-5.585 1.502-11.736.878-17.15-2.183-5.329-3.033-9.185-7.994-10.772-13.919-1.587-5.924-.68-12.161 2.353-17.433zm46.773-51.052-33.875 58.649c-1.049 1.814-1.332 3.884-.766 5.953.567 2.154 1.956 3.854 3.742 4.847 1.7.936 3.77 1.22 5.812.681 2.92-.794 3.572-2.042 5.131-4.224l33.789-58.507c1.049-1.871 1.275-3.997.737-5.981-.567-2.126-1.956-3.827-3.742-4.818-1.7-.936-3.77-1.22-5.811-.681-2.721.736-3.572 1.955-5.017 4.081zm174.361-72.795c-126.796 0-253.619 0-380.442 0v15.648h380.442z"/></g></svg>