<svg id="Capa_1" enable-background="new 0 0 512 512" height="512" viewBox="0 0 512 512" width="512" xmlns="http://www.w3.org/2000/svg"><g><g clip-rule="evenodd" fill-rule="evenodd"><g fill="#0c5e7f"><path d="m116.222 7.512h50.486c4.252 0 7.767 3.487 7.767 7.767v481.47c0 4.253-3.515 7.768-7.767 7.768h-50.486c-4.28 0-7.767-3.515-7.767-7.768v-481.47c0-4.281 3.486-7.767 7.767-7.767z"/><path d="m230.771 7.512h50.485c4.252 0 7.738 3.487 7.738 7.767v481.47c0 4.253-3.486 7.768-7.738 7.768h-50.485c-4.28 0-7.767-3.515-7.767-7.768v-481.47c.001-4.281 3.487-7.767 7.767-7.767z"/><path d="m345.32 7.512h50.458c4.28 0 7.767 3.487 7.767 7.767v481.47c0 4.253-3.486 7.768-7.767 7.768h-50.458c-4.28 0-7.767-3.515-7.767-7.768v-481.47c.001-4.281 3.487-7.767 7.767-7.767z"/></g><path d="m379.279 7.512h16.499c4.28 0 7.767 3.487 7.767 7.767v481.47c0 4.253-3.486 7.768-7.767 7.768h-50.458c-4.28 0-7.767-3.515-7.767-7.768v-16.497h22.309c10.686 0 19.417-8.759 19.417-19.417z" fill="#174b67"/><path d="m264.73 7.512h16.526c4.252 0 7.738 3.487 7.738 7.767v481.47c0 4.253-3.486 7.768-7.738 7.768h-50.485c-4.28 0-7.767-3.515-7.767-7.768v-16.497h22.309c10.686 0 19.417-8.759 19.417-19.417z" fill="#174b67"/><path d="m150.21 7.512h16.498c4.252 0 7.767 3.487 7.767 7.767v481.47c0 4.253-3.515 7.768-7.767 7.768h-50.486c-4.28 0-7.767-3.515-7.767-7.768v-16.497h22.338c10.658 0 19.417-8.759 19.417-19.417z" fill="#174b67"/><path d="m79.258 168.238h353.513c13.322 0 24.265 10.914 24.265 24.265v126.994c0 13.351-10.942 24.265-24.265 24.265h-353.513c-13.351 0-24.265-10.914-24.265-24.265v-126.994c0-13.351 10.913-24.265 24.265-24.265z" fill="#61a2f9"/><path d="m432.771 168.238c13.322 0 24.265 10.914 24.265 24.265v126.994c0 13.351-10.942 24.265-24.265 24.265h-353.513c-13.351 0-24.265-10.914-24.265-24.265h348.608c16.044 0 29.169-13.097 29.169-29.141v-122.118z" fill="#5490f9"/><path d="m141.451 296.451c22.28 0 40.45-18.17 40.45-40.451s-18.17-40.451-40.45-40.451c-22.281 0-40.423 18.17-40.423 40.451 0 22.28 18.142 40.451 40.423 40.451z" fill="#faf8f9"/><path d="m256 296.451c22.28 0 40.45-18.17 40.45-40.451s-18.17-40.451-40.45-40.451-40.45 18.17-40.45 40.451c0 22.28 18.17 40.451 40.45 40.451z" fill="#faf8f9"/><path d="m370.549 296.451c22.281 0 40.451-18.171 40.451-40.451 0-22.281-18.17-40.451-40.451-40.451-22.28 0-40.45 18.17-40.45 40.451 0 22.28 18.17 40.451 40.45 40.451z" fill="#faf8f9"/><path d="m370.549 296.451c22.338 0 40.451-18.114 40.451-40.451 0-4.224-.651-8.306-1.87-12.132-5.131 16.413-20.467 28.318-38.581 28.318-18.113 0-33.449-11.905-38.579-28.318-1.22 3.827-1.871 7.909-1.871 12.132 0 22.337 18.113 40.451 40.45 40.451z" fill="#ede9fb"/><path d="m256 296.451c22.337 0 40.45-18.114 40.45-40.451 0-4.224-.652-8.306-1.843-12.132-5.159 16.413-20.494 28.318-38.607 28.318s-33.421-11.905-38.579-28.318c-1.22 3.827-1.871 7.909-1.871 12.132 0 22.337 18.113 40.451 40.45 40.451z" fill="#ede9fb"/><path d="m141.451 296.451c22.337 0 40.45-18.114 40.45-40.451 0-4.224-.652-8.306-1.843-12.132-5.159 16.413-20.494 28.318-38.607 28.318-18.114 0-33.422-11.905-38.581-28.318-1.219 3.827-1.842 7.909-1.842 12.132 0 22.337 18.085 40.451 40.423 40.451z" fill="#ede9fb"/></g><path d="m166.963 440.622c0-4.138 3.373-7.512 7.512-7.512s7.483 3.373 7.483 7.512v63.895c0 4.138-3.345 7.483-7.483 7.483h-66.019c-4.139 0-7.513-3.345-7.513-7.483v-153.244h-21.685c-8.759 0-16.696-3.572-22.45-9.326-5.755-5.754-9.326-13.691-9.326-22.45v-126.994c0-8.73 3.571-16.696 9.326-22.45 5.754-5.754 13.691-9.326 22.45-9.326h21.685v-153.215c0-4.138 3.374-7.512 7.513-7.512h66.019c4.139 0 7.483 3.374 7.483 7.512v153.215h33.535v-153.215c0-4.138 3.373-7.512 7.512-7.512h65.99c4.167 0 7.512 3.374 7.512 7.512v62.477c0 4.167-3.345 7.512-7.512 7.512-4.139 0-7.483-3.345-7.483-7.512v-54.993h-51.023v145.731h51.023v-56.75c0-4.139 3.345-7.512 7.483-7.512 4.167 0 7.512 3.374 7.512 7.512v56.75h33.535v-153.215c0-4.138 3.373-7.512 7.512-7.512h65.991c4.139 0 7.512 3.374 7.512 7.512v153.215h21.714c8.73 0 16.668 3.572 22.422 9.326s9.326 13.72 9.326 22.45v126.994c0 8.759-3.572 16.696-9.326 22.45s-13.691 9.326-22.422 9.326h-21.714v55.361c0 4.139-3.373 7.512-7.512 7.512s-7.483-3.373-7.483-7.512v-55.361h-51.024v145.731h51.024v-56.382c0-4.138 3.345-7.512 7.483-7.512 4.139 0 7.512 3.373 7.512 7.512v63.895c0 4.138-3.373 7.483-7.512 7.483h-65.991c-4.139 0-7.512-3.345-7.512-7.483v-153.244h-33.535v153.243c0 4.138-3.345 7.483-7.512 7.483h-65.99c-4.139 0-7.512-3.345-7.512-7.483v-153.243h-33.535v55.361c0 4.139-3.345 7.512-7.483 7.512-4.139 0-7.512-3.373-7.512-7.512v-55.361h-50.996v145.731h50.996zm254.384-118.46c-4.139 0-7.483-3.374-7.483-7.512 0-4.139 3.345-7.512 7.483-7.512h6.548c4.139 0 7.512 3.374 7.512 7.512 0 4.139-3.373 7.512-7.512 7.512zm0-117.299c-4.139 0-7.483-3.373-7.483-7.512 0-4.138 3.345-7.484 7.483-7.484h6.548c4.139 0 7.512 3.346 7.512 7.484 0 4.139-3.373 7.512-7.512 7.512zm-337.242 117.299c-4.139 0-7.513-3.374-7.513-7.512 0-4.139 3.374-7.512 7.513-7.512h6.548c4.139 0 7.483 3.374 7.483 7.512 0 4.139-3.345 7.512-7.483 7.512zm0-117.299c-4.139 0-7.513-3.373-7.513-7.512 0-4.138 3.374-7.484 7.513-7.484h6.548c4.139 0 7.483 3.346 7.483 7.484 0 4.139-3.345 7.512-7.483 7.512zm278.932 37.077c0-4.139 3.373-7.484 7.512-7.484s7.512 3.346 7.512 7.484v14.06c0 4.139-3.373 7.512-7.512 7.512s-7.512-3.373-7.512-7.512zm-102.36 19.928c-3.26 2.58-7.965 2.041-10.545-1.191-2.551-3.26-2.012-7.965 1.219-10.517l11.197-8.929c3.231-2.551 7.938-2.041 10.517 1.219 2.552 3.231 2.013 7.938-1.219 10.517zm-114.067-11.282c3.005 2.834 3.118 7.597.283 10.573-2.863 3.005-7.597 3.118-10.602.255l-9.895-9.468c-3.004-2.835-3.117-7.568-.255-10.573 2.836-2.976 7.57-3.118 10.574-.255zm223.939 38.353c9.1 0 17.349-3.685 23.302-9.638s9.638-14.202 9.638-23.301-3.685-17.32-9.638-23.301c-5.953-5.953-14.202-9.638-23.302-9.638s-17.348 3.685-23.301 9.638c-5.953 5.982-9.638 14.202-9.638 23.301s3.684 17.348 9.638 23.301c5.953 5.953 14.201 9.638 23.301 9.638zm33.903.964c-8.674 8.674-20.665 14.06-33.903 14.06-13.237 0-25.228-5.386-33.902-14.06s-14.031-20.665-14.031-33.903 5.357-25.229 14.031-33.903 20.665-14.031 33.902-14.031c13.238 0 25.229 5.357 33.903 14.031s14.031 20.665 14.031 33.903-5.357 25.229-14.031 33.903zm-148.452-.964c9.099 0 17.348-3.685 23.301-9.638 5.952-5.953 9.638-14.202 9.638-23.301s-3.686-17.32-9.638-23.301c-5.953-5.953-14.202-9.638-23.301-9.638-9.1 0-17.319 3.685-23.301 9.638-5.953 5.982-9.638 14.202-9.638 23.301s3.685 17.348 9.638 23.301c5.982 5.953 14.201 9.638 23.301 9.638zm33.902.964c-8.674 8.674-20.665 14.06-33.902 14.06s-25.229-5.386-33.902-14.06c-8.674-8.674-14.032-20.665-14.032-33.903s5.358-25.229 14.032-33.903 20.665-14.031 33.902-14.031 25.228 5.357 33.902 14.031 14.061 20.665 14.061 33.903-5.387 25.229-14.061 33.903zm-148.451-.964c9.099 0 17.348-3.685 23.301-9.638 5.952-5.953 9.666-14.202 9.666-23.301s-3.714-17.32-9.666-23.301c-5.953-5.953-14.202-9.638-23.301-9.638-9.1 0-17.321 3.685-23.274 9.638-5.981 5.982-9.666 14.202-9.666 23.301s3.685 17.348 9.666 23.301c5.953 5.953 14.175 9.638 23.274 9.638zm33.903.964c-8.674 8.674-20.665 14.06-33.902 14.06-13.238 0-25.229-5.386-33.903-14.06s-14.031-20.665-14.031-33.903 5.357-25.229 14.031-33.903 20.665-14.031 33.903-14.031c13.237 0 25.229 5.357 33.902 14.031 8.674 8.674 14.06 20.665 14.06 33.903s-5.387 25.229-14.06 33.903zm-59.387-129.176h50.996v-145.731h-50.996zm229.07 0h51.024v-145.731h-51.024zm-63.525 190.546h-51.023v145.731h51.023zm151.259-175.523c-117.837 0-235.676 0-353.513 0-4.62 0-8.787 1.871-11.849 4.933-3.033 3.033-4.933 7.229-4.933 11.82v126.994c0 4.62 1.899 8.787 4.933 11.849 3.062 3.033 7.229 4.933 11.849 4.933h353.513c4.592 0 8.787-1.899 11.82-4.933 3.033-3.061 4.933-7.229 4.933-11.849v-126.994c0-4.592-1.899-8.787-4.933-11.82-3.033-3.062-7.229-4.933-11.82-4.933z"/></g></svg>