<svg id="Capa_1" enable-background="new 0 0 512 512" height="512" viewBox="0 0 512 512" width="512" xmlns="http://www.w3.org/2000/svg"><g><g clip-rule="evenodd" fill-rule="evenodd"><path d="m43.74 200.511 15.562-15.562c4.054-4.054 10.686-4.082 14.797-.085l9.185 9.185c15.449-11.027 33.477-18.681 52.952-21.969v-12.841c0-5.782 4.734-10.517 10.545-10.517h18.539l12.217 148.31-12.217 152.222h-18.54c-5.811 0-10.545-4.734-10.545-10.545v-12.841c-19.476-3.288-37.503-10.942-52.952-21.941l-9.1 9.1c-4.082 4.082-10.8 4.082-14.882 0l-15.561-15.563c-4.111-4.11-4.111-10.8 0-14.882l9.07-9.099c-10.999-15.478-18.653-33.478-21.94-52.98h-12.842c-5.782 0-10.517-4.734-10.517-10.517v-21.996c0-5.811 4.734-10.545 10.517-10.545h12.842c3.287-19.474 10.941-37.503 21.94-52.952l-9.07-9.1c-4.054-4.167-4.139-10.743 0-14.882z" fill="#0079a2"/><path d="m165.319 376.942c-43.06 0-77.954-34.923-77.954-77.954 0-43.059 34.895-77.954 77.954-77.954l11.707 82.546z" fill="#0c5e7f"/><path d="m165.319 404.693v44.561h-18.539c-5.811 0-10.545-4.734-10.545-10.545v-12.841c-19.476-3.288-37.503-10.942-52.952-21.941l-9.1 9.1c-4.082 4.082-10.8 4.082-14.882 0l-15.561-15.563c-4.111-4.11-4.111-10.8 0-14.882l9.07-9.099c-10.999-15.478-18.653-33.478-21.94-52.98h-12.842c-5.782 0-10.517-4.734-10.517-10.517v-21.996c0-5.811 4.734-10.545 10.517-10.545h12.388c1.445 70.583 59.104 127.334 130.027 127.334 1.644-.001 3.26-.029 4.876-.086z" fill="#0c5e7f"/><path d="m251.295 16.541h245.454c5.131 0 7.768 2.665 7.768 7.768v463.384c0 4.281-3.516 7.768-7.768 7.768h-323.663c-4.28 0-7.767-3.487-7.767-7.768v-385.177z" fill="#faf8f9"/><path d="m480.252 16.541h16.497c5.131 0 7.768 2.665 7.768 7.768v463.384c0 4.281-3.516 7.768-7.768 7.768h-323.663c-4.28 0-7.767-3.487-7.767-7.768v-16.497h285.791c16.017 0 29.142-13.096 29.142-29.113z" fill="#ede9fb"/><path d="m251.295 16.541v78.208c0 5.074-2.127 7.767-7.768 7.767h-78.208z" fill="#d3cee5"/><path d="m165.319 376.942c-43.06 0-77.954-34.923-77.954-77.954 0-4.139.312-8.192.936-12.132 5.839 37.276 38.098 65.792 77.019 65.792v24.294z" fill="#174b67"/><path d="m214.529 196.004h25.342c4.252 0 7.767 3.486 7.767 7.767v82.886c0 4.28-3.515 7.767-7.767 7.767h-25.342c-4.253 0-7.769-3.487-7.769-7.767v-82.886c.001-4.28 3.516-7.767 7.769-7.767z" fill="#d57080"/><path d="m286.331 225.683h25.342c4.281 0 7.767 3.515 7.767 7.767v53.207c0 4.28-3.486 7.767-7.767 7.767h-25.342c-4.252 0-7.739-3.487-7.739-7.767v-53.207c0-4.252 3.487-7.767 7.739-7.767z" fill="#95d6a4"/><path d="m358.161 169.783h25.315c4.279 0 7.767 3.487 7.767 7.767v109.107c0 4.28-3.487 7.767-7.767 7.767h-25.315c-4.279 0-7.767-3.487-7.767-7.767v-109.107c.001-4.28 3.488-7.767 7.767-7.767z" fill="#d57080"/><path d="m429.964 152.322h25.313c4.28 0 7.768 3.487 7.768 7.767v126.568c0 4.28-3.487 7.767-7.768 7.767h-25.313c-4.28 0-7.767-3.487-7.767-7.767v-126.568c0-4.28 3.487-7.767 7.767-7.767z" fill="#95d6a4"/></g><path d="m38.438 195.21 15.562-15.562c3.458-3.458 8.051-5.216 12.643-5.244 4.593-.028 9.156 1.672 12.671 5.102l4.876 4.876c6.774-4.337 13.946-8.107 21.486-11.254 7.398-3.061 15.108-5.471 23.075-7.2v-6.69c0-4.96 2.013-9.468 5.272-12.728 3.26-3.26 7.767-5.301 12.756-5.301h11.026v-38.693c0-2.098.851-3.997 2.239-5.357l85.948-85.919c1.445-1.474 3.373-2.211 5.301-2.211h253.222c4.139 0 7.483 3.374 7.483 7.512v222.466c0 4.139-3.345 7.512-7.483 7.512s-7.512-3.373-7.512-7.512v-214.983h-238.225v78.492c0 4.139-3.345 7.484-7.483 7.484h-78.493v377.976h324.203v-214.982c0-4.138 3.373-7.512 7.512-7.512s7.483 3.374 7.483 7.512v222.466c0 4.138-3.345 7.512-7.483 7.512h-339.198c-4.139 0-7.513-3.374-7.513-7.512v-38.722h-11.026c-4.989 0-9.496-2.013-12.756-5.272-3.26-3.26-5.272-7.767-5.272-12.756v-6.661c-7.967-1.73-15.677-4.167-23.075-7.229-7.512-3.118-14.712-6.888-21.458-11.225l-4.734 4.734c-3.515 3.515-8.135 5.272-12.756 5.272-4.592 0-9.213-1.758-12.728-5.272l-15.562-15.563c-3.516-3.515-5.273-8.135-5.273-12.756 0-4.62 1.758-9.241 5.273-12.756l4.706-4.705c-4.338-6.775-8.108-13.947-11.226-21.487-3.062-7.398-5.5-15.108-7.229-23.074h-6.662c-4.79 0-9.353-1.871-12.727-5.272-3.26-3.262-5.301-7.769-5.301-12.73v-21.996c0-4.961 2.041-9.496 5.301-12.756 3.374-3.374 7.938-5.244 12.727-5.244h6.662c1.729-7.966 4.166-15.704 7.229-23.103 3.117-7.512 6.888-14.712 11.226-21.459l-4.706-4.734c-3.346-3.316-5.273-8.107-5.273-12.784-.001-4.592 1.729-9.184 5.272-12.7zm168.323 198.938c-4.139 0-7.482-3.373-7.482-7.512s3.344-7.483 7.482-7.483h181.874c4.139 0 7.512 3.345 7.512 7.483 0 4.139-3.373 7.512-7.512 7.512zm0-29.14c-4.139 0-7.482-3.346-7.482-7.484 0-4.139 3.344-7.512 7.482-7.512h256.284c4.139 0 7.512 3.374 7.512 7.512s-3.373 7.484-7.512 7.484zm0-29.112c-4.139 0-7.482-3.345-7.482-7.483 0-4.167 3.344-7.512 7.482-7.512h256.284c4.139 0 7.512 3.345 7.512 7.512 0 4.139-3.373 7.483-7.512 7.483zm215.436-191.086h40.848c4.139 0 7.512 3.374 7.512 7.512v142.102c0 4.139-3.373 7.512-7.512 7.512h-40.848c-4.139 0-7.512-3.373-7.512-7.512v-142.102c0-4.139 3.374-7.512 7.512-7.512zm33.336 14.996h-25.853v127.107h25.853zm-71.803 68.23c0-4.139 3.374-7.512 7.513-7.512s7.483 3.373 7.483 7.512v66.389c0 4.139-3.345 7.512-7.483 7.512h-40.849c-4.139 0-7.512-3.373-7.512-7.512v-124.642c0-4.139 3.373-7.512 7.512-7.512h40.849c4.139 0 7.483 3.373 7.483 7.512v24.265c0 4.139-3.345 7.512-7.483 7.512-4.139 0-7.513-3.373-7.513-7.512v-16.753h-25.853v109.618h25.853zm-105.138-9.836h40.849c4.139 0 7.483 3.345 7.483 7.483v68.741c0 4.139-3.345 7.512-7.483 7.512h-40.849c-4.166 0-7.512-3.373-7.512-7.512v-68.741c0-4.139 3.346-7.483 7.512-7.483zm33.337 14.995h-25.853v53.718h25.853zm-71.803 21.034c0-4.139 3.373-7.483 7.512-7.483s7.483 3.345 7.483 7.483v40.196c0 4.139-3.345 7.512-7.483 7.512h-40.877c-4.139 0-7.482-3.373-7.482-7.512v-98.42c0-4.139 3.344-7.512 7.482-7.512h40.877c4.139 0 7.483 3.373 7.483 7.512v24.265c0 4.139-3.345 7.483-7.483 7.483s-7.512-3.345-7.512-7.483v-16.781h-25.853v83.425h25.853zm-143.634 29.565c-.879 4.053-4.847 6.633-8.9 5.754-4.054-.878-6.604-4.875-5.727-8.9 4.225-19.39 15.053-36.284 29.963-48.275 12.841-10.318 28.687-17.008 45.978-18.51v-57.658h-11.026c-.851 0-1.588.369-2.154.907-.539.539-.879 1.304-.879 2.126v12.841c0 3.601-2.607 6.775-6.265 7.398-9.1 1.531-17.859 4.054-26.107 7.483-8.42 3.487-16.385 7.91-23.755 13.154-2.892 2.098-7.001 1.842-9.638-.766l-9.1-9.128c-.595-.595-1.389-.879-2.183-.879-.737 0-1.502.312-2.098.907l-15.562 15.562c-.596.596-.879 1.333-.879 2.098 0 .709.255 1.446.736 2.041l9.213 9.241c2.551 2.523 2.948 6.605.794 9.638-5.216 7.371-9.666 15.335-13.153 23.754-3.402 8.221-5.925 16.923-7.483 25.994-.596 3.628-3.657 6.35-7.399 6.35h-12.84c-.822 0-1.587.368-2.126.907-.566.566-.907 1.332-.907 2.154v21.997c0 .822.341 1.587.907 2.126.567.567 1.333.936 2.126.936h12.388c3.771-.255 7.2 2.41 7.853 6.236 1.53 9.1 4.053 17.83 7.483 26.107 3.431 8.249 7.739 16.072 12.842 23.33 2.438 2.948 2.296 7.314-.482 10.063l-9.07 9.099c-.596.567-.879 1.36-.879 2.126 0 .794.283 1.559.879 2.154l15.562 15.563c.567.566 1.36.85 2.126.85.794 0 1.56-.284 2.154-.85l9.071-9.1c2.551-2.551 6.633-2.948 9.638-.793 7.37 5.244 15.336 9.667 23.783 13.153 8.106 3.373 16.695 5.896 25.654 7.427 3.77.397 6.718 3.571 6.718 7.455v12.841c0 .851.34 1.587.879 2.154.566.539 1.304.879 2.154.879h11.026v-57.629c-17.291-1.531-33.138-8.192-45.978-18.51-14.91-11.991-25.738-28.913-29.963-48.275-.878-4.054 1.673-8.022 5.727-8.901s8.021 1.701 8.9 5.726c3.516 15.96 12.416 29.906 24.719 39.799 10.233 8.221 22.819 13.635 36.596 15.081v-140.09c-13.776 1.445-26.362 6.86-36.596 15.081-12.304 9.895-21.204 23.813-24.72 39.772zm147.291-249.168-60.38 60.378h60.38z"/></g></svg>