<svg id="Capa_1" enable-background="new 0 0 512 512" height="512" viewBox="0 0 512 512" width="512" xmlns="http://www.w3.org/2000/svg"><g><g clip-rule="evenodd" fill-rule="evenodd"><path d="m503.617 279.755c-11.963 126.086-118.122 224.762-247.354 224.762-137.227 0-248.488-111.262-248.488-248.517 0-60.209 21.431-115.399 57.034-158.401 3.288-3.601 6.804-3.714 10.545-.426l52.329 52.356c3.713 4.082 3.741 7.938.708 11.594-19.672 26.504-31.352 59.331-31.352 94.877 0 87.932 71.292 159.224 159.224 159.224 79.881 0 146.014-58.819 157.467-135.498.623-5.158 3.656-7.568 8.731-7.71h74.014c4.902-.142 7.199 2.551 7.142 7.739z" fill="#d57080"/><path d="m256.263 7.512c129.233 0 235.392 98.647 247.354 224.763.312 4.903-2.041 7.482-7.144 7.71h-74.013c-5.159-.142-8.108-2.693-8.731-7.71-11.453-76.679-77.586-135.498-157.467-135.498-35.263 0-67.834 11.48-94.225 30.897-4.337 2.807-8.192 2.495-11.65-.737l-52.355-52.385c-2.977-3.656-3.062-7.171.425-10.516 42.916-35.321 97.881-56.524 157.806-56.524z" fill="#ffe07d"/><path d="m256.263 383.191c70.045 0 127.192-57.147 127.192-127.191s-57.147-127.191-127.192-127.191-127.192 57.146-127.192 127.191 57.147 127.191 127.192 127.191z" fill="#ede9fb"/><path d="m333.253 154.773c30.5 23.216 50.202 59.926 50.202 101.227 0 70.243-56.949 127.191-127.192 127.191-41.301 0-78.011-19.701-101.227-50.201 21.346 16.271 48.02 25.937 76.962 25.937 70.243 0 127.192-56.948 127.192-127.191 0-28.943-9.666-55.617-25.937-76.963z" fill="#e0dbee"/><path d="m256.263 278.139c12.189 0 22.139-9.95 22.139-22.139s-9.95-22.139-22.139-22.139-22.139 9.95-22.139 22.139 9.949 22.139 22.139 22.139z" fill="#61a2f9"/><path d="m476.942 272.016c-19.36 117.81-121.665 207.697-244.944 207.697-63.497 0-121.437-23.84-165.346-63.071 45.581 53.745 113.613 87.875 189.611 87.875 129.233 0 235.392-98.676 247.354-224.762.057-5.188-2.24-7.881-7.144-7.739z" fill="#cb5769"/><path d="m480.23 231.48c0 2.835-.028 5.669-.142 8.504h16.385c5.103-.228 7.455-2.807 7.144-7.71-6.208-65.368-37.702-123.366-84.615-164.043 38.127 43.625 61.228 100.745 61.228 163.249z" fill="#ffd064"/></g><path d="m370.075 43.513c-3.628-1.956-4.988-6.492-3.032-10.12 1.955-3.657 6.491-5.018 10.119-3.062 38.466 20.637 71.037 50.826 94.536 87.393 22.876 35.548 37.163 77.104 40.026 121.807.255 4.365-3.231 7.966-7.568 7.966h-89.462c-4.082 0-7.398-3.26-7.513-7.313-3.94-38.269-22.138-72.341-49.182-96.804-26.9-24.294-62.561-39.091-101.736-39.091-17.83 0-34.923 3.061-50.769 8.674-16.47 5.867-31.607 14.457-44.873 25.258-2.977 2.409-7.342 2.211-10.035-.511l-63.355-63.328c-3.231-3.26-2.806-8.646.879-11.338 22.82-19.928 49.21-35.859 78.096-46.717 28.034-10.544 58.393-16.327 90.057-16.327 15.478 0 30.615 1.39 45.298 3.997 15.08 2.693 29.679 6.718 43.711 11.934 3.884 1.418 5.868 5.755 4.45 9.638-1.445 3.884-5.782 5.868-9.638 4.423-13.209-4.904-26.958-8.675-41.16-11.226-13.833-2.466-28.091-3.771-42.662-3.771-29.877 0-58.451 5.414-84.785 15.336-24.861 9.326-47.736 22.649-67.891 39.176l52.924 52.951c13.294-9.949 28.091-17.943 44.022-23.613 17.434-6.179 36.2-9.553 55.73-9.553 42.974 0 82.149 16.271 111.744 43.031 28.261 25.54 47.708 60.634 53.32 100.178h74.807c-3.77-39.034-16.866-75.347-37.02-106.698-22.139-34.413-52.81-62.844-89.038-82.29zm-160.103 176.204c-2.891-2.92-2.862-7.654.085-10.574 2.948-2.892 7.683-2.835 10.573.085l20.807 21.119c4.365-2.523 9.44-3.969 14.825-3.969 5.442 0 10.517 1.445 14.91 3.997l44.646-44.959c2.892-2.92 7.625-2.92 10.574-.028 2.92 2.92 2.948 7.653.028 10.602l-44.646 44.931c2.637 4.422 4.139 9.581 4.139 15.08 0 8.192-3.316 15.591-8.703 20.948-5.357 5.386-12.756 8.702-20.948 8.702-8.164 0-15.591-3.316-20.948-8.702-5.358-5.357-8.674-12.756-8.674-20.948 0-5.527 1.53-10.715 4.167-15.165zm-15.647 128.608c2.069-3.571 6.662-4.79 10.233-2.722 3.572 2.07 4.791 6.634 2.722 10.205l-4.28 7.398c13.946 6.945 29.395 11.254 45.78 12.246v-8.532c0-4.139 3.345-7.483 7.483-7.483 4.139 0 7.512 3.345 7.512 7.483v8.532c16.357-.992 31.833-5.301 45.78-12.246l-4.309-7.427c-2.041-3.571-.822-8.136 2.778-10.177 3.571-2.068 8.136-.821 10.176 2.75l4.282 7.37c6.633-4.393 12.812-9.468 18.425-15.08 5.612-5.612 10.658-11.792 15.08-18.425l-7.398-4.281c-3.571-2.068-4.79-6.633-2.721-10.204 2.069-3.601 6.633-4.819 10.204-2.75l7.398 4.28c6.946-13.919 11.254-29.396 12.247-45.752h-8.532c-4.139 0-7.484-3.373-7.484-7.512s3.345-7.483 7.484-7.483h8.532c-.992-16.385-5.301-31.861-12.247-45.78l-7.427 4.28c-3.571 2.069-8.135.821-10.176-2.75-2.069-3.571-.822-8.136 2.749-10.204l7.37-4.252c-4.393-6.634-9.468-12.812-15.08-18.426-5.612-5.612-11.792-10.687-18.425-15.108l-4.282 7.427c-2.068 3.571-6.633 4.79-10.204 2.721-3.601-2.068-4.819-6.661-2.75-10.232l4.28-7.398c-13.918-6.945-29.395-11.226-45.751-12.246v8.532c0 4.139-3.373 7.512-7.512 7.512s-7.483-3.373-7.483-7.512v-8.532c-16.385 1.02-31.862 5.329-45.78 12.246l4.28 7.427c2.069 3.571.822 8.136-2.75 10.204-3.571 2.041-8.136.822-10.205-2.749l-4.252-7.398c-6.633 4.422-12.812 9.468-18.425 15.108-5.612 5.613-10.687 11.764-15.108 18.396l7.427 4.281c3.571 2.068 4.79 6.661 2.721 10.232-2.069 3.572-6.661 4.791-10.232 2.722l-7.398-4.28c-6.946 13.947-11.226 29.396-12.247 45.78h8.532c4.139 0 7.512 3.345 7.512 7.483s-3.373 7.512-7.512 7.512h-8.532c1.02 16.357 5.329 31.833 12.247 45.78l7.427-4.309c3.571-2.041 8.135-.821 10.204 2.778 2.041 3.571.822 8.135-2.749 10.176l-7.398 4.281c4.422 6.633 9.468 12.812 15.108 18.425 5.612 5.612 11.764 10.658 18.396 15.08zm72.285-102.672c-2.637-2.636-6.293-4.28-10.347-4.28-4.025 0-7.682 1.645-10.347 4.28-2.636 2.665-4.28 6.321-4.28 10.347 0 4.054 1.645 7.71 4.28 10.347 2.665 2.664 6.321 4.28 10.347 4.28 4.054 0 7.71-1.616 10.347-4.28 2.664-2.637 4.28-6.293 4.28-10.347 0-4.025-1.616-7.682-4.28-10.347zm-10.347-124.329c37.191 0 70.867 15.081 95.245 39.431 24.378 24.378 39.458 58.055 39.458 95.245s-15.08 70.867-39.458 95.245-58.054 39.459-95.245 39.459-70.867-15.081-95.245-39.459c-24.35-24.378-39.43-58.055-39.43-95.245s15.08-70.867 39.43-95.245c24.378-24.35 58.054-39.431 95.245-39.431zm-123.308 341.806c3.543 2.125 4.705 6.718 2.579 10.262s-6.718 4.678-10.262 2.58c-38.07-22.735-69.762-55.078-91.701-93.688-21.204-37.304-33.308-80.39-33.308-126.284 0-31.805 5.84-62.278 16.47-90.426 11.027-29.169 27.242-55.844 47.538-78.833 2.891-3.288 7.937-3.288 10.97-.255l63.242 63.213c2.891 2.92 2.92 7.598.085 10.518-10.743 13.209-19.332 28.261-25.2 44.674-5.697 15.96-8.816 33.166-8.816 51.109 0 41.897 16.98 79.824 44.448 107.292 27.439 27.44 65.367 44.448 107.264 44.448 39.175 0 74.836-14.825 101.736-39.119 27.157-24.576 45.412-58.818 49.239-97.343.396-3.798 3.6-6.746 7.455-6.746h89.547c4.564 0 8.023 3.997 7.427 8.476-4.394 66.87-34.413 126.711-80.363 169.769-45.781 42.946-107.35 69.223-175.042 69.223-17.348 0-34.414-1.758-50.967-5.103-16.952-3.43-33.28-8.504-48.785-15.108-3.827-1.588-5.613-5.982-3.997-9.779 1.588-3.799 5.981-5.585 9.779-3.969 14.655 6.207 29.991 10.998 45.922 14.201 15.42 3.118 31.493 4.762 48.047 4.762 63.752 0 121.721-24.718 164.78-65.112 41.556-38.948 69.279-92.467 75.09-152.364h-74.807c-5.612 39.545-25.059 74.638-53.32 100.178-29.594 26.731-68.77 43.03-111.744 43.03-46.036 0-87.705-18.68-117.894-48.842-30.159-30.161-48.811-71.859-48.811-117.894 0-19.7 3.401-38.579 9.694-56.155 5.726-15.987 13.833-30.869 23.924-44.221l-52.894-52.924c-16.667 20.211-30.104 43.201-39.543 68.146-10.007 26.447-15.479 55.135-15.479 85.154 0 43.258 11.396 83.85 31.295 118.886 20.665 36.369 50.515 66.842 86.402 88.244z"/></g></svg>