<svg id="Capa_1" enable-background="new 0 0 512 512" height="512" viewBox="0 0 512 512" width="512" xmlns="http://www.w3.org/2000/svg"><g><g clip-rule="evenodd" fill-rule="evenodd"><path d="m31.805 265.454h134.421v136.858h-134.421z" fill="#ffefd6"/><path d="m398.018 398.117v-226.348c0-25.286 20.693-45.979 45.978-45.979 25.286 0 45.979 20.693 45.979 45.979v226.349h-91.957z" fill="#e0dbee"/><path d="m277.005 398.117v-226.348c0-25.286 20.665-45.979 45.95-45.979s45.978 20.693 45.978 45.979v226.349h-91.928z" fill="#e0dbee"/><path d="m160.414 273.873h-145.136c-4.28 0-7.767-3.516-7.767-7.767v-13.606c0-4.252 3.486-7.768 7.767-7.768h145.136c4.252 0 7.768 3.516 7.768 7.768v13.605c0 4.252-3.516 7.768-7.768 7.768z" fill="#d57080"/><path d="m155.964 398.117v-226.348c0-25.286 20.693-45.979 45.979-45.979 25.285 0 45.95 20.693 45.95 45.979v226.349h-91.929z" fill="#e0dbee"/><path d="m15.278 456.54h481.472c4.252 0 7.767-3.486 7.767-7.767v-47.736c0-4.28-3.515-7.767-7.767-7.767h-481.472c-4.28 0-7.767 3.486-7.767 7.767v47.736c.001 4.281 3.487 7.767 7.767 7.767z" fill="#b3e59f"/><path d="m15.278 456.54h481.472c4.252 0 7.767-3.486 7.767-7.767v-47.736c0-4.28-3.515-7.767-7.767-7.767h-16.499v19.587c0 10.687-8.759 19.418-19.417 19.418h-453.322v16.498c0 4.281 3.486 7.767 7.766 7.767z" fill="#95d6a4"/><g fill="#d3cee5"><path d="m398.018 393.271v-24.265h48.274c10.658 0 19.418-8.761 19.418-19.419v-218.327c14.4 7.795 24.265 23.047 24.265 40.509v221.502z"/><path d="m277.005 393.271v-24.265h48.246c10.687 0 19.417-8.761 19.417-19.419v-218.327c14.401 7.795 24.265 23.047 24.265 40.509v221.502z"/><path d="m155.964 393.271v-24.265h48.247c10.687 0 19.417-8.761 19.417-19.419v-218.327c14.429 7.795 24.265 23.047 24.265 40.509v221.502z"/></g><path d="m32.202 393.271h123.762v-119.398h-24.265v75.714c0 10.658-8.731 19.419-19.418 19.419h-80.08v24.265z" fill="#ffe6c1"/><path d="m489.975 200.852h-334.011c-7.994 0-14.542-6.548-14.542-14.542s6.548-14.541 14.542-14.541h334.011c7.994 0 14.542 6.547 14.542 14.541s-6.548 14.542-14.542 14.542z" fill="#0c5e7f"/><path d="m489.975 345.959h-334.011c-7.994 0-14.542-6.548-14.542-14.542 0-8.021 6.548-14.57 14.542-14.57h334.011c7.994 0 14.542 6.549 14.542 14.57 0 7.994-6.548 14.542-14.542 14.542z" fill="#0c5e7f"/><path d="m131.699 244.732h24.265v29.141h-24.265z" fill="#cb5769"/></g><path d="m14.995 449.028h482.01v-48.274c-160.67 0-321.34 0-482.01 0zm38.438-145.56c0-4.139 3.346-7.512 7.484-7.512 4.167 0 7.512 3.373 7.512 7.512v13.096c0 4.139-3.345 7.512-7.512 7.512-4.138 0-7.484-3.373-7.484-7.512zm58.253 47.083c0-4.138 3.345-7.512 7.483-7.512 4.139 0 7.512 3.374 7.512 7.512v13.097c0 4.14-3.373 7.513-7.512 7.513-4.138 0-7.483-3.373-7.483-7.513zm0-47.083c0-4.139 3.345-7.512 7.483-7.512 4.139 0 7.512 3.373 7.512 7.512v13.096c0 4.139-3.373 7.512-7.512 7.512-4.138 0-7.483-3.373-7.483-7.512zm-29.141 47.083c0-4.138 3.373-7.512 7.512-7.512s7.484 3.374 7.484 7.512v13.097c0 4.14-3.345 7.513-7.484 7.513s-7.512-3.373-7.512-7.513zm0-47.083c0-4.139 3.373-7.512 7.512-7.512s7.484 3.373 7.484 7.512v13.096c0 4.139-3.345 7.512-7.484 7.512s-7.512-3.373-7.512-7.512zm-29.112 47.083c0-4.138 3.346-7.512 7.484-7.512 4.167 0 7.512 3.374 7.512 7.512v13.097c0 4.14-3.345 7.513-7.512 7.513-4.138 0-7.484-3.373-7.484-7.513zm383.051-231.735v-17.745c0-10.46-4.28-20.013-11.197-26.901-6.917-6.917-16.441-11.226-26.93-11.226h-29.764c-10.488 0-20.013 4.309-26.93 11.226-6.917 6.889-11.197 16.441-11.197 26.901v17.745c11.735 1.672 22.252 7.171 30.274 15.165 7.994 8.021 13.493 18.567 15.165 30.275h15.137c1.672-11.708 7.172-22.254 15.194-30.275 7.996-7.994 18.541-13.493 30.248-15.165zm-113.528-44.873c2.268-3.8 4.989-7.286 8.107-10.404 9.638-9.609 22.904-15.591 37.531-15.591h29.764c14.627 0 27.922 5.981 37.531 15.591 9.638 9.639 15.619 22.934 15.619 37.532v17.745c11.707 1.672 22.253 7.171 30.246 15.165 8.306 8.306 13.891 19.276 15.336 31.465 3.203 1.105 6.095 2.92 8.447 5.273 3.997 3.996 6.463 9.523 6.463 15.59s-2.466 11.565-6.463 15.562c-2.268 2.268-5.017 4.054-8.079 5.159v34.839c0 4.138-3.345 7.512-7.484 7.512s-7.512-3.374-7.512-7.512v-33.535h-76.934v101.029h76.934v-33.535c0-4.139 3.373-7.483 7.512-7.483s7.484 3.345 7.484 7.483v34.838c3.061 1.135 5.811 2.893 8.079 5.16 3.997 3.996 6.463 9.496 6.463 15.59 0 6.066-2.466 11.565-6.463 15.562-2.268 2.268-5.017 4.025-8.079 5.159v33.619h7.058c4.139 0 7.483 3.374 7.483 7.513v63.27c0 4.139-3.345 7.512-7.483 7.512h-497.004c-4.139 0-7.512-3.373-7.512-7.512v-63.27c0-4.139 3.373-7.513 7.512-7.513h16.81v-104.4h-16.81c-4.139 0-7.512-3.345-7.512-7.483v-29.141c0-4.139 3.373-7.483 7.512-7.483h57.034c4.139 0 7.484 3.345 7.484 7.483 0 4.139-3.345 7.512-7.484 7.512h-49.55v14.117h133.06v-14.117h-49.55c-4.139 0-7.484-3.373-7.484-7.512s3.346-7.483 7.484-7.483h49.947v-30.218c-3.062-1.105-5.811-2.892-8.05-5.159-3.997-3.997-6.492-9.496-6.492-15.562s2.495-11.594 6.492-15.59c2.352-2.354 5.215-4.168 8.447-5.273 1.445-12.189 7.03-23.159 15.307-31.465 8.022-7.994 18.538-13.493 30.274-15.165v-17.745c0-14.599 5.981-27.894 15.591-37.532 9.638-9.609 22.933-15.591 37.531-15.591h29.793c14.599 0 27.893 5.981 37.531 15.591 3.089 3.117 5.81 6.604 8.079 10.403zm-7.484 44.873v-17.745c0-10.46-4.309-20.013-11.226-26.901-6.888-6.917-16.441-11.226-26.901-11.226h-29.793c-10.46 0-20.013 4.309-26.901 11.226-6.917 6.889-11.225 16.441-11.225 26.901v17.745c11.735 1.672 22.252 7.171 30.274 15.165 8.022 8.021 13.521 18.567 15.165 30.275h15.165c1.644-11.708 7.144-22.254 15.166-30.275 8.023-7.994 18.54-13.493 30.276-15.165zm75.062 234.626h-14.089v32.315h14.089zm-121.041 0h-14.088v32.315h14.088zm-121.041-1.303c-3.062-1.134-5.811-2.892-8.05-5.159-3.997-3.997-6.492-9.496-6.492-15.562 0-6.094 2.495-11.594 6.492-15.59 2.239-2.267 4.989-4.025 8.05-5.16v-29.311h-109.135v104.401h109.135zm106.953-42.775h14.088v-101.029h-14.088v33.535c0 4.138-3.345 7.512-7.512 7.512-4.139 0-7.483-3.374-7.483-7.512v-33.535h-76.934v101.029h76.934v-33.535c0-4.139 3.345-7.483 7.483-7.483 4.167 0 7.512 3.345 7.512 7.483zm121.04 0h14.089v-101.029h-14.089v33.535c0 4.138-3.373 7.512-7.512 7.512s-7.512-3.374-7.512-7.512v-33.535h-76.933v101.029h76.933v-33.535c0-4.139 3.373-7.483 7.512-7.483s7.512 3.345 7.512 7.483zm113.53 29.083c1.927 0 3.686-.794 4.961-2.069 1.276-1.275 2.069-3.033 2.069-4.961 0-1.955-.794-3.713-2.069-4.988-1.275-1.276-3.034-2.07-4.961-2.07-111.346 0-222.665 0-334.011 0-1.928 0-3.685.794-4.96 2.07-1.304 1.275-2.098 3.061-2.098 4.988s.793 3.686 2.098 4.961c1.275 1.275 3.033 2.069 4.96 2.069zm0-145.107c1.927 0 3.686-.794 4.961-2.069 1.276-1.275 2.069-3.033 2.069-4.961s-.794-3.685-2.069-4.961c-1.275-1.304-3.034-2.098-4.961-2.098-111.346 0-222.665 0-334.011 0-1.928 0-3.685.794-4.96 2.098-1.304 1.276-2.098 3.033-2.098 4.961s.793 3.686 2.098 4.961c1.275 1.275 3.033 2.069 4.96 2.069zm-84.446 160.102v32.315h76.934v-32.315zm11.311-208.859c-5.301 5.302-9.071 12.105-10.573 19.674h75.459c-1.531-7.569-5.272-14.372-10.573-19.674-6.973-6.974-16.583-11.282-27.156-11.282-10.574 0-20.184 4.308-27.157 11.282zm-253.364 208.859v32.315h76.934v-32.315zm11.282-208.859c-5.273 5.302-9.043 12.105-10.545 19.674h75.46c-1.531-7.569-5.301-14.372-10.574-19.674-6.973-6.974-16.583-11.282-27.156-11.282-10.574 0-20.212 4.308-27.185 11.282zm109.731 208.859v32.315h76.933v-32.315zm11.31-208.859c-5.272 5.302-9.042 12.105-10.573 19.674h75.46c-1.503-7.569-5.273-14.372-10.545-19.674-7.002-6.974-16.611-11.282-27.185-11.282s-20.184 4.308-27.157 11.282z"/></g></svg>