<svg id="Capa_1" enable-background="new 0 0 512 512" height="512" viewBox="0 0 512 512" width="512" xmlns="http://www.w3.org/2000/svg"><g><g clip-rule="evenodd" fill-rule="evenodd"><path d="m504.517 69.776v-22.308c0-4.28-3.516-7.769-7.768-7.769h-194.684c-4.281 0-7.769 3.488-7.769 7.769v22.309l102.276 8.73z" fill="#d57080"/><path d="m294.296 69.776h210.221v378.259h-210.221z" fill="#ffe07d"/><path d="m294.296 443.188v-24.264h161.69c13.324 0 24.266-10.914 24.266-24.266v-324.882h24.265v373.411h-210.221z" fill="#ffd064"/><path d="m20.948 472.301h475.801c4.989 0 7.768-2.297 7.768-7.768v-21.346c-161.181 0-322.36 0-483.568 0-7.398 0-13.436 3.487-13.436 7.768v13.578c-.001 4.279 6.037 7.768 13.435 7.768z" fill="#da8993"/><path d="m349.629 168.791c17.122 0 31.068-13.946 31.068-31.067 0-17.094-13.946-31.04-31.068-31.04-17.093 0-31.067 13.946-31.067 31.04-.001 17.121 13.974 31.067 31.067 31.067z" fill="#61a2f9"/><path d="m150.891 443.188c61.342 0 111.374-50.031 111.374-111.374 0-61.315-50.032-111.346-111.374-111.346-61.314 0-111.347 50.031-111.347 111.346 0 61.342 50.032 111.374 111.347 111.374z" fill="#b1e4f9"/><path d="m216.57 241.898c27.695 20.239 45.695 52.98 45.695 89.916 0 61.513-49.862 111.374-111.374 111.374-36.936 0-69.677-18-89.916-45.694 18.397 13.465 41.103 21.431 65.651 21.431 61.512 0 111.374-49.862 111.374-111.375 0-24.55-7.966-47.255-21.43-65.652z" fill="#90d8f9"/><path d="m150.891 331.134c17.121 0 31.067-13.975 31.067-31.068 0-17.122-13.946-31.068-31.067-31.068-17.094 0-31.04 13.946-31.04 31.068 0 17.093 13.946 31.068 31.04 31.068z" fill="#61a2f9"/><path d="m504.517 69.776v-22.308c0-4.28-3.516-7.769-7.768-7.769h-16.497v30.077z" fill="#cb5769"/></g><path d="m497.005 288.046c0-4.167 3.373-7.512 7.512-7.512s7.483 3.345 7.483 7.512v184.255c0 4.167-3.345 7.512-7.483 7.512h-497.005c-4.139 0-7.512-3.345-7.512-7.512v-29.113c0-4.139 3.374-7.483 7.512-7.483h43.938v-38.749c-12.274-18.71-19.417-41.075-19.417-65.142 0-24.037 7.143-46.403 19.417-65.112v-38.75h-11.906c-4.138 0-7.512-3.345-7.512-7.483 0-4.139 3.374-7.513 7.512-7.513h11.906v-14.116h-11.906c-4.138 0-7.512-3.346-7.512-7.484 0-4.166 3.374-7.512 7.512-7.512h103.863v-21.855c0-8.731 3.571-16.668 9.326-22.422 5.754-5.755 13.691-9.326 22.451-9.326h111.657c0-30.19-.028-60.379-.028-90.541 0-4.138 3.345-7.512 7.483-7.512h210.221c4.139 0 7.483 3.374 7.483 7.512v214.359c0 4.139-3.345 7.512-7.483 7.512s-7.512-3.373-7.512-7.512v-176.771h-33.535v358.416h33.535zm-377.154 80.392c-4.167 0-7.512-3.345-7.512-7.483s3.345-7.512 7.512-7.512h62.107c4.139 0 7.512 3.373 7.512 7.512s-3.373 7.483-7.512 7.483zm13.124 29.14c-4.139 0-7.512-3.373-7.512-7.512s3.373-7.484 7.512-7.484h35.859c4.138 0 7.512 3.346 7.512 7.484s-3.374 7.512-7.512 7.512zm168.834-335.285h195.196v-15.109h-195.196zm117.979 46.686h28.687v-31.691h-28.687zm28.687 14.996h-28.687v25.003h28.687zm-28.687 265.014h28.687v-25.002h-28.687zm28.687 14.995h-28.687v31.72h28.687zm-28.687-54.993h28.687v-25.001h-28.687zm0-39.996h28.687v-25.003h-28.687zm0-39.998h28.687v-25.002h-28.687zm0-40.025h28.687v-25.002h-28.687zm0-39.998h28.687v-25.001h-28.687zm-268.897 72.511c10.658 0 20.296 4.337 27.269 11.309 7.001 6.974 11.31 16.611 11.31 27.271 0 10.658-4.309 20.297-11.31 27.27-6.973 6.973-16.611 11.281-27.269 11.281-10.63 0-20.268-4.309-27.242-11.281-7.001-6.973-11.31-16.611-11.31-27.27s4.309-20.297 11.31-27.271c6.973-6.972 16.611-11.309 27.242-11.309zm16.667 21.912c-4.252-4.252-10.148-6.888-16.668-6.888-6.492 0-12.388 2.636-16.64 6.888-4.28 4.252-6.917 10.148-6.917 16.669 0 6.491 2.636 12.388 6.917 16.668 4.252 4.252 10.148 6.889 16.64 6.889 6.52 0 12.416-2.637 16.668-6.889 4.28-4.28 6.916-10.177 6.916-16.668.001-6.521-2.636-12.418-6.916-16.669zm182.071-184.225c10.658 0 20.297 4.309 27.27 11.281 6.975 7.002 11.283 16.64 11.283 27.271 0 10.658-4.309 20.296-11.283 27.27-6.973 6.973-16.611 11.31-27.27 11.31s-20.296-4.337-27.268-11.31c-5.301-5.301-9.043-12.133-10.573-19.758h-10.008v290.469h103.012c0-119.48 0-238.963 0-358.416h-103.012v52.952h10.007c1.53-7.654 5.272-14.486 10.573-19.787 6.973-6.974 16.611-11.282 27.269-11.282zm16.668 21.911c-4.28-4.28-10.147-6.916-16.668-6.916-6.52 0-12.387 2.636-16.667 6.916-2.552 2.522-4.507 5.669-5.67 9.157h18.709c4.139 0 7.483 3.345 7.483 7.483 0 4.139-3.345 7.512-7.483 7.512h-18.709c1.163 3.486 3.118 6.604 5.67 9.156 4.28 4.28 10.147 6.916 16.667 6.916 6.521 0 12.388-2.636 16.668-6.916 4.252-4.252 6.889-10.148 6.889-16.668-.001-6.491-2.637-12.388-6.889-16.64zm-207.895 62.76h103.862c4.139 0 7.512 3.346 7.512 7.512 0 4.139-3.373 7.484-7.512 7.484h-11.905v14.116h11.905c4.139 0 7.512 3.374 7.512 7.513s-3.373 7.483-7.512 7.483h-11.905v38.778c9.127 13.918 15.42 29.877 18.028 47.056.623 4.082-2.183 7.909-6.293 8.504-4.082.624-7.909-2.183-8.532-6.293-3.742-24.549-16.271-46.942-35.065-63.043-18.907-16.215-42.747-25.002-67.635-25.002-28.659.028-54.625 11.65-73.39 30.444-19.475 19.445-30.445 45.724-30.445 73.418 0 27.723 10.97 54.001 30.445 73.446 18.765 18.794 44.731 30.416 73.39 30.444h.085c34.271-.028 65.991-16.753 85.409-44.815.198-.312.396-.623.623-.907 8.419-12.445 14.23-26.816 16.583-42.322.623-4.11 4.45-6.916 8.532-6.293 4.11.596 6.916 4.422 6.293 8.504-2.608 17.178-8.901 33.138-18.028 47.057v38.777h36.481v-290.469h-111.656c-4.621 0-8.816 1.899-11.849 4.933-3.033 3.032-4.932 7.227-4.932 11.82v21.855zm-60.889 14.996v14.116h15.449v-14.116zm-14.995 14.116v-14.116h-16.073v14.116zm136.773-14.116v14.116h16.073v-14.116zm-14.996 14.116v-14.116h-15.449v14.116zm-30.444 0v-14.116h-15.449v14.116zm-30.444 0v-14.116h-15.449v14.116zm-76.962 222.749h26.617c-9.751-5.471-18.737-12.273-26.617-20.239zm0-187.514c7.88-7.965 16.866-14.768 26.617-20.239h-26.617zm168.919-20.239h-26.646c9.779 5.471 18.765 12.303 26.646 20.268zm0 187.485c-7.909 7.966-16.867 14.797-26.646 20.268h26.646zm-220.368 35.263v14.117h482.009v-14.117c-160.67 0-321.34 0-482.009 0z"/></g></svg>