<svg id="Capa_1" enable-background="new 0 0 512 512" height="512" viewBox="0 0 512 512" width="512" xmlns="http://www.w3.org/2000/svg"><g><g clip-rule="evenodd" fill-rule="evenodd"><path d="m112.268 33.108h-51.308c-4.252 0-7.767 3.487-7.767 7.768v15.194c0 4.252 3.515 7.768 7.767 7.768h51.308c4.28 0 7.767-3.516 7.767-7.768v-15.194c-.001-4.28-3.487-7.768-7.767-7.768zm0 219.122h-51.308c-4.252 0-7.767 3.515-7.767 7.767v15.193c0 4.28 3.515 7.767 7.767 7.767h51.308c4.28 0 7.767-3.486 7.767-7.767v-15.193c-.001-4.252-3.487-7.767-7.767-7.767zm0-73.022h-51.308c-4.252 0-7.767 3.487-7.767 7.739v15.193c0 4.28 3.515 7.767 7.767 7.767h51.308c4.28 0 7.767-3.486 7.767-7.767v-15.193c-.001-4.252-3.487-7.739-7.767-7.739zm0-73.05h-51.308c-4.252 0-7.767 3.487-7.767 7.768v15.166c0 4.28 3.515 7.767 7.767 7.767h51.308c4.28 0 7.767-3.486 7.767-7.767v-15.166c-.001-4.28-3.487-7.768-7.767-7.768z" fill="#b1e4f9"/><path d="m451.04 33.108h-51.308c-4.252 0-7.767 3.487-7.767 7.768v15.194c0 4.252 3.515 7.768 7.767 7.768h51.308c4.28 0 7.767-3.516 7.767-7.768v-15.194c0-4.28-3.487-7.768-7.767-7.768zm0 219.122h-51.308c-4.252 0-7.767 3.515-7.767 7.767v15.193c0 4.28 3.515 7.767 7.767 7.767h51.308c4.28 0 7.767-3.486 7.767-7.767v-15.193c0-4.252-3.487-7.767-7.767-7.767zm0-73.022h-51.308c-4.252 0-7.767 3.487-7.767 7.739v15.193c0 4.28 3.515 7.767 7.767 7.767h51.308c4.28 0 7.767-3.486 7.767-7.767v-15.193c0-4.252-3.487-7.739-7.767-7.739zm0-73.05h-51.308c-4.252 0-7.767 3.487-7.767 7.768v15.166c0 4.28 3.515 7.767 7.767 7.767h51.308c4.28 0 7.767-3.486 7.767-7.767v-15.166c0-4.28-3.487-7.768-7.767-7.768z" fill="#b1e4f9"/><path d="m113.231 7.512h285.537c4.28 0 7.768 3.487 7.768 7.767v285.51c0 4.28-3.487 7.768-7.768 7.768h-285.537c-4.252 0-7.768-3.487-7.768-7.768v-285.511c.001-4.279 3.516-7.766 7.768-7.766z" fill="#0c5e7f"/><path d="m382.271 7.512h16.498c4.28 0 7.768 3.487 7.768 7.767v285.51c0 4.28-3.487 7.768-7.768 7.768h-285.538c-4.252 0-7.768-3.487-7.768-7.768v-16.499h252.542c13.352 0 24.265-10.913 24.265-24.265v-252.513z" fill="#174b67"/><path d="m321.439 82.263 10.347 10.347c2.693 2.692 2.722 7.115.057 9.836l-6.095 6.095c7.285 10.261 12.388 22.225 14.57 35.179h8.532c3.855 0 7.002 3.146 7.002 7.001v14.627c0 3.855-3.146 7.002-7.002 7.002h-8.532c-2.183 12.954-7.285 24.916-14.57 35.178l6.038 6.038c2.693 2.779 2.75 7.145 0 9.893l-10.347 10.347c-2.692 2.693-7.114 2.721-9.836.057l-6.095-6.095c-10.29 7.313-22.253 12.388-35.207 14.57v8.532c0 3.855-3.147 7.002-6.974 7.002h-14.626c-3.855 0-7.002-3.146-7.002-7.002v-8.532c-12.954-2.183-24.917-7.257-35.179-14.57l-6.038 6.038c-2.721 2.721-7.172 2.721-9.893 0l-10.347-10.347c-2.722-2.721-2.722-7.171 0-9.893l6.038-6.038c-7.313-10.262-12.388-22.224-14.57-35.178h-8.561c-3.827 0-6.974-3.146-6.974-7.002v-14.628c0-3.854 3.146-7.001 6.974-7.001h8.561c2.183-12.954 7.257-24.918 14.57-35.179l-6.038-6.038c-2.722-2.721-2.722-7.172 0-9.893l10.347-10.347c2.721-2.722 7.172-2.722 9.893 0l6.038 6.038c10.262-7.313 22.225-12.388 35.179-14.57v-8.532c0-3.855 3.146-7.002 7.002-7.002h14.626c3.827 0 6.974 3.146 6.974 7.002v8.532c12.954 2.183 24.917 7.257 35.207 14.57l6.038-6.038c2.778-2.693 7.144-2.749 9.893.001z" fill="#e0dbee"/><path d="m321.439 82.263 10.347 10.347c2.693 2.692 2.722 7.115.057 9.836l-6.095 6.095c7.285 10.261 12.388 22.225 14.57 35.179h8.532c3.855 0 7.002 3.146 7.002 7.001v14.627c0 3.855-3.146 7.002-7.002 7.002h-8.532c-2.183 12.954-7.285 24.916-14.57 35.178l6.038 6.038c2.693 2.779 2.75 7.145 0 9.893l-10.347 10.347c-2.692 2.693-7.114 2.721-9.836.057l-6.095-6.095c-10.29 7.313-22.253 12.388-35.207 14.57v8.532c0 3.855-3.147 7.002-6.974 7.002h-14.626c-3.855 0-7.002-3.146-7.002-7.002v-8.532c-12.954-2.183-24.917-7.257-35.179-14.57l-6.038 6.038c-2.721 2.721-7.172 2.721-9.893 0l-10.347-10.347c-2.722-2.721-2.722-7.171 0-9.893l6.038-6.038c-.596-.85-1.19-1.701-1.758-2.579 13.521 8.986 29.765 14.23 47.227 14.23 47.168 0 85.408-38.24 85.408-85.409 0-17.462-5.244-33.704-14.229-47.226.879.566 1.729 1.162 2.579 1.758l6.038-6.038c2.779-2.695 7.145-2.751 9.894-.001z" fill="#d3cee5"/><path d="m256.015 189.526c17.348 0 31.492-14.145 31.492-31.492 0-17.349-14.145-31.494-31.492-31.494-17.349 0-31.493 14.146-31.493 31.494-.001 17.348 14.144 31.492 31.493 31.492z" fill="#0c5e7f"/><g fill="#b3e59f"><path d="m256.015 504.517c15.789 0 28.658-12.898 28.658-28.688s-12.869-28.659-28.658-28.659-28.687 12.87-28.687 28.659 12.898 28.688 28.687 28.688z"/><path d="m162.811 478.919c15.816 0 28.687-12.898 28.687-28.687s-12.87-28.659-28.687-28.659c-15.789 0-28.658 12.87-28.658 28.659-.001 15.789 12.868 28.687 28.658 28.687z"/><path d="m349.19 478.919c15.789 0 28.688-12.898 28.688-28.687s-12.899-28.659-28.688-28.659c-15.788 0-28.658 12.87-28.658 28.659-.001 15.789 12.869 28.687 28.658 28.687z"/><path d="m69.634 453.321c15.789 0 28.688-12.897 28.688-28.686s-12.898-28.658-28.688-28.658c-15.788 0-28.659 12.869-28.659 28.658s12.871 28.686 28.659 28.686z"/><path d="m442.366 453.321c15.789 0 28.686-12.897 28.686-28.686s-12.897-28.658-28.686-28.658-28.658 12.869-28.658 28.658 12.869 28.686 28.658 28.686z"/></g><path d="m416.4 412.503c-1.729 3.685-2.692 7.795-2.692 12.132 0 15.846 12.841 28.686 28.658 28.686 15.846 0 28.686-12.841 28.686-28.686 0-4.337-.963-8.447-2.693-12.132-4.564 9.779-14.485 16.526-25.993 16.526-11.48 0-21.402-6.747-25.966-16.526z" fill="#95d6a4"/><path d="m323.196 438.1c-1.701 3.686-2.665 7.795-2.665 12.133 0 15.846 12.813 28.687 28.658 28.687 15.846 0 28.688-12.841 28.688-28.687 0-4.338-.992-8.447-2.693-12.133-4.592 9.779-14.485 16.555-25.994 16.555-11.508-.001-21.402-6.776-25.994-16.555z" fill="#95d6a4"/><path d="m230.02 463.696c-1.729 3.685-2.693 7.797-2.693 12.133 0 15.846 12.842 28.688 28.687 28.688 15.816 0 28.658-12.842 28.658-28.688 0-4.336-.964-8.448-2.693-12.133-4.564 9.781-14.485 16.556-25.965 16.556-11.508 0-21.43-6.774-25.994-16.556z" fill="#95d6a4"/><path d="m136.845 438.1c-1.729 3.686-2.692 7.795-2.692 12.133 0 15.846 12.841 28.687 28.658 28.687 15.846 0 28.687-12.841 28.687-28.687 0-4.338-.964-8.447-2.693-12.133-4.563 9.779-14.485 16.555-25.993 16.555-11.482-.001-21.404-6.776-25.967-16.555z" fill="#95d6a4"/><path d="m43.669 412.503c-1.73 3.685-2.694 7.795-2.694 12.132 0 15.846 12.843 28.686 28.659 28.686 15.846 0 28.688-12.841 28.688-28.686 0-4.337-.964-8.447-2.693-12.132-4.592 9.779-14.485 16.526-25.994 16.526-11.481 0-21.403-6.747-25.966-16.526z" fill="#95d6a4"/></g><path d="m349.19 429.057c-5.839 0-11.14 2.382-14.967 6.208-3.826 3.827-6.207 9.128-6.207 14.968 0 5.839 2.381 11.14 6.207 14.967 3.827 3.826 9.128 6.208 14.967 6.208 5.84 0 11.141-2.382 14.968-6.208 3.826-3.827 6.208-9.128 6.208-14.967 0-5.84-2.382-11.141-6.208-14.968-3.828-3.826-9.129-6.208-14.968-6.208zm93.176-25.597c-11.68 0-21.147 9.496-21.147 21.175 0 5.84 2.353 11.141 6.179 14.967 3.827 3.827 9.128 6.208 14.968 6.208 5.867 0 11.14-2.381 14.995-6.208 3.826-3.826 6.179-9.127 6.179-14.967 0-5.839-2.353-11.14-6.179-14.967-3.855-3.826-9.128-6.208-14.995-6.208zm-19.701-9.155c5.669-3.686 12.444-5.84 19.701-5.84 10.006 0 19.049 4.054 25.597 10.602 6.549 6.548 10.574 15.591 10.574 25.568 0 9.979-4.025 19.021-10.574 25.568-6.548 6.549-15.591 10.602-25.597 10.602-9.979 0-19.021-4.053-25.569-10.602-6.548-6.548-10.602-15.59-10.602-25.568 0-7.285 2.154-14.06 5.868-19.728l-31.296-31.268c-1.36-1.36-2.211-3.232-2.211-5.329v-52.242h-49.605v51.052l15.986 47.197c1.39-.17 2.807-.255 4.252-.255 9.978 0 19.021 4.054 25.569 10.602s10.603 15.591 10.603 25.569c0 10.006-4.055 19.049-10.603 25.569-6.548 6.548-15.591 10.602-25.569 10.602s-19.02-4.054-25.568-10.602c-6.548-6.52-10.602-15.563-10.602-25.569 0-9.978 4.054-19.021 10.602-25.569 2.126-2.126 4.508-3.997 7.115-5.556l-16.242-47.934c-.34-.879-.539-1.843-.539-2.863v-52.242h-50.457v44.815c0 4.139-3.345 7.483-7.483 7.483-4.139 0-7.512-3.345-7.512-7.483v-44.815h-50.43v52.242c0 1.021-.198 1.984-.567 2.863l-16.242 47.934c2.607 1.559 5.018 3.43 7.143 5.556 6.548 6.548 10.573 15.591 10.573 25.569 0 10.006-4.025 19.049-10.573 25.569-6.548 6.548-15.591 10.602-25.597 10.602-9.979 0-19.021-4.054-25.569-10.602-6.548-6.52-10.602-15.563-10.602-25.569 0-9.978 4.055-19.021 10.602-25.569 6.549-6.548 15.591-10.602 25.569-10.602 1.445 0 2.891.085 4.28.255l15.987-47.197v-51.052h-49.606v52.242c0 2.098-.879 3.997-2.239 5.357l-31.268 31.239c3.686 5.669 5.84 12.443 5.84 19.728 0 9.979-4.054 19.021-10.602 25.568-6.548 6.549-15.591 10.602-25.569 10.602-9.977 0-19.019-4.053-25.568-10.602-6.549-6.548-10.603-15.59-10.603-25.568s4.054-19.021 10.603-25.568c6.549-6.548 15.591-10.602 25.568-10.602 7.285 0 14.061 2.154 19.729 5.84l29.084-29.085v-49.152h-12.983c-4.139 0-7.483-3.373-7.483-7.512v-18.087h-44.787c-4.139 0-7.483-3.373-7.483-7.512v-30.726c0-4.139 3.345-7.484 7.483-7.484h44.787v-27.326h-44.787c-4.139 0-7.483-3.373-7.483-7.513v-30.699c0-4.166 3.345-7.512 7.483-7.512h44.787v-27.326h-44.787c-4.139 0-7.483-3.344-7.483-7.512v-30.7c0-4.139 3.345-7.512 7.483-7.512h44.787v-27.326h-44.787c-4.139 0-7.483-3.344-7.483-7.482v-30.73c0-4.139 3.345-7.512 7.483-7.512h44.787v-18.084c0-4.138 3.345-7.512 7.483-7.512h133.543c4.166 0 7.512 3.374 7.512 7.512 0 4.139-3.346 7.483-7.512 7.483h-126.03v286.076h286.049c0-95.359 0-190.718 0-286.076h-126.03c-4.139 0-7.513-3.345-7.513-7.483s3.374-7.512 7.513-7.512h133.542c4.139 0 7.512 3.374 7.512 7.512v18.085h44.759c4.139 0 7.512 3.373 7.512 7.512v30.729c0 4.139-3.373 7.482-7.512 7.482h-44.759v27.326h44.759c4.139 0 7.512 3.373 7.512 7.512v30.7c0 4.168-3.373 7.512-7.512 7.512h-44.759v27.326h44.759c4.139 0 7.512 3.346 7.512 7.512v30.699c0 4.14-3.373 7.513-7.512 7.513h-44.759v27.326h44.759c4.139 0 7.512 3.346 7.512 7.484v30.727c0 4.139-3.373 7.512-7.512 7.512h-44.759v18.087c0 4.139-3.373 7.512-7.512 7.512h-12.982v49.152zm-353.031 9.155c-5.839 0-11.14 2.382-14.967 6.208-3.826 3.827-6.207 9.128-6.207 14.967 0 5.84 2.381 11.141 6.207 14.967 3.827 3.827 9.128 6.208 14.967 6.208 5.84 0 11.141-2.381 14.968-6.208 3.826-3.826 6.208-9.127 6.208-14.967 0-11.679-9.468-21.175-21.176-21.175zm108.172 31.805c-3.855-3.826-9.128-6.208-14.995-6.208-5.84 0-11.141 2.382-14.968 6.208-3.826 3.827-6.179 9.128-6.179 14.968 0 5.839 2.353 11.14 6.179 14.967 3.827 3.826 9.128 6.208 14.968 6.208 5.867 0 11.14-2.382 14.995-6.208 3.826-3.827 6.179-9.128 6.179-14.967-.001-5.84-2.353-11.141-6.179-14.968zm85.692 5.187c7.001 1.474 13.237 4.961 18.085 9.808 6.548 6.549 10.602 15.591 10.602 25.569 0 10.007-4.054 19.049-10.602 25.598-6.549 6.52-15.591 10.573-25.568 10.573-10.007 0-19.049-4.054-25.598-10.573-6.52-6.549-10.573-15.591-10.573-25.598 0-9.979 4.054-19.021 10.573-25.569 4.876-4.847 11.112-8.334 18.086-9.808v-45.609c0-4.139 3.373-7.483 7.512-7.483s7.483 3.345 7.483 7.483zm7.483 20.409c-3.827-3.826-9.128-6.207-14.967-6.207-5.868 0-11.141 2.381-14.968 6.207-3.855 3.827-6.208 9.129-6.208 14.968 0 5.868 2.354 11.141 6.208 14.968 3.827 3.854 9.1 6.208 14.968 6.208 5.839 0 11.14-2.354 14.967-6.208 3.826-3.827 6.207-9.1 6.207-14.968.001-5.839-2.38-11.14-6.207-14.968zm143.067-420.268v15.733h37.275v-15.733zm0 73.05v15.733h37.275v-15.733zm0 73.049v15.732h37.275v-15.732zm0 73.05v15.732h37.275v-15.732zm-316.068 15.733v-15.732h-37.275v15.732zm0-73.05v-15.732h-37.275v15.732zm0-73.049v-15.733h-37.275v15.733zm0-73.05v-15.733h-37.275v15.733zm145.562 122.231c3.515 2.154 4.648 6.746 2.494 10.29-2.154 3.515-6.746 4.62-10.29 2.466-5.726-3.458-10.46-8.391-13.747-14.202-3.176-5.669-4.989-12.16-4.989-19.076 0-10.772 4.365-20.523 11.423-27.582 7.059-7.03 16.81-11.396 27.582-11.396s20.494 4.365 27.553 11.396c7.058 7.059 11.423 16.81 11.423 27.582 0 6.916-1.813 13.407-4.988 19.076-3.288 5.812-8.023 10.744-13.748 14.202-3.516 2.154-8.107 1.049-10.262-2.466-2.154-3.544-1.049-8.136 2.494-10.29 3.516-2.154 6.435-5.188 8.447-8.788 1.956-3.458 3.061-7.455 3.061-11.734 0-6.634-2.692-12.615-7.029-16.951-4.338-4.338-10.347-7.03-16.951-7.03-6.634 0-12.642 2.692-16.98 7.03-4.336 4.336-7.001 10.317-7.001 16.951 0 4.279 1.105 8.276 3.033 11.734 2.04 3.6 4.959 6.633 8.475 8.788zm-99.837-88.613c0 4.139-3.374 7.483-7.513 7.483-4.138 0-7.483-3.345-7.483-7.483v-51.733c0-4.138 3.346-7.483 7.483-7.483h51.732c4.139 0 7.483 3.346 7.483 7.483 0 4.167-3.345 7.514-7.483 7.514h-44.22v44.219zm-14.996 136.179c0-4.139 3.346-7.483 7.483-7.483 4.139 0 7.513 3.345 7.513 7.483v44.221h44.22c4.139 0 7.483 3.345 7.483 7.512 0 4.139-3.345 7.483-7.483 7.483h-51.732c-4.138 0-7.483-3.345-7.483-7.483v-51.733zm239.615 0c0-4.139 3.345-7.483 7.483-7.483 4.139 0 7.513 3.345 7.513 7.483v51.732c0 4.139-3.374 7.483-7.513 7.483h-51.704c-4.139 0-7.512-3.345-7.512-7.483 0-4.167 3.373-7.512 7.512-7.512h44.221zm14.996-136.179c0 4.139-3.374 7.483-7.513 7.483s-7.483-3.345-7.483-7.483v-44.22h-44.221c-4.139 0-7.512-3.347-7.512-7.514 0-4.138 3.373-7.483 7.512-7.483h51.704c4.139 0 7.513 3.346 7.513 7.483zm-56.581-12.982 10.347 10.347c2.778 2.777 4.167 6.463 4.195 10.176.028 3.686-1.332 7.37-4.082 10.177l-1.871 1.843c2.523 4.109 4.734 8.447 6.605 12.954 1.842 4.45 3.345 9.043 4.479 13.777h2.438c3.997 0 7.625 1.615 10.233 4.252 2.636 2.607 4.252 6.236 4.252 10.232v14.627c0 7.994-6.491 14.457-14.485 14.457h-2.438c-1.134 4.734-2.637 9.355-4.479 13.776-1.871 4.535-4.082 8.845-6.576 12.954l1.729 1.73c2.665 2.692 4.224 6.492 4.224 10.291 0 3.685-1.389 7.369-4.224 10.204l-10.347 10.347c-2.777 2.777-6.463 4.195-10.176 4.195-3.686.028-7.37-1.36-10.205-4.11l-1.814-1.813c-4.138 2.494-8.448 4.705-12.983 6.576-4.422 1.842-9.042 3.345-13.776 4.507v2.409c0 3.997-1.587 7.625-4.224 10.262-2.636 2.607-6.236 4.252-10.233 4.252h-14.626c-7.966 0-14.457-6.548-14.457-14.514v-2.409c-4.763-1.162-9.354-2.665-13.805-4.507-4.507-1.871-8.845-4.082-12.955-6.576l-1.73 1.7c-2.835 2.835-6.52 4.252-10.233 4.252s-7.427-1.389-10.232-4.224l-10.347-10.347c-2.835-2.806-4.252-6.548-4.252-10.233 0-3.713 1.417-7.427 4.252-10.262l1.73-1.73c-2.523-4.109-4.734-8.419-6.605-12.954-1.842-4.422-3.345-9.042-4.479-13.776h-2.438c-3.969 0-7.597-1.588-10.233-4.224-2.607-2.608-4.252-6.236-4.252-10.233v-14.627c0-3.996 1.645-7.625 4.252-10.232 2.637-2.637 6.265-4.252 10.233-4.252h2.438c1.134-4.734 2.637-9.327 4.479-13.749 1.871-4.535 4.082-8.844 6.605-12.954l-1.73-1.73c-5.641-5.641-5.641-14.882 0-20.494l10.347-10.347c2.806-2.835 6.52-4.224 10.232-4.224 3.714 0 7.428 1.389 10.262 4.224l1.729 1.729c4.11-2.523 8.42-4.734 12.927-6.605 4.45-1.814 9.042-3.345 13.805-4.479v-2.409c0-7.966 6.491-14.514 14.457-14.514h14.626c3.997 0 7.598 1.643 10.233 4.252 2.722 2.722 4.224 6.406 4.224 10.262v2.409c4.734 1.162 9.354 2.664 13.776 4.479 4.507 1.871 8.846 4.082 12.955 6.605.737-.737 1.56-1.673 2.382-2.325 2.749-2.409 6.208-3.628 9.638-3.628 3.684 0 7.369 1.389 10.203 4.224zm-.623 20.607-9.638-9.638-5.67 5.67c-2.522 2.551-6.604 2.947-9.638.793-4.734-3.373-9.865-6.236-15.279-8.476-5.414-2.239-11.056-3.854-16.81-4.818-3.544-.567-6.236-3.657-6.236-7.37v-8.05h-13.663v7.568c.227 3.799-2.438 7.229-6.236 7.853-5.867.992-11.509 2.636-16.81 4.818-5.272 2.183-10.232 4.933-14.855 8.164-2.948 2.438-7.313 2.268-10.091-.481l-5.67-5.67-9.609 9.609 5.67 5.698c2.551 2.522 2.947 6.604.793 9.638-3.373 4.733-6.235 9.864-8.475 15.279-2.155 5.188-3.742 10.658-4.734 16.356-.396 3.77-3.6 6.718-7.455 6.718h-8.051v13.635h7.568c3.799-.227 7.229 2.409 7.853 6.236.992 5.867 2.607 11.509 4.819 16.81 2.182 5.244 4.932 10.232 8.163 14.854 2.438 2.947 2.268 7.312-.482 10.063l-5.67 5.697 9.639 9.639 5.584-5.613c2.522-2.607 6.661-3.061 9.723-.879 4.734 3.374 9.865 6.236 15.279 8.477 5.386 2.239 11.027 3.826 16.81 4.818 3.516.567 6.236 3.656 6.236 7.37v8.023h13.663v-7.568c-.255-3.771 2.409-7.2 6.236-7.824 5.868-.992 11.48-2.637 16.81-4.818 5.386-2.24 10.517-5.103 15.251-8.447 2.92-2.127 7.002-1.871 9.638.765l5.698 5.698 9.638-9.639-5.67-5.697c-2.551-2.523-2.947-6.605-.793-9.639 3.373-4.733 6.208-9.864 8.447-15.278s3.855-11.056 4.818-16.81c.596-3.544 3.686-6.236 7.398-6.236h8.022v-13.637h-8.022c-3.6 0-6.774-2.608-7.398-6.265-.964-5.867-2.607-11.509-4.818-16.81-2.239-5.415-5.074-10.518-8.447-15.251-2.098-2.92-1.843-7.002.793-9.638z"/></g></svg>