<svg id="Capa_1" enable-background="new 0 0 512 512" height="512" viewBox="0 0 512 512" width="512" xmlns="http://www.w3.org/2000/svg"><g><g clip-rule="evenodd" fill-rule="evenodd"><path d="m141.677 443.712h36.879c4.28 0 7.767-3.515 7.767-7.767v-28.772c0-4.281-3.486-7.767-7.767-7.767h-36.879c-4.28 0-7.767 3.486-7.767 7.767v28.772c.001 4.252 3.487 7.767 7.767 7.767z" fill="#fed1a3"/><path d="m322.247 443.712h36.879c4.281 0 7.768-3.515 7.768-7.767v-28.772c0-4.281-3.487-7.767-7.768-7.767h-36.879c-4.281 0-7.768 3.486-7.768 7.767v28.772c0 4.252 3.487 7.767 7.768 7.767z" fill="#fed1a3"/><path d="m15.279 504.516h481.471c4.252 0 7.767-3.515 7.767-7.767v-59.501c0-4.28-3.515-7.767-7.767-7.767h-481.471c-4.28 0-7.767 3.486-7.767 7.767v59.501c0 4.252 3.486 7.767 7.767 7.767z" fill="#b3e59f"/><path d="m455.987 480.251h-448.475v16.498c0 4.252 3.486 7.767 7.767 7.767h481.471c4.252 0 7.767-3.515 7.767-7.767v-59.501c0-4.28-3.515-7.767-7.767-7.767h-16.498v26.504c-.001 13.325-10.942 24.266-24.265 24.266z" fill="#95d6a4"/></g><path d="m272.979 512c-4.139 0-7.483-3.345-7.483-7.484 0-4.138 3.345-7.512 7.483-7.512h224.025v-60.01c-160.669 0-321.339 0-482.009 0v60.01h224.025c4.139 0 7.512 3.374 7.512 7.512 0 4.139-3.373 7.484-7.512 7.484h-231.508c-4.139 0-7.512-3.345-7.512-7.484v-75.034c0-4.139 3.373-7.483 7.512-7.483h118.886v-22.593c0-4.139 3.374-7.512 7.512-7.512h11.055l32.939-102.218h-52.866v16.497c0 4.139-3.345 7.512-7.484 7.512-4.138 0-7.512-3.373-7.512-7.512v-16.497h-2.211c-4.139 0-7.484-3.345-7.484-7.484 0-2.126.879-4.025 2.267-5.386l82.574-94.197h-37.191v16.498c0 4.139-3.373 7.512-7.512 7.512s-7.483-3.374-7.483-7.512v-16.98c-2.863-1.049-4.876-3.798-4.876-7.001 0-2.041.822-3.912 2.155-5.244l73.39-82.347 26.022-82.291c1.021-3.203 3.97-5.244 7.145-5.244h27.127c3.458 0 6.35 2.325 7.229 5.5l8.051 25.456c1.247 3.94-.936 8.164-4.904 9.411-3.94 1.247-8.136-.964-9.383-4.904l-6.491-20.466h-16.129l-21.771 68.826h59.67l-5.046-15.959c-1.247-3.941.964-8.165 4.905-9.412 3.94-1.248 8.164.964 9.411 4.904l7.625 24.18 73.645 82.602c2.75 3.09 2.466 7.824-.624 10.573-.709.624-1.502 1.105-2.325 1.417v16.98c0 4.139-3.373 7.512-7.512 7.512s-7.512-3.374-7.512-7.512v-16.498h-37.191l82.971 94.65c2.721 3.119 2.41 7.824-.709 10.545-1.36 1.19-3.09 1.871-4.904 1.871h-2.211v16.497c0 4.139-3.373 7.512-7.512 7.512s-7.483-3.373-7.483-7.512v-16.497h-52.867l32.939 102.218h11.056c4.167 0 7.512 3.373 7.512 7.512v22.593h130.112c4.138 0 7.483 3.345 7.483 7.483v75.034c0 4.139-3.345 7.484-7.483 7.484zm54.285-120.105-76.848-55.531-76.877 55.531h12.784c4.139 0 7.484 3.373 7.484 7.512v22.593h113.188v-22.593c0-4.139 3.345-7.512 7.483-7.512zm-5.272 30.104h37.417v-15.109h-37.417zm-180.598 0h37.417v-15.109h-37.417zm69.818-266.148 28.29-26.703-23.301-21.997zm39.204-36.993 21.203-20.041h-42.436zm34.186-11.707-23.301 21.997 28.319 26.703zm-34.186 32.287-29.878 28.177h59.727zm-52.356 124.13 44.277-38.807-35.093-33.903zm55.587-48.699 36.766-32.259h-70.187zm40.933-16.016-30.161 26.419 38.126 36.794zm-41.443 36.312-45.071 39.515h86.004zm-88.612 144.824 73.106-52.838-45.497-32.882zm46.801-90.313 39.09 28.233 39.061-28.233zm97.342 4.592-45.497 32.882 73.106 52.838zm.907-95.869 9.639 76.281h57.232zm-127.985 76.281 9.638-76.281-66.87 76.281zm118.688-161.094 5.584 54.029h42.577zm-105.337 54.029 5.584-54.029-48.161 54.029z"/></g></svg>