<svg id="Capa_1" enable-background="new 0 0 512 512" height="512" viewBox="0 0 512 512" width="512" xmlns="http://www.w3.org/2000/svg"><g><g clip-rule="evenodd" fill-rule="evenodd"><path d="m485.114 35.482v322.286c0 5.131.396 10.262 1.248 15.421l16.923 103.441c1.275 5.556-1.02 7.993-6.521 7.653h-81.557l18.171-111.095c.822-5.075 1.248-10.206 1.248-15.421v-322.285c0-4.28 3.487-7.767 7.768-7.767h34.952c4.282.001 7.768 3.487 7.768 7.767z" fill="#ffefd6"/><path d="m485.114 35.482v322.286c0 5.131.396 10.262 1.248 15.421l16.923 103.441c1.275 5.556-1.02 7.993-6.521 7.653h-81.557l3.97-24.265h42.039c16.641 0 17.633-8.392 15.846-16.782l-14.967-70.048c-1.105-5.103-1.246-10.29-1.246-15.421v-330.051h16.498c4.281 0 7.767 3.486 7.767 7.766z" fill="#ffe6c1"/><path d="m371.524 35.482c0 107.411-.084 214.848 0 322.286 0 5.131.426 10.289 1.248 15.421l18.171 111.095h-89.295l19.417-118.748v-330.054c0-4.28 3.486-7.767 7.768-7.767h34.924c4.281.001 7.767 3.487 7.767 7.767z" fill="#ffefd6"/><path d="m371.524 35.482v322.286c0 5.131.426 10.262 1.248 15.421l16.923 103.441c1.305 5.556-1.02 7.993-6.52 7.653h-81.527l3.969-24.265h42.039c16.64 0 17.604-8.392 15.817-16.782l-14.968-70.048c-1.076-5.103-1.246-10.29-1.246-15.421v-330.051h16.497c4.282 0 7.768 3.486 7.768 7.766z" fill="#ffe6c1"/><path d="m201.864 211.182v58.255c0 70.983 23.727 162.12 58.255 214.848h-244.841c-4.96-.141-6.351-2.211-3.684-6.491 10.516-17.406 19.899-38.354 27.808-61.033 16.386-46.944 26.335-101.37 26.335-147.323v-58.255c0-4.279 3.516-7.766 7.768-7.766h120.592c4.279-.001 7.767 3.485 7.767 7.765z" fill="#ede9fb"/><path d="m201.864 211.182v58.255c0 70.983 23.727 162.12 58.255 214.848h-244.841c-4.96-.141-6.351-2.211-3.684-6.491 3.373-5.584 6.604-11.537 9.75-17.773h214.508c-34.527-52.728-58.255-143.866-58.255-214.878v-41.726h16.499c4.28-.001 7.768 3.485 7.768 7.765z" fill="#e0dbee"/><path d="m64.575 298.068c-1.475 18.624-4.309 38.014-8.277 57.263h155.034c-3.996-19.249-6.803-38.639-8.277-57.263z" fill="#d57080"/><path d="m110.13 484.284v-86.715c0-4.282 3.486-7.769 7.769-7.769h321.804c4.279 0 7.766 3.486 7.766 7.769v86.715z" fill="#fed1a3"/><path d="m110.13 484.284v-24.264h288.809c13.35 0 24.265-10.915 24.265-24.268v-45.951h16.499c4.279 0 7.766 3.486 7.766 7.769v86.715h-337.339z" fill="#ffbc85"/><path d="m179.525 266.516h33.508c11.538 0 20.977 9.413 20.977 20.95v102.335h-75.434v-102.335c.001-11.537 9.412-20.95 20.949-20.95z" fill="#0c5e7f"/><path d="m286.198 266.516h33.535c11.511 0 20.95 9.413 20.95 20.95v102.335h-75.436v-102.335c.001-11.537 9.442-20.95 20.951-20.95z" fill="#0c5e7f"/><path d="m316.417 266.516h3.316c11.511 0 20.95 9.413 20.95 20.95v102.335h-75.436v-24.265h31.75c10.688 0 19.419-8.73 19.419-19.419v-79.601z" fill="#174b67"/><path d="m209.744 266.516h3.289c11.538 0 20.977 9.413 20.977 20.95v102.335h-75.434v-24.265h31.75c10.658 0 19.417-8.73 19.417-19.419v-79.601z" fill="#174b67"/><g fill="#d57080"><path d="m321.065 72.362h50.459v33.48h-50.459z"/><path d="m434.627 72.362h50.487v33.48h-50.487z"/><path d="m321.065 157.774h50.459v33.508h-50.459z"/><path d="m434.627 157.774h50.487v33.508h-50.487z"/></g><path d="m347.26 72.362h24.265v33.48h-24.265z" fill="#cb5769"/><path d="m347.26 157.774h24.265v33.508h-24.265z" fill="#cb5769"/><path d="m460.85 72.362h24.265v33.48h-24.265z" fill="#cb5769"/><path d="m460.85 157.774h24.265v33.508h-24.265z" fill="#cb5769"/></g><path d="m424.309 382.289 2.834-17.235c0-112.456 0-224.91 0-337.338 0-4.139 3.346-7.512 7.484-7.512h50.487c4.139 0 7.484 3.373 7.484 7.512v187.831c0 4.139-3.346 7.512-7.484 7.512-4.139 0-7.513-3.373-7.513-7.512v-16.782h-35.461v166.771c0 .396-.057.793-.113 1.189l-2.551 15.564h7.992c4.139 0 7.484 3.373 7.484 7.512v87h40.764l-17.888-109.507c-.141-.568-.227-1.164-.227-1.758v-115.999c0-4.168 3.374-7.513 7.513-7.513s7.484 3.345 7.484 7.513v115.517l19.304 118.041c.738 4.535-2.805 8.701-7.369 8.701-165.693 0-331.357 0-497.022 0-4.139 0-7.512-3.373-7.512-7.512 0-1.615.537-3.147 1.416-4.366 16.528-25.343 30.53-59.869 40.539-96.721 9.92-36.627 16.3-76.115 16.3-113.761v-66.02c0-4.14 3.344-7.513 7.482-7.513h51.082c4.14 0 7.513 3.373 7.513 7.513 0 4.139-3.373 7.482-7.513 7.482h-43.57v58.538c0 6.861-.227 13.918-.652 21.12h78.469v-3.091c0-7.824 3.203-14.939 8.361-20.098 5.132-5.161 12.247-8.364 20.099-8.364h14.825v-48.106h-43.57c-4.139 0-7.482-3.344-7.482-7.482 0-4.14 3.344-7.513 7.482-7.513h51.084c4.138 0 7.513 3.373 7.513 7.513v55.588h3.656c7.852 0 14.968 3.203 20.126 8.364 5.131 5.158 8.334 12.273 8.334 20.098v94.823h16.243v-94.823c0-7.824 3.203-14.939 8.363-20.098 5.159-5.161 12.274-8.364 20.099-8.364h27.355c0-77.105 0-154.183 0-231.288 0-4.139 3.346-7.512 7.512-7.512h50.459c4.14 0 7.513 3.373 7.513 7.512v187.831c0 4.139-3.373 7.512-7.513 7.512-4.139 0-7.482-3.373-7.482-7.512v-16.782h-35.492v61.657c4.31 1.418 8.165 3.826 11.282 6.946 5.16 5.158 8.363 12.273 8.363 20.098v94.823h18.511l-2.467-14.995c-.141-.568-.197-1.164-.197-1.758v-115.998c0-4.168 3.344-7.513 7.482-7.513 4.14 0 7.513 3.345 7.513 7.513v115.517l2.807 17.235zm53.293-198.519v-18.483h-35.462v18.483zm0-33.478v-36.938h-35.462v36.938zm-113.56 33.478v-18.483h-35.492v18.483zm0-33.478v-36.938h-35.492v36.938zm113.56-51.934v-18.483h-35.462v18.483zm0-33.507v-29.652h-35.462v29.651h35.462zm-113.56 33.507v-18.483h-35.492v18.483zm0-33.507v-29.652h-35.492v29.651h35.492zm-91.281 266.27h60.411v-43.655c0-3.685-1.504-7.059-3.942-9.496-2.438-2.438-5.811-3.969-9.496-3.969h-33.535c-3.686 0-7.059 1.531-9.496 3.969s-3.941 5.811-3.941 9.496v43.655zm60.411 14.996h-60.411v36.172h60.411zm-193.929 112.994c-4.14 0-7.483-3.374-7.483-7.513s3.344-7.482 7.483-7.482h34.472c4.139 0 7.512 3.344 7.512 7.482 0 4.139-3.373 7.513-7.512 7.513zm0-29.14c-4.14 0-7.483-3.346-7.483-7.484 0-4.139 3.344-7.513 7.483-7.513h34.472c4.139 0 7.512 3.374 7.512 7.513s-3.373 7.484-7.512 7.484zm244.642 0c-4.139 0-7.512-3.346-7.512-7.484 0-4.139 3.373-7.513 7.512-7.513h34.471c4.139 0 7.484 3.374 7.484 7.513s-3.346 7.484-7.484 7.484zm-81.557 0c-4.139 0-7.484-3.346-7.484-7.484 0-4.139 3.346-7.513 7.484-7.513h34.471c4.139 0 7.512 3.374 7.512 7.513s-3.373 7.484-7.512 7.484zm-81.529 0c-4.137 0-7.512-3.346-7.512-7.484 0-4.139 3.375-7.513 7.512-7.513h34.473c4.139 0 7.482 3.374 7.482 7.513s-3.344 7.484-7.482 7.484zm163.086 29.14c-4.139 0-7.512-3.374-7.512-7.513s3.373-7.482 7.512-7.482h34.471c4.139 0 7.484 3.344 7.484 7.482 0 4.139-3.346 7.513-7.484 7.513zm-81.557 0c-4.139 0-7.484-3.374-7.484-7.513s3.346-7.482 7.484-7.482h34.471c4.139 0 7.512 3.344 7.512 7.482 0 4.139-3.373 7.513-7.512 7.513zm-81.529 0c-4.137 0-7.512-3.374-7.512-7.513s3.375-7.482 7.512-7.482h34.473c4.139 0 7.482 3.344 7.482 7.482 0 4.139-3.344 7.513-7.482 7.513zm-54.738-127.99h60.438v-43.655c0-3.685-1.504-7.059-3.97-9.496-2.438-2.438-5.783-3.969-9.496-3.969h-33.508c-3.686 0-7.059 1.531-9.496 3.969s-3.969 5.811-3.969 9.496v10.603 33.052zm60.438 14.996h-60.438v9.214 26.958h60.438zm-75.434-40.566h-79.63c-1.332 13.862-3.373 28.066-6.037 42.295h85.668v-42.295zm0 57.292h-88.701c-1.785 8.135-3.77 16.216-5.953 24.208-8.958 33.139-21.175 64.577-35.547 89.75h81.754v-87c0-4.139 3.373-7.512 7.512-7.512h40.936v-19.446zm-33.422 113.958h322.313v-79.515c-107.437 0-214.875 0-322.313 0z"/></g></svg>