<svg id="Capa_1" enable-background="new 0 0 512.001 512.001" height="512" viewBox="0 0 512.001 512.001" width="512" xmlns="http://www.w3.org/2000/svg"><g><g clip-rule="evenodd" fill-rule="evenodd"><path d="m229.578 286.967v107.234c0 4.279-3.515 7.768-7.767 7.768h-206.532c-4.28 0-7.767-3.488-7.767-7.768 0-35.744 0-71.49 0-107.234l107.149-12.133z" fill="#ede9fb"/><path d="m99.553 178.258c0-18.312 0-36.596 0-54.906 0-4.281-3.486-7.768-7.767-7.768h-47.14c-4.28 0-7.767 3.486-7.767 7.768v54.906l33.619 7.029z" fill="#ffefd6"/><path d="m201.402 178.258c0-18.312 0-36.596 0-54.906 0-4.281-3.487-7.768-7.767-7.768h-47.14c-4.28 0-7.767 3.486-7.767 7.768v54.906l33.931 7.768z" fill="#ffefd6"/><path d="m15.279 178.258h240.718c29.905 0 54.34 24.463 54.34 54.34 0 29.906-24.435 54.369-54.34 54.369h-248.485v-100.941c0-5.018 2.835-7.768 7.767-7.768z" fill="#0c5e7f"/><path d="m280.29 184.041c17.802 8.957 30.047 27.41 30.047 48.557 0 29.906-24.435 54.369-54.34 54.369h-248.485v-24.266h224.22c29.878 0 54.34-24.463 54.34-54.367.001-8.703-2.069-16.98-5.782-24.293z" fill="#174b67"/><path d="m229.578 286.967v107.234c0 4.279-3.515 7.768-7.767 7.768h-206.532c-4.28 0-7.767-3.488-7.767-7.768v-16.498h178.384c10.658 0 19.389-8.73 19.389-19.416v-71.32z" fill="#e0dbee"/><path d="m255.997 257.827c13.89 0 25.229-11.338 25.229-25.229 0-13.889-11.339-25.199-25.229-25.199s-25.229 11.311-25.229 25.199c.001 13.891 11.339 25.229 25.229 25.229z" fill="#0079a2"/><path d="m201.402 178.258c0-18.312 0-36.596 0-54.906 0-4.281-3.487-7.768-7.767-7.768h-16.498v23.84c0 8.021-6.548 14.57-14.57 14.57h-23.84v24.264z" fill="#ffe6c1"/><path d="m99.553 178.258c0-18.312 0-36.596 0-54.906 0-4.281-3.486-7.768-7.767-7.768h-16.497v23.84c0 8.021-6.548 14.57-14.57 14.57h-23.84v24.264z" fill="#ffe6c1"/><path d="m352.8 191.723-40.819-23.584c-3.713-2.127-4.989-6.889-2.835-10.602l23.556-40.82c2.154-3.713 6.917-4.988 10.602-2.834l40.847 23.557c3.685 2.125 4.96 6.916 2.835 10.602l-23.584 40.848c-2.126 3.683-6.888 4.958-10.602 2.833z" fill="#ffefd6"/><path d="m352.8 191.723-11.48-6.633 31.351-54.283 11.48 6.633c3.685 2.125 4.96 6.916 2.835 10.602l-23.584 40.848c-2.126 3.683-6.888 4.958-10.602 2.833z" fill="#ffe6c1"/><path d="m465.024 394.202v-121.918h-129.685v121.918c0 4.279 3.486 7.768 7.767 7.768h114.151c4.28-.001 7.767-3.489 7.767-7.768z" fill="#ffefd6"/><path d="m465.024 394.202v-121.918h-24.265v86.004c0 10.686-8.731 19.416-19.418 19.416h-86.003v16.498c0 4.279 3.486 7.768 7.767 7.768h114.151c4.281-.001 7.768-3.489 7.768-7.768z" fill="#ffe6c1"/><path d="m367.88 311.743h64.602c5.018 0 9.213-2.297 11.906-6.578l20.636-32.881h-129.685l20.636 32.881c3.175 5.046 7.795 6.578 11.905 6.578z" fill="#fed1a3"/><path d="m7.512 321.239h128.608c4.252 0 7.767 3.486 7.767 7.766v30.926c0 4.281-3.515 7.768-7.767 7.768h-128.608z" fill="#b1e4f9"/></g><path d="m177.393 240.11c-4.139 0-7.484-3.373-7.484-7.512s3.345-7.482 7.484-7.482h24.009c4.139 0 7.483 3.344 7.483 7.482 0 4.139-3.345 7.512-7.483 7.512zm-118.687 120.076c4.139 0 7.483 3.373 7.483 7.512s-3.345 7.482-7.483 7.482h-43.71v19.305h207.071v-100.035h-207.071v19.275h128.891c4.139 0 7.483 3.375 7.483 7.514v46.459c0 4.139-3.345 7.482-7.483 7.482h-51.222c-4.138 0-7.483-3.344-7.483-7.482 0-4.139 3.345-7.512 7.483-7.512h43.71v-31.436h-121.379v31.436zm290.154-80.42 15.364 24.463h71.915l15.364-24.463h-34.328c-4.138 0-7.512-3.344-7.512-7.482 0-4.168 3.374-7.512 7.512-7.512h47.849c2.041 0 3.94.822 5.358 2.238l39.43 39.432c2.92 2.918 2.92 7.682 0 10.602-2.919 2.918-7.682 2.918-10.601 0l-26.674-26.676v111.602c0 4.139-3.373 7.512-7.512 7.512h-129.686c-4.139 0-7.512-3.373-7.512-7.512v-111.602l-26.674 26.676c-2.919 2.918-7.682 2.918-10.602 0-2.919-2.92-2.919-7.684 0-10.602l39.458-39.459c1.389-1.418 3.316-2.211 5.329-2.211h47.849c4.139 0 7.512 3.344 7.512 7.512 0 4.139-3.373 7.482-7.512 7.482zm108.68 18.512-10.659 16.951c-1.247 2.381-3.742 4.025-6.633 4.025h-80.135c-2.495 0-4.904-1.277-6.321-3.516l-10.97-17.461v96.207h114.718zm-247.408 49.945c0 4.139-3.345 7.512-7.483 7.512-4.167 0-7.512-3.373-7.512-7.512v-7.512c0-4.139 3.345-7.512 7.512-7.512 4.139 0 7.483 3.373 7.483 7.512zm-29.366 0c0 4.139-3.373 7.512-7.512 7.512s-7.512-3.373-7.512-7.512v-7.512c0-4.139 3.373-7.512 7.512-7.512s7.512 3.373 7.512 7.512zm175.039-146.154-54.283-31.322c-3.572-2.07-4.79-6.633-2.75-10.205l31.351-54.283c2.041-3.572 6.604-4.791 10.176-2.75l54.284 31.352c3.571 2.041 4.819 6.605 2.75 10.176l-31.323 54.283c-2.07 3.571-6.634 4.819-10.205 2.749zm-40.337-40.535 41.329 23.867 23.868-41.328-41.329-23.896zm-121.55 9.213v-47.65h-47.678v47.65zm-178.922 15.023v39.346h11.594c4.139 0 7.512 3.344 7.512 7.482 0 4.139-3.373 7.512-7.512 7.512h-11.594v39.346h241.001c12.869 0 24.576-5.273 33.08-13.777 8.504-8.475 13.776-20.182 13.776-33.08 0-12.869-5.272-24.576-13.776-33.08-8.504-8.475-20.211-13.748-33.08-13.748-80.334-.001-160.667-.001-241.001-.001zm116.22-15.023v-55.162c0-4.139 3.374-7.512 7.512-7.512h62.674c4.139 0 7.512 3.373 7.512 7.512v55.162h47.083c17.008 0 32.485 6.973 43.682 18.17 11.226 11.197 18.17 26.674 18.17 43.682 0 17.037-6.945 32.486-18.17 43.711-11.197 11.197-26.674 18.141-43.682 18.141h-18.936v107.52c0 4.139-3.345 7.512-7.483 7.512h-222.066c-4.139 0-7.512-3.373-7.512-7.512 0-74.58 0-149.131 0-223.711 0-4.139 3.374-7.512 7.512-7.512h21.883v-55.162c0-4.139 3.345-7.512 7.483-7.512h62.674c4.139 0 7.512 3.373 7.512 7.512v55.162h24.152zm-39.147 0v-47.65h-47.678v47.65zm-31.209 69.363c-4.138 0-7.483-3.373-7.483-7.512s3.345-7.482 7.483-7.482h24.01c4.139 0 7.483 3.344 7.483 7.482 0 4.139-3.345 7.512-7.483 7.512zm58.281 0c-4.139 0-7.512-3.373-7.512-7.512s3.374-7.482 7.512-7.482h23.981c4.139 0 7.512 3.344 7.512 7.482 0 4.139-3.373 7.512-7.512 7.512zm136.856-40.223c9.042 0 17.206 3.656 23.131 9.58 5.924 5.926 9.581 14.117 9.581 23.131 0 9.043-3.657 17.234-9.581 23.131-5.925 5.924-14.088 9.609-23.131 9.609s-17.206-3.686-23.131-9.609c-5.924-5.896-9.581-14.088-9.581-23.131 0-9.014 3.657-17.205 9.581-23.131 5.925-5.924 14.089-9.58 23.131-9.58zm12.529 20.182c-3.203-3.203-7.625-5.188-12.529-5.188s-9.326 1.984-12.529 5.188c-3.203 3.203-5.187 7.654-5.187 12.529 0 4.904 1.984 9.326 5.187 12.529s7.625 5.188 12.529 5.188 9.326-1.984 12.529-5.188c3.203-3.203 5.187-7.625 5.187-12.529 0-4.875-1.984-9.326-5.187-12.529z"/></g></svg>