<svg id="Capa_1" enable-background="new 0 0 512 512" height="512" viewBox="0 0 512 512" width="512" xmlns="http://www.w3.org/2000/svg"><g><g clip-rule="evenodd" fill-rule="evenodd"><path d="m161.804 108.767h99.1v107.123h-99.1z" fill="#faf8f9"/><path d="m166.707 409.951v-354.56c0-4.281-3.486-7.768-7.767-7.768h-143.661c-4.28 0-7.767 3.486-7.767 7.768v242.223z" fill="#da8993"/><path d="m142.443 454.683h16.498c4.28 0 7.767-3.487 7.767-7.767v-391.525c0-4.281-3.486-7.768-7.767-7.768h-16.498z" fill="#d57080"/><path d="m479.061 304.7c-13.918-80.561-95.444-142.357-193.92-142.357l-10.687 22.79 10.687 30.757c45.128 0 81.695 36.596 81.695 81.724 0 12.897-.028 25.796-.028 38.693h102.389z" fill="#0c5e7f"/><path d="m285.141 191.624v24.266c45.128 0 81.695 36.596 81.695 81.724 0 12.897-.028 25.796-.028 38.693h30.104c0-11.282.057-22.563.057-33.846-.001-59.699-52.754-110.837-111.828-110.837z" fill="#174b67"/><path d="m7.512 297.613c20.693 0 41.415 19.361 62.108 19.361 20.721 0 41.415-19.361 62.136-19.361 20.693 0 41.415 19.361 62.137 19.361 20.693 0 41.414-19.361 62.107-19.361 20.722 0 41.415 19.361 62.136 19.361 20.693 0 41.415-19.361 62.108-19.361 20.721 0 41.443 19.361 62.136 19.361 18.482 0 36.227-14.655 54.398-18.539 3.883-.822 7.711.596 7.739 6.945v117.071h-497.005z" fill="#b1e4f9"/><path d="m7.512 370.407c20.693 0 41.415 19.362 62.108 19.362 20.721 0 41.415-19.362 62.136-19.362 20.693 0 41.415 19.362 62.137 19.362 20.693 0 41.414-19.362 62.107-19.362 20.722 0 41.415 19.362 62.136 19.362 20.693 0 41.415-19.362 62.108-19.362 20.721 0 41.443 19.362 62.136 19.362 20.722 0 41.415-19.362 62.137-19.362v86.232c0 4.252-3.515 7.767-7.767 7.767h-481.471c-4.28 0-7.767-3.515-7.767-7.767z" fill="#90d8f9"/><path d="m231.735 108.767h24.265v107.123h-89.293v-24.266h50.458c8.022 0 14.57-6.548 14.57-14.57z" fill="#ede9fb"/><path d="m270.57 94.196c7.994 0 14.57 6.577 14.57 14.57v107.124c0 8.022-6.576 14.57-14.57 14.57-8.022 0-14.57-6.548-14.57-14.57v-107.123c0-7.994 6.548-14.571 14.57-14.571z" fill="#d3cee5"/><path d="m480.251 376.983v34.017c0 4.054-.851 7.938-2.381 11.452-4.45 10.375-14.797 17.66-26.759 17.66h-284.404-24.265-134.93v16.526c0 4.252 3.486 7.767 7.767 7.767h481.471c4.252 0 7.767-3.515 7.767-7.767v-34.187-52.045c-8.108.001-16.187 2.978-24.266 6.577z" fill="#80b4fb"/><path d="m480.251 376.983c8.079-3.6 16.158-6.576 24.265-6.576v-65.026c-.028-6.35-3.855-7.768-7.739-6.945-5.528 1.19-11.056 3.374-16.526 5.84z" fill="#90d8f9"/></g><path d="m300.221 321.028c-3.884-1.361-5.953-5.613-4.592-9.525 1.361-3.883 5.613-5.952 9.524-4.592 2.296.794 4.536 1.475 6.747 1.899 2.041.425 4.11.651 6.236.651 8.76 0 18.312-4.479 27.894-8.929 4.394-2.07 8.816-4.111 13.266-5.869-.765-19.332-8.901-36.765-21.685-49.549-12.104-12.076-28.318-20.013-46.404-21.486-1.105 2.976-2.863 5.641-5.045 7.852-3.996 3.997-9.524 6.463-15.591 6.463s-11.594-2.466-15.591-6.463c-2.268-2.268-4.054-5.018-5.159-8.079h-75.629v80.874c6.774 2.919 13.436 5.187 19.701 5.187 8.759 0 18.312-4.479 27.893-8.929 11.14-5.217 22.281-10.404 34.214-10.404 6.066 0 12.019 1.361 17.915 3.43 3.884 1.361 5.953 5.613 4.592 9.526-1.36 3.883-5.612 5.952-9.524 4.592-4.394-1.531-8.73-2.551-12.982-2.551-8.759 0-18.312 4.45-27.894 8.929-11.14 5.216-22.28 10.403-34.214 10.403-12.218 0-23.415-5.329-34.243-10.403-9.553-4.478-19.134-8.929-27.893-8.929s-18.34 4.45-27.893 8.929c-11.14 5.216-22.28 10.403-34.243 10.403-11.934 0-23.075-5.188-34.215-10.403-6.916-3.231-13.805-6.435-20.41-7.993v57.515c9.185 1.559 17.972 5.641 26.731 9.751 9.582 4.479 19.134 8.957 27.894 8.957 4.252 0 8.589-1.02 12.982-2.551 3.912-1.36 8.164.68 9.525 4.593 1.361 3.884-.709 8.164-4.592 9.524-5.896 2.041-11.849 3.431-17.915 3.431-11.934 0-23.075-5.217-34.215-10.403-6.916-3.231-13.805-6.465-20.41-8.023v78.039h482.009v-78.039c-6.605 1.559-13.493 4.792-20.381 8.023-11.14 5.187-22.28 10.403-34.243 10.403-11.934 0-23.074-5.217-34.214-10.403-9.582-4.48-19.163-8.959-27.922-8.959-8.731 0-18.312 4.479-27.893 8.959-11.14 5.187-22.28 10.403-34.215 10.403-11.962 0-23.102-5.217-34.242-10.403-9.553-4.48-19.135-8.959-27.894-8.959s-18.312 4.479-27.894 8.959c-11.14 5.187-22.28 10.403-34.214 10.403-11.963 0-23.103-5.217-34.243-10.403-9.553-4.48-19.134-8.959-27.893-8.959-4.479 0-8.759 1.077-12.983 2.552-3.912 1.36-8.163-.709-9.524-4.593-1.361-3.912.708-8.164 4.592-9.524 5.726-1.983 11.849-3.43 17.915-3.43 11.962 0 23.075 5.188 34.215 10.403 9.581 4.479 19.162 8.957 27.922 8.957 8.759 0 18.312-4.479 27.893-8.957 11.14-5.216 22.281-10.403 34.214-10.403 11.962 0 23.103 5.188 34.243 10.403 9.553 4.479 19.134 8.957 27.893 8.957 8.76 0 18.312-4.479 27.894-8.957 11.14-5.216 22.281-10.403 34.215-10.403 11.962 0 23.102 5.188 34.243 10.403 9.582 4.479 19.134 8.957 27.893 8.957 8.76 0 18.341-4.479 27.894-8.957 8.788-4.11 17.575-8.192 26.731-9.751v-57.515c-6.917 1.615-13.89 4.96-20.381 7.993-11.14 5.216-22.28 10.403-34.243 10.403-11.934 0-23.074-5.188-34.214-10.403-9.582-4.478-19.163-8.929-27.922-8.929-8.731 0-18.312 4.45-27.893 8.929-11.14 5.216-22.28 10.403-34.215 10.403-3.004 0-6.094-.34-9.212-.992-2.952-.596-5.843-1.418-8.706-2.438zm-253.137-173.086c0-4.139 3.345-7.512 7.512-7.512 4.139 0 7.483 3.373 7.483 7.512v28.771c0 4.139-3.345 7.512-7.483 7.512-4.167 0-7.512-3.373-7.512-7.512zm58.253 0c0-4.139 3.345-7.512 7.484-7.512s7.512 3.373 7.512 7.512v28.771c0 4.139-3.373 7.512-7.512 7.512s-7.484-3.373-7.484-7.512zm-29.141 0c0-4.139 3.374-7.512 7.512-7.512s7.483 3.373 7.483 7.512v28.771c0 4.139-3.345 7.512-7.483 7.512-4.139 0-7.512-3.373-7.512-7.512zm297.868 142.613c2.041-.283 4.11-.426 6.18-.426 11.962 0 23.102 5.188 34.243 10.404 9.582 4.45 19.134 8.929 27.893 8.929 9.327 0 19.872-5.187 28.205-9.07-2.976-13.834-8.079-27.044-15.024-39.402-8.107-14.457-18.681-27.694-31.238-39.288-3.033-2.807-3.203-7.541-.425-10.546 2.806-3.033 7.54-3.232 10.545-.426 13.777 12.728 25.342 27.214 34.187 42.946 7.171 12.756 12.558 26.362 15.931 40.592 6.492-2.438 13.096-4.139 19.957-4.139 4.138 0 7.483 3.346 7.483 7.484v72.794 93.998c0 4.14-3.345 7.484-7.483 7.484h-497.006c-4.139 0-7.512-3.345-7.512-7.484 0-138.927 0-277.855 0-416.782 0-4.139 3.373-7.513 7.512-7.513h159.195c4.139 0 7.484 3.374 7.484 7.513v53.632h75.629c1.105-3.062 2.892-5.812 5.159-8.079 3.997-3.996 9.524-6.463 15.591-6.463s11.594 2.467 15.591 6.463c3.997 3.997 6.463 9.524 6.463 15.591v46.178c19.616.623 38.523 3.6 56.382 8.645 20.835 5.896 40.196 14.626 57.487 25.625 3.487 2.239 4.507 6.86 2.268 10.318-2.211 3.486-6.832 4.507-10.29 2.296-16.016-10.205-34.044-18.312-53.519-23.811-16.526-4.678-34.073-7.455-52.328-8.051v38.721c21.657 1.814 41.103 11.34 55.588 25.825 14.598 14.598 24.152 34.215 25.852 56.042zm-110.552-181.788v107.123c0 1.928.794 3.686 2.069 4.989 1.275 1.275 3.061 2.069 4.989 2.069 1.927 0 3.685-.794 4.989-2.069 1.276-1.304 2.07-3.062 2.07-4.989v-107.123c0-1.928-.794-3.685-2.07-4.989-1.304-1.275-3.061-2.068-4.989-2.068s-3.714.793-4.989 2.068c-1.275 1.304-2.069 3.061-2.069 4.989zm-89.321 7.511v92.099h74.325v-92.099zm-159.195 174.503c9.185 1.531 17.972 5.641 26.731 9.752 9.582 4.45 19.134 8.929 27.894 8.929s18.34-4.479 27.921-8.929c11.112-5.217 22.252-10.404 34.214-10.404 9.524 0 18.539 3.289 27.44 7.285 0-80.759 0-161.548 0-242.307h-144.2v235.674z"/></g></svg>