<svg id="Capa_1" enable-background="new 0 0 512 512" height="512" viewBox="0 0 512 512" width="512" xmlns="http://www.w3.org/2000/svg"><g><g clip-rule="evenodd" fill-rule="evenodd"><path d="m169.879 499.912h245.173l-52.81-245.004c-1.135-5.244-.766-10.006.992-14.91l16.556-46.318c1.672-4.734 2.608-9.695 2.608-15.082v-7.71c0-4.79-2.608-7.738-7.768-7.738h-172.095v23.216l21.77 60.975z" fill="#e0dbee"/><path d="m390.788 499.912h24.265l-52.81-245.004c-1.135-5.244-.766-10.006.992-14.881l16.556-46.348c1.672-4.734 2.608-9.695 2.608-15.082v-7.71c0-4.79-2.608-7.738-7.768-7.738h-16.497v15.448c0 5.387-.935 10.348-2.609 15.082l-16.555 46.348c-1.756 4.875-2.125 9.637-.99 14.881z" fill="#d3cee5"/><path d="m15.246 499.884 286.958.028-63.81-296.028c-1.077-5.074-.708-10.119.992-14.882l20.948-58.65c1.674-4.733 2.608-9.723 2.608-15.108v-12.359c0-4.281-3.487-7.769-7.767-7.769h-200.668c-4.28 0-7.767 3.487-7.767 7.769v12.359c0 5.131.85 10.119 2.608 15.108l20.948 58.65c1.786 4.961 2.069 9.922.992 14.854l-62.165 288.459c-1.105 5.075.851 7.569 6.123 7.569z" fill="#faf8f9"/><path d="m277.938 499.884 24.267.028-63.81-296.028c-1.077-5.074-.708-10.119.992-14.882l20.948-58.65c1.674-4.733 2.608-9.723 2.608-15.108v-12.359c0-4.281-3.487-7.769-7.767-7.769h-16.498v20.128c0 5.386-.935 10.375-2.608 15.108l-20.948 58.65c-1.729 4.763-2.098 9.808-.992 14.882z" fill="#ede9fb"/><path d="m504.488 475.279c0-80.761-65.453-146.242-146.215-146.242s-146.242 65.482-146.242 146.242l146.242 12.302z" fill="#fed1a3"/><path d="m346.141 329.547c59.983 4.933 110.016 45.95 127.278 101.482 2.75 8.9-3.088 19.984-15.816 19.984h-243.559c-1.333 7.881-2.013 15.988-2.013 24.266h268.192 24.265c0-8.277-.68-16.385-1.984-24.266-11.565-69.224-71.746-121.977-144.23-121.977-4.083.001-8.135.171-12.133.511z" fill="#ffbc85"/><path d="m337.383 386.949h41.755c4.279 0 7.768 3.487 7.768 7.767v85.41h-57.261v-85.41c0-4.279 3.486-7.767 7.738-7.767z" fill="#d57080"/><path d="m219.798 499.912h276.922c4.282 0 7.769-3.515 7.769-7.767 0-5.642 0-11.254 0-16.866-97.485 0-194.972 0-292.457 0v16.866c-.001 4.253 3.486 7.767 7.766 7.767z" fill="#0c5e7f"/><path d="m154.856 356.731c32.599 0 59.217-26.618 59.217-59.217 0-32.628-26.618-59.217-59.217-59.217-32.628 0-59.217 26.589-59.217 59.217-.001 32.599 26.589 59.217 59.217 59.217z" fill="#ffe07d"/><path d="m182.777 245.299c18.624 9.979 31.295 29.594 31.295 52.216 0 32.685-26.533 59.217-59.217 59.217-22.622 0-42.237-12.671-52.216-31.295 8.306 4.48 17.831 7.002 27.922 7.002 32.713 0 59.217-26.505 59.217-59.218.001-10.092-2.522-19.616-7.001-27.922z" fill="#ffd064"/><path d="m12.78 475.279-3.657 17.036c-1.105 5.074.851 7.568 6.123 7.568h204.184c-4.082-.17-7.398-3.6-7.398-7.738v-16.866z" fill="#ede9fb"/></g><path d="m263.197 354.463-12.812-59.386c-.851-4.025 1.729-8.022 5.782-8.873s8.022 1.729 8.872 5.783l11.452 53.094c23.698-14.911 51.734-23.529 81.781-23.529 3.6 0 7.199.113 10.773.369l-15.761-73.05c-.283-1.361-.199-2.75.283-4.054l21.317-59.757v-14.428h-120.984l-9.355 26.193 13.351 61.938c.851 4.054-1.729 8.022-5.782 8.873-4.054.85-8.023-1.73-8.873-5.755l-13.805-64.035c-.284-1.361-.198-2.75.283-4.054 8.561-24.039 17.15-48.049 25.711-72.059v-19.134h-201.178v19.134l25.739 72.059c.51 1.474.539 3.033.17 4.45l-63.385 294.158h187.771v-17.121c0-42.435 17.207-80.875 45.015-108.712 4.31-4.28 8.844-8.334 13.635-12.104zm35.322-216.062c-2.41 3.346-7.115 4.111-10.461 1.673-3.344-2.409-4.08-7.114-1.672-10.46 8.561-11.82 23.897-21.826 43.429-28.687 18.396-6.464 40.706-10.262 64.63-10.262h89.379c4.166 0 7.512 3.373 7.512 7.512 0 4.14-3.346 7.513-7.512 7.513h-89.379c-22.309 0-42.89 3.458-59.698 9.354-16.67 5.868-29.453 14.004-36.228 23.357zm-127.733-62.135c-2.438 3.345-7.115 4.082-10.46 1.672-3.345-2.438-4.082-7.114-1.672-10.459 13.691-18.908 38.382-34.952 70.017-46.064 30.134-10.603 66.729-16.811 106.132-16.811h149.021c4.166 0 7.512 3.373 7.512 7.513 0 4.139-3.346 7.483-7.512 7.483h-149.021c-37.759 0-72.654 5.896-101.227 15.931-28.744 10.091-50.884 24.293-62.79 40.735zm-12.614 189.074c2.834-2.977 7.569-3.09 10.573-.255 2.977 2.863 3.09 7.597.255 10.573l-12.812 13.494 13.039 9.751c3.742 2.807 4.025 8.306.624 11.48l-18.312 19.276c-2.863 2.977-7.597 3.118-10.602.256-2.977-2.835-3.09-7.57-.255-10.575l12.812-13.492-13.039-9.723c-3.572-2.693-4.025-7.909-.936-11.169zm-3.316-34.555c18.397 0 35.093 7.456 47.169 19.531 12.076 12.076 19.531 28.772 19.531 47.198 0 18.396-7.455 35.094-19.531 47.169-12.076 12.076-28.773 19.531-47.169 19.531-18.426 0-35.122-7.455-47.198-19.531-12.076-12.075-19.531-28.772-19.531-47.169 0-18.426 7.455-35.122 19.531-47.198 12.075-12.075 28.772-19.531 47.198-19.531zm36.567 30.161c-9.383-9.382-22.309-15.165-36.567-15.165-14.287 0-27.213 5.783-36.568 15.165-9.383 9.354-15.166 22.281-15.166 36.568 0 14.258 5.783 27.185 15.166 36.567 9.354 9.354 22.281 15.137 36.568 15.137 14.258 0 27.184-5.782 36.567-15.137 9.355-9.383 15.138-22.309 15.138-36.567 0-14.286-5.783-27.213-15.138-36.568zm138.222 118.492h57.261c4.139 0 7.512 3.373 7.512 7.512v80.817h102.389c-.709-13.295-3.26-26.051-7.428-38.042-5.158-14.824-12.756-28.488-22.279-40.536-2.551-3.232-2.012-7.936 1.248-10.488 3.23-2.551 7.908-1.984 10.488 1.248 10.572 13.351 18.963 28.459 24.661 44.845 5.5 15.874 8.504 32.855 8.504 50.486v24.633c0 4.14-3.373 7.484-7.512 7.484-165.66 0-331.321 0-497.009 0-4.706 0-8.306-4.365-7.313-9.044l64.971-301.526-25.371-71.038c-.34-.851-.51-1.786-.51-2.778v-27.896c0-4.166 3.345-7.512 7.484-7.512h216.203c4.14 0 7.513 3.346 7.513 7.512v27.895c-.029.851-.17 1.7-.455 2.522l-10.742 30.105h123.14c4.139 0 7.484 3.345 7.484 7.512v23.216c0 .822-.142 1.672-.426 2.523l-21.062 58.962 16.385 75.999c8.221 1.417 16.242 3.515 23.98 6.207 16.386 5.698 31.495 14.089 44.847 24.662 3.23 2.551 3.798 7.257 1.246 10.488-2.58 3.233-7.256 3.799-10.488 1.247-12.047-9.553-25.709-17.121-40.536-22.28-14.23-4.933-29.537-7.625-45.554-7.625-38.325 0-72.993 15.533-98.109 40.621-23.442 23.471-38.552 55.276-40.422 90.597h102.391v-80.817c-.003-4.138 3.341-7.511 7.509-7.511zm49.749 14.995h-42.267v73.334h42.267zm-159.851 97.967h277.462v-9.609c-92.498 0-184.994 0-277.462 0z"/></g></svg>