<svg id="Capa_1" enable-background="new 0 0 512 512" height="512" viewBox="0 0 512 512" width="512" xmlns="http://www.w3.org/2000/svg"><g><g clip-rule="evenodd" fill-rule="evenodd"><path d="m356.829 384.809v-155.568c0-26.676-21.854-48.53-48.529-48.53h-119.397c-26.703 0-48.529 21.854-48.529 48.53v155.567h216.455z" fill="#d57080"/><path d="m356.829 379.96v-150.719c0-19.589-11.764-36.568-28.573-44.193 2.75 6.095 4.309 12.841 4.309 19.928v150.72h-192.191v24.265h216.455z" fill="#cb5769"/><path d="m225.783 384.809v-119.115c0-4.28-3.487-7.767-7.768-7.767h-106.498c-4.28 0-7.768 3.486-7.768 7.767v119.114h122.034z" fill="#ffe6c1"/><path d="m408.251 384.809v-119.115c0-4.28-3.487-7.767-7.767-7.767h-106.5c-4.252 0-7.768 3.486-7.768 7.767v119.114h122.035z" fill="#ffe6c1"/><path d="m408.251 379.96v-114.266c0-4.28-3.487-7.767-7.767-7.767h-16.498v83.198c0 8.021-6.549 14.569-14.571 14.569h-83.198v24.265h122.034z" fill="#fed1a3"/><path d="m225.783 379.96v-114.266c0-4.28-3.487-7.767-7.768-7.767h-16.498v83.198c0 8.021-6.549 14.569-14.57 14.569h-83.198v24.265h122.034z" fill="#fed1a3"/><path d="m69.79 504.517h372.448c34.243 0 62.278-28.035 62.278-62.278 0-34.272-28.035-62.278-62.278-62.278h-372.448c-34.271 0-62.278 28.007-62.278 62.278 0 34.242 28.007 62.278 62.278 62.278z" fill="#0c5e7f"/><path d="m69.79 504.517h372.448c34.243 0 62.278-28.035 62.278-62.278 0-23.329-13.012-43.768-32.117-54.426 4.989 8.93 7.853 19.219 7.853 30.161 0 34.242-28.036 62.278-62.278 62.278h-372.449c-10.942 0-21.232-2.863-30.161-7.853 10.658 19.106 31.097 32.118 54.426 32.118z" fill="#174b67"/><path d="m69.79 468.346c14.372 0 26.107-11.736 26.107-26.107 0-14.4-11.735-26.136-26.107-26.136-14.399 0-26.136 11.735-26.136 26.136 0 14.37 11.737 26.107 26.136 26.107z" fill="#0079a2"/><path d="m442.238 468.346c14.371 0 26.107-11.736 26.107-26.107 0-14.4-11.736-26.136-26.107-26.136-14.4 0-26.136 11.735-26.136 26.136.001 14.37 11.736 26.107 26.136 26.107z" fill="#0079a2"/><path d="m211.523 180.711c2.381 18.368 18.086 32.514 37.078 32.514s34.668-14.145 37.049-32.514v-42.208h-74.127z" fill="#f1d0a5"/><path d="m248.602 169.061c31.238 0 56.779-25.54 56.779-56.779v-31.011h-113.559v31.011c0 31.238 25.541 56.779 56.78 56.779z" fill="#ffefd6"/><path d="m248.602 169.061c31.238 0 56.779-25.54 56.779-56.779v-31.011h-24.266v6.746c0 31.238-25.568 56.779-56.778 56.779-9.411 0-18.284-2.324-26.137-6.406 9.496 18.198 28.574 30.671 50.402 30.671z" fill="#ffe6c1"/><path d="m248.602 7.512c-36.567 0-66.502 29.905-66.502 66.474h132.976c-.001-36.569-29.908-66.474-66.474-66.474z" fill="#ffe07d"/><path d="m248.602 7.512c-4.139 0-8.192.369-12.132 1.105 30.812 5.755 54.34 32.938 54.34 65.368h24.266c-.001-36.568-29.908-66.473-66.474-66.473z" fill="#ffd064"/><g fill="#fed1a3"><path d="m179.322 257.928v27.864c0 4.28-3.487 7.767-7.768 7.767h-13.577c-4.281 0-7.767-3.486-7.767-7.767v-27.864z"/><path d="m361.79 257.928v27.864c0 4.28-3.486 7.767-7.738 7.767h-13.606c-4.28 0-7.767-3.486-7.767-7.767v-27.864z"/></g></g><path d="m69.79 497.005h372.448c15.052 0 28.744-6.151 38.665-16.102 9.95-9.921 16.102-23.613 16.102-38.665s-6.151-28.743-16.102-38.693c-9.921-9.921-23.613-16.101-38.665-16.101-124.158 0-248.318 0-372.448 0-15.052 0-28.772 6.18-38.693 16.101-9.922 9.95-16.102 23.642-16.102 38.693 0 15.052 6.18 28.744 16.102 38.665 9.921 9.95 23.641 16.102 38.693 16.102zm299.512-231.565v28.119c0 4.139-3.345 7.513-7.512 7.513h-29.111c-4.139 0-7.484-3.374-7.484-7.513v-28.119h-31.465v107.009h107.038v-36.51c0-4.139 3.345-7.512 7.483-7.512 4.139 0 7.512 3.373 7.512 7.512v36.51h26.476c19.19 0 36.624 7.852 49.267 20.495 12.641 12.642 20.494 30.104 20.494 49.294s-7.853 36.624-20.495 49.267c-12.643 12.642-30.076 20.495-49.267 20.495h-372.448c-19.219 0-36.652-7.853-49.295-20.495-12.643-12.643-20.495-30.076-20.495-49.267s7.852-36.652 20.495-49.295c12.643-12.644 30.076-20.495 49.295-20.495h26.476v-114.52c0-4.139 3.345-7.512 7.483-7.512h29.113v-21.175c0-15.393 6.293-29.425 16.44-39.573 10.177-10.148 24.18-16.441 39.601-16.441h15.165v-14.684c-12.614-12.133-19.758-28.743-19.758-46.263v-30.783h-12.16c-4.139 0-7.483-3.345-7.483-7.512 0-4.139 3.345-7.483 7.483-7.483h2.835c1.757-17.377 9.609-33.024 21.345-44.76 13.407-13.408 31.919-21.742 52.272-21.742 6.18 0 12.217.794 18.028 2.239 5.953 1.531 11.65 3.77 16.951 6.633 3.628 1.957 4.989 6.492 3.033 10.12-1.956 3.657-6.491 5.018-10.12 3.061-4.224-2.296-8.759-4.082-13.492-5.272-2.268-.567-4.565-.992-6.917-1.304v15.506c0 4.139-3.345 7.512-7.483 7.512-4.139 0-7.512-3.373-7.512-7.512v-15.506c-13.238 1.701-25.143 7.852-34.158 16.866s-15.138 20.92-16.838 34.158h117.016c-.368-3.09-.992-6.066-1.843-8.93-1.559-5.414-3.911-10.487-6.86-15.138-2.211-3.486-1.191-8.108 2.268-10.318 3.486-2.211 8.107-1.189 10.318 2.297 3.713 5.839 6.661 12.218 8.646 18.993 1.219 4.252 2.098 8.617 2.552 13.096h2.834c4.167 0 7.512 3.345 7.512 7.483 0 4.167-3.345 7.512-7.512 7.512h-12.132v30.784c0 17.519-7.144 34.103-19.73 46.234v14.712h15.137c15.421 0 29.424 6.293 39.572 16.441 10.147 10.148 16.469 24.18 16.469 39.573v21.175h43.91c4.139 0 7.512 3.373 7.512 7.512v44.022c0 4.139-3.373 7.512-7.512 7.512s-7.483-3.373-7.483-7.512v-36.509zm-29.112 0v20.637h14.116v-20.637zm-153.356 0v28.119c0 4.139-3.374 7.513-7.512 7.513h-29.112c-4.139 0-7.512-3.374-7.512-7.513v-28.119h-31.438v107.009h107.01v-36.51c0-4.139 3.374-7.512 7.513-7.512 4.138 0 7.512 3.373 7.512 7.512v36.51h45.439v-114.521c0-4.139 3.345-7.512 7.482-7.512h14.571v-62.193h-9.071c-2.41 8.391-7.172 15.761-13.55 21.373-7.909 6.946-18.255 11.142-29.565 11.142-11.311 0-21.656-4.195-29.565-11.142-6.379-5.612-11.141-12.982-13.551-21.373h-9.099v62.193h29.396c4.138 0 7.512 3.373 7.512 7.512v44.022c0 4.139-3.374 7.512-7.512 7.512-4.139 0-7.513-3.373-7.513-7.512v-36.51zm-29.112 0v20.637h14.117v-20.637zm158.062-76.537v61.513h33.533v-21.175c0-11.254-4.62-21.516-12.047-28.972-5.754-5.753-13.181-9.807-21.486-11.366zm-134.392 61.513v-61.513c-8.277 1.559-15.704 5.612-21.459 11.366-7.455 7.456-12.075 17.718-12.075 28.972v21.175zm67.21-88.839c13.125 0 25.568-5.272 34.81-14.485 8.929-8.929 14.456-21.261 14.456-34.81v-30.785h-98.561v30.784c0 13.55 5.557 25.882 14.485 34.81 8.93 8.929 21.26 14.486 34.81 14.486zm29.565 7.738c-8.872 4.648-18.936 7.257-29.565 7.257-10.658 0-20.721-2.636-29.594-7.257v10.743c.567 6.69 4.904 13.919 9.864 18.284 5.244 4.592 12.161 7.398 19.729 7.398s14.457-2.807 19.701-7.398c5.188-4.536 8.787-10.829 9.864-17.943v-11.084zm75.828 280.407c-4.139 0-7.512-3.345-7.512-7.483s3.373-7.512 7.512-7.512h28.148c4.14 0 7.484 3.373 7.484 7.512s-3.345 7.483-7.484 7.483zm-74.723 0c-4.139 0-7.483-3.345-7.483-7.483s3.345-7.512 7.483-7.512h28.149c4.167 0 7.512 3.373 7.512 7.512s-3.345 7.483-7.512 7.483zm-74.693 0c-4.139 0-7.513-3.345-7.513-7.483s3.374-7.512 7.513-7.512h28.148c4.139 0 7.512 3.373 7.512 7.512s-3.373 7.483-7.512 7.483zm-74.693 0c-4.168 0-7.513-3.345-7.513-7.483s3.345-7.512 7.513-7.512h28.148c4.138 0 7.483 3.373 7.483 7.512s-3.346 7.483-7.483 7.483zm312.352-41.103c9.27 0 17.688 3.77 23.754 9.836 6.096 6.095 9.866 14.485 9.866 23.783 0 9.27-3.771 17.688-9.866 23.754-6.066 6.096-14.484 9.866-23.754 9.866-9.298 0-17.689-3.771-23.783-9.866-6.066-6.066-9.836-14.484-9.836-23.754 0-9.298 3.77-17.689 9.836-23.783 6.095-6.065 14.485-9.836 23.783-9.836zm13.153 20.438c-3.373-3.345-8.021-5.442-13.152-5.442-5.159 0-9.809 2.098-13.182 5.442-3.345 3.373-5.442 8.022-5.442 13.182 0 5.131 2.098 9.779 5.442 13.152 3.373 3.373 8.022 5.471 13.182 5.471 5.131 0 9.779-2.098 13.152-5.471s5.471-8.021 5.471-13.152c-.001-5.16-2.098-9.809-5.471-13.182zm-385.601-20.438c9.27 0 17.688 3.77 23.755 9.836 6.094 6.095 9.864 14.485 9.864 23.783 0 9.27-3.771 17.688-9.864 23.754-6.066 6.096-14.485 9.866-23.755 9.866-9.298 0-17.688-3.771-23.782-9.866-6.096-6.066-9.838-14.484-9.838-23.754 0-9.298 3.742-17.689 9.838-23.783 6.094-6.065 14.484-9.836 23.782-9.836zm13.153 20.438c-3.374-3.345-8.022-5.442-13.153-5.442-5.159 0-9.808 2.098-13.181 5.442-3.373 3.373-5.442 8.022-5.442 13.182 0 5.131 2.069 9.779 5.442 13.152s8.021 5.471 13.181 5.471c5.131 0 9.779-2.098 13.153-5.471 3.373-3.373 5.442-8.021 5.442-13.152.001-5.16-2.069-9.809-5.442-13.182z"/></g></svg>