<svg id="Capa_1" enable-background="new 0 0 512 512" height="512" viewBox="0 0 512 512" width="512" xmlns="http://www.w3.org/2000/svg"><g><g clip-rule="evenodd" fill-rule="evenodd"><path d="m179.747 355.469h164.043v103.154h-164.043z" fill="#e0dbee"/><path d="m15.279 485.609h481.47c4.252 0 7.768-3.487 7.768-7.767v-23.274c0-4.279-3.516-7.767-7.768-7.767h-481.47c-4.28 0-7.768 3.487-7.768 7.767v23.274c.001 4.28 3.488 7.767 7.768 7.767z" fill="#fed1a3"/><path d="m192.361 200.128 68.457-13.096 70.357 13.096-12.416 43.145c-1.417 5.017-4.875 7.455-9.893 7.455h-94.168c-4.792 0-8.618-2.92-9.922-7.455z" fill="#e0dbee"/><path d="m118.149 45.809h287.267c4.252 0 7.738 3.487 7.738 7.768v138.785c0 4.28-3.486 7.767-7.738 7.767h-287.267c-4.28 0-7.767-3.486-7.767-7.767v-138.786c.001-4.28 3.487-7.767 7.767-7.767z" fill="#0c5e7f"/><path d="m388.891 45.809h16.525c4.252 0 7.738 3.487 7.738 7.768v138.785c0 4.28-3.486 7.767-7.738 7.767h-287.267c-4.28 0-7.767-3.486-7.767-7.767v-16.498h249.395c16.016 0 29.113-13.096 29.113-29.111v-100.944z" fill="#174b67"/><path d="m15.279 65.198h481.47c4.252 0 7.768-3.487 7.768-7.739v-23.302c0-4.279-3.516-7.767-7.768-7.767h-481.47c-4.28 0-7.768 3.487-7.768 7.767v23.302c.001 4.252 3.488 7.739 7.768 7.739z" fill="#fed1a3"/><path d="m179.747 446.802h164.043v-91.333h-24.265v47.651c0 10.658-8.73 19.417-19.417 19.417h-120.361z" fill="#d3cee5"/><path d="m254.271 382.567-136.463-36.566c-4.62-1.247-6.689-4.961-5.499-9.524l3.516-13.124c1.275-4.706 4.62-6.804 9.524-5.471l128.922 34.525c5.045 1.36 9.977 1.36 14.994 0l128.922-34.525c4.904-1.333 8.249.765 9.524 5.471l3.515 13.124c1.22 4.563-.85 8.277-5.498 9.524l-136.463 36.566c-5.044 1.363-9.92 1.363-14.994 0z" fill="#0c5e7f"/><path d="m261.783 170.79c20.976 0 38.098-17.121 38.098-38.127 0-20.977-17.122-38.099-38.098-38.099-21.005 0-38.098 17.122-38.098 38.099.001 21.006 17.093 38.127 38.098 38.127z" fill="#faf8f9"/><path d="m273.689 96.492c15.222 4.989 26.192 19.305 26.192 36.171 0 21.062-17.065 38.127-38.098 38.127-16.895 0-31.182-10.999-36.199-26.192 3.742 1.247 7.768 1.899 11.934 1.899 21.033 0 38.098-17.037 38.098-38.099-.001-4.167-.681-8.164-1.927-11.906z" fill="#ede9fb"/><g fill="#d3cee5"><path d="m247.213 250.727h29.111v45.638c0 5.585-2.126 9.554-5.953 12.729l-2.636 2.211c-3.827 3.175-8.192 3.118-11.934 0l-2.75-2.324c-3.855-3.203-5.839-7.568-5.839-12.615v-45.639z"/><path d="m324.401 223.713 6.775-23.585h-138.815l6.775 23.585z"/></g></g><path d="m411.256 439.29c4.139 0 7.483 3.373 7.483 7.512s-3.345 7.483-7.483 7.483c-132.097 0-264.164 0-396.261 0v23.841h482.01v-23.841h-51.79c-4.139 0-7.483-3.345-7.483-7.483 0-4.139 3.345-7.512 7.483-7.512h59.302c4.139 0 7.483 3.373 7.483 7.512v38.808c0 4.167-3.345 7.512-7.483 7.512h-497.005c-4.138 0-7.512-3.345-7.512-7.512v-38.808c0-4.139 3.374-7.512 7.512-7.512h164.752v-70.952l-63.895-17.121c-3.996-1.049-6.35-5.159-5.301-9.156l7.541-28.119c1.077-3.997 5.188-6.378 9.184-5.301l141.99 38.041 53.603-14.372c3.997-1.077 8.107 1.304 9.185 5.301 1.049 3.997-1.305 8.107-5.301 9.156l-55.476 14.882c-1.247.34-2.607.368-3.939.028l-136.717-36.652-3.657 13.663c47.425 12.728 94.878 25.427 142.302 38.126 47.424-12.699 94.848-25.398 142.272-38.126l-3.657-13.663-48.303 12.955c-3.997 1.076-8.107-1.305-9.185-5.301-1.077-3.997 1.304-8.107 5.301-9.156l55.56-14.882c3.997-1.077 8.107 1.304 9.156 5.301l7.54 28.119c1.077 3.997-1.304 8.108-5.301 9.156l-63.865 17.121v70.952zm-127.42-181.051v45.895c0 2.551-1.275 4.818-3.26 6.179l-14.031 11.708c-2.835 2.352-6.916 2.238-9.638-.086l-14.457-12.075c-1.729-1.417-2.721-3.515-2.721-5.726v-45.895h-32.798c-3.544 0-6.52-2.466-7.285-5.754l-12.926-44.845h-76.337c-4.139 0-7.512-3.345-7.512-7.512v-127.418h-28.461c-4.138 0-7.512-3.345-7.512-7.512 0-4.139 3.374-7.483 7.512-7.483h422.595v-23.841h-482.01v23.841h25.428c4.139 0 7.513 3.345 7.513 7.483 0 4.167-3.374 7.512-7.513 7.512h-32.911c-4.138 0-7.512-3.345-7.512-7.512v-38.807c0-4.139 3.374-7.512 7.512-7.512h497.005c4.139 0 7.483 3.373 7.483 7.512v38.808c0 4.167-3.345 7.512-7.483 7.512h-83.851v127.418c0 4.167-3.344 7.512-7.512 7.512h-76.338l-12.982 45.157c-.907 3.203-3.855 5.442-7.2 5.442h-32.798zm-29.111 0v42.407l7.059 5.896 7.058-5.896v-42.407zm-52.386-50.599 10.233 35.604h98.421l10.232-35.604zm64.121-69.137c-3.203 2.58-7.937 2.069-10.517-1.134-2.58-3.231-2.069-7.936 1.134-10.517l23.103-18.623c-5.103-3.855-11.48-6.151-18.396-6.151-8.447 0-16.102 3.43-21.657 8.957-5.527 5.527-8.958 13.181-8.958 21.629 0 8.477 3.431 16.102 8.958 21.657 5.556 5.527 13.21 8.958 21.657 8.958s16.101-3.431 21.628-8.958c5.527-5.556 8.958-13.181 8.958-21.657 0-4.564-.992-8.901-2.778-12.784zm52.867-18.937c0-4.139 3.345-7.483 7.483-7.483 4.139 0 7.512 3.345 7.512 7.483v26.222c0 4.139-3.373 7.483-7.512 7.483s-7.483-3.345-7.483-7.483zm58.224 0c0-4.139 3.373-7.483 7.512-7.483 4.14 0 7.484 3.345 7.484 7.483v26.222c0 4.139-3.345 7.483-7.484 7.483s-7.512-3.345-7.512-7.483zm-29.112 0c0-4.139 3.346-7.483 7.484-7.483 4.166 0 7.512 3.345 7.512 7.483v26.222c0 4.139-3.346 7.483-7.512 7.483-4.139 0-7.484-3.345-7.484-7.483zm-217.448 0c0-4.139 3.373-7.483 7.512-7.483s7.483 3.345 7.483 7.483v26.222c0 4.139-3.345 7.483-7.483 7.483-4.139 0-7.512-3.345-7.512-7.483zm58.252 0c0-4.139 3.345-7.483 7.483-7.483 4.167 0 7.512 3.345 7.512 7.483v26.222c0 4.139-3.345 7.483-7.512 7.483-4.139 0-7.483-3.345-7.483-7.483zm-29.141 0c0-4.139 3.374-7.483 7.512-7.483 4.139 0 7.513 3.345 7.513 7.483v26.222c0 4.139-3.374 7.483-7.513 7.483-4.138 0-7.512-3.345-7.512-7.483zm101.681-32.484c12.586 0 23.98 5.102 32.229 13.351 8.25 8.249 13.352 19.645 13.352 32.23 0 12.615-5.102 24.01-13.352 32.259-8.249 8.249-19.644 13.351-32.229 13.351s-24.01-5.102-32.259-13.351-13.351-19.644-13.351-32.259c0-12.586 5.102-23.981 13.351-32.23s19.673-13.351 32.259-13.351zm-143.888-14.372v119.935h287.777v-119.935zm69.364 299.653v66.927h149.048v-66.927l-72.597 19.447c-1.36.368-2.721.341-3.968-.028z"/></g></svg>