<svg id="Capa_1" enable-background="new 0 0 512 512" height="512" viewBox="0 0 512 512" width="512" xmlns="http://www.w3.org/2000/svg"><g><g clip-rule="evenodd" fill-rule="evenodd"><path d="m409.696 64.064 24.293 24.293c6.35 6.321 6.406 16.696.142 23.103l-14.315 14.314c17.178 24.124 29.112 52.243 34.243 82.688h20.069c9.043 0 16.413 7.371 16.413 16.414v34.355c0 9.043-7.37 16.413-16.413 16.441h-20.069c-5.131 30.417-17.065 58.536-34.243 82.659l14.173 14.201c6.35 6.492 6.463 16.782 0 23.217l-24.293 24.293c-6.35 6.35-16.696 6.406-23.102.113l-14.315-14.286c-24.124 17.178-52.244 29.111-82.66 34.242v20.069c0 9.043-7.398 16.414-16.441 16.414h-34.356c-9.043 0-16.413-7.371-16.413-16.414v-20.069c-30.444-5.131-58.536-17.064-82.688-34.242l-14.201 14.173c-6.378 6.406-16.838 6.406-23.216 0l-24.293-24.292c-6.406-6.378-6.406-16.838 0-23.217l14.173-14.201c-17.178-24.123-29.112-52.242-34.243-82.659h-20.069c-9.014 0-16.413-7.398-16.413-16.441v-34.355c0-9.043 7.398-16.414 16.413-16.414h20.069c5.131-30.444 17.065-58.535 34.243-82.688l-14.173-14.201c-6.406-6.378-6.406-16.838 0-23.216l24.293-24.293c6.378-6.406 16.838-6.406 23.216 0l14.201 14.173c24.123-17.178 52.244-29.111 82.688-34.242v-20.07c0-9.042 7.37-16.413 16.413-16.413h34.356c9.043 0 16.441 7.371 16.441 16.413v20.07c30.416 5.131 58.536 17.065 82.66 34.242l14.201-14.173c6.492-6.322 16.753-6.463 23.216-.001z" fill="#e0dbee"/><path d="m409.696 64.064 24.293 24.293c6.35 6.321 6.406 16.696.142 23.103l-14.315 14.314c17.178 24.124 29.112 52.243 34.243 82.688h20.069c9.043 0 16.413 7.371 16.413 16.414v34.355c0 9.043-7.37 16.413-16.413 16.441h-20.069c-5.131 30.417-17.065 58.536-34.243 82.659l14.173 14.201c6.35 6.492 6.463 16.782 0 23.217l-24.293 24.293c-6.35 6.35-16.696 6.406-23.102.113l-14.315-14.286c-24.124 17.178-52.244 29.111-82.66 34.242v20.069c0 9.043-7.398 16.414-16.441 16.414h-34.356c-9.043 0-16.413-7.371-16.413-16.414v-20.069c-30.444-5.131-58.536-17.064-82.688-34.242l-14.201 14.173c-6.378 6.406-16.838 6.406-23.216 0l-24.293-24.292c-6.406-6.378-6.406-16.838 0-23.217l11.452-11.48c36.511 36.257 86.769 58.65 142.272 58.65 111.517 0 201.914-90.398 201.914-201.914 0-55.503-22.393-105.763-58.649-142.272l11.48-11.452c6.492-6.322 16.753-6.463 23.216-.001z" fill="#d3cee5"/><path d="m256 346.625c57.601 0 104.571-46.971 104.571-104.571s-46.97-104.572-104.571-104.572-104.571 46.971-104.571 104.571 46.97 104.572 104.571 104.572z" fill="#faf8f9"/><path d="m316.804 156.985c26.504 18.964 43.767 50.003 43.767 85.068 0 57.743-46.829 104.571-104.571 104.571-35.065 0-66.105-17.264-85.069-43.768 17.122 12.274 38.126 19.503 60.804 19.503 57.743 0 104.572-46.829 104.572-104.571 0-22.677-7.229-43.682-19.503-60.803z" fill="#ede9fb"/><path d="m301.61 336.165v122.713c0 25.087-20.523 45.639-45.61 45.639s-45.61-20.522-45.61-45.639v-122.713l45.582-6.066z" fill="#d57080"/><path d="m301.61 336.165v122.713c0 25.087-20.523 45.639-45.61 45.639-18.794 0-35.065-11.537-42.01-27.894 5.471 2.325 11.452 3.629 17.745 3.629 25.087 0 45.61-20.552 45.61-45.639v-98.448z" fill="#cb5769"/><path d="m210.39 336.165h91.22l-12.047-25.54c-2.041-4.337-5.329-7.03-11.083-7.03h-44.959c-5.754 0-9.042 2.693-11.083 7.03z" fill="#cb5769"/><path d="m277.345 336.165h24.265l-12.047-25.54c-2.041-4.337-5.329-7.03-11.083-7.03h-24.265c5.754 0 9.014 2.693 11.084 7.03z" fill="#c63d4f"/><g fill="#0c5e7f"><path d="m256 261.726c8.447 0 15.392 6.945 15.392 15.393v26.477h-30.756v-26.477c0-8.448 6.917-15.393 15.364-15.393z"/><path d="m248.318 73.646h15.364c4.904 0 8.192 3.005 8.929 7.653l7.796 48.502c.851 5.329.17 10.177-1.786 14.825l-4.224 10.007c-1.956 4.648-5.641 7.171-10.715 7.171h-15.364c-5.074 0-8.759-2.522-10.715-7.171l-4.224-10.007c-1.956-4.649-2.636-9.496-1.786-14.825l7.796-48.502c.737-4.649 4.025-7.653 8.929-7.653z"/></g></g><path d="m202.878 443.571c-11.225-2.949-22.054-6.804-32.429-11.48-10.431-4.706-20.409-10.233-29.849-16.526l-9.779 9.779c-4.677 4.649-10.772 7.002-16.923 7.002-6.123 0-12.246-2.325-16.895-7.002l-24.293-24.293c-4.677-4.648-7.002-10.772-7.002-16.895 0-6.322 2.579-12.529 7.03-16.98l9.751-9.751c-1.502-2.239-2.976-4.535-4.365-6.831-2.58-4.195-4.96-8.42-7.115-12.586-1.928-3.657-.482-8.192 3.175-10.092 3.685-1.928 8.22-.481 10.12 3.175 2.126 4.11 4.309 8.023 6.576 11.707 2.268 3.685 4.621 7.285 7.086 10.772 2.438 2.947 2.268 7.312-.481 10.062l-14.173 14.201c-3.43 3.459-3.459 9.185 0 12.615l24.293 24.293c1.729 1.73 3.997 2.608 6.293 2.608 2.381 0 4.648-.907 6.35-2.58l14.088-14.088c2.523-2.637 6.662-3.09 9.723-.907 10.12 7.2 21.033 13.464 32.542 18.651 8.447 3.827 17.235 7.059 26.278 9.609v-87.308c-17.122-9.24-31.579-22.818-41.896-39.288-10.8-17.264-17.065-37.617-17.065-59.387 0-26.164 8.986-50.231 24.01-69.308 13.946-17.688 33.165-31.097 55.276-37.843l9.95-61.854c.283-3.883 3.515-6.916 7.484-6.916h30.756c3.6 0 6.775 2.637 7.371 6.321l10.035 62.448c22.11 6.746 41.33 20.154 55.276 37.843 15.024 19.076 24.01 43.144 24.01 69.308 0 21.77-6.265 42.123-17.065 59.387-10.318 16.47-24.774 30.048-41.896 39.288v27.553c0 4.139-3.345 7.512-7.512 7.512-4.139 0-7.483-3.373-7.483-7.512v-24.605h-76.253v115.201c0 10.489 4.309 20.013 11.197 26.93 6.917 6.917 16.441 11.197 26.93 11.197 10.488 0 20.013-4.28 26.93-11.197 6.888-6.917 11.197-16.44 11.197-26.93v-56.607c0-4.139 3.345-7.512 7.483-7.512 4.167 0 7.512 3.373 7.512 7.512v25.766c9.042-2.578 17.83-5.782 26.278-9.609 11.509-5.188 22.394-11.423 32.514-18.623 2.92-2.098 7.03-1.842 9.638.766l14.287 14.258c1.729 1.701 4.025 2.551 6.321 2.551 2.239-.027 4.507-.906 6.236-2.636l24.293-24.293c1.757-1.729 2.608-3.968 2.608-6.236 0-2.269-.936-4.791-2.608-6.379l-14.173-14.201c-2.551-2.523-2.948-6.605-.793-9.638 8.362-11.735 15.42-24.463 21.004-37.928 5.528-13.38 9.553-27.355 11.962-41.643.567-3.543 3.657-6.235 7.371-6.235h20.069c2.41 0 4.649-1.021 6.293-2.665 1.616-1.615 2.636-3.855 2.636-6.293v-34.355c0-2.438-1.021-4.678-2.636-6.293-1.616-1.615-3.855-2.637-6.293-2.637h-20.069c-3.6 0-6.775-2.608-7.371-6.265-.765-4.508-1.644-8.788-2.608-12.898-.992-4.082-2.154-8.305-3.515-12.643-1.247-3.969.963-8.163 4.904-9.383 3.969-1.219 8.164.965 9.383 4.933 1.36 4.28 2.608 8.845 3.742 13.635.624 2.579 1.19 5.103 1.701 7.625h13.833c6.576 0 12.558 2.693 16.895 7.03s7.03 10.319 7.03 16.896v34.355c0 6.576-2.693 12.558-7.03 16.895-4.309 4.337-10.29 7.002-16.895 7.002h-13.833c-2.664 13.379-6.633 26.307-11.736 38.637-5.216 12.558-11.594 24.491-19.049 35.66l9.779 9.808c4.451 4.422 7.001 10.715 7.001 16.98 0 6.095-2.296 12.161-7.001 16.838l-24.265 24.293c-4.62 4.62-10.715 6.944-16.81 6.974-6.095.028-12.189-2.24-16.866-6.803l-9.95-9.95c-9.44 6.293-19.418 11.82-29.849 16.526-10.375 4.677-21.204 8.531-32.429 11.48v15.307c0 14.628-5.981 27.894-15.59 37.532-9.641 9.639-22.908 15.592-37.535 15.592s-27.894-5.953-37.531-15.59c-9.609-9.61-15.59-22.904-15.59-37.532v-15.307zm24.35-294.296c-18.964 5.895-35.49 17.461-47.509 32.74-13.011 16.525-20.778 37.36-20.778 60.038 0 18.936 5.386 36.596 14.712 51.478 8.305 13.267 19.758 24.407 33.307 32.344l11.792-25.002c1.105-2.807 3.827-4.791 7.002-4.791h7.37v-18.964c0-6.293 2.58-12.019 6.718-16.157 2.41-2.409 5.358-4.309 8.646-5.442v-86.232h-7.852c-2.92 0-5.698-1.729-6.889-4.592zm36.284 20.012v86.232c3.288 1.134 6.236 3.033 8.646 5.442 4.138 4.139 6.718 9.864 6.718 16.157v18.964h7.37c2.806 0 5.499 1.617 6.775 4.31l12.019 25.483c13.549-7.936 25.002-19.077 33.307-32.344 9.326-14.882 14.712-32.542 14.712-51.478 0-22.678-7.767-43.513-20.778-60.038-12.02-15.279-28.546-26.845-47.509-32.74l-6.236 14.797c-.964 3.032-3.799 5.215-7.144 5.215zm-17.944-14.995h20.863l7.483-17.745-8.901-55.418h-18.028l-8.901 55.418zm2.552 141.79h15.761v-18.964c0-2.154-.879-4.139-2.324-5.556-1.418-1.446-3.402-2.324-5.556-2.324s-4.139.878-5.556 2.324c-1.445 1.417-2.324 3.401-2.324 5.556v18.964zm-25.938 32.6h67.636l-8.306-17.575c-17.008 0-34.016 0-51.024 0zm-150.436-27.723c1.247 3.939-.936 8.135-4.876 9.383-3.941 1.247-8.136-.935-9.383-4.876-1.502-4.706-2.806-9.44-3.968-14.146-.652-2.749-1.276-5.471-1.814-8.191h-13.833c-6.576 0-12.558-2.665-16.895-7.002s-7.03-10.318-7.03-16.895v-34.355c0-6.576 2.693-12.559 7.03-16.896s10.319-7.03 16.895-7.03h13.833c2.693-13.351 6.633-26.276 11.735-38.607 5.216-12.558 11.594-24.491 19.049-35.661l-9.779-9.808c-9.298-9.298-9.298-24.52 0-33.817l24.293-24.293c4.648-4.677 10.772-7.002 16.895-7.002 6.151 0 12.274 2.325 16.923 7.002l9.808 9.779c11.169-7.455 23.103-13.833 35.66-19.049 12.331-5.102 25.257-9.072 38.637-11.736v-13.834c0-6.576 2.664-12.558 7.002-16.895 4.336-4.337 10.317-7.03 16.894-7.03h34.356c6.577 0 12.558 2.693 16.895 7.03 4.507 4.507 7.002 10.545 7.002 16.895v13.833c13.379 2.664 26.306 6.634 38.637 11.736 12.557 5.216 24.491 11.594 35.66 19.049l9.808-9.779c4.422-4.422 10.744-7.002 16.98-7.002 6.095 0 12.161 2.296 16.838 7.002l24.293 24.293c4.621 4.592 6.945 10.687 6.973 16.781.028 6.095-2.239 12.16-6.774 16.838l-9.978 9.978c1.559 2.382 3.118 4.819 4.649 7.343 2.607 4.28 5.045 8.646 7.313 13.096 1.899 3.657.425 8.164-3.232 10.035-3.685 1.898-8.192.425-10.063-3.232-2.126-4.167-4.393-8.221-6.803-12.161-2.324-3.855-4.876-7.738-7.625-11.594-2.098-2.921-1.842-7.002.765-9.639l14.258-14.258c1.701-1.758 2.551-4.054 2.551-6.35-.028-2.239-.907-4.507-2.636-6.236l-24.293-24.293c-1.729-1.758-3.969-2.608-6.236-2.608-2.268 0-4.791.936-6.378 2.608l-14.202 14.173c-2.523 2.552-6.605 2.948-9.638.794-11.736-8.362-24.463-15.421-37.928-21.005-13.38-5.527-27.355-9.553-41.642-11.962-3.543-.567-6.236-3.657-6.236-7.37v-20.07c0-2.438-1.049-4.677-2.665-6.293s-3.855-2.636-6.293-2.636h-34.356c-2.438 0-4.677 1.019-6.293 2.636-1.672 1.673-2.664 3.912-2.664 6.293v19.617c.255 3.77-2.41 7.199-6.236 7.823-14.514 2.466-28.46 6.491-41.642 11.962-13.294 5.5-25.88 12.473-37.503 20.693-2.948 2.438-7.313 2.296-10.063-.482l-14.201-14.173c-1.729-1.729-4.025-2.608-6.321-2.608s-4.564.879-6.293 2.608l-24.294 24.293c-3.487 3.458-3.487 9.128 0 12.614l14.173 14.201c2.551 2.523 2.948 6.605.793 9.639-8.362 11.735-15.42 24.464-21.005 37.928-5.414 13.04-9.439 26.845-11.877 41.188-.397 3.771-3.572 6.719-7.456 6.719h-20.068c-2.438 0-4.677 1.021-6.293 2.637-1.616 1.615-2.636 3.856-2.636 6.293v34.355c0 2.438 1.021 4.678 2.636 6.293 1.672 1.673 3.912 2.665 6.293 2.665h19.616c3.77-.228 7.201 2.409 7.824 6.235.793 4.593 1.701 9.071 2.749 13.38 1.077 4.506 2.324 8.901 3.685 13.154z"/></g></svg>