<svg id="Capa_1" enable-background="new 0 0 512 512" height="512" viewBox="0 0 512 512" width="512" xmlns="http://www.w3.org/2000/svg"><g><g clip-rule="evenodd" fill-rule="evenodd"><path d="m189.356 91.404h-142.243c-4.281 0-7.767 3.487-7.767 7.768v31.153c0 4.28 3.486 7.768 7.767 7.768h142.244c4.253 0 7.768-3.487 7.768-7.768v-31.153c-.001-4.28-3.516-7.768-7.769-7.768z" fill="#0c5e7f"/><path d="m289.563 279.344h-62.874c-4.28 0-7.767-3.515-7.767-7.767v-88.556c0-4.252 3.487-7.767 7.767-7.767h62.874c4.28 0 7.767 3.515 7.767 7.767v88.556c0 4.252-3.487 7.767-7.767 7.767z" fill="#ffefd6"/><path d="m450.346 280.308h-72.681c-4.252 0-7.767-3.487-7.767-7.767v-89.519c0-4.252 3.515-7.767 7.767-7.767h72.681c4.28 0 7.767 3.515 7.767 7.767v89.519c0 4.279-3.487 7.767-7.767 7.767z" fill="#ffefd6"/><path d="m458.113 263.47h-243.726v92.779h243.726c25.512 0 46.404-20.863 46.404-46.375 0-25.513-20.892-46.404-46.404-46.404z" fill="#0c5e7f"/><path d="m214.387 331.984v24.265h243.726c25.512 0 46.404-20.863 46.404-46.375 0-19.021-11.594-35.463-28.064-42.606 2.438 5.642 3.799 11.821 3.799 18.341 0 25.513-20.892 46.376-46.404 46.376h-219.461z" fill="#174b67"/><path d="m15.279 420.596h205.911c4.28 0 7.767-3.486 7.767-7.767v-282.844c0-4.281-3.487-7.769-7.767-7.769h-205.911c-4.28 0-7.767 3.487-7.767 7.769v282.844c0 4.28 3.486 7.767 7.767 7.767z" fill="#e0dbee"/><path d="m15.279 420.596h205.911c4.28 0 7.767-3.486 7.767-7.767v-282.844c0-4.281-3.487-7.769-7.767-7.769h-16.497v245.002c0 16.016-13.097 29.113-29.112 29.113h-168.069v16.497c0 4.281 3.486 7.768 7.767 7.768z" fill="#d3cee5"/><path d="m458.113 325.464c8.589 0 15.619-7.001 15.619-15.59s-7.03-15.62-15.619-15.62-15.591 7.031-15.591 15.62c-.001 8.589 7.002 15.59 15.591 15.59z" fill="#0079a2"/><path d="m428.575 175.255v23.641c0 4.28-3.486 7.768-7.767 7.768h-13.578c-4.281 0-7.768-3.487-7.768-7.768v-23.641z" fill="#fed1a3"/><path d="m196.075 175.255h-155.709c-4.252 0-7.767 3.515-7.767 7.767v38.439c0 4.28 3.515 7.767 7.767 7.767h155.709c4.28 0 7.767-3.487 7.767-7.767v-38.439c0-4.252-3.487-7.767-7.767-7.767z" fill="#b1e4f9"/><path d="m196.075 175.255h-16.498v15.165c0 7.993-6.548 14.542-14.542 14.542h-132.436v16.498c0 4.28 3.515 7.767 7.767 7.767h155.709c4.28 0 7.767-3.487 7.767-7.767v-38.439c0-4.251-3.487-7.766-7.767-7.766z" fill="#90d8f9"/><path d="m60.237 300.123c11.509 0 20.892-9.384 20.892-20.892 0-11.48-9.383-20.863-20.892-20.863-11.508 0-20.891 9.383-20.891 20.863 0 11.508 9.382 20.892 20.891 20.892z" fill="#95d6a4"/><path d="m60.237 371.017c11.509 0 20.892-9.382 20.892-20.891s-9.383-20.892-20.892-20.892c-11.508 0-20.891 9.383-20.891 20.892s9.382 20.891 20.891 20.891z" fill="#95d6a4"/><g fill="#ffe6c1"><path d="m369.897 239.205v24.265h88.215v-80.448c0-4.252-3.487-7.767-7.767-7.767h-16.498v49.409c0 7.993-6.548 14.541-14.542 14.541z"/><path d="m228.957 239.205v24.265h68.373v-80.448c0-4.252-3.486-7.767-7.767-7.767h-16.499v49.409c0 7.993-6.548 14.541-14.542 14.541z"/></g></g><path d="m14.996 413.084h206.478c0-94.451 0-188.902 0-283.382-68.826 0-137.652 0-206.478 0v283.382zm45.241-76.338c-3.713 0-7.058 1.503-9.468 3.912-2.409 2.438-3.912 5.782-3.912 9.468 0 3.684 1.503 7.029 3.912 9.468 2.41 2.409 5.754 3.911 9.468 3.911 3.685 0 7.031-1.502 9.468-3.911 2.41-2.439 3.912-5.783 3.912-9.468 0-3.686-1.503-7.03-3.912-9.468-2.437-2.409-5.783-3.912-9.468-3.912zm-20.07-6.689c5.131-5.131 12.218-8.306 20.069-8.306 7.824 0 14.939 3.175 20.07 8.306s8.306 12.245 8.306 20.069c0 7.852-3.175 14.939-8.306 20.069s-12.246 8.306-20.07 8.306c-7.852 0-14.938-3.176-20.069-8.306-5.13-5.131-8.305-12.218-8.305-20.069 0-7.824 3.175-14.938 8.305-20.069zm20.07-64.206c-3.713 0-7.058 1.503-9.468 3.912-2.409 2.438-3.912 5.782-3.912 9.468 0 3.713 1.503 7.059 3.912 9.468 2.41 2.438 5.754 3.911 9.468 3.911 3.685 0 7.031-1.474 9.468-3.911 2.41-2.409 3.912-5.755 3.912-9.468 0-3.686-1.503-7.03-3.912-9.468-2.437-2.41-5.783-3.912-9.468-3.912zm-20.07-6.69c5.131-5.131 12.218-8.306 20.069-8.306 7.824 0 14.939 3.175 20.07 8.306 5.131 5.159 8.306 12.245 8.306 20.069 0 7.852-3.175 14.938-8.306 20.07-5.131 5.159-12.246 8.334-20.07 8.334-7.852 0-14.938-3.175-20.069-8.334-5.13-5.132-8.305-12.219-8.305-20.07 0-7.824 3.175-14.91 8.305-20.069zm149.445-160.272h-142.755v15.816h142.754v-15.816zm-150.266-14.996h157.778c4.139 0 7.483 3.373 7.483 7.512v23.301h24.35c4.139 0 7.512 3.374 7.512 7.512v45.554h60.86c4.139 0 7.512 3.346 7.512 7.484v27.127c0 4.139-3.373 7.512-7.512 7.512s-7.483-3.373-7.483-7.512v-19.615h-53.377v73.22h53.377v-19.615c0-4.168 3.345-7.513 7.483-7.513s7.512 3.345 7.512 7.513v19.615h57.573v-80.731c0-4.139 3.345-7.484 7.483-7.484h88.215c4.139 0 7.512 3.346 7.512 7.484v27.127c0 4.139-3.373 7.512-7.512 7.512s-7.483-3.373-7.483-7.512v-19.615h-14.571v23.896c0 4.138-3.345 7.513-7.483 7.513h-29.112c-4.167 0-7.512-3.375-7.512-7.513v-23.896h-14.542v73.22h73.22v-19.615c0-4.168 3.345-7.513 7.483-7.513s7.512 3.345 7.512 7.513v20.125c11.849 1.673 22.479 7.229 30.558 15.308 9.779 9.751 15.817 23.244 15.817 38.07 0 14.825-6.038 28.289-15.817 38.069-9.752 9.751-23.245 15.817-38.07 15.817h-50.627v49.323h13.635c4.139 0 7.483 3.373 7.483 7.512s-3.345 7.512-7.483 7.512h-42.237c-4.139 0-7.512-3.373-7.512-7.512s3.373-7.512 7.512-7.512h13.606v-49.323h-156.02v56.835c0 4.139-3.373 7.512-7.512 7.512h-221.445c-4.139 0-7.512-3.373-7.512-7.512v-298.381c0-4.138 3.373-7.512 7.512-7.512h24.35v-23.301c0-4.138 3.345-7.511 7.484-7.511zm61.909 83.877c4.139 0 7.484 3.346 7.484 7.484s-3.345 7.512-7.484 7.512h-54.398v38.977h142.754v-38.977h-54.397c-4.139 0-7.483-3.373-7.483-7.512s3.345-7.484 7.483-7.484h61.91c4.139 0 7.483 3.346 7.483 7.484v53.973c0 4.138-3.345 7.512-7.483 7.512h-157.778c-4.139 0-7.483-3.374-7.483-7.512v-53.973c0-4.139 3.345-7.484 7.483-7.484zm305.692 14.997v16.384h14.117v-16.384zm-296.706 103.975c-4.139 0-7.513-3.373-7.513-7.512s3.374-7.483 7.513-7.483h9.581c4.139 0 7.512 3.345 7.512 7.483 0 4.139-3.373 7.512-7.512 7.512zm0 70.896c-4.139 0-7.513-3.373-7.513-7.512s3.374-7.512 7.513-7.512h9.581c4.139 0 7.512 3.373 7.512 7.512s-3.373 7.512-7.512 7.512zm77.273 0c-4.139 0-7.484-3.373-7.484-7.512s3.345-7.512 7.484-7.512h9.61c4.139 0 7.483 3.373 7.483 7.512s-3.345 7.512-7.483 7.512zm-38.636 0c-4.139 0-7.484-3.373-7.484-7.512s3.345-7.512 7.484-7.512h9.581c4.167 0 7.512 3.373 7.512 7.512s-3.345 7.512-7.512 7.512zm-38.637-35.461c-4.139 0-7.513-3.346-7.513-7.484 0-4.139 3.374-7.512 7.513-7.512h9.581c4.139 0 7.512 3.373 7.512 7.512s-3.373 7.484-7.512 7.484zm77.273 0c-4.139 0-7.484-3.346-7.484-7.484 0-4.139 3.345-7.512 7.484-7.512h9.61c4.139 0 7.483 3.373 7.483 7.512s-3.345 7.484-7.483 7.484zm-38.636 0c-4.139 0-7.484-3.346-7.484-7.484 0-4.139 3.345-7.512 7.484-7.512h9.581c4.167 0 7.512 3.373 7.512 7.512s-3.345 7.484-7.512 7.484zm38.636-35.435c-4.139 0-7.484-3.373-7.484-7.512s3.345-7.483 7.484-7.483h9.61c4.139 0 7.483 3.345 7.483 7.483 0 4.139-3.345 7.512-7.483 7.512zm-38.636 0c-4.139 0-7.484-3.373-7.484-7.512s3.345-7.483 7.484-7.483h9.581c4.167 0 7.512 3.345 7.512 7.483 0 4.139-3.345 7.512-7.512 7.512zm240.437 30.615c-4.139 0-7.483-3.345-7.483-7.483 0-4.139 3.345-7.512 7.483-7.512h19.219c4.167 0 7.512 3.373 7.512 7.512s-3.345 7.483-7.512 7.483zm-128.128 0c-4.139 0-7.512-3.345-7.512-7.483 0-4.139 3.373-7.512 7.512-7.512h19.219c4.139 0 7.512 3.373 7.512 7.512s-3.373 7.483-7.512 7.483zm64.064 0c-4.139 0-7.484-3.345-7.484-7.483 0-4.139 3.345-7.512 7.484-7.512h19.219c4.139 0 7.512 3.373 7.512 7.512s-3.373 7.483-7.512 7.483zm132.862-30.586c6.378 0 12.161 2.579 16.328 6.774 4.195 4.168 6.775 9.951 6.775 16.329s-2.58 12.16-6.775 16.327c-4.167 4.167-9.95 6.775-16.328 6.775s-12.133-2.608-16.328-6.775c-4.167-4.167-6.775-9.949-6.775-16.327s2.608-12.161 6.775-16.329c4.195-4.195 9.95-6.774 16.328-6.774zm5.726 17.376c-1.446-1.474-3.487-2.381-5.726-2.381s-4.252.907-5.726 2.381c-1.446 1.446-2.353 3.487-2.353 5.727 0 2.239.907 4.252 2.353 5.726 1.474 1.475 3.487 2.382 5.726 2.382s4.28-.907 5.726-2.382c1.474-1.474 2.381-3.486 2.381-5.726 0-2.239-.908-4.28-2.381-5.727zm-5.726-33.166c-73.872 0-147.772 0-221.644 0v77.783h221.644c10.687 0 20.409-4.392 27.468-11.451 7.059-7.03 11.424-16.753 11.424-27.44s-4.365-20.411-11.424-27.469c-7.059-7.057-16.782-11.423-27.468-11.423z"/></g></svg>