<svg id="Capa_1" enable-background="new 0 0 512 512" height="512" viewBox="0 0 512 512" width="512" xmlns="http://www.w3.org/2000/svg"><g><g clip-rule="evenodd" fill-rule="evenodd"><path d="m57.431 344.499 251.38-4.848c-20.496-84.983-53.35-254.951-111.857-254.951h-124.953z" fill="#b1e4f9"/><path d="m253.902 315.387h-181.901-24.265v24.265h24.265l98.222 9.468 138.588-9.468c-1.814-7.483-3.714-15.647-5.725-24.265-20.752-89.349-52.784-230.687-106.132-230.687h-24.265c48.756 0 79.853 118.008 100.517 206.562 3.827 16.358-4.167 24.125-19.304 24.125z" fill="#90d8f9"/><path d="m173.766 339.651v-34.271l-50.372-40.31h-95.727c-11.084 0-20.155 9.07-20.155 20.154v54.426l90.625 6.548z" fill="#ffe07d"/><path d="m41.755 265.071h30.246v-180.371h-22.479c-5.159 0-7.767 3.26-7.767 7.768z" fill="#d57080"/><path d="m138.502 203.161c8.306 0 15.109 6.804 15.109 15.109v56.892h26.645c8.306 0 15.109 6.804 15.109 15.108 0 8.306-6.804 15.11-15.109 15.11h-49.097c-5.499 0-7.767-2.324-7.767-7.768v-79.342c.002-8.305 6.805-15.109 15.11-15.109z" fill="#00b694"/><path d="m15.279 398.84h334.86v-59.188h-41.329-301.298v51.422c0 4.733 2.523 7.766 7.767 7.766z" fill="#d57080"/><path d="m15.279 398.84h334.86v-59.188h-24.293v15.506c0 10.687-8.73 19.417-19.389 19.417h-298.945v16.499c0 4.733 2.523 7.766 7.767 7.766z" fill="#cb5769"/><path d="m67.976 427.328c15.675 0 28.46-12.812 28.46-28.488s-12.785-28.461-28.46-28.461c-15.676 0-28.489 12.785-28.489 28.461s12.813 28.488 28.489 28.488z" fill="#0c5e7f"/><path d="m296.478 427.328c15.677 0 28.461-12.812 28.461-28.488s-12.784-28.461-28.461-28.461c-15.704 0-28.488 12.785-28.488 28.461s12.784 28.488 28.488 28.488z" fill="#0c5e7f"/><path d="m375.51 390.109h118.915v-97.571c0-5.328-3.118-7.767-7.767-7.767h-12.501v-86.032c0-4.961-2.466-7.767-7.768-7.767h-90.88c.001 66.388.001 132.777.001 199.137z" fill="#ffefd6"/><path d="m350.14 398.84h30.217v-22.31-71.972-212.09c0-4.281-3.486-7.768-7.767-7.768h-14.684c-4.28 0-7.767 3.486-7.767 7.768v306.372z" fill="#0c5e7f"/><path d="m455.59 374.574h-75.233v16.499c0 4.847 2.665 7.767 7.769 7.767h106.3v-101.453c0-5.33-3.118-7.768-7.767-7.768h-12.501-3.997v70.414c-.001 7.993-6.55 14.541-14.571 14.541z" fill="#ffe6c1"/><path d="m380.356 284.772h93.801v-86.032c0-4.961-2.466-7.767-7.768-7.767h-16.498v54.964c0 8.023-6.548 14.57-14.57 14.57h-54.965z" fill="#ffe6c1"/><path d="m7.512 315.387h166.254v24.265h-166.254z" fill="#ffd064"/></g><path d="m103.154 391.356h158.119c1.474-6.917 4.933-13.126 9.751-17.944 6.52-6.52 15.506-10.545 25.455-10.545 9.923 0 18.908 4.025 25.428 10.545 4.819 4.818 8.277 11.027 9.751 17.944h10.971v-44.222h-327.633v44.222h17.773c1.474-6.917 4.933-13.126 9.751-17.944 13.975-13.975 36.907-13.975 50.882 0 4.82 4.818 8.278 11.028 9.752 17.944zm341.748-99.072v21.005c0 4.139-3.373 7.512-7.512 7.512s-7.483-3.373-7.483-7.512v-21.005h-42.038v99.072h99.072v-32.571c0-4.139 3.345-7.483 7.483-7.483s7.512 3.345 7.512 7.483v32.571h2.58c4.139 0 7.483 3.345 7.483 7.483 0 4.139-3.345 7.512-7.483 7.512-57.63 0-115.258 0-172.859 0-1.474 6.917-4.932 13.097-9.751 17.915-6.52 6.52-15.505 10.545-25.428 10.545-9.949 0-18.935-4.025-25.455-10.545-4.818-4.818-8.277-10.998-9.751-17.915h-158.118c-1.474 6.917-4.932 13.097-9.751 17.915-6.52 6.52-15.505 10.545-25.427 10.545-9.95 0-18.936-4.025-25.456-10.545-4.819-4.818-8.277-10.998-9.751-17.915h-25.257c-4.139 0-7.512-3.373-7.512-7.512v-113.613c0-7.598 3.118-14.514 8.107-19.531 5.017-5.018 11.934-8.107 19.56-8.107h6.604v-172.888c0-4.139 3.345-7.512 7.484-7.512h155.198c19.56 0 36.028 14.938 50.089 38.494 13.068 21.885 24.264 51.563 33.96 83.311 1.19 3.941-1.021 8.107-4.989 9.298-3.94 1.219-8.107-1.021-9.298-4.96-9.383-30.672-20.126-59.217-32.514-79.967-11.367-19.077-23.811-31.181-37.248-31.181h-117.468v165.402h36.397v-39.315c0-6.208 2.551-11.878 6.633-15.96 4.11-4.109 9.751-6.661 15.987-6.661s11.878 2.552 15.988 6.661c4.082 4.082 6.633 9.752 6.633 15.96v49.38h19.134c6.236 0 11.878 2.552 15.988 6.634 4.082 4.109 6.633 9.75 6.633 15.986s-2.551 11.879-6.633 15.989c-3.884 3.854-9.156 6.35-14.967 6.604v19.275h62.618l-31.182-85.664-8.107 2.977c-3.883 1.389-8.192-.624-9.581-4.479-1.417-3.884.595-8.192 4.479-9.581l15.137-5.528c5.018-1.898 10.12-3.685 15.165-5.527 3.884-1.389 8.165.624 9.582 4.508 1.389 3.883-.595 8.163-4.479 9.58l-8.136 2.948 33.052 90.767h39.516c-1.502-6.321-2.948-12.558-4.45-19.049-5.471-23.528-11.707-50.344-18.936-77.33-1.077-3.997 1.304-8.107 5.301-9.156 3.997-1.077 8.079 1.305 9.155 5.301 7.201 26.845 13.522 54.029 19.05 77.841 1.899 8.107 3.686 15.817 5.244 22.393h27.922v-247.439c0-4.139 3.345-7.512 7.512-7.512h30.217c4.14 0 7.513 3.373 7.513 7.512v98.788h86.288c4.139 0 7.483 3.346 7.483 7.484v29.906c0 4.167-3.345 7.512-7.483 7.512-4.14 0-7.513-3.345-7.513-7.512v-22.395h-31.89v15.96c0 4.139-3.345 7.483-7.512 7.483-4.139 0-7.483-3.345-7.483-7.483v-15.96h-31.891v78.804h78.775v-22.422c0-4.139 3.373-7.512 7.513-7.512 4.139 0 7.483 3.373 7.483 7.512v22.422h12.784c4.139 0 7.512 3.346 7.512 7.483v40.055c0 4.139-3.373 7.512-7.512 7.512s-7.483-3.373-7.483-7.512v-32.542h-42.039zm-278.62 20.609h-42.888c-4.139 0-7.512-3.373-7.512-7.512v-32.798c-29.396 0-58.82 0-88.215 0-3.487 0-6.634 1.417-8.93 3.713-2.296 2.297-3.742 5.471-3.742 8.93v46.914h151.287zm-22.394-99.981c-1.389-1.389-3.288-2.239-5.386-2.239-2.069 0-3.997.851-5.357 2.239-1.389 1.391-2.268 3.29-2.268 5.358v79.626h49.38c2.098 0 3.997-.879 5.386-2.269 1.389-1.36 2.24-3.287 2.24-5.357 0-2.098-.851-3.996-2.24-5.385-1.389-1.39-3.288-2.24-5.386-2.24h-26.645c-4.139 0-7.484-3.345-7.484-7.483v-56.892c-.001-2.068-.879-3.967-2.24-5.358zm-79.399-120.727h-15.222v165.402h15.222zm293.134 299.171h15.222c0-99.725 0-199.448 0-299.172h-15.222zm-46.318-7.342c-3.798-3.799-9.042-6.123-14.826-6.123-5.81 0-11.055 2.324-14.853 6.123-3.77 3.8-6.123 9.044-6.123 14.826 0 5.812 2.353 11.056 6.123 14.825 3.799 3.799 9.043 6.151 14.853 6.151 5.784 0 11.028-2.353 14.826-6.151 3.771-3.77 6.123-9.014 6.123-14.825 0-5.782-2.353-11.026-6.123-14.826zm-228.504 0c-3.798-3.799-9.043-6.123-14.825-6.123-5.811 0-11.056 2.324-14.826 6.123-3.798 3.8-6.151 9.044-6.151 14.826 0 5.812 2.353 11.056 6.151 14.825 3.77 3.799 9.014 6.151 14.826 6.151 5.783 0 11.027-2.353 14.825-6.151 3.798-3.77 6.122-9.014 6.122-14.825.001-5.782-2.323-11.026-6.122-14.826z"/></g></svg>