<svg id="Capa_1" enable-background="new 0 0 512 512" height="512" viewBox="0 0 512 512" width="512" xmlns="http://www.w3.org/2000/svg"><g><g clip-rule="evenodd" fill-rule="evenodd"><path d="m75.289 482.548h361.422v-101.681h-361.422zm260.961-67.777h53.859c4.28 0 7.767 4.054 7.767 9.014v15.818c0 4.988-3.486 9.042-7.767 9.042h-53.859c-4.28 0-7.767-4.054-7.767-9.042v-15.818c0-4.961 3.487-9.014 7.767-9.014zm-107.179 0h53.858c4.279 0 7.767 4.054 7.767 9.014v15.818c0 4.988-3.487 9.042-7.767 9.042h-53.858c-4.28 0-7.768-4.054-7.768-9.042v-15.818c.001-4.961 3.488-9.014 7.768-9.014zm-107.18 0h53.859c4.28 0 7.767 4.054 7.767 9.014v15.818c0 4.988-3.486 9.042-7.767 9.042h-53.859c-4.28 0-7.767-4.054-7.767-9.042v-15.818c0-4.961 3.486-9.014 7.767-9.014z" fill="#0079a2"/><path d="m53.944 504.517h404.111c4.28 0 7.767-3.515 7.767-7.767v-13.606c0-4.253-3.486-7.767-7.767-7.767h-404.111c-4.28 0-7.767 3.514-7.767 7.767v13.606c.001 4.252 3.487 7.767 7.767 7.767z" fill="#174b67"/><path d="m92.269 320.065c9.354 0 17.009 7.653 17.009 17.008v26.674h-33.989v-26.674c0-9.355 7.654-17.008 16.98-17.008z" fill="#d57080"/><path d="m419.731 320.065c9.325 0 16.979 7.653 16.979 17.008v26.674h-33.959v-26.674c.001-9.355 7.626-17.008 16.98-17.008z" fill="#d57080"/><path d="m53.944 388.012h404.111c4.28 0 7.767-3.488 7.767-7.768v-13.578c0-4.281-3.486-7.768-7.767-7.768h-404.111c-4.28 0-7.767 3.486-7.767 7.768v13.578c.001 4.279 3.487 7.768 7.767 7.768z" fill="#174b67"/><path d="m75.289 475.377h361.422v-87.365h-24.265v43.682c0 10.687-8.731 19.417-19.418 19.417h-317.739z" fill="#0c5e7f"/><path d="m303.085 180.371c0 5.414-2.127 9.666-5.812 12.926l-35.462 31.438c-3.911 3.486-7.823 3.373-11.621 0l-35.462-31.438c-3.742-3.316-5.812-7.568-5.812-12.926v-88.329c0-4.28 3.487-7.767 7.769-7.767h78.633c4.281 0 7.769 3.486 7.769 7.767v88.329z" fill="#d57080"/><path d="m303.085 180.371c0 5.414-2.127 9.666-5.812 12.926l-35.462 31.438c-3.911 3.486-7.823 3.373-11.621 0l-14.712-13.041 37.53-32.967c3.686-3.231 5.811-7.483 5.811-12.897v-81.555h16.498c4.281 0 7.769 3.486 7.769 7.767v88.329z" fill="#cb5769"/><path d="m256 181.59c10.573 0 19.162-8.617 19.162-19.162 0-10.573-8.589-19.162-19.162-19.162-10.545 0-19.162 8.589-19.162 19.162 0 10.545 8.617 19.162 19.162 19.162z" fill="#ffe07d"/></g><path d="m109.277 512c-4.168 0-7.513-3.345-7.513-7.483s3.345-7.512 7.513-7.512h349.062v-14.116c-134.901 0-269.776 0-404.678 0v14.116h21.628c4.139 0 7.512 3.373 7.512 7.512s-3.373 7.483-7.512 7.483h-29.111c-4.14 0-7.513-3.345-7.513-7.483v-29.14c0-4.139 3.373-7.485 7.513-7.485h21.6v-72.368h-21.6c-4.14 0-7.513-3.345-7.513-7.512v-29.113c0-4.139 3.373-7.482 7.513-7.482h21.6v-14.344c0-6.746 2.778-12.869 7.2-17.32 4.422-4.422 10.545-7.171 17.291-7.171 4.848 0 9.354 1.417 13.153 3.826l113.473-109.419-14.911-13.238c-1.616-1.417-2.551-3.458-2.551-5.612v-103.864c0-4.139 3.345-7.483 7.482-7.483h13.494v-69.28c0-4.139 3.374-7.512 7.512-7.512 4.139 0 7.483 3.373 7.483 7.512v69.28h37.191v-69.28c0-4.139 3.345-7.512 7.483-7.512 4.167 0 7.512 3.373 7.512 7.512v69.28h13.494c4.138 0 7.482 3.345 7.482 7.483v34.951c0 4.139-3.345 7.512-7.482 7.512-4.14 0-7.514-3.373-7.514-7.512v-27.439c-26.39 0-52.753 0-79.143 0v93.034c13.181 11.679 26.39 23.386 39.571 35.094 13.182-11.708 26.391-23.415 39.571-35.094v-31.607c0-4.167 3.374-7.512 7.514-7.512 4.138 0 7.482 3.345 7.482 7.512v34.923c0 2.466-1.19 4.677-3.032 6.038l-14.43 12.812 113.473 109.419c3.799-2.409 8.306-3.826 13.153-3.826 6.746 0 12.869 2.749 17.291 7.171 4.45 4.451 7.2 10.574 7.2 17.32v14.344h21.6c4.168 0 7.513 3.344 7.513 7.482v29.113c0 4.167-3.345 7.512-7.513 7.512h-21.6v72.368h21.6c4.168 0 7.513 3.347 7.513 7.485v29.14c0 4.139-3.345 7.483-7.513 7.483h-356.543zm5.726-184.027c1.134 2.807 1.757 5.868 1.757 9.1v14.344h222.892c4.139 0 7.483 3.344 7.483 7.482 0 4.139-3.345 7.512-7.483 7.512-95.33 0-190.66 0-285.99 0v14.117h404.678v-14.118c-28.233 0-56.494 0-84.728 0-4.139 0-7.483-3.373-7.483-7.512s3.345-7.482 7.483-7.482h21.63v-14.344c0-3.232.623-6.293 1.757-9.1l-115.118-111.033-20.92 18.539c-2.892 2.551-7.172 2.466-9.95-.028l-20.892-18.511zm121.835-206.337c-4.139 0-7.512-3.373-7.512-7.512s3.373-7.483 7.512-7.483h38.324c4.139 0 7.512 3.345 7.512 7.483 0 4.139-3.373 7.512-7.512 7.512zm19.162 14.118c7.37 0 14.031 2.977 18.851 7.823 4.847 4.819 7.823 11.48 7.823 18.851 0 7.37-2.977 14.031-7.823 18.851-4.819 4.818-11.48 7.823-18.851 7.823-7.37 0-14.031-3.005-18.851-7.823-4.818-4.819-7.823-11.48-7.823-18.851 0-7.37 3.005-14.031 7.823-18.851 4.82-4.847 11.481-7.823 18.851-7.823zm8.249 18.425c-2.098-2.126-5.018-3.43-8.249-3.43s-6.151 1.304-8.249 3.43c-2.126 2.098-3.43 5.018-3.43 8.249s1.304 6.151 3.43 8.248c2.098 2.098 5.018 3.431 8.249 3.431s6.151-1.333 8.249-3.431c2.126-2.097 3.43-5.017 3.43-8.248 0-3.232-1.304-6.152-3.43-8.249zm145.986 197.237h18.992v-14.344c0-2.608-1.077-4.989-2.807-6.719-1.729-1.7-4.082-2.777-6.689-2.777-2.608 0-4.989 1.077-6.69 2.777-1.728 1.73-2.806 4.11-2.806 6.719zm-327.434 0h18.964v-14.344c0-2.608-1.077-4.989-2.806-6.719-1.701-1.7-4.082-2.777-6.69-2.777-2.579 0-4.96 1.077-6.689 2.777-1.729 1.73-2.778 4.11-2.778 6.719v14.344zm31.323 58.224h69.393c4.139 0 7.513 3.373 7.513 7.512v29.112c0 4.139-3.374 7.512-7.513 7.512h-69.393c-4.139 0-7.512-3.373-7.512-7.512v-29.112c0-4.139 3.373-7.512 7.512-7.512zm61.881 14.996h-54.397v14.116h54.397zm152.478-14.996h69.393c4.139 0 7.512 3.373 7.512 7.512v29.112c0 4.139-3.373 7.512-7.512 7.512h-69.393c-4.139 0-7.484-3.373-7.484-7.512v-29.112c0-4.139 3.346-7.512 7.484-7.512zm61.91 14.996h-54.398v14.116h54.398zm-169.089-14.996h69.393c4.139 0 7.513 3.373 7.513 7.512v29.112c0 4.139-3.374 7.512-7.513 7.512h-69.393c-4.139 0-7.513-3.373-7.513-7.512v-29.112c0-4.139 3.374-7.512 7.513-7.512zm61.909 14.996h-54.397v14.145h54.397zm-200.412 43.256h346.427v-72.368h-346.427z"/></g></svg>