<svg id="Capa_1" enable-background="new 0 0 512 512" height="512" viewBox="0 0 512 512" width="512" xmlns="http://www.w3.org/2000/svg"><g><g clip-rule="evenodd" fill-rule="evenodd"><path d="m466.305 309.519 11.481 11.48c3.004 3.005 3.004 7.909.057 10.914l-6.775 6.775c8.136 11.424 13.776 24.69 16.185 39.09h9.496c4.252 0 7.768 3.487 7.768 7.767v16.214c0 4.28-3.516 7.768-7.768 7.768h-9.496c-2.409 14.4-8.05 27.666-16.185 39.09l6.719 6.69c2.976 3.089 3.032 7.937 0 10.998l-11.481 11.48c-3.005 3.005-7.909 3.005-10.942.057l-6.746-6.775c-11.424 8.136-24.689 13.776-39.09 16.186v9.497c0 4.252-3.486 7.767-7.767 7.767h-16.215c-4.281 0-7.768-3.515-7.768-7.767v-9.497c-14.399-2.41-27.666-8.05-39.09-16.186l-6.69 6.718c-3.033 3.005-7.966 3.005-10.999 0l-11.48-11.48c-3.004-3.033-3.004-7.965 0-10.998l6.719-6.69c-8.136-11.424-13.776-24.69-16.186-39.09h-9.497c-4.252 0-7.768-3.487-7.768-7.768v-16.214c0-4.28 3.516-7.767 7.768-7.767h9.497c2.409-14.4 8.05-27.667 16.186-39.09l-6.719-6.69c-3.004-3.033-3.004-7.965 0-10.999l11.48-11.48c3.033-3.005 7.966-3.005 10.999 0l6.69 6.718c11.424-8.136 24.69-13.776 39.09-16.186v-9.496c0-4.252 3.486-7.767 7.768-7.767h16.215c4.28 0 7.767 3.515 7.767 7.767v9.496c14.4 2.41 27.666 8.05 39.09 16.186l6.689-6.718c3.089-2.977 7.936-3.062 10.998 0z" fill="#0c5e7f"/><path d="m466.305 309.519 11.481 11.48c3.004 3.005 3.004 7.909.057 10.914l-6.775 6.775c8.136 11.424 13.776 24.69 16.185 39.09h9.496c4.252 0 7.768 3.487 7.768 7.767v16.214c0 4.28-3.516 7.768-7.768 7.768h-9.496c-2.409 14.4-8.05 27.666-16.185 39.09l6.719 6.69c2.976 3.089 3.032 7.937 0 10.998l-11.481 11.48c-3.005 3.005-7.909 3.005-10.942.057l-6.746-6.775c-11.424 8.136-24.689 13.776-39.09 16.186v9.497c0 4.252-3.486 7.767-7.767 7.767h-16.215c-4.281 0-7.768-3.515-7.768-7.767v-9.497c-14.399-2.41-27.666-8.05-39.09-16.186l-6.69 6.718c-3.033 3.005-7.966 3.005-10.999 0l-11.48-11.48c-3.004-3.033-3.004-7.965 0-10.998l6.719-6.69c-.453-.651-.907-1.275-1.332-1.928 15.392 10.886 34.185 17.264 54.481 17.264 52.215 0 94.565-42.35 94.565-94.565 0-20.296-6.378-39.09-17.263-54.483.652.425 1.275.879 1.928 1.332l6.689-6.718c3.09-2.977 7.937-3.062 10.999 0z" fill="#174b67"/><path d="m118.348 229.212c61.059 0 110.864-49.805 110.864-110.864s-49.805-110.836-110.864-110.836c-61.059 0-110.836 49.777-110.836 110.836s49.777 110.864 110.836 110.864z" fill="#faf8f9"/><path d="m183.659 28.772c27.61 20.183 45.553 52.782 45.553 89.576 0 61.229-49.635 110.864-110.864 110.864-36.794 0-69.393-17.943-89.576-45.553 18.34 13.38 40.904 21.289 65.311 21.289 61.229 0 110.865-49.635 110.865-110.865 0-24.406-7.909-46.971-21.289-65.311z" fill="#ede9fb"/><path d="m118.348 137.255c10.432 0 18.907-8.476 18.907-18.907 0-10.403-8.476-18.908-18.907-18.908-10.403 0-18.908 8.504-18.908 18.908 0 10.432 8.505 18.907 18.908 18.907z" fill="#5ac7ff"/><path d="m393.652 445.64c28.63 0 51.987-23.357 51.987-51.988 0-28.63-23.357-51.988-51.987-51.988-28.631 0-51.988 23.358-51.988 51.988s23.358 51.988 51.988 51.988z" fill="#ffe07d"/><path d="m416.216 346.823c17.405 8.39 29.424 26.221 29.424 46.829 0 28.715-23.272 51.988-51.987 51.988-20.608 0-38.438-12.019-46.857-29.423 6.831 3.316 14.513 5.159 22.592 5.159 28.716 0 51.988-23.273 51.988-51.988-.001-8.08-1.843-15.762-5.16-22.565z" fill="#ffd064"/></g><path d="m447.624 306.599 7.88-7.88c2.92-2.92 7.683-2.92 10.602 0l22.48 22.478c2.919 2.92 2.919 7.683 0 10.602l-7.881 7.88c2.92 4.677 5.471 9.638 7.597 14.797 2.098 5.074 3.827 10.347 5.074 15.79h11.141c4.139 0 7.483 3.373 7.483 7.512v31.749c0 4.139-3.345 7.512-7.483 7.512h-11.141c-1.247 5.443-2.977 10.715-5.074 15.789-2.126 5.159-4.677 10.12-7.597 14.797l7.881 7.881c2.919 2.919 2.919 7.682 0 10.602l-22.48 22.479c-2.919 2.92-7.682 2.92-10.602 0l-7.88-7.88c-4.677 2.92-9.638 5.471-14.797 7.597-5.074 2.098-10.347 3.827-15.789 5.074v11.14c0 4.139-3.373 7.484-7.512 7.484h-31.749c-4.139 0-7.512-3.345-7.512-7.484v-11.14c-5.414-1.247-10.715-2.977-15.789-5.074-5.159-2.126-10.12-4.677-14.797-7.597l-7.88 7.88c-2.92 2.92-7.683 2.92-10.602 0l-22.479-22.479c-2.92-2.92-2.92-7.682 0-10.602l7.881-7.881c-2.92-4.677-5.442-9.638-7.598-14.797-2.098-5.074-3.799-10.346-5.074-15.789h-11.141c-4.139 0-7.483-3.373-7.483-7.512v-31.749c0-4.139 3.345-7.512 7.483-7.512h11.141c1.275-5.442 2.977-10.715 5.074-15.79 2.155-5.159 4.678-10.12 7.598-14.797l-7.881-7.88c-2.92-2.919-2.92-7.682 0-10.602l22.479-22.478c2.919-2.92 7.682-2.92 10.602 0l7.88 7.88c4.677-2.92 9.638-5.443 14.797-7.597 5.074-2.098 10.347-3.798 15.789-5.074v-11.14c0-4.139 3.373-7.484 7.512-7.484h31.749c4.139 0 7.512 3.345 7.512 7.484v11.14c5.442 1.275 10.715 2.976 15.789 5.074 5.159 2.154 10.12 4.677 14.797 7.597zm-65.057 94.565c-4.166 0-7.512-3.373-7.512-7.512s3.346-7.512 7.512-7.512h22.169c4.166 0 7.512 3.373 7.512 7.512s-3.346 7.512-7.512 7.512zm11.085-67.012c16.441 0 31.295 6.661 42.066 17.433s17.433 25.654 17.433 42.066c0 16.441-6.661 31.295-17.433 42.066-10.772 10.772-25.625 17.434-42.066 17.434-16.413 0-31.296-6.662-42.067-17.434-10.771-10.771-17.433-25.625-17.433-42.066 0-16.413 6.661-31.294 17.433-42.066 10.771-10.771 25.654-17.433 42.067-17.433zm31.465 28.036c-8.051-8.051-19.19-13.012-31.465-13.012-12.274 0-23.415 4.96-31.466 13.012-8.05 8.05-13.011 19.19-13.011 31.464s4.961 23.415 13.011 31.465c8.051 8.051 19.191 13.011 31.466 13.011 12.274 0 23.414-4.96 31.465-13.011 8.05-8.05 13.011-19.191 13.011-31.465s-4.961-23.414-13.011-31.464zm40.677-114.04c2.808-3.062 7.541-3.231 10.574-.454 3.033 2.807 3.231 7.541.453 10.573l-19.276 20.864c-2.749 3.004-7.427 3.232-10.459.51l-20.268-16.413c-3.203-2.608-3.685-7.313-1.077-10.517 2.608-3.203 7.314-3.713 10.517-1.105l7.257 5.896c-1.786-16.299-5.641-31.976-11.311-46.772-7.823-20.523-19.134-39.317-33.165-55.645-2.692-3.146-2.324-7.852.822-10.545 3.118-2.693 7.852-2.324 10.545.822 15.165 17.66 27.354 37.928 35.802 60.01 6.123 16.044 10.289 33.053 12.189 50.769zm-210.134-158.941c-4.139 0-7.484-3.345-7.484-7.483 0-4.139 3.345-7.512 7.484-7.512 24.094 0 47.254 4.224 68.826 11.934 22.309 8.022 42.803 19.786 60.719 34.555 3.203 2.608 3.656 7.314 1.02 10.517-2.608 3.175-7.314 3.628-10.518 1.02-16.611-13.691-35.604-24.604-56.268-32.003-19.871-7.144-41.329-11.028-63.779-11.028zm-195.196 189.329c-2.806 3.061-7.541 3.26-10.602.453-3.033-2.807-3.232-7.541-.425-10.574l19.248-20.834c2.778-3.033 7.427-3.26 10.488-.539l20.268 16.441c3.203 2.608 3.685 7.314 1.077 10.517-2.607 3.203-7.313 3.685-10.517 1.077l-7.256-5.896c1.786 16.3 5.641 31.975 11.282 46.8 7.852 20.495 19.134 39.289 33.194 55.617 2.693 3.146 2.324 7.88-.822 10.545-3.146 2.693-7.852 2.325-10.545-.793-15.165-17.66-27.383-37.928-35.83-60.039-6.123-16.016-10.29-33.052-12.161-50.769zm210.106 158.94c4.139 0 7.512 3.345 7.512 7.483 0 4.168-3.373 7.512-7.512 7.512-24.066 0-47.254-4.224-68.797-11.934-22.309-7.994-42.804-19.786-60.747-34.555-3.175-2.608-3.628-7.313-1.021-10.517 2.608-3.175 7.342-3.628 10.517-1.02 16.639 13.692 35.631 24.605 56.296 32.032 19.843 7.115 41.302 10.999 63.752 10.999zm-195.649-348.807c-3.033-2.806-3.231-7.54-.425-10.573 2.806-3.062 7.541-3.26 10.573-.454l19.701 18.085c3.969-2.409 8.618-3.77 13.579-3.77 4.706 0 9.099 1.219 12.926 3.374l32.769-31.976c2.977-2.891 7.71-2.806 10.573.142 2.892 2.977 2.835 7.711-.142 10.574l-32.769 31.947c1.956 3.686 3.062 7.881 3.062 12.331 0 7.313-2.948 13.89-7.739 18.68s-11.367 7.739-18.68 7.739c-7.285 0-13.89-2.948-18.652-7.739-4.791-4.791-7.739-11.367-7.739-18.68 0-4.167.964-8.107 2.693-11.594zm51.506 21.629c-2.069-2.069-4.904-3.345-8.079-3.345-3.146 0-5.981 1.275-8.05 3.345-2.069 2.069-3.346 4.904-3.346 8.05 0 3.175 1.276 6.009 3.346 8.079 2.069 2.069 4.904 3.345 8.05 3.345 3.175 0 6.01-1.276 8.079-3.345s3.345-4.904 3.345-8.079c0-3.146-1.276-5.981-3.345-8.05zm-66.077 93.601 4.394-7.625c2.069-3.572 6.633-4.791 10.205-2.75 3.572 2.069 4.79 6.633 2.749 10.205l-4.422 7.654c11.48 5.584 24.179 9.099 37.588 10.063v-8.816c0-4.139 3.345-7.483 7.483-7.483 4.167 0 7.512 3.345 7.512 7.483v8.816c13.408-.964 26.08-4.479 37.588-10.063l-4.422-7.654c-2.069-3.571-.822-8.135 2.75-10.205 3.572-2.041 8.136-.822 10.205 2.75l4.394 7.625c5.414-3.657 10.46-7.852 15.08-12.445 4.593-4.621 8.788-9.666 12.445-15.08l-7.625-4.394c-3.572-2.069-4.791-6.633-2.75-10.205 2.069-3.572 6.633-4.819 10.205-2.75l7.654 4.422c5.584-11.509 9.099-24.18 10.063-37.588h-8.816c-4.139 0-7.483-3.345-7.483-7.512 0-4.139 3.345-7.483 7.483-7.483h8.816c-.964-13.408-4.479-26.079-10.063-37.588l-7.654 4.422c-3.572 2.041-8.135.822-10.205-2.749-2.041-3.572-.822-8.135 2.75-10.205l7.625-4.394c-3.657-5.414-7.852-10.46-12.445-15.08-4.62-4.592-9.666-8.788-15.08-12.473l-4.394 7.625c-2.069 3.6-6.633 4.819-10.205 2.778-3.572-2.069-4.819-6.633-2.75-10.205l4.422-7.654c-11.508-5.585-24.18-9.1-37.588-10.064v8.816c0 4.139-3.345 7.483-7.512 7.483-4.139 0-7.483-3.345-7.483-7.483v-8.816c-13.409.964-26.079 4.479-37.588 10.064l4.422 7.654c2.041 3.572.822 8.135-2.749 10.205-3.572 2.041-8.135.822-10.205-2.778l-4.394-7.625c-5.414 3.685-10.46 7.88-15.08 12.473-4.592 4.621-8.787 9.666-12.473 15.08l7.625 4.394c3.6 2.069 4.819 6.633 2.778 10.205-2.069 3.572-6.633 4.79-10.205 2.749l-7.654-4.422c-5.585 11.48-9.1 24.18-10.063 37.588h8.816c4.139 0 7.483 3.345 7.483 7.483 0 4.167-3.345 7.512-7.483 7.512h-8.816c.963 13.408 4.478 26.079 10.063 37.588l7.654-4.422c3.572-2.069 8.135-.822 10.205 2.75 2.041 3.572.794 8.135-2.778 10.205l-7.625 4.394c3.685 5.414 7.88 10.46 12.473 15.08 4.621 4.593 9.666 8.788 15.08 12.445zm57.998-203.899c32.684 0 62.278 13.238 83.708 34.668 21.401 21.43 34.668 50.996 34.668 83.68s-13.267 62.278-34.668 83.708c-21.43 21.402-51.024 34.668-83.708 34.668s-62.25-13.267-83.68-34.668c-21.43-21.43-34.668-51.024-34.668-83.708s13.238-62.25 34.668-83.68c21.43-21.43 50.996-34.668 83.68-34.668zm342.457 314.649-6.888 6.889v-.028c-2.552 2.551-6.604 2.976-9.638.822-5.329-3.799-11.056-6.974-17.149-9.497-5.812-2.409-11.963-4.224-18.369-5.329-3.798-.396-6.718-3.6-6.718-7.455v-9.751h-16.781v9.751c0 3.6-2.608 6.775-6.266 7.37-6.576 1.105-12.869 2.948-18.822 5.414-5.924 2.438-11.509 5.528-16.724 9.185-2.948 2.438-7.314 2.268-10.064-.482l-6.888-6.889-11.85 11.849 6.889 6.888c2.522 2.523 2.948 6.633.794 9.638-3.799 5.329-6.974 11.055-9.496 17.15-2.41 5.812-4.224 11.962-5.329 18.398-.397 3.77-3.6 6.689-7.455 6.689h-9.753v16.781h9.753c3.6 0 6.774 2.608 7.37 6.265 1.105 6.576 2.947 12.869 5.414 18.822 2.438 5.924 5.527 11.509 9.184 16.725 2.439 2.948 2.269 7.314-.481 10.064l-6.889 6.888 11.85 11.849 6.888-6.888c2.523-2.523 6.633-2.919 9.638-.793 5.329 3.798 11.056 7.001 17.149 9.496 5.812 2.409 11.963 4.224 18.397 5.329 3.77.396 6.69 3.6 6.69 7.455v9.751h16.781v-9.751c0-3.572 2.607-6.775 6.265-7.37 6.576-1.105 12.869-2.948 18.822-5.414 5.924-2.438 11.509-5.528 16.724-9.185 2.948-2.438 7.314-2.268 10.064.482l6.888 6.888 11.851-11.849-6.89-6.888c-2.522-2.523-2.92-6.605-.794-9.638 3.8-5.329 7.003-11.055 9.497-17.15 2.41-5.811 4.224-11.962 5.329-18.368.397-3.799 3.6-6.719 7.455-6.719h9.752v-16.781h-9.752c-3.571 0-6.774-2.608-7.369-6.265-1.106-6.576-2.948-12.869-5.415-18.822-2.438-5.924-5.527-11.509-9.185-16.725-2.439-2.948-2.269-7.314.481-10.063l6.89-6.888z"/></g></svg>