<svg id="Capa_1" enable-background="new 0 0 512 512" height="512" viewBox="0 0 512 512" width="512" xmlns="http://www.w3.org/2000/svg"><g><g clip-rule="evenodd" fill-rule="evenodd"><path d="m63.072 55.306h37.02c5.329 0 7.625-3.062 8.391-7.824 3.685-22.678 23.443-39.97 47.169-39.97 23.755 0 43.427 17.349 47.169 40.056.964 5.81 3.09 7.738 8.391 7.738h44.788l14.57 215.265-215.264-14.571v-44.788c0-5.301 2.238-7.512 7.738-8.391 22.705-3.657 40.025-23.414 40.025-47.169 0-23.725-17.264-43.513-39.94-47.141-5.046-.822-7.823-3.09-7.823-8.419v-37.02c0-5.159 2.947-7.766 7.766-7.766z" fill="#95d6a4"/><path d="m231.735 55.306h24.265v200.694h-200.694v-24.265h176.429z" fill="#78c2a4"/><path d="m448.956 456.724h-37.049c-5.329 0-7.625 3.061-8.391 7.795-3.685 22.706-23.415 39.998-47.141 39.998-23.783 0-43.455-17.376-47.169-40.083-.963-5.811-3.118-7.71-8.391-7.71h-44.815l-14.542-215.266 215.266 14.542v44.816c0 5.301-2.24 7.484-7.768 8.391-22.705 3.657-40.025 23.414-40.025 47.169 0 23.698 17.264 43.513 39.94 47.141 5.046.795 7.853 3.062 7.853 8.391v37.049c0 5.159-2.949 7.767-7.768 7.767z" fill="#61a2f9"/><path d="m456.724 63.072v37.02c0 5.329 3.061 7.625 7.795 8.391 22.706 3.686 39.998 23.443 39.998 47.169 0 23.755-17.377 43.428-40.083 47.169-5.811.964-7.71 3.09-7.71 8.391v44.788h-200.724v-200.694h44.816c5.301 0 7.484 2.239 8.391 7.738 3.657 22.705 23.414 40.025 47.169 40.025 23.697 0 43.513-17.264 47.141-39.94.794-5.046 3.061-7.823 8.391-7.823h37.049c5.158 0 7.767 2.947 7.767 7.766z" fill="#d57080"/><path d="m456.724 63.072v37.02c0 5.329 3.061 7.625 7.795 8.391 22.706 3.686 39.998 23.443 39.998 47.169 0 23.755-17.377 43.428-40.083 47.169-5.811.964-7.71 3.09-7.71 8.391v44.788h-200.724v-24.265h152.194c13.351 0 24.265-10.913 24.265-24.265v-152.164h16.497c5.159 0 7.768 2.947 7.768 7.766z" fill="#cb5769"/><path d="m55.306 448.956v-37.049c0-5.328-3.062-7.625-7.824-8.391-22.678-3.685-39.97-23.415-39.97-47.141 0-23.782 17.349-43.455 40.055-47.169 5.812-.963 7.739-3.117 7.739-8.391v-44.815h200.694v200.724h-44.788c-5.301 0-7.512-2.24-8.391-7.768-3.657-22.705-23.414-40.025-47.169-40.025-23.725 0-43.513 17.264-47.141 39.941-.822 5.045-3.09 7.852-8.419 7.852h-37.02c-5.159 0-7.766-2.949-7.766-7.768z" fill="#ffe07d"/><path d="m108.512 448.872c.935-5.897 2.976-11.453 5.924-16.413h-59.13v16.497c0 4.819 2.607 7.768 7.767 7.768h37.02c5.329 0 7.596-2.807 8.419-7.852zm123.223-40.678v-41.868h24.265v66.133 24.265h-44.788c-5.301 0-7.512-2.24-8.391-7.768-.964-5.924-3.033-11.508-5.982-16.497h10.63c15.451 0 24.266-5.925 24.266-24.265z" fill="#ffd064"/><path d="m448.956 456.724h-37.049c-5.329 0-7.625 3.061-8.391 7.795-3.685 22.706-23.415 39.998-47.141 39.998-23.783 0-43.455-17.376-47.169-40.083-.963-5.811-3.118-7.71-8.391-7.71h-44.815v-24.265h157.041c10.687 0 19.418-8.732 19.418-19.417v-15.449c4.96 2.92 10.517 4.961 16.412 5.924 5.046.795 7.853 3.062 7.853 8.391v37.049c0 5.159-2.949 7.767-7.768 7.767zm-16.497-200.724h24.265v44.816c0 5.301-2.24 7.484-7.768 8.391-5.924.965-11.508 3.005-16.497 5.953z" fill="#5490f9"/><path d="m353.031 143.662 15.307 15.336c4.025 3.996 4.054 10.545.085 14.57l-9.014 9.042c10.828 15.25 18.368 32.996 21.6 52.187h12.672c5.697 0 10.347 4.677 10.347 10.375v21.685c0 5.698-4.649 10.347-10.347 10.347h-12.672c-3.231 19.22-10.771 36.965-21.6 52.188l8.929 8.957c3.997 4.11 4.082 10.602 0 14.684l-15.307 15.307c-4.025 4.025-10.573 4.054-14.599.086l-9.043-9.015c-15.222 10.828-32.968 18.368-52.186 21.601v12.671c0 5.697-4.648 10.347-10.347 10.347h-21.685c-5.698 0-10.375-4.649-10.375-10.347v-12.673c-19.191-3.232-36.937-10.772-52.187-21.601l-8.958 8.929c-4.025 4.054-10.63 4.054-14.654 0l-15.336-15.307c-4.025-4.054-4.025-10.658 0-14.684l8.957-8.957c-10.828-15.223-18.396-32.968-21.628-52.188h-12.643c-5.697 0-10.375-4.648-10.375-10.347v-21.685c0-5.698 4.678-10.375 10.375-10.375h12.643c3.232-19.191 10.8-36.937 21.628-52.187l-8.957-8.958c-4.025-4.024-4.025-10.629 0-14.654l15.336-15.336c4.025-4.025 10.629-4.025 14.654 0l8.958 8.957c15.25-10.828 32.996-18.396 52.187-21.628v-12.643c0-5.697 4.677-10.374 10.375-10.374h21.685c5.698 0 10.347 4.677 10.347 10.374v12.643c19.219 3.232 36.965 10.8 52.186 21.628l8.958-8.957c4.111-3.994 10.602-4.08 14.684.002z" fill="#0c5e7f"/><path d="m353.031 143.662 15.307 15.336c4.025 3.996 4.054 10.545.085 14.57l-9.014 9.042c10.828 15.25 18.368 32.996 21.6 52.187h12.672c5.697 0 10.347 4.677 10.347 10.375v21.685c0 5.698-4.649 10.347-10.347 10.347h-12.672c-3.231 19.22-10.771 36.965-21.6 52.188l8.929 8.957c3.997 4.11 4.082 10.602 0 14.684l-15.307 15.307c-4.025 4.025-10.573 4.054-14.599.086l-9.043-9.015c-15.222 10.828-32.968 18.368-52.186 21.601v12.671c0 5.697-4.648 10.347-10.347 10.347h-21.685c-5.698 0-10.375-4.649-10.375-10.347v-12.673c-19.191-3.232-36.937-10.772-52.187-21.601l-8.958 8.929c-4.025 4.054-10.63 4.054-14.654 0l-15.336-15.307c-4.025-4.054-4.025-10.658 0-14.684l8.249-8.249c21.798 17.717 49.577 28.318 79.824 28.318 69.96 0 126.682-56.722 126.682-126.682 0-30.246-10.602-58.026-28.318-79.824l8.249-8.249c4.111-3.995 10.602-4.081 14.684.001z" fill="#174b67"/><path d="m256 328.312c39.827 0 72.312-32.485 72.312-72.312s-32.485-72.312-72.312-72.312-72.312 32.485-72.312 72.312 32.485 72.312 72.312 72.312z" fill="#0079a2"/></g><path d="m100.461 263.512h-37.673v45.072c0 4.139-3.344 7.483-7.482 7.483-11.141 0-21.204 4.507-28.489 11.82-7.314 7.285-11.82 17.349-11.82 28.488 0 3.798.51 7.455 1.474 10.856.992 3.572 2.438 6.917 4.309 9.979 2.126 3.543 1.021 8.136-2.522 10.263-3.516 2.125-8.107 1.02-10.262-2.524-2.58-4.252-4.592-8.873-5.953-13.748-1.334-4.761-2.043-9.751-2.043-14.825 0-15.278 6.18-29.112 16.185-39.118 8.363-8.334 19.333-14.003 31.608-15.676v-98.137c0-4.139 3.344-7.512 7.512-7.512 11.111 0 21.174-4.508 28.488-11.793 7.284-7.285 11.791-17.376 11.791-28.488 0-11.14-4.507-21.203-11.791-28.489-7.314-7.284-17.377-11.791-28.488-11.791-4.168 0-7.512-3.374-7.512-7.513v-52.553c0-4.167 3.344-7.512 7.512-7.512h45.58c.228-1.531.483-3.062.822-4.593.907-4.055 2.24-7.909 3.94-11.51 1.758-3.713 6.236-5.329 9.978-3.571 3.714 1.786 5.33 6.236 3.572 9.978-1.275 2.665-2.239 5.472-2.892 8.335-.624 2.778-.936 5.727-.936 8.873 0 4.139-3.373 7.483-7.512 7.483h-45.069v38.069c12.274 1.672 23.273 7.37 31.607 15.703 10.006 10.007 16.186 23.812 16.186 39.091 0 15.251-6.18 29.084-16.186 39.09-8.334 8.334-19.333 14.031-31.607 15.704v38.07h37.673v-3.345c0-4.933 2.013-9.383 5.244-12.643 3.231-3.231 7.71-5.244 12.643-5.244h6.491c1.701-7.795 4.083-15.365 7.088-22.621 3.061-7.398 6.774-14.457 11.026-21.118l-4.592-4.593c-6.945-6.944-6.945-18.311 0-25.256l15.336-15.336c3.486-3.486 8.05-5.216 12.642-5.216 4.564 0 9.156 1.73 12.614 5.216l4.592 4.592c6.662-4.252 13.721-7.965 21.119-11.026 7.256-3.005 14.825-5.387 22.649-7.116v-6.463c0-4.933 1.984-9.411 5.216-12.643 3.231-3.231 7.71-5.244 12.643-5.244h3.345v-37.671h-45.071c-4.139 0-7.513-3.345-7.513-7.483 0-11.141-4.507-21.204-11.792-28.489-7.285-7.314-17.376-11.82-28.488-11.82-2.92 0-5.697.311-8.334.85-2.721.567-5.386 1.446-7.937 2.552-3.771 1.673-8.192-.028-9.864-3.827-1.674-3.769.057-8.191 3.826-9.864 3.43-1.53 7.087-2.693 10.914-3.515 3.741-.767 7.539-1.193 11.394-1.193 15.251 0 29.084 6.18 39.09 16.187 8.334 8.362 14.031 19.332 15.704 31.607h98.138c4.139 0 7.483 3.345 7.483 7.512 0 11.111 4.507 21.175 11.82 28.488 7.285 7.285 17.348 11.792 28.488 11.792 11.111 0 21.175-4.507 28.489-11.792 7.284-7.313 11.792-17.377 11.792-28.488 0-4.167 3.345-7.512 7.483-7.512h52.583c4.139 0 7.483 3.345 7.483 7.512v45.581c2.126.283 4.195.708 6.266 1.247 4.592 1.162 8.929 2.891 12.869 5.074 3.628 1.984 4.961 6.548 2.977 10.176-1.984 3.601-6.549 4.933-10.177 2.948-2.977-1.644-6.124-2.892-9.355-3.741-3.147-.794-6.52-1.219-10.062-1.219-4.139 0-7.512-3.374-7.512-7.513v-45.07h-38.07c-1.672 12.273-7.342 23.272-15.675 31.606-10.007 10.006-23.841 16.186-39.091 16.186-15.278 0-29.112-6.18-39.118-16.186-8.334-8.334-14.003-19.333-15.676-31.606h-38.07v37.672h3.345c4.904 0 9.383 2.013 12.614 5.244 3.374 3.374 5.216 7.881 5.216 12.643v6.463c7.824 1.729 15.394 4.111 22.679 7.116 7.398 3.061 14.456 6.774 21.09 11.026l4.592-4.592c3.316-3.288 8.021-5.216 12.699-5.216 4.535 0 9.07 1.73 12.586 5.216l15.307 15.336c3.459 3.43 5.188 7.965 5.216 12.529 0 4.535-1.673 9.099-5.074 12.557l-4.733 4.763c4.28 6.633 7.965 13.691 11.026 21.118 3.005 7.256 5.415 14.826 7.116 22.621h6.491c4.904 0 9.383 2.013 12.614 5.244 3.232 3.26 5.244 7.71 5.244 12.643v3.345h37.673v-45.071c0-4.139 3.373-7.512 7.512-7.512 11.111 0 21.204-4.508 28.489-11.793s11.791-17.376 11.791-28.488c0-2.438-.197-4.818-.623-7.143-.426-2.354-1.049-4.649-1.843-6.832-1.417-3.883.567-8.164 4.45-9.609 3.884-1.417 8.192.567 9.609 4.451 1.105 3.032 1.984 6.179 2.552 9.41.567 3.175.851 6.436.851 9.723 0 15.251-6.18 29.084-16.185 39.09-8.334 8.334-19.333 14.031-31.608 15.704v98.138c0 4.139-3.345 7.483-7.483 7.483-11.141 0-21.203 4.507-28.488 11.82-7.285 7.285-11.793 17.349-11.793 28.488 0 11.112 4.508 21.175 11.793 28.489 7.285 7.285 17.348 11.792 28.488 11.792 4.139 0 7.483 3.345 7.483 7.483v52.583c0 4.139-3.345 7.483-7.483 7.483h-45.582c-.141.936-.283 1.843-.453 2.778-.652 3.431-1.615 6.719-2.834 9.865-1.503 3.855-5.84 5.754-9.695 4.252-3.855-1.503-5.754-5.839-4.252-9.694.907-2.324 1.616-4.735 2.069-7.201.454-2.353.681-4.847.681-7.483 0-4.139 3.345-7.512 7.483-7.512h45.071v-38.069c-12.246-1.673-23.244-7.342-31.578-15.676-10.007-10.007-16.215-23.84-16.215-39.091 0-15.278 6.208-29.112 16.215-39.118 8.334-8.334 19.332-14.003 31.578-15.676v-38.07h-37.673v3.345c0 4.904-2.013 9.383-5.244 12.615-3.203 3.23-7.682 5.215-12.614 5.215h-6.491c-1.701 7.824-4.082 15.394-7.116 22.679-3.062 7.398-6.746 14.457-11.026 21.09l4.592 4.592c3.316 3.316 5.244 8.021 5.244 12.671 0 4.564-1.729 9.099-5.244 12.614l-15.307 15.307c-3.459 3.459-7.994 5.188-12.558 5.216-4.536 0-9.1-1.673-12.586-5.102l-4.706-4.705c-6.661 4.28-13.719 7.965-21.117 11.027-7.285 3.033-14.854 5.415-22.679 7.115v6.491h.028c0 4.904-2.013 9.383-5.244 12.614-3.231 3.232-7.71 5.244-12.614 5.244h-3.345v37.673h45.072c4.139 0 7.483 3.373 7.483 7.512 0 11.111 4.507 21.204 11.82 28.489 7.285 7.285 17.348 11.792 28.488 11.792 3.373 0 6.604-.398 9.638-1.134 3.203-.794 6.236-1.956 9.07-3.459 3.657-1.928 8.193-.51 10.121 3.146 1.899 3.657.511 8.192-3.148 10.092-3.911 2.069-8.079 3.656-12.444 4.734-4.309 1.076-8.73 1.615-13.237 1.615-15.278 0-29.112-6.18-39.118-16.185-8.334-8.334-14.003-19.332-15.676-31.608h-98.137c-4.139 0-7.513-3.345-7.513-7.483 0-11.141-4.507-21.203-11.792-28.488s-17.376-11.792-28.488-11.792c-11.14 0-21.203 4.507-28.489 11.792-7.285 7.285-11.792 17.348-11.792 28.488 0 4.139-3.373 7.483-7.512 7.483h-52.552c-4.168 0-7.512-3.345-7.512-7.483v-45.609c-3.203-.453-6.38-1.162-9.47-2.154-3.939-1.248-6.094-5.471-4.847-9.383 1.275-3.94 5.471-6.123 9.412-4.848 2.013.652 4.053 1.135 6.094 1.475 1.928.283 4.054.453 6.322.453 4.139 0 7.482 3.345 7.482 7.483v45.071h38.07c1.672-12.246 7.369-23.244 15.703-31.578 10.007-10.006 23.812-16.215 39.091-16.215 15.251 0 29.084 6.209 39.09 16.215 8.334 8.334 14.031 19.332 15.704 31.578h38.07v-37.673h-3.345c-4.933 0-9.383-2.013-12.643-5.244-3.345-3.345-5.216-7.88-5.216-12.614v-6.491c-7.824-1.7-15.394-4.082-22.649-7.115-7.428-3.062-14.485-6.747-21.119-11.027l-4.592 4.592c-3.486 3.486-8.05 5.244-12.614 5.244-4.592 0-9.155-1.758-12.642-5.244l-15.336-15.307c-3.486-3.486-5.216-8.079-5.216-12.642 0-4.592 1.73-9.156 5.216-12.643l4.592-4.592c-4.252-6.633-7.965-13.691-11.026-21.09-3.005-7.285-5.387-14.854-7.116-22.679h-6.463c-4.933 0-9.411-1.984-12.643-5.215-3.231-3.232-5.244-7.711-5.244-12.615v-3.344zm155.539-87.336c22.054 0 42.01 8.957 56.439 23.386 14.457 14.457 23.386 34.414 23.386 56.439 0 22.054-8.929 42.01-23.386 56.44-14.429 14.456-34.385 23.385-56.439 23.385-22.025 0-41.981-8.929-56.439-23.385-14.429-14.43-23.386-34.386-23.386-56.44 0-22.024 8.957-41.981 23.386-56.439 14.458-14.429 34.414-23.386 56.439-23.386zm45.837 33.987c-11.736-11.707-27.922-18.964-45.837-18.964-17.887 0-34.101 7.257-45.837 18.964-11.707 11.736-18.964 27.95-18.964 45.837 0 17.915 7.257 34.101 18.964 45.838 11.736 11.734 27.95 18.992 45.837 18.992 17.915 0 34.101-7.258 45.837-18.992 11.735-11.737 18.992-27.923 18.992-45.838 0-17.887-7.257-34.101-18.992-45.837zm61.2-45.864-15.336-15.336c-1.076-1.077-2.749-1.077-3.911-.142l-9.1 9.071c-2.522 2.551-6.604 2.977-9.638.821-7.229-5.159-15.08-9.524-23.386-12.954-8.25-3.43-16.867-5.896-25.683-7.37-3.544-.595-6.236-3.685-6.236-7.398v-12.643c0-.794-.368-1.502-.879-2.041-.538-.51-1.247-.821-2.013-.821h-21.685c-1.56 0-2.892 1.275-2.892 2.862v12.19c.227 3.77-2.438 7.2-6.265 7.852-8.957 1.503-17.546 3.997-25.683 7.37-8.136 3.373-15.817 7.625-22.961 12.643-2.919 2.438-7.314 2.268-10.062-.482l-8.958-8.957c-1.105-1.105-2.947-1.105-4.053 0l-15.336 15.336c-1.105 1.134-1.105 2.947 0 4.053l8.957 8.958c2.552 2.522 2.948 6.604.794 9.638-5.159 7.257-9.524 15.08-12.954 23.386-3.316 7.995-5.783 16.441-7.313 25.258-.368 3.77-3.571 6.718-7.455 6.718h-12.643c-1.56 0-2.863 1.304-2.863 2.863v21.685c0 1.531 1.304 2.892 2.863 2.892h12.189c3.771-.255 7.2 2.409 7.853 6.236 1.503 8.958 3.997 17.547 7.37 25.683s7.625 15.817 12.643 22.961c2.438 2.948 2.268 7.314-.482 10.064l-8.957 8.957c-1.105 1.105-1.105 2.977 0 4.054l15.336 15.335c1.076 1.105 2.976 1.105 4.081.029l8.845-8.873c2.551-2.607 6.661-3.062 9.723-.879 7.257 5.159 15.08 9.496 23.386 12.955 8.25 3.4 16.896 5.867 25.683 7.369 3.544.567 6.265 3.657 6.265 7.371v12.671c0 1.531 1.332 2.863 2.892 2.863h21.685c1.56 0 2.892-1.305 2.892-2.863v-12.218c-.255-3.77 2.409-7.2 6.236-7.824 8.957-1.53 17.575-4.025 25.683-7.369 8.306-3.459 16.13-7.796 23.357-12.955 2.92-2.098 7.03-1.842 9.638.766l9.015 9.014c1.134 1.105 2.919 1.049 4.024-.057l15.336-15.335c1.077-1.077 1.077-2.75.142-3.912l-9.099-9.099c-2.523-2.523-2.92-6.605-.766-9.639 5.131-7.229 9.496-15.08 12.954-23.386 3.401-8.25 5.896-16.867 7.37-25.683.596-3.543 3.656-6.236 7.37-6.236h12.672c1.531 0 2.863-1.36 2.863-2.892v-21.685c0-1.56-1.305-2.863-2.863-2.863h-12.672c-3.6 0-6.774-2.607-7.37-6.292-1.53-8.958-4.025-17.547-7.37-25.684-3.458-8.277-7.795-16.101-12.954-23.357-2.098-2.92-1.843-7.001.766-9.638l8.985-8.986c1.104-1.135 1.104-2.921-.03-4.055z"/></g></svg>