<svg id="Capa_1" enable-background="new 0 0 512 512" height="512" viewBox="0 0 512 512" width="512" xmlns="http://www.w3.org/2000/svg"><g><g clip-rule="evenodd" fill-rule="evenodd"><path d="m438.879 73.249v423.501c0 4.252-3.487 7.767-7.767 7.767h-350.224c-4.28 0-7.767-3.515-7.767-7.767v-423.501c0-4.706 1.899-8.873 6.718-11.65l33.62-19.39c7.002-4.055 16.044-1.645 20.098 5.358 4.025 7.029 1.616 16.072-5.386 20.098l-25.626 14.797h306.911l-25.626-14.797c-7.002-4.025-9.411-13.068-5.386-20.098 4.054-7.003 13.096-9.413 20.098-5.358l33.62 19.39c4.308 2.494 6.717 6.717 6.717 11.65z" fill="#61a2f9"/><path d="m110.284 439.092h110.552l36.596-7.966 33.732 7.966h110.524c4.281 0 7.768-3.486 7.768-7.767v-348.863h-306.912v348.863c0 4.28 3.487 7.767 7.74 7.767z" fill="#0c5e7f"/><path d="m110.284 439.092h110.552l36.596-7.966 33.732 7.966h110.524c4.281 0 7.768-3.486 7.768-7.767v-348.863h-24.266v303.254c0 16.016-13.096 29.111-29.112 29.111h-253.534v16.498c0 4.28 3.487 7.767 7.74 7.767z" fill="#174b67"/><path d="m220.836 439.092c-8.334-4.763-18.51-13.493-25.144-20.268-35.32-36.029-42.038-80.193-20.608-126.059 2.211-4.733 4.734-9.411 7.144-14.06 1.786-3.459 3.146-4.706 4.337-4.564 1.219.113 2.239 1.729 3.373 3.912 1.021 1.928 1.928 3.799 3.062 5.697 1.672 2.665 14.202 21.771 16.951 19.759 1.531-1.105.851-7.484.907-9.497.227-7.71 1.814-16.979 3.458-24.52 2.551-11.225 6.406-22.224 12.019-32.258 10.489-18.284 23.443-29.851 42.719-38.298 1.701-.736 10.262-5.131 10.885-1.871.34 1.729-2.296 6.549-3.004 8.561-3.119 8.874-5.075 20.015-4.905 29.425.284 11.169 3.345 20.976 10.829 29.424 12.897 15.307 17.206 31.861 14.031 51.564-1.757 10.941 3.345 4.848 7.03.283 1.673-2.126 3.289-4.224 4.876-6.406 4.394-6.265 7.398-12.7 9.496-20.042 1.445-5.669 1.899-8.391 1.814-14.229-.085-8.929 1.956-7.739 6.293-1.276 10.8 16.186 18.709 31.183 23.188 50.288 1.956 8.277 3.033 16.725 3.316 25.228 1.021 43.087-23.641 72.029-61.739 89.207-23.471 0-46.857 0-70.328 0z" fill="#d57080"/><path d="m220.836 439.092c-8.334-4.763-18.51-13.493-25.144-20.268-25.172-25.682-35.831-55.531-32.088-87.166 2.778 22.592 13.436 43.88 32.088 62.901 29.396 29.99 88.952 30.103 122.033 4.592 18.992-14.628 31.493-34.102 34.498-58.989.34 3.231.567 6.463.68 9.723 1.021 43.087-23.641 72.029-61.739 89.207-23.471 0-46.857 0-70.328 0z" fill="#cb5769"/><path d="m228.745 439.092c-4.082-9.666-7.087-23.697-7.909-34.016-2.466-35.065 11.849-59.699 45.667-71.207 1.814-.624 7.257-2.607 6.718 1.105-.255 1.898-1.786 5.158-2.381 7.398-1.842 7.256-2.438 16.157-1.389 23.556.936 5.726 2.92 10.771 6.662 15.251l.396.453c15.591 17.718 21.714 46.772 6.747 57.459h-54.511z" fill="#fff0af"/><g fill="#fed1a3"><path d="m129.417 215.862 23.443-16.414c3.487-2.438 8.362-1.587 10.8 1.9l16.413 23.443c2.438 3.486 1.587 8.362-1.928 10.8l-23.414 16.412c-3.487 2.439-8.363 1.588-10.801-1.898l-16.413-23.443c-2.465-3.487-1.586-8.362 1.9-10.8z"/><path d="m156.092 92.212 9.78-26.872c1.446-4.024 5.924-6.095 9.95-4.648l26.872 9.779c4.025 1.474 6.095 5.952 4.649 9.95l-9.779 26.872c-1.474 4.024-5.953 6.122-9.95 4.648l-26.873-9.779c-4.026-1.474-6.123-5.952-4.649-9.95z"/><path d="m330.793 207.811-7.398-27.609c-1.105-4.11 1.389-8.391 5.5-9.496l27.638-7.428c4.11-1.105 8.391 1.39 9.497 5.5l7.398 27.638c1.105 4.11-1.361 8.391-5.5 9.496l-27.61 7.399c-4.139 1.105-8.42-1.362-9.525-5.5z"/><path d="m260.294 163.277-21.912-18.396c-3.26-2.721-3.686-7.653-.936-10.941l18.369-21.884c2.749-3.289 7.682-3.714 10.941-.965l21.913 18.37c3.26 2.75 3.685 7.682.964 10.941l-18.397 21.912c-2.749 3.26-7.654 3.713-10.942.963z"/><path d="m287.082 7.512h28.602c4.252 0 7.767 3.487 7.767 7.768v28.574c0 4.28-3.515 7.767-7.767 7.767h-28.602c-4.28 0-7.767-3.486-7.767-7.767v-28.575c0-4.28 3.487-7.767 7.767-7.767z"/></g><path d="m414.615 51.479v399.631c0 6.123-1.899 11.793-5.159 16.498-5.245 7.626-14.061 12.644-23.953 12.644h-312.382v16.498c0 4.252 3.486 7.767 7.767 7.767h350.225c4.28 0 7.767-3.515 7.767-7.767v-423.501c0-4.933-2.41-9.156-6.718-11.65z" fill="#5490f9"/><path d="m291.306 412.673c-22.309 7.087-48.332 6.803-69.79-1.53 1.304 9.298 3.883 20.069 7.229 27.949h54.511c7.54-5.386 9.722-15.478 8.05-26.419z" fill="#ffe07d"/></g><path d="m416.967 82.462v152.846c0 4.139-3.373 7.512-7.512 7.512s-7.484-3.373-7.484-7.512v-145.334h-190.15l-9.893 27.184c-1.417 3.884-5.698 5.867-9.581 4.478l-41.471-15.108c-3.884-1.389-5.897-5.698-4.479-9.581l2.551-6.973h-38.92v341.635h88.272c-2.919-2.58-5.641-5.188-7.938-7.54-18.709-19.077-29.877-40.395-33.59-63.129-3.742-22.847.142-46.913 11.537-71.349 1.899-4.025 7.852-16.555 10.942-19.728 2.466-2.523 5.159-3.459 8.022-3.176 2.892.283 5.046 1.729 6.832 3.969 1.02 1.247 1.786 2.551 2.495 3.94 1.021 1.956 3.997 6.944 7.314 11.877.17-1.56.368-3.146.567-4.733 1.531-10.801 4.081-21.714 7.88-31.947 5.782-15.533 14.626-29.849 27.043-40.962 7.597-6.803 16.299-12.217 26.645-16.752 3.062-1.332 5.839-2.721 9.184-3.402 5.868-1.162 10.744.199 12.076 6.945.879 4.535-1.899 8.504-3.316 12.501-1.446 4.082-2.608 8.731-3.402 13.438-1.474 8.815-1.814 18.17 1.219 26.73 4.762 13.492 16.129 18.992 21.316 38.381 1.304 4.791 2.013 9.695 2.211 14.798.822-1.445 1.587-2.891 2.296-4.366 2.154-4.535 4.053-10.205 4.733-15.279.227-1.757.312-3.6.284-6.122-.113-9.667 2.806-13.861 8.873-13.946 4.139-.029 7.512 3.117 11.083 8.447 3.543 5.328 6.803 10.545 9.751 15.846 2.977 5.301 5.613 10.715 7.965 16.441 1.559 3.827-.283 8.164-4.11 9.724-3.798 1.559-8.164-.284-9.723-4.082-2.041-5.018-4.45-9.922-7.2-14.827-.935-1.672-1.899-3.373-2.919-5.074-1.219 5.357-2.835 10.263-5.216 15.252-3.26 6.917-6.775 11.735-11.424 17.519-2.325 2.891-5.159 6.32-8.164 7.738-8.901 4.28-14.655 2.268-12.076-13.89 1.418-8.788 1.191-16.81-.822-24.294-4.536-16.895-15.705-22.394-20.977-37.276-3.883-10.941-3.742-22.875-1.871-34.186.68-3.996 1.587-7.966 2.664-11.679-7.342 3.543-13.635 7.653-19.105 12.558-10.573 9.468-18.086 21.799-23.018 35.037-3.43 9.269-5.669 18.991-7.058 28.799-.51 3.657-.879 7.258-.964 10.404-.17 5.642 1.021 12.87-5.046 16.017-4.195 2.211-8.362.651-12.331-3.232-1.899-1.871-3.996-4.45-6.066-7.285-3.062-4.167-6.18-9.043-8.504-12.841-1.559 3.004-3.118 6.037-4.536 9.042-10.12 21.629-13.578 42.775-10.318 62.618 3.204 19.643 13.011 38.24 29.481 55.05 4.933 5.046 10.46 9.864 16.129 14.089-6.038-23.613-6.69-50.373 6.945-71.576 6.86-10.716 33.251-32.882 48.7-30.699 5.301.765 8.844 3.656 7.852 10.658-.425 2.976-1.814 5.386-2.523 8.163-.851 3.289-1.39 6.889-1.588 10.488-.34 5.471-.113 11.282 2.069 16.385 1.786 4.167 5.188 7.314 7.767 10.971 6.86 9.554 11.424 21.118 12.614 31.776.539 4.564.425 9.015-.34 13.152 13.805-7.682 25.172-17.234 33.194-28.855 8.447-12.218 13.323-26.846 13.606-44.108.085-4.989-.284-10.062-.907-14.996-.482-4.109 2.438-7.852 6.548-8.361 4.11-.511 7.852 2.438 8.333 6.548.709 5.669 1.077 11.452.964 17.178-.34 20.325-6.151 37.674-16.243 52.244-6.604 9.553-14.995 17.83-24.86 24.973h82.688v-162.318c0-4.167 3.345-7.513 7.484-7.513s7.512 3.346 7.512 7.513v169.797c0 4.139-3.373 7.512-7.512 7.512-102.304 0-204.607 0-306.911 0-4.167 0-7.512-3.373-7.512-7.512v-356.63c0-3.033 1.786-5.642 4.394-6.804l24.378-14.089c2.013-1.445 3.231-2.068 3.94-4.762.652-2.352.17-3.769-.879-5.81-.992-1.531-2.523-2.58-4.195-3.005-1.842-.511-3.827-.284-5.471.681l-36.59 21.117v165.518c0 4.139-3.345 7.512-7.483 7.512-4.139 0-7.512-3.373-7.512-7.512v-169.827c0-3.033 1.786-5.641 4.394-6.831l39.714-22.905c5.301-3.061 11.338-3.714 16.838-2.239 5.811 1.559 10.488 5.329 13.323 10.149 2.948 4.932 3.968 11.026 2.353 17.008-1.871 6.945-5.839 10.885-11.764 14.314h23.925l7.115-19.474c1.389-3.884 5.697-5.896 9.581-4.507l41.443 15.108c3.657 1.332 5.641 5.188 4.705 8.872h164.298c-5.896-3.43-9.893-7.342-11.764-14.314-1.616-6.038-.567-12.19 2.41-17.15 2.863-4.763 7.483-8.448 13.266-10.007 5.556-1.475 12.416-.736 17.235 2.467l39.912 23.046c2.325 1.332 3.799 3.799 3.799 6.463v439.035c0 4.139-3.373 7.483-7.512 7.483h-365.76c-4.139 0-7.512-3.345-7.512-7.483v-235.221c0-4.167 3.374-7.513 7.512-7.513s7.483 3.346 7.483 7.513v227.71h350.791v-427.215l-36.17-20.891c-3.685-1.843-7.739-1.588-10.148 2.125-1.984 3.657-1.219 8.023 2.494 10.177l25.002 14.457c2.75 1.247 4.366 3.884 4.394 6.804zm-306.939 394.927c0 4.167-3.345 7.512-7.484 7.512-4.167 0-7.512-3.345-7.512-7.512v-11.169c0-4.139 3.345-7.512 7.512-7.512 4.139 0 7.484 3.373 7.484 7.512zm306.939 0c0 4.167-3.373 7.512-7.512 7.512s-7.484-3.345-7.484-7.512v-11.169c0-4.139 3.345-7.512 7.484-7.512s7.512 3.373 7.512 7.512zm-38.381 0c0 4.167-3.345 7.512-7.484 7.512-4.138 0-7.512-3.345-7.512-7.512v-11.169c0-4.139 3.374-7.512 7.512-7.512 4.139 0 7.484 3.373 7.484 7.512zm-38.354 0c0 4.167-3.345 7.512-7.512 7.512-4.139 0-7.483-3.345-7.483-7.512v-11.169c0-4.139 3.345-7.512 7.483-7.512 4.167 0 7.512 3.373 7.512 7.512zm-38.381 0c0 4.167-3.345 7.512-7.484 7.512-4.138 0-7.512-3.345-7.512-7.512v-11.169c0-4.139 3.374-7.512 7.512-7.512 4.139 0 7.484 3.373 7.484 7.512zm-38.353 0c0 4.167-3.345 7.512-7.512 7.512-4.139 0-7.483-3.345-7.483-7.512v-11.169c0-4.139 3.345-7.512 7.483-7.512 4.167 0 7.512 3.373 7.512 7.512zm-38.353 0c0 4.167-3.373 7.512-7.512 7.512s-7.512-3.345-7.512-7.512v-11.169c0-4.139 3.373-7.512 7.512-7.512 4.138 0 7.512 3.373 7.512 7.512zm-38.382 0c0 4.167-3.345 7.512-7.512 7.512-4.139 0-7.483-3.345-7.483-7.512v-11.169c0-4.139 3.345-7.512 7.483-7.512 4.167 0 7.512 3.373 7.512 7.512zm-38.353 0c0 4.167-3.374 7.512-7.512 7.512-4.139 0-7.512-3.345-7.512-7.512v-11.169c0-4.139 3.374-7.512 7.512-7.512s7.512 3.373 7.512 7.512zm130.905-477.389h44.136c4.139 0 7.484 3.373 7.484 7.512v44.108c0 4.167-3.345 7.512-7.484 7.512h-44.136c-4.139 0-7.512-3.345-7.512-7.512v-44.108c0-4.139 3.373-7.512 7.512-7.512zm36.624 14.996h-29.112v29.141h29.112zm-54.482 158.997-33.818-28.347c-3.175-2.664-3.6-7.37-.935-10.545l28.375-33.818c2.636-3.175 7.37-3.571 10.545-.936l33.79 28.376c3.175 2.636 3.6 7.37.936 10.545l-28.347 33.789c-2.666 3.175-7.4 3.601-10.546.936zm-18.454-35.009 22.337 18.738 18.737-22.338-22.337-18.737zm82.575 78.267-11.424-42.607c-1.077-3.996 1.304-8.106 5.301-9.184l42.634-11.424c3.997-1.049 8.107 1.304 9.156 5.301l11.423 42.633c1.077 3.997-1.304 8.107-5.301 9.156l-42.605 11.425c-3.997 1.077-8.107-1.304-9.184-5.3zm4.988-39.261 7.54 28.147 28.148-7.54-7.54-28.148zm-130.168-100.376-27.412-9.979c-3.316 9.128-6.633 18.256-9.978 27.411l27.411 9.978c3.346-9.155 6.662-18.283 9.979-27.41zm-81.61 136.575 36.142-25.314c3.374-2.354 8.05-1.531 10.403 1.842l25.313 36.144c2.353 3.401 1.531 8.051-1.843 10.402l-36.142 25.314c-3.402 2.352-8.051 1.53-10.404-1.844l-25.313-36.141c-2.38-3.372-1.53-8.05 1.844-10.403zm38.58-8.789-23.896 16.754 16.725 23.896 23.924-16.725zm73.672 215.976c.822 3.571 1.786 7.058 2.863 10.232h46.574c3.374-3.572 4.394-9.496 3.629-16.129-.907-8.221-4.507-17.207-9.922-24.746-3.713-5.217-6.406-6.946-9.326-13.778-3.146-7.342-3.742-15.25-3.288-23.131.227-3.656.708-7.256 1.389-10.602-11.877 5.047-20.58 12.076-26.277 20.949-10.772 16.781-10.035 38.41-5.642 57.205z"/></g></svg>