<svg id="Capa_1" enable-background="new 0 0 512 512" height="512" viewBox="0 0 512 512" width="512" xmlns="http://www.w3.org/2000/svg"><g><g clip-rule="evenodd" fill-rule="evenodd"><path d="m432.121 33.562h44.164c4.252 0 7.767 3.516 7.767 7.768v54.369c0 4.28-3.515 7.767-7.767 7.767h-44.164c-4.281 0-7.767-3.486-7.767-7.767v-54.369c0-4.252 3.486-7.768 7.767-7.768z" fill="#ffe07d"/><path d="m432.121 137.426h44.164c4.252 0 7.767 3.516 7.767 7.768v54.368c0 4.28-3.515 7.767-7.767 7.767h-44.164c-4.281 0-7.767-3.486-7.767-7.767v-54.368c0-4.253 3.486-7.768 7.767-7.768z" fill="#95d6a4"/><path d="m87.991 504.517c-33.166 0-60.039-26.901-60.039-60.039v-376.899c-.425-33.053 27.298-60.067 60.039-60.067l19.418 204.947z" fill="#0c5e7f"/><path d="m87.991 7.512h343.62c5.329 0 7.767 2.807 7.767 7.768v400.823l-351.386 9.723v-418.314z" fill="#d57080"/><path d="m342.346 120.729 12.415 12.416c3.26 3.261 3.289 8.562.086 11.821l-7.342 7.342c8.788 12.358 14.911 26.73 17.547 42.292h10.261c4.621 0 8.391 3.799 8.391 8.419v17.576c0 4.62-3.77 8.419-8.391 8.419h-10.261c-2.636 15.562-8.759 29.934-17.547 42.293l7.256 7.256c3.26 3.316 3.317 8.59 0 11.906l-12.415 12.417c-3.26 3.26-8.561 3.26-11.82.057l-7.342-7.315c-12.331 8.789-26.732 14.912-42.293 17.52v10.262c0 4.649-3.799 8.419-8.419 8.419h-17.575c-4.621 0-8.391-3.77-8.391-8.419v-10.262c-15.591-2.607-29.962-8.73-42.322-17.52l-7.257 7.259c-3.26 3.287-8.618 3.287-11.906 0l-12.416-12.417c-3.26-3.289-3.26-8.617 0-11.906l7.257-7.256c-8.787-12.359-14.91-26.73-17.518-42.293h-10.261c-4.621 0-8.419-3.799-8.419-8.419v-17.576c0-4.62 3.798-8.419 8.419-8.419h10.261c2.608-15.562 8.731-29.934 17.518-42.292l-7.257-7.258c-3.26-3.287-3.26-8.617 0-11.905l12.416-12.416c3.288-3.289 8.646-3.289 11.906 0l7.257 7.257c12.359-8.788 26.731-14.911 42.322-17.519v-10.29c0-4.62 3.77-8.391 8.391-8.391h17.575c4.621 0 8.419 3.771 8.419 8.391v10.29c15.562 2.607 29.962 8.73 42.293 17.519l7.257-7.257c3.345-3.233 8.589-3.317 11.905-.001zm-78.662 53.066c21.005 0 38.013 17.035 38.013 38.012 0 20.978-17.008 37.985-38.013 37.985-20.976 0-37.984-17.008-37.984-37.985-.001-20.977 17.008-38.012 37.984-38.012z" fill="#ede9fb"/><path d="m342.346 120.729 12.415 12.416c3.26 3.261 3.289 8.562.086 11.821l-7.342 7.342c8.788 12.358 14.911 26.73 17.547 42.292h10.261c4.621 0 8.391 3.799 8.391 8.419v17.576c0 4.62-3.77 8.419-8.391 8.419h-10.261c-2.636 15.562-8.759 29.934-17.547 42.293l7.256 7.256c3.26 3.316 3.317 8.59 0 11.906l-12.415 12.417c-3.26 3.26-8.561 3.26-11.82.057l-7.342-7.315c-12.331 8.789-26.732 14.912-42.293 17.52v10.262c0 4.649-3.799 8.419-8.419 8.419h-17.575c-4.621 0-8.391-3.77-8.391-8.419v-10.262c-15.591-2.607-29.962-8.73-42.322-17.52l-7.257 7.259c-3.26 3.287-8.618 3.287-11.906 0l-12.416-12.417c-3.26-3.289-3.26-8.617 0-11.906l7.172-7.171c16.838 11.99 37.418 19.049 59.642 19.049 56.835 0 102.899-46.064 102.899-102.898 0-22.225-7.058-42.832-19.049-59.643l7.172-7.171c3.345-3.233 8.589-3.317 11.905-.001z" fill="#e0dbee"/><path d="m87.991 504.517h343.62c5.159 0 7.767-2.835 7.767-7.767v-23.925l-351.386-9.724v41.416z" fill="#cb5769"/><path d="m87.991 472.825c-15.647 0-28.347-12.7-28.347-28.348 0-15.676 12.7-28.375 28.347-28.375h351.386v56.723z" fill="#faf8f9"/><path d="m386.001 391.839h-298.01v24.264h351.386v-208.775-69.902-33.96-69.904-18.283c0-4.961-2.438-7.768-7.767-7.768h-16.498v355.214c0 16.016-13.095 29.114-29.111 29.114z" fill="#cb5769"/><path d="m27.952 391.839v52.639c0 33.138 26.873 60.039 60.039 60.039v-31.691c-15.647 0-28.347-12.7-28.347-28.348 0-15.676 12.7-28.375 28.347-28.375v-24.264z" fill="#174b67"/></g><path d="m88.019 0h351.358c4.167 0 7.512 3.373 7.512 7.512v18.567h37.163c4.139 0 7.483 3.345 7.483 7.483v69.903c0 4.139-3.345 7.483-7.483 7.483h-37.163v18.993h37.163c4.139 0 7.483 3.345 7.483 7.483v69.902c0 4.139-3.345 7.513-7.483 7.513h-37.163v289.676c0 4.139-3.345 7.483-7.512 7.483h-351.358c-17.717 0-35.32-7.314-47.793-19.785-12.699-12.699-19.757-29.766-19.757-47.737v-376.811c-.198-17.547 6.548-34.669 19.786-47.822 12.359-12.245 30.246-19.843 47.764-19.843zm-.028 451.962c-4.139 0-7.512-3.346-7.512-7.484 0-4.166 3.374-7.512 7.512-7.512h343.903v-13.352h-343.903c-5.754 0-10.97 2.324-14.74 6.096-3.77 3.77-6.123 8.985-6.123 14.768 0 5.754 2.353 10.971 6.123 14.74 3.77 3.77 8.986 6.095 14.74 6.095h158.713c4.139 0 7.512 3.373 7.512 7.513 0 4.139-3.374 7.483-7.512 7.483h-151.201v16.696h336.391v-16.696h-151.23c-4.139 0-7.484-3.345-7.484-7.483 0-4.14 3.346-7.513 7.484-7.513h151.229v-13.351zm358.898-307.024v54.879h29.651v-54.879zm0-103.864v54.88h29.651v-54.88zm-366.41 438.469c-6.888-1.474-13.039-4.932-17.83-9.723-6.492-6.492-10.517-15.45-10.517-25.343 0-9.921 4.025-18.879 10.517-25.369 4.791-4.791 10.942-8.25 17.83-9.724v-180.596c0-4.139 3.374-7.484 7.512-7.484s7.512 3.346 7.512 7.484v179.832h336.391c0-131.219 0-262.407 0-393.624h-336.391v179.832c0 4.139-3.374 7.482-7.512 7.482-4.139 0-7.512-3.344-7.512-7.482v-179.294c-11.395 1.644-21.77 7.059-29.679 14.939-10.347 10.261-15.534 23.869-15.393 37.021v376.983c0 14.485 5.924 27.64 15.42 37.136 7.852 7.852 18.143 13.209 29.651 14.853v-16.923zm183.205-313.232c12.558 0 23.954 5.104 32.174 13.323 8.249 8.221 13.323 19.616 13.323 32.173 0 12.56-5.074 23.926-13.323 32.175-8.22 8.221-19.616 13.322-32.174 13.322-12.557 0-23.924-5.102-32.173-13.322-8.221-8.249-13.323-19.615-13.323-32.175 0-12.557 5.102-23.952 13.323-32.173 8.248-8.22 19.616-13.323 32.173-13.323zm21.572 23.924c-5.527-5.527-13.153-8.929-21.572-8.929s-16.044 3.401-21.571 8.929c-5.499 5.528-8.93 13.153-8.93 21.571 0 8.421 3.43 16.046 8.93 21.573 5.527 5.499 13.153 8.93 21.571 8.93 8.419 0 16.045-3.431 21.572-8.93 5.528-5.527 8.929-13.152 8.929-21.573 0-8.417-3.401-16.042-8.929-21.571zm62.391-74.806 12.415 12.415c3.062 3.062 4.621 7.116 4.621 11.17.028 4.053-1.475 8.078-4.479 11.168l-3.062 3.062c3.26 5.188 6.094 10.658 8.448 16.384 2.324 5.613 4.195 11.453 5.585 17.49h4.138c4.366 0 8.362 1.786 11.225 4.648 2.892 2.893 4.677 6.86 4.677 11.254v17.576c0 4.394-1.786 8.362-4.677 11.253-2.863 2.835-6.831 4.621-11.225 4.621h-4.138c-1.361 6.037-3.26 11.877-5.585 17.518-2.354 5.727-5.188 11.197-8.448 16.357l2.919 2.919c2.948 2.949 4.678 7.145 4.678 11.282 0 4.054-1.559 8.107-4.678 11.226l-12.415 12.417c-3.062 3.06-7.115 4.592-11.169 4.62s-8.107-1.474-11.197-4.536l-3.033-3.004c-5.188 3.231-10.659 6.066-16.385 8.447-5.612 2.324-11.48 4.195-17.518 5.584v4.11c0 4.393-1.757 8.362-4.621 11.253-2.891 2.892-6.86 4.678-11.254 4.678h-17.575c-4.365 0-8.362-1.786-11.225-4.678-3.005-2.977-4.649-7.001-4.649-11.253v-4.11c-6.038-1.389-11.877-3.26-17.49-5.584-5.754-2.381-11.225-5.216-16.413-8.447l-2.92 2.92c-3.09 3.09-7.143 4.648-11.225 4.648-4.054 0-8.136-1.531-11.254-4.648l-12.416-12.417c-3.089-3.118-4.648-7.172-4.648-11.254 0-4.224 1.644-8.248 4.648-11.254l2.92-2.919c-3.231-5.159-6.066-10.63-8.447-16.357-2.324-5.641-4.195-11.48-5.584-17.518h-4.11c-4.394 0-8.363-1.758-11.254-4.621-2.863-2.891-4.648-6.859-4.648-11.253v-17.576c0-4.393 1.786-8.361 4.648-11.254 2.892-2.862 6.861-4.648 11.254-4.648h4.11c1.389-6.037 3.26-11.877 5.584-17.49 2.381-5.726 5.216-11.196 8.447-16.355l-2.92-2.92c-3.089-3.117-4.648-7.172-4.648-11.253 0-4.082 1.559-8.164 4.648-11.255l12.416-12.415c3.118-3.119 7.2-4.649 11.254-4.649 4.082 0 8.164 1.53 11.253 4.649l2.92 2.919c5.188-3.26 10.658-6.065 16.356-8.447 5.641-2.324 11.48-4.224 17.519-5.584v-4.139c0-4.365 1.757-8.362 4.649-11.226 2.863-2.891 6.86-4.677 11.225-4.677h17.575c4.394 0 8.363 1.786 11.254 4.677 2.977 2.977 4.621 7.002 4.621 11.226v4.139c6.038 1.39 11.906 3.26 17.518 5.584 5.726 2.382 11.197 5.188 16.356 8.447l2.92-2.919c2.948-2.949 7.143-4.649 11.31-4.649 4.056-.002 8.081 1.529 11.199 4.648zm1.814 23.017-12.415-12.416c-.34-.341-.85-.341-1.219-.057l-7.342 7.286c-2.523 2.551-6.605 2.976-9.638.821-5.783-4.139-12.047-7.598-18.652-10.348s-13.493-4.705-20.551-5.896c-3.516-.596-6.236-3.686-6.236-7.37v-10.29c0-.481-.454-.907-.936-.907h-17.575c-.482 0-.936.426-.936.907v9.808c.255 3.799-2.409 7.229-6.236 7.853-7.171 1.219-14.031 3.203-20.523 5.896-6.463 2.665-12.586 6.039-18.255 10.036-2.948 2.438-7.313 2.268-10.063-.482l-7.257-7.257c-.34-.341-.935-.341-1.276 0l-12.444 12.416c-.34.341-.34.964 0 1.304l7.257 7.258c2.551 2.521 2.948 6.604.794 9.637-4.11 5.783-7.597 12.048-10.347 18.681-2.636 6.35-4.592 13.067-5.811 20.069-.397 3.77-3.572 6.719-7.455 6.719h-10.261c-.482 0-.907.425-.907.906v17.576c0 .481.397.935.907.935h9.779c3.798-.227 7.229 2.41 7.852 6.236 1.219 7.172 3.203 14.032 5.896 20.523 2.664 6.463 6.066 12.586 10.035 18.255 2.438 2.948 2.268 7.314-.482 10.064l-7.257 7.256c-.312.341-.34.965 0 1.305l12.444 12.417c.312.34.936.367 1.276.027l7.172-7.172c2.523-2.636 6.661-3.09 9.723-.907 5.783 4.139 12.047 7.597 18.681 10.347 6.605 2.75 13.493 4.706 20.523 5.896 3.543.596 6.236 3.686 6.236 7.37v10.262c0 .511.454.907.936.907h17.575c.482 0 .936-.397.936-.907v-9.78c-.228-3.798 2.438-7.228 6.236-7.852 7.171-1.219 14.031-3.203 20.551-5.896 6.604-2.722 12.841-6.208 18.624-10.318 2.92-2.098 7.03-1.843 9.638.765l7.314 7.286c.368.369.907.34 1.275-.027l12.415-12.417c.34-.34.34-.851.086-1.219l-7.342-7.342c-2.523-2.523-2.92-6.605-.794-9.639 4.139-5.782 7.625-12.047 10.347-18.68 2.749-6.576 4.706-13.493 5.896-20.523.595-3.543 3.686-6.236 7.399-6.236h10.261c.454 0 .907-.482.907-.935v-17.577c0-.481-.425-.906-.907-.906h-10.261c-3.6 0-6.775-2.608-7.399-6.266-1.19-7.172-3.203-14.031-5.896-20.523-2.721-6.633-6.208-12.869-10.318-18.651-2.097-2.92-1.842-7.002.766-9.639l7.285-7.285c.366-.368.366-.906-.031-1.304z"/></g></svg>