<svg id="Capa_1" enable-background="new 0 0 512 512" height="512" viewBox="0 0 512 512" width="512" xmlns="http://www.w3.org/2000/svg"><g><g clip-rule="evenodd" fill-rule="evenodd"><path d="m418.853 109.149 25.738 25.739c6.719 6.719 6.775 17.688.142 24.492l-15.165 15.164c18.198 25.569 30.841 55.362 36.283 87.593h21.261c9.553 0 17.405 7.852 17.405 17.404v18.198l-90.342 13.607-97.37-13.607c0-33.591-27.214-60.804-60.805-60.804s-60.804 27.213-60.804 60.804l-89.718 9.724-97.966-9.723v-18.198c0-9.553 7.824-17.404 17.405-17.404h21.231c5.442-32.23 18.114-62.023 36.312-87.593l-15.052-15.023c-6.747-6.774-6.747-17.857 0-24.633l25.738-25.739c6.775-6.746 17.859-6.746 24.634 0l15.024 15.052c25.569-18.198 55.361-30.869 87.591-36.312v-21.232c0-9.581 7.852-17.405 17.405-17.405h36.396c9.581 0 17.405 7.824 17.405 17.405v21.232c32.259 5.442 62.023 18.113 87.619 36.312l15.025-15.052c6.891-6.69 17.776-6.833 24.608-.001z" fill="#0079a2"/><path d="m418.853 109.149 25.738 25.739c6.719 6.719 6.775 17.688.142 24.492l-15.165 15.164c18.198 25.569 30.841 55.362 36.283 87.593h21.261c9.553 0 17.405 7.852 17.405 17.404v18.198h-61.117c0-116.902-94.764-211.665-211.665-211.665-3.798 0-7.568.113-11.338.312v-19.728c0-9.581 7.852-17.405 17.405-17.405h36.396c9.581 0 17.405 7.824 17.405 17.405v21.232c32.259 5.442 62.023 18.113 87.619 36.312l15.025-15.052c6.889-6.69 17.774-6.833 24.606-.001z" fill="#0c5e7f"/><path d="m504.517 455.009v-157.269h-497.005v157.269c0 4.252 3.486 7.767 7.767 7.767h481.47c4.252-.001 7.768-3.515 7.768-7.767z" fill="#ede9fb"/><path d="m504.517 455.009v-157.269h-24.265v111.63c0 16.016-13.126 29.141-29.142 29.141h-443.598v16.498c0 4.252 3.486 7.767 7.767 7.767h481.47c4.252-.001 7.768-3.515 7.768-7.767z" fill="#e0dbee"/><path d="m62.108 326.881h39.317c4.28 0 7.768 3.487 7.768 7.739v23.301c0 4.28-3.487 7.767-7.768 7.767h-39.317c-4.28 0-7.767-3.486-7.767-7.767v-23.301c0-4.252 3.487-7.739 7.767-7.739z" fill="#95d6a4"/><path d="m371.768 326.881h39.317c4.281 0 7.768 3.487 7.768 7.739v23.301c0 4.28-3.486 7.767-7.768 7.767h-39.317c-4.28 0-7.767-3.486-7.767-7.767v-23.301c0-4.252 3.486-7.739 7.767-7.739z" fill="#ffd064"/><path d="m115.485 394.829h39.317c4.28 0 7.767 3.486 7.767 7.767v23.272c0 4.28-3.487 7.768-7.767 7.768h-39.317c-4.252 0-7.767-3.487-7.767-7.768v-23.272c0-4.281 3.515-7.767 7.767-7.767z" fill="#d57080"/><path d="m391.186 394.829h39.316c4.252 0 7.767 3.486 7.767 7.767v23.272c0 4.28-3.515 7.768-7.767 7.768h-39.316c-4.28 0-7.768-3.487-7.768-7.768v-23.272c0-4.281 3.488-7.767 7.768-7.767z" fill="#5490f9"/><path d="m256 155.412c78.634 0 142.358 63.724 142.358 142.328h-81.554c0-33.591-27.214-60.804-60.805-60.804s-60.804 27.213-60.804 60.804h-81.525c.001-78.604 63.725-142.328 142.33-142.328z" fill="#0c5e7f"/><path d="m256 155.412c78.634 0 142.358 63.724 142.358 142.328h-24.267c0-74.522-57.287-135.667-130.224-141.818 3.998-.34 8.051-.51 12.133-.51z" fill="#174b67"/></g><path d="m497.005 305.253c-160.67 0-321.34 0-482.009 0v150.011h482.009zm-230.375-74.949c4.082.624 6.889 4.451 6.236 8.504-.624 4.082-4.422 6.889-8.504 6.266-2.75-.454-5.585-.625-8.362-.625-14.712 0-28.035 5.953-37.701 15.592-7.965 7.993-13.436 18.482-15.08 30.217h105.564c-.709-5.131-2.154-10.035-4.224-14.57-3.175-7.002-7.796-13.152-13.494-18.142-3.118-2.722-3.43-7.427-.708-10.545 2.721-3.118 7.427-3.43 10.546-.708 7.312 6.377 13.237 14.286 17.319 23.244 2.919 6.434 4.875 13.407 5.697 20.721h66.729c-1.871-34.271-16.526-65.111-39.289-87.875-24.406-24.378-58.111-39.487-95.358-39.487-37.219 0-70.952 15.109-95.358 39.487-22.734 22.764-37.39 53.604-39.289 87.875h66.756c1.729-15.874 8.901-30.104 19.588-40.818 12.359-12.359 29.452-20.014 48.303-20.014 3.599-.001 7.114.311 10.629.878zm-160.273 59.953c1.871-38.41 18.227-72.992 43.683-98.477 27.128-27.099 64.574-43.88 105.96-43.88 41.387 0 78.861 16.781 105.96 43.88 25.484 25.484 41.812 60.066 43.711 98.477h91.334v-10.715c0-2.721-1.107-5.188-2.92-6.973-1.786-1.814-4.28-2.92-6.974-2.92h-21.261c-3.6 0-6.774-2.608-7.37-6.266-2.608-15.42-6.916-30.217-12.699-44.22-5.924-14.287-13.437-27.781-22.28-40.253-2.098-2.92-1.871-7.002.766-9.638l15.108-15.109c1.899-1.955 2.835-4.507 2.835-7.029-.028-2.494-.992-5.018-2.92-6.945l-25.738-25.711c-1.928-1.956-4.422-2.892-6.917-2.892-2.522 0-5.329 1.049-7.086 2.892l-15.025 15.024c-2.551 2.523-6.633 2.92-9.638.794-4.139-2.949-8.447-5.784-12.982-8.505-4.478-2.693-9.015-5.216-13.55-7.512-3.685-1.843-5.159-6.35-3.316-10.035 1.871-3.685 6.378-5.158 10.063-3.316 5.017 2.551 9.893 5.216 14.541 8.022 2.892 1.757 5.783 3.6 8.675 5.527l10.63-10.63c4.593-4.592 11.197-7.257 17.689-7.257 6.321 0 12.643 2.382 17.518 7.257l25.738 25.739c4.791 4.791 7.2 11.141 7.257 17.49.028 6.32-2.324 12.67-7.059 17.518l-10.828 10.828c7.966 11.906 14.797 24.634 20.324 38.041 5.472 13.154 9.666 26.931 12.502 41.189h15.023c6.86 0 13.068 2.778 17.575 7.313 4.535 4.507 7.314 10.716 7.314 17.575v183.233c0 4.139-3.345 7.484-7.483 7.484h-497.005c-4.139 0-7.512-3.346-7.512-7.484v-183.231c0-6.859 2.807-13.068 7.313-17.575 4.507-4.535 10.744-7.313 17.604-7.313h15.023c2.806-14.258 7.03-28.034 12.473-41.189 5.556-13.407 12.388-26.135 20.325-38.012l-10.63-10.631c-9.666-9.693-9.666-25.539 0-35.234l25.739-25.739c4.848-4.848 11.226-7.257 17.604-7.257 6.633 0 12.955 2.579 17.632 7.257l10.63 10.63c11.878-7.937 24.605-14.769 38.013-20.324 13.153-5.442 26.93-9.667 41.216-12.501v-14.996c0-6.86 2.749-13.097 7.285-17.604 4.507-4.507 10.715-7.314 17.576-7.314h36.396c6.86 0 13.096 2.808 17.604 7.314 4.677 4.677 7.286 10.97 7.286 17.604v15.023c2.862.567 5.782 1.219 8.702 1.899 5.244 1.275 10.147 2.637 14.74 4.082 3.94 1.247 6.151 5.442 4.903 9.41-1.247 3.941-5.471 6.123-9.41 4.876-4.763-1.503-9.326-2.778-13.691-3.827-4.621-1.105-9.271-2.041-13.948-2.834-3.543-.596-6.235-3.686-6.235-7.398v-21.231c0-2.722-1.163-5.188-2.948-7.002-1.814-1.786-4.28-2.919-7.002-2.919h-36.396c-2.722 0-5.188 1.133-6.974 2.919-1.871 1.871-2.948 4.366-2.948 7.002v20.778c.227 3.798-2.438 7.199-6.236 7.852-15.421 2.58-30.218 6.889-44.221 12.699-14.145 5.84-27.496 13.238-39.856 21.997-2.948 2.438-7.313 2.268-10.063-.482l-15.023-15.024c-1.928-1.928-4.451-2.892-7.03-2.892-2.523 0-5.074.964-7.002 2.892l-25.71 25.711c-3.884 3.884-3.884 10.177 0 14.031l15.023 15.023c2.523 2.523 2.92 6.605.794 9.639-8.901 12.473-16.384 25.965-22.309 40.281-5.755 13.861-10.035 28.517-12.615 43.767-.397 3.77-3.6 6.719-7.483 6.719h-21.234c-2.722 0-5.188 1.105-7.002 2.92-1.786 1.785-2.919 4.252-2.919 6.973v10.715zm181.674 63.525c-4.139 0-7.483-3.345-7.483-7.512 0-4.139 3.345-7.483 7.483-7.483h68.458v-11.906c0-4.166 3.373-7.512 7.512-7.512h54.852c4.139 0 7.483 3.346 7.483 7.512v11.906h49.04c4.167 0 7.512 3.345 7.512 7.483 0 4.167-3.345 7.512-7.512 7.512h-49.04v11.905c0 4.139-3.345 7.512-7.483 7.512h-54.852c-4.139 0-7.512-3.373-7.512-7.512v-11.905zm-251.406 0c-4.139 0-7.512-3.345-7.512-7.512 0-4.139 3.373-7.483 7.512-7.483h10.205v-11.906c0-4.166 3.373-7.512 7.512-7.512h54.852c4.138 0 7.483 3.346 7.483 7.512v11.906h107.293c4.139 0 7.512 3.345 7.512 7.483 0 4.167-3.373 7.512-7.512 7.512h-107.294v11.905c0 4.139-3.345 7.512-7.483 7.512h-54.852c-4.139 0-7.512-3.373-7.512-7.512v-11.905zm0 67.947c-4.139 0-7.512-3.345-7.512-7.483 0-4.167 3.373-7.512 7.512-7.512h63.61v-11.905c0-4.139 3.345-7.512 7.484-7.512h54.851c4.139 0 7.512 3.373 7.512 7.512v11.905h53.887c4.139 0 7.512 3.345 7.512 7.512 0 4.139-3.373 7.483-7.512 7.483h-53.887v11.906c0 4.166-3.373 7.512-7.512 7.512h-54.851c-4.139 0-7.484-3.346-7.484-7.512v-11.906zm251.406 0c-4.139 0-7.483-3.345-7.483-7.483 0-4.167 3.345-7.512 7.483-7.512h87.875v-11.905c0-4.139 3.373-7.512 7.512-7.512h54.852c4.139 0 7.483 3.373 7.483 7.512v11.905h29.623c4.167 0 7.512 3.345 7.512 7.512 0 4.139-3.345 7.483-7.512 7.483h-29.623v11.906c0 4.166-3.345 7.512-7.483 7.512h-54.852c-4.139 0-7.512-3.346-7.512-7.512v-11.906zm142.727-19.417h-39.855v23.839h39.855zm-329.078-67.947h-39.856v23.839h39.856zm53.406 67.947h-39.856v23.839h39.856zm256.255-67.947h-39.856v23.839h39.856z"/></g></svg>