<svg id="Capa_1" enable-background="new 0 0 512 512" height="512" viewBox="0 0 512 512" width="512" xmlns="http://www.w3.org/2000/svg"><g><g clip-rule="evenodd" fill-rule="evenodd"><path d="m344.386 98.547 19.049-5.441c4.705-1.361 7.455.424 7.455 5.611v180.088l-144.342 4.848v-128.61h102.615c5.557 0 7.738-2.268 7.738-7.766v-38.837c0-5.075 2.382-8.448 7.485-9.893z" fill="#0c5e7f"/><path d="m197.407 203.571v-95.132c0-5.301 2.891-8.588 7.483-9.893l19.021-5.441c4.677-1.334 7.483.82 7.483 5.611v184.936l-90.285-4.848v-35.434c0-4.848 2.098-8.674 7.144-10.857l42.038-18.113c4.479-1.928 7.116-5.301 7.116-10.829z" fill="#da8993"/><path d="m370.89 278.805c17.207 8.986 33.223 19.928 47.793 32.542l-6.748 187.853h-396.656c-5.216 0-7.796-3.26-7.653-8.305 3.032-92.268 56.382-171.811 133.484-212.091h229.78z" fill="#b1e4f9"/><path d="m412.815 474.907-.879 24.293h-396.657c-5.216 0-7.796-3.26-7.653-8.305.198-5.357.538-10.688 1.049-15.988z" fill="#90d8f9"/><path d="m504.403 491.491c-2.297-71.944-34.952-136.18-85.721-180.172h-61.088c-28.318 0-51.449 23.158-51.449 51.447 0 28.292 23.131 51.45 51.449 51.45h7.653c5.329 0 5.612 2.24 3.147 6.18-4.96 7.965-7.908 17.32-7.908 27.355 0 28.29 23.16 51.448 51.449 51.448h84.814c4.195.001 7.824-1.727 7.654-7.708z" fill="#95d6a4"/><path d="m504.403 491.491c-2.268-71.718-34.782-135.811-85.324-179.805 33.165 37.984 54.965 86.175 60.011 139.212 1.445 15.023-10.488 24.009-23.104 24.009h-87.676c9.128 14.543 25.286 24.293 43.626 24.293h84.814c4.194 0 7.823-1.728 7.653-7.709z" fill="#78c2a4"/><path d="m113.67 450.19c25.229 0 45.895-20.637 45.895-45.893 0-25.229-20.665-45.866-45.895-45.866h-62.504c-18.681 27.185-32.146 58.253-38.835 91.759z" fill="#95d6a4"/><path d="m113.67 450.19c25.229 0 45.895-20.637 45.895-45.893 0-18.852-11.566-35.181-27.95-42.181 2.354 5.498 3.686 11.564 3.686 17.914 0 25.229-20.665 45.893-45.894 45.893h-70.925c-2.439 7.908-4.507 16.016-6.151 24.266h101.339z" fill="#78c2a4"/><path d="m346.624 97.895v137.229c0 10.658-8.73 19.416-19.417 19.416h-95.812v24.266h139.495v-180.089c0-5.188-2.75-6.973-7.455-5.611z" fill="#174b67"/><path d="m141.11 254.539h90.285v24.266h-90.285z" fill="#d57080"/></g><path d="m378.401 274.326c39.799 21.713 73.106 53.518 96.663 92.353 23.443 38.694 36.936 84.048 36.936 132.521 0 4.139-3.345 7.484-7.483 7.484h-497.005c-4.138.001-7.512-3.345-7.512-7.484 0-46.8 12.614-92.353 36.964-132.521 23.443-38.664 56.864-70.64 96.664-92.353v-38.723c0-3.203 2.012-5.951 4.847-7.029l51.448-22.167v-105.733c0-3.545 2.467-6.52 5.783-7.314l33.62-9.609c4.762-1.359 9.553 2.268 9.553 7.201v56.579h90.539v-46.857c0-3.545 2.467-6.52 5.783-7.314l33.647-9.609c4.733-1.359 9.553 2.268 9.553 7.201v76.933c0 4.139-3.373 7.512-7.512 7.512s-7.512-3.373-7.512-7.512v-66.985l-18.965 5.414v48.728c0 4.139-3.344 7.484-7.512 7.484h-98.022v108.767h124.499v-69.423c0-4.139 3.373-7.512 7.512-7.512s7.512 3.373 7.512 7.512zm-15.902-206.222c-.766 4.053-4.678 6.717-8.76 5.953-4.053-.795-6.718-4.707-5.924-8.76.028-.17 10.262-59.981 143.321-59.981 4.139 0 7.483 3.373 7.483 7.512s-3.345 7.483-7.483 7.483c-120.587-.001-128.61 47.65-128.637 47.793zm-140.741 0c-.766 4.053-4.706 6.717-8.76 5.953-4.054-.795-6.719-4.707-5.953-8.76.028-.17 10.262-59.981 143.321-59.981 4.139 0 7.512 3.373 7.512 7.512s-3.373 7.483-7.512 7.483c-120.587-.001-128.58 47.65-128.608 47.793zm42.746 122.854c0-4.168 3.373-7.512 7.512-7.512s7.512 3.344 7.512 7.512v9.213c0 4.139-3.373 7.482-7.512 7.482s-7.512-3.344-7.512-7.482zm58.253 38.325c0-4.139 3.373-7.484 7.512-7.484s7.483 3.346 7.483 7.484v9.24c0 4.139-3.345 7.484-7.483 7.484-4.139 0-7.512-3.346-7.512-7.484zm0-38.325c0-4.168 3.373-7.512 7.512-7.512s7.483 3.344 7.483 7.512v9.213c0 4.139-3.345 7.482-7.483 7.482-4.139 0-7.512-3.344-7.512-7.482zm-29.112 38.325c0-4.139 3.345-7.484 7.484-7.484 4.167 0 7.512 3.346 7.512 7.484v9.24c0 4.139-3.345 7.484-7.512 7.484-4.14 0-7.484-3.346-7.484-7.484zm0-38.325c0-4.168 3.345-7.512 7.484-7.512 4.167 0 7.512 3.344 7.512 7.512v9.213c0 4.139-3.345 7.482-7.512 7.482-4.14 0-7.484-3.344-7.484-7.482zm-29.141 38.325c0-4.139 3.373-7.484 7.512-7.484s7.512 3.346 7.512 7.484v9.24c0 4.139-3.373 7.484-7.512 7.484s-7.512-3.346-7.512-7.484zm-115.882 42.01h75.262v-170.393l-18.965 5.414v105.024c0 2.892-1.701 5.671-4.535 6.89l-51.762 22.309zm-126.965 171.385h24.351c4.167 0 7.512 3.373 7.512 7.512s-3.345 7.482-7.512 7.482h-27.44c-1.928 11.111-3.09 22.452-3.459 34.017h357.651c-.851-.736-1.672-1.529-2.466-2.324-10.658-10.658-17.291-25.399-17.291-41.612 0-7.145 1.304-14.033 3.713-20.467.709-1.9 1.502-3.77 2.41-5.584h-1.531c-12.671 0-24.463-4.055-34.101-10.941-9.894-7.059-17.547-17.094-21.601-28.802-1.332-3.912.737-8.164 4.621-9.496 3.912-1.361 8.164.709 9.496 4.621 3.033 8.702 8.73 16.214 16.157 21.487 7.172 5.131 15.959 8.135 25.427 8.135h15.42c4.139 0 7.484 3.373 7.484 7.512 0 2.07-.822 3.941-2.184 5.301-3.23 3.828-5.839 8.221-7.596 12.982-1.758 4.707-2.722 9.836-2.722 15.252 0 12.074 4.933 23.046 12.898 31.011 7.995 7.965 18.965 12.926 31.04 12.926h84.956c-1.305-42.888-13.777-82.913-34.612-117.272-12.614-20.805-28.29-39.543-46.403-55.615h-58.281c-9.468 0-18.255 3.033-25.427 8.137-7.427 5.301-13.124 12.783-16.157 21.514-1.332 3.883-5.584 5.953-9.496 4.621-3.884-1.361-5.953-5.584-4.621-9.496 4.054-11.707 11.707-21.77 21.601-28.801 9.638-6.887 21.43-10.969 34.101-10.969h39.572c-8.9-6.436-18.284-12.304-28.064-17.52h-226.178c-29.991 15.96-56.212 38.071-76.962 64.659h47.707c14.684 0 28.036 5.982 37.702 15.648 9.695 9.693 15.676 23.019 15.676 37.702 0 14.711-5.98 28.033-15.676 37.728-9.666 9.666-23.019 15.647-37.702 15.647h-33.675c-4.139 0-7.512-3.344-7.512-7.482 0-4.139 3.373-7.512 7.512-7.512h33.675c10.545 0 20.156-4.309 27.101-11.283 6.974-6.943 11.282-16.553 11.282-27.098s-4.309-20.127-11.282-27.073c-6.944-6.973-16.556-11.281-27.101-11.281h-58.535c-1.871 2.777-3.656 5.613-5.414 8.475-12.644 20.891-22.225 43.853-28.064 68.259z"/></g></svg>