<svg id="Capa_1" enable-background="new 0 0 512 512" height="512" viewBox="0 0 512 512" width="512" xmlns="http://www.w3.org/2000/svg"><g><g clip-rule="evenodd" fill-rule="evenodd"><path d="m130.622 353.399c-12.954-16.497-21.26-42.406-21.26-71.547l-31.182-7.568-27.894 7.568c0 29.141-8.333 55.05-21.26 71.547l51.478 9.326z" fill="#ede9fb"/><path d="m483.001 353.399c-12.926-16.497-21.26-42.406-21.26-71.547l-32.627-6.123-26.448 6.123c0 29.141-8.334 55.05-21.26 71.547l51.761 7.569z" fill="#ede9fb"/><path d="m496.749 504.517c4.252 0 7.767-3.515 7.767-7.767v-135.584c0-4.279-3.515-7.767-7.767-7.767-160.499 0-320.999 0-481.471 0-4.28 0-7.767 3.487-7.767 7.767v135.584c0 4.252 3.486 7.767 7.767 7.767z" fill="#ffefd6"/><path d="m496.749 504.517c4.252 0 7.767-3.515 7.767-7.767v-135.584c0-4.279-3.515-7.767-7.767-7.767h-16.498v97.711c0 16.016-13.124 29.142-29.141 29.142h-443.598v16.498c0 4.252 3.486 7.767 7.767 7.767z" fill="#ffe6c1"/><path d="m344.895 281.767c-21.6-27.58-35.49-70.839-35.49-119.509l-53.859-10.177-52.923 10.177c0 48.67-13.918 91.929-35.519 119.509l91.929 11.367z" fill="#ede9fb"/><path d="m152.109 504.517h207.781v-214.983c0-4.28-3.486-7.768-7.767-7.768h-192.247c-4.252 0-7.767 3.487-7.767 7.768z" fill="#fed1a3"/><path d="m152.109 480.252h207.781v24.265h-207.781z" fill="#ffbc85"/><path d="m344.895 281.767c-21.6-27.58-35.518-70.839-35.518-119.509h-24.265c0 28.318 5.386 54.596 12.926 77.443 3.6 10.913-2.069 17.802-14.542 17.802h-101.34c-4.422 9.014-9.467 17.149-15.052 24.264z" fill="#e0dbee"/><path d="m483.001 353.399c-12.926-16.497-21.26-42.406-21.26-71.547h-24.265c0 12.67 1.502 24.747 4.422 35.688 2.41 9.071-2.806 11.594-8.504 11.594h-38.807c-3.459 9.354-7.937 17.575-13.181 24.265z" fill="#e0dbee"/><path d="m130.622 353.399c-12.954-16.497-21.26-42.406-21.26-71.547h-24.293c0 12.67 1.531 24.747 4.422 35.688 2.409 9.071-2.778 11.594-8.476 11.594h-38.807c-3.486 9.354-7.965 17.575-13.181 24.265z" fill="#e0dbee"/><path d="m256 411.907c26.391 0 47.906-21.515 47.906-47.878 0-26.391-21.515-47.905-47.906-47.905-26.363 0-47.877 21.515-47.877 47.905 0 26.364 21.514 47.878 47.877 47.878z" fill="#0c5e7f"/><path d="m93.147 353.399v34.188c0 4.252-3.515 7.767-7.767 7.767h-17.688c-4.252 0-7.767-3.515-7.767-7.767v-34.188z" fill="#fed1a3"/><path d="m445.526 353.399v34.188c0 4.252-3.487 7.767-7.767 7.767h-17.659c-4.28 0-7.767-3.515-7.767-7.767v-34.188z" fill="#fed1a3"/><path d="m54.454 439.603h50.712c4.281 0 7.768 3.486 7.768 7.767v57.147h-66.246v-57.147c0-4.281 3.486-7.767 7.766-7.767z" fill="#d57080"/><path d="m230.658 439.603h50.713c4.28 0 7.767 3.486 7.767 7.767v57.147h-66.247v-57.147c0-4.281 3.486-7.767 7.767-7.767z" fill="#d57080"/><path d="m406.833 439.603h50.741c4.252 0 7.738 3.486 7.738 7.767v57.147h-66.247v-57.147c.001-4.281 3.488-7.767 7.768-7.767z" fill="#d57080"/><g fill="#d3cee5"><path d="m50.287 252.74h59.075c7.994 0 14.541 6.548 14.541 14.542 0 8.022-6.548 14.57-14.541 14.57h-59.075c-8.022 0-14.57-6.549-14.57-14.57 0-7.994 6.548-14.542 14.57-14.542z"/><path d="m402.666 252.74h59.075c7.994 0 14.542 6.548 14.542 14.542 0 8.022-6.548 14.57-14.542 14.57h-59.075c-8.022 0-14.57-6.549-14.57-14.57 0-7.994 6.548-14.542 14.57-14.542z"/><path d="m202.623 133.145h106.754c8.022 0 14.57 6.548 14.57 14.542 0 8.021-6.548 14.57-14.57 14.57h-106.754c-8.022 0-14.57-6.549-14.57-14.57 0-7.994 6.548-14.542 14.57-14.542z"/><path d="m256 104.005c13.011 0 23.585-6.917 23.585-15.421s-10.574-15.421-23.585-15.421c-12.983 0-23.585 6.917-23.585 15.421s10.602 15.421 23.585 15.421z"/><path d="m79.825 223.601c12.983 0 23.584-6.917 23.584-15.422 0-8.504-10.602-15.448-23.584-15.448-13.011 0-23.613 6.944-23.613 15.448 0 8.505 10.602 15.422 23.613 15.422z"/><path d="m432.204 223.601c12.982 0 23.585-6.917 23.585-15.422 0-8.504-10.602-15.448-23.585-15.448s-23.585 6.944-23.585 15.448c0 8.505 10.602 15.422 23.585 15.422z"/><path d="m256 44.023c21.345 0 38.75-8.193 38.75-18.256s-17.405-18.255-38.75-18.255c-21.316 0-38.722 8.193-38.722 18.256s17.406 18.255 38.722 18.255z"/><path d="m79.825 163.618c21.317 0 38.722-8.192 38.722-18.255s-17.405-18.257-38.722-18.257c-21.345 0-38.75 8.193-38.75 18.257 0 10.063 17.404 18.255 38.75 18.255z"/><path d="m432.204 163.618c21.317 0 38.722-8.192 38.722-18.255s-17.405-18.257-38.722-18.257c-21.345 0-38.722 8.193-38.722 18.257 0 10.063 17.376 18.255 38.722 18.255z"/></g><path d="m465.312 504.517v-28.007c-4.195 2.381-9.043 3.742-14.202 3.742h-52.045v24.265z" fill="#cb5769"/><path d="m46.688 480.252h66.247v24.265h-66.247z" fill="#cb5769"/><path d="m222.891 480.252h66.247v24.265h-66.247z" fill="#cb5769"/></g><path d="m159.621 497.005h55.758v-57.402c0-4.139 3.345-7.512 7.512-7.512h66.247c4.138 0 7.483 3.373 7.483 7.512v57.402h55.758v-143.606-64.121c-64.233 0-128.496 0-192.758 0v64.121zm272.583-377.41c11.792 0 22.621 2.324 30.586 6.095 9.666 4.537 15.647 11.481 15.647 19.674 0 8.191-5.981 15.108-15.647 19.672-7.965 3.77-18.794 6.095-30.586 6.095s-22.621-2.324-30.586-6.095c-9.666-4.564-15.647-11.48-15.647-19.672s5.982-15.137 15.647-19.674c7.965-3.771 18.793-6.095 30.586-6.095zm24.179 19.617c-6.038-2.863-14.57-4.62-24.18-4.62s-18.142 1.757-24.208 4.62c-4.337 2.041-7.03 4.252-7.03 6.151 0 1.871 2.693 4.082 7.03 6.15 6.066 2.835 14.599 4.621 24.208 4.621s18.142-1.786 24.18-4.621c4.366-2.068 7.059-4.279 7.059-6.15 0-1.899-2.693-4.11-7.059-6.151zm-376.558-19.617c11.764 0 22.592 2.324 30.558 6.095 9.694 4.537 15.676 11.481 15.676 19.674 0 8.191-5.981 15.108-15.676 19.672-7.966 3.77-18.794 6.095-30.558 6.095-11.792 0-22.621-2.324-30.586-6.095-9.666-4.564-15.647-11.48-15.647-19.672s5.981-15.137 15.647-19.674c7.965-3.771 18.794-6.095 30.586-6.095zm24.179 19.617c-6.038-2.863-14.599-4.62-24.18-4.62-9.609 0-18.17 1.757-24.208 4.62-4.337 2.041-7.03 4.252-7.03 6.151 0 1.871 2.693 4.082 7.03 6.15 6.038 2.835 14.599 4.621 24.208 4.621 9.581 0 18.142-1.786 24.18-4.621 4.337-2.068 7.03-4.279 7.03-6.15.001-1.899-2.692-4.11-7.03-6.151zm151.996-139.212c11.792 0 22.621 2.324 30.586 6.095 9.666 4.536 15.647 11.48 15.647 19.673 0 8.191-5.981 15.108-15.647 19.673-7.965 3.771-18.794 6.095-30.586 6.095s-22.593-2.324-30.586-6.095c-9.666-4.564-15.647-11.481-15.647-19.673s5.981-15.137 15.647-19.673c7.993-3.771 18.794-6.095 30.586-6.095zm24.208 19.616c-6.067-2.835-14.599-4.62-24.208-4.62s-18.142 1.785-24.18 4.62c-4.365 2.041-7.058 4.252-7.058 6.151 0 1.871 2.693 4.082 7.058 6.15 6.039 2.836 14.571 4.621 24.18 4.621s18.142-1.785 24.208-4.621c4.337-2.068 7.03-4.279 7.03-6.15 0-1.899-2.693-4.11-7.03-6.151zm151.996 165.63c7.994 0 15.336 2.184 20.778 5.755 6.378 4.167 10.318 10.204 10.318 17.178 0 6.945-3.94 13.012-10.318 17.18-5.443 3.543-12.785 5.754-20.778 5.754-7.994 0-15.364-2.211-20.778-5.754-6.378-4.168-10.319-10.234-10.319-17.18 0-6.974 3.941-13.011 10.319-17.178 5.414-3.571 12.784-5.755 20.778-5.755zm12.586 18.283c-3.118-2.04-7.569-3.287-12.586-3.287-5.046 0-9.468 1.247-12.586 3.287-2.154 1.418-3.515 3.09-3.515 4.649s1.361 3.232 3.515 4.649c3.118 2.013 7.54 3.288 12.586 3.288 5.017 0 9.468-1.275 12.586-3.288 2.155-1.418 3.487-3.09 3.487-4.649s-1.333-3.231-3.487-4.649zm-364.965-18.283c7.994 0 15.336 2.184 20.778 5.755 6.35 4.167 10.291 10.204 10.291 17.178 0 6.945-3.941 13.012-10.291 17.18-5.442 3.543-12.784 5.754-20.778 5.754s-15.364-2.211-20.807-5.754c-6.35-4.168-10.29-10.234-10.29-17.18 0-6.974 3.94-13.011 10.29-17.178 5.443-3.571 12.813-5.755 20.807-5.755zm12.557 18.283c-3.09-2.04-7.54-3.287-12.558-3.287-5.045 0-9.496 1.247-12.586 3.287-2.183 1.418-3.515 3.09-3.515 4.649s1.333 3.232 3.515 4.649c3.09 2.013 7.54 3.288 12.586 3.288 5.018 0 9.468-1.275 12.558-3.288 2.183-1.418 3.515-3.09 3.515-4.649s-1.332-3.231-3.515-4.649zm163.618-137.878c7.994 0 15.364 2.184 20.778 5.755 6.378 4.167 10.318 10.204 10.318 17.178 0 6.944-3.94 13.011-10.318 17.179-5.414 3.57-12.785 5.754-20.778 5.754-7.994 0-15.335-2.184-20.778-5.754-6.378-4.168-10.318-10.234-10.318-17.179 0-6.974 3.941-13.011 10.318-17.178 5.443-3.571 12.784-5.755 20.778-5.755zm12.586 18.284c-3.118-2.04-7.54-3.287-12.586-3.287-5.018 0-9.468 1.247-12.586 3.287-2.154 1.418-3.486 3.09-3.486 4.649s1.332 3.231 3.486 4.649c3.118 2.041 7.568 3.287 12.586 3.287 5.046 0 9.468-1.246 12.586-3.287 2.154-1.418 3.515-3.09 3.515-4.649s-1.361-3.231-3.515-4.649zm-32.004 287.579c-4.139 0-7.512-3.346-7.512-7.484 0-4.166 3.373-7.512 7.512-7.512h38.863c4.139 0 7.484 3.346 7.484 7.512 0 4.139-3.345 7.484-7.484 7.484zm-33.959-245.881h106.754c6.094 0 11.594 2.496 15.591 6.492 3.997 3.997 6.491 9.496 6.491 15.562 0 6.094-2.494 11.594-6.491 15.59-2.239 2.269-4.961 4.025-7.994 5.131.113 4.536.34 9.015.68 13.38.539 6.604 1.304 12.954 2.325 19.049.652 4.082-2.098 7.909-6.18 8.589-4.082.652-7.937-2.126-8.589-6.18-1.105-6.718-1.928-13.492-2.495-20.296-.34-4.365-.595-8.759-.708-13.181h-91.985c-.652 21.799-3.997 42.463-9.524 61.087-4.819 16.215-11.282 30.869-19.078 43.399h149.161c-2.069-3.316-4.025-6.774-5.896-10.402-4.195-8.079-7.938-16.98-11.112-26.504-1.276-3.912.85-8.136 4.762-9.439 3.912-1.275 8.136.85 9.44 4.762 2.863 8.646 6.293 16.81 10.205 24.35 3.26 6.265 6.803 12.047 10.602 17.234h11.31c4.139 0 7.512 3.373 7.512 7.512v64.149h10.262c5.045-7.228 9.241-16.185 12.246-26.362 2.863-9.581 4.649-20.269 5.131-31.551-3.033-1.133-5.726-2.891-7.965-5.131-3.997-3.996-6.463-9.496-6.463-15.59 0-6.066 2.466-11.594 6.463-15.562 3.997-3.996 9.524-6.491 15.59-6.491h12.558c4.139 0 7.483 3.373 7.483 7.512s-3.345 7.483-7.483 7.483h-12.558c-1.928 0-3.713.794-4.989 2.098-1.276 1.275-2.069 3.033-2.069 4.961 0 1.955.794 3.713 2.069 4.988 1.275 1.276 3.061 2.07 4.989 2.07h59.075c1.927 0 3.685-.794 4.961-2.07 1.304-1.275 2.098-3.033 2.098-4.988 0-1.928-.794-3.685-2.069-4.961-1.304-1.304-3.062-2.098-4.989-2.098h-12.558c-4.139 0-7.484-3.345-7.484-7.483 0-4.139 3.345-7.512 7.484-7.512h12.558c6.066 0 11.593 2.495 15.59 6.491 3.997 3.969 6.463 9.496 6.463 15.562 0 6.094-2.466 11.594-6.463 15.59-2.239 2.24-4.96 3.998-7.965 5.131.482 11.282 2.268 21.97 5.131 31.551 3.004 10.177 7.2 19.134 12.246 26.362h17.773c4.139 0 7.484 3.346 7.484 7.483v151.117c0 4.139-3.345 7.483-7.484 7.483-165.687 0-331.345 0-497.004 0-4.141 0-7.515-3.345-7.515-7.483v-151.118c0-4.138 3.374-7.483 7.512-7.483h17.745c5.074-7.228 9.241-16.185 12.274-26.362 2.835-9.581 4.649-20.269 5.103-31.551-3.005-1.133-5.698-2.891-7.937-5.131-3.997-3.996-6.491-9.496-6.491-15.59 0-6.066 2.494-11.594 6.491-15.562 3.997-3.996 9.496-6.491 15.59-6.491h12.529c4.139 0 7.512 3.373 7.512 7.512s-3.373 7.483-7.512 7.483h-12.529c-1.956 0-3.713.794-4.989 2.098-1.275 1.275-2.069 3.033-2.069 4.961 0 1.955.794 3.713 2.069 4.988 1.275 1.276 3.033 2.07 4.989 2.07h59.075c1.928 0 3.685-.794 4.961-2.07 1.276-1.275 2.098-3.033 2.098-4.988 0-1.928-.822-3.685-2.098-4.961-1.275-1.304-3.033-2.098-4.961-2.098h-12.558c-4.139 0-7.512-3.345-7.512-7.483 0-4.139 3.373-7.512 7.512-7.512h12.558c6.066 0 11.565 2.495 15.562 6.491 3.997 3.969 6.492 9.496 6.492 15.562 0 6.094-2.495 11.594-6.492 15.59-2.211 2.24-4.932 3.998-7.937 5.131.482 11.282 2.268 21.97 5.103 31.551 3.033 10.177 7.229 19.134 12.274 26.362h10.262v-64.149c0-4.139 3.345-7.512 7.484-7.512h11.31c9.439-12.869 17.207-29.083 22.706-47.621 5.244-17.633 8.391-37.334 8.93-58.226-3.033-1.105-5.783-2.862-8.022-5.131-3.997-3.996-6.463-9.496-6.463-15.59 0-6.066 2.466-11.565 6.463-15.562 3.995-3.996 9.523-6.492 15.589-6.492zm106.754 14.996h-106.754c-1.927 0-3.685.822-4.989 2.098-1.276 1.275-2.069 3.033-2.069 4.961 0 1.956.794 3.713 2.069 4.988 1.304 1.276 3.062 2.098 4.989 2.098h106.754c1.955 0 3.713-.821 4.989-2.098 1.276-1.275 2.098-3.032 2.098-4.988 0-1.928-.822-3.686-2.098-4.961-1.276-1.276-3.034-2.098-4.989-2.098zm89.689 291.462h66.247c4.167 0 7.512 3.373 7.512 7.512v57.402h24.18v-136.093h-43.995v34.441c0 4.139-3.345 7.483-7.484 7.483h-33.194c-4.139 0-7.512-3.345-7.512-7.483v-34.441h-37.417v136.093h24.18v-57.402c-.001-4.139 3.344-7.512 7.483-7.512zm58.763 15.023h-51.251v49.891h51.251zm-227.455 49.891h51.251v-49.891h-51.251zm-183.686-64.914h66.247c4.139 0 7.512 3.373 7.512 7.512v57.402h24.18v-136.093h-43.994v34.441c0 4.139-3.345 7.483-7.484 7.483h-33.224c-4.139 0-7.483-3.345-7.483-7.483v-34.441h-37.446v136.093h24.18v-57.402c-.001-4.139 3.373-7.512 7.512-7.512zm58.762 15.023h-51.251v49.891h51.251zm314.366-86.202v26.93h18.199v-26.93zm-352.378 0v26.93h18.198v-26.93zm188.562-52.271c15.307 0 29.141 6.18 39.175 16.214 10.006 10.007 16.214 23.868 16.214 39.175 0 15.279-6.208 29.142-16.214 39.147-10.035 10.035-23.868 16.215-39.175 16.215-15.279 0-29.141-6.18-39.147-16.215-10.035-10.006-16.243-23.868-16.243-39.147 0-15.307 6.208-29.168 16.243-39.175 10.006-10.035 23.868-16.214 39.147-16.214zm28.574 26.816c-7.314-7.314-17.405-11.821-28.574-11.821-11.14 0-21.231 4.507-28.545 11.821-7.313 7.312-11.849 17.404-11.849 28.572 0 11.141 4.535 21.232 11.849 28.546s17.405 11.82 28.545 11.82c11.168 0 21.26-4.507 28.574-11.82 7.314-7.314 11.82-17.405 11.82-28.546 0-11.168-4.535-21.259-11.82-28.572zm184.622 10.459c-3.6-6.661-6.662-14.088-9.071-22.139-3.146-10.573-5.131-22.195-5.698-34.413h-44.447c-.567 12.218-2.58 23.84-5.698 34.413-2.41 8.051-5.471 15.478-9.1 22.139zm-352.379 0c-3.628-6.661-6.69-14.088-9.071-22.139-3.147-10.573-5.131-22.195-5.727-34.413h-44.418c-.595 12.218-2.58 23.84-5.726 34.413-2.381 8.051-5.442 15.478-9.071 22.139z"/></g></svg>