<svg id="Capa_1" enable-background="new 0 0 512 512" height="512" viewBox="0 0 512 512" width="512" xmlns="http://www.w3.org/2000/svg"><g><g clip-rule="evenodd" fill-rule="evenodd"><path d="m7.512 194.005h497.005v123.99h-497.005z" fill="#d57080"/><path d="m429.54 194.005h24.264v123.99h-395.608v-24.266h342.231c16.016 0 29.112-13.125 29.112-29.141v-70.583z" fill="#cb5769"/><path d="m142.981 369.02c-7.257-7.229-7.257-19.079 0-26.335l2.438-2.438c3.798-3.884 3.628-7.909 1.021-11.878-13.748-20.749-21.742-45.61-21.742-72.369 0-26.73 8.136-51.507 21.714-72.341 3.316-5.104 3.742-7.172-.992-11.906l-2.438-2.438c-7.257-7.257-7.257-19.105 0-26.335 7.228-7.256 19.077-7.256 26.334 0l2.438 2.438c4.167 4.253 6.576 4.536 11.82 1.021 20.779-13.748 45.666-21.742 72.426-21.742 26.788 0 51.676 7.994 72.426 21.742 5.272 3.515 7.653 3.231 11.82-1.021l2.466-2.438c7.228-7.256 19.078-7.256 26.334 0 7.229 7.23 7.229 19.078 0 26.335l-2.466 2.438c-4.734 4.734-4.28 6.803-.992 11.906 13.578 20.834 21.742 45.61 21.742 72.341 0 26.759-7.994 51.62-21.742 72.369-2.636 3.969-2.778 7.994.992 11.878l2.466 2.438c7.229 7.256 7.229 19.105 0 26.335-7.256 7.256-19.105 7.256-26.334 0l-2.466-2.438c-4.337-4.339-7.115-4.112-11.877-.992-20.779 13.662-45.61 21.713-72.37 21.713-26.731 0-51.563-8.051-72.37-21.713-4.734-3.12-7.512-3.347-11.877.992l-2.438 2.438c-7.255 7.255-19.105 7.255-26.333 0zm113.019-208.322c-16.781 0-32.57 4.309-46.262 11.962-5.131 2.863-4.876 5.725-1.163 9.553l47.425 47.453 47.453-47.453c3.685-3.827 3.968-6.689-1.191-9.553-13.692-7.653-29.452-11.962-46.262-11.962zm0 121.636-47.424 47.452c-4.592 4.536-4.337 6.492 1.134 9.553 13.72 7.626 29.509 11.963 46.29 11.963 16.81 0 32.599-4.337 46.29-11.963 5.5-3.061 5.726-5.017 1.163-9.553zm73.815 21.147-47.481-47.481 47.452-47.453c4.167-4.252 6.605-4.11 9.553 1.162 7.654 13.692 11.991 29.481 11.991 46.291s-4.366 32.57-11.991 46.29c-2.522 4.536-5.924 4.791-9.524 1.191zm-147.602 0 47.452-47.481-47.424-47.453c-4.167-4.252-6.605-4.11-9.553 1.162-7.682 13.692-11.991 29.481-11.991 46.291s4.337 32.57 11.963 46.29c2.523 4.536 5.925 4.791 9.553 1.191z" fill="#0c5e7f"/><path d="m142.981 369.02c-7.257-7.229-7.257-19.079 0-26.335l2.438-2.438c2.466-2.523 3.26-5.104 2.807-7.683 22.649 18.794 51.761 30.104 83.509 30.104 72.313 0 130.934-58.621 130.934-130.934 0-31.522-11.14-60.436-29.679-83.027 2.523.595 4.507-.482 7.257-3.29l2.466-2.438c7.228-7.256 19.078-7.256 26.334 0 7.229 7.23 7.229 19.078 0 26.335l-2.466 2.438c-4.734 4.734-4.28 6.803-.992 11.906 13.578 20.834 21.742 45.61 21.742 72.341 0 26.759-7.994 51.62-21.742 72.369-2.636 3.969-2.778 7.994.992 11.878l2.466 2.438c7.229 7.256 7.229 19.105 0 26.335-7.256 7.256-19.105 7.256-26.334 0l-2.466-2.438c-4.337-4.339-7.115-4.112-11.877-.992-20.779 13.662-45.61 21.713-72.37 21.713-26.731 0-51.563-8.051-72.37-21.713-4.734-3.12-7.512-3.347-11.877.992l-2.438 2.438c-7.256 7.256-19.106 7.256-26.334.001z" fill="#174b67"/><path d="m256 288.541c17.943 0 32.542-14.626 32.542-32.541s-14.599-32.542-32.542-32.542c-17.915 0-32.542 14.627-32.542 32.542s14.627 32.541 32.542 32.541z" fill="#b1e4f9"/><path d="m15.278 178.075h35.15c4.28 0 7.767 3.486 7.767 7.766v140.317c0 4.28-3.487 7.767-7.767 7.767h-35.15c-4.28 0-7.767-3.486-7.767-7.767v-140.317c.001-4.28 3.487-7.766 7.767-7.766z" fill="#cb5769"/><path d="m461.571 178.075h35.179c4.252 0 7.767 3.486 7.767 7.766v140.317c0 4.28-3.515 7.767-7.767 7.767h-35.179c-4.252 0-7.768-3.486-7.768-7.767v-140.317c.001-4.28 3.516-7.766 7.768-7.766z" fill="#cb5769"/><g fill="#c63d4f"><path d="m496.75 178.075h-16.499v155.85h16.499c4.252 0 7.767-3.486 7.767-7.767v-140.317c0-4.28-3.515-7.766-7.767-7.766z"/><path d="m50.429 178.075h-16.498v155.85h16.497c4.28 0 7.767-3.486 7.767-7.767v-140.317c.001-4.28-3.486-7.766-7.766-7.766z"/></g></g><path d="m156.531 329.759c2.608 2.947 2.523 7.455-.312 10.289l-7.937 7.938c-4.337 4.337-4.337 11.424 0 15.732 4.28 4.31 11.423 4.31 15.732 0l7.937-7.938c2.58-2.58 6.775-2.92 9.78-.68 10.545 7.908 22.366 14.174 35.093 18.426 12.246 4.081 25.427 6.293 39.175 6.293s26.93-2.212 39.175-6.293c12.529-4.167 24.18-10.319 34.583-18.029 2.948-2.637 7.483-2.551 10.29.283l7.965 7.938c4.309 4.337 11.396 4.337 15.732 0 4.28-4.281 4.28-11.424 0-15.732l-7.965-7.938c-2.58-2.579-2.92-6.775-.681-9.779 6.35-8.447 11.65-17.83 15.647-27.638 3.94-9.695 6.689-19.985 8.079-30.615.51-4.082 4.252-7.002 8.334-6.463 4.11.51 7.001 4.252 6.491 8.334-1.644 12.586-4.96 24.917-9.95 36.597h62.618v-108.967h-62.618c4.99 11.68 8.306 24.011 9.95 36.597.51 4.082-2.381 7.824-6.491 8.334-4.082.539-7.824-2.381-8.334-6.463-1.389-10.631-4.139-20.92-8.079-30.615-3.912-9.609-9.1-18.822-15.25-27.128-2.636-2.947-2.523-7.455.284-10.289l7.965-7.938c4.309-4.337 4.309-11.396 0-15.732-4.337-4.338-11.423-4.338-15.732 0l-7.965 7.938c-2.579 2.579-6.775 2.92-9.78.68-10.545-7.908-22.366-14.174-35.093-18.426-12.246-4.082-25.427-6.293-39.175-6.293s-26.93 2.211-39.175 6.293c-12.529 4.167-24.18 10.318-34.583 18.029-2.948 2.637-7.455 2.551-10.29-.283l-7.937-7.938c-2.155-2.155-5.018-3.232-7.881-3.232-2.835 0-5.697 1.077-7.852 3.232-2.154 2.154-3.231 4.989-3.231 7.852s1.077 5.727 3.231 7.881l7.937 7.938c2.608 2.579 2.948 6.774.681 9.779-7.937 10.545-14.258 22.592-18.425 35.093-4.082 12.246-6.293 25.428-6.293 39.176s2.211 26.93 6.293 39.176c4.11 12.3 10.29 24.149 18.057 34.581zm297.273-159.168h50.713c4.139 0 7.483 3.346 7.483 7.484v155.85c0 4.139-3.345 7.484-7.483 7.484h-50.713c-4.138 0-7.483-3.346-7.483-7.484v-8.447h-70.158c-1.644 2.892-3.43 5.698-5.301 8.447l3.486 3.459c10.12 10.119 10.12 26.815 0 36.937-10.176 10.176-26.787 10.176-36.936 0l-3.487-3.459c-10.432 7.087-21.855 12.785-34.073 16.838-13.833 4.621-28.574 7.115-43.852 7.115-15.251 0-30.02-2.494-43.853-7.115-12.189-4.053-23.641-9.751-34.044-16.838l-3.487 3.459c-10.12 10.119-26.816 10.119-36.936 0-10.149-10.149-10.149-26.788 0-36.937l3.458-3.459c-1.843-2.749-3.628-5.556-5.301-8.447h-70.13v8.447c0 4.139-3.374 7.484-7.512 7.484h-50.683c-4.139 0-7.512-3.346-7.512-7.484v-155.85c0-4.139 3.373-7.484 7.512-7.484h50.684c4.139 0 7.512 3.346 7.512 7.484v8.446h70.13c1.672-2.892 3.458-5.697 5.301-8.446l-3.458-3.459c-5.103-5.102-7.626-11.792-7.626-18.482 0-6.689 2.523-13.38 7.626-18.454 5.074-5.102 11.764-7.653 18.453-7.653 6.69 0 13.409 2.552 18.482 7.653l3.487 3.459c10.403-7.088 21.855-12.785 34.044-16.838 13.833-4.621 28.602-7.115 43.853-7.115 15.279 0 30.019 2.494 43.852 7.115 12.218 4.053 23.641 9.75 34.073 16.838l3.487-3.459c10.148-10.176 26.788-10.176 36.936 0 10.148 10.149 10.148 26.788 0 36.936l-3.486 3.459c1.871 2.749 3.657 5.555 5.301 8.446h70.158v-8.446c-.001-4.139 3.344-7.484 7.483-7.484zm43.201 14.996h-35.689v140.826h35.689zm-446.293 0h-35.717v140.826h35.717c0-46.942 0-93.884 0-140.826zm208.265 30.5 14.57-14.57h-35.093l14.57 14.57c1.984-.142 3.968-.142 5.953 0zm16.356 4.849c3.288 1.842 6.321 4.109 8.957 6.775 2.665 2.636 4.933 5.669 6.775 8.958l38.722-38.723c3.374-3.373 8.929-3.175 11.707.964 5.556 8.306 9.922 17.461 12.898 27.241 2.863 9.525 4.422 19.531 4.422 29.85 0 10.318-1.559 20.324-4.422 29.849-2.92 9.582-7.172 18.539-12.558 26.703-.312.596-.737 1.162-1.247 1.673-2.948 2.948-7.682 2.948-10.63 0l-38.892-38.893c-1.842 3.288-4.11 6.321-6.775 8.957-2.636 2.665-5.669 4.933-8.957 6.775 12.926 12.927 25.852 25.852 38.778 38.778 3.345 3.316 3.061 8.901-1.02 11.623-8.278 5.556-17.462 9.949-27.242 12.898-9.524 2.892-19.531 4.45-29.849 4.45-10.29 0-20.325-1.559-29.849-4.45-9.582-2.892-18.539-7.144-26.703-12.529-4.337-2.382-5.216-8.306-1.672-11.878 12.955-12.953 25.938-25.937 38.92-38.892-3.316-1.843-6.35-4.11-8.985-6.775-2.665-2.636-4.933-5.669-6.747-8.957l-38.693 38.665c-3.374 3.402-8.929 3.289-11.735-.906-3.912-5.84-7.229-12.076-9.894-18.652-2.58-6.407-4.536-13.153-5.811-20.212-.709-4.054 1.984-7.938 6.038-8.646 4.083-.737 7.966 1.956 8.675 6.009 1.077 5.981 2.75 11.764 4.989 17.292 1.105 2.722 2.353 5.387 3.685 7.967l37.872-37.872c-.142-1.984-.142-3.969 0-5.953l-37.872-37.872c-1.332 2.58-2.58 5.245-3.685 7.967-2.239 5.556-3.912 11.31-4.989 17.291-.709 4.054-4.592 6.747-8.675 6.038-4.053-.737-6.747-4.621-6.038-8.674 1.275-7.059 3.231-13.805 5.811-20.212 2.58-6.379 5.783-12.444 9.525-18.113 2.409-4.338 8.334-5.244 11.877-1.673l38.92 38.893c1.814-3.289 4.081-6.322 6.747-8.958 2.636-2.665 5.669-4.933 8.985-6.775-12.954-12.927-25.88-25.853-38.807-38.779-3.316-3.345-3.033-8.929 1.02-11.622 8.306-5.556 17.462-9.949 27.242-12.897 9.524-2.892 19.559-4.45 29.849-4.45 10.318 0 20.325 1.559 29.849 4.45 9.582 2.892 18.567 7.144 26.703 12.529 4.337 2.381 5.244 8.306 1.701 11.877-12.984 12.952-25.966 25.935-38.92 38.891zm20.579 32.087c.142 1.984.142 3.969 0 5.953l37.872 37.872c2.58-4.876 4.677-10.008 6.293-15.337 2.438-8.021 3.742-16.582 3.742-25.512s-1.304-17.49-3.742-25.512c-1.616-5.329-3.713-10.46-6.293-15.337zm-36.935 42.89c-1.984.141-3.969.141-5.953 0l-14.57 14.57h35.093zm14.711-57.602c-4.507-4.535-10.772-7.342-17.688-7.342-6.917 0-13.153 2.807-17.688 7.342-4.536 4.536-7.314 10.773-7.314 17.689s2.778 13.152 7.314 17.688c4.535 4.536 10.771 7.342 17.688 7.342 6.916 0 13.181-2.806 17.688-7.342 4.536-4.535 7.342-10.772 7.342-17.688s-2.806-13.152-7.342-17.689zm-145.362-36.794h-62.618v108.967h62.618c-1.475-3.459-2.807-7.002-4.026-10.631-4.62-13.834-7.115-28.603-7.115-43.853s2.495-30.02 7.115-43.852c1.219-3.629 2.552-7.172 4.026-10.631zm95.132 123.961-8.306 8.307c4.876 2.551 10.006 4.677 15.335 6.293 8.023 2.438 16.583 3.741 25.512 3.741 8.957 0 17.519-1.304 25.512-3.741 5.329-1.616 10.46-3.742 15.336-6.293l-8.306-8.307zm65.084-138.957 8.306-8.306c-4.876-2.551-10.006-4.677-15.336-6.293-7.994-2.438-16.555-3.741-25.512-3.741-8.929 0-17.49 1.304-25.512 3.741-5.329 1.616-10.46 3.742-15.335 6.293l8.306 8.306z"/></g></svg>