<svg id="Capa_1" enable-background="new 0 0 512 512" height="512" viewBox="0 0 512 512" width="512" xmlns="http://www.w3.org/2000/svg"><g><g clip-rule="evenodd" fill-rule="evenodd"><path d="m60.378 69.933h18.936c4.252 0 7.739 3.516 7.739 7.768v40.959c0 4.252-3.487 7.768-7.739 7.768h-18.936c-4.28 0-7.767-3.516-7.767-7.768v-40.96c.001-4.252 3.487-7.767 7.767-7.767z" fill="#b1e4f9"/><path d="m132.181 310.936v-125.492l-5.074-18.283 5.074-19.078v-9.693c0-18.709-15.307-33.988-33.987-33.988h-56.722c-18.681 0-33.959 15.279-33.959 33.988v9.693l4.45 17.52-4.45 19.842v39.204l4.45 21.033-4.45 15.986v49.268z" fill="#0c5e7f"/><path d="m132.181 310.936v-125.492l-5.074-18.283 5.074-19.078v-9.693c0-18.709-15.307-33.988-33.987-33.988h-24.266c18.681 0 33.96 15.279 33.96 33.988v172.546z" fill="#174b67"/><path d="m7.512 148.083h124.669v37.361h-124.669z" fill="#95d6a4"/><path d="m7.512 224.279h124.669v37.389h-124.669z" fill="#95d6a4"/><path d="m264.786 140.657h18.907c4.28 0 7.767 3.486 7.767 7.738v35.773c0 4.279-3.486 7.768-7.767 7.768h-18.907c-4.28 0-7.767-3.488-7.767-7.768v-35.773c.001-4.251 3.487-7.738 7.767-7.738z" fill="#b1e4f9"/><path d="m336.56 351.499v-19.133l-4.252-17.435 4.252-19.559v-39.202l-4.733-20.353 4.733-17.035v-9.695c0-18.681-15.278-33.987-33.96-33.987h-56.72c-18.681 0-33.96 15.307-33.96 33.987v9.695l4.45 17.518-4.45 19.871v95.329h124.64z" fill="#0c5e7f"/><path d="m336.56 381.632v-49.266l-4.252-17.435 4.252-19.559v-39.202l-4.733-20.353 4.733-17.035v-9.695c0-18.681-15.278-33.987-33.96-33.987h-24.265c18.681 0 33.959 15.307 33.959 33.987v172.546h24.266z" fill="#174b67"/><path d="m211.92 218.781h124.641v37.389h-124.641z" fill="#95d6a4"/><path d="m211.92 294.977h124.641v37.39h-124.641z" fill="#95d6a4"/><path d="m251.974 496.408h218.695c4.847 0 7.767-2.836 7.767-7.768v-123.08l-226.462-14.541z" fill="#fed1a3"/><path d="m251.974 496.408h218.695c4.847 0 7.767-2.836 7.767-7.768v-123.08h-24.265v87.167c0 10.686-8.759 19.416-19.418 19.416h-182.779z" fill="#ffbc85"/><path d="m454.171 322.728-34.017 9.695-40.791-9.695 14.571-226.575 23.3-4.847 22.366 4.847z" fill="#ede9fb"/><path d="m454.171 322.728h-24.294l-14.541-226.575h24.264z" fill="#e0dbee"/><path d="m500.461 358.927c2.494 4.082.737 6.633-3.714 6.633h-244.773v-42.832h218.695c5.074 0 9.213 2.381 11.792 6.633z" fill="#cb5769"/><path d="m13.635 298.434c-3.146 2.438-6.123 6.293-6.123 12.502v177.705c0 5.357 3.147 7.768 7.767 7.768h241.57v-185.473c-.255-5.33-2.183-9.582-6.151-12.502l-112.395-87.107c-4.054-3.062-8.192-3.146-12.274 0z" fill="#ffefd6"/><path d="m7.512 472.143v16.498c0 5.357 3.147 7.768 7.767 7.768h241.57v-185.473c-.255-5.33-2.183-9.582-6.151-12.502l-18.142-14.059v168.352c0 10.686-8.731 19.416-19.39 19.416z" fill="#ffe6c1"/><path d="m393.934 67.041h45.666c7.995 0 14.571 6.548 14.571 14.542 0 8.021-6.576 14.57-14.571 14.57h-45.666c-7.993 0-14.57-6.549-14.57-14.57-.001-7.994 6.548-14.542 14.57-14.542z" fill="#d3cee5"/><path d="m174.389 496.408v-97.882c0-4.279-3.487-7.768-7.767-7.768h-68.911c-4.281 0-7.768 3.488-7.768 7.768v97.882z" fill="#d57080"/><path d="m409.864 496.408v-57.657c0-4.281-3.515-7.768-7.767-7.768h-68.938c-4.252 0-7.767 3.486-7.767 7.768v57.657z" fill="#d57080"/><g fill="#b1e4f9"><path d="m125.377 316.547h13.578c4.28 0 7.767 3.488 7.767 7.768v29.566c0 4.252-3.487 7.766-7.767 7.766h-13.578c-4.28 0-7.767-3.514-7.767-7.766v-29.566c.001-4.28 3.487-7.768 7.767-7.768z"/><path d="m188.477 316.547h13.578c4.28 0 7.767 3.488 7.767 7.768v29.566c0 4.252-3.487 7.766-7.767 7.766h-13.578c-4.28 0-7.767-3.514-7.767-7.766v-29.566c0-4.28 3.487-7.768 7.767-7.768z"/><path d="m62.278 316.547h13.578c4.28 0 7.767 3.488 7.767 7.768v29.566c0 4.252-3.486 7.766-7.767 7.766h-13.578c-4.28 0-7.767-3.514-7.767-7.766v-29.566c0-4.28 3.487-7.768 7.767-7.768z"/></g><path d="m89.944 472.143h84.445v24.266h-84.445z" fill="#cb5769"/><path d="m325.393 472.143h84.472v24.266h-84.472z" fill="#cb5769"/><path d="m107.888 148.083h24.293v37.361h-24.293z" fill="#78c2a4"/><path d="m312.295 218.781h24.266v37.389h-24.266z" fill="#78c2a4"/><path d="m312.295 295.373h24.266v27.354h-24.266z" fill="#78c2a4"/></g><path d="m124.669 202.906v-9.949h-109.673v23.84h91.787zm-70.158 106.129h29.111c4.139 0 7.512 3.373 7.512 7.512v45.101c0 4.139-3.374 7.484-7.512 7.484h-29.111c-4.139 0-7.512-3.346-7.512-7.484v-45.101c0-4.139 3.374-7.512 7.512-7.512zm21.628 14.997h-14.116v30.104h14.116zm104.571-14.997h29.112c4.139 0 7.512 3.373 7.512 7.512v45.101c0 4.139-3.373 7.484-7.512 7.484h-29.112c-4.139 0-7.512-3.346-7.512-7.484v-45.101c.001-4.139 3.374-7.512 7.512-7.512zm21.629 14.997h-14.145v30.104h14.145zm-84.728-14.997h29.112c4.139 0 7.512 3.373 7.512 7.512v45.101c0 4.139-3.373 7.484-7.512 7.484h-29.112c-4.139 0-7.512-3.346-7.512-7.484v-45.101c0-4.139 3.373-7.512 7.512-7.512zm21.628 14.997h-14.145v30.104h14.145zm263.114 164.865v-50.401h-69.448v50.401zm-84.445 0v-57.913c0-4.139 3.346-7.484 7.484-7.484h84.472c4.139 0 7.483 3.346 7.483 7.484v57.913h53.576v-115.826h-86.316c-4.139 0-7.483-3.373-7.483-7.512s3.345-7.482 7.483-7.482h106.584l-16.951-27.865c-69.96 0-139.947 0-209.907 0v27.865h86.315c4.139 0 7.484 3.344 7.484 7.482 0 4.139-3.346 7.512-7.484 7.512h-86.315v115.825h53.575zm-136.007-62.308c0 4.139-3.373 7.512-7.512 7.512s-7.483-3.373-7.483-7.512v-28.318h-69.45v90.626h69.45v-28.318c0-4.139 3.345-7.512 7.483-7.512 4.139 0 7.512 3.373 7.512 7.512v28.318h67.437v-123.337-42.832-15.903c-39.062-30.273-78.124-60.52-117.157-90.793-39.062 30.273-78.123 60.52-117.185 90.793v182.072h67.437v-98.138c0-4.139 3.373-7.512 7.512-7.512h84.445c4.139 0 7.512 3.373 7.512 7.512v35.83zm212.033-367.06h45.666c6.066 0 11.595 2.494 15.592 6.463 3.997 3.997 6.463 9.524 6.463 15.591 0 6.094-2.466 11.594-6.463 15.59-2.183 2.184-4.79 3.885-7.71 5.018l5.782 89.831c.255 4.111-2.891 7.682-7.002 7.938-4.139.254-7.682-2.893-7.938-7.002l-5.754-89.292h-31.606l-13.607 211.55h58.82l-5.67-88.355c-.283-4.139 2.863-7.682 7.002-7.938 4.11-.254 7.682 2.863 7.936 7.002l5.727 89.291h17.263c2.892 0 5.414 1.645 6.661 4.082l25.796 42.38c3.09 5.045-.681 11.395-6.435 11.395h-18.539v123.337c0 4.139-3.345 7.512-7.483 7.512-156.983 0-313.968 0-470.923 0-4.139 0-7.512-3.373-7.512-7.512 0-119.341 0-238.68 0-358.019 0-11.424 4.677-21.799 12.189-29.31 7.512-7.512 17.886-12.189 29.282-12.189h3.629v-26.959c0-4.14 3.373-7.485 7.512-7.485h9.723v-17.745c0-10.092 4.11-19.248 10.743-25.881 6.633-6.632 15.789-10.742 25.881-10.742h146.155c10.091 0 19.247 4.109 25.88 10.742 6.634 6.633 10.743 15.789 10.743 25.881v88.442h9.723c4.139 0 7.513 3.344 7.513 7.512v26.957h3.628c11.396 0 21.772 4.648 29.283 12.16 7.512 7.512 12.189 17.888 12.189 29.311v85.891 20.238h28.29l13.691-213.024c-2.92-1.133-5.527-2.834-7.71-5.018-3.997-3.996-6.463-9.496-6.463-15.59 0-6.066 2.466-11.594 6.463-15.591 3.996-3.968 9.523-6.462 15.59-6.462zm45.666 14.995h-45.666c-1.928 0-3.685.793-4.988 2.098-1.276 1.275-2.069 3.033-2.069 4.961 0 1.955.793 3.713 2.069 4.988 1.304 1.275 3.061 2.07 4.988 2.07h45.666c1.928 0 3.686-.795 4.99-2.07 1.275-1.275 2.068-3.033 2.068-4.988 0-1.928-.793-3.686-2.068-4.961-1.305-1.305-3.063-2.098-4.99-2.098zm-172.858 58.622v-88.443c0-5.924-2.438-11.338-6.35-15.25-3.941-3.941-9.326-6.379-15.278-6.379h-146.155c-5.954 0-11.339 2.438-15.28 6.379-3.912 3.912-6.35 9.326-6.35 15.25v17.744h9.723c4.167 0 7.512 3.346 7.512 7.485v26.958h3.629c11.424 0 21.798 4.678 29.31 12.189 7.512 7.512 12.161 17.887 12.161 29.31v9.693 37.361 17.462l64.744 50.174v-43.994c0-11.424 4.678-21.8 12.189-29.311 7.512-7.512 17.887-12.16 29.283-12.16h3.628v-26.957c0-4.168 3.373-7.512 7.512-7.512h9.722zm17.236 14.994h-9.724-9.751v19.475h19.475zm-204.409-70.696h-9.723-9.751v19.446h19.474zm184.764 237.771h64.744v-12.727h-64.772c.028.227.028.453.028.68zm-176.912-83.424h-72.425v22.365h43.569zm-48.217 37.361h-24.208v18.766zm180.199-4.451 29.395 22.791h80.278v-23.84h-109.673zm0-53.404h109.674v-2.211c0-7.285-2.977-13.889-7.795-18.71-4.792-4.789-11.425-7.766-18.682-7.766-18.907 0-37.814 0-56.721 0-7.257 0-13.89 2.977-18.681 7.766-4.819 4.821-7.796 11.425-7.796 18.71v2.211zm109.674 14.996h-109.674v22.365h109.674zm-204.408-48.333v-22.365h-109.673v22.365zm0-37.389v-2.182c0-7.285-2.977-13.891-7.795-18.709-4.79-4.791-11.395-7.768-18.68-7.768-18.908 0-37.815 0-56.722 0-7.257 0-13.89 2.977-18.681 7.768-4.819 4.818-7.795 11.424-7.795 18.709v2.182z"/></g></svg>