<svg id="Capa_1" enable-background="new 0 0 512 512" height="512" viewBox="0 0 512 512" width="512" xmlns="http://www.w3.org/2000/svg"><g><g><path d="m424.579 10.488 52.102 30.075c3.175 1.844 4.962 5.188 4.962 8.617v60.267c0 3.939-2.268 7.369-5.614 8.986l-51.562 29.764c-3.23 1.869-7.086 1.729-10.063-.057l-52.102-30.076c-3.203-1.844-4.961-5.188-4.961-8.617h-.027v-60.266c0-3.939 2.295-7.369 5.613-8.984l51.56-29.765c3.233-1.871 7.088-1.731 10.092.056z" fill="#fff0af"/><path d="m457.376 29.422 19.305 11.142c3.175 1.844 4.962 5.188 4.962 8.617v60.267c0 3.939-2.268 7.369-5.614 8.986l-51.562 29.764c-3.23 1.869-7.086 1.729-10.063-.057l-19.418-11.197 53.065-32.57c5.527-2.693 9.326-8.334 9.326-14.911v-60.041z" fill="#ffe07d"/><path d="m424.579 363.859 52.102 30.105c3.175 1.842 4.962 5.158 4.962 8.588v60.294c0 3.941-2.268 7.342-5.614 8.957l-51.562 29.794c-3.23 1.871-7.086 1.701-10.063-.086l-52.102-30.075c-3.203-1.844-4.961-5.16-4.961-8.59h-.027v-60.294c0-3.939 2.295-7.342 5.613-8.957l51.56-29.793c3.233-1.868 7.088-1.699 10.092.057z" fill="#fff0af"/><path d="m424.579 187.173 52.102 30.076c3.175 1.844 4.962 5.188 4.962 8.618v60.266c0 3.97-2.268 7.37-5.614 8.985l-51.562 29.766c-3.23 1.869-7.086 1.729-10.063-.059l-52.102-30.074c-3.203-1.844-4.961-5.188-4.961-8.618h-.027v-60.266c0-3.94 2.295-7.343 5.613-8.958l51.56-29.793c3.233-1.869 7.088-1.728 10.092.057z" fill="#fff0af"/><path d="m457.376 206.138 19.305 11.111c3.175 1.844 4.962 5.188 4.962 8.618v60.266c0 3.97-2.268 7.37-5.614 8.985l-51.562 29.766c-3.23 1.869-7.086 1.729-10.063-.059l-19.418-11.195 53.065-32.571c5.527-2.693 9.326-8.334 9.326-14.883v-60.038z" fill="#ffe07d"/><path d="m457.376 382.824 19.305 11.141c3.175 1.842 4.962 5.158 4.962 8.588v60.294c0 3.941-2.268 7.342-5.614 8.957l-51.562 29.794c-3.23 1.871-7.086 1.701-10.063-.086l-19.418-11.195 53.065-32.571c5.527-2.666 9.326-8.334 9.326-14.883v-60.039z" fill="#ffe07d"/><g clip-rule="evenodd" fill-rule="evenodd"><path d="m59.442 504.518h171.017c16.018 0 29.113-13.125 29.113-29.142v-438.752c0-16.017-13.096-29.112-29.113-29.112h-171.017c-16.016 0-29.112 13.096-29.112 29.112v438.752c0 16.017 13.097 29.142 29.112 29.142z" fill="#b1e4f9"/><path d="m59.442 504.518h171.017c16.018 0 29.113-13.125 29.113-29.142v-438.752c0-14.372-10.518-26.392-24.266-28.716v423.786c0 26.703-21.827 48.558-48.53 48.558h-156.049c2.325 13.721 14.344 24.266 28.715 24.266z" fill="#90d8f9"/><path d="m79.993 7.512h129.914v497.006h-129.914z" fill="#0c5e7f"/><path d="m144.965 472.655c18.228 0 33.11-14.854 33.11-33.109 0-18.227-14.883-33.108-33.11-33.108-18.256 0-33.109 14.882-33.109 33.108-.001 18.256 14.853 33.109 33.109 33.109z" fill="#d57080"/><path d="m119.623 206.024h50.685c4.252 0 7.768 3.486 7.768 7.738v17.605c0 4.252-3.516 7.768-7.768 7.768h-50.685c-4.279 0-7.768-3.516-7.768-7.768v-17.605c0-4.251 3.489-7.738 7.768-7.738z" fill="#ffe07d"/><path d="m119.623 135.752h50.685c4.252 0 7.768 3.486 7.768 7.768v17.575c0 4.281-3.516 7.768-7.768 7.768h-50.685c-4.279 0-7.768-3.486-7.768-7.768v-17.575c0-4.282 3.489-7.768 7.768-7.768z" fill="#ffe07d"/><path d="m119.623 65.481h50.685c4.252 0 7.768 3.486 7.768 7.766v17.574c0 4.281-3.516 7.769-7.768 7.769h-50.685c-4.279 0-7.768-3.487-7.768-7.769v-17.574c0-4.279 3.489-7.766 7.768-7.766z" fill="#ffe07d"/><path d="m186.776 480.252h-106.783v24.266h129.914v-30.191c-6.887 3.77-14.767 5.925-23.131 5.925z" fill="#174b67"/></g></g><path d="m461.544 40.423c-3.572-2.07-4.791-6.633-2.723-10.235 2.07-3.57 6.633-4.789 10.205-2.721l16.386 9.47c2.324 1.332 3.742 3.797 3.77 6.463v71.831c0 2.947-1.729 5.527-4.223 6.746l-61.741 35.631c-2.408 1.389-5.301 1.275-7.569-.057l-62.105-35.857c-2.326-1.334-3.743-3.799-3.743-6.463v-28.406h-82.716v161.69h82.715v-28.403c0-2.977 1.702-5.557 4.224-6.746l61.711-35.631c2.439-1.418 5.329-1.305 7.569.027l16.299 9.41c3.572 2.07 4.791 6.662 2.723 10.234-2.07 3.57-6.635 4.791-10.205 2.721l-12.643-7.285-54.683 31.579v63.184l54.683 31.579 54.68-31.579v-63.184l-12.613-7.314c-3.572-2.07-4.791-6.635-2.723-10.205 2.07-3.572 6.633-4.818 10.205-2.721l16.386 9.438c2.324 1.334 3.742 3.799 3.77 6.492v71.803c0 2.949-1.729 5.529-4.223 6.748l-61.741 35.631c-2.408 1.418-5.301 1.305-7.569-.057l-62.105-35.859c-2.326-1.332-3.743-3.797-3.743-6.463v-28.403h-82.716v161.69h82.714v-28.403c0-2.977 1.702-5.527 4.224-6.746l61.711-35.633c2.439-1.416 5.329-1.303 7.569.029l16.299 9.41c3.572 2.07 4.791 6.662 2.723 10.234-2.07 3.57-6.635 4.791-10.205 2.721l-12.643-7.285-54.683 31.578v31.579 31.605l54.683 31.579 54.68-31.579v-63.185l-12.613-7.285c-3.572-2.068-4.791-6.662-2.723-10.232 2.07-3.572 6.633-4.791 10.205-2.723l16.386 9.439c2.324 1.361 3.742 3.799 3.77 6.492v71.802c0 2.977-1.729 5.527-4.223 6.748l-61.741 35.632c-2.408 1.418-5.301 1.303-7.569-.029l-62.105-35.888c-2.326-1.332-3.743-3.797-3.743-6.463v-28.402h-82.716v35.178c0 10.093-4.111 19.249-10.744 25.882-6.635 6.635-15.791 10.744-25.883 10.744-57.005 0-114.01 0-171.017 0-10.092 0-19.246-4.109-25.881-10.742-6.634-6.633-10.743-15.789-10.743-25.882v-202.398c0-4.137 3.373-7.482 7.512-7.482 4.14 0 7.483 3.346 7.483 7.482v202.398c0 5.954 2.439 11.368 6.379 15.28 3.912 3.912 9.326 6.35 15.25 6.35h13.039v-482.012h-13.039c-5.924 0-11.338 2.438-15.25 6.379-3.94 3.912-6.379 9.326-6.379 15.251v202.396c0 4.139-3.344 7.514-7.483 7.514s-7.512-3.375-7.512-7.514v-202.396c0-10.093 4.109-19.249 10.743-25.882 6.635-6.633 15.79-10.742 25.881-10.742h171.017c10.092 0 19.248 4.109 25.881 10.742s10.744 15.789 10.744 25.882v35.178h82.716v-28.403c0-2.949 1.702-5.529 4.224-6.748l61.71-35.631c2.439-1.389 5.329-1.275 7.569.057l16.299 9.412c3.572 2.068 4.791 6.633 2.723 10.232-2.07 3.572-6.635 4.791-10.205 2.721l-12.643-7.312-54.683 31.579v63.212l54.683 31.551 54.68-31.551v-63.213zm-51.903 372.817c-.795 4.054-4.707 6.69-8.789 5.897-4.053-.795-6.689-4.708-5.924-8.79 1.162-5.781 4.309-10.855 8.703-14.484 4.336-3.543 9.863-5.697 15.847-5.697 6.916 0 13.152 2.807 17.688 7.342 4.535 4.506 7.342 10.771 7.342 17.688 0 6.804-2.75 12.983-7.172 17.491 4.422 4.535 7.172 10.715 7.172 17.518 0 6.916-2.807 13.182-7.342 17.689-4.535 4.535-10.771 7.342-17.688 7.342-6.237 0-11.964-2.326-16.386-6.152-5.443-4.734-8.617-11.678-8.617-18.879 0-4.139 3.344-7.482 7.482-7.482 4.139 0 7.512 3.344 7.512 7.482 0 2.949 1.164 5.613 3.432 7.568 1.729 1.531 4.053 2.467 6.577 2.467 2.777 0 5.271-1.135 7.086-2.947 1.814-1.814 2.92-4.311 2.92-7.088 0-2.75-1.105-5.272-2.92-7.086-1.815-1.787-4.309-2.92-7.086-2.92v-14.996c2.777 0 5.271-1.133 7.086-2.947 1.814-1.785 2.92-4.309 2.92-7.06 0-2.777-1.105-5.272-2.92-7.086-1.815-1.815-4.309-2.949-7.086-2.949-2.438 0-4.649.852-6.35 2.268-1.759 1.417-3.034 3.458-3.487 5.811zm28.006-132.012c4.109-.057 7.512 3.26 7.539 7.369.057 4.14-3.23 7.513-7.369 7.569-.086 0-30.161.398-35.632-.34-5.473-.766-7.371-4.988-5.642-10.149.625-1.898 1.9-3.543 4.678-7.17 3.486-4.594 9.836-12.926 20.185-27.666 1.699-2.467 3.117-4.734 4.195-6.889 1.049-2.127 1.699-3.742 1.699-6.096 0-2.352-.764-4.449-2.125-6.037-1.361-1.615-3.289-2.75-5.557-3.117-2.722-.398-5.612.283-7.739 2.041-1.672 1.359-2.863 3.287-3.287 5.498-.795 4.082-4.734 6.719-8.789 5.924-4.082-.793-6.717-4.732-5.924-8.787 1.105-5.668 4.195-10.63 8.504-14.173 5.557-4.564 12.445-6.35 19.503-5.244 6.039.936 11.113 3.91 14.713 8.162 3.6 4.282 5.697 9.782 5.697 15.733 0 4.48-1.305 8.789-3.289 12.785-1.303 2.637-3.117 5.527-5.357 8.73-7.113 10.176-12.244 17.178-15.902 22.082 8.929-.084 19.843-.225 19.899-.225zm-25.485-228.645c-4.139 0-7.482-3.346-7.482-7.484 0-4.139 3.344-7.512 7.482-7.512h14.628c4.139 0 7.512 3.373 7.512 7.512v68.431c0 4.139-3.373 7.512-7.512 7.512s-7.482-3.373-7.482-7.512v-60.947zm-160.074-15.959c0-5.925-2.438-11.339-6.35-15.251-3.939-3.941-9.326-6.379-15.279-6.379h-13.04v482.012h13.04c5.953 0 11.34-2.438 15.279-6.35 3.912-3.912 6.35-9.326 6.35-15.28 0-146.24 0-292.512 0-438.752zm-140.233 21.373h66.22c4.139 0 7.482 3.346 7.482 7.484v33.109c0 4.139-3.344 7.512-7.482 7.512h-66.22c-4.166 0-7.512-3.373-7.512-7.512v-33.109c.001-4.138 3.346-7.484 7.512-7.484zm58.709 14.996h-51.224v18.113h51.224zm-58.709 55.247h66.22c4.139 0 7.482 3.373 7.482 7.512v33.11c0 4.139-3.344 7.482-7.482 7.482h-66.22c-4.166 0-7.512-3.344-7.512-7.482v-33.11c.001-4.139 3.346-7.512 7.512-7.512zm58.709 14.996h-51.224v18.114h51.224zm-58.709 55.277h66.22c4.139 0 7.482 3.344 7.482 7.512v33.11c0 4.137-3.344 7.482-7.482 7.482h-66.22c-4.166 0-7.512-3.346-7.512-7.482v-33.11c.001-4.169 3.346-7.512 7.512-7.512zm58.709 14.994h-51.224v18.114h51.224zm-25.599 185.446c11.197 0 21.347 4.535 28.689 11.877 7.369 7.372 11.904 17.518 11.904 28.716 0 11.225-4.535 21.373-11.904 28.715-7.342 7.371-17.491 11.907-28.689 11.907-11.225 0-21.373-4.536-28.715-11.907-7.369-7.342-11.906-17.49-11.906-28.715 0-11.197 4.537-21.344 11.906-28.716 7.342-7.342 17.49-11.877 28.715-11.877zm18.087 22.48c-4.622-4.622-11.028-7.483-18.087-7.483-7.086 0-13.492 2.861-18.113 7.483-4.648 4.648-7.512 11.055-7.512 18.113 0 7.088 2.863 13.494 7.512 18.113 4.621 4.648 11.027 7.512 18.113 7.512 7.059 0 13.465-2.863 18.087-7.512 4.648-4.619 7.512-11.025 7.512-18.113 0-7.059-2.864-13.465-7.512-18.113zm-75.574-406.439v482.012h114.947v-482.012z"/></g></svg>