<svg id="Capa_1" enable-background="new 0 0 512 512" height="512" viewBox="0 0 512 512" width="512" xmlns="http://www.w3.org/2000/svg"><g><g clip-rule="evenodd" fill-rule="evenodd"><path d="m256 7.513c8.107 0 14.712 6.604 14.712 14.711v467.552c0 8.107-6.605 14.74-14.712 14.74s-14.712-6.633-14.712-14.74v-467.552c0-8.107 6.605-14.711 14.712-14.711z" fill="#fed1a3"/><path d="m34.356 51.053h443.315c4.253 0 7.768 3.515 7.768 7.767v280.917c0 4.28-3.515 7.768-7.768 7.768h-443.315c-4.28 0-7.767-3.487-7.767-7.768v-280.917c0-4.252 3.487-7.767 7.767-7.767z" fill="#faf8f9"/><path d="m461.146 51.053h16.526c4.253 0 7.768 3.515 7.768 7.767v280.917c0 4.28-3.515 7.768-7.768 7.768h-443.316c-4.28 0-7.767-3.487-7.767-7.768v-16.497h410.292c13.352 0 24.265-10.943 24.265-24.265z" fill="#ede9fb"/><path d="m328.653 115.145 11.48 11.481c3.004 3.005 3.004 7.909.057 10.913l-6.775 6.775c8.136 11.424 13.776 24.69 16.186 39.09h9.496c4.28 0 7.768 3.486 7.768 7.767v16.214c0 4.28-3.487 7.768-7.768 7.768h-9.496c-2.409 14.399-8.05 27.667-16.186 39.09l6.719 6.689c3.004 3.09 3.032 7.937 0 10.998l-11.48 11.481c-3.005 3.005-7.909 3.005-10.914.057l-6.774-6.775c-11.424 8.135-24.69 13.777-39.091 16.186v9.496c0 4.28-3.486 7.767-7.767 7.767h-16.215c-4.28 0-7.767-3.486-7.767-7.767v-9.496c-14.4-2.409-27.667-8.051-39.091-16.186l-6.689 6.718c-3.033 3.005-7.966 3.005-10.999 0l-11.48-11.481c-3.004-3.033-3.004-7.965 0-10.998l6.719-6.689c-8.108-11.424-13.776-24.691-16.186-39.09h-9.496c-4.252 0-7.768-3.487-7.768-7.768v-16.214c0-4.28 3.516-7.767 7.768-7.767h9.496c2.409-14.4 8.078-27.666 16.186-39.09l-6.719-6.69c-3.004-3.032-3.004-7.965 0-10.998l11.48-11.481c3.033-3.005 7.966-3.005 10.999 0l6.689 6.719c11.424-8.107 24.69-13.776 39.091-16.187v-9.496c0-4.252 3.486-7.767 7.767-7.767h16.215c4.28 0 7.767 3.515 7.767 7.767v9.496c14.4 2.411 27.667 8.079 39.091 16.187l6.689-6.719c3.089-2.976 7.937-3.033 10.998 0z" fill="#0079a2"/><path d="m328.653 115.145 11.48 11.481c3.004 3.005 3.004 7.909.057 10.913l-6.775 6.775c8.136 11.424 13.776 24.69 16.186 39.09h9.496c4.28 0 7.768 3.486 7.768 7.767v16.214c0 4.28-3.487 7.768-7.768 7.768h-9.496c-2.409 14.399-8.05 27.667-16.186 39.09l6.719 6.689c3.004 3.09 3.032 7.937 0 10.998l-11.48 11.481c-3.005 3.005-7.909 3.005-10.914.057l-6.774-6.775c-11.424 8.135-24.69 13.777-39.091 16.186v9.496c0 4.28-3.486 7.767-7.767 7.767h-16.215c-4.28 0-7.767-3.486-7.767-7.767v-9.496c-14.4-2.409-27.667-8.051-39.091-16.186l-6.689 6.718c-3.033 3.005-7.966 3.005-10.999 0l-11.48-11.481c-3.004-3.033-3.004-7.965 0-10.998l6.492-6.463c15.25 10.261 33.619 16.242 53.377 16.242 52.866 0 95.699-42.86 95.699-95.698 0-19.758-5.982-38.126-16.243-53.378l6.463-6.491c3.089-2.975 7.937-3.032 10.998.001z" fill="#0c5e7f"/><path d="m256 252.23c29.168 0 52.952-23.784 52.952-52.952 0-29.169-23.784-52.952-52.952-52.952s-52.952 23.783-52.952 52.952 23.784 52.952 52.952 52.952z" fill="#0c5e7f"/><path d="m279.301 151.713c17.575 8.617 29.651 26.674 29.651 47.566 0 29.253-23.698 52.952-52.952 52.952-20.892 0-38.948-12.076-47.566-29.651 7.031 3.458 14.939 5.386 23.302 5.386 29.254 0 52.951-23.698 52.951-52.952-.001-8.363-1.928-16.272-5.386-23.301z" fill="#174b67"/><path d="m331.487 347.504 49.975 137.254c2.751 7.597-1.19 16.102-8.815 18.879-7.597 2.75-16.101-1.19-18.851-8.815l-53.631-147.318z" fill="#fed1a3"/><path d="m180.513 347.504-49.975 137.254c-2.751 7.597 1.19 16.102 8.815 18.879 7.597 2.75 16.101-1.19 18.851-8.815l53.631-147.318z" fill="#fed1a3"/><path d="m93.176 310.142c18.766 0 34.072-15.307 34.072-34.073s-15.307-34.072-34.072-34.072-34.072 15.307-34.072 34.072c0 18.766 15.306 34.073 34.072 34.073z" fill="#b1e4f9"/><path d="m418.824 156.56c18.766 0 34.072-15.307 34.072-34.073s-15.307-34.073-34.072-34.073c-18.766 0-34.072 15.307-34.072 34.073 0 18.765 15.307 34.073 34.072 34.073z" fill="#b1e4f9"/><path d="m418.824 156.56c-15.817 0-29.112-10.772-32.967-25.371 2.777.709 5.697 1.105 8.702 1.105 18.822 0 34.072-15.25 34.072-34.073 0-3.005-.396-5.896-1.134-8.674 14.627 3.827 25.399 17.121 25.399 32.939.001 18.823-15.249 34.074-34.072 34.074z" fill="#90d8f9"/><path d="m93.176 310.142c-15.817 0-29.111-10.771-32.938-25.398 2.778.737 5.669 1.134 8.674 1.134 18.822 0 34.073-15.25 34.073-34.073 0-3.005-.397-5.924-1.105-8.702 14.598 3.855 25.369 17.15 25.369 32.967-.001 18.822-15.251 34.072-34.073 34.072z" fill="#90d8f9"/><path d="m203.02 371.769 8.816-24.265h-31.322l-8.845 24.265zm97.145-24.265 8.844 24.265h31.323l-8.845-24.265zm-58.877 0v24.265h29.424v-24.265z" fill="#ffbc85"/></g><path d="m34.072 284.404c0 4.139-3.345 7.512-7.483 7.512-4.139 0-7.512-3.373-7.512-7.512v-233.351c0-4.139 3.373-7.483 7.512-7.483h207.188v-21.346c0-6.122 2.494-11.679 6.52-15.704 4.024-4.025 9.58-6.52 15.703-6.52s11.679 2.495 15.704 6.521c4.025 4.024 6.52 9.581 6.52 15.704v21.345h207.216c4.138 0 7.483 3.345 7.483 7.483v29.14c0 4.139-3.346 7.483-7.483 7.483-4.167 0-7.513-3.345-7.513-7.483v-21.628c-147.941 0-295.912 0-443.854 0v225.839zm351.217-137.341-15.732 7.626c-3.713 1.785-8.192.227-10.006-3.487-1.786-3.742-.227-8.22 3.486-10.006l15.704-7.597c-.964-3.544-1.502-7.257-1.502-11.112 0-11.48 4.677-21.855 12.189-29.396 7.512-7.512 17.915-12.16 29.395-12.16s21.883 4.648 29.395 12.16c7.512 7.541 12.189 17.916 12.189 29.396s-4.678 21.884-12.189 29.396c-7.512 7.54-17.914 12.189-29.395 12.189-11.48 0-21.884-4.648-29.395-12.189-1.501-1.502-2.891-3.118-4.139-4.82zm-258.551 104.43 15.705-7.597c3.741-1.814 8.192-.255 10.006 3.486 1.786 3.714.228 8.192-3.486 9.979l-15.704 7.597c.964 3.543 1.502 7.257 1.502 11.111 0 11.481-4.648 21.856-12.189 29.396-7.512 7.512-17.915 12.16-29.396 12.16s-21.854-4.648-29.394-12.16c-7.513-7.54-12.161-17.915-12.161-29.396 0-11.48 4.649-21.883 12.161-29.396 7.54-7.54 17.914-12.188 29.394-12.188s21.884 4.648 29.396 12.188c1.501 1.504 2.891 3.119 4.166 4.82zm273.292-110.212c4.819 4.818 11.452 7.795 18.794 7.795s13.975-2.977 18.793-7.795c4.791-4.791 7.768-11.452 7.768-18.794s-2.977-13.975-7.768-18.794c-4.818-4.79-11.451-7.767-18.793-7.767s-13.975 2.977-18.794 7.767c-4.79 4.82-7.767 11.453-7.767 18.794.001 7.342 2.977 14.003 7.767 18.794zm-288.06 115.994c-4.819-4.818-11.452-7.795-18.794-7.795s-13.975 2.977-18.793 7.795c-4.791 4.819-7.768 11.452-7.768 18.794s2.977 13.975 7.768 18.794c4.818 4.79 11.451 7.767 18.793 7.767s13.975-2.977 18.794-7.767c4.819-4.819 7.795-11.452 7.795-18.794 0-7.341-2.976-13.974-7.795-18.794zm73.759 97.712-48.162 132.323c-.652 1.842-.51 3.827.283 5.528 1.701 3.656 5.925 5.188 9.582 3.486 2.438-1.134 2.947-2.409 3.968-4.592l49.748-136.745zm-62.222 127.22 46.319-127.22h-143.237c-4.139 0-7.512-3.345-7.512-7.483v-29.113c0-4.167 3.373-7.512 7.512-7.512s7.483 3.345 7.483 7.512v21.601h443.854v-225.839c0-4.139 3.346-7.484 7.513-7.484 4.138 0 7.483 3.345 7.483 7.484v233.351c0 4.139-3.346 7.483-7.483 7.483h-143.265l46.319 127.22c2.098 5.754 1.645 11.821-.737 16.952-2.409 5.159-6.775 9.411-12.558 11.509-5.698 1.928-11.452 1.813-16.951-.766-5.159-2.381-9.383-6.746-11.48-12.529l-51.818-142.386h-16.725v46.659c0 4.139-3.345 7.512-7.512 7.512-4.139 0-7.483-3.373-7.483-7.512v-46.659h-14.457v134.789c0 1.984.822 3.799 2.126 5.103 1.333 1.304 3.118 2.126 5.102 2.126s3.799-.822 5.103-2.126 2.126-3.118 2.126-5.103v-54.143c0-4.139 3.345-7.512 7.483-7.512 4.167 0 7.512 3.373 7.512 7.512v54.143c0 6.123-2.494 11.679-6.52 15.704s-9.581 6.52-15.704 6.52-11.679-2.494-15.704-6.52-6.52-9.581-6.52-15.704v-134.789h-16.696l-51.847 142.386c-2.098 5.783-6.321 10.149-11.48 12.529-5.13 2.409-11.196 2.835-16.951.766-5.471-1.871-10.12-6.293-12.529-11.509-2.411-5.131-2.835-11.198-.766-16.952zm250.926 5.103-48.161-132.323h-15.42l49.776 136.745c.992 2.183 1.53 3.458 3.94 4.592 3.657 1.701 7.881.17 9.582-3.486.792-1.701.962-3.686.283-5.528zm-125.662-443.74h14.457v-21.346c0-1.984-.822-3.77-2.126-5.102-1.333-1.305-3.118-2.126-5.103-2.126s-3.77.821-5.102 2.126c-1.304 1.332-2.126 3.118-2.126 5.102zm7.229 95.245c16.696 0 31.805 6.775 42.746 17.716 10.943 10.942 17.718 26.051 17.718 42.747 0 16.695-6.774 31.805-17.718 42.747-10.941 10.941-26.05 17.717-42.746 17.717s-31.805-6.775-42.746-17.717c-10.943-10.942-17.718-26.051-17.718-42.747 0-16.697 6.774-31.805 17.718-42.747 10.941-10.942 26.05-17.716 42.746-17.716zm32.145 28.318c-8.22-8.22-19.587-13.322-32.145-13.322s-23.925 5.103-32.145 13.322c-8.221 8.221-13.324 19.588-13.324 32.146s5.104 23.924 13.324 32.145 19.587 13.324 32.145 13.324 23.925-5.103 32.145-13.324c8.221-8.221 13.324-19.587 13.324-32.145s-5.104-23.925-13.324-32.146zm21.856-54.908 7.852-7.852c2.92-2.948 7.683-2.948 10.602 0l22.479 22.451c2.919 2.92 2.919 7.683 0 10.602l-7.881 7.881c2.92 4.677 5.471 9.638 7.597 14.797 2.098 5.073 3.827 10.374 5.074 15.789h11.141c4.139 0 7.483 3.373 7.483 7.512v31.749c0 4.167-3.345 7.512-7.483 7.512h-11.141c-1.247 5.442-2.977 10.715-5.074 15.79-2.126 5.159-4.677 10.119-7.597 14.797l7.881 7.88c2.919 2.92 2.919 7.682 0 10.602l-22.479 22.479c-2.919 2.92-7.682 2.92-10.602 0l-7.88-7.88c-4.677 2.92-9.638 5.471-14.798 7.597-5.074 2.098-10.347 3.827-15.789 5.074v11.14c0 4.139-3.345 7.483-7.512 7.483h-31.748c-4.139 0-7.512-3.345-7.512-7.483v-11.14c-5.414-1.247-10.715-2.977-15.789-5.074-5.16-2.126-10.121-4.677-14.798-7.597l-7.88 7.88c-2.92 2.92-7.683 2.92-10.602 0l-22.451-22.479c-2.947-2.92-2.947-7.682 0-10.602l7.853-7.852c-2.92-4.706-5.442-9.666-7.597-14.825-2.098-5.075-3.799-10.347-5.074-15.79h-11.141c-4.139 0-7.483-3.345-7.483-7.512v-31.749c0-4.139 3.345-7.512 7.483-7.512h11.141c1.275-5.415 2.977-10.716 5.074-15.789 2.154-5.159 4.677-10.12 7.597-14.797l-7.853-7.881c-2.947-2.919-2.947-7.682 0-10.602l22.451-22.451c2.919-2.948 7.682-2.948 10.602 0l7.88 7.852c4.677-2.919 9.638-5.443 14.798-7.597 5.074-2.098 10.375-3.798 15.789-5.074v-11.14c0-4.139 3.373-7.483 7.512-7.483h31.748c4.167 0 7.512 3.345 7.512 7.483v11.14c5.442 1.276 10.715 2.977 15.789 5.074 5.16 2.154 10.121 4.678 14.826 7.597zm13.152 8.051-6.888 6.889c-2.522 2.522-6.604 2.947-9.638.793-5.329-3.798-11.057-6.973-17.15-9.496-5.812-2.409-11.963-4.224-18.369-5.329-3.77-.396-6.718-3.6-6.718-7.455v-9.751h-16.781v9.751c.028 3.601-2.607 6.776-6.265 7.371-6.576 1.105-12.869 2.948-18.822 5.414-5.924 2.438-11.51 5.528-16.725 9.185-2.92 2.437-7.313 2.268-10.063-.481l-6.888-6.889-11.85 11.849 6.889 6.889c2.523 2.551 2.948 6.633.794 9.638-3.799 5.33-6.974 11.055-9.496 17.15-2.41 5.812-4.224 11.962-5.329 18.396-.398 3.771-3.601 6.69-7.455 6.69h-9.752v16.782h9.752c3.6 0 6.774 2.607 7.37 6.265 1.105 6.576 2.947 12.869 5.414 18.821 2.438 5.925 5.527 11.509 9.184 16.725 2.438 2.948 2.268 7.313-.482 10.063l-6.889 6.888 11.85 11.849 6.831-6.831c2.579-2.58 6.689-2.977 9.694-.851 5.329 3.799 11.085 7.002 17.15 9.497 5.811 2.409 11.963 4.224 18.397 5.329 3.77.397 6.689 3.6 6.689 7.455v9.751h16.781v-9.751c0-3.571 2.607-6.746 6.265-7.37 6.576-1.105 12.869-2.948 18.822-5.414 5.924-2.438 11.51-5.528 16.725-9.185 2.948-2.438 7.314-2.268 10.064.482l6.888 6.888 11.85-11.849-6.889-6.888c-2.522-2.523-2.92-6.605-.794-9.639 3.799-5.329 7.002-11.055 9.496-17.15 2.41-5.811 4.224-11.962 5.329-18.368.397-3.771 3.601-6.718 7.455-6.718h9.752v-16.782h-9.752c-3.571.028-6.746-2.608-7.369-6.265-1.106-6.576-2.948-12.869-5.415-18.822-2.438-5.925-5.527-11.509-9.184-16.725-2.439-2.92-2.269-7.314.481-10.063l6.889-6.889z"/></g></svg>