<svg id="Capa_1" enable-background="new 0 0 512 512" height="512" viewBox="0 0 512 512" width="512" xmlns="http://www.w3.org/2000/svg"><g><g><path d="m234.06 228.433c41.528 71.944 82.433 142.697 123.988 214.67 8.107 14.031 3.346 31.976-10.687 40.083-4.478 2.608-9.524 4.025-14.712 4.025h-295.742c-16.242 0-29.396-13.153-29.396-29.397 0-6.094 1.843-11.764 5.018-16.469 40.877-70.782 82.065-142.017 122.912-212.799 2.892-4.309 3.969-8.362 3.884-14.484v-157.439l38.551-9.694 52.301 9.694v157.324c-.029 6.265 1.048 9.525 3.883 14.486z" fill="#b1e4f9"/><g clip-rule="evenodd" fill-rule="evenodd"><path d="m205.911 104.954v108.993c0 10.262 2.012 17.802 7.116 26.618 24.009 41.612 48.019 83.197 72.057 124.782 7.455-1.305 14.91-5.755 22.366-9.837-24.407-42.265-48.786-84.474-73.391-127.078-2.835-4.961-3.911-8.221-3.883-14.485v-157.324h-24.266v24.292 24.039z" fill="#90d8f9"/><path d="m139.325 56.623h90.852c8.759 0 15.931-7.144 15.931-15.904 0-8.758-7.172-15.93-15.931-15.93h-90.852c-8.76 0-15.903 7.172-15.903 15.93 0 8.76 7.143 15.904 15.903 15.904z" fill="#90d8f9"/><path d="m62.08 355.539c-16.498 28.602-33.024 57.204-49.551 85.806-3.175 4.705-5.018 10.375-5.018 16.469 0 16.244 13.153 29.397 29.396 29.397h295.742.057c5.159 0 10.205-1.446 14.655-4.025 14.032-8.107 18.794-26.052 10.687-40.083-16.865-29.197-33.733-58.396-50.598-87.592-8.817 4.819-17.661 10.177-26.505 10.177-16.016 0-32.061-17.66-48.105-17.66-16.016 0-32.061 17.66-48.076 17.66-16.045 0-32.088-17.66-48.104-17.66-16.045 0-32.089 17.66-48.104 17.66-8.816 0-17.632-5.331-26.476-10.149z" fill="#95d6a4"/><path d="m307.45 355.511c-7.456 4.082-14.911 8.532-22.366 9.837 12.557 21.742 25.143 43.483 37.701 65.226 6.974 11.905 3.231 32.371-17.008 32.371h-145.788-123.082-28.969c2.438 13.806 14.485 24.267 28.97 24.267h295.742c5.188 0 10.233-1.418 14.712-4.025 14.032-8.107 18.794-26.052 10.687-40.083z" fill="#78c2a4"/><path d="m136.66 418.384c9.95 0 18.058-8.106 18.058-18.057 0-9.949-8.107-18.058-18.058-18.058s-18.086 8.108-18.086 18.058 8.136 18.057 18.086 18.057z" fill="#b3e59f"/><path d="m232.841 460.933c9.95 0 18.085-8.107 18.085-18.057s-8.135-18.086-18.085-18.086c-9.949 0-18.057 8.136-18.057 18.086 0 9.949 8.108 18.057 18.057 18.057z" fill="#b3e59f"/><path d="m472.399 24.789h-111.431c-17.66 0-32.116 14.457-32.116 32.117v169.315c0 17.688 14.456 32.116 32.116 32.116h111.432c17.66 0 32.117-14.429 32.117-32.116v-169.315c0-17.66-14.457-32.117-32.118-32.117z" fill="#ffefd6"/><path d="m441.416 234.073h-111.601c3.543 13.918 16.186 24.265 31.152 24.265h111.432c17.66 0 32.117-14.429 32.117-32.116v-169.316c0-14.968-10.375-27.61-24.265-31.154v169.514c.001 21.346-17.49 38.807-38.835 38.807z" fill="#ffe6c1"/></g></g><path d="m146.837 122.245c0 4.139-3.345 7.513-7.512 7.513-4.139 0-7.483-3.374-7.483-7.513v-59.357c-3.459-1.162-6.549-3.119-9.044-5.641-4.252-4.225-6.888-10.092-6.888-16.528 0-6.463 2.636-12.33 6.888-16.554 4.224-4.252 10.093-6.888 16.527-6.888h90.852c6.434 0 12.302 2.636 16.554 6.888 4.224 4.224 6.86 10.091 6.86 16.554 0 10.263-6.69 19.022-15.931 22.169v156.843l28.856 49.946c2.069 3.572.851 8.164-2.722 10.232-3.6 2.07-8.163.852-10.232-2.721l-29.622-51.279c-.794-1.189-1.276-2.636-1.276-4.195v-17.434h-21.175c-4.139 0-7.484-3.345-7.484-7.483 0-4.139 3.346-7.512 7.484-7.512h21.175v-21.09h-21.175c-4.139 0-7.484-3.373-7.484-7.512s3.346-7.483 7.484-7.483h21.175v-21.118h-21.175c-4.139 0-7.484-3.345-7.484-7.484s3.346-7.512 7.484-7.512h21.175v-21.09h-21.175c-4.139 0-7.484-3.373-7.484-7.512s3.346-7.483 7.484-7.483h21.175v-16.866h-75.827zm218.383-27.326c-4.139 0-7.483-3.373-7.483-7.512s3.345-7.483 7.483-7.483h102.899c4.139 0 7.513 3.345 7.513 7.483 0 4.139-3.374 7.512-7.513 7.512zm0 108.312c-4.139 0-7.483-3.373-7.483-7.512s3.345-7.512 7.483-7.512h73.078c4.139 0 7.512 3.373 7.512 7.512s-3.373 7.512-7.512 7.512zm0-36.113c-4.139 0-7.483-3.373-7.483-7.512s3.345-7.483 7.483-7.483h102.899c4.139 0 7.513 3.345 7.513 7.483 0 4.139-3.374 7.512-7.513 7.512zm0-36.113c-4.139 0-7.483-3.346-7.483-7.484s3.345-7.512 7.483-7.512h102.899c4.139 0 7.513 3.373 7.513 7.512s-3.374 7.484-7.513 7.484zm146.78-6.436c0 4.14-3.345 7.513-7.483 7.513s-7.512-3.373-7.512-7.513v-67.663c0-6.774-2.778-12.926-7.229-17.377-4.478-4.479-10.63-7.257-17.377-7.257h-111.431c-6.774 0-12.926 2.778-17.376 7.257-4.479 4.451-7.257 10.603-7.257 17.377v169.315c0 6.775 2.777 12.926 7.257 17.404 4.45 4.451 10.602 7.229 17.376 7.229h111.432c6.747 0 12.898-2.777 17.377-7.229 4.45-4.479 7.229-10.629 7.229-17.404v-67.664c0-4.139 3.373-7.512 7.512-7.512s7.483 3.373 7.483 7.512v67.664c0 10.913-4.45 20.834-11.622 28.006s-17.093 11.623-27.978 11.623h-111.433c-10.913 0-20.807-4.451-27.978-11.623-7.2-7.172-11.65-17.093-11.65-28.006v-77.16h-54.483c-4.138 0-7.512-3.345-7.512-7.483 0-4.167 3.374-7.512 7.512-7.512h54.483v-77.16c0-10.913 4.45-20.807 11.65-28.008 7.171-7.171 17.064-11.621 27.978-11.621h111.432c10.886 0 20.807 4.45 27.978 11.621 7.172 7.202 11.622 17.095 11.622 28.008zm-279.159 292.739c7.059 0 13.465 2.862 18.085 7.482 4.621 4.621 7.483 11.027 7.483 18.086 0 7.058-2.862 13.435-7.483 18.057-4.62 4.648-11.026 7.513-18.085 7.513-7.058 0-13.437-2.864-18.057-7.513-4.621-4.621-7.484-10.999-7.484-18.057 0-7.059 2.863-13.465 7.484-18.086 4.62-4.62 10.999-7.482 18.057-7.482zm7.483 18.084c-1.898-1.898-4.564-3.09-7.483-3.09-2.892 0-5.556 1.191-7.455 3.09-1.928 1.928-3.09 4.564-3.09 7.484s1.162 5.556 3.09 7.455c1.9 1.928 4.564 3.09 7.455 3.09 2.92 0 5.585-1.162 7.483-3.09 1.899-1.899 3.09-4.535 3.09-7.455s-1.19-5.557-3.09-7.484zm-103.664-60.634c7.059 0 13.436 2.863 18.058 7.483 4.648 4.621 7.482 11.027 7.482 18.086s-2.834 13.437-7.482 18.057c-4.621 4.649-10.999 7.512-18.058 7.512-7.058 0-13.465-2.862-18.086-7.512-4.62-4.62-7.483-10.998-7.483-18.057s2.863-13.465 7.483-18.086c4.621-4.62 11.028-7.483 18.086-7.483zm7.455 18.087c-1.899-1.9-4.535-3.09-7.455-3.09-2.919 0-5.556 1.189-7.483 3.09-1.9 1.927-3.091 4.562-3.091 7.482s1.191 5.557 3.091 7.455c1.928 1.928 4.564 3.09 7.483 3.09 2.92 0 5.556-1.162 7.455-3.09 1.928-1.898 3.09-4.535 3.09-7.455s-1.162-5.555-3.09-7.482zm160.529-27.243c-7.569 4.055-15.251 7.598-23.698 7.598-9.922 0-18.766-4.876-27.639-9.779-7.171-3.94-14.343-7.881-20.466-7.881-6.095 0-13.267 3.94-20.439 7.881-8.872 4.903-17.745 9.779-27.638 9.779-9.922 0-18.794-4.876-27.666-9.779-7.172-3.94-14.344-7.881-20.438-7.881-6.122 0-13.295 3.94-20.467 7.881-8.844 4.903-17.717 9.779-27.638 9.779-8.419 0-16.101-3.516-23.642-7.568-15.25 26.362-30.473 52.753-45.694 79.116-2.608 5.073-4.225 6.944-4.225 13.066 0 6.039 2.467 11.511 6.436 15.478 3.968 3.969 9.439 6.435 15.476 6.435h295.742c1.899 0 3.77-.227 5.585-.736 7.483-2.041 13.521-7.966 15.533-15.535 1.814-6.747.454-11.083-2.466-17.093-15.561-26.93-31.094-53.859-46.656-80.761zm-232.246-12.954c5.697 3.032 11.253 5.555 16.157 5.555 6.123 0 13.267-3.939 20.438-7.908 8.872-4.875 17.745-9.751 27.667-9.751s18.766 4.876 27.638 9.751c7.172 3.969 14.344 7.908 20.467 7.908 6.094 0 13.266-3.939 20.438-7.908 8.874-4.875 17.746-9.751 27.639-9.751 9.921 0 18.794 4.876 27.666 9.751 7.172 3.969 14.344 7.908 20.439 7.908 4.903 0 10.488-2.551 16.214-5.584l-26.589-46.006c-2.069-3.6-.851-8.164 2.721-10.234 3.572-2.069 8.136-.851 10.205 2.723 27.015 46.743 54.029 93.487 81.015 140.259 4.876 8.703 6.322 18.227 3.742 27.892-3.458 12.928-13.408 22.679-26.078 26.165-3.119.822-6.293 1.305-9.525 1.305h-295.745c-10.176 0-19.417-4.139-26.078-10.828-6.69-6.663-10.829-15.905-10.829-26.081 0-7.228 2.239-14.569 6.265-20.551 41.841-72.482 83.708-144.938 125.577-217.419v-63.61c0-4.167 3.345-7.513 7.483-7.513 4.167 0 7.512 3.346 7.512 7.513v65.595c0 1.275-.34 2.579-1.02 3.741-24.464 42.378-48.927 84.729-73.419 127.078zm66.927-303.508h90.852c4.62 0 8.419-3.799 8.419-8.421 0-2.324-.964-4.422-2.495-5.952-1.53-1.53-3.628-2.494-5.924-2.494h-90.852c-2.296 0-4.394.964-5.925 2.494-1.53 1.53-2.494 3.628-2.494 5.952 0 2.298.964 4.396 2.494 5.927 1.532 1.53 3.629 2.494 5.925 2.494z"/></g></svg>