<svg id="Capa_1" enable-background="new 0 0 512 512" height="512" viewBox="0 0 512 512" width="512" xmlns="http://www.w3.org/2000/svg"><g><g clip-rule="evenodd" fill-rule="evenodd"><path d="m7.512 303.439h497.005v29.141h-497.005z" fill="#0079a2"/><path d="m150.663 401.008h210.701v48.445h-210.701z" fill="#0c5e7f"/><path d="m463.866 184.127v148.453c0 42.917-35.121 78.039-78.065 78.039h-259.602c-42.916 0-78.065-35.122-78.065-78.039v-148.453l207.866-14.542z" fill="#0c5e7f"/><path d="m463.866 184.127v148.453c0 42.917-35.121 78.039-78.065 78.039h-259.602c-22.139 0-42.207-9.327-56.438-24.265h262.52c59.018 0 107.32-48.303 107.32-107.321v-94.905h24.265z" fill="#174b67"/><path d="m121.977 155.015 118.801-118.801c10.261-10.262 27.042-10.262 37.304 0l118.802 118.801-127.532 12.217z" fill="#da8993"/><path d="m247.298 31.451c9.921-5.131 22.507-3.544 30.784 4.762l118.802 118.801h-24.266l-118.801-118.8c-1.956-1.956-4.167-3.544-6.519-4.763z" fill="#d57080"/><path d="m301.44 155.015 59.329-59.33c5.131-5.131 13.521-5.131 18.651 0l59.331 59.33-67.494 13.408z" fill="#ffefd6"/><path d="m357.963 98.491 2.807-2.807c5.131-5.131 13.521-5.131 18.651 0l59.331 59.33h-24.265z" fill="#ffe6c1"/><path d="m66.077 155.015 82.545-82.546c7.143-7.143 18.795-7.143 25.938 0l82.546 82.546-97.258 10.488z" fill="#fed1a3"/><path d="m149.444 71.676c7.2-6.321 18.256-6.066 25.115.793l82.546 82.546h-24.265l-82.546-82.546c-.282-.283-.565-.539-.85-.793z" fill="#ffbc85"/><path d="m48.134 155.015h415.732c8.023 0 14.571 6.548 14.571 14.57 0 7.994-6.548 14.542-14.571 14.542h-415.732c-7.995 0-14.543-6.548-14.543-14.542 0-8.022 6.548-14.57 14.543-14.57z" fill="#0079a2"/><path d="m189.102 410.618h133.825v24.265h-133.825z" fill="#0079a2"/><path d="m150.663 483.497c29.424 0 53.434-24.01 53.434-53.462 0-29.453-24.01-53.462-53.434-53.462-29.452 0-53.462 24.009-53.462 53.462s24.01 53.462 53.462 53.462z" fill="#faf8f9"/><path d="m361.364 483.497c29.453 0 53.463-24.01 53.463-53.462 0-29.453-24.01-53.462-53.463-53.462-29.451 0-53.461 24.009-53.461 53.462s24.01 53.462 53.461 53.462z" fill="#faf8f9"/><path d="m413.439 417.903c.907 3.883 1.389 7.965 1.389 12.132 0 29.509-23.952 53.462-53.463 53.462-29.537 0-53.461-23.953-53.461-53.462 0-4.167.482-8.249 1.389-12.132 5.5 23.669 26.73 41.33 52.072 41.33s46.575-17.66 52.074-41.33z" fill="#ede9fb"/><path d="m202.708 417.903c.906 3.883 1.389 7.965 1.389 12.132 0 29.509-23.924 53.462-53.434 53.462-29.537 0-53.462-23.953-53.462-53.462 0-4.167.482-8.249 1.389-12.132 5.471 23.669 26.703 41.33 52.073 41.33 25.342 0 46.574-17.66 52.045-41.33z" fill="#ede9fb"/><g fill="#0c5e7f"><path d="m150.663 449.453c10.688 0 19.39-8.731 19.39-19.417 0-10.687-8.702-19.418-19.39-19.418-10.715 0-19.417 8.731-19.417 19.418 0 10.686 8.702 19.417 19.417 19.417z"/><path d="m361.364 449.453c10.688 0 19.418-8.731 19.418-19.417 0-10.687-8.73-19.418-19.418-19.418-10.686 0-19.417 8.731-19.417 19.418 0 10.686 8.732 19.417 19.417 19.417z"/></g></g><path d="m328.852 462.521c8.334 8.334 19.813 13.464 32.513 13.464 12.699 0 24.181-5.13 32.486-13.464 8.334-8.306 13.465-19.786 13.465-32.485s-5.131-24.18-13.465-32.486c-8.306-8.333-19.787-13.464-32.486-13.464s-24.179 5.131-32.513 13.464c-8.646 8.646-13.437 20.269-13.437 32.486s4.791 23.839 13.437 32.485zm-159.593-384.751c-2.098-2.098-4.875-3.146-7.682-3.146-2.778 0-5.557 1.049-7.654 3.146l-69.761 69.733h154.83c-23.244-23.244-46.489-46.489-69.733-69.733zm20.296-.935 45.923-45.922c6.605-6.605 15.278-9.894 23.952-9.894s17.377 3.289 23.953 9.894l16.215 16.214c2.948 2.92 2.948 7.682 0 10.601-2.92 2.948-7.654 2.948-10.603 0l-16.214-16.214c-3.656-3.657-8.504-5.499-13.352-5.499-4.847 0-9.694 1.842-13.351 5.499l-45.923 45.95 60.067 60.038h38.126l40.225-40.224-25.54-25.512c-2.948-2.948-2.948-7.682 0-10.602 2.92-2.948 7.682-2.948 10.602 0l25.54 25.512 6.293-6.293c4.025-4.025 9.326-6.066 14.627-6.066s10.602 2.041 14.627 6.066l57.146 57.119h21.997c6.067 0 11.595 2.495 15.592 6.492s6.463 9.496 6.463 15.591c0 6.066-2.466 11.594-6.463 15.562-2.268 2.268-5.018 4.054-8.078 5.159v105.648h25.625v-7.852c0-4.139 3.373-7.483 7.512-7.483s7.483 3.345 7.483 7.483v59.812c0 4.138-3.345 7.483-7.483 7.483s-7.512-3.345-7.512-7.483v-7.852h-25.966c-1.389 15.874-7.173 30.529-16.13 42.775-9.043 12.387-21.316 22.252-35.547 28.375 1.928 5.924 2.948 12.246 2.948 18.822 0 16.838-6.832 32.06-17.858 43.115-11.026 11.027-26.25 17.83-43.088 17.83s-32.088-6.803-43.114-17.83c-4.677-4.706-8.617-10.176-11.594-16.214h-33.677c-4.139 0-7.483-3.345-7.483-7.484s3.345-7.512 7.483-7.512h28.603c-.766-3.855-1.162-7.824-1.162-11.905 0-4.082.397-8.051 1.162-11.906h-91.136c.766 3.855 1.162 7.824 1.162 11.906 0 4.081-.396 8.05-1.162 11.905h28.574c4.139 0 7.512 3.374 7.512 7.512 0 4.139-3.373 7.484-7.512 7.484h-33.677c-2.948 6.038-6.888 11.508-11.594 16.214-11.026 11.027-26.276 17.83-43.087 17.83-16.837 0-32.089-6.803-43.115-17.83-11.026-11.055-17.858-26.277-17.858-43.115 0-6.577 1.049-12.898 2.977-18.822-14.259-6.123-26.532-15.988-35.575-28.375-8.929-12.246-14.713-26.901-16.13-42.775h-25.965v7.852c0 4.138-3.345 7.483-7.483 7.483s-7.512-3.345-7.512-7.483c0-19.956 0-39.884 0-59.812 0-4.139 3.374-7.483 7.512-7.483 4.139 0 7.483 3.345 7.483 7.483v7.852h25.654v-105.648c-3.062-1.106-5.84-2.891-8.079-5.159-3.997-3.968-6.491-9.496-6.491-15.562 0-6.095 2.494-11.594 6.491-15.591 3.969-3.997 9.496-6.492 15.563-6.492h14.825l80.362-80.334c5.018-5.046 11.65-7.569 18.256-7.569 6.633 0 13.237 2.523 18.283 7.569zm176.544 24.151-11.622 11.622-34.923 34.895h101.112l-46.546-46.517c-1.105-1.105-2.551-1.644-4.024-1.644-1.447 0-2.92.538-3.997 1.644zm-325.45 209.964h-25.654v14.117h25.654zm456.356 0h-25.625v14.117h25.625zm-135.641 92.184c7.428 0 14.146 3.005 19.021 7.881 4.876 4.847 7.881 11.594 7.881 19.021s-3.005 14.173-7.881 19.02c-4.876 4.876-11.594 7.881-19.021 7.881-7.426 0-14.173-3.005-19.049-7.881-4.847-4.848-7.88-11.594-7.88-19.02 0-7.427 3.033-14.173 7.88-19.021 4.876-4.876 11.624-7.881 19.049-7.881zm8.42 18.482c-2.154-2.154-5.131-3.487-8.42-3.487-3.287 0-6.264 1.333-8.418 3.487s-3.487 5.131-3.487 8.419 1.333 6.265 3.487 8.419 5.131 3.486 8.418 3.486c3.289 0 6.266-1.332 8.42-3.486s3.486-5.131 3.486-8.419c.001-3.288-1.331-6.264-3.486-8.419zm-219.121-18.482c7.428 0 14.145 3.005 19.021 7.881 4.875 4.847 7.88 11.594 7.88 19.021s-3.005 14.173-7.88 19.02c-4.876 4.876-11.594 7.881-19.021 7.881-7.455 0-14.173-3.005-19.049-7.881-4.876-4.848-7.881-11.594-7.881-19.02 0-7.427 3.005-14.173 7.881-19.021 4.876-4.876 11.594-7.881 19.049-7.881zm8.42 18.482c-2.154-2.154-5.131-3.487-8.42-3.487-3.316 0-6.293 1.333-8.447 3.487s-3.486 5.131-3.486 8.419 1.332 6.265 3.486 8.419 5.131 3.486 8.447 3.486c3.289 0 6.266-1.332 8.42-3.486s3.486-5.131 3.486-8.419-1.332-6.264-3.486-8.419zm202.281-52.526c16.838 0 32.062 6.803 43.088 17.858 3.232 3.231 6.123 6.803 8.561 10.715 11.935-5.046 22.252-13.294 29.821-23.669 8.504-11.623 13.52-25.966 13.52-41.415v-140.94h-183.375c-4.139 0-7.483-3.374-7.483-7.512 0-4.139 3.345-7.483 7.483-7.483h190.858c1.928-.028 3.629-.709 5.018-2.098 1.275-1.275 2.07-3.033 2.07-4.96 0-1.956-.795-3.713-2.07-4.989-1.304-1.275-3.062-2.069-4.989-2.069h-415.732c-1.928 0-3.686.794-4.961 2.069-1.305 1.276-2.099 3.033-2.099 4.989 0 1.927.794 3.685 2.099 4.96 1.275 1.276 3.033 2.069 4.933 2.098h190.914c4.139 0 7.512 3.345 7.512 7.483 0 4.139-3.373 7.512-7.512 7.512h-183.374v140.94c0 15.449 5.017 29.792 13.521 41.415 7.569 10.375 17.887 18.624 29.821 23.669 2.466-3.912 5.329-7.484 8.561-10.715 11.026-11.055 26.278-17.858 43.115-17.858 16.811 0 32.061 6.803 43.087 17.858 4.706 4.677 8.645 10.148 11.594 16.186h101.313c2.977-6.038 6.917-11.509 11.594-16.186 11.024-11.055 26.274-17.858 43.112-17.858zm-210.701 14.995c-12.699 0-24.18 5.131-32.514 13.464-8.306 8.306-13.465 19.787-13.465 32.486s5.159 24.18 13.465 32.485c8.334 8.334 19.814 13.464 32.514 13.464 12.672 0 24.18-5.13 32.485-13.464 8.645-8.646 13.465-20.268 13.465-32.485 0-5.839-1.105-11.424-3.09-16.555v-.028l-.028-.085-.057-.142v-.028h-.028c-6.887-17.518-23.839-29.112-42.747-29.112z"/></g></svg>