<svg id="Capa_1" enable-background="new 0 0 512 512" height="512" viewBox="0 0 512 512" width="512" xmlns="http://www.w3.org/2000/svg"><g><g clip-rule="evenodd" fill-rule="evenodd"><path d="m110.383 235.208c56.665 0 102.87-46.206 102.87-102.871s-46.205-102.87-102.87-102.87-102.871 46.205-102.871 102.87c0 56.665 46.205 102.871 102.871 102.871z" fill="#ffe07d"/><path d="m169.996 48.459c26.192 18.652 43.257 49.267 43.257 83.878 0 56.807-46.063 102.871-102.87 102.871-34.611 0-65.226-17.065-83.878-43.258 16.837 11.962 37.389 18.993 59.613 18.993 56.807 0 102.87-46.064 102.87-102.87 0-22.224-7.03-42.776-18.992-59.614z" fill="#ffd064"/><g fill="#d57080"><path d="m15.279 482.561h76.537c4.28 0 7.767-3.515 7.767-7.767v-103.919l-47.424-9.695-44.646 9.695v103.919c-.001 4.252 3.485 7.767 7.766 7.767z"/><path d="m150.238 482.561h76.564c4.28 0 7.768-3.515 7.768-7.767v-140.798l-43.598-11.65-48.501 11.65v140.798c0 4.252 3.486 7.767 7.767 7.767z"/><path d="m285.226 482.561h76.536c4.281 0 7.767-3.515 7.767-7.767 0-59.245 0-118.461 0-177.678l-45.581-6.803-46.489 6.803v177.678c-.001 4.252 3.486 7.767 7.767 7.767z"/><path d="m420.185 482.561h76.565c4.252 0 7.767-3.515 7.767-7.767 0-71.519 0-143.038 0-214.557l-49.039-7.767-43.059 7.767v214.557c-.002 4.252 3.485 7.767 7.766 7.767z"/></g><path d="m15.279 322.346h76.537c4.28 0 7.767 3.515 7.767 7.767v40.763c-30.699 0-61.371 0-92.07 0 0-13.579 0-27.157 0-40.763-.001-4.252 3.485-7.767 7.766-7.767z" fill="#b3e59f"/><path d="m150.238 285.466h76.564c4.28 0 7.768 3.487 7.768 7.767v32.996.028 7.738h-7.768-76.564-7.767v-24.265-16.498c0-4.279 3.486-7.766 7.767-7.766z" fill="#b3e59f"/><path d="m285.226 248.587h76.536c4.281 0 7.767 3.487 7.767 7.767v40.762c-30.7 0-61.399 0-92.071 0 0-13.606 0-27.185 0-40.762 0-4.28 3.487-7.767 7.768-7.767z" fill="#b3e59f"/><path d="m420.185 211.68h76.565c4.252 0 7.767 3.515 7.767 7.767v40.791c-30.7 0-61.399 0-92.099 0 0-13.606 0-27.185 0-40.791-.001-4.252 3.486-7.767 7.767-7.767z" fill="#b3e59f"/><path d="m480.251 211.68v48.558h24.265v-40.791c0-4.252-3.515-7.767-7.767-7.767z" fill="#95d6a4"/><path d="m345.264 248.587v48.529h24.265v-40.762c0-4.28-3.486-7.767-7.767-7.767z" fill="#95d6a4"/><path d="m210.305 285.466v48.53h24.265v-40.763c0-4.28-3.487-7.767-7.768-7.767z" fill="#95d6a4"/><path d="m75.318 322.346v48.53h24.265v-40.763c0-4.252-3.487-7.767-7.767-7.767z" fill="#95d6a4"/><path d="m504.516 260.238h-24.265v178.641c0 10.659-8.759 19.418-19.417 19.418h-48.417v16.497c0 4.252 3.487 7.767 7.767 7.767h76.565c4.252 0 7.767-3.515 7.767-7.767z" fill="#cb5769"/><path d="m369.529 297.117h-24.265v141.762c0 10.659-8.731 19.418-19.418 19.418h-48.389v16.497c0 4.252 3.487 7.767 7.768 7.767h76.536c4.281 0 7.767-3.515 7.767-7.767v-177.677z" fill="#cb5769"/><path d="m234.57 333.996h-24.265v104.883c0 10.659-8.731 19.418-19.418 19.418h-48.416v16.497c0 4.252 3.486 7.767 7.767 7.767h76.564c4.28 0 7.768-3.515 7.768-7.767z" fill="#cb5769"/><path d="m99.582 370.875h-24.264v68.003c0 10.659-8.731 19.418-19.418 19.418h-48.388v16.497c0 4.252 3.486 7.767 7.767 7.767h76.537c4.28 0 7.767-3.515 7.767-7.767v-103.918z" fill="#cb5769"/></g><path d="m110.383 21.955c30.472 0 58.083 12.359 78.038 32.343 19.985 19.957 32.344 47.566 32.344 78.039s-12.359 58.083-32.344 78.039c-19.956 19.984-47.566 32.344-78.038 32.344-30.473 0-58.083-12.36-78.039-32.344-19.985-19.957-32.344-47.566-32.344-78.039s12.359-58.082 32.344-78.039c19.956-19.984 47.566-32.343 78.039-32.343zm132.011 88.754c-4.139 0-7.512-3.345-7.512-7.484s3.373-7.512 7.512-7.512h127.135c4.139 0 7.512 3.373 7.512 7.512s-3.374 7.484-7.512 7.484zm0 58.252c-4.139 0-7.512-3.373-7.512-7.512s3.373-7.483 7.512-7.483h96.719c4.139 0 7.512 3.345 7.512 7.483s-3.373 7.512-7.512 7.512zm0-29.112c-4.139 0-7.512-3.374-7.512-7.512s3.373-7.512 7.512-7.512h127.135c4.139 0 7.512 3.373 7.512 7.512s-3.374 7.512-7.512 7.512zm-118.405-59.188c1.587-3.827 5.981-5.613 9.808-4.025 3.827 1.616 5.613 6.01 3.997 9.808l-40.791 97.257c-1.616 3.799-6.01 5.613-9.808 3.997-3.827-1.587-5.612-5.981-4.025-9.808zm48.643 85.806c0 7.625-2.722 14.57-7.115 19.672-4.649 5.414-11.168 8.76-18.426 8.76-7.256 0-13.776-3.345-18.425-8.76-4.394-5.103-7.115-12.047-7.115-19.672 0-7.626 2.721-14.599 7.115-19.702 4.648-5.414 11.169-8.759 18.425-8.759 7.257 0 13.777 3.345 18.426 8.759 4.394 5.103 7.115 12.076 7.115 19.702zm-18.482 9.949c2.154-2.494 3.486-6.009 3.486-9.949 0-3.969-1.332-7.483-3.486-9.95-1.843-2.183-4.366-3.515-7.059-3.515s-5.216 1.333-7.058 3.515c-2.154 2.466-3.459 5.981-3.459 9.95 0 3.94 1.304 7.455 3.459 9.949 1.842 2.155 4.365 3.487 7.058 3.487s5.217-1.332 7.059-3.487zm-56.042-76.451c0 7.626-2.721 14.599-7.115 19.701-4.648 5.415-11.169 8.759-18.425 8.759-7.257 0-13.777-3.345-18.426-8.759-4.394-5.102-7.115-12.076-7.115-19.701 0-7.597 2.721-14.57 7.115-19.672 4.649-5.414 11.169-8.759 18.426-8.759 7.256 0 13.776 3.345 18.425 8.759 4.394 5.102 7.115 12.075 7.115 19.672zm-18.481 9.95c2.154-2.466 3.458-5.981 3.458-9.95 0-3.94-1.304-7.455-3.458-9.95-1.843-2.154-4.365-3.486-7.058-3.486s-5.216 1.332-7.059 3.486c-2.155 2.495-3.487 6.01-3.487 9.95 0 3.969 1.332 7.484 3.487 9.95 1.843 2.183 4.365 3.515 7.059 3.515 2.692 0 5.215-1.332 7.058-3.515zm332.79 94.281h92.099c4.139 0 7.484 3.345 7.484 7.483v270.882c0 4.138-3.345 7.483-7.484 7.483h-92.099c-4.138 0-7.512-3.345-7.512-7.483 0-90.285 0-180.597 0-270.882 0-4.138 3.374-7.483 7.512-7.483zm84.587 14.995h-77.074v33.535h77.075v-33.535zm-219.546 21.885h92.071c4.139 0 7.512 3.373 7.512 7.512v161.151c0 4.139-3.374 7.483-7.512 7.483s-7.484-3.345-7.484-7.483v-105.138h-77.103v170.449h77.103v-31.352c0-4.138 3.346-7.483 7.484-7.483 4.139 0 7.512 3.345 7.512 7.483v38.864c0 4.138-3.374 7.483-7.512 7.483h-92.071c-4.167 0-7.512-3.345-7.512-7.483v-233.975c0-4.138 3.346-7.511 7.512-7.511zm84.587 14.995h-77.103v33.534h77.103zm-219.574 21.883h92.099c4.138 0 7.483 3.374 7.483 7.512v197.095c0 4.138-3.345 7.483-7.483 7.483h-92.099c-4.139 0-7.484-3.345-7.484-7.483v-197.095c0-4.138 3.345-7.512 7.484-7.512zm84.587 15.024h-77.074v33.534h77.074zm-219.546 21.884h92.07c4.167 0 7.512 3.345 7.512 7.484v87.393c0 4.139-3.346 7.483-7.512 7.483-4.139 0-7.484-3.345-7.484-7.483v-31.352h-77.102v96.663h77.103v-31.352c0-4.138 3.345-7.483 7.484-7.483 4.167 0 7.512 3.345 7.512 7.483v38.864c0 4.138-3.346 7.483-7.512 7.483h-92.071c-4.138 0-7.512-3.345-7.512-7.484 0-53.405 0-106.81 0-160.216 0-4.138 3.374-7.483 7.512-7.483zm84.587 14.995h-77.103v33.534h77.103zm327.831 145.193h77.075v-207.329h-77.075zm-269.947 0h77.074v-133.542h-77.074zm27.836-410.15c-17.263-17.264-41.102-27.95-67.436-27.95s-50.174 10.687-67.437 27.95-27.95 41.103-27.95 67.437c0 26.335 10.687 50.174 27.95 67.438 17.263 17.263 41.103 27.95 67.437 27.95s50.174-10.687 67.436-27.95c17.264-17.264 27.95-41.103 27.95-67.438.001-26.334-10.686-50.174-27.95-67.437z"/></g></svg>