<svg id="Capa_1" enable-background="new 0 0 512 512" height="512" viewBox="0 0 512 512" width="512" xmlns="http://www.w3.org/2000/svg"><g><g clip-rule="evenodd" fill-rule="evenodd"><path d="m460.564 163.108 12.671 12.671c3.316 3.316 3.345 8.73.057 12.075l-7.455 7.456c8.958 12.614 15.194 27.27 17.887 43.144h10.461c4.706 0 8.56 3.883 8.56 8.589v17.915c0 4.733-3.855 8.589-8.56 8.589h-10.489c-2.665 15.874-8.901 30.558-17.858 43.144l7.399 7.399c3.316 3.401 3.374 8.759 0 12.132l-12.671 12.671c-3.316 3.316-8.73 3.345-12.075.057l-7.456-7.455c-12.614 8.957-27.27 15.193-43.144 17.887v10.46c0 4.705-3.855 8.561-8.589 8.561h-17.915c-4.734 0-8.589-3.855-8.589-8.561v-10.46c-15.874-2.693-30.53-8.93-43.145-17.887l-7.398 7.398c-3.345 3.345-8.787 3.345-12.132 0l-12.67-12.671c-3.345-3.345-3.345-8.787 0-12.132l7.398-7.399c-8.958-12.586-15.193-27.27-17.858-43.144h-10.489c-4.706 0-8.56-3.855-8.56-8.589v-17.915c0-4.706 3.855-8.589 8.56-8.589h10.489c2.665-15.874 8.9-30.53 17.858-43.144l-7.398-7.399c-3.345-3.345-3.345-8.787 0-12.132l12.67-12.671c3.345-3.346 8.788-3.346 12.132 0l7.398 7.398c12.615-8.958 27.27-15.194 43.145-17.858v-10.488c0-4.706 3.855-8.561 8.589-8.561h17.915c4.734 0 8.589 3.854 8.589 8.561v10.489c15.875 2.664 30.53 8.9 43.144 17.858l7.399-7.398c3.4-3.29 8.757-3.375 12.13-.001z" fill="#0079a2"/><path d="m460.564 163.108 12.671 12.671c3.316 3.316 3.345 8.73.057 12.075l-7.455 7.456c8.958 12.614 15.194 27.27 17.858 43.144h10.489c4.706 0 8.56 3.883 8.56 8.589v17.915c0 4.733-3.855 8.589-8.56 8.589h-10.489c-2.665 15.874-8.901 30.558-17.858 43.144l7.399 7.399c3.316 3.401 3.374 8.759 0 12.132l-12.671 12.671c-3.316 3.316-8.73 3.345-12.075.057l-7.456-7.455c-12.614 8.957-27.27 15.193-43.144 17.887v10.46c0 4.705-3.855 8.561-8.589 8.561h-17.915c-4.734 0-8.589-3.855-8.589-8.561v-10.46c-15.874-2.693-30.53-8.93-43.145-17.887l-7.398 7.398c-3.345 3.345-8.787 3.345-12.132 0l-12.67-12.671c-3.345-3.345-3.345-8.787 0-12.132l7.171-7.172c17.263 12.501 38.495 19.872 61.456 19.872 58.026 0 105.054-47.028 105.054-105.054 0-22.96-7.37-44.164-19.871-61.456l7.172-7.171c3.4-3.29 8.757-3.375 12.13-.001z" fill="#0c5e7f"/><path d="m380.343 313.402c31.606 0 57.402-25.767 57.402-57.402 0-31.607-25.795-57.402-57.402-57.402s-57.402 25.795-57.402 57.402c0 31.635 25.795 57.402 57.402 57.402z" fill="#0c5e7f"/><path d="m406.961 205.118c18.312 9.609 30.784 28.8 30.784 50.882 0 31.72-25.71 57.402-57.402 57.402-22.111 0-41.273-12.472-50.882-30.784 7.965 4.167 17.008 6.521 26.617 6.521 31.692 0 57.403-25.683 57.403-57.403 0-9.61-2.353-18.653-6.52-26.618z" fill="#174b67"/><path d="m24.45 37.872 121.126-8.731 120.757 8.731v90.908c0 47.849-72.709 65.821-72.709 127.22s72.709 79.371 72.709 127.249v90.88l-117.838 9.723-124.045-9.724v-90.88c0-47.877 72.681-65.85 72.681-127.249s-72.681-79.342-72.681-127.219z" fill="#faf8f9"/><path d="m266.332 37.872v90.908c0 47.849-72.709 65.821-72.709 127.22s72.709 79.371 72.709 127.249v90.88h-241.882v-24.265h193.353c15.477 0 24.265-7.001 24.265-24.265v-42.35c0-47.877-72.71-65.85-72.71-127.249s72.71-79.371 72.71-127.22v-90.908z" fill="#ede9fb"/><path d="m24.45 37.872h241.883c8.362 0 15.194-6.831 15.194-15.165 0-8.363-6.832-15.194-15.194-15.194h-241.883c-8.363 0-15.194 6.831-15.194 15.165-.001 8.363 6.831 15.194 15.194 15.194z" fill="#d57080"/><path d="m24.45 504.517h241.883c8.362 0 15.194-6.831 15.194-15.194 0-8.362-6.832-15.194-15.194-15.194h-241.883c-8.363 0-15.194 6.832-15.194 15.194-.001 8.362 6.831 15.194 15.194 15.194z" fill="#d57080"/><path d="m24.45 474.128 101.424-135.328c10.743-14.315 28.291-14.315 39.005 0l101.453 135.328z" fill="#ffe07d"/><path d="m217.803 449.864h-175.183l-18.17 24.265h241.883l-26.646-35.546c-3.572 7.879-11.113 11.281-21.884 11.281z" fill="#ffd064"/></g><path d="m440.07 160.868 9.128-9.127c2.92-2.92 7.683-2.92 10.602 0l24.803 24.803c2.919 2.92 2.919 7.682 0 10.602l-9.128 9.128c3.345 5.301 6.236 10.913 8.674 16.781 2.381 5.754 4.28 11.735 5.698 17.915h12.898c4.139 0 7.512 3.345 7.512 7.484v35.093c0 4.139-3.373 7.484-7.512 7.484h-12.898c-1.418 6.18-3.316 12.16-5.698 17.915-2.438 5.867-5.329 11.48-8.674 16.781l9.128 9.127c2.919 2.92 2.919 7.683 0 10.602l-24.803 24.804c-2.919 2.948-7.682 2.948-10.602 0l-9.128-9.128c-5.301 3.345-10.914 6.236-16.781 8.674-5.754 2.382-11.735 4.309-17.916 5.699v12.897c0 4.167-3.345 7.512-7.483 7.512h-35.093c-4.139 0-7.484-3.345-7.484-7.512v-12.897c-6.18-1.39-12.161-3.317-17.915-5.699-5.868-2.438-11.48-5.329-16.782-8.674l-9.127 9.128c-2.92 2.948-7.682 2.948-10.602 0l-24.803-24.804c-2.92-2.919-2.92-7.682 0-10.602l9.127-9.127c-3.316-5.301-6.236-10.914-8.674-16.753-2.381-5.755-4.28-11.764-5.698-17.943h-12.897c-4.139 0-7.512-3.345-7.512-7.484v-35.093c0-4.139 3.373-7.484 7.512-7.484h12.897c1.417-6.18 3.316-12.161 5.698-17.915 2.438-5.868 5.358-11.48 8.674-16.781l-9.127-9.128c-2.92-2.92-2.92-7.682 0-10.602l24.803-24.803c2.919-2.92 7.682-2.92 10.602 0l9.127 9.127c5.301-3.316 10.914-6.235 16.782-8.645 5.754-2.409 11.735-4.309 17.915-5.726v-12.897c0-4.139 3.345-7.512 7.484-7.512h35.093c4.139 0 7.483 3.373 7.483 7.512v12.897c6.18 1.417 12.161 3.317 17.916 5.726 5.867 2.41 11.48 5.329 16.781 8.645zm-229.496 251.323c-2.494-3.288-1.814-7.994 1.474-10.46 3.316-2.466 7.994-1.814 10.46 1.502l36.312 48.445v-68.43c0-19.361-14.91-34.158-30.728-49.89-20.324-20.155-41.981-41.669-41.981-77.358 0-35.688 21.657-57.175 41.981-77.358 15.818-15.704 30.728-30.53 30.728-49.862v-19.417c0-4.139 3.374-7.512 7.512-7.512s7.512 3.373 7.512 7.512v19.417c0 25.54-17.093 42.463-35.206 60.463-18.17 18.029-37.503 37.248-37.503 66.757s19.333 48.728 37.503 66.757c18.114 18 35.206 34.951 35.206 60.492v84.672c3.232 1.134 6.123 2.977 8.504 5.357 4.11 4.11 6.661 9.809 6.661 16.045 0 6.237-2.551 11.906-6.661 16.016-4.082 4.11-9.78 6.661-16.016 6.661h-241.882c-6.265 0-11.935-2.551-16.045-6.661s-6.661-9.779-6.661-16.016c0-6.236 2.551-11.935 6.661-16.045 2.381-2.381 5.301-4.224 8.532-5.357v-31.294c0-4.139 3.345-7.483 7.513-7.483 4.138 0 7.483 3.345 7.483 7.483v15.052l87.96-117.356c6.094-8.135 15.109-13.776 25.483-13.776 10.404 0 19.39 5.642 25.484 13.776l31.295 41.727c2.466 3.288 1.786 7.965-1.502 10.46-3.317 2.466-7.994 1.785-10.46-1.503l-31.266-41.726c-3.26-4.337-7.909-7.711-13.55-7.711-5.613 0-10.261 3.374-13.521 7.711l-92.468 123.364h211.977zm-186.124 84.814h241.883c2.098 0 4.025-.851 5.414-2.268 1.417-1.39 2.268-3.316 2.268-5.414s-.851-4.025-2.268-5.414c-1.389-1.418-3.316-2.269-5.414-2.269h-241.883c-2.126 0-4.054.851-5.443 2.269-1.389 1.389-2.267 3.316-2.267 5.414s.879 4.025 2.267 5.414c1.388 1.417 3.317 2.268 5.443 2.268zm241.882-466.617c2.098 0 4.025-.879 5.414-2.268 1.417-1.389 2.268-3.316 2.268-5.414 0-2.126-.851-4.054-2.268-5.443-1.389-1.39-3.316-2.268-5.414-2.268h-241.882c-2.126 0-4.054.878-5.443 2.268-1.389 1.389-2.267 3.316-2.267 5.414 0 2.126.879 4.054 2.267 5.442 1.389 1.389 3.317 2.268 5.443 2.268h241.882zm-249.395 13.72c-3.231-1.134-6.151-3.005-8.532-5.386-4.11-4.11-6.661-9.779-6.661-16.044 0-6.237 2.551-11.906 6.661-16.016 4.11-4.11 9.78-6.662 16.045-6.662h241.883c6.236 0 11.934 2.552 16.016 6.662 4.11 4.11 6.661 9.779 6.661 16.044 0 6.236-2.551 11.905-6.661 16.016-2.381 2.381-5.272 4.252-8.504 5.386v31.267c0 4.139-3.374 7.512-7.512 7.512-4.139 0-7.512-3.373-7.512-7.512v-29.992h-226.888v83.396c0 19.36 14.91 34.158 30.756 49.862 20.296 20.183 41.953 41.67 41.953 77.358 0 35.689-21.657 57.204-41.953 77.358-15.846 15.732-30.756 30.529-30.756 49.89v19.418c0 4.139-3.345 7.484-7.483 7.484-4.167 0-7.513-3.345-7.513-7.484v-19.418c0-25.54 17.065-42.492 35.207-60.492 18.142-18.027 37.503-37.246 37.503-66.755s-19.361-48.728-37.503-66.729c-18.142-18-35.207-34.951-35.207-60.492zm411.17 226.547c1.19-3.969 5.357-6.18 9.298-4.989 3.968 1.191 6.179 5.357 4.989 9.298-4.11 13.494-12.473 25.087-23.499 33.223-10.8 7.993-24.152 12.728-38.552 12.728-17.916 0-34.158-7.257-45.894-19.021-11.735-11.735-19.021-27.979-19.021-45.894s7.286-34.158 19.021-45.893 27.978-19.021 45.894-19.021c14.4 0 27.751 4.734 38.552 12.728 11.026 8.164 19.389 19.758 23.499 33.222 1.19 3.94-1.021 8.107-4.989 9.326-3.94 1.19-8.107-1.049-9.298-4.989-3.175-10.346-9.609-19.247-18.113-25.54-8.278-6.122-18.511-9.723-29.651-9.723-13.776 0-26.25 5.584-35.292 14.599-9.014 9.042-14.627 21.515-14.627 35.292s5.613 26.278 14.627 35.293c9.043 9.042 21.516 14.626 35.292 14.626 11.14 0 21.373-3.628 29.651-9.723 8.504-6.294 14.939-15.223 18.113-25.542zm26.391-103.011-8.164 8.164c-2.523 2.551-6.605 2.947-9.638.793-5.924-4.195-12.302-7.767-19.077-10.573-6.491-2.692-13.38-4.677-20.523-5.924-3.77-.397-6.718-3.601-6.718-7.455v-11.538h-20.069v11.538c0 3.6-2.608 6.774-6.265 7.37-7.314 1.247-14.344 3.26-20.977 6.009-6.605 2.75-12.841 6.208-18.652 10.262-2.948 2.438-7.313 2.296-10.063-.481l-8.164-8.164-14.202 14.201 8.164 8.164c2.551 2.551 2.948 6.633.794 9.638-4.195 5.925-7.767 12.331-10.573 19.077-2.693 6.52-4.706 13.38-5.924 20.523-.397 3.77-3.6 6.719-7.455 6.719h-11.566v20.069h11.566c3.571 0 6.746 2.607 7.37 6.265 1.219 7.314 3.26 14.343 6.009 20.976 2.75 6.605 6.179 12.842 10.261 18.652 2.438 2.948 2.268 7.314-.482 10.064l-8.164 8.163 14.202 14.202 8.164-8.164c2.523-2.551 6.634-2.948 9.638-.794 5.925 4.224 12.331 7.768 19.077 10.573 6.492 2.693 13.38 4.706 20.523 5.953 3.771.368 6.719 3.571 6.719 7.455v11.538h20.069v-11.538c0-3.6 2.608-6.774 6.265-7.398 7.314-1.219 14.344-3.26 20.977-6.01 6.605-2.721 12.841-6.18 18.652-10.261 2.948-2.439 7.313-2.269 10.063.481l8.164 8.164 14.202-14.202-8.164-8.163c-2.551-2.523-2.948-6.606-.793-9.639 4.195-5.924 7.767-12.302 10.573-19.077 2.693-6.491 4.706-13.379 5.924-20.523.397-3.77 3.6-6.718 7.455-6.718h11.566v-20.069h-11.538c-3.6 0-6.775-2.608-7.398-6.265-1.219-7.314-3.26-14.344-6.009-20.977-2.75-6.605-6.18-12.841-10.261-18.624-2.438-2.947-2.268-7.341.481-10.091l8.164-8.164z"/></g></svg>