<svg id="Capa_1" enable-background="new 0 0 512 512" height="512" viewBox="0 0 512 512" width="512" xmlns="http://www.w3.org/2000/svg"><g><g clip-rule="evenodd" fill-rule="evenodd"><path d="m45.553 426.889 41.642 9.212 33.591-9.212v-67.466c0-4.28-3.487-7.767-7.767-7.767h-59.699c-4.252 0-7.767 3.486-7.767 7.767z" fill="#fed1a3"/><path d="m151.684 426.889 38.891 7.767 36.341-7.767v-67.466c0-4.28-3.487-7.767-7.767-7.767h-59.698c-4.252 0-7.767 3.486-7.767 7.767z" fill="#fed1a3"/><path d="m96.521 351.656v36.397c0 8.023-6.548 14.57-14.542 14.57h-36.426v24.265h75.233v-67.466c0-4.28-3.487-7.767-7.767-7.767h-16.498z" fill="#ffbc85"/><path d="m202.651 351.656v36.397c0 8.023-6.548 14.57-14.57 14.57h-36.397v24.265h75.232v-67.466c0-4.28-3.487-7.767-7.767-7.767h-16.498z" fill="#ffbc85"/><path d="m45.553 503h420.893c20.921 0 38.07-17.122 38.07-38.042 0-20.949-17.122-38.07-38.07-38.07h-420.893c-20.919 0-38.041 17.121-38.041 38.07 0 20.92 17.122 38.042 38.041 38.042z" fill="#0c5e7f"/><path d="m285.083 219.503 41.643 9.213 33.591-9.213v-67.465c0-4.281-3.487-7.768-7.768-7.768h-59.698c-4.28 0-7.768 3.486-7.768 7.768z" fill="#fed1a3"/><path d="m391.215 219.503 38.892 7.767 36.34-7.767v-67.465c0-4.281-3.486-7.768-7.768-7.768h-59.697c-4.28 0-7.767 3.486-7.767 7.768z" fill="#fed1a3"/><path d="m336.052 144.271v36.398c0 7.994-6.548 14.542-14.57 14.542h-36.398v24.293h75.233v-67.465c0-4.281-3.487-7.768-7.768-7.768z" fill="#ffbc85"/><path d="m442.182 144.271v36.398c0 7.994-6.548 14.542-14.57 14.542h-36.396v24.293h75.231v-67.465c0-4.281-3.486-7.768-7.768-7.768z" fill="#ffbc85"/><path d="m45.553 295.615h420.893c20.921 0 38.07-17.121 38.07-38.07 0-20.92-17.122-38.041-38.07-38.041h-420.893c-20.919 0-38.041 17.122-38.041 38.041 0 20.948 17.122 38.07 38.041 38.07z" fill="#0c5e7f"/><path d="m45.553 295.615h420.893c20.921 0 38.07-17.121 38.07-38.07 0-16.384-10.658-30.983-26.192-36.142 1.247 3.742 1.928 7.738 1.928 11.877 0 20.949-17.15 38.07-38.07 38.07h-420.893c-4.139 0-8.136-.68-11.878-1.899 5.018 15.165 19.361 26.164 36.142 26.164z" fill="#174b67"/><path d="m45.553 503h420.893c20.921 0 38.07-17.122 38.07-38.042 0-16.413-10.658-31.012-26.192-36.171 1.247 3.742 1.928 7.739 1.928 11.906 0 20.92-17.15 38.042-38.07 38.042h-420.893c-4.139 0-8.136-.652-11.878-1.9 5.018 15.166 19.361 26.165 36.142 26.165z" fill="#174b67"/><g fill="#0c5e7f"><path d="m45.582 47.807c10.687 0 19.39-8.703 19.39-19.389-.001-10.715-8.703-19.418-19.39-19.418-10.715 0-19.417 8.703-19.417 19.418 0 10.686 8.702 19.389 19.417 19.389z"/><path d="m164.213 47.807c10.687 0 19.418-8.703 19.418-19.389 0-10.715-8.731-19.418-19.418-19.418s-19.418 8.703-19.418 19.418c0 10.686 8.731 19.389 19.418 19.389z"/></g></g><path d="m330.325 419.377c4.139 0 7.512 3.373 7.512 7.512s-3.373 7.483-7.512 7.483c-94.905 0-189.838 0-284.772 0-8.39 0-16.016 3.458-21.571 8.986-5.528 5.556-8.986 13.182-8.986 21.601 0 8.391 3.458 16.016 8.986 21.571 5.556 5.528 13.181 8.987 21.571 8.987h420.893c8.392 0 16.045-3.458 21.572-8.987 5.556-5.556 8.986-13.181 8.986-21.571 0-8.419-3.431-16.044-8.986-21.601-5.527-5.528-13.181-8.986-21.572-8.986h-102.134c-4.139 0-7.512-3.345-7.512-7.483 0-4.139 3.373-7.512 7.512-7.512h102.134c12.53 0 23.925 5.13 32.174 13.379 8.277 8.249 13.38 19.645 13.38 32.202 0 12.529-5.103 23.924-13.38 32.173-8.249 8.249-19.643 13.38-32.174 13.38h-420.893c-12.529 0-23.924-5.131-32.173-13.38-8.249-8.248-13.38-19.644-13.38-32.173 0-12.558 5.131-23.954 13.38-32.202 6.576-6.577 15.137-11.168 24.69-12.756v-68.344c0-4.139 3.345-7.512 7.483-7.512h75.233c4.166 0 7.512 3.373 7.512 7.512v67.721h15.902v-67.721c0-4.139 3.345-7.512 7.484-7.512h75.232c4.139 0 7.512 3.373 7.512 7.512v67.721zm-186.295-290.498c1.049 3.997-1.304 8.107-5.301 9.184-3.997 1.049-8.107-1.304-9.184-5.301l-10.431-38.835c-1.021-3.827 1.134-7.767 4.818-9.042l32.769-13.861v-16.754c-4.394-1.275-8.362-3.657-11.509-6.832-3.175-3.175-5.556-7.115-6.832-11.537h-66.925c-1.304 4.422-3.686 8.362-6.832 11.537-3.175 3.175-7.115 5.556-11.537 6.832v157.722h92.581c4.139 0 7.512 3.345 7.512 7.512 0 4.139-3.373 7.483-7.512 7.483h-100.094c-8.39 0-16.016 3.458-21.571 8.986-5.528 5.556-8.986 13.181-8.986 21.572 0 8.419 3.458 16.044 8.986 21.601 5.556 5.527 13.181 8.986 21.571 8.986h420.893c8.392 0 16.045-3.458 21.572-8.986 5.556-5.557 8.986-13.182 8.986-21.601 0-8.391-3.431-16.016-8.986-21.572-5.527-5.528-13.181-8.986-21.572-8.986-95.614 0-191.227 0-286.812 0-4.139 0-7.512-3.345-7.512-7.483 0-4.167 3.373-7.512 7.512-7.512h97.967v-67.721c0-4.139 3.345-7.512 7.482-7.512h75.233c4.139 0 7.512 3.373 7.512 7.512v67.721h15.875v-67.721c0-4.139 3.373-7.512 7.512-7.512h75.231c4.14 0 7.513 3.373 7.513 7.512v68.344c9.524 1.587 18.085 6.18 24.661 12.756 8.277 8.249 13.38 19.645 13.38 32.174 0 12.558-5.103 23.953-13.38 32.202-8.249 8.249-19.643 13.379-32.174 13.379h-420.893c-12.529 0-23.924-5.131-32.173-13.379-8.249-8.249-13.38-19.644-13.38-32.202 0-12.529 5.131-23.925 13.38-32.174 6.576-6.576 15.137-11.168 24.69-12.756v-158.345c-4.422-1.275-8.362-3.657-11.537-6.832-4.875-4.875-7.881-11.594-7.881-19.021 0-7.456 3.005-14.174 7.881-19.049 4.876-4.876 11.593-7.88 19.02-7.88 7.456 0 14.173 3.005 19.049 7.88 3.146 3.175 5.528 7.115 6.832 11.537h66.926c1.275-4.422 3.657-8.362 6.832-11.537 4.848-4.876 11.594-7.88 19.021-7.88s14.145 3.005 19.02 7.88c4.876 4.875 7.881 11.594 7.881 19.049 0 7.427-3.005 14.145-7.881 19.021-3.146 3.175-7.115 5.556-11.508 6.832v16.753l33.251 14.088c3.43 1.446 5.301 5.216 4.337 8.816l-10.432 38.835c-1.077 3.997-5.188 6.35-9.185 5.301-3.997-1.077-6.378-5.188-5.301-9.184l8.759-32.543-28.942-12.246-28.942 12.246zm28.602-108.909c-2.154-2.154-5.13-3.487-8.418-3.487-3.289 0-6.265 1.333-8.419 3.487-2.154 2.155-3.487 5.131-3.487 8.448 0 3.288 1.333 6.265 3.487 8.419s5.13 3.487 8.419 3.487c3.288 0 6.264-1.333 8.418-3.487 2.155-2.154 3.487-5.131 3.487-8.419 0-3.316-1.332-6.293-3.487-8.448zm-118.632 0c-2.154-2.154-5.13-3.487-8.447-3.487-3.288 0-6.264 1.333-8.418 3.487-2.155 2.155-3.487 5.131-3.487 8.448 0 3.288 1.332 6.265 3.487 8.419 2.154 2.154 5.13 3.487 8.418 3.487 3.317 0 6.293-1.333 8.447-3.487s3.487-5.131 3.487-8.419c0-3.316-1.332-6.293-3.487-8.448zm404.935 192.022v-60.237h-60.208v60.237zm-299.739 207.385h60.237v-60.237h-60.237zm193.636-207.385v-60.237h-60.236v60.237zm-299.767 207.385h60.237v-60.237h-60.237zm-13.521-154.32c-4.167 0-7.512-3.345-7.512-7.512 0-4.139 3.345-7.483 7.512-7.483h12.047c4.167 0 7.512 3.345 7.512 7.483 0 4.167-3.345 7.512-7.512 7.512zm420.864 0c-4.139 0-7.512-3.345-7.512-7.512 0-4.139 3.373-7.483 7.512-7.483h12.076c4.139 0 7.484 3.345 7.484 7.483 0 4.167-3.346 7.512-7.484 7.512zm-60.123 0c-4.139 0-7.512-3.345-7.512-7.512 0-4.139 3.373-7.483 7.512-7.483h12.076c4.139 0 7.483 3.345 7.483 7.483 0 4.167-3.345 7.512-7.483 7.512zm-60.123 0c-4.139 0-7.513-3.345-7.513-7.512 0-4.139 3.374-7.483 7.513-7.483h12.075c4.139 0 7.483 3.345 7.483 7.483 0 4.167-3.345 7.512-7.483 7.512zm-60.124 0c-4.139 0-7.512-3.345-7.512-7.512 0-4.139 3.373-7.483 7.512-7.483h12.075c4.139 0 7.484 3.345 7.484 7.483 0 4.167-3.346 7.512-7.484 7.512zm-60.123 0c-4.139 0-7.512-3.345-7.512-7.512 0-4.139 3.373-7.483 7.512-7.483h12.076c4.139 0 7.484 3.345 7.484 7.483 0 4.167-3.345 7.512-7.484 7.512zm-60.124 0c-4.139 0-7.512-3.345-7.512-7.512 0-4.139 3.373-7.483 7.512-7.483h12.076c4.139 0 7.483 3.345 7.483 7.483 0 4.167-3.345 7.512-7.483 7.512zm-60.123 0c-4.139 0-7.512-3.345-7.512-7.512 0-4.139 3.374-7.483 7.512-7.483h12.048c4.167 0 7.512 3.345 7.512 7.483 0 4.167-3.345 7.512-7.512 7.512zm-60.124 207.385c-4.167 0-7.512-3.345-7.512-7.483s3.345-7.512 7.512-7.512h12.047c4.167 0 7.512 3.373 7.512 7.512s-3.345 7.483-7.512 7.483zm420.864 0c-4.139 0-7.512-3.345-7.512-7.483s3.373-7.512 7.512-7.512h12.076c4.139 0 7.484 3.373 7.484 7.512s-3.346 7.483-7.484 7.483zm-60.123 0c-4.139 0-7.512-3.345-7.512-7.483s3.373-7.512 7.512-7.512h12.076c4.139 0 7.483 3.373 7.483 7.512s-3.345 7.483-7.483 7.483zm-60.123 0c-4.139 0-7.513-3.345-7.513-7.483s3.374-7.512 7.513-7.512h12.075c4.139 0 7.483 3.373 7.483 7.512s-3.345 7.483-7.483 7.483zm-60.124 0c-4.139 0-7.512-3.345-7.512-7.483s3.373-7.512 7.512-7.512h12.075c4.139 0 7.484 3.373 7.484 7.512s-3.346 7.483-7.484 7.483zm-60.123 0c-4.139 0-7.512-3.345-7.512-7.483s3.373-7.512 7.512-7.512h12.076c4.139 0 7.484 3.373 7.484 7.512s-3.345 7.483-7.484 7.483zm-60.124 0c-4.139 0-7.512-3.345-7.512-7.483s3.373-7.512 7.512-7.512h12.076c4.139 0 7.483 3.373 7.483 7.512s-3.345 7.483-7.483 7.483zm-60.123 0c-4.139 0-7.512-3.345-7.512-7.483s3.374-7.512 7.512-7.512h12.048c4.167 0 7.512 3.373 7.512 7.512s-3.345 7.483-7.512 7.483z"/></g></svg>