<svg id="Capa_1" enable-background="new 0 0 512 512" height="512" viewBox="0 0 512 512" width="512" xmlns="http://www.w3.org/2000/svg"><g><g clip-rule="evenodd" fill-rule="evenodd"><path d="m187.628 85.522h58.224v44.079h-58.224z" fill="#b1e4f9"/><path d="m109.419 121.665h293.163c56.068 0 101.935 45.865 101.935 101.935s-45.866 101.935-101.935 101.935l-153.527 9.695-139.636-9.695c-56.041 0-101.907-45.865-101.907-101.935s45.866-101.935 101.907-101.935z" fill="#ffe07d"/><path d="m461.429 140.487c26.023 18.511 43.088 48.926 43.088 83.113 0 56.07-45.866 101.935-101.935 101.935h-293.163c-34.187 0-64.573-17.065-83.085-43.115 16.641 11.849 36.965 18.822 58.82 18.822h293.161c56.071 0 101.937-45.865 101.937-101.907 0-21.884-7.002-42.18-18.823-58.848z" fill="#ffd064"/><path d="m115.684 340.559h280.633v50.485h-280.633z" fill="#61a2f9"/><path d="m15.279 325.535h481.47c4.252 0 7.768 3.487 7.768 7.767v14.542c0 4.28-3.516 7.767-7.768 7.767h-481.47c-4.28 0-7.768-3.486-7.768-7.767v-14.542c.001-4.28 3.488-7.767 7.768-7.767z" fill="#d57080"/><path d="m115.684 426.478c19.531 0 35.434-15.931 35.434-35.434 0-19.502-15.902-35.434-35.434-35.434-19.503 0-35.434 15.931-35.434 35.434s15.931 35.434 35.434 35.434z" fill="#0c5e7f"/><path d="m396.316 426.478c19.531 0 35.434-15.931 35.434-35.434 0-19.502-15.902-35.434-35.434-35.434-19.503 0-35.434 15.931-35.434 35.434.001 19.503 15.932 35.434 35.434 35.434z" fill="#0c5e7f"/><path d="m429.624 378.912c1.389 3.798 2.126 7.88 2.126 12.132 0 19.56-15.874 35.434-35.434 35.434s-35.434-15.874-35.434-35.434c0-4.252.766-8.334 2.154-12.132 4.933 13.578 17.972 23.301 33.279 23.301 15.309-.001 28.348-9.723 33.309-23.301z" fill="#174b67"/><path d="m148.991 378.912c1.389 3.798 2.126 7.88 2.126 12.132 0 19.56-15.846 35.434-35.434 35.434-19.56 0-35.434-15.874-35.434-35.434 0-4.252.766-8.334 2.154-12.132 4.933 13.578 17.972 23.301 33.279 23.301s28.348-9.723 33.309-23.301z" fill="#174b67"/><path d="m104.571 258.296c19.106 0 34.697-15.59 34.697-34.696 0-19.105-15.592-34.697-34.697-34.697s-34.696 15.591-34.696 34.697 15.591 34.696 34.696 34.696z" fill="#d57080"/></g><path d="m483.001 174.22c-2.183-3.515-1.076-8.107 2.439-10.262 3.515-2.183 8.106-1.105 10.261 2.41 5.273 8.532 9.411 17.773 12.161 27.497 2.692 9.466 4.138 19.445 4.138 29.735 0 30.105-12.303 57.459-32.116 77.273-6.605 6.633-14.061 12.387-22.169 17.15h46.802c4.139 0 7.483 3.346 7.483 7.512v30.076c0 4.139-3.345 7.512-7.483 7.512h-75.602c6.435 7.512 10.347 17.264 10.347 27.922 0 11.849-4.818 22.593-12.586 30.359-7.767 7.767-18.51 12.586-30.359 12.586-11.85 0-22.593-4.819-30.359-12.586-6.095-6.094-10.347-14.003-11.905-22.848h-196.076c-1.559 8.845-5.84 16.753-11.934 22.848-7.767 7.767-18.482 12.586-30.359 12.586-11.85 0-22.564-4.819-30.359-12.586-7.768-7.767-12.558-18.51-12.558-30.359 0-10.658 3.884-20.41 10.318-27.922h-75.573c-4.138 0-7.512-3.373-7.512-7.512v-30.076c0-4.167 3.374-7.512 7.512-7.512h46.773c-8.079-4.762-15.535-10.517-22.14-17.15-19.842-19.814-32.145-47.169-32.145-77.273s12.303-57.459 32.146-77.302c19.814-19.814 47.169-32.117 77.273-32.117h70.696v-21.175h-6.803c-4.167 0-7.512-3.345-7.512-7.483 0-4.139 3.345-7.512 7.512-7.512h14.315 58.224 14.315c4.167 0 7.512 3.373 7.512 7.512s-3.345 7.483-7.512 7.483h-6.804v21.175h47.851v-13.607c0-4.167 3.373-7.512 7.512-7.512s7.483 3.345 7.483 7.512v13.607h33.534v-13.607c0-4.167 3.373-7.512 7.512-7.512s7.483 3.345 7.483 7.512v13.607h37.844c12.812 0 25.171 2.239 36.708 6.406 11.934 4.28 22.904 10.573 32.515 18.454 3.203 2.636 3.656 7.342 1.021 10.517-2.608 3.204-7.314 3.657-10.518 1.021-8.306-6.804-17.773-12.246-28.063-15.931-9.836-3.544-20.494-5.471-31.662-5.471h-37.844v188.846h37.844c25.965 0 49.577-10.63 66.67-27.751 17.122-17.122 27.753-40.706 27.753-66.672 0-8.901-1.248-17.49-3.544-25.625-2.409-8.505-5.952-16.471-10.46-23.755zm-317.257 42.322c-4.167 0-7.512-3.374-7.512-7.512s3.345-7.483 7.512-7.483h44.646c4.14 0 7.484 3.345 7.484 7.483 0 4.139-3.345 7.512-7.484 7.512zm0 29.111c-4.167 0-7.512-3.345-7.512-7.483 0-4.167 3.345-7.512 7.512-7.512h24.746c4.139 0 7.483 3.345 7.483 7.512 0 4.139-3.345 7.483-7.483 7.483zm-61.173-64.262c11.65 0 22.195 4.734 29.85 12.359 7.625 7.654 12.359 18.199 12.359 29.849s-4.734 22.196-12.359 29.849c-7.654 7.625-18.199 12.359-29.85 12.359s-22.195-4.733-29.849-12.359c-7.625-7.653-12.359-18.199-12.359-29.849s4.734-22.195 12.359-29.849c7.654-7.625 18.199-12.359 29.849-12.359zm19.247 22.961c-4.932-4.904-11.735-7.965-19.247-7.965s-14.315 3.061-19.219 7.965c-4.933 4.933-7.966 11.736-7.966 19.247 0 7.512 3.033 14.315 7.966 19.219 4.903 4.932 11.707 7.994 19.219 7.994s14.315-3.061 19.247-7.994c4.905-4.904 7.967-11.708 7.967-19.219s-3.061-14.314-7.967-19.247zm225.925-75.176h-33.534v14.117h33.534zm-48.529 0c-63.923 0-127.845 0-191.795 0-25.938 0-49.55 10.63-66.671 27.752-17.122 17.093-27.753 40.706-27.753 66.671 0 25.966 10.631 49.55 27.753 66.672 17.121 17.121 40.733 27.751 66.671 27.751h191.795zm14.995 188.846h33.534v-14.117h-33.534zm0-159.733v14.116h33.534v-14.116zm0 29.14v14.117h33.534v-14.117zm0 29.113v14.116h33.534v-14.116zm0 29.111v14.117h33.534v-14.117zm0 29.141v14.117h33.534v-14.117zm-121.099-160.613h43.258v-21.175h-43.258zm158.942 269.351c1.36-7.71 4.762-14.712 9.666-20.41h-90.71c-4.167 0-7.512-3.373-7.512-7.512s3.345-7.483 7.512-7.483h223.997v-15.108c-160.67 0-321.34 0-482.01 0v15.108h224.025c4.139 0 7.512 3.345 7.512 7.483 0 4.139-3.373 7.512-7.512 7.512h-90.738c4.904 5.698 8.334 12.7 9.695 20.41zm62.022-12.245c-5.045-5.046-12.047-8.164-19.758-8.164-7.71 0-14.684 3.119-19.758 8.164-5.046 5.074-8.164 12.047-8.164 19.757s3.118 14.712 8.164 19.758c5.074 5.046 12.048 8.164 19.758 8.164 7.711 0 14.713-3.118 19.758-8.164 5.046-5.046 8.192-12.047 8.192-19.758.001-7.711-3.146-14.684-8.192-19.757zm-280.633 0c-5.046-5.046-12.048-8.164-19.758-8.164-7.711 0-14.684 3.119-19.729 8.164-5.074 5.074-8.192 12.047-8.192 19.757s3.118 14.712 8.192 19.758c5.046 5.046 12.019 8.164 19.729 8.164s14.712-3.118 19.758-8.164 8.192-12.047 8.192-19.758c.001-7.711-3.146-14.684-8.192-19.757z"/></g></svg>